<svg width="66" height="51" viewBox="0 0 66 51" fill="none" xmlns="http://www.w3.org/2000/svg">
<path d="M19.4332 16.5985C17.4543 22.9771 14.0786 29.7862 8.21943 27.947C2.36032 26.1077 -1.01547 15.9333 0.96344 9.5547C2.94235 3.17611 7.75381 0.202036 13.6129 2.04126C19.472 3.88049 21.4121 10.1808 19.4332 16.5985Z" fill="#DFDEE0"/>
<path d="M8.56876 28.4156C8.41355 28.3765 8.25834 28.3373 8.10313 28.2982C5.27058 27.3982 2.78725 24.5806 1.27396 20.55C-0.122911 16.7541 -0.394526 12.5669 0.575526 9.39721C1.58438 6.14921 3.33048 3.723 5.6198 2.35336C7.90912 0.983723 10.7417 0.748928 13.7294 1.68811C16.562 2.50989 18.8513 4.66218 19.8214 7.47972C20.8302 10.1799 20.8302 13.4279 19.8214 16.715C18.6185 20.6282 17.1828 23.6414 15.5919 25.5981C13.5354 28.1025 11.2073 29.0417 8.56876 28.4156ZM12.7206 2.19683C7.4823 0.944591 3.13646 3.723 1.31277 9.632C0.381516 12.6452 0.65313 16.6367 2.0112 20.3152C3.40808 24.111 5.73621 26.772 8.33595 27.5938C10.8581 28.3765 13.031 27.5938 15.0099 25.1285C16.562 23.2501 17.9201 20.3152 19.1229 16.4802C21.1406 9.8668 18.8513 4.11432 13.5354 2.43163C13.225 2.35336 12.9534 2.2751 12.7206 2.19683Z" fill="#3B3B3C"/>
<path d="M10.1596 2.7066C6.97781 3.64578 5.0765 6.97204 4.14525 9.98524C2.55437 15.1899 4.41687 23.9164 9.38354 26.3818C9.88796 26.6166 10.4312 26.8122 10.9744 26.9687C11.6729 27.1644 12.3713 27.047 12.9921 26.6948C16.0963 24.8947 18.1528 20.2771 19.5109 15.816C20.0541 14.055 20.3257 12.1767 20.2481 10.3374C19.8213 9.20259 19.2781 8.06775 18.696 7.01118C16.9887 3.95884 13.7294 1.72829 10.1596 2.7066Z" fill="#F281AC"/>
<path d="M46.0128 19.0629C46.7889 25.7155 48.8842 33.0332 54.9761 32.2897C61.0681 31.5462 66.2287 22.1935 65.4527 15.541C64.6767 8.88848 60.486 5.13177 54.3941 5.87528C48.3022 6.6188 45.2368 12.4104 46.0128 19.0629Z" fill="#DFDEE0"/>
<path d="M52.6868 32.5642C50.8631 32.0946 49.3499 30.8033 48.1858 28.6118C46.9829 26.3813 46.1293 23.1724 45.6637 19.1027C45.2756 15.6981 45.8577 12.4893 47.3322 10.0239C48.8454 7.44118 51.4452 5.75848 54.3941 5.44542C57.4983 5.09323 60.1756 5.83674 62.2322 7.63684C64.2887 9.43693 65.4915 12.0979 65.9184 15.5025C66.3064 18.7896 65.2975 22.8594 63.2022 26.3422C60.9905 30.0206 58.0415 32.3294 55.0926 32.6816C54.2389 32.799 53.4241 32.7599 52.6868 32.5642ZM46.4009 19.0244C46.8665 23.0159 47.6814 26.1074 48.8454 28.2597C50.3199 31.0381 52.3376 32.212 54.9374 31.899C57.6535 31.5859 60.4085 29.3945 62.465 25.9508C64.4827 22.6246 65.4527 18.7505 65.0647 15.5807C64.3275 9.12387 60.2533 5.56282 54.4329 6.22807C48.8842 6.93245 45.5861 12.1762 46.4009 19.0244Z" fill="#3B3B3C"/>
<path d="M57.925 7.28392C60.9128 8.77095 62.1932 12.4103 62.5425 15.5409C63.1633 20.9412 59.7099 29.1981 54.4328 30.6851C53.8896 30.8417 53.3076 30.9199 52.7643 30.9591C52.0659 30.9982 51.3675 30.7634 50.8242 30.2938C48.1081 27.9459 46.944 23.0152 46.4008 18.3975C46.168 16.5583 46.2844 14.68 46.7112 12.8799C47.3708 11.8233 48.0693 10.845 48.8453 9.90579C50.9794 7.24478 54.6268 5.64035 57.925 7.28392Z" fill="#F281AC"/>
<path d="M25.1761 33.7369C25.1373 34.3238 24.9821 34.9108 24.7881 35.4587C24.6717 35.7326 24.5553 36.0065 24.4 36.2413C24.2448 36.4761 24.0508 36.7109 23.8568 36.9457C23.6628 37.1805 23.43 37.337 23.1972 37.5327C22.9644 37.6892 22.6928 37.8458 22.4211 37.9632C22.1495 38.0806 21.8391 38.198 21.5287 38.2762C21.2183 38.3545 20.9079 38.4328 20.5974 38.4719C20.5586 38.4719 20.5198 38.511 20.5198 38.5502C20.5198 38.5893 20.5586 38.5893 20.5974 38.5893C20.9079 38.5893 21.2571 38.5893 21.5675 38.5502C21.8779 38.511 22.2271 38.4719 22.5375 38.3936C22.848 38.3154 23.1972 38.198 23.4688 38.0414C24.0896 37.7284 24.6329 37.2979 25.0985 36.7892C25.3313 36.5153 25.5253 36.2413 25.7193 35.9283C25.8745 35.6152 26.0297 35.3022 26.1849 34.9891C26.3013 34.676 26.4178 34.3238 26.4954 34.0108C26.573 33.6586 26.3402 33.2673 25.9909 33.189C25.6417 33.1107 25.2925 33.3064 25.1761 33.6586C25.2149 33.6977 25.2149 33.7369 25.1761 33.7369Z" fill="#DFDEE0"/>
<path d="M20.7526 38.7856H20.5974C20.481 38.7856 20.3646 38.6682 20.3258 38.5508C20.3258 38.4725 20.3258 38.3943 20.3646 38.3551C20.4034 38.316 20.481 38.2769 20.5198 38.2377C20.8302 38.1986 21.1018 38.1203 21.4123 38.0812C21.7227 38.0029 21.9943 37.8855 22.2659 37.7681C22.5375 37.6507 22.8091 37.4942 23.042 37.3377C23.2748 37.1812 23.5076 36.9855 23.7016 36.7898C23.8956 36.5942 24.0508 36.3594 24.206 36.1246C24.3612 35.8898 24.4776 35.6159 24.594 35.3811C24.788 34.8332 24.9433 34.2854 24.9821 33.6984C24.9821 33.6592 24.9821 33.6201 25.0209 33.581C25.1373 33.1114 25.6029 32.8375 26.0685 32.9548C26.5341 33.0722 26.8058 33.581 26.6894 34.0506C26.6117 34.4027 26.4953 34.7158 26.3401 35.068C26.2237 35.4202 26.0685 35.7333 25.8745 36.0463C25.6805 36.3594 25.4865 36.6724 25.2537 36.9464C25.0209 37.2203 24.7492 37.4551 24.4776 37.6899C24.206 37.9247 23.8956 38.0812 23.5852 38.2377C23.2748 38.3943 22.9255 38.5117 22.6151 38.5899C22.3047 38.6682 21.9555 38.7465 21.6063 38.7465C21.2959 38.7856 21.0242 38.7856 20.7526 38.7856ZM25.3701 33.7375C25.3313 34.3245 25.1761 34.9506 24.9821 35.4985C24.8657 35.7724 24.7492 36.0463 24.594 36.3202C24.4388 36.5942 24.2448 36.829 24.012 37.0638C23.7792 37.2986 23.5464 37.4942 23.3136 37.6507C23.042 37.8464 22.7703 38.0029 22.4599 38.1203L22.1107 38.2769L22.4599 38.1986C22.7703 38.1203 23.0808 38.0029 23.3524 37.8855C23.6628 37.729 23.9344 37.5725 24.206 37.3768C24.4776 37.1812 24.7104 36.9464 24.9433 36.6724C25.1761 36.3985 25.3701 36.1246 25.5641 35.8507C25.7193 35.5767 25.8745 35.2637 25.9909 34.9506C26.1073 34.6375 26.2237 34.3245 26.3013 33.9723C26.3401 33.8549 26.3401 33.6984 26.2625 33.581C26.1849 33.4636 26.1073 33.3853 25.9521 33.3462C25.6805 33.2679 25.4089 33.4244 25.3701 33.6984V33.7375Z" fill="#3B3B3C"/>
<path d="M19.5111 37.809C19.0455 37.8873 18.3471 38.5134 17.9978 38.8656C17.9202 38.9439 17.9202 39.1004 17.9978 39.1787C18.0366 39.2178 18.0366 39.2178 18.0754 39.2178C18.5411 39.4135 19.4335 39.6874 19.9379 39.6091C20.6364 39.4526 21.102 38.9439 20.9856 38.4351C20.8692 37.9264 20.2096 37.6916 19.5111 37.809Z" fill="#DFDEE0"/>
<path d="M19.7051 39.842C19.123 39.8028 18.541 39.6854 17.9978 39.4506C17.8814 39.4115 17.765 39.2941 17.7262 39.1376C17.6874 38.981 17.7262 38.8636 17.8426 38.7462C18.3082 38.2767 18.9678 37.7288 19.4723 37.6114C20.2483 37.4549 21.0243 37.8071 21.1407 38.3941C21.1795 38.6289 21.1407 38.9028 20.9855 39.1376C20.7527 39.4898 20.3647 39.7246 19.9379 39.8028C19.8991 39.8028 19.7827 39.842 19.7051 39.842ZM19.5499 38.0027C19.0066 38.2375 18.5022 38.5506 18.1142 39.0202L19.5499 38.0027ZM18.1142 39.0202C18.6574 39.2941 19.2782 39.4115 19.8603 39.3724C20.1707 39.3332 20.4423 39.1376 20.6363 38.8636C20.7139 38.7463 20.7527 38.5897 20.7139 38.4332C20.6363 38.0419 20.0543 37.8071 19.5111 37.9245L18.1142 39.0202Z" fill="#3B3B3C"/>
<path d="M34.1393 36.7909C37.8643 36.0083 37.9807 37.2605 38.2524 39.2172C38.9508 44.7348 39.3388 45.4392 36.1959 45.4784C33.7125 45.4784 33.3633 45.0088 32.8589 41.1346C32.2768 37.691 33.2469 36.9866 34.1393 36.7909Z" fill="#DFDEE0"/>
<path d="M36.0795 45.87C34.799 45.87 34.023 45.7134 33.441 45.009C32.8589 44.3047 32.7037 43.1698 32.4321 41.1741C31.9665 38.2783 32.4709 36.713 34.0618 36.439C35.8467 36.0477 36.9331 36.126 37.5928 36.5956C38.33 37.1434 38.4464 38.0826 38.6016 39.1783V39.2174C38.6792 39.687 38.718 40.1175 38.7568 40.5088C39.1061 43.2481 39.3001 44.5003 38.6404 45.2438C38.1748 45.7917 37.36 45.9091 36.1183 45.9091H36.0795V45.87ZM36.0407 36.9478C35.4199 36.9478 34.8378 37.026 34.217 37.1826C33.7902 37.2608 32.6261 37.4565 33.2081 41.0567C33.7126 44.8525 33.9842 45.0873 36.1571 45.0873C37.3212 45.0873 37.8644 44.9699 38.0972 44.696C38.4852 44.2264 38.33 42.935 38.0196 40.5871C37.9808 40.1958 37.9032 39.7653 37.8644 39.2957V39.2566C37.748 38.3174 37.6316 37.5739 37.166 37.2217C36.8167 36.9869 36.4287 36.9086 36.0407 36.9478Z" fill="#3B3B3C"/>
<path d="M29.3278 36.7909C25.6028 36.0083 25.4864 37.2605 25.2148 39.2172C24.5163 44.7348 24.1283 45.4392 27.2713 45.4784C29.7546 45.4784 30.1038 45.0088 30.6083 41.1346C31.1903 37.691 30.259 36.9866 29.3278 36.7909Z" fill="#DFDEE0"/>
<path d="M27.3879 45.8691H27.3103C26.0686 45.8691 25.2538 45.7517 24.7881 45.2038C24.1673 44.4603 24.3225 43.208 24.6717 40.4688C24.7105 40.0774 24.7881 39.647 24.8269 39.1774V39.1383C24.9434 38.0426 25.0986 37.1034 25.8358 36.5555C26.5342 36.0859 27.6207 36.0077 29.3668 36.399C30.9189 36.6729 31.4621 38.2382 30.9965 41.134C30.7249 43.1298 30.5309 44.2646 29.9876 44.969C29.4444 45.6734 28.6684 45.8691 27.3879 45.8691ZM27.4267 36.9468C27.0387 36.9077 26.6506 37.0251 26.3014 37.2208C25.8358 37.573 25.7194 38.3165 25.603 39.2557V39.2948C25.5254 39.7644 25.4866 40.1948 25.4478 40.5862C25.1374 42.9341 24.9822 44.2255 25.3702 44.6951C25.603 44.969 26.1462 45.0864 27.3103 45.0864C29.4832 45.0864 29.7548 44.8907 30.2592 41.0558C30.8413 37.4947 29.6772 37.2599 29.2504 37.1816C28.6684 37.0642 28.0475 36.9468 27.4267 36.9468Z" fill="#3B3B3C"/>
<path d="M38.679 35.4604C38.679 39.7258 35.5749 41.3694 31.7335 41.3694C27.8921 41.3694 24.7491 39.7258 24.7491 35.4604C24.7491 31.1949 27.8533 24.3076 31.7335 24.3076C35.6137 24.3076 38.679 31.1949 38.679 35.4604Z" fill="#DFDEE0"/>
<path d="M31.7336 41.7604C27.0774 41.7604 24.4 39.4516 24.4 35.4601C24.4 30.8816 27.6982 23.916 31.7336 23.916C35.769 23.916 39.0672 30.9207 39.0672 35.4601C39.0672 39.4516 36.4287 41.7604 31.7336 41.7604ZM31.7336 24.6987C30.1427 24.6987 28.4742 26.0683 27.155 28.4945C25.9521 30.6468 25.1761 33.4252 25.1761 35.4992C25.1761 40.3125 29.2891 41.0169 31.7724 41.0169C34.2558 41.0169 38.33 40.3125 38.33 35.4992C38.33 33.4252 37.5539 30.6859 36.3511 28.4945C34.993 26.0683 33.3245 24.6987 31.7336 24.6987Z" fill="#3B3B3C"/>
<path d="M49.7377 20.1195C49.0005 28.0634 40.8908 32.2506 31.4619 31.3897C22.033 30.5288 14.8158 24.8937 15.5531 16.9107C16.2903 8.92765 24.8656 -0.503277 34.3333 0.357637C43.801 1.21855 50.4749 12.1365 49.7377 20.1195Z" fill="#DFDEE0"/>
<path d="M27.6594 31.1552C24.6328 30.49 21.8391 29.0812 19.4333 27.1246C16.2904 24.3853 14.8159 20.8634 15.1651 16.911C15.5531 12.8412 17.8812 8.41927 21.4122 5.09301C23.1583 3.44945 25.176 2.11894 27.349 1.17976C31.8112 -0.776863 36.9719 -0.26814 41.0073 2.47113C42.9862 3.80164 44.7323 5.48433 46.1292 7.44096C49.0005 11.3933 50.475 16.1675 50.087 20.2373C49.7378 24.1897 47.6425 27.3594 44.0339 29.4726C40.6581 31.4292 36.1958 32.2901 31.3844 31.8205C30.1815 31.664 28.901 31.4292 27.6594 31.1552ZM36.1182 1.1015C35.4974 0.944967 34.9154 0.866702 34.2945 0.788437C30.0263 0.397112 25.6417 2.11894 21.9555 5.64087C18.5409 8.84973 16.3292 13.1152 15.9799 16.9893C15.6307 20.6677 17.0276 23.9549 19.9766 26.5376C22.8091 29.003 26.9221 30.6074 31.5396 31.0378C36.157 31.4683 40.4641 30.6465 43.7234 28.7682C47.0992 26.7724 49.0781 23.7983 49.3885 20.1199C50.0482 12.6456 44.1891 3.05812 36.1182 1.1015Z" fill="#3B3B3C"/>
<path d="M26.1073 20.7453C26.1461 21.841 25.0208 22.7019 23.5851 22.6628C22.1494 22.6237 20.9466 21.6453 20.9078 20.5496C20.869 19.4539 21.9942 18.593 23.4299 18.6321C24.8656 18.6713 26.0685 19.6105 26.1073 20.7453Z" fill="#F281AC"/>
<path d="M43.4907 21.1379C43.5295 22.2336 42.4043 23.0945 40.9686 23.0554C39.5329 23.0162 38.3301 22.0379 38.2913 20.9422C38.2525 19.8465 39.3777 18.9856 40.8134 19.0247C42.2491 19.0639 43.4519 20.0422 43.4907 21.1379Z" fill="#F281AC"/>
<path d="M24.8656 18.3196C24.788 18.3196 24.7104 18.2413 24.7104 18.163C24.7104 17.6543 24.8656 17.1847 25.1372 16.8717C25.3312 16.676 25.564 16.5586 25.7968 16.5586C25.7968 16.5586 25.7968 16.5586 25.8356 16.5586C26.4565 16.5586 26.9609 17.2238 26.9997 18.1239C26.9997 18.2022 26.9221 18.2804 26.8445 18.2804C26.7281 18.2804 26.6893 18.2022 26.6893 18.1239C26.6505 17.4195 26.3013 16.8717 25.8356 16.8717C25.6804 16.8717 25.5252 16.9499 25.4088 17.1064C25.176 17.3412 25.0596 17.7326 25.0596 18.163C25.0596 18.2413 24.982 18.3196 24.8656 18.3196Z" fill="#010101"/>
<path d="M37.748 19.0246C37.6704 19.0246 37.5928 18.9464 37.5928 18.8681C37.5928 17.9681 38.0972 17.2637 38.718 17.2637C39.3389 17.2637 39.8821 17.9681 39.8821 18.829C39.8821 18.9072 39.8045 18.9855 39.7269 18.9855C39.6493 18.9855 39.5717 18.9072 39.5717 18.829C39.5717 18.1246 39.1837 17.5767 38.7568 17.5767C38.33 17.5767 37.942 18.1637 37.942 18.829C37.9032 18.9464 37.8256 19.0246 37.748 19.0246Z" fill="#010101"/>
<path d="M39.3001 35.6167C39.1061 38.9821 36.2347 41.5648 32.8977 41.3692C29.5608 41.1735 26.961 38.2777 27.155 34.9123C27.349 31.5469 30.2204 28.9642 33.5574 29.1598C36.9332 29.3555 39.4941 32.2513 39.3001 35.6167Z" fill="#BE6750"/>
<path d="M31.5784 41.4474C28.2026 40.5473 26.1849 37.0254 27.0773 33.5817C27.9698 30.1381 31.462 28.1423 34.8765 29.0815C36.0794 29.3946 37.1659 30.099 37.9807 31.0381C40.3088 33.66 40.076 37.7298 37.4763 40.0777C35.8466 41.5256 33.6349 42.0344 31.5784 41.4474ZM34.7213 29.6294C34.3333 29.512 33.9453 29.4728 33.5573 29.4337C30.3755 29.238 27.6205 31.7034 27.4265 34.9122C27.2713 37.6907 29.0562 40.156 31.6948 40.8995C32.0828 41.0169 32.4708 41.056 32.8588 41.0952C36.0406 41.2908 38.7956 38.8255 38.9896 35.6166C39.1836 32.8382 37.3987 30.3729 34.7213 29.6294Z" fill="#794135"/>
<path d="M36.5063 35.4604C36.3899 37.2996 34.8378 38.7084 33.0141 38.591C31.1904 38.4736 29.7936 36.9083 29.91 35.0691C30.0264 33.2298 31.5785 31.8211 33.4022 31.9385C35.2259 32.0559 36.6227 33.6212 36.5063 35.4604Z" fill="#F8D2B3"/>
<path d="M64.5602 39.2163C64.3662 42.5817 61.4948 45.1644 58.1578 44.9688C54.8209 44.7731 52.2599 41.8773 52.4539 38.5119C52.6479 35.1465 55.5193 32.5638 58.8563 32.7594C62.1933 32.9551 64.7542 35.8509 64.5602 39.2163Z" fill="#BE6750"/>
<path d="M56.8386 45.0853C53.4628 44.1461 51.4451 40.6242 52.3764 37.2197C53.3076 33.8151 56.7998 31.7802 60.1756 32.7194C63.0858 33.5021 65.0259 36.2414 64.8706 39.2546C64.6766 42.7765 61.6889 45.5158 58.1579 45.281C57.6923 45.2418 57.2654 45.2027 56.8386 45.0853ZM60.0204 33.2282C59.6324 33.1108 59.2443 33.0716 58.8175 33.0325C55.6357 32.8368 52.9196 35.3022 52.7644 38.511C52.5704 41.7199 55.0149 44.4592 58.1967 44.6157C61.3785 44.8114 64.0946 42.346 64.2498 39.1372C64.405 36.437 62.6589 33.9325 60.0204 33.2282Z" fill="#794135"/>
<path d="M61.8052 39.059C61.6888 40.8983 60.1367 42.307 58.313 42.1896C56.4893 42.0722 55.0925 40.5069 55.2089 38.6677C55.3253 36.8285 56.8774 35.4197 58.7011 35.5371C60.5248 35.6545 61.9216 37.2198 61.8052 39.059Z" fill="#F8D2B3"/>
<path d="M59.3606 41.1344C58.119 48.3739 51.445 51.0349 43.995 49.7436C36.545 48.4522 31.1127 43.678 32.3544 36.4385C33.5961 29.199 40.6192 24.5031 48.0692 25.7945C55.5192 27.0859 60.6023 33.8949 59.3606 41.1344Z" fill="#BE6750"/>
<path d="M41.9385 49.5864C38.9507 48.7646 36.4674 47.395 34.7213 45.5166C32.3932 43.0513 31.5007 39.9207 32.0828 36.3988C32.7036 32.8377 34.7213 29.668 37.7479 27.6722C44.1114 23.485 52.6091 24.9721 57.2265 31.0767C59.3995 33.9726 60.2531 37.651 59.6711 41.2121C59.0502 44.734 57.1489 47.395 54.1612 48.9212C51.4062 50.3299 47.8752 50.7213 43.9562 50.056C43.2578 49.8995 42.5593 49.743 41.9385 49.5864ZM49.3497 26.3417C48.9229 26.2243 48.4961 26.1461 48.0304 26.0678C44.577 25.4417 40.9685 26.1852 38.0583 28.1418C35.1869 30.0593 33.2468 33.0725 32.6648 36.477C32.0828 39.8033 32.9364 42.7774 35.1481 45.1253C37.2046 47.3167 40.27 48.8038 44.0726 49.469C52.1047 50.8778 58.0026 47.5907 59.1278 41.0947C59.7099 37.6901 58.8562 34.1682 56.7997 31.3898C54.9372 28.9245 52.2987 27.1635 49.3497 26.3417Z" fill="#794135"/>
<path d="M55.9849 39.4513C56.5669 38.8643 56.9937 38.1208 57.1489 37.299C57.6922 34.638 55.7132 31.9379 52.7255 31.2335C50.863 30.7639 48.8841 31.2726 47.4484 32.6031C46.7112 30.7639 45.1203 29.4334 43.219 29.0421C40.1924 28.3377 37.321 29.9421 36.739 32.564C36.6226 33.151 36.6226 33.7771 36.739 34.4032C35.4197 35.0293 34.5661 35.9294 34.3333 37.0642C33.6736 40.1557 38.1359 43.8733 44.2666 45.282C50.3974 46.6908 55.9461 45.3212 56.6057 42.2297C56.7609 41.2123 56.5281 40.2339 55.9849 39.4513Z" fill="#F8D2B3"/>
<path d="M55.597 37.4945C55.4806 38.3162 54.5493 38.7858 53.5405 38.551C52.5316 38.3162 51.7944 37.4945 51.9108 36.6727C52.0272 35.8509 52.9584 35.3813 53.9673 35.6161C54.9761 35.8509 55.7134 36.6727 55.597 37.4945Z" fill="#F281AC"/>
<path d="M41.5894 33.974C41.473 34.7957 40.5418 35.2653 39.5329 35.0305C38.524 34.7957 37.7868 33.974 37.9032 33.1522C38.0196 32.3304 38.9509 31.8608 39.9597 32.0956C40.9686 32.3304 41.7058 33.1522 41.5894 33.974Z" fill="#F281AC"/>
<path d="M44.6159 39.1773C44.6159 39.1773 44.0338 41.4078 45.7411 41.6817C47.4484 41.9557 47.7588 39.8816 47.7588 39.8816L46.4784 38.3555L44.6159 39.1773Z" fill="#F281AC"/>
<path d="M42.3267 36.3589C42.2491 37.1807 42.5595 38.0025 43.1804 38.5503C43.8012 39.0982 44.6936 39.2547 45.4697 38.9808C45.8965 38.8242 46.2845 38.5503 46.595 38.1981L46.2069 38.159C46.5173 38.746 46.9054 39.2547 47.4098 39.646C47.8366 39.9591 48.3022 40.1547 48.8455 40.1547C49.6215 40.1547 50.32 39.8025 50.7468 39.1373C50.9408 38.8634 51.0572 38.5503 51.0572 38.2372C51.0572 38.1199 50.9408 38.0416 50.7856 38.0416C50.6692 38.0416 50.5916 38.159 50.5916 38.3155C50.5916 38.3546 50.5916 38.2764 50.5916 38.3155V38.3546C50.5916 38.3938 50.5916 38.3938 50.5916 38.4329V38.472C50.5916 38.5112 50.5916 38.4329 50.5916 38.472L50.5528 38.5503C50.514 38.5894 50.514 38.6677 50.4752 38.7068C50.4364 38.746 50.4364 38.746 50.4752 38.7068C50.514 38.6677 50.4752 38.7068 50.4752 38.746L50.4364 38.8242C50.3976 38.9025 50.3588 38.9416 50.32 38.9808L50.2424 39.059L50.2035 39.0982C50.2423 39.059 50.2035 39.0982 50.2035 39.0982C50.0871 39.2156 49.9707 39.2938 49.8543 39.4112C49.8155 39.4504 49.8543 39.4112 49.8155 39.4112L49.7767 39.4504L49.6603 39.4895C49.5827 39.5286 49.5051 39.5678 49.4275 39.5678H49.3887C49.3887 39.5678 49.4275 39.5678 49.3887 39.5678L49.3499 39.6069L49.2335 39.646L49.1171 39.6851H49.0007C48.5739 39.6851 48.1858 39.5678 47.8366 39.333C47.3322 38.9808 46.9054 38.472 46.595 37.8851C46.5562 37.7677 46.4009 37.7285 46.3233 37.7677C46.2845 37.7677 46.2457 37.8068 46.2069 37.8459C45.7801 38.3546 45.0817 38.6286 44.422 38.5503C43.3356 38.3938 42.5983 37.3763 42.7535 36.3198C42.7535 36.2024 42.6759 36.085 42.5595 36.085C42.4431 36.085 42.3655 36.2024 42.3267 36.3589Z" fill="#6B3D33"/>
<path d="M48.108 37.6511C47.9528 38.1207 47.1768 38.3164 46.3619 38.0816C45.5471 37.8468 45.0038 37.2598 45.1591 36.7511C45.3143 36.2423 46.0903 36.0858 46.9051 36.3206C47.72 36.5554 48.2632 37.1815 48.108 37.6511Z" fill="#6B3D33"/>
<path d="M43.0638 33.6205C43.0638 33.6205 43.025 33.6205 43.0638 33.6205C42.9474 33.5814 42.8698 33.5031 42.9086 33.4249C42.9862 32.9944 42.9474 32.5639 42.7922 32.29C42.7146 32.1726 42.5982 32.0552 42.4042 32.0161C41.9774 31.9378 41.473 32.4074 41.3177 33.0727C41.2789 33.1509 41.2013 33.2292 41.1237 33.1901C41.0461 33.1509 40.9685 33.0727 41.0073 32.9944C41.2013 32.1335 41.861 31.5465 42.4818 31.703C42.7146 31.7422 42.9086 31.8987 43.0638 32.1335C43.2967 32.4857 43.3743 32.9944 43.2579 33.5423C43.2191 33.5423 43.1414 33.6205 43.0638 33.6205Z" fill="#010101"/>
<path d="M53.3852 35.9683C53.3852 35.9683 53.3464 35.9683 53.3852 35.9683C53.2688 35.9292 53.1912 35.8509 53.23 35.7727C53.3852 35.1074 53.1524 34.4813 52.7256 34.3639C52.5704 34.3248 52.4152 34.3639 52.2599 34.4422C51.9883 34.5987 51.7555 34.9509 51.6779 35.3814C51.6391 35.4596 51.5615 35.5379 51.4839 35.4988C51.4063 35.4596 51.3287 35.3814 51.3675 35.3031C51.4839 34.7944 51.7555 34.3639 52.1047 34.1682C52.3376 34.0117 52.6092 33.9726 52.842 34.0509C53.4628 34.2074 53.812 34.99 53.5792 35.8509C53.5404 35.9292 53.4628 35.9683 53.3852 35.9683Z" fill="#010101"/>
<path d="M8.49114 27.75C10.276 28.7283 10.9745 30.998 9.96562 32.8372C8.95677 34.6765 6.74505 35.3417 4.92135 34.3243C3.13645 33.346 2.43801 31.0763 3.44687 29.237C4.41692 27.4369 6.66744 26.7717 8.49114 27.75Z" fill="#E18C59"/>
<path d="M6.90045 35.2249C4.61112 35.3032 2.70982 33.5031 2.63222 31.2334C2.51581 28.9246 4.30071 27.0071 6.59003 26.8897C7.32727 26.8506 8.02571 27.0463 8.68535 27.3593C10.7031 28.455 11.4403 30.9986 10.315 32.9944C9.81061 33.9727 8.91816 34.6771 7.8705 34.9902C7.56008 35.1467 7.21087 35.1858 6.90045 35.2249ZM6.55123 27.7115C6.27961 27.7115 6.0468 27.7898 5.77519 27.8289C4.02909 28.3376 3.02024 30.216 3.56347 31.977C4.1067 33.7379 5.9304 34.7554 7.67649 34.2075C9.42259 33.6988 10.4314 31.8204 9.88821 30.0595C9.6554 29.1985 9.07337 28.4942 8.29732 28.1028C7.7541 27.8289 7.13326 27.7115 6.55123 27.7115Z" fill="#703D2E"/>
<path d="M8.60756 29.3558C9.96563 30.0993 10.4701 31.782 9.73282 33.1516C8.99558 34.5213 7.32709 35.03 5.96901 34.2865C4.61094 33.543 4.10651 31.8603 4.84375 30.4906C5.58099 29.121 7.24948 28.6123 8.60756 29.3558Z" fill="#EDDCCD"/>
<path d="M26.0297 24.5026C24.6716 26.0679 24.8656 28.4549 26.4177 29.7854C27.9698 31.1551 30.3367 30.9594 31.656 29.3941C33.0141 27.8288 32.8201 25.4417 31.268 24.1112C29.7159 22.7416 27.3878 22.9373 26.0297 24.5026Z" fill="#E18C59"/>
<path d="M29.0562 31.0764C26.7668 31.1938 24.8267 29.4329 24.7491 27.1241C24.7103 26.0675 25.0596 25.0109 25.7192 24.2282C27.1937 22.4673 29.7934 22.2716 31.5395 23.7587C33.2856 25.2457 33.4796 27.8676 32.0051 29.6285C31.2679 30.4894 30.2202 31.0373 29.0562 31.0764ZM26.34 24.7761C25.1372 26.1849 25.2924 28.298 26.6892 29.472C28.0861 30.646 30.1814 30.5286 31.3455 29.1198C32.5096 27.711 32.3932 25.5979 30.9963 24.4239C29.6382 23.2108 27.5429 23.3673 26.34 24.7761C26.34 24.737 26.34 24.7761 26.34 24.7761Z" fill="#703D2E"/>
<path d="M26.4953 26.029C25.4865 27.203 25.6417 28.964 26.767 29.9814C27.931 30.9989 29.6771 30.8423 30.686 29.7075C31.6948 28.5335 31.5396 26.7726 30.4144 25.7551C29.2503 24.6985 27.5042 24.8551 26.4953 26.029Z" fill="#EDDCCD"/>
<path d="M33.9454 36.8299C35.1483 43.4824 29.522 48.7262 21.6451 50.2132C13.7683 51.7003 6.62873 48.7653 5.42586 42.1519C4.223 35.5386 9.03446 25.8337 16.9113 24.3858C24.7881 22.8988 32.7425 30.1774 33.9454 36.8299Z" fill="#E18C59"/>
<path d="M33.1305 33.1897C32.3156 33.0331 31.462 33.0331 30.6471 33.1897C30.3755 33.2288 30.0263 33.4245 30.0651 33.7767C30.0651 33.9723 30.1815 34.168 30.3755 34.2854C30.5307 34.3636 30.6859 34.3636 30.8411 34.3245C31.6948 34.2854 32.5484 34.4419 33.3245 34.7158C33.2857 34.4028 33.2857 34.0506 33.2081 33.6984C33.2081 33.5419 33.1693 33.3462 33.1305 33.1897Z" fill="#010101"/>
<path d="M29.522 36.7127C29.522 36.9084 29.6384 37.104 29.7936 37.2214C29.9488 37.2997 30.104 37.3388 30.2592 37.2997C31.5009 37.3388 32.7425 37.691 33.829 38.3563C33.9454 37.8084 33.9842 37.2997 34.023 36.7518C32.7813 36.204 31.4621 35.9692 30.104 36.1257C29.8712 36.1649 29.522 36.3214 29.522 36.7127Z" fill="#010101"/>
<path d="M31.1516 39.1388C31.1128 39.3344 31.1904 39.5692 31.3456 39.7258C31.462 39.8431 31.656 39.9214 31.8112 39.9605C32.4709 40.1562 33.1305 40.4693 33.7126 40.8215C33.9066 40.4301 34.0618 39.9997 34.217 39.5692C33.4797 39.1779 32.6649 38.904 31.8112 38.7474C31.5784 38.7083 31.2292 38.7866 31.1516 39.1388Z" fill="#010101"/>
<path d="M8.95674 38.7077C9.15075 38.5512 9.22836 38.3164 9.15075 38.1207C9.03435 37.7685 8.52992 37.7685 8.1419 37.8468C7.01664 38.1207 5.93018 38.5121 4.92133 39.0599C4.96013 39.2556 4.96013 39.4121 4.99893 39.6078C5.07653 39.9208 5.15414 40.273 5.23174 40.5861C6.20179 39.9208 7.24945 39.4121 8.33591 39.0208C8.56872 38.9034 8.76273 38.8251 8.95674 38.7077Z" fill="#010101"/>
<path d="M10.858 40.8992C11.052 40.7427 11.0908 40.5079 11.052 40.2731C10.8968 39.9209 10.3924 39.9601 10.0432 40.0383C8.25828 40.5079 6.62859 41.3688 5.15411 42.5037C5.38693 43.0124 5.69734 43.4428 6.00776 43.9124C7.24943 42.7385 8.68511 41.7993 10.276 41.2123C10.5088 41.134 10.7028 41.0166 10.858 40.8992Z" fill="#010101"/>
<path d="M10.2759 43.9512C10.4311 43.7555 10.4311 43.5207 10.3535 43.3251C10.1595 43.012 9.6551 43.1294 9.30588 43.3251C8.29703 43.8338 7.32697 44.4991 6.47333 45.2426C6.82255 45.5556 7.21057 45.8687 7.59859 46.1426C8.25822 45.4774 8.95666 44.8904 9.7327 44.4208C9.96552 44.3034 10.1207 44.1469 10.2759 43.9512Z" fill="#010101"/>
<path d="M14.3115 28.0235C14.1175 28.1409 13.8847 28.1801 13.6907 28.2192C13.4579 28.2583 13.2639 28.1409 13.1086 27.9844C12.9534 27.6713 13.3027 27.3583 13.6519 27.2017C16.0188 25.9104 18.6185 25.2451 21.2959 25.2451C21.3735 25.4016 21.4511 25.5582 21.5287 25.7147C21.7227 26.1452 21.8779 26.5756 21.9943 27.0061C21.7227 26.9669 21.4511 26.9278 21.1795 26.9278C18.7738 26.693 16.4456 27.1235 14.3115 28.0235Z" fill="#010101"/>
<path d="M19.8602 28.1817C19.9766 28.1426 20.093 27.9861 20.093 27.8687C20.0542 27.6339 19.705 27.5947 19.4722 27.5947C18.0365 27.673 16.6397 28.0252 15.3592 28.6513C15.4756 28.9644 15.592 29.3166 15.7472 29.6296C16.8725 28.9252 18.1529 28.4556 19.4722 28.2991C19.5498 28.26 19.705 28.2208 19.8602 28.1817Z" fill="#010101"/>
<path d="M18.7737 50.9573C16.0964 51.153 13.3803 50.6834 10.8969 49.5877C7.67634 48.0615 5.65863 45.5179 5.0378 42.1916C4.41696 38.7871 5.30941 34.6391 7.44353 31.078C8.49119 29.317 9.81046 27.7517 11.4013 26.4995C14.6219 23.8776 18.929 23.0558 22.848 24.3472C24.7881 24.9733 26.573 25.9517 28.1639 27.2039C31.4232 29.7866 33.7514 33.3477 34.3722 36.7522C34.993 40.0785 33.9842 43.1699 31.5396 45.7527C29.2503 48.1398 25.7581 49.8616 21.7615 50.6051C20.7527 50.8008 19.7438 50.9182 18.7737 50.9573ZM18.4633 24.6211C17.9589 24.6603 17.4933 24.6994 16.9888 24.7777C9.53884 26.1473 4.64978 35.4608 5.85264 42.0742C6.39587 45.1266 8.25837 47.4745 11.2461 48.8442C14.0787 50.1747 17.7649 50.5269 21.6063 49.8225C25.4477 49.1181 28.7459 47.4745 30.9188 45.2048C33.2081 42.8178 34.1006 39.9611 33.5573 36.9479C32.9753 33.739 30.7636 30.3736 27.6982 27.9083C24.7881 25.5995 21.5675 24.4646 18.4633 24.6211Z" fill="#703D2E"/>
<path d="M13.6519 36.4766C13.9235 37.3766 13.1862 38.3158 11.9834 38.5897C10.7805 38.8637 9.61644 38.3549 9.34482 37.4549C9.07321 36.5548 9.81045 35.6157 11.0133 35.3417C12.2162 35.0678 13.3802 35.5765 13.6519 36.4766Z" fill="#EC84B5"/>
<path d="M27.931 33.0733C28.2026 33.9733 27.4654 34.9125 26.2625 35.1864C25.0597 35.4603 23.8956 34.9516 23.624 34.0516C23.3524 33.1515 24.0896 32.2123 25.2925 31.9384C26.4954 31.6645 27.6594 32.1732 27.931 33.0733Z" fill="#EC84B5"/>
<path d="M19.899 38.9435C20.1318 40.4696 18.7349 41.9175 16.756 42.2306C14.7771 42.5437 13.031 41.5262 12.837 40C12.643 38.4739 14.0011 37.026 15.98 36.7129C17.9589 36.3999 19.6662 37.4173 19.899 38.9435Z" fill="#F9D1B4"/>
<path d="M19.7436 38.4333C19.9764 39.9594 21.7225 40.9377 23.7014 40.6638C25.6803 40.3899 27.0772 38.9029 26.8444 37.3767C26.6116 35.8505 24.8267 34.8722 22.8866 35.1853C20.9465 35.4983 19.5108 36.9071 19.7436 38.4333Z" fill="#F9D1B4"/>
<path d="M19.3945 36.164C18.5797 36.3206 17.6484 36.751 17.7649 37.2597C17.8425 37.6902 18.9677 37.2989 19.3557 38.0033C19.5109 38.2772 19.6274 38.4337 19.8602 38.3946C20.093 38.3555 20.1318 38.1598 20.1706 37.8467C20.2482 37.025 21.4123 36.9467 21.3346 36.5162C21.1794 36.0075 20.2094 36.0075 19.3945 36.164Z" fill="#010101"/>
<path d="M18.4632 36.9077C18.4244 36.7511 18.6184 36.6337 18.7736 36.5555C19.0064 36.4381 19.2005 36.3598 19.4721 36.3207C19.6661 36.2815 20.5585 36.1642 20.5197 36.5555C20.5197 36.5946 20.4809 36.6729 20.4421 36.6729C20.4033 36.712 20.3257 36.712 20.2869 36.712L19.3945 36.9859C19.2005 37.0251 18.5408 37.2207 18.4632 36.9077Z" fill="#847475"/>
<path d="M15.0488 38.316C15.0488 38.4725 14.9323 38.6291 14.7383 38.6291C14.5831 38.6291 14.4279 38.5117 14.4279 38.316C14.4279 38.1203 14.5443 38.0029 14.7383 38.0029C14.8935 38.0029 15.0488 38.1203 15.0488 38.316Z" fill="#977768"/>
<path d="M16.329 40.9781C16.329 41.1346 16.2126 41.2912 16.0574 41.2912C15.9022 41.2912 15.747 41.1738 15.747 40.9781C15.747 40.8216 15.9022 40.665 16.0574 40.665C16.2126 40.7433 16.329 40.8607 16.329 40.9781Z" fill="#977768"/>
<path d="M14.8547 40.7824C14.8547 40.9389 14.7383 41.0955 14.5831 41.0955C14.4279 41.0955 14.2726 40.9781 14.2726 40.8215C14.2726 40.665 14.3891 40.5085 14.5831 40.5085C14.6995 40.4693 14.8547 40.5867 14.8547 40.7824Z" fill="#977768"/>
<path d="M14.1951 39.3726C14.1951 39.5291 14.0787 39.6856 13.9235 39.6856C13.7683 39.6856 13.6131 39.5682 13.6131 39.4117C13.6131 39.2552 13.7295 39.0986 13.9235 39.0986C14.0399 39.0986 14.1563 39.216 14.1951 39.3726Z" fill="#977768"/>
<path d="M15.9023 39.2955C15.9023 39.452 15.7859 39.6085 15.5919 39.6085C15.4367 39.6085 15.2815 39.4911 15.2815 39.2955C15.2815 39.0998 15.3979 38.9824 15.5919 38.9824C15.7471 39.0216 15.9023 39.139 15.9023 39.2955Z" fill="#977768"/>
<path d="M24.0119 36.2034C24.0895 36.3599 24.2835 36.3991 24.4388 36.3208C24.594 36.2426 24.6716 36.086 24.594 35.8904C24.5164 35.7338 24.3612 35.6556 24.1671 35.7338C24.1283 35.7338 24.1283 35.773 24.0895 35.773C23.9731 35.8904 23.9343 36.0469 24.0119 36.2034Z" fill="#977768"/>
<path d="M24.1283 38.9433C24.2059 39.0998 24.3612 39.1781 24.5552 39.0998C24.7104 39.0216 24.788 38.865 24.7104 38.6694C24.7104 38.6302 24.6716 38.6302 24.6716 38.5911C24.594 38.4346 24.4 38.3954 24.2447 38.4737C24.0895 38.6302 24.0507 38.8259 24.1283 38.9433Z" fill="#977768"/>
<path d="M25.1761 38.2762C25.2537 38.4328 25.4478 38.4719 25.603 38.3936C25.7582 38.3154 25.797 38.1197 25.7194 37.9632C25.6418 37.8066 25.4477 37.7675 25.2925 37.8458C25.1761 37.9632 25.0985 38.1588 25.1761 38.2762Z" fill="#977768"/>
<path d="M25.4476 36.7909C25.5253 36.9475 25.6805 37.0257 25.8745 36.9475C26.0297 36.8692 26.1073 36.7127 26.0297 36.517C26.0297 36.4779 25.9909 36.4779 25.9909 36.4388C25.9133 36.2822 25.7193 36.2431 25.5641 36.3214C25.4088 36.4388 25.3312 36.6344 25.4476 36.7909Z" fill="#977768"/>
<path d="M22.7703 36.4379C22.8479 36.5944 23.0031 36.6727 23.1971 36.5945C23.3523 36.5162 23.4299 36.3597 23.3523 36.164C23.3523 36.1249 23.3135 36.1249 23.3135 36.0857C23.1971 35.9292 23.0031 35.9292 22.8867 36.0075C22.7703 36.1249 22.7315 36.2814 22.7703 36.4379Z" fill="#977768"/>
<path d="M29.5607 34.8341C29.5607 34.7949 29.5219 34.7949 29.4831 34.7949C28.3191 34.7949 27.1162 34.9906 26.0297 35.421C25.0597 35.8124 24.1284 36.3211 23.2748 36.9081C23.236 36.9472 23.1972 36.9863 23.236 37.0646C23.236 37.1037 23.2748 37.1037 23.3136 37.1037H23.3524H23.3912C24.9045 36.0863 26.8058 35.0297 29.4831 35.0297C29.5219 35.0297 29.5219 35.0297 29.5607 34.9906C29.5995 34.9906 29.5995 34.9515 29.5995 34.9123C29.5607 34.8732 29.5607 34.8732 29.5607 34.8341Z" fill="white"/>
<path d="M29.6771 36.7515C29.6771 36.7124 29.6383 36.7124 29.5995 36.7124C28.5519 36.2819 27.4266 36.1646 26.3401 36.3211C25.3701 36.5167 24.4388 36.8298 23.5464 37.3385C23.5076 37.3777 23.4688 37.4168 23.5076 37.4559C23.5076 37.4951 23.5852 37.5342 23.624 37.5342H23.6628C25.6029 36.5559 27.349 36.0863 29.5607 36.9472C29.5995 36.9472 29.6383 36.9472 29.6383 36.9472L29.6771 36.9081C29.6771 36.8298 29.6771 36.7907 29.6771 36.7515Z" fill="white"/>
<path d="M29.0174 38.5895C28.2025 38.0808 27.3101 37.7286 26.34 37.6112C25.4864 37.5329 24.6327 37.5329 23.7791 37.6503C23.7403 37.6503 23.7403 37.6895 23.7015 37.6895C23.7015 37.7286 23.6627 37.7286 23.6627 37.7677C23.6627 37.8068 23.6627 37.8069 23.7015 37.846C23.7403 37.846 23.7403 37.8851 23.7791 37.8851C25.2535 37.6895 26.9996 37.5721 28.9009 38.7852C28.9009 38.7852 28.9397 38.7852 28.9785 38.7852H29.0174L29.0562 38.746C29.0562 38.7069 29.0562 38.6286 29.0174 38.5895Z" fill="white"/>
<path d="M17.9589 37.8865C17.0277 37.3778 16.0576 36.9865 15.0488 36.6734C13.9235 36.3603 12.7207 36.2821 11.5566 36.3995C11.5178 36.3995 11.5178 36.3995 11.479 36.4386C11.479 36.4777 11.4402 36.4777 11.4402 36.5169C11.4402 36.556 11.479 36.5951 11.479 36.5951C11.5178 36.5951 11.5178 36.5951 11.5566 36.5951C14.2727 36.3212 16.2128 37.2213 17.8425 38.0822H17.8813H17.9201C17.9589 38.0822 17.9589 38.043 17.9977 38.043C18.0365 37.9648 17.9977 37.9256 17.9589 37.8865Z" fill="white"/>
<path d="M17.7649 38.434C17.7649 38.3949 17.7261 38.3949 17.7261 38.3949C16.8336 38.0036 15.8636 37.7688 14.8547 37.6514C13.7295 37.5731 12.643 37.8079 11.6342 38.3558C11.5954 38.3949 11.5566 38.434 11.5954 38.4732L11.6342 38.5123C11.673 38.5123 11.7118 38.5123 11.7118 38.5123C13.8459 37.4166 15.592 37.7297 17.6097 38.5514H17.6485H17.6873C17.7261 38.5514 17.7261 38.5123 17.7261 38.5123C17.7649 38.5123 17.7649 38.4732 17.7649 38.434Z" fill="white"/>
<path d="M17.3381 38.9815C17.3381 38.9423 17.2993 38.9423 17.2605 38.9423C16.4068 38.9032 15.5532 38.9423 14.6995 39.138C13.7683 39.3337 12.8758 39.7641 12.0998 40.3903C12.061 40.3903 12.061 40.4294 12.061 40.4685C12.061 40.5076 12.061 40.5076 12.061 40.5468L12.0998 40.5859H12.1386C12.1774 40.5859 12.1774 40.5859 12.2162 40.5468C13.9623 39.1771 15.7084 39.138 17.2217 39.1771C17.2605 39.1771 17.2605 39.1771 17.2993 39.138C17.3381 39.0989 17.3381 39.0989 17.3381 39.0597C17.3769 39.0206 17.3381 38.9815 17.3381 38.9815Z" fill="white"/>
<path d="M22.1882 40.664C22.2659 41.838 21.4898 42.8163 20.5198 42.8555C19.5497 42.8946 18.6961 41.9946 18.6185 40.8206C18.5408 39.6466 19.3169 38.6683 20.2869 38.6292C21.257 38.59 22.1106 39.4901 22.1882 40.664Z" fill="#F9D1B4"/>
<path d="M17.4933 40.1953L18.4245 40.2736L17.8425 41.6823L17.4933 40.1953Z" fill="white"/>
<path d="M22.8867 39.0596L22.0718 39.49L23.1195 40.5857L22.8867 39.0596Z" fill="white"/>
<path d="M18.7347 40.3903C18.7347 40.3903 19.1616 42.5034 20.636 41.9947C22.1105 41.486 21.6061 39.6859 21.6061 39.6859L19.9376 38.9424L18.7347 40.3903Z" fill="#EC84B5"/>
<path d="M23.2748 38.043C23.1972 37.8082 22.8092 37.9256 22.8868 38.1604C22.9644 38.3169 22.9644 38.5126 22.8868 38.6691C22.8092 38.9039 22.654 39.0605 22.46 39.1779C22.266 39.3344 21.9943 39.4127 21.7615 39.4127C21.4899 39.3735 21.1795 39.2953 20.9467 39.1779C20.6751 39.0605 20.4034 38.9039 20.1318 38.7865C20.1318 38.7474 20.093 38.7083 20.093 38.6691C20.093 38.63 20.093 38.63 20.093 38.5909V38.5517V38.5126C20.093 38.3952 20.0542 38.2778 20.0542 38.1604C20.0542 38.043 19.9378 37.9648 19.8602 37.9648C19.7438 37.9648 19.6662 38.0822 19.6662 38.1996C19.6662 38.4343 19.705 38.63 19.7438 38.8257C19.6274 39.0605 19.4334 39.2953 19.2782 39.5301C19.123 39.7649 18.8902 39.9605 18.6186 40.0779C18.0365 40.3127 17.4157 39.9605 17.0665 39.5301C16.9889 39.4518 16.8725 39.4127 16.7949 39.4909C16.7172 39.5692 16.6784 39.6866 16.7172 39.7648C17.0665 40.2344 17.6097 40.5475 18.2305 40.5866C18.7738 40.5475 19.2782 40.2736 19.6274 39.804C19.7826 39.6083 19.899 39.4127 20.0154 39.1779C20.5587 39.4518 21.1407 39.804 21.7615 39.8431C22.3824 39.8431 22.9644 39.4909 23.236 38.9039C23.3524 38.6691 23.3912 38.3561 23.2748 38.043Z" fill="#010101"/>
<path d="M11.9446 34.8732C11.867 34.8732 11.7894 34.795 11.7894 34.7167C11.7118 34.208 11.8282 33.6993 12.0998 33.3862C12.255 33.1514 12.4878 33.034 12.7595 32.9949C13.4191 32.9166 13.9623 33.5427 14.0787 34.4428C14.0787 34.521 14.0399 34.6384 13.9235 34.6384C13.8459 34.6384 13.7295 34.5993 13.7295 34.4819C13.6519 33.7775 13.2251 33.2688 12.7595 33.3471C12.6043 33.3471 12.449 33.4645 12.3326 33.621C12.1386 33.8949 12.0222 34.2863 12.0998 34.7167C12.1386 34.7558 12.061 34.8341 11.9446 34.8732Z" fill="#010101"/>
<path d="M22.6927 32.7202C22.6151 32.7202 22.5375 32.6419 22.5375 32.5636C22.4211 31.6636 22.8479 30.9201 23.5075 30.8418C23.7403 30.8027 24.012 30.8809 24.206 31.0766C24.5164 31.3505 24.7492 31.781 24.8268 32.2897C24.8268 32.368 24.788 32.4462 24.6716 32.4854C24.594 32.4854 24.5164 32.4462 24.4776 32.3288C24.4388 31.8984 24.2448 31.5462 23.9732 31.3114C23.8568 31.2331 23.7015 31.1549 23.5075 31.1549C23.0807 31.194 22.7703 31.8201 22.8479 32.4854C22.8479 32.6028 22.7703 32.681 22.6927 32.7202Z" fill="#010101"/>
<path d="M30.2979 22.0379C30.9963 21.6857 31.8112 21.6074 32.5872 21.8031C34.2169 22.1944 35.2258 23.7206 35.5362 25.325C35.9242 27.5947 35.6526 29.5513 34.9542 31.7036C34.6049 32.9167 34.0229 34.0124 33.2469 34.9907C32.8588 35.4603 32.432 35.8516 31.9276 36.2038C31.4232 36.556 30.8023 36.7908 30.3367 37.1821C30.0263 37.4561 29.7935 37.8474 29.4443 38.043C29.2114 38.1604 28.9786 38.1996 28.7458 38.1996C28.707 38.1996 28.6682 38.1996 28.6294 38.1604C28.5906 38.1213 28.5518 38.0822 28.513 38.043C28.125 37.4561 28.7458 36.8691 28.4354 36.3212C28.1638 35.8908 27.5042 36.0473 27.2325 35.656C26.9609 35.2646 27.3878 34.5211 27.8534 34.482C28.319 34.4429 28.901 34.7168 29.4055 34.7168C30.6083 34.7168 31.1904 33.3471 31.268 32.3297C31.3456 30.9992 30.8799 29.7078 29.9875 28.7295C29.5607 28.3382 29.1726 27.9469 28.7846 27.4773C28.1638 26.5772 28.0086 25.4033 28.3578 24.3467C28.6294 23.3684 29.3279 22.5074 30.2979 22.0379Z" fill="#DFDEE0"/>
<path d="M28.901 38.5909C28.7846 38.5909 28.707 38.5909 28.5906 38.5909C28.4742 38.5909 28.3966 38.5518 28.319 38.5127C28.2414 38.4344 28.1638 38.3561 28.0862 38.2779C27.8922 37.9257 27.8534 37.4952 27.9698 37.0648C28.0086 36.83 28.0474 36.6734 27.9698 36.5169C27.8922 36.3604 27.8146 36.3995 27.5818 36.3604C27.2713 36.3212 26.9609 36.1256 26.7669 35.8517C26.5729 35.5386 26.5729 35.1473 26.7281 34.7951C26.9221 34.4038 27.2713 34.1298 27.6594 34.0907C28.0086 34.0907 28.319 34.1298 28.6294 34.2081C28.8234 34.2864 29.0174 34.3255 29.2502 34.3255C30.1815 34.3255 30.6471 33.1515 30.7247 32.3297C30.8023 31.1166 30.3755 29.9035 29.5607 29.0035C29.4055 28.8469 29.2502 28.6904 29.095 28.5339C28.8234 28.2991 28.5518 28.0252 28.319 27.7121C27.5818 26.6947 27.4265 25.3641 27.8534 24.1902C28.2414 23.0945 29.0174 22.1553 30.0651 21.6466C30.8411 21.2552 31.7724 21.177 32.626 21.3726C34.2557 21.764 35.4974 23.2901 35.8466 25.2076C36.2346 27.3208 36.0406 29.3165 35.2258 31.7819C34.8766 33.0341 34.2557 34.2081 33.4409 35.2255C33.0141 35.6951 32.5872 36.1256 32.044 36.5169C31.8112 36.6734 31.5396 36.83 31.268 36.9865C30.9963 37.1039 30.7247 37.2996 30.4531 37.4952C30.3367 37.6126 30.2591 37.6909 30.1427 37.8083C29.9487 38.0431 29.7159 38.2387 29.4831 38.3953C29.3667 38.5127 29.1338 38.5909 28.901 38.5909ZM28.7458 37.8083C28.901 37.8083 29.0562 37.8083 29.1726 37.73C29.3667 37.6126 29.5219 37.4561 29.6383 37.2996C29.7547 37.143 29.8711 37.0256 30.0263 36.9082C30.3367 36.6734 30.6471 36.4778 30.9575 36.3212C31.1904 36.2038 31.4232 36.0864 31.6172 35.9299C32.0828 35.5777 32.5096 35.2255 32.8588 34.7951C33.5961 33.8559 34.1781 32.7993 34.5273 31.6253C35.3034 29.2774 35.4586 27.4382 35.1094 25.4424C34.8766 24.1902 34.0617 22.6249 32.4708 22.2335C31.8112 22.077 31.0739 22.1553 30.4531 22.4683C29.5995 22.8988 28.9398 23.6423 28.6294 24.5424C28.2802 25.4815 28.4354 26.499 28.9786 27.3208C29.1726 27.5947 29.4055 27.8295 29.6771 28.0252C29.8323 28.1817 30.0263 28.3382 30.1815 28.4947C31.1516 29.5513 31.656 30.9601 31.5396 32.408C31.462 33.7385 30.6471 35.1473 29.289 35.1473C29.0174 35.1473 28.7458 35.069 28.4742 34.9907C28.2414 34.9125 28.0086 34.8733 27.7758 34.8733C27.6206 34.9125 27.5042 35.0299 27.4654 35.1473C27.4265 35.2255 27.4265 35.3429 27.4654 35.4212C27.5042 35.4995 27.6594 35.5386 27.8534 35.5777C28.2026 35.6169 28.513 35.8125 28.707 36.0864C28.901 36.4386 28.901 36.83 28.7846 37.1822C28.707 37.4952 28.6682 37.6517 28.7458 37.8083Z" fill="#3B3B3C"/>
<path d="M32.5873 25.9499C32.3157 26.1456 32.044 26.3804 31.85 26.6543C32.1217 26.4586 32.4321 26.3412 32.7425 26.263C33.0529 26.1847 33.3633 26.1456 33.6737 26.1456C34.217 26.1456 34.7602 26.2239 35.3034 26.3412C35.3034 26.2239 35.2646 26.1065 35.2646 25.9891C35.2258 25.6369 35.1094 25.3238 34.993 25.0107C34.4886 25.1281 33.9842 25.2455 33.5185 25.4412C33.2081 25.5977 32.8589 25.7543 32.5873 25.9499Z" fill="#988E92"/>
<path d="M34.0229 28.0246C33.6737 28.1029 33.3245 28.1812 33.014 28.3377C32.7036 28.4942 32.3932 28.6507 32.1604 28.8855C32.4708 28.7681 32.7812 28.6899 33.1305 28.6899C33.4409 28.6899 33.7513 28.6899 34.0617 28.7681C34.4885 28.8464 34.9153 29.0029 35.3034 29.1595C35.381 28.7681 35.381 28.3377 35.4198 27.9072C34.9154 27.9464 34.4885 27.9855 34.0229 28.0246Z" fill="#988E92"/>
<path d="M34.2558 30.8809C33.9066 30.8809 33.5574 30.8809 33.2082 30.9591C32.8589 31.0374 32.5485 31.1548 32.2381 31.3113C32.5485 31.2722 32.8977 31.2722 33.2082 31.3113C33.5186 31.3504 33.829 31.4678 34.1006 31.5852C34.2558 31.6635 34.4498 31.7418 34.605 31.82C34.7214 31.507 34.799 31.1939 34.9154 30.92C34.6826 30.8809 34.4886 30.8809 34.2558 30.8809Z" fill="#988E92"/>
<path d="M32.0052 33.2286C32.3156 33.3069 32.626 33.3852 32.9364 33.5808C33.1693 33.7373 33.4021 33.8939 33.6349 34.0895C33.7513 33.8939 33.8677 33.6982 33.9841 33.4634C33.6737 33.346 33.3633 33.2678 33.0528 33.2286C32.6648 33.1504 32.3156 33.1504 32.0052 33.2286Z" fill="#988E92"/>
<path d="M31.0742 34.6377C31.3458 34.7942 31.6174 35.029 31.8114 35.3029C31.9278 35.4595 32.0442 35.616 32.1606 35.7725C32.3158 35.6551 32.471 35.4986 32.5874 35.3812C32.4322 35.2247 32.2382 35.1073 32.0442 35.029C31.7338 34.8334 31.4234 34.716 31.0742 34.6377Z" fill="#988E92"/>
<path d="M20.8301 27.4366C21.3734 27.5931 21.9166 27.4366 22.3434 27.0844C22.8479 26.6148 23.2359 25.7539 23.4687 24.4625C23.5851 23.9146 19.5885 23.0537 19.4721 23.6799C18.7736 26.6539 19.8989 27.2409 20.8301 27.4366Z" fill="#DFDEE0"/>
<path d="M24.2449 24.5802C24.2837 24.3063 24.1672 24.0715 23.9732 23.8758C23.0808 23.0149 20.3646 22.5062 19.2394 22.9758C19.0066 23.054 18.8126 23.2497 18.735 23.5236C18.2305 26.302 18.8514 27.8282 20.7139 28.1804C21.4899 28.3761 22.2659 28.1804 22.848 27.6717C23.0032 27.5151 23.1584 27.3586 23.2748 27.2021C23.7792 26.4194 24.0896 25.5194 24.2449 24.5802ZM23.4688 24.4628C23.236 25.7542 22.848 26.6542 22.3435 27.0847C21.9167 27.4369 21.3735 27.5934 20.8303 27.4369C19.899 27.2412 18.7738 26.6542 19.4334 23.6802C19.5886 23.0149 23.624 23.8758 23.4688 24.4628Z" fill="#3B3B3C"/>
<path d="M41.6282 28.8077C41.0849 28.9643 40.5417 28.8078 40.1149 28.4556C39.6104 27.986 39.2224 27.0859 38.9896 25.7945C38.8732 25.2467 42.8698 24.4249 43.025 25.0902C43.6847 28.0251 42.5982 28.6121 41.6282 28.8077Z" fill="#DFDEE0"/>
<path d="M39.2224 28.5334C39.3388 28.69 39.494 28.8856 39.6492 29.003C40.2312 29.5117 41.0461 29.7465 41.8221 29.5509C43.6846 29.1987 44.3443 27.7116 43.8398 24.8941C43.7622 24.6202 43.5682 24.4245 43.3354 24.3463C42.2101 23.8375 39.494 24.3463 38.6016 25.2072C38.4075 25.3637 38.2911 25.6376 38.2911 25.9116C38.4075 26.8507 38.718 27.7508 39.2224 28.5334ZM43.0638 25.0506C43.6846 28.0247 42.5982 28.6117 41.6669 28.8074C41.1237 28.9639 40.5805 28.8074 40.1536 28.4552C39.6492 27.9856 39.2612 27.0855 39.0284 25.7942C38.912 25.2072 42.9086 24.3854 43.0638 25.0506Z" fill="#3B3B3C"/>
</svg>
