<svg width="80" height="47" viewBox="0 0 80 47" fill="none" xmlns="http://www.w3.org/2000/svg">
<path d="M49.101 27.7188C47.0497 28.0679 44.9549 28.0679 42.9037 27.8061C42.3799 27.7188 41.8562 27.6315 41.3762 27.4133C40.8961 27.1951 40.4597 26.8023 40.3287 26.2786C40.0669 25.4493 40.6342 24.4892 41.3762 24.0528C42.1617 23.6163 43.0782 23.5727 43.9511 23.66C45.6968 23.7473 50.4102 24.3583 52.0687 24.9693" fill="#C66D4E"/>
<path d="M49.0573 27.4136C47.2679 27.6754 45.4786 27.7627 43.6892 27.5882C42.8164 27.5009 41.7253 27.4572 41.0706 26.8026C40.3724 26.1479 40.5906 25.2314 41.2016 24.6204C42.2054 23.7039 43.7765 23.9222 44.9985 24.0531C46.1769 24.184 47.3552 24.3149 48.5336 24.4895C49.7119 24.6641 50.9339 24.8823 52.025 25.2751C52.3742 25.406 52.5487 24.8387 52.1996 24.7077C51.0212 24.2713 49.7119 24.0967 48.4899 23.9222C47.137 23.7039 45.7841 23.5294 44.4311 23.4421C42.9473 23.3112 41.2016 23.3984 40.3287 24.795C39.3686 26.3662 40.6779 27.7191 42.2054 28.0246C44.4748 28.5047 46.9624 28.3737 49.2319 28.0246C49.581 27.9373 49.4064 27.3699 49.0573 27.4136Z" fill="#844129"/>
<path d="M42.4672 25.0563C42.7727 25.58 42.6855 26.2783 42.3363 26.802C41.9872 27.3257 41.4198 27.6312 40.8525 27.8058C40.2415 27.9803 39.6305 27.9367 39.0195 27.8494C38.8012 27.8058 38.5394 27.7621 38.4085 27.5439C38.2775 27.2821 38.4957 27.0202 38.5394 26.7147C38.583 26.4092 38.4521 26.1037 38.2775 25.8855C38.103 25.6236 37.8847 25.4491 37.6665 25.2308C37.492 25.0563 37.361 24.7944 37.361 24.5326C37.4047 24.2271 37.7102 24.0088 38.0157 23.9216C38.3212 23.8343 38.6267 23.8779 38.9322 23.8343C39.2377 23.7906 39.5432 23.6597 39.6741 23.3542C39.7614 23.1796 39.7614 23.0051 39.8487 22.8741C40.0232 22.6559 40.3724 22.7432 40.6342 22.8741C41.2016 23.2233 42.0745 24.3143 42.4672 25.0563Z" fill="#FCD3B1"/>
<path d="M42.2055 25.2318C42.6856 26.2355 41.8127 27.1957 40.8962 27.5012C40.3725 27.6758 39.8051 27.6758 39.2378 27.6321C39.1068 27.6321 38.7577 27.6321 38.6704 27.4575C38.5831 27.3266 38.8013 26.9338 38.8013 26.7593C38.8886 26.1919 38.5395 25.7555 38.1903 25.3627C38.0158 25.1881 37.7976 25.0135 37.7103 24.7517C37.623 24.4898 37.7976 24.3153 38.0158 24.228C38.5395 24.0534 39.0632 24.1843 39.5433 23.9225C39.7178 23.7915 39.8924 23.617 39.9797 23.4424C40.067 23.2242 40.0233 23.006 40.3288 23.0933C40.7216 23.2242 41.0708 23.617 41.3326 23.9225C41.6818 24.3153 41.9436 24.7517 42.2055 25.2318C42.3801 25.5809 42.9038 25.2754 42.7292 24.9263C42.4673 24.4025 42.1182 23.9225 41.7691 23.486C41.4636 23.1369 41.0708 22.7441 40.6343 22.5695C40.3725 22.4823 40.067 22.4386 39.8051 22.6132C39.7178 22.7005 39.6306 22.7878 39.5869 22.875C39.4996 23.006 39.4996 23.2242 39.4123 23.3551C39.2378 23.5733 38.8886 23.5733 38.6268 23.617C38.2776 23.6606 37.9285 23.6606 37.6666 23.8352C37.0556 24.1843 37.012 24.839 37.4484 25.3627C37.6666 25.6245 37.8848 25.8428 38.1031 26.1046C38.3213 26.4101 38.3213 26.672 38.234 27.0211C38.1467 27.283 38.1031 27.5885 38.2776 27.8067C38.4522 28.0685 38.7577 28.1558 39.0196 28.1995C39.7178 28.2868 40.4161 28.2868 41.0708 28.1122C41.7254 27.9376 42.2928 27.5448 42.6856 26.9775C43.0783 26.3665 43.1656 25.5809 42.8165 24.9263C42.5546 24.5771 42.0309 24.8826 42.2055 25.2318Z" fill="#844129"/>
<path d="M37.7976 27.9806C35.0917 27.7188 29.069 28.7226 27.236 29.7264C26.625 30.0755 25.9703 30.5992 25.883 31.2975C25.7521 32.1267 26.4067 32.8686 27.105 33.2614C28.8944 34.3089 31.1638 33.8724 33.1714 33.2178C33.8697 32.9996 35.3099 32.4322 35.8773 31.9958" fill="#E0DFE1"/>
<path d="M37.7974 27.6756C36.2699 27.5447 34.6551 27.7192 33.1276 27.8938C31.5128 28.112 29.8544 28.4175 28.2833 28.9412C27.0176 29.3777 25.2283 30.2942 25.621 31.909C26.1011 33.8729 28.7633 34.3093 30.4218 34.1347C31.5128 34.0475 32.6039 33.742 33.6077 33.3928C34.4369 33.0873 35.3534 32.7818 36.0517 32.2145C36.3572 31.9526 35.9208 31.5162 35.6153 31.778C35.0479 32.2145 34.306 32.4763 33.6077 32.7382C32.8658 33 32.0802 33.2619 31.2946 33.3928C30.3781 33.5674 29.3743 33.6547 28.4578 33.4365C27.585 33.2619 26.4939 32.7382 26.1884 31.8217C25.7083 30.3378 27.9778 29.6395 29.0688 29.334C30.4654 28.9412 31.9056 28.6794 33.3022 28.5048C34.7424 28.3302 36.2699 28.1557 37.7101 28.2866C38.1902 28.3302 38.1902 27.7192 37.7974 27.6756Z" fill="#3A3A3A"/>
<path d="M33.7387 38.0625C34.0879 39.3281 34.4806 40.6374 34.8298 41.9031C35.0916 42.8196 35.1353 42.9505 35.5281 43.8234C35.7899 44.4344 36.9246 44.5216 37.4047 44.5216C37.8848 44.5216 38.7576 44.5653 38.9322 44.0852C39.1068 43.6488 39.1504 42.7759 39.1941 42.2959C39.3686 40.9866 39.2377 40.6811 39.1504 39.3718" fill="#E0DFE1"/>
<path d="M33.4332 38.1504C33.826 39.5033 34.2188 40.8999 34.6116 42.2528C34.7425 42.6892 34.8734 43.082 35.048 43.4748C35.2226 43.9112 35.3971 44.2604 35.8336 44.4786C36.5319 44.8277 37.492 44.915 38.2339 44.8277C38.6267 44.7841 39.0195 44.6531 39.2377 44.2604C39.4559 43.8676 39.4559 43.3002 39.4996 42.8638C39.5432 42.2964 39.6305 41.7291 39.6305 41.1617C39.6305 40.5944 39.5432 39.9834 39.4996 39.416C39.4559 39.0232 38.8449 39.0232 38.8886 39.416C38.9322 40.3325 39.0632 41.2054 38.9322 42.1219C38.8886 42.5583 38.8449 42.9947 38.8013 43.4311C38.7577 43.6057 38.7577 43.8239 38.6704 43.9985C38.5831 44.1294 38.4521 44.1731 38.3212 44.2167C37.7102 44.3476 36.8374 44.2604 36.27 44.0421C35.8772 43.8676 35.7463 43.5621 35.6154 43.1693C35.4408 42.8201 35.3535 42.471 35.2662 42.0782C34.8734 40.7253 34.4806 39.3724 34.0879 38.0194C33.9133 37.583 33.3023 37.7576 33.4332 38.1504Z" fill="#3A3A3A"/>
<path d="M40.1107 39.9836C40.0671 41.1184 40.0671 41.7294 40.1543 42.8641C40.198 43.2569 40.2416 44.0861 40.5035 44.2607C40.809 44.4789 41.8128 44.6534 42.4238 44.5225C43.1657 44.3916 43.9513 43.9552 44.0386 43.5624C44.3441 42.4276 44.4313 42.0785 44.6059 40.8129C44.7805 39.5472 44.8241 38.3689 44.6496 37.0596" fill="#E0DFE1"/>
<path d="M39.805 39.982C39.7613 41.0731 39.7613 42.2078 39.8923 43.2989C39.9359 43.648 39.9795 44.1281 40.2414 44.39C40.5033 44.6955 41.027 44.7391 41.4198 44.7828C42.3363 44.9137 43.471 44.7391 44.1693 43.9972C44.4748 43.648 44.5184 43.1243 44.6057 42.7315C44.693 42.2951 44.7803 41.8587 44.8675 41.4222C45.0858 39.9384 45.173 38.4982 44.9985 37.0143C44.9548 36.6215 44.3438 36.6215 44.3875 37.0143C44.562 38.4545 44.4748 39.8511 44.2566 41.2913C44.1693 41.7714 44.082 42.2078 43.951 42.6443C43.9074 42.8625 43.8638 43.168 43.7765 43.3862C43.6892 43.6044 43.3837 43.7353 43.2091 43.8663C42.6418 44.1281 42.0744 44.2154 41.507 44.1281C41.2888 44.0845 40.9397 44.0845 40.8088 43.9535C40.6778 43.8663 40.6778 43.648 40.6342 43.5171C40.416 42.3824 40.5033 41.1167 40.5033 39.9384C40.4596 39.5892 39.805 39.5892 39.805 39.982Z" fill="#3A3A3A"/>
<path d="M45.2606 36.2292C45.2606 39.8516 42.5984 41.2918 39.2815 41.3355C35.9647 41.3355 33.2588 39.9389 33.2588 36.3165C33.2588 32.6942 35.8774 26.7587 39.1942 26.7151C42.5111 26.6714 45.2169 32.6069 45.2606 36.2292Z" fill="#E0DFE1"/>
<path d="M39.2812 41.6406C35.266 41.6406 32.9529 39.6766 32.9529 36.3161C32.9529 32.4319 35.7461 26.4528 39.1939 26.4092H39.2375C40.8523 26.4092 42.4235 27.6748 43.7327 29.9443C44.8238 31.8645 45.5657 34.3522 45.5657 36.2288C45.5657 39.633 43.2527 41.5969 39.2812 41.6406ZM39.1939 27.0202C36.0952 27.0638 33.5203 32.7374 33.5203 36.3161C33.5203 40.4186 37.099 41.0296 39.2375 41.0296C41.3324 40.9859 44.9111 40.3313 44.9111 36.2288C44.8675 34.4395 44.2128 32.0828 43.1654 30.2498C41.987 28.1985 40.5468 27.0202 39.1939 27.0202Z" fill="#3A3A3A"/>
<path d="M27.8471 15.7161C25.9704 21.1715 22.8281 26.9324 17.8092 25.1867C12.7902 23.4409 10.128 14.6251 12.0047 9.16971C13.8813 3.71434 18.1147 1.35763 23.1773 3.10334C28.2398 4.84906 29.7237 10.2608 27.8471 15.7161Z" fill="#E0DFE1"/>
<path d="M19.5547 25.8419C18.9437 25.8419 18.2891 25.7109 17.6781 25.4927C12.4409 23.6597 9.77872 14.5384 11.699 9.083C12.6592 6.33349 14.2303 4.28228 16.2379 3.1912C18.2891 2.05649 20.6894 1.9692 23.2644 2.84206C28.196 4.50049 30.16 9.86857 28.1087 15.8476C26.363 20.9539 24.2245 24.1398 21.8242 25.3182C21.0822 25.6673 20.3403 25.8419 19.5547 25.8419ZM19.9912 2.84206C18.7692 2.84206 17.5908 3.14756 16.5434 3.71492C14.6667 4.76235 13.1829 6.68264 12.2664 9.30121C10.1279 15.4549 13.6629 23.4415 17.8963 24.9254C19.1619 25.3618 20.4276 25.3182 21.5623 24.7508C23.8317 23.6597 25.8393 20.5611 27.5414 15.6294C29.4617 9.9995 27.6287 4.98056 23.0462 3.40942C21.9987 3.06027 20.9513 2.84206 19.9912 2.84206Z" fill="#3A3A3A"/>
<path d="M20.1658 3.5407C17.3727 4.23899 15.6269 7.03214 14.7104 9.60707C13.1829 14.015 14.5795 21.6089 18.8129 23.8347C19.2493 24.0529 19.7294 24.2274 20.1658 24.3584C20.7768 24.5329 21.3878 24.4893 21.9552 24.1838C24.7047 22.7436 26.625 18.8157 27.9342 15.0624C28.5016 13.4476 28.7635 11.8765 28.7198 10.349C28.3707 9.34521 27.9342 8.34142 27.4542 7.46856C26.0576 4.80635 23.3081 2.75513 20.1658 3.5407Z" fill="#FF8EAD"/>
<path d="M48.0973 14.3202C50.1922 19.6882 53.509 25.3618 58.4407 23.4415C63.416 21.5212 65.7727 12.6181 63.7215 7.25C61.6703 1.88192 57.3496 -0.343867 52.3743 1.53278C47.399 3.45307 46.0461 8.95207 48.0973 14.3202Z" fill="#E0DFE1"/>
<path d="M56.4766 24.1401C53.2034 24.1401 50.2793 20.8668 47.748 14.4513C45.4786 8.55954 47.3116 3.14782 52.1996 1.27118C57.3058 -0.649113 61.8447 1.62032 63.9395 7.16297C65.9908 12.5747 63.6777 21.7397 58.4842 23.7473C57.8295 24.0091 57.1749 24.1401 56.4766 24.1401ZM48.359 14.2331C51.2395 21.6088 54.6 24.6201 58.3096 23.1799C62.4557 21.5651 65.7289 13.4912 63.4158 7.38118C61.4083 2.18768 57.2185 0.049174 52.4615 1.83853C47.9226 3.58425 46.2642 8.69047 48.359 14.2331Z" fill="#3A3A3A"/>
<path d="M55.6039 1.96942C58.4407 2.58042 60.2737 5.32992 61.2338 7.86121C62.8922 12.2255 61.7575 19.863 57.6114 22.2197C57.175 22.4816 56.7386 22.6562 56.2585 22.8307C55.6911 23.0053 55.0365 23.0053 54.4691 22.6998C51.676 21.3469 49.6684 17.4627 48.2282 13.7094C47.6172 12.1382 47.3117 10.5671 47.3117 9.03957C47.6608 7.99214 48.0536 6.98835 48.4901 6.1155C49.7994 3.40963 52.5052 1.31477 55.6039 1.96942Z" fill="#FF8EAD"/>
<path d="M53.2034 15.9796C54.1199 22.7442 48.359 27.6759 40.1105 28.8979C31.7747 30.1199 24.0063 27.0649 23.2644 19.1219C22.7407 13.4483 27.7596 3.67229 35.3098 2.58122C44.213 1.27193 52.1123 8.08023 53.2034 15.9796Z" fill="#E0DFE1"/>
<path d="M36.6191 29.4644C32.7349 29.4644 29.2871 28.4606 26.8431 26.5404C24.53 24.7074 23.2207 22.2197 22.9152 19.1211C22.6534 16.1533 23.7881 12.2691 25.9702 8.95227C28.4579 5.15533 31.7311 2.75497 35.2225 2.2749C39.4123 1.6639 43.602 2.75497 47.0934 5.37355C50.5848 7.99212 52.9416 11.8763 53.5089 15.9351C54.4254 22.5689 49.0573 27.8933 40.1542 29.2026C38.9322 29.3771 37.7538 29.4644 36.6191 29.4644ZM37.492 2.75497C36.7937 2.75497 36.0517 2.79861 35.3098 2.92954C28.0651 3.97697 23.0025 13.4911 23.5262 19.1211C23.7881 22.0451 25.0537 24.4019 27.1922 26.1039C30.2036 28.4606 34.8734 29.3772 40.0233 28.6352C48.5336 27.3696 53.6835 22.307 52.8543 16.0661C52.3306 12.1382 50.0611 8.42855 46.7006 5.89726C43.9511 3.8024 40.7652 2.75497 37.492 2.75497Z" fill="#3A3A3A"/>
<path d="M32.4677 11.9839C32.4999 11.0444 31.5106 10.248 30.2579 10.205C29.0053 10.162 27.9638 10.8888 27.9315 11.8282C27.8993 12.7677 28.8886 13.5641 30.1412 13.6071C31.3939 13.6501 32.4354 12.9233 32.4677 11.9839Z" fill="#FF8EAD"/>
<path d="M46.3345 10.5708C46.3668 9.6313 45.3774 8.83488 44.1248 8.79191C42.8722 8.74894 41.8306 9.47569 41.7984 10.4152C41.7662 11.3546 42.7555 12.151 44.0081 12.194C45.2607 12.237 46.3023 11.5102 46.3345 10.5708Z" fill="#FF8EAD"/>
<path d="M31.0329 10.7849C30.8583 10.7849 30.7274 10.6539 30.7274 10.4794C30.6838 9.56286 31.2075 8.77729 31.9058 8.69C32.2113 8.64636 32.5168 8.77729 32.7786 8.9955C33.1278 9.301 33.3023 9.73743 33.346 10.2611C33.346 10.4357 33.215 10.5666 33.0405 10.6103C32.8659 10.6103 32.735 10.4794 32.6913 10.3048C32.6913 9.95565 32.5168 9.65015 32.3422 9.47557C32.2549 9.38829 32.124 9.301 31.9494 9.34465C31.6439 9.38829 31.3384 9.82472 31.382 10.4357C31.3384 10.6539 31.2075 10.7849 31.0329 10.7849Z" fill="black"/>
<path d="M41.1143 9.99971C40.9397 9.99971 40.8088 9.86878 40.8088 9.69421C40.7651 8.77771 41.2888 7.99213 41.9871 7.90485C42.2926 7.8612 42.5981 7.99213 42.86 8.21035C43.2091 8.51585 43.3837 8.95228 43.4273 9.47599C43.4273 9.65056 43.2964 9.78149 43.1218 9.82514C42.9473 9.82514 42.8163 9.69421 42.7727 9.51963C42.7727 9.17049 42.5981 8.86499 42.4235 8.69042C42.3363 8.60313 42.2053 8.51585 42.0308 8.55949C41.7253 8.60313 41.4198 9.03956 41.4634 9.65056C41.4198 9.86878 41.2888 9.99971 41.1143 9.99971Z" fill="black"/>
<path d="M59.3571 39.3266L59.488 37.4499L59.1825 35.9224L58.7461 35.3114L57.9605 34.875L57.2622 34.9186L56.564 35.7042L55.7784 37.3626L55.2983 38.9774L54.2509 37.6681L52.9416 36.8826L53.1598 38.8465L54.6 40.6795L56.3894 42.1197L57.4368 42.4252L58.0042 42.1634L58.4842 41.5524L59.3571 39.3266ZM57.786 38.541L57.2186 38.6283L56.9131 38.8029L57.175 37.4936L57.655 37.0135L58.0915 37.0571L58.266 37.319L58.2224 38.3228L58.0915 38.6283L57.786 38.541Z" fill="#C66D4E"/>
<path d="M57.4368 42.5139L56.3457 42.2084L54.5564 40.7681L53.0725 38.8915L52.8543 36.7966L54.2945 37.6695L55.2547 38.8479L55.6911 37.364L56.4767 35.6619L57.175 34.8327L57.9169 34.7891L58.7461 35.2691L59.1825 35.9238L59.488 37.4513L59.3571 39.3716L58.4842 41.5974L57.9605 42.252L57.4368 42.5139ZM56.3894 42.0774L57.3932 42.3829L57.9169 42.1211L58.397 41.5537L59.2698 39.3279L59.4007 37.4949L59.0952 36.0111L58.6588 35.4437L57.9169 35.0073L57.2622 35.0509L56.6076 35.7928L55.822 37.4513L55.2983 39.197L54.1636 37.8004L52.9852 37.1021L53.2035 38.8915L54.6437 40.7245L56.3894 42.0774ZM56.7822 38.9788L57.0877 37.4949L57.6114 36.9712L58.1351 37.0149L58.3533 37.3203L58.3097 38.3678L58.1351 38.7169L57.786 38.6296L57.2622 38.7169L56.7822 38.9788ZM57.2186 37.5386L57.0004 38.6733L57.175 38.586L57.7423 38.4987L58.0042 38.586L58.0915 38.3678L58.1351 37.4076L58.0042 37.1894L57.655 37.1458L57.2186 37.5386Z" fill="#844129"/>
<path d="M57.2622 39.0673C57.2622 39.0237 57.3058 39.0237 57.3058 39.0237C57.2622 39.1109 57.3058 39.0237 57.3495 38.98C57.3495 38.98 57.4368 38.9364 57.3931 38.9364C57.3495 38.9364 57.4368 38.8927 57.4368 38.8927C57.4368 38.8927 57.5677 38.8491 57.4804 38.8491C57.5241 38.8491 57.5677 38.8054 57.5677 38.8054C57.6113 38.8054 57.5241 38.8054 57.6113 38.8054C57.6113 38.8054 57.7423 38.8054 57.655 38.8054C57.7423 38.8491 57.6986 38.8054 57.7859 38.8491C57.7423 38.8054 57.8296 38.8927 57.8296 38.8927C57.8732 38.9364 57.8296 38.9364 57.8296 38.8927C57.8296 38.8927 57.8296 38.9364 57.8732 38.9364C57.8732 38.98 57.9168 38.98 57.8732 38.9364C57.8732 38.98 57.9168 38.98 57.9168 39.0237C57.9168 39.1109 57.9605 39.1546 57.9168 39.2419C57.8732 39.5037 57.7859 39.7219 57.5677 39.8965C57.5677 39.8965 57.4804 39.9838 57.5241 39.9402C57.4804 39.9402 57.4804 39.9838 57.4368 39.9838C57.3931 40.0274 57.3058 40.0711 57.2186 40.1147C57.1749 40.1147 57.1749 40.1584 57.1313 40.1584C57.0876 40.1584 57.0876 40.1584 57.1313 40.1584H57.0876C57.0003 40.202 56.9567 40.202 56.8694 40.2457C56.6948 40.2893 56.6076 40.4639 56.6512 40.6384C56.6948 40.813 56.8694 40.9003 57.044 40.8567C57.655 40.6821 58.1787 40.3329 58.4406 39.7219C58.5715 39.3728 58.5715 38.98 58.3969 38.6745C58.266 38.369 57.9168 38.1944 57.5677 38.2381C57.2622 38.2817 56.8694 38.4563 56.6948 38.7618C56.6076 38.8927 56.6512 39.1109 56.7821 39.1982C56.9567 39.2419 57.1749 39.2419 57.2622 39.0673Z" fill="#844129"/>
<path d="M58.4406 38.8039C58.5279 38.4111 58.5716 38.0183 58.5279 37.6692C58.4843 37.32 58.397 36.9272 58.0915 36.7527C57.6987 36.5344 57.3496 36.7963 57.1314 37.1454C56.9568 37.4509 56.7822 37.8001 56.7386 38.1492C56.6513 38.5857 56.6513 38.9784 56.6949 39.4149C56.7386 39.5894 56.9131 39.6767 57.0877 39.6331C57.2623 39.5894 57.3059 39.4149 57.3059 39.2403C57.2623 38.8912 57.2623 38.5857 57.3496 38.2365C57.4369 37.931 57.5241 37.5819 57.7424 37.32L57.786 37.2764L57.8296 37.2327C57.786 37.2327 57.8733 37.2764 57.8296 37.2327C57.786 37.1891 57.8733 37.2764 57.8296 37.2327C57.8296 37.2327 57.8733 37.32 57.8733 37.2764L57.9169 37.3637C57.9606 37.4073 57.9606 37.4946 57.9606 37.5382C58.0479 37.8874 58.0042 38.2802 57.9169 38.6293C57.786 39.0221 58.3534 39.1967 58.4406 38.8039Z" fill="#844129"/>
<path d="M51.4577 36.1863C52.767 36.4481 53.8144 37.4519 54.6437 38.4993C55.3856 39.4595 55.9966 40.5505 57.175 41.1179C57.5241 41.2925 57.8296 40.7688 57.4805 40.5942C56.3021 39.9832 55.7347 38.8485 54.9492 37.8883C54.0763 36.8845 53.0289 35.8808 51.6759 35.6189C51.2395 35.488 51.1086 36.099 51.4577 36.1863Z" fill="#844129"/>
<path d="M55.7784 39.0228C55.8656 37.8445 56.2584 36.5352 57.0004 35.6187C57.3931 35.1386 57.9605 35.0513 58.4406 35.4005C58.9643 35.7496 59.1389 36.4043 59.1825 37.0153C59.3134 38.1936 59.1389 39.5029 58.6588 40.594C58.4406 41.0741 58.1351 41.9033 57.5677 42.0342C57.0004 42.1651 56.3021 41.5978 55.9093 41.2923C54.9055 40.5067 54.1636 39.4156 53.8144 38.1936C53.6835 37.8008 53.1161 37.9754 53.2471 38.3682C53.6399 39.7211 54.4691 40.9431 55.5601 41.816C56.1275 42.2524 56.8258 42.7325 57.5241 42.6888C58.266 42.6452 58.6588 41.9906 58.9643 41.3796C59.6626 40.0266 59.9681 38.4555 59.7935 36.928C59.7062 36.2297 59.488 35.5314 58.9643 35.0513C58.4842 34.6586 57.8296 34.4403 57.2622 34.7022C56.5203 35.0077 56.1275 35.8806 55.822 36.5352C55.4729 37.3208 55.2546 38.1936 55.211 39.0665C55.1674 39.4156 55.7784 39.4156 55.7784 39.0228Z" fill="#844129"/>
<path d="M44.6057 34.832C44.6493 37.4942 44.7802 40.2001 45.3476 42.8187C45.4785 43.517 45.6531 44.2153 45.9149 44.8263C46.2204 45.4809 46.4387 45.7864 47.1806 45.9173C47.6607 46.0046 48.839 45.9173 49.0572 45.5245C49.2318 45.219 49.2318 44.9572 49.1882 44.608C49.0572 42.3386 48.7517 40.0692 48.2717 37.8434" fill="#C66D4E"/>
<path d="M44.3002 34.8327C44.3439 36.622 44.3875 38.455 44.6057 40.2444C44.7803 41.8155 44.9985 43.6049 45.6532 45.0451C46.1332 46.0489 47.0061 46.3544 48.0972 46.1798C48.5336 46.1362 49.0137 46.0053 49.2755 45.6125C49.6247 45.0451 49.4501 44.2159 49.4065 43.6049C49.2319 41.5973 48.9264 39.6334 48.5336 37.6695C48.4463 37.2767 47.879 37.4513 47.9662 37.844C48.359 39.7207 48.6645 41.5973 48.8391 43.5176C48.8827 43.9104 48.9264 44.3032 48.9264 44.7396C48.9264 45.2633 48.7955 45.4379 48.3154 45.5688C47.7917 45.6998 47.0497 45.7434 46.6133 45.3506C46.0896 44.8705 45.915 43.954 45.7841 43.343C45.5659 42.4265 45.3913 41.51 45.2604 40.5499C44.9985 38.6733 44.9549 36.753 44.9112 34.8327C44.9112 34.4399 44.3002 34.4399 44.3002 34.8327Z" fill="#844129"/>
<path d="M50.4538 38.0644C50.8902 40.2902 51.7194 42.4287 52.8105 44.3927C53.0724 44.8727 53.3779 45.3528 53.8579 45.6583C54.3817 45.9638 54.9927 46.0074 55.6037 46.0511C56.1274 46.0947 56.7384 46.0947 57.0875 45.7019C57.3494 45.4401 57.393 45.0037 57.3057 44.6545C57.2184 44.3054 57.0002 43.9562 56.8257 43.6507C55.56 41.6868 54.4253 39.6356 53.0724 37.4971" fill="#C66D4E"/>
<path d="M50.1483 38.1489C50.4538 39.6764 50.9339 41.1603 51.5449 42.5569C51.8504 43.2552 52.1995 43.9534 52.5923 44.6081C52.9415 45.1754 53.3343 45.7428 53.9453 46.0483C54.5126 46.3102 55.2109 46.3538 55.8655 46.3974C56.4329 46.3974 57.0439 46.3102 57.393 45.8301C57.7422 45.35 57.6986 44.6954 57.4803 44.1717C57.1748 43.4734 56.6948 42.8624 56.302 42.2077C55.2982 40.5929 54.338 38.9782 53.3343 37.3634C53.116 37.0579 52.5923 37.3197 52.8105 37.6689C53.5525 38.8472 54.2944 40.0692 55.0363 41.2476C55.3855 41.8149 55.7346 42.3823 56.0838 42.9497C56.3893 43.4734 56.8693 44.0407 57.0439 44.6517C57.2621 45.3937 56.7384 45.7428 56.0401 45.7864C55.4291 45.7864 54.7308 45.7864 54.2071 45.4809C53.6398 45.1754 53.3343 44.6081 53.0288 44.0407C52.7233 43.4734 52.4178 42.906 52.1559 42.295C51.5449 40.8984 51.1085 39.4582 50.803 37.9744C50.672 37.5816 50.061 37.7561 50.1483 38.1489Z" fill="#844129"/>
<path d="M54.6001 36.6226C52.6361 40.2013 49.843 40.4631 47.3553 39.0666C44.8677 37.67 43.602 35.1824 45.566 31.6036C47.5299 28.0249 52.7671 23.3988 55.2547 24.7517C57.7424 26.1483 56.564 33.0438 54.6001 36.6226Z" fill="#C66D4E"/>
<path d="M54.2508 26.7602C54.1635 26.7166 54.0326 26.6293 53.9453 26.6293C53.4216 26.4547 52.7669 26.542 52.1996 26.8911C50.3229 27.9386 48.3154 29.8589 47.2679 31.5173C45.4786 34.3104 46.3951 36.4489 48.359 37.6709C48.6645 37.8455 48.97 38.0201 49.2755 38.151C50.5411 38.6311 52.1559 37.9328 53.1161 36.4489C53.1161 36.4489 53.1161 36.4489 53.1161 36.4053C54.9491 33.6121 56.2147 28.0259 54.2508 26.7602Z" fill="#FCD3B1"/>
<path d="M50.0611 40.113C49.1446 40.113 48.1408 39.8511 47.1807 39.2838C44.1693 37.5817 43.471 34.7013 45.2604 31.428C45.915 30.206 47.0498 28.8095 48.359 27.4565C48.49 27.3256 48.6645 27.3256 48.7955 27.4565C48.9264 27.5875 48.9264 27.762 48.7955 27.893C47.4862 29.2022 46.4388 30.5552 45.7841 31.6899C43.5583 35.7487 45.8714 37.8435 47.4425 38.76C48.7082 39.4583 49.9738 39.6765 51.1085 39.371C52.3305 39.0219 53.4216 38.0181 54.2945 36.447C56.1711 33.0428 57.3495 26.2782 55.0801 25.0125C54.4691 24.707 53.5962 24.7507 52.5051 25.2307C52.3305 25.318 52.156 25.2307 52.1123 25.0562C52.025 24.8816 52.1123 24.707 52.2869 24.6634C53.5525 24.096 54.6 24.0524 55.3856 24.4452C58.1787 26.0163 56.7385 33.3483 54.8618 36.7088C53.9017 38.4545 52.7233 39.502 51.3268 39.9384C50.8903 40.0693 50.4975 40.113 50.0611 40.113Z" fill="#844129"/>
<path d="M55.4728 32.476C56.6076 34.2217 57.9605 35.7928 59.5316 37.1458C59.9244 37.4949 60.3608 37.8441 60.8409 38.0186C61.321 38.2368 61.8884 38.2805 62.3684 38.0623C63.1976 37.7131 63.5031 36.6657 63.2849 35.7928C63.0667 34.92 62.4994 34.2217 61.8447 33.567C60.5791 32.3014 58.0914 30.1193 56.5203 29.29" fill="#C66D4E"/>
<path d="M55.2108 32.607C56.1273 34.0472 57.2184 35.4002 58.484 36.5785C59.4878 37.5387 61.0153 39.0225 62.5428 38.3242C63.8085 37.7132 63.8958 36.0548 63.3284 34.9201C62.7174 33.6981 61.4954 32.7379 60.4916 31.8214C59.3569 30.8177 58.1349 29.7702 56.782 29.0283C56.4328 28.8537 56.1273 29.3774 56.4765 29.552C57.4803 30.1194 58.3968 30.8177 59.2696 31.5596C60.1425 32.3015 61.0153 33.0435 61.8009 33.8727C62.6738 34.7455 63.6775 36.2294 62.7174 37.4077C61.6263 38.7607 59.7933 36.9713 58.9641 36.1857C57.7421 35.0074 56.651 33.6981 55.7345 32.3015C55.5163 31.996 54.9926 32.3015 55.2108 32.607Z" fill="#844129"/>
<path d="M61.8883 35.6619C61.2773 35.7929 60.8409 36.3602 60.6663 36.9276C60.4918 37.5386 60.6227 38.1496 60.9282 38.7169C61.19 39.2843 61.6265 39.7207 62.1065 40.1135C62.2811 40.2881 62.4993 40.419 62.7175 40.3754C62.9794 40.2881 63.0667 39.9389 63.2413 39.7207C63.4158 39.5025 63.7213 39.3716 64.0268 39.3279C64.3323 39.2843 64.6378 39.3279 64.9433 39.3279C65.2052 39.3279 65.4671 39.2843 65.6416 39.0661C65.8598 38.8479 65.8162 38.4551 65.6416 38.1932C65.4671 37.9314 65.2488 37.7131 65.1179 37.4513C64.9433 37.1894 64.856 36.8403 64.987 36.5784C65.0743 36.4039 65.2052 36.3166 65.2052 36.142C65.2488 35.8801 64.9433 35.6619 64.6815 35.5746C64.1141 35.3564 62.7175 35.4437 61.8883 35.6619Z" fill="#FCD3B1"/>
<path d="M61.801 35.3556C60.4917 35.7048 60.0553 37.2323 60.448 38.4106C60.6663 39.0653 61.0591 39.589 61.5391 40.069C61.9319 40.4618 62.5866 41.0292 63.1103 40.4618C63.2848 40.2436 63.3721 39.9818 63.5903 39.8072C63.8522 39.6326 64.245 39.6326 64.5505 39.6326C65.1178 39.6326 65.8598 39.6326 66.0343 38.9343C66.2089 38.236 65.6416 37.7996 65.3361 37.2323C65.2488 37.1013 65.2051 36.9268 65.2051 36.7958C65.2488 36.6649 65.3361 36.534 65.4233 36.403C65.5543 36.1412 65.5106 35.8357 65.3361 35.6175C64.9433 35.181 64.2886 35.1374 63.7649 35.0938C63.1103 35.1374 62.4556 35.181 61.801 35.3556C61.4082 35.4429 61.5828 36.0539 61.9756 35.923C62.412 35.792 62.8921 35.7484 63.3285 35.7048C63.7213 35.7048 64.1577 35.6611 64.5068 35.792C64.6378 35.8357 64.8996 35.923 64.8996 36.0539C64.8996 36.1412 64.7687 36.2285 64.7251 36.3158C64.6378 36.4467 64.5941 36.5776 64.5941 36.7522C64.5505 37.3195 64.9433 37.7123 65.2488 38.1051C65.3797 38.2797 65.5106 38.5415 65.467 38.7598C65.3797 38.978 65.0742 38.978 64.8996 38.978C64.3759 38.978 63.8086 38.8907 63.3285 39.1962C63.1539 39.3271 63.023 39.458 62.8921 39.6763C62.7611 39.8945 62.7175 40.1127 62.412 39.9381C61.9756 39.6326 61.5828 39.1962 61.3209 38.7161C61.0154 38.1924 60.8408 37.5378 60.9718 36.9268C61.1027 36.4467 61.4518 36.0103 61.9756 35.8793C62.3683 35.8357 62.1938 35.2683 61.801 35.3556Z" fill="#844129"/>
<path d="M52.5923 15.3681C56.1355 15.3681 59.0078 12.4958 59.0078 8.95262C59.0078 5.40943 56.1355 2.53711 52.5923 2.53711C49.0491 2.53711 46.1768 5.40943 46.1768 8.95262C46.1768 12.4958 49.0491 15.3681 52.5923 15.3681Z" fill="#C66D4E"/>
<path d="M52.5925 15.6744C48.8828 15.6744 45.8715 12.6631 45.8715 8.95343C45.8715 5.24378 48.8828 2.23242 52.5925 2.23242C56.3021 2.23242 59.3135 5.24378 59.3135 8.95343C59.3135 12.6631 56.3021 15.6744 52.5925 15.6744ZM52.5925 2.84342C49.232 2.84342 46.4825 5.59293 46.4825 8.95343C46.4825 12.3139 49.232 15.0634 52.5925 15.0634C55.953 15.0634 58.7025 12.3139 58.7025 8.95343C58.6588 5.59293 55.953 2.84342 52.5925 2.84342Z" fill="#844129"/>
<path d="M52.5924 12.4438C54.5207 12.4438 56.0839 10.8806 56.0839 8.95237C56.0839 7.02411 54.5207 5.46094 52.5924 5.46094C50.6642 5.46094 49.101 7.02411 49.101 8.95237C49.101 10.8806 50.6642 12.4438 52.5924 12.4438Z" fill="#FCD3B1"/>
<path d="M73.2791 32.6074C76.8223 32.6074 79.6946 29.7351 79.6946 26.1919C79.6946 22.6487 76.8223 19.7764 73.2791 19.7764C69.7359 19.7764 66.8636 22.6487 66.8636 26.1919C66.8636 29.7351 69.7359 32.6074 73.2791 32.6074Z" fill="#C66D4E"/>
<path d="M73.2791 32.9117C69.5694 32.9117 66.558 29.9004 66.558 26.1907C66.558 22.4811 69.5694 19.4697 73.2791 19.4697C76.9887 19.4697 80.0001 22.4811 80.0001 26.1907C80.0001 29.9004 76.9887 32.9117 73.2791 32.9117ZM73.2791 20.0807C69.9186 20.0807 67.169 22.8302 67.169 26.1907C67.169 29.5512 69.9186 32.3007 73.2791 32.3007C76.6396 32.3007 79.3891 29.5512 79.3891 26.1907C79.3454 22.8302 76.6396 20.0807 73.2791 20.0807Z" fill="#844129"/>
<path d="M73.2791 29.6831C75.2074 29.6831 76.7705 28.1199 76.7705 26.1916C76.7705 24.2634 75.2074 22.7002 73.2791 22.7002C71.3508 22.7002 69.7877 24.2634 69.7877 26.1916C69.7877 28.1199 71.3508 29.6831 73.2791 29.6831Z" fill="#FCD3B1"/>
<path d="M72.6245 29.3786C68.2166 34.6157 60.3172 34.7903 53.9453 29.6404C47.4862 24.4469 45.0422 15.762 50.4102 9.8702C54.2508 5.63684 63.9832 3.67291 69.7877 8.38634C76.7269 14.0163 77.7744 23.2686 72.6245 29.3786Z" fill="#C66D4E"/>
<path d="M63.8087 33.4817C60.4482 33.4817 56.9132 32.1288 53.9018 29.6848C50.1485 26.6734 47.7481 22.44 47.4426 18.3376C47.1808 15.108 48.1846 12.184 50.3667 9.78359C54.4255 5.28837 64.2452 3.71723 69.8315 8.29973C73.3229 11.1365 75.4614 14.9771 75.8542 19.1668C76.2033 22.9201 75.0686 26.5425 72.6682 29.4229C70.5297 31.9978 67.4311 33.4381 64.027 33.4817C63.9397 33.4817 63.8524 33.4817 63.8087 33.4817ZM61.452 5.7248C57.0004 5.7248 52.6362 7.5578 50.454 9.91452C48.3155 12.2712 47.3117 15.1517 47.5736 18.3376C47.8791 22.3964 50.2794 26.5861 53.9891 29.5538C60.3173 34.6601 68.1294 34.5728 72.581 29.292C74.9813 26.4552 76.0724 22.8765 75.7233 19.1668C75.3305 15.0644 73.192 11.2238 69.7442 8.43066C67.3438 6.51037 64.3761 5.7248 61.452 5.7248Z" fill="#844129"/>
<path d="M71.7516 24.4892C72.5808 24.14 73.2791 23.6163 73.8464 22.8744C75.5485 20.5613 74.7629 17.1135 72.1007 15.1932C70.3114 13.8839 68.4784 13.4911 66.7326 14.1894C66.8636 12.3128 65.9034 9.65057 64.1141 8.34128C61.4519 6.42099 57.5676 7.55571 55.9092 9.86878C55.5164 10.3925 55.2546 11.0035 55.1236 11.6581C53.6834 11.4399 52.8978 11.9636 52.1996 12.9674C50.2356 15.7169 52.1995 21.1287 57.3058 25.6239C62.3247 30.0318 69.2203 30.0755 71.1842 27.3696C71.7516 26.584 71.9262 25.6239 71.7516 24.4892Z" fill="#FCD3B1"/>
<path d="M63.8085 33.7427C60.4917 33.7427 56.9129 32.477 53.727 29.9021C49.9301 26.8471 47.4861 22.5701 47.1806 18.3804C46.9187 15.1072 47.9661 12.0958 50.1483 9.6518C54.2944 5.06929 64.2449 3.49814 69.9622 8.12429C73.4972 11.0047 75.6794 14.8889 76.0722 19.1223C76.4213 22.9192 75.2866 26.6289 72.8426 29.553C70.5295 32.3461 67.2563 33.7427 63.8085 33.7427ZM61.4082 5.94215C57.0439 5.94215 52.7232 7.73151 50.5847 10.0882C48.4899 12.4013 47.5297 15.2381 47.7479 18.3367C48.0534 22.3082 50.4101 26.4543 54.0762 29.422C60.3171 34.441 67.9982 34.3537 72.3189 29.2038C74.6756 26.4107 75.7667 22.8756 75.4175 19.2532C75.0247 15.1944 72.9299 11.4412 69.5257 8.69165C67.2127 6.72772 64.3322 5.94215 61.4082 5.94215Z" fill="#844129"/>
<path d="M60.5793 18.6859C60.5793 18.6859 58.6153 21.0863 60.1865 22.221C61.5831 23.2684 63.3724 20.6062 63.3724 20.6062L62.7614 18.5986L60.5793 18.6859Z" fill="#FF8EAD"/>
<path d="M59.1389 15.4559C58.1351 17.5072 60.6228 19.8639 62.6303 18.9474C62.4994 18.9037 62.3685 18.8601 62.2376 18.7728C62.5431 20.0821 63.2414 21.5223 64.6816 21.8278C65.3799 21.9587 66.5582 21.7842 66.7764 20.9549C66.8637 20.6494 66.3836 20.5185 66.2964 20.824C66.1218 21.435 65.118 21.435 64.6379 21.3041C63.4596 20.9549 62.9359 19.7329 62.7176 18.6419C62.674 18.4673 62.4994 18.4237 62.3248 18.4673C60.7537 19.1656 58.7461 17.2453 59.5317 15.6742C59.7063 15.4123 59.2698 15.1504 59.1389 15.4559Z" fill="#844129"/>
<path d="M64.1844 19.164C64.4625 18.8309 64.1329 18.0976 63.4482 17.526C62.7636 16.9544 61.9831 16.7611 61.7051 17.0942C61.427 17.4273 61.7566 18.1606 62.4413 18.7322C63.1259 19.3038 63.9064 19.4971 64.1844 19.164Z" fill="#844129"/>
<path d="M71.067 23.4665C71.6679 22.8744 71.5242 21.7542 70.746 20.9644C69.9677 20.1746 68.8497 20.0144 68.2488 20.6066C67.6479 21.1987 67.7917 22.3189 68.5699 23.1087C69.3481 23.8985 70.4661 24.0587 71.067 23.4665Z" fill="#FF8EAD"/>
<path d="M59.7609 14.5437C60.3619 13.9516 60.2181 12.8313 59.4399 12.0415C58.6616 11.2518 57.5436 11.0916 56.9427 11.6837C56.3418 12.2758 56.4856 13.3961 57.2638 14.1859C58.042 14.9756 59.16 15.1358 59.7609 14.5437Z" fill="#FF8EAD"/>
<path d="M61.1028 14.0588C61.0155 14.0588 60.9718 14.0151 60.8845 13.9715C60.7536 13.8405 60.7536 13.666 60.8409 13.535C61.0591 13.2732 61.19 12.9677 61.1464 12.7058C61.1464 12.6185 61.1028 12.444 60.9718 12.3567C60.6663 12.1385 60.1426 12.2694 59.7935 12.7058C59.6625 12.8368 59.488 12.8368 59.357 12.7495C59.2261 12.6185 59.2261 12.444 59.3134 12.313C59.9244 11.6148 60.7973 11.4402 61.3646 11.8766C61.5828 12.0512 61.7574 12.3567 61.7574 12.6622C61.801 13.0986 61.6265 13.5787 61.321 13.9715C61.2773 14.0588 61.19 14.0588 61.1028 14.0588Z" fill="black"/>
<path d="M69.2204 20.8683C69.1331 20.8683 69.0895 20.8247 69.0022 20.781C68.8713 20.6501 68.8713 20.4755 68.9586 20.3446C69.1768 20.0828 69.3077 19.7773 69.2641 19.5154C69.2641 19.4281 69.2204 19.2535 69.0895 19.1663C68.784 18.948 68.2603 19.079 67.9111 19.5154C67.7802 19.6463 67.6056 19.6463 67.4747 19.559C67.3438 19.4281 67.3438 19.2535 67.4311 19.1226C68.0421 18.4243 68.9149 18.2498 69.4823 18.6862C69.7005 18.8608 69.8751 19.1663 69.8751 19.4718C69.9187 19.9082 69.7441 20.3883 69.4386 20.781C69.395 20.8683 69.3077 20.8683 69.2204 20.8683Z" fill="black"/>
<path d="M25.752 39.1963C25.3156 39.5454 25.0974 40.1128 25.0101 40.6365C24.9228 41.2039 24.9228 41.7276 24.8355 42.2949C24.7483 42.8623 24.6173 43.386 24.2245 43.8224C23.8754 44.2589 23.2644 44.4771 22.7407 44.2589C22.3915 44.1279 22.1297 43.8224 21.8678 43.5606C21.606 43.2987 21.2132 43.0805 20.864 43.1678C20.4276 43.2551 20.2094 43.7788 20.2967 44.2152C20.384 44.6517 20.6895 45.0008 21.0386 45.2627C21.6932 45.7864 22.5225 46.1355 23.3517 46.1355C24.1809 46.1355 25.0538 45.7864 25.6211 45.1317C26.2758 44.3898 26.4067 43.3424 26.6249 42.3386C26.8431 41.3784 26.5813 40.1564 27.4541 39.6327" fill="#EA9357"/>
<path d="M23.3517 46.1365C23.9191 46.1365 24.4428 46.0056 24.9228 45.7001C25.1411 44.9145 25.0101 44.0853 24.4864 43.4307C24.3991 43.5616 24.3555 43.6925 24.2246 43.7798C24.0063 43.998 23.7445 44.1726 23.439 44.2599C23.8318 44.7836 23.7881 45.5255 23.1771 46.0056C23.1335 46.0492 23.0898 46.0929 23.0898 46.0929C23.2208 46.1365 23.3081 46.1365 23.3517 46.1365Z" fill="black"/>
<path d="M26.4938 43.0372C26.101 42.5572 25.5773 42.208 24.879 42.208C24.879 42.2517 24.879 42.2516 24.879 42.2953C24.8354 42.7317 24.7044 43.1682 24.4862 43.5609C24.5735 43.5609 24.6608 43.6046 24.7481 43.5609C25.4463 43.43 25.7519 44.2156 25.8828 44.7829C26.1883 44.2592 26.3629 43.6482 26.4938 43.0372Z" fill="black"/>
<path d="M25.5338 38.9791C24.9228 39.5465 24.7483 40.3321 24.661 41.1176C24.5737 41.9468 24.6173 43.0379 23.9627 43.6926C23.7008 43.9544 23.308 44.129 22.9589 44.0417C22.5225 43.9108 22.2606 43.4743 21.9115 43.2125C21.3878 42.7761 20.6022 42.6888 20.1657 43.2998C19.2056 44.74 21.3878 46.0929 22.5661 46.3548C24.0936 46.7039 25.7084 46.0056 26.363 44.5218C26.7122 43.7362 26.8868 42.8197 26.974 41.9905C27.0613 41.3358 26.9304 40.3321 27.585 39.8956C27.8905 39.6774 27.585 39.1537 27.2795 39.3719C26.7995 39.6774 26.5813 40.2011 26.494 40.7685C26.4067 41.4231 26.363 42.0341 26.2321 42.6888C26.1012 43.3871 25.9266 44.1726 25.5338 44.7836C25.0974 45.3946 24.3991 45.7874 23.6572 45.8311C22.8716 45.9183 22.086 45.6565 21.4314 45.1764C21.1259 44.9582 20.8204 44.6963 20.6458 44.3472C20.5149 44.0853 20.5149 43.6489 20.864 43.4743C21.2132 43.2998 21.606 43.6926 21.8242 43.9108C22.086 44.1726 22.3479 44.4345 22.697 44.5218C23.308 44.74 23.9627 44.5218 24.3991 44.0417C24.9665 43.4743 25.0974 42.6888 25.1847 41.9468C25.272 41.0303 25.2283 39.9829 25.9703 39.3283C26.2758 39.1537 25.8393 38.7173 25.5338 38.9791Z" fill="#543715"/>
<path d="M24.8791 29.3775C25.0101 29.2902 25.141 29.2465 25.3156 29.1592C26.0139 28.8974 26.8431 28.941 27.5414 29.2465C29.7672 30.2067 32.0366 32.1706 33.1277 33.9163C34.9607 36.9277 33.4768 39.459 30.7273 41.1174C30.2909 41.3793 29.8981 41.5975 29.4617 41.772C27.7596 42.4703 25.7956 41.8593 24.7919 40.2882C24.7919 40.2882 24.7919 40.2882 24.7919 40.2445C22.9152 37.2768 22.1296 31.0359 24.8791 29.3775Z" fill="#EA9357"/>
<path d="M24.1371 38.325C25.4028 38.194 26.6248 37.8449 27.8468 37.4085C28.5887 37.1466 28.2832 35.9682 27.4976 36.2301C26.4065 36.6229 25.2718 36.972 24.0935 37.103C23.3515 37.1902 23.3515 38.4122 24.1371 38.325Z" fill="black"/>
<path d="M25.0537 40.5955C26.2757 40.2027 27.2795 39.5481 28.2833 38.8062C28.8943 38.3261 28.2833 37.2787 27.6723 37.7587C26.7558 38.457 25.8393 39.1117 24.7482 39.4172C24.0063 39.6354 24.3118 40.8137 25.0537 40.5955Z" fill="black"/>
<path d="M23.9624 36.3175C24.9662 36.0993 25.97 36.012 26.9738 35.9247C27.7594 35.8374 27.7594 34.6154 26.9738 34.7027C25.8391 34.8336 24.748 34.9209 23.6133 35.1391C22.8713 35.2701 23.1768 36.4921 23.9624 36.3175Z" fill="black"/>
<path d="M33.0838 33.9173C32.2982 32.6516 30.9453 31.2987 29.4178 30.2949C28.1958 31.2551 28.0212 33.3936 29.1123 35.2702C30.247 37.2778 32.3418 38.1943 33.8257 37.4087C34.0439 36.3613 33.8257 35.1829 33.0838 33.9173Z" fill="#FCD3B1"/>
<path d="M27.9777 42.384C26.6247 42.384 25.2718 41.6857 24.4862 40.4637L24.4426 40.3764V40.3328C23.046 38.1506 22.3914 34.3973 22.9587 31.866C23.2642 30.5568 23.8316 29.6403 24.6608 29.1165C24.7481 29.0729 24.8354 28.9856 24.9663 28.942C25.0099 28.8983 25.0536 28.8983 25.1409 28.8547C25.9264 28.5492 26.8429 28.5928 27.6285 28.942C29.8107 29.9021 32.1674 31.866 33.3457 33.7427C34.1313 35.052 34.3932 36.3176 34.0877 37.5396C33.7385 38.9798 32.6038 40.3328 30.8581 41.3802C30.4653 41.5984 30.0289 41.8603 29.5488 42.0785C29.0687 42.2967 28.5014 42.384 27.9777 42.384ZM25.0972 40.2018C26.0137 41.5984 27.8031 42.1221 29.3306 41.5111C29.767 41.3366 30.1162 41.1184 30.5526 40.8565C32.1674 39.8963 33.1712 38.6743 33.5203 37.4087C33.7822 36.3613 33.5639 35.2266 32.8657 34.0918C31.7746 32.3025 29.5052 30.4695 27.4103 29.553C26.7557 29.2911 26.0137 29.2475 25.4027 29.4657C25.3591 29.4657 25.3154 29.5093 25.2282 29.553C25.1409 29.5966 25.0972 29.6403 25.0099 29.6839C24.3117 30.1203 23.8316 30.9059 23.5697 32.0406C22.9587 34.7465 23.8752 38.3252 25.0099 40.1146L25.0536 40.2018H25.0972Z" fill="#543715"/>
<path d="M29.9417 38.2367C31.6874 37.844 33.4331 37.4948 35.1788 37.4512C35.8771 37.4512 36.5754 37.4948 37.1428 37.844C37.7538 38.1931 38.1465 38.8914 38.1902 39.5897C38.2338 40.288 37.8847 41.0299 37.3173 41.4227C36.7063 41.8591 35.9644 41.9464 35.2225 42.0337C33.0403 42.2083 30.8145 42.121 28.5887 41.99" fill="#EA9357"/>
<path d="M30.029 38.5418C31.6874 38.1926 33.3459 37.8435 35.0043 37.7562C35.7462 37.7562 36.5754 37.7562 37.2301 38.2363C37.7974 38.7164 38.0593 39.5019 37.8847 40.2002C37.4046 41.8586 35.1789 41.7714 33.7823 41.815C32.0802 41.8586 30.3781 41.7714 28.6761 41.6841C28.2833 41.6841 28.2833 42.2951 28.6761 42.2951C30.3345 42.3824 31.9493 42.4696 33.6077 42.426C34.8734 42.3824 36.5318 42.4696 37.6229 41.6404C38.5394 40.9421 38.8449 39.6329 38.3211 38.5854C37.7101 37.3634 36.4009 37.1016 35.1352 37.1016C33.3459 37.1452 31.6438 37.538 29.8981 37.8871C29.4616 38.0181 29.6362 38.6291 30.029 38.5418Z" fill="#543715"/>
<path d="M34.9172 37.6257C34.6553 38.2367 34.5681 38.8477 34.5681 39.5023C34.6117 40.2879 35.8337 40.2879 35.7901 39.5023C35.7901 39.0659 35.7901 38.6295 35.9646 38.2367C36.0956 37.9312 36.0519 37.5821 35.7464 37.4075C35.4846 37.2766 35.0481 37.3202 34.9172 37.6257Z" fill="black"/>
<path d="M32.1239 39.1532C31.9493 40.0697 31.862 40.8989 32.1675 41.8154C32.3858 42.5574 33.6078 42.2519 33.3459 41.4663C33.1277 40.768 33.1713 40.2006 33.3023 39.4587C33.4768 38.7168 32.2985 38.4113 32.1239 39.1532Z" fill="black"/>
<path d="M30.029 38.5418C31.6874 38.1926 33.3459 37.8435 35.0043 37.7562C35.7462 37.7562 36.5754 37.7562 37.2301 38.2363C37.7974 38.7164 38.0593 39.5019 37.8847 40.2002C37.4046 41.8586 35.1789 41.7714 33.7823 41.815C32.0802 41.8586 30.3781 41.7714 28.6761 41.6841C28.2833 41.6841 28.2833 42.2951 28.6761 42.2951C30.3345 42.3824 31.9493 42.4696 33.6077 42.426C34.8734 42.3824 36.5318 42.4696 37.6229 41.6404C38.5394 40.9421 38.8449 39.6329 38.3211 38.5854C37.7101 37.3634 36.4009 37.1016 35.1352 37.1016C33.3459 37.1452 31.6438 37.538 29.8981 37.8871C29.4616 38.0181 29.6362 38.6291 30.029 38.5418Z" fill="#543715"/>
<path d="M27.2795 31.43C29.0688 29.8589 30.9018 28.2877 33.084 27.6767C33.4768 27.5894 33.9132 27.5021 34.306 27.5458C34.7424 27.6331 35.1352 27.8513 35.3971 28.2441C35.7462 28.8114 35.7026 29.597 35.3971 30.1644C35.0916 30.7317 34.6115 31.1245 34.1314 31.5173C32.2984 32.8702 30.2036 33.874 28.0651 34.4414" fill="#EA9357"/>
<path d="M27.4978 31.648C29.2435 30.1205 31.2511 28.2438 33.6515 27.8947C34.3061 27.8074 35.048 27.982 35.2663 28.6802C35.4845 29.2913 35.2663 29.9459 34.8735 30.3823C34.4807 30.8624 33.957 31.2552 33.4332 31.6043C32.9095 31.9535 32.3858 32.259 31.8621 32.5645C30.6401 33.2191 29.3308 33.7428 27.9779 34.1356C27.5851 34.2229 27.7597 34.8339 28.1525 34.7466C29.549 34.3538 30.902 33.8301 32.2112 33.1318C32.8659 32.7827 33.5205 32.3463 34.1315 31.9098C34.6553 31.517 35.179 31.1243 35.5718 30.5569C36.27 29.5531 36.1391 27.982 34.9171 27.4146C33.6951 26.8472 32.0803 27.6328 30.9892 28.2438C29.549 29.0294 28.327 30.1205 27.105 31.2115C26.7559 31.4734 27.1923 31.9098 27.4978 31.648Z" fill="#543715"/>
<path d="M31.4257 28.2421C31.382 28.6785 31.5129 29.1586 31.7312 29.5077C31.8184 29.6823 32.0803 29.7696 32.2549 29.6387C32.4294 29.5077 32.5167 29.2895 32.3858 29.115C32.3422 29.0277 32.2985 28.984 32.2549 28.8967C32.2549 28.9404 32.2985 28.9404 32.2985 28.984C32.2112 28.8094 32.1676 28.6785 32.1676 28.5039C32.1676 28.5476 32.1676 28.5912 32.1676 28.5912C32.1676 28.4603 32.1676 28.3294 32.1676 28.1984C32.1676 27.9802 31.993 27.8057 31.7748 27.8057C31.6002 27.8929 31.4257 28.0239 31.4257 28.2421Z" fill="black"/>
<path d="M32.3422 30.8618C32.604 31.2546 32.9532 31.5601 33.346 31.8219C33.4332 31.8656 33.5642 31.8656 33.6515 31.8656C33.7387 31.8219 33.826 31.7783 33.8697 31.691C33.957 31.5164 33.9133 31.2982 33.7387 31.1673C33.6515 31.1237 33.6078 31.08 33.5205 30.9927C33.5642 30.9927 33.5642 31.0364 33.6078 31.0364C33.3896 30.8618 33.215 30.6872 33.0405 30.469C33.0405 30.5127 33.0841 30.5127 33.0841 30.5563C33.0405 30.5127 33.0405 30.5127 32.9968 30.469C32.9532 30.3817 32.8659 30.3381 32.7786 30.2944C32.6913 30.2508 32.5604 30.2944 32.4731 30.3381C32.3858 30.3817 32.2985 30.469 32.2985 30.5563C32.2985 30.6872 32.2985 30.8182 32.3422 30.8618Z" fill="black"/>
<path d="M27.4978 31.648C29.2435 30.1205 31.2511 28.2438 33.6515 27.8947C34.3061 27.8074 35.048 27.982 35.2663 28.6802C35.4845 29.2913 35.2663 29.9459 34.8735 30.3823C34.4807 30.8624 33.957 31.2552 33.4332 31.6043C32.9095 31.9535 32.3858 32.259 31.8621 32.5645C30.6401 33.2191 29.3308 33.7428 27.9779 34.1356C27.5851 34.2229 27.7597 34.8339 28.1525 34.7466C29.549 34.3538 30.902 33.8301 32.2112 33.1318C32.8659 32.7827 33.5205 32.3463 34.1315 31.9098C34.6553 31.517 35.179 31.1243 35.5718 30.5569C36.27 29.5531 36.1391 27.982 34.9171 27.4146C33.6951 26.8472 32.0803 27.6328 30.9892 28.2438C29.549 29.0294 28.327 30.1205 27.105 31.2115C26.7559 31.4734 27.1923 31.9098 27.4978 31.648Z" fill="#543715"/>
<path d="M9.85654 21.3677C10.1967 19.0544 8.40392 16.875 5.8522 16.4997C3.30048 16.1245 0.956137 17.6955 0.615954 20.0088C0.275772 22.322 2.06857 24.5015 4.62029 24.8767C7.17201 25.252 9.51636 23.6809 9.85654 21.3677Z" fill="#EA9357"/>
<path d="M5.37065 25.2313C5.10879 25.2313 4.84693 25.2313 4.58507 25.1877C3.27579 25.0131 2.09743 24.3584 1.31186 23.3547C0.48264 22.3509 0.133497 21.1725 0.308068 19.9505C0.657212 17.4629 3.1885 15.7608 5.89436 16.1972C8.60022 16.59 10.5205 18.9467 10.1714 21.4344C9.9968 22.6564 9.29851 23.7038 8.25108 24.4021C7.42186 24.9694 6.41808 25.2313 5.37065 25.2313ZM0.919069 20.0378C0.78814 21.0852 1.05 22.089 1.74828 22.9619C2.44657 23.8347 3.494 24.4021 4.62872 24.5767C5.80708 24.7512 6.94179 24.4894 7.85829 23.8784C8.77479 23.2674 9.34215 22.3509 9.51672 21.3471C9.82222 19.2086 8.16379 17.1574 5.76343 16.8082C3.45036 16.4591 1.22457 17.8993 0.919069 20.0378Z" fill="#543715"/>
<path d="M10.3552 21.4552C10.6357 19.5473 9.16192 17.7506 7.06331 17.4419C4.9647 17.1333 3.036 18.4297 2.75544 20.3376C2.47488 22.2454 3.94869 24.0422 6.0473 24.3508C8.14591 24.6594 10.0746 23.363 10.3552 21.4552Z" fill="#FCD3B1"/>
<path d="M29.2764 11.3529C30.1213 8.9162 29.0155 6.31996 26.8065 5.55402C24.5976 4.78809 22.1219 6.1425 21.277 8.57919C20.4321 11.0159 21.5379 13.6121 23.7469 14.3781C25.9558 15.144 28.4315 13.7896 29.2764 11.3529Z" fill="#EA9357"/>
<path d="M25.0102 14.8878C24.5738 14.8878 24.0937 14.8005 23.6573 14.6696C22.5226 14.2768 21.6061 13.4039 21.0824 12.2256C20.6023 11.0472 20.5587 9.73791 20.9951 8.47226C21.9116 5.89733 24.5302 4.45712 26.9305 5.24269C28.0652 5.63547 28.9817 6.50833 29.5055 7.68669C29.9855 8.86505 30.0292 10.1743 29.5927 11.44C28.8508 13.5348 26.9742 14.8878 25.0102 14.8878ZM25.534 5.63548C23.8319 5.63548 22.2171 6.81383 21.5625 8.64684C21.1697 9.73791 21.2133 10.9163 21.6497 11.9637C22.0862 12.9675 22.8717 13.7094 23.8319 14.0586C25.8831 14.7568 28.1962 13.4912 28.9817 11.2218C29.3745 10.1307 29.3309 8.95234 28.8945 7.90491C28.458 6.90112 27.6725 6.15919 26.7123 5.81005C26.3195 5.72276 25.9267 5.63548 25.534 5.63548Z" fill="#543715"/>
<path d="M28.2518 11.8542C28.9309 9.89575 28.0415 7.80881 26.2652 7.1929C24.4889 6.57699 22.4984 7.66535 21.8194 9.62381C21.1403 11.5823 22.0297 13.6692 23.806 14.2851C25.5823 14.901 27.5728 13.8127 28.2518 11.8542Z" fill="#FCD3B1"/>
<path d="M33.1712 15.4117C36.4445 21.2162 32.9967 27.719 25.9702 31.7778C18.8564 35.8802 10.6951 35.8802 7.20371 28.9846C4.67242 24.053 5.71985 13.4041 12.1354 9.73812C19.8165 5.33019 29.3743 8.64705 33.1712 15.4117Z" fill="#EA9357"/>
<path d="M16.5432 34.8763C15.3212 34.8763 14.1865 34.7017 13.0955 34.3962C10.3896 33.6106 8.25109 31.7776 6.9418 29.1154C4.32323 24.0092 5.54523 13.1421 12.0044 9.4761C15.6267 7.42488 19.8601 6.90117 23.9625 8.03588C28.065 9.1706 31.5128 11.7892 33.4767 15.2806C36.6626 20.9542 33.7385 27.6752 26.1447 32.0831C22.8715 33.9161 19.5546 34.8763 16.5432 34.8763ZM19.6419 8.03588C17.067 8.03588 14.5357 8.69053 12.2662 9.99981C6.06894 13.5349 4.93423 23.9219 7.46552 28.8536C8.73116 31.3848 10.6951 33.0433 13.27 33.8288C16.8487 34.8763 21.4312 34.0471 25.7955 31.5158C33.0403 27.326 35.8771 20.9105 32.8657 15.5861C30.989 12.2692 27.6722 9.73796 23.7443 8.64688C22.3914 8.2541 20.9948 8.03588 19.6419 8.03588Z" fill="#543715"/>
<path d="M29.4616 14.4968C29.5053 14.715 29.7235 14.8896 29.9854 14.8896C30.2036 14.9332 30.4654 14.8896 30.6836 14.8023C31.1637 14.6277 31.8184 14.4531 32.5167 14.3659C32.2112 13.9731 31.9493 13.5366 31.6002 13.1875C30.9892 13.3621 30.5091 13.5366 30.2036 13.7112C29.8544 13.8858 29.418 14.104 29.4616 14.4968Z" fill="black"/>
<path d="M27.9342 16.7665C27.9779 16.9847 28.1961 17.1592 28.4143 17.2029C28.6325 17.2465 28.8944 17.2029 29.1126 17.1592C30.4655 16.7665 32.124 16.7665 33.8697 16.8974C33.6951 16.4173 33.4769 15.8936 33.1714 15.4135C33.1277 15.3262 33.0841 15.239 33.0405 15.1953C31.2075 15.3699 29.5927 15.6317 28.6762 16.0682C28.327 16.1991 27.847 16.4173 27.9342 16.7665Z" fill="black"/>
<path d="M30.2037 19.2547C29.8109 19.2547 29.3309 19.3857 29.3309 19.7785C29.3309 19.9967 29.5054 20.2149 29.7237 20.3022C29.9419 20.3895 30.1601 20.3895 30.4219 20.3895C31.1639 20.3458 32.6477 20.4767 34.3934 20.695C34.4371 20.2149 34.4371 19.7348 34.3934 19.2547C32.2549 19.2547 30.5965 19.2111 30.2037 19.2547Z" fill="black"/>
<path d="M8.42581 23.8379C8.60039 23.6634 8.77496 23.5324 8.90589 23.3142C8.99317 23.096 9.03682 22.8341 8.86224 22.6596C8.60039 22.3541 8.12031 22.5723 7.81481 22.7905C7.55296 22.9651 6.89831 23.4451 5.98181 24.1871C6.02545 24.8854 6.11274 25.5837 6.24367 26.1947C7.2911 24.9726 8.12031 24.0998 8.42581 23.8379Z" fill="black"/>
<path d="M11.4808 25.0148C11.6118 24.8839 11.83 24.7093 11.9173 24.4911C12.0045 24.2729 12.0045 24.011 11.8736 23.8365C11.6118 23.5746 11.1317 23.7928 10.8262 24.011C9.25503 25.1894 8.12032 26.6296 6.9856 28.2444C6.94196 28.288 6.94196 28.3317 6.89832 28.3753C6.9856 28.5935 7.07289 28.8118 7.20382 28.9863C7.42203 29.3791 7.64025 29.7719 7.85846 30.121C9.25503 27.7643 10.8262 25.6258 11.4808 25.0148Z" fill="black"/>
<path d="M13.2264 27.4144C13.27 27.1962 13.2264 26.9343 13.0518 26.8034C12.7463 26.5852 12.3099 26.8907 12.048 27.1962C11.2625 28.1127 10.6078 29.0728 10.1277 30.0766C9.82224 30.6876 9.51674 31.2986 9.25488 31.8223C9.69131 32.2587 10.1714 32.6079 10.6515 32.957C11.6116 30.6003 12.659 28.3745 12.9209 28.0254C13.0518 27.8072 13.1827 27.6326 13.2264 27.4144Z" fill="black"/>
<path d="M17.5909 8.82308C17.46 8.73579 17.329 8.60486 17.1981 8.51758C14.6232 9.30315 12.3101 10.5252 10.4771 12.3145C10.2153 12.5764 9.99704 12.9255 10.2589 13.1437C10.4335 13.2747 10.6953 13.2747 10.9135 13.1874C11.1318 13.1001 11.2627 12.9692 11.4373 12.8382C13.0957 11.4853 15.2778 10.4379 17.6782 9.91415C17.94 9.87051 18.2455 9.82687 18.5074 9.78322C18.2455 9.43408 17.94 9.12858 17.5909 8.82308Z" fill="black"/>
<path d="M16.2379 11.049C14.7977 11.5291 13.6193 12.2274 12.6155 13.1002C12.8338 13.3621 13.0956 13.5803 13.3575 13.7985C14.1867 12.9257 15.2341 12.1837 16.4561 11.66C16.6307 11.5727 16.7616 11.5291 16.8489 11.4418C16.9362 11.3545 17.0235 11.2236 16.9362 11.0927C16.8053 10.9181 16.4561 10.9617 16.2379 11.049Z" fill="black"/>
<path d="M12.4611 22.7831C13.5736 22.3196 14.1899 21.2584 13.8377 20.4129C13.4854 19.5674 12.298 19.2578 11.1855 19.7213C10.073 20.1848 9.45671 21.246 9.80898 22.0914C10.1612 22.9369 11.3487 23.2466 12.4611 22.7831Z" fill="#FF8FC4"/>
<path d="M25.2525 15.6708C26.365 15.2073 26.9812 14.1461 26.629 13.3006C26.2767 12.4551 25.0893 12.1455 23.9768 12.609C22.8643 13.0725 22.248 14.1336 22.6003 14.9791C22.9526 15.8246 24.14 16.1343 25.2525 15.6708Z" fill="#FF8FC4"/>
<path d="M11.6117 19.338C11.4808 19.338 11.3935 19.2508 11.3499 19.1635C11.1317 18.6834 11.1317 18.1597 11.3062 17.7233C11.4372 17.4178 11.6554 17.1559 11.9609 17.025C12.2664 16.894 12.5719 16.894 12.921 17.0686C13.3574 17.2432 13.7066 17.636 13.8812 18.116C13.9248 18.2906 13.8375 18.4652 13.7066 18.5088C13.532 18.5525 13.3574 18.4652 13.3138 18.3343C13.1829 18.0288 12.9647 17.7669 12.7028 17.636C12.5282 17.5487 12.3537 17.5487 12.2227 17.5923C12.0918 17.636 11.9609 17.7669 11.9172 17.9415C11.7863 18.2033 11.8299 18.5525 11.9609 18.9016C12.0482 19.0762 11.9609 19.2508 11.7863 19.2944C11.6554 19.338 11.6554 19.338 11.6117 19.338Z" fill="black"/>
<path d="M21.3006 14.3647C21.1697 14.3647 21.0824 14.2774 21.0388 14.1901C20.7769 13.7101 20.7769 13.23 20.9515 12.7936C21.0824 12.4881 21.3006 12.2262 21.6061 12.0953C21.9116 11.9644 22.2171 11.9644 22.5663 12.1389C23.0027 12.3135 23.3519 12.7063 23.5264 13.1864C23.5701 13.3609 23.4828 13.5355 23.3519 13.5791C23.1773 13.6228 23.0027 13.5355 22.9591 13.4046C22.8281 13.0991 22.6099 12.8372 22.3481 12.7063C22.1735 12.619 21.9989 12.619 21.868 12.6626C21.7371 12.7063 21.6061 12.8372 21.5625 13.0118C21.4316 13.2736 21.4752 13.6228 21.6061 13.9719C21.6934 14.1465 21.6061 14.3211 21.4316 14.3647C21.3443 14.3647 21.3443 14.3647 21.3006 14.3647Z" fill="black"/>
<path d="M18.2756 24.8081C20.0783 23.9978 21.035 22.2181 20.4124 20.833C19.7898 19.448 17.8237 18.9821 16.021 19.7925C14.2182 20.6028 13.2615 22.3826 13.8841 23.7676C14.5067 25.1526 16.4728 25.6185 18.2756 24.8081Z" fill="#FCD3B1"/>
<path d="M24.4703 21.4488C26.2731 20.6384 27.2298 18.8587 26.6072 17.4737C25.9846 16.0886 24.0185 15.6228 22.2157 16.4331C20.413 17.2435 19.4563 19.0232 20.0789 20.4082C20.7015 21.7932 22.6676 22.2591 24.4703 21.4488Z" fill="#FCD3B1"/>
<path d="M19.1618 18.3793C18.4199 18.7721 17.6343 19.4267 17.8962 19.8632C18.1144 20.256 19.0309 19.5577 19.5983 20.1687C19.8165 20.3869 19.9474 20.5178 20.1656 20.3869C20.3838 20.256 20.3838 20.0814 20.2966 19.7759C20.1656 18.9903 21.2567 18.5975 21.0385 18.2047C20.8639 17.7247 19.9038 17.9865 19.1618 18.3793Z" fill="black"/>
<path d="M18.5074 19.3418C18.4201 19.2109 18.5947 19.0363 18.6819 18.949C18.8565 18.7745 19.0747 18.6435 19.2493 18.5126C19.4239 18.4253 20.2531 18.0762 20.2967 18.469C20.2967 18.5126 20.2967 18.5562 20.2531 18.5999C20.2094 18.6435 20.1658 18.6872 20.1222 18.6872C19.8603 18.8181 19.6421 18.9927 19.3802 19.1236C19.2493 19.2545 18.6383 19.6037 18.5074 19.3418Z" fill="#827573"/>
<path d="M15.3216 21.9587C15.4903 21.9587 15.6271 21.8219 15.6271 21.6532C15.6271 21.4844 15.4903 21.3477 15.3216 21.3477C15.1528 21.3477 15.0161 21.4844 15.0161 21.6532C15.0161 21.8219 15.1528 21.9587 15.3216 21.9587Z" fill="#827573"/>
<path d="M17.2416 24.1393C17.4103 24.1393 17.5471 24.0025 17.5471 23.8338C17.5471 23.6651 17.4103 23.5283 17.2416 23.5283C17.0729 23.5283 16.9361 23.6651 16.9361 23.8338C16.9361 24.0025 17.0729 24.1393 17.2416 24.1393Z" fill="#827573"/>
<path d="M15.758 24.361C15.9267 24.361 16.0635 24.2242 16.0635 24.0555C16.0635 23.8868 15.9267 23.75 15.758 23.75C15.5893 23.75 15.4525 23.8868 15.4525 24.0555C15.4525 24.2242 15.5893 24.361 15.758 24.361Z" fill="#827573"/>
<path d="M14.7541 23.2253C14.9228 23.2253 15.0596 23.0885 15.0596 22.9198C15.0596 22.751 14.9228 22.6143 14.7541 22.6143C14.5854 22.6143 14.4486 22.751 14.4486 22.9198C14.4486 23.0885 14.5854 23.2253 14.7541 23.2253Z" fill="#827573"/>
<path d="M16.3687 22.6989C16.5375 22.6989 16.6742 22.5621 16.6742 22.3934C16.6742 22.2247 16.5375 22.0879 16.3687 22.0879C16.2 22.0879 16.0632 22.2247 16.0632 22.3934C16.0632 22.5621 16.2 22.6989 16.3687 22.6989Z" fill="#827573"/>
<path d="M23.8316 17.2448C24.0003 17.2448 24.1371 17.108 24.1371 16.9393C24.1371 16.7706 24.0003 16.6338 23.8316 16.6338C23.6629 16.6338 23.5261 16.7706 23.5261 16.9393C23.5261 17.108 23.6629 17.2448 23.8316 17.2448Z" fill="#827573"/>
<path d="M24.6612 19.821C24.8299 19.821 24.9667 19.6842 24.9667 19.5155C24.9667 19.3467 24.8299 19.21 24.6612 19.21C24.4925 19.21 24.3557 19.3467 24.3557 19.5155C24.3557 19.6842 24.4925 19.821 24.6612 19.821Z" fill="#827573"/>
<path d="M25.5339 18.902C25.7026 18.902 25.8394 18.7652 25.8394 18.5965C25.8394 18.4278 25.7026 18.291 25.5339 18.291C25.3652 18.291 25.2284 18.4278 25.2284 18.5965C25.2284 18.7652 25.3652 18.902 25.5339 18.902Z" fill="#827573"/>
<path d="M25.3158 17.3776C25.4845 17.3776 25.6213 17.2408 25.6213 17.0721C25.6213 16.9034 25.4845 16.7666 25.3158 16.7666C25.1471 16.7666 25.0103 16.9034 25.0103 17.0721C25.0103 17.2408 25.1471 17.3776 25.3158 17.3776Z" fill="#827573"/>
<path d="M22.6972 17.7682C22.8659 17.7682 23.0027 17.6315 23.0027 17.4627C23.0027 17.294 22.8659 17.1572 22.6972 17.1572C22.5284 17.1572 22.3917 17.294 22.3917 17.4627C22.3917 17.6315 22.5284 17.7682 22.6972 17.7682Z" fill="#827573"/>
<path d="M22.0058 24.4172C22.9424 24.1018 23.4023 22.9574 23.0331 21.8609C22.6639 20.7645 21.6054 20.1312 20.6689 20.4466C19.7323 20.7619 19.2724 21.9064 19.6416 23.0029C20.0107 24.0993 21.0692 24.7325 22.0058 24.4172Z" fill="#FCD3B1"/>
<path d="M20.1658 20.1709C20.2095 20.3891 20.3404 20.651 20.4713 20.8692L20.1658 20.1709Z" fill="#3A3733"/>
<path d="M19.8604 20.258C19.9477 20.5199 20.0349 20.7817 20.2095 20.9999C20.2532 21.0872 20.2968 21.1309 20.3841 21.1309C20.4714 21.1309 20.5587 21.1309 20.6023 21.0872C20.6896 21.0436 20.7332 20.9999 20.7332 20.9127C20.7332 20.8254 20.7332 20.7381 20.6896 20.6944C20.6023 20.5635 20.515 20.4326 20.4714 20.3017C20.4714 20.3453 20.4714 20.3453 20.515 20.3889C20.4714 20.3017 20.4277 20.2144 20.4277 20.0834C20.4277 19.9962 20.3404 19.9525 20.2968 19.9089C20.2095 19.8652 20.1222 19.8652 20.0786 19.8652C19.904 19.9525 19.8167 20.0834 19.8604 20.258Z" fill="black"/>
<path d="M18.4637 22.6563L19.3366 22.5254L19.162 24.0093L18.4637 22.6563Z" fill="white"/>
<path d="M23.308 20.168L22.6533 20.779L23.9626 21.5209L23.308 20.168Z" fill="white"/>
<path d="M19.6857 22.5702C19.6857 22.5702 20.6458 24.4469 21.9551 23.574C23.2644 22.7012 22.2606 21.13 22.2606 21.13L20.4712 20.8682L19.6857 22.5702Z" fill="#FF8FC4"/>
<path d="M17.5474 22.6584C18.1584 23.0948 19.0749 23.2694 19.7296 22.7893C20.2969 22.3529 20.5588 21.611 20.7333 20.9563C20.6024 21.0436 20.4715 21.0872 20.3406 21.1745C21.2571 21.3055 22.2172 21.6546 23.0464 21.0436C23.6138 20.6072 24.0066 19.7343 23.5265 19.0797C23.3083 18.7742 22.7409 19.0797 23.0028 19.3852C23.3083 19.8216 22.9591 20.389 22.5663 20.6508C21.9553 21 21.1698 20.6508 20.5151 20.5635C20.3406 20.5199 20.166 20.6072 20.1223 20.7817C19.9914 21.2618 19.8605 21.8728 19.4677 22.222C19.0313 22.6584 18.333 22.4402 17.8529 22.1347C17.5474 21.8728 17.1983 22.4402 17.5474 22.6584Z" fill="black"/>
<path d="M11.2626 21.4339C11.2626 21.4339 11.219 21.4339 11.219 21.3903C11.219 21.3466 11.219 21.303 11.2626 21.303C12.3101 20.7356 13.4011 20.4301 14.5795 20.2992C15.7142 20.1683 16.8053 20.2555 17.6781 20.3428C17.7218 20.3428 17.7654 20.3865 17.7218 20.4301C17.7218 20.4738 17.6781 20.5174 17.6345 20.4738C15.8015 20.2992 13.663 20.1683 11.2626 21.4339Z" fill="white"/>
<path d="M11.2626 21.5222C11.2189 21.5222 11.1317 21.4785 11.1317 21.4349C11.1317 21.3912 11.1317 21.304 11.2189 21.304C12.2227 20.7802 13.3138 20.4311 14.5358 20.3002C15.6269 20.1692 16.6743 20.2565 17.6344 20.3438C17.6781 20.3438 17.7217 20.3875 17.7217 20.4311C17.7217 20.4747 17.7217 20.5184 17.7217 20.5184C17.7217 20.562 17.6781 20.6057 17.6344 20.6057C17.5908 20.6057 17.5472 20.6057 17.5472 20.6057C15.5832 20.3438 13.5757 20.3002 11.2626 21.5222ZM11.2626 21.3912C13.5757 20.1692 15.6705 20.2565 17.6344 20.4311C16.6743 20.3438 15.6269 20.2565 14.5358 20.3875C13.3138 20.5184 12.2664 20.8239 11.2626 21.3912Z" fill="white"/>
<path d="M12.0485 23.179C12.0485 23.179 12.0049 23.179 12.0485 23.179C11.9612 23.1353 11.9612 23.0917 12.0049 23.0481C12.7904 22.1752 13.6633 21.5642 14.7107 21.2151C15.7145 20.8659 16.7183 20.8223 17.5912 20.8223C17.6348 20.8223 17.6784 20.8659 17.6784 20.9096C17.6784 20.9532 17.6348 20.9968 17.5912 20.9968C15.409 20.9968 13.6633 21.3896 12.0921 23.1353C12.0921 23.179 12.0485 23.2226 12.0485 23.179Z" fill="white"/>
<path d="M12.0483 23.266L12.0047 23.2223C11.9611 23.1787 11.9174 23.1787 11.9174 23.135C11.9174 23.0914 11.9174 23.0478 11.9611 23.0041C12.7903 22.0876 13.6631 21.5203 14.7106 21.1711C15.7144 20.822 16.6745 20.7783 17.591 20.7783C17.6783 20.7783 17.7219 20.8656 17.7219 20.9092C17.7219 20.9965 17.6346 21.0402 17.591 21.0402C15.4525 21.0402 13.7068 21.3893 12.1356 23.135L12.2666 23.2223H12.092C12.092 23.266 12.0483 23.266 12.0483 23.266ZM12.0047 23.135C13.6195 21.3457 15.4089 20.9529 17.5474 20.9529C17.5474 20.9529 17.591 20.9529 17.591 20.9092C17.591 20.9092 17.591 20.8656 17.5474 20.8656C16.6309 20.8656 15.6707 20.9093 14.6669 21.2584C13.7068 21.6075 12.8339 22.2185 12.0047 23.135C12.0047 23.0914 12.0047 23.0914 12.0047 23.135Z" fill="white"/>
<path d="M13.2702 24.8399C13.2266 24.8399 13.2266 24.8399 13.2702 24.8399C13.183 24.7963 13.183 24.7526 13.2266 24.7526C13.7503 23.8798 14.3613 23.2251 15.1469 22.7014C15.9325 22.1777 16.718 21.8722 17.4163 21.6104C17.46 21.6104 17.5036 21.6104 17.5036 21.654C17.5036 21.6976 17.5036 21.7413 17.46 21.7413C16.0634 22.265 14.4486 22.9633 13.3139 24.8399C13.3139 24.7963 13.2702 24.8399 13.2702 24.8399Z" fill="white"/>
<path d="M13.2266 25.0572V24.9262C13.1393 24.8826 13.1393 24.839 13.1393 24.7953C13.1393 24.7517 13.1829 24.7517 13.1829 24.7517C13.7066 23.8788 14.3176 23.2242 15.1032 22.7004C15.8888 22.1767 16.6307 21.8712 17.3726 21.6094C17.4163 21.6094 17.5036 21.6094 17.5036 21.6967C17.5036 21.7403 17.5036 21.8276 17.4163 21.8276C15.9324 22.3949 14.4486 23.0496 13.3139 24.8826L13.4448 24.9262H13.2702L13.2266 25.0572ZM17.4163 21.6967C16.6744 21.9585 15.9324 22.264 15.1469 22.7877C14.3613 23.3114 13.7939 23.9224 13.2702 24.7953C14.4049 22.9623 15.9324 22.264 17.4163 21.6967Z" fill="white"/>
<path d="M28.6324 15.9798C28.6761 15.8925 28.6324 15.8488 28.5888 15.8488C27.3668 15.8052 26.2757 15.9361 25.141 16.3289C24.0499 16.6781 23.1334 17.2018 22.3478 17.6818C22.3042 17.6818 22.3042 17.7255 22.3042 17.7691C22.3042 17.8128 22.3478 17.8128 22.3915 17.8128C23.9626 16.8526 25.8393 15.8925 28.5451 15.9798C28.6324 15.9798 28.6324 15.9798 28.6324 15.9798Z" fill="white"/>
<path d="M22.3917 17.902C22.348 17.902 22.2171 17.902 22.2171 17.8147C22.2171 17.7711 22.2171 17.6838 22.3044 17.6838C23.1336 17.2037 24.0065 16.68 25.0975 16.3309C26.1886 15.9381 27.2797 15.8072 28.5453 15.8508C28.6326 15.8508 28.6763 15.9381 28.6763 15.9817V16.0254L28.6326 16.069H28.5017C25.9267 15.9817 24.0501 16.8982 22.3917 17.902ZM22.348 17.7711C24.0065 16.7673 25.8831 15.8508 28.5453 15.9381H28.589C28.589 15.9381 28.589 15.9381 28.5453 15.9381C27.2797 15.8944 26.1886 16.0254 25.0975 16.4182C24.0937 16.7237 23.1772 17.2474 22.348 17.7711Z" fill="white"/>
<path d="M28.6761 17.8579C28.6761 17.8142 28.6761 17.8142 28.6761 17.8579C28.7197 17.7706 28.7197 17.7269 28.6761 17.7269C27.585 17.2469 26.5376 17.0723 25.4465 17.2032C24.3991 17.3341 23.439 17.7269 22.6534 18.0761C22.6097 18.0761 22.6097 18.1197 22.6097 18.1634C22.6097 18.207 22.6534 18.207 22.697 18.207C24.661 17.2905 26.4067 16.8977 28.5888 17.8579C28.6325 17.8579 28.6761 17.8579 28.6761 17.8579Z" fill="white"/>
<path d="M22.697 18.2943C22.6534 18.2943 22.5225 18.2943 22.5225 18.207C22.5225 18.1634 22.5225 18.0761 22.6097 18.0761C23.4826 17.6833 24.3991 17.3341 25.4029 17.2032C26.494 17.0723 27.5414 17.2469 28.6325 17.7269C28.6761 17.7269 28.6761 17.7706 28.6761 17.7706C28.7198 17.8142 28.6761 17.8579 28.6761 17.9451V17.9888H28.6325L28.5452 18.1634V17.9888H28.5015C26.363 16.985 24.6173 17.3778 22.697 18.2943ZM22.6534 18.1634C24.6173 17.2469 26.363 16.8541 28.5888 17.8142H28.6325C28.6325 17.8142 28.6325 17.8142 28.6325 17.7706C27.5414 17.2905 26.494 17.1159 25.4465 17.2469C24.4427 17.3778 23.5262 17.7706 22.6534 18.1634Z" fill="white"/>
<path d="M27.9779 19.6924C28.0215 19.6488 28.0215 19.6051 27.9779 19.5615C27.1487 18.9941 26.2758 18.645 25.3593 18.514C24.4428 18.3831 23.5699 18.4268 22.828 18.4704C22.7844 18.4704 22.7407 18.514 22.7844 18.5577C22.7844 18.6013 22.828 18.645 22.8717 18.6013C24.3555 18.4704 26.1012 18.4268 27.9779 19.6924C27.8906 19.6924 27.9342 19.6924 27.9779 19.6924Z" fill="white"/>
<path d="M28.1089 19.7771H27.8907V19.7335C26.1013 18.5115 24.3556 18.5115 22.8718 18.6424C22.8281 18.6424 22.8281 18.6861 22.7845 18.6424C22.7408 18.6424 22.7408 18.5988 22.6972 18.5551C22.6972 18.5115 22.6535 18.5115 22.6972 18.4678C22.6972 18.4242 22.7408 18.3806 22.8281 18.3806C23.6573 18.3369 24.4866 18.2933 25.3594 18.4242C26.2759 18.5551 27.1488 18.9043 28.0216 19.4716C28.0653 19.5153 28.0653 19.5589 28.0653 19.6026C28.0653 19.6462 28.0653 19.6462 28.0216 19.6898L28.1089 19.7771ZM24.923 18.5115C25.8831 18.5988 26.8869 18.9043 27.9343 19.6026C27.9343 19.6026 27.9343 19.6026 27.9343 19.5589C27.1051 18.9916 26.2323 18.6424 25.3594 18.5115C25.1848 18.5551 25.0539 18.5551 24.923 18.5115ZM22.8281 18.5551C23.1336 18.5551 23.3955 18.5115 23.701 18.5115C23.3955 18.5115 23.09 18.5115 22.8281 18.5551Z" fill="white"/>
<path d="M35.9208 12.4882C35.9208 11.8336 36.0953 11.1789 36.5754 10.6116C37.4919 9.47686 39.0631 9.215 40.416 9.60779C42.3363 10.1315 43.7329 11.048 45.1731 12.4009C45.9586 13.1429 46.6569 13.9721 47.0934 14.9759C47.3116 15.4559 47.4425 15.936 47.5734 16.4597C47.6607 16.9834 47.6171 17.5508 47.748 18.0745C47.8353 18.4237 48.0535 18.7292 48.0972 19.0783C48.0972 19.2965 48.0535 19.5147 47.9226 19.6893C47.9226 19.7329 47.8789 19.7329 47.8353 19.7766C47.7917 19.8202 47.748 19.8202 47.7044 19.8202C47.0934 19.9075 46.8751 19.2092 46.3078 19.2529C45.8714 19.2965 45.7404 19.9075 45.3476 19.9512C44.8676 19.9948 44.5184 19.4274 44.693 19.0347C44.8239 18.5982 45.2604 18.3364 45.4349 17.8999C45.8714 16.9834 45.0421 15.9797 44.2566 15.5869C43.2528 15.0632 42.0308 14.9322 40.9834 15.2814C40.5033 15.4559 40.0669 15.6742 39.5868 15.7614C38.6703 15.936 37.6665 15.5869 36.9682 14.9322C36.3136 14.2776 35.9208 13.3611 35.9208 12.4882Z" fill="#E0DFE1"/>
<path d="M45.2604 20.2568C44.9549 20.2568 44.6931 20.1258 44.4749 19.864C44.2567 19.5585 44.213 19.2093 44.3439 18.9038C44.4312 18.642 44.6058 18.4238 44.7804 18.2492C44.9113 18.1183 45.0422 17.9437 45.0859 17.8128C45.435 17.0708 44.7367 16.2416 44.0384 15.8925C43.0783 15.4124 41.9436 15.2815 40.9834 15.587C40.8525 15.6306 40.7216 15.6743 40.5907 15.7615C40.2415 15.8925 39.936 16.0234 39.5432 16.1107C38.5394 16.2853 37.4484 15.9361 36.6628 15.1942C35.9209 14.4523 35.5281 13.4921 35.5281 12.532C35.5281 11.7028 35.7899 11.0045 36.27 10.4371C37.1865 9.30239 38.8449 8.86596 40.4161 9.34604C42.2054 9.82611 43.6893 10.699 45.3041 12.2265C46.2642 13.143 46.9189 13.9722 47.3117 14.8887C47.5299 15.4124 47.6608 15.8925 47.7917 16.4162C47.8354 16.678 47.8354 16.9399 47.879 17.1581C47.879 17.4636 47.9227 17.7691 47.9663 18.031C48.01 18.1619 48.0536 18.2928 48.0972 18.4238C48.1845 18.642 48.2718 18.8165 48.3154 19.0784C48.3154 19.4276 48.2718 19.6458 48.0972 19.864C48.0536 19.9076 48.0099 19.9949 47.9227 20.0386C47.7917 20.1695 47.6608 20.1695 47.6172 20.1695C47.1807 20.2131 46.8752 19.9949 46.657 19.8203C46.4824 19.6894 46.3515 19.6021 46.2206 19.6021C46.1333 19.6021 46.046 19.6894 45.9151 19.864C45.7842 20.0386 45.5659 20.2568 45.2604 20.3004C45.3477 20.2568 45.3041 20.2568 45.2604 20.2568ZM42.2054 14.8014C42.9474 14.8014 43.6893 14.976 44.3876 15.3251C45.2168 15.7615 46.2642 16.8963 45.6969 18.031C45.6096 18.2492 45.435 18.4674 45.3041 18.642C45.1732 18.8165 45.0422 18.9475 44.9986 19.122C44.9549 19.253 44.9549 19.3839 45.0422 19.4712C45.0859 19.5148 45.1732 19.6458 45.3041 19.6021C45.3477 19.6021 45.435 19.4712 45.5223 19.3839C45.6969 19.2093 45.8714 18.9475 46.2206 18.9038C46.6134 18.8602 46.8752 19.0784 47.0934 19.253C47.3117 19.4275 47.3989 19.5148 47.5735 19.4712C47.6608 19.3839 47.7044 19.2093 47.7044 19.0348C47.7044 18.9038 47.6172 18.7729 47.5299 18.5983C47.4426 18.4238 47.3989 18.2928 47.3553 18.1183C47.268 17.8128 47.268 17.4636 47.2244 17.1581C47.2244 16.9399 47.1807 16.7217 47.1807 16.5035C47.0498 16.0234 46.9189 15.587 46.7443 15.1069C46.3952 14.2777 45.7842 13.4921 44.9113 12.6193C43.3838 11.179 41.9872 10.3498 40.2852 9.91339C38.9322 9.52061 37.5356 9.86975 36.7501 10.8299C36.3573 11.31 36.1827 11.8337 36.1827 12.4883C36.1827 13.2739 36.5319 14.1031 37.1429 14.7141C37.7975 15.3251 38.6704 15.587 39.4996 15.456C39.8051 15.4124 40.1106 15.2815 40.4161 15.1505C40.547 15.1069 40.6779 15.0196 40.8525 14.976C41.2889 14.845 41.7254 14.8014 42.2054 14.8014ZM47.6172 19.5585C47.5735 19.5585 47.5735 19.5585 47.6172 19.5585C47.5735 19.5585 47.5735 19.5585 47.6172 19.5585Z" fill="#3A3A3A"/>
<path d="M47.4424 16.5464C47.3551 16.11 47.2242 15.6299 47.0496 15.1935C46.6569 14.277 46.0022 13.5351 45.3039 12.8368C43.9946 11.5711 42.729 10.6983 40.9833 10.1746C40.5905 10.0436 40.1541 10 39.7613 10C39.4994 10.0873 39.2812 10.1746 39.063 10.3491C38.452 10.7856 38.1465 11.6148 38.1465 12.3131C38.1465 13.055 38.452 13.8842 39.1503 14.277C39.9358 14.7571 40.896 14.6261 41.7688 14.5825C42.5981 14.5389 43.4709 14.6262 44.2565 14.9317C45.0421 15.2372 45.7404 15.8482 46.0022 16.6337C46.1768 17.1574 45.8713 18.1176 45.6094 18.554C45.5221 18.7286 45.6967 18.9468 45.9149 18.9032C46.2641 18.7722 46.7005 18.6413 46.9624 18.8595C47.3988 19.2087 47.7916 19.165 47.8789 18.6413C47.7916 18.4231 47.7043 18.2485 47.6606 18.0303C47.4424 17.5066 47.5297 17.0265 47.4424 16.5464Z" fill="#E0DFE1"/>
<path d="M39.8051 12.0956C39.8487 12.4011 39.936 12.7066 40.1106 12.9248C40.0669 12.6193 40.0669 12.3575 40.1542 12.0956C40.1979 11.8337 40.2851 11.5719 40.4161 11.31C40.6343 10.8736 40.8961 10.4808 41.158 10.088C41.0707 10.0444 40.9834 10.0444 40.8961 10.0007C40.6343 9.91346 40.3288 9.86981 40.0233 9.82617C39.936 10.2626 39.8487 10.699 39.8051 11.1355C39.7614 11.4846 39.7614 11.7901 39.8051 12.0956Z" fill="#98908F"/>
<path d="M41.9436 11.746C41.8563 12.0515 41.8126 12.357 41.8126 12.6625C41.8126 12.968 41.8563 13.2735 41.9436 13.5354C41.9436 13.2299 42.0308 12.968 42.1181 12.7062C42.2054 12.4443 42.38 12.2261 42.5109 12.0079C42.7291 11.7024 42.991 11.4405 43.2528 11.135C42.9473 10.9605 42.6418 10.7423 42.3363 10.6113C42.2054 10.9605 42.0745 11.3533 41.9436 11.746Z" fill="#98908F"/>
<path d="M44.2568 12.5764C44.1259 12.8383 43.9949 13.1438 43.9077 13.4493C43.8204 13.7548 43.8204 14.0603 43.8204 14.3222C43.9077 14.0603 44.0386 13.7985 44.1695 13.5366C44.3441 13.3184 44.5187 13.1002 44.7369 12.9256C44.8678 12.8383 44.9987 12.7074 45.1297 12.6201C44.9114 12.4019 44.7369 12.2273 44.5187 12.0527C44.4314 12.2709 44.3441 12.4019 44.2568 12.5764Z" fill="#98908F"/>
<path d="M45.2605 15.2371C45.4351 15.0189 45.6533 14.8007 45.8715 14.6261C46.0897 14.4952 46.3079 14.3642 46.5261 14.2769C46.3952 14.1024 46.3079 13.9278 46.177 13.7969C45.9588 13.9714 45.7842 14.1897 45.6533 14.4079C45.4351 14.6697 45.3478 14.9316 45.2605 15.2371Z" fill="#98908F"/>
<path d="M46.0024 16.4604C46.2643 16.2859 46.5262 16.1986 46.788 16.1113C46.9626 16.0677 47.1372 16.024 47.3117 16.024C47.2681 15.8494 47.2244 15.6749 47.1372 15.5439C46.9626 15.6312 46.788 15.7185 46.6571 15.8494C46.3952 16.024 46.177 16.1986 46.0024 16.4604Z" fill="#98908F"/>
<path d="M46.5698 17.5943C46.8316 17.507 47.1371 17.4634 47.399 17.4634C47.4426 17.4634 47.4426 17.4634 47.4863 17.4634C47.4863 17.3325 47.4863 17.2015 47.4863 17.1143C47.4426 17.1143 47.399 17.1579 47.3553 17.1579C47.0498 17.2452 46.788 17.4198 46.5698 17.5943Z" fill="#98908F"/>
<path d="M43.4273 31.3843C45.6531 30.555 49.2318 27.7619 50.1483 26.1471C50.4538 25.5798 50.7157 24.8815 50.4538 24.2268C50.192 23.4413 49.3628 23.0485 48.6208 22.9612C46.7442 22.743 45.2167 24.0086 43.9947 25.3615C43.5582 25.8416 41.5507 28.5038 41.3325 29.1585" fill="#E0DFE1"/>
<path d="M43.5148 31.6907C45.0859 31.0797 46.5261 30.0759 47.7918 29.0285C48.9265 28.112 50.4104 26.89 50.8031 25.3625C51.3269 23.3112 49.1011 22.3511 47.399 22.7002C45.7842 23.0494 44.3876 24.315 43.3838 25.5807C42.9038 26.1917 42.4237 26.8463 41.9873 27.4573C41.6381 27.9374 41.2453 28.4611 41.0271 29.0721C40.8962 29.4649 41.5072 29.5958 41.6381 29.2467C41.7691 28.8539 42.0746 28.4611 42.3364 28.1556C42.6856 27.6319 43.0783 27.1518 43.4275 26.6281C44.2131 25.5807 45.0859 24.5769 46.2643 23.8786C47.0062 23.4422 47.9227 23.1367 48.7956 23.3112C49.7121 23.4858 50.454 24.2277 50.2358 25.2315C49.9303 26.5408 48.621 27.5882 47.6172 28.4175C46.3516 29.4649 44.9113 30.5123 43.3402 31.1233C42.9911 31.2542 43.1656 31.8216 43.5148 31.6907Z" fill="#3A3A3A"/>
</svg>
