<svg width="70" height="59" viewBox="0 0 70 59" fill="none" xmlns="http://www.w3.org/2000/svg">
<path d="M29.5715 49.6562L30.9969 54.5955C31.2107 55.4545 31.4958 56.2777 31.8878 57.0651C32.2441 57.8167 33.6695 57.9241 34.3109 57.9957C34.9523 58.0673 36.0214 58.0315 36.2352 57.4588C36.4134 56.7072 36.5559 55.9556 36.5915 55.1681C36.8053 53.5217 36.6272 53.0564 36.5559 51.41" fill="#E1E0E1"/>
<path d="M29.1796 49.7615C29.6785 51.5153 30.1774 53.3049 30.6763 55.0586C30.8188 55.5955 30.997 56.1324 31.2464 56.6335C31.4958 57.1703 31.674 57.6714 32.2442 57.9577C33.2063 58.3872 34.2753 58.5304 35.3087 58.3872C35.8076 58.3872 36.3065 58.1009 36.5916 57.6714C36.8054 57.0988 36.9123 56.4903 36.9123 55.8818C37.0192 55.166 37.0548 54.4144 37.0905 53.6986C37.0905 52.9469 36.9836 52.1953 36.9479 51.4437C36.9123 50.9426 36.1283 50.9426 36.164 51.4437C36.2709 52.589 36.3065 53.7344 36.2352 54.9155C36.164 55.4881 36.1283 56.0608 36.0571 56.5977C36.0571 56.8482 35.9858 57.0988 35.9145 57.3135C35.8076 57.4925 35.6294 57.5998 35.4513 57.5998C34.5604 57.7788 33.6696 57.6714 32.8143 57.3493C32.3154 57.1345 32.1729 56.705 31.9591 56.2398C31.7809 55.7745 31.6028 55.3092 31.4958 54.8439C30.997 53.0901 30.4981 51.3721 29.9992 49.6183C29.9279 49.4036 29.6785 49.2962 29.4647 49.3678C29.2509 49.4036 29.144 49.5825 29.1796 49.7615Z" fill="#3A3B3A"/>
<path d="M37.7318 52.1266C37.6962 53.5583 37.6962 54.3815 37.8031 55.7773C37.8387 56.2784 37.91 57.3522 38.2663 57.5669C39.0147 57.889 39.8699 58.0322 40.6895 57.9248C41.616 57.7817 42.6494 57.1732 42.7563 56.7079C43.077 55.5626 43.3621 54.3815 43.5046 53.2004C43.7541 51.6255 43.7541 50.0149 43.5759 48.4043" fill="#E1E0E1"/>
<path d="M37.34 52.1245C37.2687 53.5204 37.3044 54.952 37.4469 56.3479C37.5182 56.8132 37.5538 57.4574 37.9102 57.8154C38.2665 58.1733 38.9079 58.2448 39.3712 58.3164C40.5828 58.4954 42.0438 58.2448 42.899 57.2785C43.291 56.849 43.3623 56.1689 43.4692 55.6321C43.5761 55.0952 43.7186 54.5225 43.7899 53.9857C44.1106 52.1245 44.1819 50.2633 43.968 48.4022C43.8968 47.9011 43.1128 47.9011 43.1841 48.4022C43.4335 50.9076 43.2554 53.4488 42.5783 55.8826C42.5427 56.1331 42.4714 56.3837 42.3645 56.6342C42.222 56.849 42.0438 56.9921 41.83 57.0995C40.8322 57.6364 39.6206 57.708 38.5516 57.3143C38.2665 57.1353 38.2309 56.5626 38.1952 56.2405C38.0883 54.8804 38.0527 53.4846 38.124 52.1245C38.0883 51.9097 37.9102 51.7308 37.6964 51.7666C37.4826 51.8024 37.34 51.9455 37.34 52.1245Z" fill="#3A3B3A"/>
<path d="M44.2885 47.3281C44.3241 52.0168 40.8676 53.8421 36.6271 53.8779C32.3866 53.9137 28.93 52.0884 28.8944 47.4355C28.8587 42.7826 32.2797 35.159 36.5202 35.1232C40.7607 35.0874 44.2529 42.6394 44.2885 47.3281Z" fill="#E1E0E1"/>
<path d="M36.556 54.2726C31.4603 54.2726 28.5383 51.7672 28.5383 47.4365C28.5383 45.0384 29.3935 41.853 30.7832 39.3476C32.4224 36.3769 34.4536 34.7305 36.5204 34.7305C36.5204 34.7305 36.5204 34.7305 36.556 34.7305C41.0104 34.7305 44.6451 42.3541 44.6807 47.3291C44.7163 51.7314 41.7587 54.2368 36.6273 54.2726C36.6273 54.2726 36.5917 54.2726 36.556 54.2726ZM36.556 35.5179C34.8099 35.5179 32.957 37.0569 31.4959 39.7413C30.1775 42.1393 29.3222 45.1458 29.3579 47.4365C29.3579 49.6913 30.32 53.4852 36.5917 53.4852C36.6273 53.4852 36.6629 53.4852 36.6986 53.4852C39.4068 53.4852 43.968 52.662 43.9324 47.3649C43.9324 45.0742 43.0415 42.0677 41.6874 39.7055C40.1551 37.0211 38.3021 35.5179 36.556 35.5179Z" fill="#3A3B3A"/>
<path d="M34.7386 36.7355C31.2465 36.3776 23.5494 37.6661 21.2688 38.9545C20.4848 39.384 19.6652 40.0641 19.5583 40.9589C19.4158 41.9968 20.2354 42.9632 21.1263 43.5001C23.4425 44.8244 26.3289 44.2875 28.8589 43.4643C29.7498 43.1779 31.6028 42.4621 32.3155 41.8895" fill="#E1E0E1"/>
<path d="M34.7386 36.3405C32.8143 36.1974 30.8544 36.3047 28.9658 36.6269C26.899 36.8774 24.9034 37.3069 22.9079 37.8796C21.2687 38.3807 18.8099 39.4544 19.1663 41.6019C19.3445 42.783 20.4135 43.642 21.4469 44.1073C22.6585 44.6084 23.9769 44.8231 25.2954 44.68C26.7208 44.5368 28.0749 44.2147 29.429 43.7136C30.4981 43.3199 31.7096 42.9262 32.6005 42.1746C32.9925 41.8524 32.4223 41.2798 32.0303 41.6019C31.282 42.2103 30.2843 42.5325 29.3934 42.8546C28.3956 43.2483 27.3266 43.5346 26.2932 43.7136C25.1172 43.9641 23.9057 43.9641 22.7297 43.7136C21.6607 43.4273 20.3422 42.8188 20.0215 41.6377C19.5226 39.8481 22.1239 38.9533 23.4424 38.5954C25.2598 38.0943 27.0771 37.7006 28.9301 37.4501C30.8544 37.128 32.8499 37.0206 34.8098 37.1637C35.2731 37.1995 35.2731 36.3763 34.7386 36.3405Z" fill="#3A3B3A"/>
<path d="M21.4112 27.3939C18.9881 34.3733 15.0327 41.7463 8.61844 39.5273C2.20422 37.3082 -1.21669 25.9265 1.17082 18.9471C3.55834 11.9678 9.01042 8.92551 15.4246 11.1446C21.8388 13.3637 23.7987 20.4146 21.4112 27.3939Z" fill="#E1E0E1"/>
<path d="M10.8991 40.3497C10.1151 40.3497 9.29552 40.2065 8.47593 39.9202C5.98151 39.0612 3.73654 36.7706 2.16862 33.5135C-0.0763545 28.8606 -0.646507 22.955 0.778874 18.839C3.27329 11.5733 8.93918 8.49526 15.5316 10.7859C18.2398 11.7165 20.3422 13.5419 21.5538 16.0831C23.0861 19.2685 23.193 23.4561 21.7676 27.5363C18.8456 36.0547 15.2109 40.3497 10.8991 40.3497ZM11.4336 10.8575C6.97928 10.8575 3.38019 13.7924 1.5272 19.0896C0.173087 23.0624 0.707605 28.7175 2.88131 33.1914C4.37796 36.2695 6.44476 38.3812 8.72537 39.1686C13.5717 40.8508 17.7409 36.8421 21.0193 27.2858C22.3734 23.3845 22.3021 19.4475 20.8411 16.4768C19.7008 14.1503 17.7765 12.4681 15.2821 11.5733C13.9636 11.0722 12.6452 10.8575 11.4336 10.8575Z" fill="#3A3B3A"/>
<path d="M11.6117 11.7879C8.0126 12.6827 5.80326 16.2976 4.66296 19.5904C2.70306 25.2455 4.52042 34.9808 9.90123 37.8441C10.4714 38.1304 11.0415 38.381 11.6473 38.5599C12.3956 38.7747 13.2152 38.7031 13.8923 38.3452C17.3845 36.4482 19.8076 31.4016 21.4824 26.5698C22.1595 24.637 22.5159 22.5969 22.4802 20.521C22.017 19.2325 21.4824 18.0156 20.8767 16.7987C19.1306 13.3985 15.5671 10.7857 11.6117 11.7879Z" fill="#F48DAC"/>
<path d="M47.9233 25.4248C50.5603 32.3325 54.8008 39.5624 61.1437 37.1286C67.4867 34.6948 70.5156 23.2057 67.8786 16.3337C65.2417 9.46174 59.7183 6.56262 53.3754 8.99645C47.0325 11.4303 45.322 18.5528 47.9233 25.4248Z" fill="#E1E0E1"/>
<path d="M58.685 38.0246C56.6182 38.0246 54.694 37.0225 52.8766 35.0539C50.988 32.978 49.2063 29.7926 47.5671 25.5692C44.6807 17.9814 46.9969 11.0378 53.233 8.63981C59.7541 6.1344 65.5269 9.03351 68.2707 16.1918C69.5892 19.592 69.5892 24.2091 68.2707 28.5041C66.9166 33.0496 64.3509 36.3066 61.2864 37.4878C60.4311 37.8457 59.5403 38.0246 58.685 38.0246ZM48.3154 25.2829C49.8833 29.4347 51.6294 32.5485 53.4468 34.5171C55.7986 37.0941 58.2931 37.8099 61.0013 36.7719C63.8164 35.6624 66.2039 32.5843 67.4868 28.2893C68.734 24.1733 68.734 19.7352 67.4868 16.4781C64.9211 9.74934 59.5403 7.06498 53.4824 9.39143C47.7452 11.6463 45.6072 18.1603 48.3154 25.2829Z" fill="#3A3B3A"/>
<path d="M57.5446 9.53298C61.1794 10.3204 63.4956 13.828 64.7428 17.085C66.8809 22.7043 65.4199 32.4753 60.1103 35.5176C59.5758 35.8397 58.97 36.0903 58.3999 36.2692C57.6515 36.5198 56.8319 36.4482 56.1193 36.1261C52.5558 34.3723 49.9545 29.3973 48.1371 24.6012C47.3888 22.7043 46.9968 20.6641 46.9612 18.624C47.3888 17.3355 47.852 16.0828 48.4578 14.8659C50.097 11.4299 53.5536 8.70977 57.5446 9.53298Z" fill="#F48DAC"/>
<path d="M54.4088 21.3089C55.5848 30.0062 48.2084 36.3413 37.6606 37.8804C27.0059 39.4552 17.0639 35.5181 16.1018 25.3175C15.4603 18.0519 21.8389 5.48904 31.4959 4.09317C42.9702 2.44676 53.0547 11.1799 54.4088 21.3089Z" fill="#E1E0E1"/>
<path d="M27.9465 16.1456C27.9882 14.9208 26.7305 13.8835 25.1374 13.8287C23.5442 13.7739 22.2189 14.7225 22.1771 15.9473C22.1354 17.1721 23.3931 18.2094 24.9862 18.2642C26.5794 18.319 27.9047 17.3704 27.9465 16.1456Z" fill="#F48DAC"/>
<path d="M45.6952 14.3487C45.737 13.1239 44.4793 12.0866 42.8861 12.0318C41.293 11.9771 39.9676 12.9256 39.9259 14.1504C39.8842 15.3752 41.1419 16.4126 42.735 16.4673C44.3282 16.5221 45.6535 15.5736 45.6952 14.3487Z" fill="#F48DAC"/>
<path d="M26.115 14.6871C25.9012 14.6871 25.7231 14.5439 25.7231 14.3292C25.6518 13.6849 25.8656 13.0407 26.222 12.6112C26.507 12.2891 26.8634 12.1101 27.2197 12.0743C28.1462 12.0027 28.9658 12.8975 29.0727 14.0429C29.1083 14.2576 28.9302 14.4724 28.7164 14.4724C28.5026 14.5081 28.2888 14.3292 28.2888 14.1144C28.2175 13.3986 27.7542 12.8259 27.291 12.8617C27.0772 12.8617 26.9346 13.0049 26.8277 13.1123C26.6139 13.3986 26.4714 13.7923 26.507 14.2576C26.5427 14.4724 26.3645 14.6513 26.115 14.6871C26.1507 14.6871 26.1507 14.6871 26.115 14.6871Z" fill="#010101"/>
<path d="M38.979 13.6135C38.7652 13.6135 38.587 13.4704 38.587 13.2556C38.5158 12.6114 38.7296 11.9313 39.0859 11.5018C39.371 11.1797 39.7273 11.0007 40.0837 10.9649C41.0102 10.8934 41.8298 11.7882 41.9367 12.9693C41.9723 13.184 41.7941 13.3988 41.5803 13.3988C41.3665 13.4346 41.1527 13.2556 41.1527 13.0409C41.0814 12.325 40.6182 11.7524 40.1549 11.7882C39.9411 11.7882 39.7986 11.9313 39.7273 12.0387C39.4779 12.325 39.371 12.7545 39.4066 13.184C39.4066 13.3988 39.2284 13.6135 38.979 13.6135C39.0146 13.6135 38.979 13.6135 38.979 13.6135Z" fill="#010101"/>
<path d="M33.2419 38.596C28.2531 38.596 23.87 37.3075 20.7342 34.8379C17.8122 32.5472 16.1017 29.2544 15.7454 25.3531C15.389 21.5592 16.8857 16.5484 19.6295 12.2892C22.7654 7.38578 26.9702 4.3435 31.4602 3.69926C36.841 2.91184 42.2575 4.3435 46.7118 7.7437C51.1661 11.1081 54.1237 16.0473 54.8364 21.2729C55.9767 29.7913 49.1349 36.6275 37.7319 38.3097C36.1996 38.4886 34.7029 38.596 33.2419 38.596ZM34.311 4.30771C33.3845 4.30771 32.4936 4.37929 31.5671 4.48667C22.3378 5.81096 15.8879 18.0159 16.5293 25.2815C16.8857 29.0397 18.4536 32.0461 21.2331 34.2294C25.0816 37.2717 31.0682 38.4528 37.625 37.4865C48.5291 35.8758 55.1215 29.4334 54.0168 21.3803C53.3398 16.3695 50.489 11.645 46.2129 8.38794C42.6851 5.70358 38.5515 4.30771 34.311 4.30771Z" fill="#3A3B3A"/>
<path d="M34.1683 14.2579C34.9879 13.9358 35.8788 13.9 36.734 14.1863C38.4801 14.7948 39.4779 16.5844 39.6561 18.3382C39.9055 20.8794 39.371 22.9911 38.3732 25.3175C37.8743 26.606 37.126 27.7871 36.1639 28.7893C35.7006 29.2546 35.1661 29.6483 34.596 30.0062C33.9902 30.3641 33.2775 30.5073 32.743 30.9368C32.351 31.2231 32.1015 31.6168 31.6739 31.7958C31.4245 31.9031 31.1394 31.9389 30.89 31.8673C30.8543 31.8673 30.7831 31.8316 30.7474 31.7958C30.7118 31.76 30.6762 31.7242 30.6405 31.6526C30.2842 30.9726 30.9969 30.3999 30.7118 29.7556C30.4624 29.2546 29.6784 29.3977 29.429 28.8967C29.1795 28.3956 29.6784 27.6797 30.2485 27.6797C30.8187 27.6797 31.3532 28.0377 31.959 28.1092C33.2775 28.2524 34.0614 26.785 34.2396 25.6754C34.4534 24.208 34.0614 22.7405 33.1706 21.5952C32.743 21.1299 32.3153 20.6288 31.959 20.1277C31.3532 19.054 31.2819 17.7655 31.7808 16.6202C32.2084 15.5464 33.0637 14.6874 34.1683 14.2579Z" fill="#E1E0E1"/>
<path d="M31.1395 32.297C31.0326 32.297 30.8901 32.297 30.7832 32.2612C30.7119 32.2612 30.605 32.2254 30.4981 32.1538L30.4268 32.118C30.3555 32.0465 30.2843 31.9749 30.2486 31.8675C29.9992 31.3664 30.1417 30.9011 30.2486 30.579C30.3199 30.2927 30.3912 30.1137 30.3199 29.9705C30.2843 29.8632 30.1417 29.8274 29.9279 29.7558C29.6429 29.6484 29.2509 29.541 29.0727 29.1473C28.8945 28.8252 28.9302 28.3957 29.144 28.002C29.3934 27.6083 29.821 27.322 30.213 27.322C30.5693 27.322 30.9257 27.4293 31.2464 27.5367C31.4958 27.6083 31.7097 27.7157 31.9591 27.7157C33.0638 27.8231 33.6696 26.4988 33.7765 25.6398C33.9903 24.3155 33.5983 22.9196 32.7787 21.8459C32.3511 21.3806 31.9235 20.8795 31.5671 20.3784L31.5315 20.3426C30.8544 19.1615 30.7832 17.7298 31.3533 16.4771C31.8878 15.296 32.8143 14.4012 34.0259 13.9359C34.9168 13.578 35.9145 13.5422 36.841 13.8644C38.5871 14.437 39.8343 16.2266 40.0125 18.3741C40.2263 20.7721 39.8343 22.9196 38.7297 25.5324C38.1951 26.8567 37.4112 28.0736 36.4134 29.1116C35.9145 29.6126 35.3444 30.0421 34.7742 30.4C34.4891 30.579 34.1684 30.6864 33.8834 30.8295C33.527 30.9727 33.2063 31.1159 32.9569 31.2948C32.85 31.4022 32.7074 31.5096 32.6005 31.617C32.3867 31.8317 32.1373 32.0465 31.8166 32.1896C31.6028 32.2612 31.3533 32.297 31.1395 32.297ZM30.9613 31.5096C31.1395 31.5454 31.3177 31.5096 31.4602 31.438C31.6384 31.3664 31.8166 31.1875 31.9947 31.0085C32.1373 30.8653 32.2798 30.7222 32.458 30.6148C32.8143 30.3643 33.2063 30.1853 33.5626 30.0421C33.8477 29.9348 34.0972 29.8274 34.3466 29.6842C34.8811 29.3621 35.38 28.9684 35.8433 28.5389C36.7698 27.5725 37.4824 26.463 37.9813 25.2103C39.0504 22.7049 39.4423 20.6648 39.2285 18.4099C39.086 17.014 38.3377 15.1887 36.5916 14.5802C35.8433 14.3297 35.0593 14.3654 34.311 14.6518C33.3132 15.0455 32.5292 15.7971 32.066 16.7993C31.6027 17.8014 31.674 18.9468 32.2085 19.9131C32.5649 20.4142 32.9569 20.8795 33.3845 21.3448C34.3822 22.5975 34.7742 24.2081 34.5604 25.7829C34.3466 27.2504 33.3132 28.7178 31.8522 28.5747C31.5315 28.5389 31.2464 28.4315 30.9613 28.3599C30.6763 28.2526 30.4268 28.181 30.213 28.181C30.0705 28.181 29.9279 28.2883 29.821 28.4673C29.7498 28.5747 29.7141 28.7178 29.7498 28.8252C29.7854 28.9326 29.9279 28.9684 30.1774 29.04C30.4624 29.1473 30.8544 29.2905 31.0326 29.6842C31.2464 30.1495 31.1039 30.5432 31.0326 30.8653C30.9257 31.1159 30.8901 31.2948 30.9613 31.5096Z" fill="#3A3B3A"/>
<path d="M34.3822 29.9355C34.881 29.6491 35.3799 29.2912 35.8075 28.8617C36.6984 27.9669 37.3755 26.8932 37.8743 25.7121C38.8365 23.6004 39.3354 21.6676 39.1928 19.3412C39.1572 18.8043 39.0503 18.2674 38.8721 17.7663C38.6583 17.5158 38.4445 17.2653 38.1594 17.0863C37.3042 16.5852 36.2708 16.4778 35.3799 16.8358C34.4891 17.1579 33.6338 17.9095 33.4557 18.9117C33.2419 20.057 33.812 21.1665 34.2396 22.1687C34.7029 23.1709 34.9167 24.2088 34.9167 25.3183C34.9167 26.3921 34.4534 27.43 33.6338 28.1459C33.0637 28.5754 31.8165 28.647 31.1394 28.5396C30.9613 28.5038 30.8187 28.647 30.7831 28.8259C30.7831 28.8975 30.7831 29.0049 30.8543 29.0407C31.1394 29.4344 31.5314 29.8639 31.3889 30.2934C31.1394 30.9734 31.3889 31.4029 32.0659 31.2955C32.2797 31.1166 32.4935 30.9018 32.7073 30.7229C33.2062 30.4007 33.8476 30.2934 34.3822 29.9355Z" fill="#E1E0E1"/>
<path d="M36.3422 18.8034C36.0215 18.9823 35.7008 19.2329 35.4514 19.5192C35.7721 19.3403 36.1284 19.2329 36.4848 19.1971C36.8411 19.1613 37.1974 19.1255 37.5182 19.1613C38.1239 19.2329 38.7297 19.3403 39.2999 19.5192C39.2999 19.4118 39.2999 19.2687 39.2999 19.1613C39.2643 18.8034 39.2286 18.4097 39.1217 18.0518C38.5516 18.1233 37.9814 18.2307 37.4469 18.3739C37.0549 18.4455 36.6986 18.5886 36.3422 18.8034Z" fill="#98908F"/>
<path d="M37.732 21.2358C37.34 21.2716 36.948 21.3432 36.5561 21.4864C36.1997 21.5937 35.8434 21.7727 35.5583 22.0232C35.9146 21.9159 36.271 21.8801 36.6273 21.8801C36.9837 21.8801 37.3044 21.9517 37.6607 22.059C38.124 22.2022 38.5872 22.3812 39.0148 22.5959C39.1217 22.1664 39.193 21.7011 39.2643 21.2358C38.7298 21.2 38.2309 21.2 37.732 21.2358Z" fill="#98908F"/>
<path d="M37.732 24.3501C37.34 24.3143 36.948 24.3143 36.556 24.3501C36.164 24.3859 35.8077 24.4933 35.4514 24.6722C35.8077 24.6364 36.164 24.6722 36.5204 24.7796C36.8411 24.8512 37.1618 24.9943 37.4825 25.1375C37.6607 25.2449 37.8389 25.3522 38.017 25.4596C38.1596 25.1375 38.3021 24.8154 38.409 24.4933C38.1952 24.4217 37.9458 24.3859 37.732 24.3501Z" fill="#98908F"/>
<path d="M34.988 26.7133C35.3444 26.8206 35.6651 26.9638 35.9858 27.1785C36.2352 27.3575 36.4847 27.5723 36.6985 27.787C36.841 27.5723 36.9836 27.3575 37.1261 27.1428C36.8054 26.9996 36.4847 26.8564 36.1283 26.7848C35.772 26.7133 35.38 26.6775 34.988 26.7133Z" fill="#98908F"/>
<path d="M33.8477 28.1807C34.1328 28.3954 34.3822 28.646 34.596 28.9681C34.7029 29.147 34.8098 29.3618 34.9168 29.5407C35.0949 29.3976 35.2731 29.2902 35.4513 29.147C35.2731 28.9681 35.0949 28.8249 34.8811 28.6817C34.5604 28.467 34.2041 28.288 33.8477 28.1807Z" fill="#98908F"/>
<path d="M32.7074 29.3613C32.9212 29.6477 33.135 29.9698 33.2419 30.2919C33.2419 30.3277 33.2775 30.3635 33.2775 30.3993C33.4201 30.3277 33.5626 30.2919 33.7052 30.2203L33.5983 30.0772C33.3488 29.7908 33.0637 29.5403 32.7074 29.3613Z" fill="#98908F"/>
<path d="M41.9722 41.1015C44.823 40.0278 49.3842 36.4486 50.5601 34.3727C50.9521 33.6569 51.2728 32.7621 50.9877 31.9031C50.6314 30.9009 49.5624 30.3998 48.6359 30.2925C46.2483 30.0419 44.2885 31.6525 42.7205 33.3705C42.186 33.979 39.5847 37.415 39.2996 38.2382" fill="#E1E0E1"/>
<path d="M42.0792 41.4945C44.0748 40.7429 45.8565 39.4544 47.5313 38.1301C48.9923 36.949 50.8453 35.4457 51.3798 33.5488C51.7362 32.4034 51.3086 31.1149 50.2752 30.4707C49.2774 29.898 48.1015 29.7191 46.9968 30.0054C44.93 30.4349 43.1839 32.0813 41.9367 33.6919C41.3309 34.4793 40.7251 35.2668 40.155 36.09C39.6561 36.7342 39.2285 37.4143 38.9077 38.1301C38.7296 38.6312 39.5135 38.8101 39.6917 38.3448C39.9412 37.808 40.2262 37.3069 40.6182 36.8774C41.0815 36.1973 41.5803 35.5531 42.0436 34.8731C43.077 33.4772 44.2529 32.1529 45.8208 31.2939C46.783 30.7212 47.9233 30.5423 48.9923 30.757C50.1326 31.0434 50.9522 31.9382 50.6671 33.1551C50.4177 33.9783 49.9544 34.7299 49.3487 35.3383C48.7072 36.0184 48.0302 36.6626 47.3175 37.2353C45.7139 38.5954 43.8609 39.9197 41.901 40.6713C41.3665 40.886 41.5803 41.6734 42.0792 41.4945Z" fill="#3A3B3A"/>
<path d="M13.3576 0.907906C13.5358 1.05107 13.6071 1.23003 13.6427 1.44478L14.5336 7.09984C14.5692 7.35038 14.5336 7.52934 14.4267 7.70829C14.3197 7.88725 14.1416 7.99463 13.8921 8.03042C13.6427 8.06621 13.4645 8.03042 13.2863 7.92304C13.1438 7.81567 13.0369 7.63671 13.0013 7.38617L12.6449 5.1313L9.40219 5.63239L9.75853 7.88725C9.79416 8.13779 9.75853 8.31675 9.65163 8.49571C9.54472 8.67466 9.36655 8.74625 9.11711 8.78204C8.86767 8.81783 8.6895 8.78204 8.51132 8.67466C8.33315 8.56729 8.26188 8.38833 8.22625 8.13779L7.33538 2.44694C7.29975 2.1964 7.33538 2.01744 7.44229 1.83849C7.54919 1.65953 7.72736 1.58794 7.97681 1.55215C8.22625 1.51636 8.40442 1.55215 8.58259 1.65953C8.72513 1.7669 8.83203 1.94586 8.86767 2.1964L9.18838 4.34389L12.4311 3.84281L12.1104 1.69532C12.0748 1.44478 12.1104 1.26582 12.2173 1.08686C12.3242 0.907906 12.5024 0.836323 12.7518 0.800531C13.0013 0.76474 13.1794 0.800531 13.3576 0.907906Z" fill="#00A14B"/>
<path d="M15.1037 1.55089C14.9255 1.44352 14.8186 1.26456 14.783 1.01402C14.7474 0.763479 14.783 0.584522 14.9255 0.441356C15.0681 0.298189 15.2462 0.190815 15.5313 0.155023C15.7808 0.119232 15.9946 0.155023 16.1727 0.262398C16.3865 0.333981 16.4934 0.512939 16.5291 0.763479C16.5647 1.01402 16.5291 1.19298 16.3865 1.37194C16.244 1.55089 16.0658 1.62248 15.7808 1.69406C15.5313 1.69406 15.2819 1.65827 15.1037 1.55089ZM16.1371 7.45649C15.9589 7.34912 15.8877 7.20595 15.852 6.95541L15.2462 3.30468C15.2106 3.05414 15.2462 2.87518 15.3888 2.73201C15.5313 2.58885 15.6739 2.48147 15.8877 2.48147C16.1015 2.48147 16.2796 2.48147 16.4578 2.58885C16.636 2.69622 16.7073 2.83939 16.7429 3.08993L17.313 6.77645C17.3487 7.027 17.313 7.20595 17.1705 7.34912C17.0636 7.49229 16.8854 7.56387 16.6716 7.59966C16.4934 7.59966 16.2796 7.56387 16.1371 7.45649Z" fill="#00A14B"/>
<path d="M18.7028 6.99106C18.5247 6.84789 18.4177 6.66893 18.3821 6.41839C18.3465 6.16785 18.3821 5.9531 18.5247 5.77414C18.6672 5.59519 18.8454 5.45202 19.0948 5.41623C19.3442 5.38044 19.5581 5.41623 19.7362 5.5594C19.9144 5.70256 20.0213 5.88152 20.0569 6.13206C20.0926 6.3826 20.0569 6.59735 19.9144 6.77631C19.7719 6.95526 19.5937 7.09843 19.3442 7.13422C19.0948 7.17001 18.881 7.13422 18.7028 6.99106Z" fill="#00A14B"/>
<path d="M21.3043 6.59848C21.1261 6.45531 21.0192 6.27635 20.9836 6.02581C20.9479 5.77527 20.9836 5.56052 21.1261 5.38157C21.2686 5.20261 21.4468 5.05944 21.6962 5.02365C21.9457 4.98786 22.1595 5.02365 22.3377 5.16682C22.5158 5.30998 22.6227 5.48894 22.6584 5.73948C22.694 5.99002 22.6584 6.20477 22.5158 6.38373C22.3733 6.56269 22.1951 6.70585 21.9457 6.74164C21.6962 6.77744 21.4824 6.70585 21.3043 6.59848Z" fill="#00A14B"/>
<path d="M8.93924 8.92367C8.76107 8.92367 8.5829 8.85209 8.44036 8.74471C8.26219 8.60155 8.11965 8.3868 8.08401 8.10046L7.19315 2.4812C7.15752 2.19486 7.19315 1.98011 7.33569 1.80116C7.47823 1.6222 7.69203 1.47903 7.94147 1.44324C8.22655 1.40745 8.44036 1.44324 8.61853 1.58641C8.7967 1.72957 8.93924 1.94432 8.97488 2.19486L9.29559 4.19919L12.2889 3.7339L11.9682 1.72957C11.9325 1.44324 11.9682 1.22849 12.1107 1.04954C12.2533 0.870578 12.4671 0.727412 12.7165 0.69162C13.0016 0.655829 13.2154 0.69162 13.3936 0.834786C13.5717 0.977952 13.7143 1.1927 13.7499 1.44324L14.6408 7.0983C14.6764 7.38463 14.6408 7.59938 14.4982 7.81413C14.3557 7.99309 14.1419 8.13626 13.8924 8.17205C13.6074 8.20784 13.3936 8.17205 13.2154 8.02888C13.0372 7.88572 12.8947 7.67097 12.859 7.38463L12.5383 5.27293L9.54503 5.70243L9.86574 7.81413C9.90137 8.10046 9.86574 8.31521 9.7232 8.52996C9.58066 8.70892 9.36686 8.85209 9.11741 8.88788C9.08178 8.88788 9.01051 8.92367 8.93924 8.92367ZM8.15528 1.65799C8.11965 1.65799 8.04838 1.65799 8.01274 1.65799C7.79894 1.69378 7.6564 1.76537 7.58513 1.90853C7.51386 2.0517 7.44259 2.19486 7.47823 2.40961L8.36909 8.06467C8.40472 8.27942 8.47599 8.42259 8.61853 8.52996C8.76107 8.63734 8.90361 8.67313 9.11741 8.63734C9.29559 8.60155 9.43812 8.52996 9.54503 8.3868C9.65193 8.24363 9.68757 8.10046 9.65193 7.88572L9.29559 5.48768L12.8234 4.91502L13.1797 7.31305C13.2154 7.5278 13.2867 7.67097 13.4292 7.77834C13.5717 7.88572 13.7143 7.92151 13.9281 7.88572C14.1419 7.84992 14.2844 7.77834 14.3557 7.63517C14.4626 7.49201 14.4982 7.34884 14.4626 7.13409L13.5361 1.47903C13.5005 1.26428 13.4292 1.12112 13.2867 1.04954C13.1441 0.942161 13.0016 0.906369 12.7878 0.942161C12.574 0.977952 12.4314 1.04954 12.3602 1.1927C12.2533 1.33587 12.2176 1.47903 12.2533 1.69378L12.6096 3.98444L9.08178 4.5571L8.72543 2.26645C8.6898 2.0517 8.61853 1.90853 8.47599 1.83695C8.40472 1.69378 8.26219 1.65799 8.15528 1.65799Z" fill="#F9F8F7"/>
<path d="M16.5293 7.70809C16.3512 7.70809 16.2086 7.67229 16.0661 7.56492C15.8523 7.45755 15.7454 7.2428 15.7097 6.95646L15.1396 3.30573C15.104 3.0194 15.1396 2.80465 15.3178 2.62569C15.4603 2.44673 15.6741 2.33936 15.9236 2.30357C16.173 2.26778 16.3868 2.30357 16.565 2.41094C16.7788 2.51832 16.8857 2.73306 16.9213 3.0194L17.4915 6.70592C17.5271 6.99226 17.4915 7.207 17.3133 7.38596C17.1708 7.56492 16.957 7.67229 16.7432 7.70809C16.6719 7.70809 16.6006 7.70809 16.5293 7.70809ZM16.2086 7.35017C16.3512 7.42175 16.4937 7.45754 16.7075 7.42175C16.8857 7.38596 17.0282 7.31438 17.1351 7.207C17.242 7.09963 17.2777 6.95646 17.242 6.74171L16.6362 3.05519C16.6006 2.87623 16.5293 2.73306 16.3868 2.66148C16.2443 2.5899 16.1017 2.55411 15.9236 2.5899C15.7454 2.62569 15.6028 2.69727 15.4959 2.80465C15.389 2.91202 15.3534 3.05519 15.389 3.26994L15.9592 6.95646C15.9948 7.13542 16.0661 7.27859 16.2086 7.35017ZM15.5672 1.80249C15.3534 1.80249 15.1752 1.76669 15.0327 1.65932C14.8189 1.51615 14.712 1.3014 14.6407 1.05086C14.6051 0.764531 14.6407 0.549782 14.8189 0.370824C14.9614 0.191867 15.2109 0.0844923 15.4959 0.0129093C15.781 -0.0228822 16.0305 0.0129093 16.2443 0.156075C16.4581 0.299241 16.6006 0.478199 16.6362 0.764531C16.6719 1.05086 16.6362 1.26561 16.4581 1.48036C16.3155 1.65932 16.0661 1.80249 15.781 1.83828C15.7097 1.80249 15.6385 1.80249 15.5672 1.80249ZM15.7454 0.227658C15.6741 0.227658 15.6385 0.227658 15.5672 0.227658C15.3178 0.26345 15.1752 0.335033 15.0327 0.478199C14.9258 0.621365 14.8902 0.764531 14.9258 0.97928C14.9614 1.19403 15.0327 1.3014 15.1752 1.40878C15.3178 1.51615 15.4959 1.51615 15.7454 1.48036C15.9948 1.44457 16.1374 1.37299 16.2799 1.22982C16.3868 1.12245 16.4224 0.97928 16.3868 0.764531C16.3512 0.585574 16.2799 0.442408 16.1374 0.335033C16.0305 0.26345 15.8879 0.227658 15.7454 0.227658Z" fill="#F9F8F7"/>
<path d="M19.2021 7.27852C18.9883 7.27852 18.8101 7.20693 18.6319 7.09956C18.4181 6.95639 18.2756 6.70585 18.24 6.41952C18.2043 6.13319 18.24 5.88265 18.4181 5.6679C18.5607 5.45315 18.8101 5.30998 19.0952 5.27419C19.3803 5.2384 19.6297 5.27419 19.8435 5.45315C20.0573 5.59631 20.1999 5.84686 20.2355 6.13319C20.2711 6.41952 20.2355 6.67006 20.0573 6.88481C19.9148 7.09956 19.6653 7.24272 19.3803 7.27852C19.309 7.27852 19.2377 7.27852 19.2021 7.27852ZM19.2377 5.52473C19.2021 5.52473 19.1308 5.52473 19.0952 5.52473C18.8814 5.56052 18.7388 5.6679 18.5963 5.81106C18.4894 5.99002 18.4538 6.16898 18.4894 6.38373C18.525 6.59848 18.6319 6.77743 18.7745 6.88481C18.917 6.99218 19.0952 7.02798 19.309 7.02798C19.5228 6.99218 19.6653 6.88481 19.8079 6.74164C19.9148 6.56269 19.9504 6.38373 19.9148 6.16898C19.8791 5.95423 19.7722 5.77527 19.6297 5.6679C19.5228 5.59631 19.3803 5.52473 19.2377 5.52473Z" fill="#F9F8F7"/>
<path d="M21.8032 6.88594C21.5894 6.88594 21.4112 6.81435 21.2331 6.70698C21.0193 6.56381 20.8767 6.31327 20.8411 6.02694C20.8055 5.74061 20.8411 5.49007 21.0193 5.27532C21.1618 5.06057 21.4112 4.9174 21.6963 4.88161C21.9814 4.84582 22.2308 4.88161 22.4446 5.06057C22.6585 5.20374 22.801 5.45428 22.8366 5.74061C22.8723 6.02694 22.8366 6.27748 22.6585 6.49223C22.5159 6.70698 22.2665 6.85015 21.9814 6.88594C21.9101 6.88594 21.8389 6.88594 21.8032 6.88594ZM21.8389 5.13215C21.8032 5.13215 21.732 5.13215 21.6963 5.13215C21.4825 5.16794 21.34 5.27532 21.1974 5.41849C21.0905 5.59744 21.0549 5.7764 21.0905 5.99115C21.1262 6.2059 21.2331 6.38486 21.3756 6.49223C21.5181 6.59961 21.6963 6.6354 21.9101 6.6354C22.1239 6.59961 22.2665 6.49223 22.409 6.34906C22.5159 6.17011 22.5515 5.99115 22.5159 5.7764C22.4803 5.56165 22.3734 5.38269 22.2308 5.27532C22.1239 5.16795 21.9814 5.13215 21.8389 5.13215Z" fill="#F9F8F7"/>
</svg>
