<svg width="53" height="66" viewBox="0 0 53 66" fill="none" xmlns="http://www.w3.org/2000/svg">
<path d="M32.5084 55.4424C31.7908 55.8956 31.3754 56.6509 31.111 57.444C30.8466 58.2371 30.7333 59.0679 30.5067 59.861C30.2801 60.6541 29.9403 61.4472 29.2982 62.0137C28.6562 62.5424 27.7121 62.769 26.9945 62.3536C26.5035 62.0515 26.2014 61.5605 25.8237 61.1073C25.4838 60.6541 24.9551 60.2387 24.3886 60.3142C23.7466 60.3898 23.2934 61.1073 23.3312 61.7493C23.3689 62.4291 23.7466 62.9956 24.1998 63.4866C25.0684 64.393 26.2392 65.1105 27.4855 65.2994C28.7317 65.4882 30.0913 65.1483 31.0355 64.3174C32.1685 63.3355 32.6217 61.8249 33.1126 60.4275C33.6036 59.0302 33.528 57.1419 34.8876 56.5376" fill="#EB9458"/>
<path d="M27.4475 65.2984C28.2784 65.4117 29.1093 65.3362 29.8646 64.9963C30.3555 63.9011 30.3178 62.617 29.7135 61.5596C29.6002 61.7484 29.4492 61.8995 29.2603 62.0505C28.9204 62.3527 28.4672 62.5415 28.014 62.617C28.505 63.4856 28.2784 64.5431 27.2587 65.1474C27.1832 65.1851 27.1454 65.2229 27.0699 65.2607C27.2209 65.2607 27.3342 65.2607 27.4475 65.2984Z" fill="#010101"/>
<path d="M32.7347 61.3326C32.2437 60.5395 31.5262 59.8975 30.5065 59.7842C30.5065 59.8219 30.4687 59.8597 30.4687 59.8975C30.2799 60.5395 30.0155 61.1438 29.6001 61.6725C29.7134 61.7103 29.8645 61.748 30.0155 61.748C31.073 61.7103 31.4129 62.9565 31.4506 63.7874C32.0549 63.0698 32.4326 62.2012 32.7347 61.3326Z" fill="#010101"/>
<path d="M32.2816 55.065C31.1864 55.7825 30.7332 56.991 30.431 58.1996C30.1289 59.3703 29.9778 60.881 28.9581 61.7118C28.5427 62.0517 27.9007 62.2783 27.3342 62.0517C26.8055 61.8251 26.4656 61.2586 26.1257 60.8054C25.4459 59.9746 24.2751 59.4458 23.4065 60.3145C22.5379 61.1831 22.8023 62.5049 23.4821 63.3735C24.1996 64.3177 25.2193 65.0352 26.3145 65.4507C28.5805 66.3193 31.1108 65.4507 32.3193 63.3735C32.9614 62.3161 33.4146 60.9943 33.7544 59.7857C34.0188 58.8038 34.0566 57.4065 35.114 56.9155C35.6428 56.6511 35.1896 55.8581 34.6608 56.1224C33.8677 56.5001 33.4523 57.2932 33.2257 58.0863C32.9614 58.9926 32.7725 59.9368 32.4704 60.8432C32.0927 61.8629 31.7151 62.9581 30.922 63.7889C30.1289 64.582 29.0337 64.9597 27.9385 64.8842C26.8055 64.8086 25.7103 64.2799 24.8794 63.5246C24.5017 63.1847 24.1241 62.7693 23.9352 62.2783C23.7464 61.8251 23.7842 61.1076 24.3129 60.881C24.8039 60.6921 25.2571 61.1831 25.5214 61.523C25.8991 61.9762 26.1635 62.4294 26.6544 62.7693C27.4853 63.298 28.6182 63.1847 29.4113 62.6182C30.431 61.9006 30.8465 60.6921 31.1486 59.5591C31.4507 58.2751 31.6395 56.7267 32.8103 55.9336C33.2257 55.5182 32.7725 54.7251 32.2816 55.065Z" fill="#553818"/>
<path d="M33.2635 40.6756C33.4901 40.5623 33.7167 40.5245 33.9433 40.449C35.0385 40.1846 36.247 40.449 37.2289 41.0532C40.3635 42.9415 43.2715 46.3405 44.5178 49.2107C46.5949 54.0826 43.838 57.4815 39.4194 59.4076C38.7396 59.7097 38.0598 59.9363 37.38 60.1252C34.6986 60.8427 31.8661 59.4831 30.7709 56.9528C30.7709 56.9528 30.7709 56.915 30.7331 56.915C28.656 52.0054 28.8448 42.6017 33.2635 40.6756Z" fill="#EB9458"/>
<path d="M30.3934 53.8546C32.3195 53.9301 34.2078 53.628 36.0961 53.2881C37.2669 53.0615 36.7759 51.2865 35.6052 51.5131C33.8679 51.853 32.1307 52.0796 30.3934 52.0418C29.1849 51.9663 29.1849 53.7791 30.3934 53.8546Z" fill="#010101"/>
<path d="M31.2997 57.3673C33.1502 57.0652 34.8119 56.2343 36.4737 55.3657C37.5311 54.7992 36.587 53.213 35.5295 53.7795C34.0189 54.6104 32.5082 55.3279 30.771 55.6301C29.638 55.7434 30.1289 57.5561 31.2997 57.3673Z" fill="#010101"/>
<path d="M30.3178 50.796C31.9418 50.6827 33.5279 50.796 35.1519 50.8338C36.3604 50.8715 36.3604 49.021 35.1519 48.9832C33.5279 48.9077 31.9418 48.8322 30.3178 48.9455C29.1471 49.021 29.1093 50.8715 30.3178 50.796Z" fill="#010101"/>
<path d="M44.4801 49.2093C43.6114 47.1699 41.8742 44.8662 39.7971 43.0156C37.7954 44.2241 37.0779 47.321 38.2486 50.3045C39.4949 53.5146 42.4029 55.3652 44.7822 54.4965C45.3865 52.9859 45.3487 51.2109 44.4801 49.2093Z" fill="#FCD3B2"/>
<path d="M35.9449 60.7666C33.6412 60.7666 31.4885 59.4825 30.4688 57.3676H30.4311L30.3178 57.1033C28.3539 52.6469 28.1651 42.45 33.0747 40.2596C33.2635 40.184 33.4524 40.1085 33.6034 40.0707C33.6789 40.0707 33.7545 40.033 33.7922 39.9952H33.83C35.0008 39.7308 36.3226 39.9574 37.4556 40.6372C40.5146 42.4878 43.5737 45.9245 44.9333 49.0213C46.8593 53.5533 44.9333 57.5187 39.6082 59.8224C38.9662 60.0868 38.2864 60.3512 37.4933 60.5778C37.0024 60.6911 36.4736 60.7666 35.9449 60.7666ZM31.2241 56.8012C32.2438 59.1049 34.8119 60.3134 37.2667 59.6714C37.9843 59.4825 38.6641 59.256 39.2306 58.9916C42.063 57.7453 46.4439 54.8751 44.1024 49.399C42.8184 46.491 39.9104 43.2053 37.0024 41.4681C36.0582 40.9016 35.0008 40.675 34.0944 40.9016C34.0188 40.9394 33.9433 40.9394 33.8678 40.9771C33.7167 41.0149 33.6034 41.0527 33.4901 41.0904H33.4524C29.5247 42.8277 29.147 52.0048 31.1108 56.6123C31.1486 56.6501 31.1864 56.7256 31.2241 56.8012Z" fill="#553818"/>
<path d="M15.3598 22.1552C16.8749 18.9725 15.2787 15.048 11.7947 13.3895C8.31072 11.7311 4.25821 12.9667 2.74319 16.1494C1.22817 19.332 2.82433 23.2566 6.30833 24.915C9.79232 26.5735 13.8448 25.3378 15.3598 22.1552Z" fill="#EB9458"/>
<path d="M9.50865 26.0984C8.37566 26.0984 7.20491 25.8341 6.10969 25.3054C2.40861 23.5304 0.709132 19.3383 2.33308 15.9393C3.12617 14.2776 4.56128 13.0691 6.41182 12.5026C8.2246 11.9361 10.2262 12.125 12.0012 12.9558C15.7023 14.7308 17.4018 18.9229 15.7778 22.3218C14.6448 24.7389 12.19 26.0984 9.50865 26.0984ZM3.16393 16.3548C1.76658 19.3005 3.27723 22.9639 6.52512 24.5123C9.77301 26.0607 13.5496 24.9277 14.947 21.9819C16.3443 19.0362 14.8337 15.3729 11.5858 13.8244C9.99961 13.0691 8.26236 12.9181 6.63842 13.409C5.09001 13.8622 3.84372 14.9197 3.16393 16.3548Z" fill="#553818"/>
<path d="M15.9926 22.4799C17.2387 19.8622 15.9283 16.6355 13.0658 15.2729C10.2032 13.9102 6.87256 14.9277 5.62647 17.5454C4.38039 20.1631 5.69077 23.3898 8.5533 24.7524C11.4158 26.115 14.7465 25.0976 15.9926 22.4799Z" fill="#FCD3B2"/>
<path d="M46.2307 14.5296C48.5104 11.4165 48.053 7.2045 45.2091 5.12197C42.3652 3.03943 38.2117 3.87492 35.932 6.9881C33.6523 10.1013 34.1097 14.3132 36.9536 16.3958C39.7975 18.4783 43.951 17.6428 46.2307 14.5296Z" fill="#EB9458"/>
<path d="M40.4769 18.0139C39.0796 18.0139 37.7578 17.5984 36.6625 16.7676C35.1897 15.6724 34.2455 14.0484 34.0567 12.1223C33.8678 10.234 34.3966 8.30797 35.5673 6.72179C36.7381 5.13561 38.3998 4.04039 40.2881 3.66273C42.1764 3.28506 44.0269 3.66273 45.4998 4.75795C48.5589 6.98615 49.0498 11.4803 46.6328 14.8037C45.4621 16.3899 43.8003 17.4851 41.912 17.8628C41.4211 17.9761 40.9679 18.0139 40.4769 18.0139ZM41.6477 4.45582C41.2322 4.45582 40.8546 4.49358 40.4392 4.56911C38.8152 4.90901 37.3423 5.85316 36.2849 7.28828C35.2652 8.68563 34.7742 10.3851 34.9631 12.0468C35.1519 13.7085 35.945 15.1059 37.1913 16.05C38.4753 16.9942 40.0615 17.2963 41.6854 16.9942C43.3094 16.6543 44.7823 15.7101 45.8397 14.275C47.9546 11.367 47.5392 7.43934 44.9333 5.51327C43.9892 4.79571 42.8562 4.45582 41.6477 4.45582Z" fill="#553818"/>
<path d="M44.56 14.818C46.3961 12.3106 46.0293 8.91944 43.7407 7.24355C41.4521 5.56766 38.1084 6.2417 36.2723 8.74907C34.4362 11.2564 34.803 14.6476 37.0916 16.3235C39.3802 17.9994 42.724 17.3254 44.56 14.818Z" fill="#FCD3B2"/>
<path d="M51.4291 23.9076C53.544 33.6513 45.7264 41.5066 33.8679 44.2258C21.8582 46.9827 10.1507 43.3949 8.18687 31.9518C6.75176 23.7565 12.9076 8.9522 23.7843 6.4974C36.6626 3.55164 48.9366 12.54 51.4291 23.9076Z" fill="#EB9458"/>
<path d="M49.5405 20.9604C49.5027 21.3003 49.7671 21.6024 50.107 21.7535C50.3336 21.8668 50.6357 21.9045 50.9 21.9423C50.7112 21.3758 50.5224 20.8471 50.2958 20.3184C49.9181 20.3939 49.5782 20.5827 49.5405 20.9604Z" fill="#010101"/>
<path d="M47.9923 23.0013C47.388 23.0768 46.6327 23.1524 46.5571 23.7188C46.5194 24.0587 46.7837 24.3986 47.0859 24.5497C47.388 24.7008 47.7657 24.7385 48.1055 24.7763C49.2008 24.8141 50.4093 25.0407 51.6556 25.3428C51.58 24.8518 51.5423 24.3986 51.429 23.9077C51.3534 23.6433 51.3157 23.3412 51.2401 23.0768C49.9561 22.9258 48.8231 22.8502 47.9923 23.0013Z" fill="#010101"/>
<path d="M47.5768 28.5505C47.4635 28.8904 47.6523 29.2303 47.9167 29.4569C48.1811 29.6835 48.521 29.759 48.8609 29.8723C49.4274 30.0234 50.2582 30.3255 51.2779 30.7409C51.4667 30.1367 51.58 29.4946 51.6556 28.8526C50.3715 28.4372 49.4274 28.1728 49.0875 28.0973C48.5587 27.984 47.7656 27.984 47.5768 28.5505Z" fill="#010101"/>
<path d="M16.8351 26.8522C17.0617 26.5878 17.2128 26.2102 17.0617 25.908C16.7974 25.3793 16.042 25.4548 15.4755 25.6437C14.7202 25.908 11.5479 27.041 7.99784 28.816C7.96008 29.949 8.03561 31.0065 8.18668 31.9506C8.22444 32.0639 8.22444 32.1772 8.26221 32.2905C11.8122 29.6846 15.1734 27.683 15.9665 27.3431C16.2686 27.2298 16.6085 27.1165 16.8351 26.8522Z" fill="#010101"/>
<path d="M20.2341 29.9105C20.5363 29.7594 20.8762 29.6084 21.1027 29.344C21.3293 29.0797 21.4426 28.702 21.2916 28.3999C21.0272 27.8711 20.2341 27.9844 19.7054 28.211C16.9485 29.2307 14.6825 30.7791 12.341 32.5919C11.1325 33.6116 10.1128 34.5557 9.16864 35.4244C9.5463 36.3308 9.96173 37.1238 10.4527 37.8792C14.0027 34.2536 18.7235 30.6281 20.2341 29.9105Z" fill="#010101"/>
<path d="M20.9895 34.6301C21.2539 34.4035 21.5182 34.2147 21.7071 33.9126C21.8959 33.6104 21.9337 33.195 21.7071 32.9307C21.3294 32.4775 20.6118 32.7418 20.1209 33.044C18.5725 34.0259 17.2506 35.1211 16.0799 36.3674C14.607 37.8403 13.4363 39.1621 12.4543 40.2951C13.0964 40.8993 13.8139 41.4658 14.5693 41.9568C17.3262 38.52 20.3852 35.0833 20.9895 34.6301Z" fill="#010101"/>
<path d="M26.3899 45.547C21.7069 45.547 17.4771 44.4518 14.267 42.2991C10.7547 39.9576 8.48875 36.4076 7.73342 31.9889C6.9781 27.7214 8.22438 21.9054 10.9813 16.8069C14.1159 10.991 18.6101 7.17657 23.6707 6.04359C29.7133 4.684 35.9825 5.77922 41.3453 9.17818C46.7459 12.6149 50.598 17.9399 51.8821 23.7937C53.9592 33.3485 46.7459 41.7326 33.9809 44.6784C31.375 45.2449 28.8069 45.547 26.3899 45.547ZM28.7692 6.38348C27.1452 6.38348 25.5213 6.57231 23.8973 6.94997C13.4739 9.29147 7.2047 23.7182 8.63981 31.8756C9.35737 36.0677 11.4345 39.3156 14.7579 41.5438C19.4409 44.6406 26.3521 45.4715 33.7543 43.772C45.9906 40.9773 52.9395 33.0086 50.9757 24.0203C49.7294 18.3931 46.0661 13.2947 40.8544 9.97127C37.1533 7.592 32.9612 6.38348 28.7692 6.38348Z" fill="#553818"/>
<path d="M31.262 7.29018C31.6019 7.29018 31.9418 7.29018 32.2439 7.17688C32.546 7.06358 32.7726 6.79922 32.6971 6.53486C32.5838 6.08166 31.8285 5.89283 31.262 5.89283C28.2784 5.77954 25.5593 6.1572 23.0289 6.91252C22.9156 7.70561 22.9156 8.46093 22.9912 9.29179C25.446 8.08327 28.2784 7.40348 31.262 7.29018Z" fill="#010101"/>
<path d="M24.5397 11.7852C24.2376 11.8985 23.9354 12.0495 23.6333 12.0495C23.2934 12.0495 22.9158 11.9362 22.7269 11.7096C22.4248 11.2942 22.9535 10.841 23.4067 10.6144C26.8434 8.83941 30.6956 8.12185 34.7366 8.15961C34.8876 8.34845 35.0009 8.57504 35.152 8.80164C35.4919 9.36813 35.794 9.97239 36.0584 10.5766C35.643 10.5011 35.1898 10.4634 34.7743 10.4256C31.1488 10.0479 27.5988 10.5389 24.5397 11.7852Z" fill="#010101"/>
<path d="M32.9614 12.1238C33.1502 12.0483 33.3013 11.8595 33.2258 11.6706C33.1125 11.3685 32.6215 11.293 32.2061 11.293C29.9401 11.3307 27.9007 11.8217 26.1257 12.6148C26.3523 13.068 26.6167 13.5212 26.9188 13.9744C28.4672 13.068 30.3555 12.4637 32.3194 12.2749C32.546 12.2371 32.7726 12.2371 32.9614 12.1238Z" fill="#010101"/>
<path d="M22.0201 27.8951C23.8207 27.6697 25.1418 26.3797 24.9709 25.0137C24.7999 23.6477 23.2016 22.723 21.4009 22.9484C19.6003 23.1737 18.2792 24.4638 18.4501 25.8298C18.6211 27.1958 20.2194 28.1205 22.0201 27.8951Z" fill="#F38FBB"/>
<path d="M43.3588 22.6812C45.1594 22.4559 46.4805 21.1658 46.3095 19.7998C46.1386 18.4338 44.5403 17.5091 42.7396 17.7345C40.939 17.9599 39.6179 19.2499 39.7888 20.616C39.9598 21.982 41.5581 22.9066 43.3588 22.6812Z" fill="#F38FBB"/>
<path d="M39.6837 19.0349C38.664 19.0349 37.7576 18.053 37.5688 16.7312C37.531 16.4668 37.7198 16.2402 37.9842 16.2025C38.2486 16.1647 38.4752 16.3535 38.5129 16.6179C38.6262 17.4865 39.2305 18.1663 39.797 18.0908C40.3257 18.0152 40.8167 17.2599 40.6656 16.3158C40.6278 16.0514 40.8167 15.8248 41.081 15.787C41.3454 15.7493 41.572 15.9381 41.6098 16.2025C41.7986 17.5998 41.0433 18.8839 39.948 19.0349C39.8347 19.0349 39.7592 19.0349 39.6837 19.0349Z" fill="#010101"/>
<path d="M23.7086 22.3211C22.6889 22.3211 21.7825 21.3391 21.5937 20.0173C21.5559 19.753 21.7447 19.5264 22.0091 19.4886C22.2735 19.4508 22.5001 19.6397 22.5378 19.904C22.6511 20.7726 23.2554 21.4524 23.8219 21.3769C24.3506 21.3014 24.8416 20.5461 24.6905 19.6019C24.6527 19.3375 24.8416 19.1109 25.1059 19.0732C25.3703 19.0354 25.5969 19.2242 25.6347 19.4886C25.8235 20.8859 25.0682 22.17 23.9729 22.3211C23.8596 22.3211 23.7841 22.3211 23.7086 22.3211Z" fill="#010101"/>
<path d="M29.6161 33.0744C32.5229 32.6285 34.5999 30.4455 34.2553 28.1984C33.9106 25.9512 31.2748 24.491 28.3679 24.9369C25.4611 25.3827 23.3841 27.5658 23.7287 29.8129C24.0734 32.06 26.7092 33.5202 29.6161 33.0744Z" fill="#FCD3B2"/>
<path d="M39.9311 30.7306C42.8379 30.2848 44.9149 28.1017 44.5703 25.8546C44.2256 23.6075 41.5898 22.1473 38.6829 22.5931C35.7761 23.039 33.6991 25.222 34.0437 27.4692C34.3884 29.7163 37.0242 31.1765 39.9311 30.7306Z" fill="#FCD3B2"/>
<path d="M26.5789 27.8351C26.8292 27.8351 27.0321 27.6322 27.0321 27.3819C27.0321 27.1316 26.8292 26.9287 26.5789 26.9287C26.3286 26.9287 26.1257 27.1316 26.1257 27.3819C26.1257 27.6322 26.3286 27.8351 26.5789 27.8351Z" fill="#837674"/>
<path d="M28.505 31.7638C28.7553 31.7638 28.9582 31.5609 28.9582 31.3106C28.9582 31.0603 28.7553 30.8574 28.505 30.8574C28.2547 30.8574 28.0518 31.0603 28.0518 31.3106C28.0518 31.5609 28.2547 31.7638 28.505 31.7638Z" fill="#837674"/>
<path d="M26.2768 31.4611C26.5271 31.4611 26.73 31.2582 26.73 31.0079C26.73 30.7576 26.5271 30.5547 26.2768 30.5547C26.0265 30.5547 25.8236 30.7576 25.8236 31.0079C25.8236 31.2582 26.0265 31.4611 26.2768 31.4611Z" fill="#837674"/>
<path d="M25.295 29.4601C25.5453 29.4601 25.7482 29.2572 25.7482 29.0069C25.7482 28.7566 25.5453 28.5537 25.295 28.5537C25.0447 28.5537 24.8418 28.7566 24.8418 29.0069C24.8418 29.2572 25.0447 29.4601 25.295 29.4601Z" fill="#837674"/>
<path d="M27.8251 29.3087C28.0754 29.3087 28.2783 29.1058 28.2783 28.8555C28.2783 28.6052 28.0754 28.4023 27.8251 28.4023C27.5748 28.4023 27.3719 28.6052 27.3719 28.8555C27.3719 29.1058 27.5748 29.3087 27.8251 29.3087Z" fill="#837674"/>
<path d="M40.7791 24.3986C41.0294 24.3986 41.2323 24.1957 41.2323 23.9454C41.2323 23.6951 41.0294 23.4922 40.7791 23.4922C40.5288 23.4922 40.3259 23.6951 40.3259 23.9454C40.3259 24.1957 40.5288 24.3986 40.7791 24.3986Z" fill="#837674"/>
<path d="M41.0056 28.4777C41.2559 28.4777 41.4588 28.2748 41.4588 28.0245C41.4588 27.7742 41.2559 27.5713 41.0056 27.5713C40.7553 27.5713 40.5524 27.7742 40.5524 28.0245C40.5524 28.2748 40.7553 28.4777 41.0056 28.4777Z" fill="#837674"/>
<path d="M42.5539 27.4572C42.8042 27.4572 43.0071 27.2543 43.0071 27.004C43.0071 26.7537 42.8042 26.5508 42.5539 26.5508C42.3036 26.5508 42.1007 26.7537 42.1007 27.004C42.1007 27.2543 42.3036 27.4572 42.5539 27.4572Z" fill="#837674"/>
<path d="M42.8939 25.2296C43.1442 25.2296 43.3471 25.0267 43.3471 24.7764C43.3471 24.5261 43.1442 24.3232 42.8939 24.3232C42.6436 24.3232 42.4407 24.5261 42.4407 24.7764C42.4407 25.0267 42.6436 25.2296 42.8939 25.2296Z" fill="#837674"/>
<path d="M38.9285 24.7384C39.1788 24.7384 39.3817 24.5355 39.3817 24.2852C39.3817 24.0349 39.1788 23.832 38.9285 23.832C38.6782 23.832 38.4753 24.0349 38.4753 24.2852C38.4753 24.5355 38.6782 24.7384 38.9285 24.7384Z" fill="#837674"/>
<path d="M34.6434 31.1166C36.1221 31.0359 37.2443 29.5691 37.15 27.8405C37.0556 26.112 35.7804 24.7761 34.3018 24.8568C32.8231 24.9375 31.7009 26.4042 31.7952 28.1328C31.8896 29.8614 33.1648 31.1973 34.6434 31.1166Z" fill="#FCD3B2"/>
<path d="M34.1697 27.1924C34.1697 27.5323 34.2075 27.9099 34.3586 28.3254L34.1697 27.1924Z" fill="#3B3834"/>
<path d="M33.7167 27.1928C33.7167 27.6083 33.7923 28.0237 33.9056 28.4391C33.9433 28.5524 34.0189 28.6657 34.1322 28.7035C34.2455 28.779 34.3965 28.779 34.4721 28.7412C34.5854 28.7035 34.6987 28.6279 34.7364 28.5146C34.7742 28.4013 34.812 28.2881 34.7742 28.1748C34.6987 27.9482 34.6609 27.7216 34.6231 27.495C34.6231 27.5327 34.6231 27.5705 34.6231 27.6083C34.5854 27.4572 34.5854 27.3061 34.5854 27.1551C34.5854 26.9285 34.3588 26.6641 34.1322 26.7019C33.9056 26.7396 33.7167 26.9285 33.7167 27.1928Z" fill="#010101"/>
<path d="M29.4115 29.6881C30.3179 30.7078 31.0732 29.0838 31.7908 28.6684C32.6972 28.0641 33.9057 29.7258 34.6988 28.4796C34.51 28.5551 34.3589 28.6306 34.1701 28.7062C34.7366 28.9328 35.2653 28.6306 35.6807 28.2152C36.0961 27.8375 36.5116 27.1577 37.0781 27.12C37.7201 27.0444 38.1733 27.4599 38.7398 27.6865C39.3063 27.9131 39.6839 27.4221 39.4573 26.8934C39.2307 26.3647 38.3621 26.5913 38.5509 27.1577C38.5887 27.1955 38.5887 27.2333 38.5887 27.3088C38.702 26.9311 38.8908 26.7801 39.0797 26.8556C39.0419 26.7801 38.8908 26.7423 38.8153 26.7045C38.5887 26.5912 38.3621 26.478 38.1355 26.4024C37.6445 26.2136 37.0403 26.1003 36.5116 26.3269C36.0206 26.5157 35.6807 26.8934 35.3408 27.2333C35.1142 27.4976 34.7366 27.9886 34.3589 27.8375C34.1701 27.762 33.9435 27.8753 33.8302 28.0641C33.7546 28.1774 33.0748 27.8375 32.886 27.762C32.4706 27.6109 32.0174 27.5354 31.602 27.7242C31.111 27.9131 30.6956 28.2907 30.3557 28.7062C30.2801 28.7817 29.978 29.0461 29.978 29.1593C29.978 29.1216 29.978 29.1216 29.978 29.1216H30.0158C30.0158 29.0083 30.3179 29.3104 30.0913 29.0461C29.6759 28.5929 29.0339 29.2349 29.4115 29.6881Z" fill="#010101"/>
<path d="M21.7826 24.8514C21.7448 24.8514 21.7448 24.8137 21.7448 24.7759C21.7448 24.7004 21.7826 24.6626 21.8581 24.6626C23.6709 24.4738 25.3704 24.5871 27.0698 25.0403C28.7316 25.4934 30.2044 26.1732 31.4129 26.7775C31.4507 26.8153 31.4885 26.853 31.4507 26.9286C31.4129 26.9663 31.3752 27.0041 31.2996 26.9663C28.8448 25.72 25.8991 24.436 21.8959 24.8892C21.8203 24.8892 21.7826 24.8892 21.7826 24.8514Z" fill="white"/>
<path d="M31.3752 27.0429C31.3374 27.0429 31.2997 27.0429 31.2619 27.0051C28.8071 25.7588 25.8991 24.4748 21.8959 24.9279C21.8204 24.9279 21.7448 24.9279 21.7071 24.8902C21.6693 24.8524 21.6693 24.8146 21.6693 24.7391C21.6693 24.6258 21.7448 24.5503 21.8581 24.5503C23.7087 24.3615 25.4082 24.4748 27.1076 24.9279C28.8071 25.3811 30.3178 26.0987 31.4507 26.6652H31.4885C31.5263 26.703 31.6018 26.7785 31.5263 26.9296V26.9673C31.4885 27.0051 31.4507 27.0429 31.3752 27.0429ZM23.5199 24.7014C26.73 24.7014 29.2225 25.7966 31.3375 26.8918H31.3752V26.854C30.2422 26.2875 28.7316 25.57 27.0699 25.1168C25.4082 24.6636 23.7087 24.5503 21.8959 24.7391C21.8204 24.7391 21.8581 24.7391 21.8581 24.7391H21.8959V24.7769C21.8959 24.7769 21.8959 24.7769 21.9337 24.7769C22.4624 24.7391 22.9911 24.7014 23.5199 24.7014Z" fill="white"/>
<path d="M21.9328 27.7582C21.895 27.7582 21.895 27.7204 21.9328 27.7582C21.8572 27.6826 21.895 27.6071 21.9328 27.5693C23.5189 26.7385 25.0674 26.3986 26.7291 26.4741C28.3152 26.5496 29.7881 27.0406 30.9966 27.4938C31.0722 27.5316 31.0722 27.5693 31.0722 27.6449C31.0344 27.7204 30.9966 27.7204 30.9211 27.7204C27.8998 26.5874 25.2184 26.1342 22.0461 27.7582C22.0083 27.7959 21.9705 27.7582 21.9328 27.7582Z" fill="white"/>
<path d="M22.0092 27.835C21.9714 27.835 21.9714 27.835 21.9337 27.835C21.8581 27.835 21.8204 27.7972 21.8204 27.7595C21.7826 27.6839 21.8204 27.5706 21.8959 27.4951H21.9337C23.4821 26.6643 25.0682 26.3244 26.7677 26.3999C28.3539 26.4754 29.8268 26.9664 31.0731 27.4196C31.1864 27.4951 31.1864 27.5706 31.1864 27.6462V27.6839C31.1108 27.7972 31.0353 27.7972 30.9598 27.7972H30.922C27.9007 26.6643 25.2571 26.2488 22.1225 27.835C22.0847 27.835 22.047 27.835 22.0092 27.835ZM21.9714 27.6462C21.9714 27.6462 22.0092 27.6839 21.9714 27.6462C22.0092 27.6839 22.0092 27.6839 21.9714 27.6462C25.1815 26.0222 27.8629 26.4754 30.922 27.6084H30.9598V27.5706C30.9598 27.5706 30.9598 27.5706 30.922 27.5706C29.7135 27.1174 28.2406 26.6265 26.6922 26.551C25.0305 26.4754 23.5198 26.8153 21.9714 27.6462Z" fill="white"/>
<path d="M22.7645 30.7051C22.7268 30.7051 22.7268 30.6674 22.7645 30.7051C22.689 30.6296 22.689 30.5541 22.7645 30.5163C23.9353 29.6099 25.1816 28.9679 26.5789 28.6658C27.9385 28.3636 29.2603 28.3259 30.3555 28.3636C30.4311 28.3636 30.4688 28.4014 30.4688 28.4769C30.4688 28.5525 30.4311 28.5902 30.3555 28.5902C28.1273 28.5525 25.5215 28.6658 22.8778 30.7051C22.8401 30.7051 22.8023 30.7051 22.7645 30.7051Z" fill="white"/>
<path d="M22.9157 30.78H22.7646C22.6891 30.78 22.6513 30.7422 22.6513 30.7045C22.6135 30.6667 22.6135 30.6289 22.6135 30.5912C22.6135 30.5156 22.6513 30.4779 22.7268 30.4401C23.9731 29.496 25.2194 28.8539 26.579 28.5896C27.712 28.3252 28.9582 28.2497 30.3934 28.2874C30.5067 28.2874 30.5822 28.363 30.5822 28.4763C30.5822 28.5896 30.5067 28.6651 30.3934 28.6651C28.1274 28.6273 25.5215 28.7406 22.9157 30.78ZM22.8024 30.5912H22.8401C25.4838 28.5518 28.0896 28.4385 30.3556 28.4763C30.3934 28.4763 30.3934 28.4763 30.3934 28.4385V28.4007C30.3934 28.4007 30.3934 28.4007 30.3556 28.4007C28.9582 28.363 27.712 28.4385 26.579 28.7029C25.2949 29.005 24.0486 29.6093 22.8024 30.5912Z" fill="white"/>
<path d="M48.5967 22.2084C48.6345 22.1706 48.6345 22.1706 48.6345 22.1328C48.6345 22.0573 48.5967 22.0195 48.5212 22.0195C46.7084 22.0195 45.0467 22.3594 43.385 23.0015C41.7988 23.6435 40.4014 24.4743 39.3062 25.2297C39.2685 25.2674 39.2307 25.343 39.2685 25.3807C39.3062 25.4185 39.3817 25.4563 39.4195 25.4185C41.6855 23.9078 44.4802 22.2839 48.5212 22.2461C48.5589 22.2461 48.5589 22.2084 48.5967 22.2084Z" fill="white"/>
<path d="M39.3816 25.4931C39.3061 25.4931 39.2683 25.4553 39.1928 25.4175C39.1173 25.342 39.155 25.2287 39.2305 25.1532C40.5901 24.209 41.9875 23.4537 43.3471 22.8872C45.0843 22.2074 46.746 21.9053 48.521 21.9053C48.6343 21.9053 48.7099 21.9808 48.7099 22.0941C48.7099 22.1696 48.7099 22.1696 48.6343 22.2452L48.5966 22.2829C48.5966 22.2829 48.5588 22.3207 48.521 22.3207C44.48 22.3585 41.7231 23.9824 39.4571 25.4931C39.4571 25.4931 39.4194 25.4931 39.3816 25.4931ZM39.3816 25.342C39.3816 25.342 39.3438 25.342 39.3816 25.342C39.3438 25.342 39.3816 25.342 39.3816 25.342ZM39.3438 25.3042C39.3438 25.3042 39.3816 25.342 39.3438 25.3042C41.6476 23.7936 44.4423 22.1696 48.521 22.1319L48.5588 22.0941V22.0563C48.5588 22.0563 48.5588 22.0563 48.521 22.0563C46.7838 22.0563 45.1221 22.3585 43.4226 23.0383C42.063 23.6048 40.7034 24.3601 39.3438 25.3042Z" fill="white"/>
<path d="M48.7853 25.0045C48.823 25.0045 48.823 24.9667 48.823 24.9667C48.8608 24.8912 48.823 24.8534 48.7475 24.8157C47.0858 24.1736 45.4996 24.0226 43.8757 24.2869C42.2895 24.5513 40.9299 25.1933 39.7592 25.7976C39.7214 25.8353 39.6836 25.9109 39.7214 25.9486C39.7592 25.9864 39.8347 26.0242 39.8725 25.9864C42.7427 24.5135 45.3486 23.7582 48.672 25.0045C48.7097 25.0045 48.7475 25.0045 48.7853 25.0045Z" fill="white"/>
<path d="M39.8348 26.0603C39.7593 26.0603 39.7215 26.0226 39.646 25.9848C39.5704 25.9093 39.6082 25.796 39.6837 25.7204H39.7215C40.9678 25.0784 42.2896 24.4741 43.8758 24.2098C45.5375 23.9454 47.1614 24.0965 48.7854 24.7385C48.8231 24.7763 48.8987 24.7763 48.8987 24.8518C48.9364 24.8896 48.9364 24.9273 48.8987 25.0029C48.8987 25.0406 48.8609 25.1162 48.7854 25.1162H48.6343C45.3487 23.9076 42.7806 24.6252 39.9103 26.0981C39.9103 26.0603 39.8726 26.0603 39.8348 26.0603ZM39.797 25.8715C39.797 25.8715 39.8348 25.9093 39.797 25.8715H39.8348C42.7428 24.3608 45.3487 23.6433 48.6721 24.8896H48.7476C48.7476 24.8896 48.7476 24.8896 48.7098 24.8518C47.1237 24.2475 45.5375 24.0587 43.8758 24.3231C42.3651 24.6252 41.0433 25.2295 39.797 25.8715Z" fill="white"/>
<path d="M47.8414 27.8362L47.8791 27.7985C47.9169 27.7607 47.8791 27.6852 47.8414 27.6474C46.5573 26.8543 45.2355 26.4011 43.8382 26.25C42.4408 26.099 41.1568 26.2123 40.0615 26.3633C39.986 26.3633 39.9482 26.4389 39.986 26.4766C39.986 26.5522 40.0615 26.5899 40.0993 26.5522C42.3275 26.25 44.8956 26.0612 47.7658 27.7985C47.7658 27.8362 47.8036 27.8362 47.8414 27.8362Z" fill="white"/>
<path d="M47.8791 27.9108C47.7658 27.9108 47.728 27.873 47.6902 27.8353C44.8955 26.1358 42.403 26.3246 40.137 26.6268C40.0992 26.6645 40.0615 26.6645 40.0237 26.6268C39.9859 26.589 39.9482 26.5512 39.9104 26.4757C39.8726 26.4379 39.8726 26.4002 39.9104 26.3624C39.9482 26.2869 39.9859 26.2491 40.0615 26.2491C41.0434 26.098 42.3652 25.9847 43.8381 26.1358C45.2732 26.2869 46.595 26.74 47.8791 27.5331C47.9168 27.5709 47.9546 27.6464 47.9546 27.722C47.9546 27.7597 47.9546 27.7975 47.9168 27.8353L47.8791 27.9108ZM44.178 26.3624C45.2354 26.5135 46.3684 26.8911 47.5392 27.5709C46.4817 26.9289 45.3487 26.5512 44.178 26.3624ZM40.0615 26.4379C40.8546 26.3624 41.6854 26.2491 42.5163 26.2491H42.4785C41.5721 26.2491 40.7413 26.3246 40.0615 26.4379Z" fill="white"/>
<path d="M33.4902 24.1349C32.2817 24.3993 30.8844 25.0036 31.0354 25.7966C31.1487 26.4387 32.8104 25.8344 33.4147 26.8919C33.6413 27.3073 33.7924 27.5339 34.17 27.4584C34.5099 27.3828 34.5855 27.1185 34.6232 26.6275C34.7365 25.419 36.4738 25.3057 36.3605 24.6637C36.1716 23.9083 34.6988 23.9083 33.4902 24.1349Z" fill="#010101"/>
<path d="M32.1306 25.2675C32.0551 25.0031 32.395 24.852 32.5838 24.7765C32.9237 24.6254 33.2636 24.4744 33.6035 24.3988C33.9057 24.3233 35.2275 24.1345 35.1519 24.7387C35.1519 24.8143 35.0764 24.8898 35.0386 24.9276C34.9631 24.9653 34.8876 25.0031 34.812 25.0031C34.3966 25.1164 33.9812 25.2675 33.5658 25.3808C33.2259 25.4563 32.2439 25.7207 32.1306 25.2675Z" fill="#837674"/>
<path d="M37.682 54.2325C40.2124 53.4772 42.7805 52.6841 45.4241 52.4575C46.4438 52.3442 47.5012 52.3442 48.4454 52.7974C49.3895 53.2883 50.1071 54.2325 50.2204 55.2899C50.3337 56.3474 49.9183 57.4804 49.1252 58.1602C48.2943 58.8777 47.1613 59.1421 46.0661 59.2931C42.7805 59.8219 39.457 59.8974 36.1714 59.9729" fill="#EB9458"/>
<path d="M37.7955 54.6861C39.7215 54.1196 41.6854 53.5154 43.687 53.1755C45.3487 52.8734 47.6902 52.4202 49.012 53.8175C50.2205 55.0638 49.9939 57.1409 48.5588 58.0851C47.8413 58.5383 47.0104 58.7271 46.1796 58.8782C45.1976 59.0292 44.1779 59.1803 43.1583 59.2558C40.8168 59.4824 38.513 59.5202 36.1715 59.5957C35.5673 59.5957 35.5673 60.5399 36.1715 60.5021C38.5508 60.4266 40.8923 60.3888 43.2338 60.1622C44.3668 60.0489 45.4998 59.9356 46.6327 59.709C47.5391 59.558 48.4833 59.2558 49.2386 58.6893C50.7115 57.5941 51.1269 55.517 50.2205 53.893C49.1631 52.0425 47.0859 51.8159 45.1599 52.0047C42.554 52.2691 40.0237 53.0244 37.5311 53.7797C37.0024 53.9686 37.229 54.875 37.7955 54.6861Z" fill="#553818"/>
<path d="M31.375 44.9056C31.8282 41.3934 32.3569 37.7678 34.283 34.9354C34.6229 34.4067 35.0383 33.9157 35.567 33.5758C36.0958 33.2359 36.8133 33.0848 37.4554 33.2737C38.3995 33.538 39.0793 34.4822 39.3059 35.4263C39.5325 36.3705 39.3814 37.3146 39.1548 38.1833C38.3995 41.5445 37.0399 44.679 35.1894 47.5115" fill="#EB9458"/>
<path d="M31.8284 44.9057C32.0928 43.0551 32.3194 41.2046 32.8103 39.3918C33.2635 37.6923 33.9433 35.804 35.1518 34.52C35.7561 33.8402 36.7002 33.4248 37.5689 33.8402C38.3242 34.2178 38.7774 35.0487 38.8907 35.8796C39.0418 36.8992 38.7774 37.9567 38.513 38.9386C38.2864 39.845 38.0221 40.7514 37.6822 41.62C36.9646 43.6216 35.9827 45.5477 34.7742 47.3227C34.4343 47.8137 35.2651 48.2669 35.5673 47.7759C36.7758 45.9631 37.7577 44.037 38.513 41.9977C38.8907 40.978 39.2306 39.9205 39.4949 38.8253C39.7593 37.7301 39.9859 36.5971 39.7971 35.5019C39.4572 33.6514 37.6066 32.1785 35.7183 32.9716C34.7742 33.387 34.1321 34.2178 33.6034 35.0865C33.0747 35.9551 32.6593 36.8992 32.3194 37.8812C31.5263 40.1471 31.2242 42.5264 30.922 44.9057C30.8087 45.4722 31.7529 45.4722 31.8284 44.9057Z" fill="#553818"/>
<path d="M5.95864 1.47476C6.14747 1.58806 6.26077 1.77689 6.3363 2.04125L7.46929 6.95085C7.54482 7.21521 7.50705 7.40405 7.39375 7.59288C7.28046 7.78171 7.09163 7.89501 6.82726 7.97054C6.5629 8.04607 6.37407 8.0083 6.18524 7.89501C5.99641 7.78171 5.88311 7.59288 5.80758 7.32851L5.39215 5.47797L2.74852 6.08223L3.16394 7.93277C3.23948 8.19713 3.20171 8.38597 3.08841 8.5748C2.97511 8.76363 2.78628 8.87693 2.52192 8.95246C2.25756 9.02799 2.06873 8.99022 1.87989 8.87693C1.69106 8.76363 1.57777 8.5748 1.50223 8.31043L0.369248 3.40083C0.331482 3.13647 0.331482 2.94764 0.482546 2.75881C0.595845 2.56998 0.784676 2.45668 1.04904 2.38115C1.3134 2.30561 1.50223 2.34338 1.69106 2.45668C1.87989 2.56998 1.99319 2.75881 2.06873 3.02317L2.48415 4.76041L5.12778 4.15616L4.71236 2.41891C4.63682 2.15455 4.63682 1.92795 4.78789 1.73912C4.93895 1.55029 5.09002 1.43699 5.35438 1.36146C5.61874 1.28593 5.80758 1.36146 5.95864 1.47476Z" fill="#00A14B"/>
<path d="M7.62028 1.96271C7.43145 1.84941 7.28038 1.69835 7.24262 1.43398C7.20485 1.20739 7.24262 0.980789 7.35592 0.791958C7.46921 0.603127 7.69581 0.489829 7.96017 0.414296C8.22454 0.338764 8.45113 0.37653 8.67773 0.489829C8.86656 0.603127 9.01763 0.754192 9.05539 1.01856C9.09316 1.24515 9.05539 1.47175 8.94209 1.66058C8.8288 1.84941 8.6022 1.96271 8.33784 2.03824C8.03571 2.07601 7.80911 2.07601 7.62028 1.96271ZM8.94209 7.28774C8.75326 7.21221 8.63997 7.02338 8.56443 6.75901L7.84688 3.58665C7.77134 3.32229 7.80911 3.13346 7.96017 2.9824C8.07347 2.83133 8.2623 2.71803 8.4889 2.6425C8.7155 2.60473 8.94209 2.60473 9.13093 2.68027C9.31976 2.7558 9.43305 2.94463 9.50859 3.20899L10.2261 6.38135C10.3017 6.64571 10.2639 6.83454 10.1128 6.98561C9.99955 7.13667 9.81072 7.24997 9.58412 7.3255C9.31976 7.40104 9.13093 7.36327 8.94209 7.28774Z" fill="#00A14B"/>
<path d="M15.8912 5.0611C15.929 5.24993 15.8912 5.47652 15.8157 5.66535C15.7024 5.85418 15.5513 5.96748 15.3625 6.04302C15.1736 6.08078 14.9848 6.04302 14.796 5.92972L12.53 4.57014L12.8321 5.81642C12.9077 6.08078 12.8699 6.26961 12.7188 6.45844C12.6055 6.60951 12.4167 6.72281 12.1901 6.79834C11.9635 6.8361 11.7369 6.83611 11.5481 6.72281C11.3592 6.64727 11.2459 6.45844 11.1704 6.19408L9.9619 1.13341C9.88637 0.869051 9.92413 0.68022 10.0752 0.491389C10.1885 0.340324 10.3773 0.227026 10.6039 0.151493C10.8305 0.113727 11.0571 0.113727 11.2459 0.227026C11.4348 0.302558 11.5481 0.491389 11.6236 0.755752L12.3412 3.89034L13.6252 1.77544C13.7385 1.58661 13.8896 1.47331 14.1162 1.39778C14.305 1.36001 14.4938 1.39778 14.6827 1.51108C14.8715 1.62437 14.9848 1.73767 15.0226 1.9265C15.0603 2.11533 15.0226 2.30416 14.9093 2.493L14.1539 3.70151L15.5513 4.53237C15.7401 4.68343 15.8534 4.8345 15.8912 5.0611Z" fill="#00A14B"/>
<path d="M17.364 5.47537C17.0619 5.47537 16.7975 5.4376 16.5331 5.36207C16.4198 5.3243 16.3443 5.28654 16.2688 5.17324C16.1932 5.09771 16.1555 4.98441 16.1177 4.83334C16.0799 4.68228 16.0799 4.53121 16.1555 4.38015C16.231 4.26685 16.3065 4.19132 16.4576 4.15355C16.5331 4.11579 16.6464 4.11579 16.722 4.11579C16.7975 4.11579 16.9108 4.11579 17.0241 4.15355C17.2507 4.19132 17.4395 4.19132 17.5906 4.19132C17.7416 4.19132 17.9305 4.15355 18.1948 4.11579C18.3459 4.07802 18.497 4.04025 18.5725 3.96472C18.648 3.88919 18.6858 3.81366 18.6858 3.73812C18.6858 3.66259 18.648 3.62483 18.5725 3.58706C18.5347 3.54929 18.4214 3.54929 18.2704 3.54929C18.1193 3.54929 17.8927 3.54929 17.5906 3.54929C17.0241 3.58706 16.6087 3.51153 16.3065 3.36046C16.0044 3.2094 15.8156 2.94504 15.74 2.52961C15.6645 2.26524 15.7023 1.96311 15.8156 1.69875C15.9289 1.43439 16.1555 1.20779 16.4198 0.981195C16.6842 0.754598 17.0241 0.641299 17.4018 0.565767C17.6661 0.490234 17.9682 0.490234 18.2326 0.490234C18.497 0.490234 18.7613 0.528001 18.9879 0.603533C19.2145 0.679065 19.3278 0.83013 19.4034 1.05673C19.4411 1.24556 19.4411 1.39662 19.3656 1.50992C19.2901 1.62322 19.2145 1.73652 19.0635 1.77428C18.9124 1.81205 18.6858 1.81205 18.4592 1.73652C18.3081 1.69875 18.1571 1.69875 18.0438 1.66099C17.9305 1.66099 17.7794 1.66099 17.6283 1.69875C17.4395 1.81205 17.3262 1.84982 17.2507 1.92535C17.1752 2.00088 17.1374 2.07641 17.1752 2.15195C17.2129 2.26524 17.2885 2.30301 17.4018 2.34078C17.5528 2.37854 17.7794 2.37854 18.1571 2.37854C18.7613 2.34078 19.2145 2.41631 19.5167 2.56737C19.8188 2.71844 20.0076 2.9828 20.0832 3.39823C20.1964 3.85142 20.0832 4.22909 19.781 4.60675C19.4789 4.98441 18.9879 5.21101 18.3837 5.36207C18.006 5.39984 17.6283 5.47537 17.364 5.47537Z" fill="#00A14B"/>
<path d="M21.1406 4.38112C20.914 4.23005 20.8007 4.04122 20.7252 3.81463C20.6497 3.55026 20.6874 3.32367 20.8385 3.13483C20.9518 2.90824 21.1784 2.79494 21.405 2.71941C21.6694 2.64387 21.896 2.68164 22.0848 2.83271C22.3114 2.98377 22.4247 3.1726 22.5002 3.3992C22.5757 3.66356 22.538 3.89016 22.3869 4.07899C22.2359 4.26782 22.0848 4.41888 21.8204 4.49442C21.5938 4.56995 21.3672 4.53218 21.1406 4.38112Z" fill="#00A14B"/>
<path d="M23.671 3.81471C23.4444 3.66365 23.3311 3.47482 23.2556 3.24822C23.1801 2.98386 23.2178 2.75726 23.3689 2.56843C23.4822 2.34183 23.7088 2.22853 23.9354 2.153C24.1998 2.07747 24.4264 2.11523 24.6152 2.2663C24.8418 2.41736 24.9551 2.60619 25.0306 2.83279C25.1061 3.09715 25.0684 3.32375 24.9173 3.51258C24.7662 3.70141 24.6152 3.85248 24.3508 3.92801C24.0865 4.00354 23.8599 3.96578 23.671 3.81471Z" fill="#00A14B"/>
<path d="M2.2953 9.10243C2.10647 9.10243 1.9554 9.06467 1.8421 8.98913C1.65327 8.87584 1.50221 8.64924 1.42668 8.38488L0.293691 3.47527C0.218159 3.13538 0.255925 2.90878 0.369223 2.68218C0.520288 2.49335 0.709119 2.34229 1.01125 2.30452C1.27561 2.22899 1.53997 2.26676 1.72881 2.41782C1.91764 2.53112 2.0687 2.71995 2.14423 2.98431L2.52189 4.64603L4.9767 4.07953L4.59903 2.41782C4.5235 2.15346 4.56127 1.8891 4.71233 1.70026C4.82563 1.51143 5.05223 1.36037 5.31659 1.28484C5.58095 1.2093 5.84532 1.24707 6.03415 1.39813C6.22298 1.51143 6.37404 1.73803 6.44958 2.00239L7.58256 6.912C7.65809 7.17636 7.62033 7.44072 7.46926 7.62955C7.35596 7.85615 7.12937 7.96945 6.865 8.04498C6.60064 8.12051 6.33628 8.08275 6.14745 7.93168C5.95862 7.81838 5.80755 7.59179 5.73202 7.32742L5.31659 5.59018L2.86179 6.15667L3.27722 7.93168C3.35275 8.19604 3.31498 8.46041 3.16392 8.64924C3.05062 8.87584 2.82402 8.98913 2.55966 9.06467C2.48413 9.06467 2.37083 9.10243 2.2953 9.10243ZM1.27561 2.45559C1.20008 2.45559 1.12455 2.45559 1.04901 2.49335C0.822417 2.53112 0.633586 2.64442 0.558054 2.79548C0.444756 2.94655 0.406989 3.13538 0.482522 3.36198L1.61551 8.27158C1.65327 8.49817 1.76657 8.68701 1.9554 8.76254C2.10647 8.87584 2.2953 8.87584 2.52189 8.83807C2.74849 8.8003 2.89956 8.68701 3.01286 8.49817C3.12615 8.34711 3.12615 8.12051 3.08839 7.89392L2.63519 5.96784L5.46766 5.32582L5.92085 7.25189C5.95862 7.47849 6.07191 7.66732 6.26075 7.74285C6.41181 7.85615 6.60064 7.85615 6.82724 7.81838C7.05383 7.78062 7.2049 7.66732 7.3182 7.47849C7.4315 7.32742 7.4315 7.10083 7.39373 6.87423L6.26075 1.96463C6.22298 1.73803 6.10968 1.58697 5.92085 1.47367C5.76979 1.36037 5.58095 1.36037 5.35436 1.39813C5.12776 1.4359 4.9767 1.5492 4.8634 1.73803C4.7501 1.8891 4.7501 2.07793 4.78787 2.30452L5.20329 4.1173L2.37083 4.75932L1.9554 3.02208C1.87987 2.79548 1.76657 2.64442 1.61551 2.53112C1.50221 2.49335 1.38891 2.45559 1.27561 2.45559Z" fill="white"/>
<path d="M9.31979 7.47984C9.16873 7.47984 9.01767 7.44207 8.90437 7.4043C8.67777 7.29101 8.56447 7.10218 8.48894 6.83781L7.77138 3.66545C7.69585 3.40109 7.73362 3.13673 7.88468 2.9479C8.03575 2.75907 8.22458 2.64577 8.48894 2.608C8.7533 2.53247 8.9799 2.57023 9.16873 2.68353C9.39533 2.79683 9.50863 2.98566 9.58416 3.25003L10.3017 6.42238C10.3772 6.68675 10.3395 6.95111 10.1884 7.13994C10.0374 7.32877 9.84852 7.44207 9.58416 7.47984C9.47086 7.47984 9.39533 7.47984 9.31979 7.47984ZM8.9799 7.21547C9.13096 7.29101 9.31979 7.32877 9.54639 7.25324C9.77299 7.21547 9.92405 7.10218 10.0374 6.95111C10.1507 6.80005 10.1884 6.64898 10.1129 6.42238L9.39533 3.25003C9.35756 3.02343 9.24426 2.87236 9.0932 2.79683C8.94213 2.7213 8.7533 2.68353 8.5267 2.75907C8.30011 2.79683 8.14904 2.91013 8.03575 3.0612C7.92245 3.21226 7.88468 3.36332 7.96021 3.58992L8.67777 6.76228C8.71554 6.98888 8.82883 7.13994 8.9799 7.21547ZM8.03575 2.15481C7.88468 2.15481 7.69585 2.11704 7.58255 2.04151C7.35595 1.92821 7.20489 1.73938 7.16712 1.47502C7.09159 1.21065 7.16712 0.984056 7.28042 0.757459C7.43149 0.568628 7.65808 0.417563 7.96021 0.342031C8.26234 0.266498 8.5267 0.304265 8.71554 0.417563C8.94213 0.530862 9.0932 0.719692 9.13096 0.984056C9.2065 1.24842 9.13096 1.47502 9.01767 1.70161C8.8666 1.89044 8.64 2.04151 8.33787 2.11704C8.22458 2.15481 8.14904 2.15481 8.03575 2.15481ZM7.65808 1.89044C7.84691 2.00374 8.03574 2.00374 8.30011 1.92821C8.56447 1.85268 8.7533 1.77715 8.8666 1.58831C8.9799 1.43725 9.01767 1.24842 8.9799 1.02182C8.94213 0.795225 8.82883 0.64416 8.64 0.568628C8.45117 0.493095 8.26234 0.455329 7.99798 0.530862C7.73362 0.606394 7.54478 0.681926 7.43149 0.870757C7.31819 1.02182 7.28042 1.21065 7.31819 1.43725C7.39372 1.62608 7.50702 1.77715 7.65808 1.89044Z" fill="white"/>
<path d="M11.888 6.87497C11.7369 6.87497 11.5859 6.83721 11.4726 6.76167C11.246 6.64838 11.1327 6.45954 11.0572 6.19518L9.8864 1.13452C9.81087 0.870152 9.84863 0.605789 9.9997 0.416958C10.1508 0.228127 10.3396 0.114829 10.604 0.0392964C10.8683 -0.0362359 11.0949 0.00153022 11.2837 0.114829C11.5103 0.228127 11.6236 0.416958 11.6992 0.681321L12.379 3.58932L13.5497 1.66324C13.663 1.43664 13.8518 1.32335 14.0784 1.24781C14.305 1.21005 14.5316 1.24781 14.7205 1.36111C14.9093 1.47441 15.0604 1.66324 15.0981 1.88984C15.1359 2.11644 15.0981 2.30527 14.9848 2.53186L14.2673 3.66485L15.5891 4.45794C15.8157 4.57124 15.929 4.76007 16.0045 4.98666C16.0423 5.21326 16.0045 5.43986 15.8912 5.62869C15.7779 5.85529 15.5891 5.96858 15.3625 6.04412C15.1737 6.08188 14.9471 6.04412 14.7205 5.93082L12.6433 4.68453L12.8699 5.70422C12.9455 5.96858 12.9077 6.23295 12.7566 6.42178C12.6056 6.61061 12.4167 6.72391 12.1524 6.79944C12.0768 6.83721 11.9635 6.87497 11.888 6.87497ZM10.8683 0.228127C10.7928 0.228127 10.7173 0.228127 10.6417 0.265893C10.4151 0.30366 10.2641 0.416958 10.1508 0.568023C10.0375 0.719087 9.9997 0.907918 10.0752 1.09675L11.246 6.15742C11.2837 6.38401 11.397 6.53508 11.5481 6.61061C11.6992 6.68614 11.888 6.72391 12.1146 6.64838C12.3412 6.61061 12.4923 6.49731 12.6056 6.34625C12.7189 6.19518 12.7566 6.00635 12.6811 5.81752L12.3412 4.34464L14.796 5.81752C14.9848 5.93082 15.1359 5.96858 15.287 5.93082C15.4758 5.89305 15.5891 5.77975 15.7024 5.62869C15.8157 5.43986 15.8157 5.28879 15.7779 5.09996C15.7402 4.91113 15.6269 4.79783 15.4758 4.68453L14.0029 3.81591L14.8338 2.4941C14.9471 2.30527 14.9848 2.11644 14.9471 1.96537C14.9093 1.81431 14.796 1.66324 14.6449 1.54994C14.4939 1.43664 14.305 1.39888 14.154 1.47441C13.9651 1.51218 13.8518 1.62548 13.7385 1.77654L12.3034 4.08028L11.5481 0.719087C11.5103 0.49249 11.397 0.341426 11.246 0.265893C11.0949 0.265893 10.9816 0.228127 10.8683 0.228127Z" fill="white"/>
<path d="M17.3263 5.55417C17.0241 5.55417 16.7598 5.5164 16.5332 5.44087C16.4199 5.4031 16.3066 5.32757 16.231 5.25204C16.1555 5.13874 16.08 5.02544 16.0422 4.87438C16.0045 4.68555 16.0045 4.53448 16.08 4.38342C16.1555 4.23235 16.2688 4.11905 16.4576 4.08129C16.5709 4.04352 16.6465 4.04352 16.7598 4.04352C16.8353 4.04352 16.9486 4.04352 17.0997 4.08129C17.2885 4.11905 17.4773 4.11905 17.6284 4.11905C17.7795 4.11905 17.9683 4.08129 18.1949 4.04352C18.346 4.00575 18.4593 3.96799 18.5348 3.89246C18.6103 3.81692 18.6103 3.77916 18.6103 3.74139C18.6103 3.70363 18.5725 3.66586 18.5725 3.66586C18.5348 3.66586 18.497 3.62809 18.3082 3.62809C18.1949 3.62809 17.9683 3.62809 17.6284 3.62809C17.0241 3.66586 16.6087 3.59033 16.3066 3.4015C16.0045 3.25043 15.7779 2.9483 15.7023 2.53287C15.6268 2.23074 15.6646 1.92862 15.7779 1.66425C15.8912 1.39989 16.1177 1.13553 16.4199 0.908929C16.722 0.720098 17.0619 0.569033 17.4396 0.455735C17.6662 0.455735 17.9305 0.417969 18.2327 0.417969C18.5348 0.417969 18.7991 0.455735 19.0257 0.531267C19.2901 0.6068 19.4412 0.79563 19.4789 1.05999C19.5167 1.24882 19.5167 1.43766 19.4412 1.58872C19.3656 1.73978 19.2523 1.85308 19.0635 1.89085C18.8747 1.92862 18.6858 1.92862 18.4215 1.85308C18.2704 1.81532 18.1194 1.81532 18.0061 1.77755C17.8928 1.77755 17.7795 1.77755 17.6284 1.81532C17.4773 1.85308 17.4018 1.89085 17.3263 1.92862C17.2507 2.04191 17.2507 2.07968 17.2885 2.11745C17.2885 2.15521 17.3263 2.19298 17.4396 2.23074C17.5529 2.26851 17.8172 2.26851 18.1571 2.23074C18.7991 2.19298 19.2523 2.26851 19.5922 2.41958C19.8944 2.57064 20.121 2.87277 20.2343 3.32596C20.3476 3.81692 20.2343 4.23235 19.8944 4.61001C19.5545 4.98767 19.1013 5.25204 18.4593 5.4031C18.0438 5.5164 17.6662 5.55417 17.364 5.55417C17.3263 5.55417 17.3263 5.55417 17.3263 5.55417ZM17.364 5.36534V5.44087V5.36534C17.6662 5.36534 18.0061 5.32757 18.4215 5.21427C19.0257 5.06321 19.4789 4.83661 19.7811 4.49671C20.0832 4.15682 20.1587 3.81692 20.0832 3.36373C20.0077 2.98607 19.8188 2.7217 19.5545 2.60841C19.2901 2.45734 18.8369 2.41958 18.2327 2.41958C17.855 2.41958 17.5906 2.41958 17.4396 2.38181C17.213 2.34404 17.1374 2.23074 17.1374 2.11745C17.0997 2.04191 17.1374 1.92862 17.2507 1.81532C17.3263 1.73978 17.4773 1.66425 17.6284 1.62649C17.7795 1.58872 17.9305 1.58872 18.0816 1.58872C18.1949 1.58872 18.346 1.62649 18.5348 1.66425C18.7614 1.70202 18.9502 1.73978 19.1013 1.70202C19.2146 1.66425 19.2901 1.62649 19.3279 1.51319C19.3656 1.39989 19.4034 1.24882 19.3656 1.09776C19.2523 0.908929 19.139 0.79563 18.9502 0.720098C18.7236 0.644566 18.497 0.6068 18.2327 0.6068C17.9683 0.6068 17.7039 0.644566 17.4396 0.682332C17.0619 0.757864 16.7598 0.908929 16.4954 1.09776C16.231 1.28659 16.0422 1.51319 15.9289 1.77755C15.8156 2.04191 15.7779 2.26851 15.8534 2.53287C15.9289 2.91054 16.1177 3.13713 16.3821 3.2882C16.6465 3.43926 17.0619 3.51479 17.6284 3.47703C17.9683 3.47703 18.1949 3.47703 18.3082 3.47703C18.4593 3.47703 18.5726 3.51479 18.6481 3.51479C18.7236 3.55256 18.7991 3.62809 18.7991 3.70362C18.8369 3.77916 18.7991 3.93022 18.6858 4.04352C18.5725 4.11905 18.4593 4.19459 18.2704 4.23235C18.0438 4.27012 17.8172 4.30788 17.6662 4.30788C17.5151 4.30788 17.3263 4.30788 17.0997 4.27012C16.9864 4.23235 16.8731 4.23235 16.7975 4.23235C16.722 4.23235 16.6465 4.23235 16.5709 4.27012C16.4576 4.30788 16.3821 4.34565 16.3443 4.45895C16.3066 4.57225 16.2688 4.68555 16.3066 4.83661C16.3443 4.94991 16.3821 5.06321 16.4576 5.13874C16.5332 5.21427 16.5709 5.25204 16.6465 5.2898C16.7975 5.32757 17.0619 5.36534 17.364 5.36534Z" fill="white"/>
<path d="M21.6317 4.60773C21.4429 4.60773 21.2541 4.56997 21.103 4.45667C20.8764 4.3056 20.7254 4.07901 20.6498 3.81464C20.5743 3.55028 20.6121 3.28592 20.7631 3.05932C20.9142 2.83272 21.103 2.68166 21.4052 2.60613C21.6695 2.53059 21.9339 2.56836 22.1605 2.71942C22.3871 2.87049 22.5381 3.09709 22.6137 3.36145C22.6892 3.62581 22.6514 3.89017 22.5004 4.11677C22.3493 4.34337 22.1605 4.49443 21.8583 4.56997C21.7828 4.60773 21.7073 4.60773 21.6317 4.60773ZM21.6695 2.79496C21.594 2.79496 21.5184 2.79496 21.4807 2.83272C21.2541 2.87049 21.0653 3.02155 20.952 3.21038C20.8387 3.39921 20.8009 3.58805 20.8387 3.81464C20.8764 4.04124 20.9897 4.23007 21.1786 4.34337C21.3674 4.45667 21.5562 4.49443 21.8206 4.45667C22.0472 4.4189 22.1982 4.26784 22.3493 4.07901C22.4626 3.89017 22.5004 3.70134 22.4626 3.47475C22.4248 3.24815 22.3115 3.05932 22.1227 2.94602C21.9339 2.83272 21.8206 2.79496 21.6695 2.79496Z" fill="white"/>
<path d="M24.1242 4.04133C23.9354 4.04133 23.7843 4.00356 23.5955 3.89026C23.3689 3.7392 23.2179 3.5126 23.1423 3.24824C23.0668 2.98387 23.1046 2.71951 23.2556 2.49291C23.4067 2.26632 23.5955 2.11525 23.8976 2.03972C24.162 1.96419 24.4264 2.00195 24.653 2.15302C24.8796 2.30408 25.0306 2.53068 25.1062 2.79504C25.1817 3.05941 25.1439 3.32377 24.9929 3.55037C24.8418 3.77696 24.653 3.92803 24.3508 4.00356C24.2753 4.04133 24.1998 4.04133 24.1242 4.04133ZM24.162 2.19078C24.0865 2.19078 24.0109 2.19078 23.9732 2.22855C23.7466 2.26632 23.5577 2.41738 23.4444 2.60621C23.3312 2.79504 23.2934 2.98387 23.3311 3.21047C23.3689 3.43707 23.4822 3.6259 23.671 3.7392C23.8599 3.85249 24.0487 3.89026 24.3131 3.8525C24.5397 3.81473 24.6907 3.66366 24.8418 3.47483C24.9551 3.286 24.9929 3.09717 24.9551 2.87057C24.9173 2.64398 24.804 2.45515 24.6152 2.34185C24.4641 2.26632 24.3131 2.19078 24.162 2.19078Z" fill="white"/>
<path d="M25.3702 21.1123C25.3702 21.1123 24.5016 25.5687 26.0122 24.9267C27.5229 24.2847 25.3702 21.1123 25.3702 21.1123Z" fill="#65C8CC"/>
<path d="M44.971 53.1772C44.6689 54.008 44.6689 54.9144 44.7444 55.783C44.7822 56.274 45.1221 56.6894 45.6508 56.6894C46.104 56.6894 46.6327 56.274 46.5572 55.783C46.4817 55.0655 46.4817 54.3479 46.7083 53.6681C47.1237 52.5351 45.3487 52.0442 44.971 53.1772Z" fill="#010101"/>
<path d="M41.0432 55.7814C40.8922 57.0654 40.8922 58.274 41.3831 59.4825C41.7985 60.5777 43.6113 60.0867 43.1581 58.9915C42.7427 57.8963 42.7427 56.9521 42.8938 55.7814C42.9693 55.2904 42.4406 54.875 41.9874 54.875C41.4209 54.875 41.1187 55.2904 41.0432 55.7814Z" fill="#010101"/>
<path d="M37.7955 54.9127C39.7215 54.3462 41.6854 53.7419 43.687 53.4021C45.3487 53.0999 47.6902 52.6467 49.012 54.0441C50.2205 55.2904 49.9939 57.3675 48.5588 58.3117C47.8413 58.7648 47.0104 58.9537 46.1796 59.1047C45.1976 59.2558 44.1779 59.4069 43.1583 59.4824C40.8168 59.709 38.513 59.7468 36.1715 59.8223C35.5673 59.8223 35.5673 60.7665 36.1715 60.7287C38.5508 60.6532 40.8923 60.6154 43.2338 60.3888C44.3668 60.2755 45.4998 60.1622 46.6327 59.9356C47.5391 59.7845 48.4833 59.4824 49.2386 58.9159C50.7115 57.8207 51.1269 55.7436 50.2205 54.1196C49.1631 52.2691 47.0859 52.0425 45.1599 52.2313C42.554 52.4957 40.0237 53.251 37.5311 54.0063C37.0024 54.1951 37.229 55.1015 37.7955 54.9127Z" fill="#553818"/>
</svg>
