<svg width="59" height="63" viewBox="0 0 59 63" fill="none" xmlns="http://www.w3.org/2000/svg">
<path d="M5.62623 3.3517C5.84718 3.31488 6.06813 3.3517 6.28908 3.46217C6.51003 3.60948 6.65733 3.75678 6.69416 3.97773C6.73098 4.16185 6.69416 4.3828 6.58368 4.60375L5.03703 7.58658L5.62623 10.0907C5.69988 10.3853 5.66306 10.6431 5.51576 10.8272C5.36846 11.0113 5.18433 11.1586 4.88973 11.2323C4.59513 11.3059 4.37418 11.2691 4.15323 11.1586C3.93228 11.0481 3.78498 10.8272 3.71133 10.5326L3.12213 8.02848L0.397075 6.03993C0.212949 5.89263 0.0656491 5.74533 0.028824 5.52438C-0.00800101 5.30343 0.028824 5.08248 0.139299 4.86153C0.249774 4.64058 0.470725 4.5301 0.691675 4.45645C0.912625 4.3828 1.1704 4.45645 1.39135 4.60375L3.71133 6.33453L5.00021 3.75678C5.22116 3.57265 5.40528 3.42535 5.62623 3.3517Z" fill="#00A14B"/>
<path d="M11.5918 4.41977C11.7759 4.53025 11.9232 4.71437 11.9969 4.97215L12.8439 8.50735C12.9175 8.7283 12.8439 8.94925 12.7334 9.1702C12.5861 9.35433 12.402 9.50163 12.1074 9.53845C11.8496 9.6121 11.6286 9.57528 11.4445 9.4648C11.2604 9.35433 11.1499 9.20703 11.0763 8.98608C10.9658 9.28068 10.8185 9.50163 10.5975 9.68575C10.3766 9.86988 10.1188 10.0172 9.8242 10.0908C9.16135 10.2381 8.6458 10.1645 8.24072 9.9067C7.83565 9.6121 7.54105 9.13338 7.39375 8.39688L6.87819 6.18737C6.80454 5.9296 6.84137 5.70865 6.98867 5.52452C7.09915 5.3404 7.3201 5.1931 7.6147 5.15627C7.9093 5.08262 8.13025 5.11945 8.31437 5.22992C8.4985 5.3404 8.6458 5.52452 8.71945 5.7823L9.235 8.02863C9.34547 8.50735 9.60325 8.7283 10.0451 8.61783C10.3029 8.54418 10.4871 8.4337 10.5975 8.21275C10.708 7.9918 10.7448 7.73403 10.6712 7.47625L10.1924 5.45087C10.1188 5.1931 10.1556 4.97215 10.3029 4.78802C10.4134 4.6039 10.6344 4.4566 10.929 4.41977C11.1499 4.3093 11.4077 4.3093 11.5918 4.41977Z" fill="#00A14B"/>
<path d="M20.6508 2.57706C21.0191 2.83484 21.3137 3.35039 21.4978 4.12371L22.0133 6.33322C22.087 6.62782 22.0502 6.84877 21.9029 7.03289C21.7556 7.21702 21.5714 7.32749 21.3137 7.40114C21.0559 7.47479 20.8349 7.43797 20.614 7.32749C20.393 7.21702 20.2826 7.03289 20.2089 6.77512L19.6934 4.52879C19.6197 4.27101 19.5461 4.08689 19.3988 3.97641C19.2883 3.90276 19.141 3.86594 18.9568 3.90276C18.7359 3.97641 18.5518 4.08689 18.4413 4.30784C18.3308 4.52879 18.3308 4.74974 18.4045 5.08117L18.8832 7.10654C18.9569 7.40114 18.92 7.6221 18.7727 7.80622C18.6254 7.99035 18.4413 8.10082 18.1835 8.17447C17.9257 8.24812 17.7048 8.2113 17.4838 8.10082C17.2629 7.99035 17.1524 7.80622 17.0788 7.54844L16.5264 5.26529C16.4527 5.00752 16.3791 4.82339 16.2318 4.71292C16.1213 4.63927 15.974 4.60244 15.7899 4.63927C15.5689 4.71292 15.3848 4.82339 15.2743 5.04434C15.1639 5.26529 15.1639 5.48624 15.2375 5.78084L15.7162 7.80622C15.7899 8.10082 15.7531 8.32177 15.6058 8.5059C15.4585 8.69002 15.2743 8.8005 15.0166 8.87415C14.7588 8.9478 14.5378 8.91097 14.3169 8.8005C14.0959 8.69002 13.9855 8.5059 13.9118 8.24812L13.0648 4.71292C12.9912 4.45514 13.028 4.23419 13.1753 4.05006C13.3226 3.86594 13.5067 3.75546 13.7645 3.68181C13.9855 3.60816 14.2064 3.64499 14.3905 3.71864C14.5747 3.79229 14.722 3.97641 14.7588 4.19736C14.9797 3.60816 15.4216 3.23991 16.1213 3.09261C16.8578 2.90849 17.4102 3.09261 17.7784 3.64499C17.9257 3.31356 18.1099 3.05579 18.3676 2.83484C18.6254 2.61389 18.92 2.46659 19.2883 2.35611C19.8038 2.24564 20.2826 2.28246 20.6508 2.57706Z" fill="#00A14B"/>
<path d="M29.8203 0.40543C30.1886 0.663205 30.4832 1.17876 30.6673 1.95208L31.1829 4.16159C31.2565 4.45619 31.2197 4.67714 31.0724 4.86126C30.9251 5.04539 30.741 5.15586 30.4832 5.22951C30.2254 5.30316 30.0045 5.26634 29.7835 5.15586C29.5626 5.04539 29.4521 4.86126 29.3784 4.60349L28.8629 2.35716C28.7892 2.09938 28.7156 1.91526 28.5683 1.80478C28.4578 1.73113 28.3105 1.69431 28.1264 1.73113C27.9054 1.80478 27.7213 1.91526 27.6108 2.13621C27.5004 2.35716 27.5004 2.57811 27.574 2.90953L28.0527 4.93491C28.1264 5.22951 28.0896 5.45046 27.9423 5.63459C27.795 5.81871 27.6108 5.92919 27.3531 6.00284C27.0953 6.07649 26.8743 6.03966 26.6534 5.92919C26.4324 5.81871 26.322 5.63459 26.2483 5.37681L25.7328 3.13048C25.6591 2.87271 25.5855 2.68858 25.4382 2.57811C25.3277 2.50446 25.1804 2.46763 24.9963 2.50446C24.7753 2.57811 24.5912 2.68858 24.4807 2.90953C24.3702 3.13048 24.3702 3.35143 24.4439 3.64603L24.9226 5.67141C24.9963 5.96601 24.9594 6.18696 24.8121 6.37109C24.6648 6.55521 24.4807 6.66569 24.2229 6.73934C23.9652 6.81299 23.7442 6.77617 23.5233 6.66569C23.3023 6.55521 23.1918 6.37109 23.1182 6.11331L22.2712 2.57811C22.1975 2.32033 22.2344 2.09938 22.3817 1.91526C22.529 1.73113 22.7131 1.62066 22.9709 1.54701C23.155 1.47336 23.376 1.47336 23.5601 1.58383C23.7442 1.65748 23.8915 1.84161 23.9283 2.06256C24.1861 1.47336 24.628 1.10511 25.2909 0.920981C26.0274 0.736855 26.5797 0.920981 26.948 1.47336C27.0585 1.17876 27.2426 0.884156 27.4635 0.663205C27.7213 0.442255 28.0159 0.294955 28.3842 0.184479C28.9734 0.0740043 29.4521 0.147654 29.8203 0.40543Z" fill="#00A14B"/>
<path d="M32.4716 4.45718C32.2507 4.30988 32.1034 4.08893 32.0297 3.83115C31.9561 3.53655 31.9929 3.27878 32.1402 3.05783C32.2875 2.83688 32.5085 2.68958 32.7662 2.61593C33.0608 2.54228 33.3186 2.5791 33.5396 2.7264C33.7605 2.8737 33.9078 3.09465 33.9815 3.35243C34.0551 3.64703 34.0183 3.9048 33.871 4.12575C33.7237 4.3467 33.5027 4.494 33.245 4.56765C32.9872 4.6413 32.7294 4.60448 32.4716 4.45718Z" fill="#00A14B"/>
<path d="M35.2704 3.79312C35.0494 3.64582 34.9021 3.42487 34.8285 3.16709C34.7548 2.87249 34.7916 2.61472 34.9389 2.39376C35.0862 2.17281 35.3072 2.02551 35.565 1.95186C35.8596 1.87821 36.1173 1.91504 36.3383 2.06234C36.5592 2.20964 36.7065 2.43059 36.7802 2.68837C36.8538 2.98297 36.817 3.24074 36.6697 3.46169C36.5224 3.68264 36.3015 3.82994 36.0437 3.90359C35.7491 3.97724 35.4913 3.94042 35.2704 3.79312Z" fill="#00A14B"/>
<path d="M4.66885 11.415C4.48473 11.415 4.3006 11.3782 4.1533 11.2677C3.89552 11.1204 3.74822 10.8994 3.67457 10.568L3.08537 8.13756L0.433969 6.18584C0.213019 6.03853 0.0657184 5.81758 0.0288933 5.59663C-0.0447568 5.33886 0.0288933 5.08108 0.176194 4.82331C0.323494 4.56553 0.544444 4.41823 0.80222 4.38141C1.09682 4.30776 1.3546 4.38141 1.61237 4.56553L3.78505 6.18584L5.00028 3.75538C5.14758 3.46078 5.36853 3.31348 5.6263 3.23983C5.88408 3.16618 6.14185 3.23983 6.39963 3.38713C6.6574 3.53443 6.80471 3.75538 6.87836 4.01316C6.91518 4.23411 6.91518 4.49188 6.76788 4.71283L5.22123 7.65884L5.81043 10.0893C5.88408 10.4207 5.84725 10.7153 5.69995 10.9363C5.55265 11.1572 5.29488 11.3045 5.00028 11.3782C4.8898 11.415 4.77933 11.415 4.66885 11.415ZM0.94952 4.60236C0.912695 4.60236 0.839045 4.60236 0.80222 4.60236C0.618094 4.63918 0.470794 4.74966 0.360319 4.93378C0.249844 5.11791 0.213019 5.30203 0.249844 5.48616C0.286669 5.67028 0.397144 5.81759 0.581269 5.92806L3.34315 7.95344L3.93235 10.4944C4.006 10.7521 4.11648 10.9363 4.3006 11.0467C4.48473 11.1572 4.70568 11.1572 4.92663 11.1204C5.1844 11.0467 5.3317 10.9363 5.44218 10.789C5.55265 10.6048 5.58948 10.4207 5.51583 10.1629L4.92663 7.62201L6.5101 4.60236C6.62058 4.41823 6.62058 4.23411 6.58376 4.08681C6.54693 3.90268 6.43645 3.75538 6.25233 3.64491C6.0682 3.53443 5.88408 3.49761 5.69995 3.53443C5.51583 3.57126 5.3317 3.71856 5.25805 3.90268L3.89552 6.62774L1.46507 4.82331C1.24412 4.67601 1.09682 4.60236 0.94952 4.60236Z" fill="#F9F8F7"/>
<path d="M9.19826 10.3476C8.79318 10.3476 8.46176 10.2371 8.16715 10.053C7.72525 9.75837 7.43065 9.20599 7.24653 8.46949L6.73098 6.25998C6.65733 5.96538 6.69415 5.70761 6.84145 5.48666C6.98875 5.26571 7.2097 5.11841 7.54113 5.04476C7.83573 4.97111 8.13033 5.00793 8.35128 5.11841C8.57223 5.26571 8.71953 5.44983 8.79318 5.74443L9.30873 7.99076C9.34556 8.21171 9.45603 8.35901 9.52968 8.43266C9.64016 8.50631 9.75063 8.50631 9.93476 8.46949C10.1557 8.43266 10.303 8.32219 10.3767 8.13806C10.4871 7.95394 10.4871 7.73299 10.4503 7.47521L9.97158 5.44983C9.89793 5.15523 9.93476 4.89746 10.0821 4.67651C10.2294 4.45556 10.4503 4.30826 10.7817 4.23461C11.1132 4.16096 11.3709 4.19778 11.5919 4.30826C11.8128 4.45556 11.9601 4.63968 12.0338 4.93428L12.8808 8.46949C12.9544 8.76409 12.9176 8.98504 12.7335 9.24281C12.5862 9.46377 12.3652 9.61106 12.0338 9.68471C11.7392 9.75837 11.5182 9.72154 11.2973 9.61106C11.1868 9.53742 11.0763 9.46376 11.0027 9.35329C10.8922 9.53741 10.7817 9.68472 10.6344 9.83202C10.4135 10.0161 10.1189 10.1634 9.78746 10.2371C9.64016 10.3107 9.41921 10.3476 9.19826 10.3476ZM7.90938 5.22888C7.83573 5.22888 7.72525 5.22888 7.6516 5.26571C7.39383 5.33936 7.24653 5.41301 7.13605 5.59713C7.02558 5.74443 6.98875 5.92856 7.0624 6.14951L7.57795 8.35901C7.72525 9.05869 8.01985 9.53742 8.38811 9.79519C8.75636 10.053 9.23508 10.1266 9.82428 9.97932C10.1189 9.90567 10.3398 9.79519 10.5608 9.61106C10.7449 9.42694 10.8922 9.20599 11.0027 8.94821L11.15 8.54314L11.2605 8.98504C11.2973 9.16916 11.4078 9.31646 11.5551 9.39011C11.7024 9.46376 11.8865 9.50059 12.1074 9.42694C12.3652 9.35329 12.5125 9.27964 12.623 9.09551C12.7335 8.94821 12.7703 8.76409 12.7335 8.54314L11.8865 5.00793C11.8497 4.78698 11.7392 4.63968 11.5551 4.52921C11.3709 4.41873 11.1868 4.41873 10.929 4.49238C10.6713 4.56603 10.524 4.63968 10.4135 4.82381C10.2662 4.97111 10.2662 5.15523 10.303 5.37618L10.7817 7.40156C10.8554 7.73299 10.8186 7.99076 10.7081 8.24854C10.5608 8.50631 10.3767 8.65361 10.0821 8.72726C9.82428 8.80091 9.60333 8.76409 9.45603 8.61679C9.30873 8.50631 9.16143 8.28536 9.12461 8.02759L8.60906 5.78126C8.57223 5.56031 8.46176 5.41301 8.27763 5.30253C8.13033 5.26571 8.01986 5.22888 7.90938 5.22888Z" fill="#F9F8F7"/>
<path d="M14.7221 9.05914C14.538 9.05914 14.3907 9.02231 14.2434 8.94866C13.9856 8.83819 13.8383 8.61724 13.7647 8.28581L12.9177 4.75061C12.8441 4.456 12.8809 4.1614 13.065 3.97728C13.2491 3.75633 13.4701 3.64585 13.7279 3.5722C13.9856 3.49855 14.2434 3.53538 14.4644 3.64585C14.6117 3.7195 14.7221 3.79315 14.7958 3.94045C15.0536 3.46173 15.4955 3.16713 16.1215 3.01983C16.8212 2.87253 17.3735 2.983 17.7786 3.4249C17.8891 3.16713 18.0364 2.983 18.2573 2.76205C18.5151 2.50428 18.8465 2.35698 19.2148 2.2465C19.804 2.0992 20.3195 2.17285 20.7246 2.46745C21.1297 2.76205 21.4243 3.31443 21.6084 4.12458L22.124 6.33408C22.1976 6.66551 22.1608 6.92328 21.9767 7.14423C21.8294 7.36518 21.5716 7.47566 21.3138 7.54931C21.0192 7.62296 20.7614 7.58613 20.5405 7.47566C20.2827 7.36518 20.1354 7.14423 20.0618 6.81281L19.5462 4.56648C19.4726 4.27188 19.3989 4.1614 19.3253 4.12458C19.2516 4.05093 19.1411 4.05093 18.9938 4.08775C18.8097 4.12458 18.6624 4.23505 18.5888 4.41918C18.5151 4.60331 18.4783 4.82426 18.5519 5.08203L19.0307 7.10741C19.1043 7.43883 19.0675 7.69661 18.8834 7.91756C18.7361 8.13851 18.5151 8.24899 18.1837 8.32264C17.8891 8.39629 17.6313 8.35946 17.4104 8.24899C17.1526 8.13851 17.0053 7.91756 16.9316 7.58613L16.4161 5.33981C16.3424 5.04521 16.2688 4.93473 16.1951 4.89791C16.0478 4.78743 15.9374 4.75061 15.7901 4.78743C15.6059 4.82426 15.4586 4.93473 15.385 5.11886C15.3113 5.30298 15.2745 5.52393 15.3482 5.78171L15.8269 7.80709C15.9005 8.13851 15.8637 8.39629 15.6796 8.61724C15.5323 8.83819 15.2745 8.94866 15.0167 9.02231C14.9063 9.02231 14.7958 9.05914 14.7221 9.05914ZM14.0593 3.79315C13.9856 3.79315 13.912 3.79315 13.8383 3.82998C13.6174 3.8668 13.4333 3.97728 13.3228 4.1614C13.2123 4.3087 13.1755 4.49283 13.2123 4.71378L14.0593 8.24899C14.1329 8.46994 14.2066 8.65406 14.3907 8.72771C14.5748 8.80136 14.759 8.83819 14.9799 8.76454C15.2009 8.72771 15.385 8.61724 15.4955 8.46994C15.6059 8.32264 15.6428 8.13851 15.5691 7.88073L15.0904 5.85536C15.0167 5.52393 15.0167 5.22933 15.1272 5.00838C15.2377 4.75061 15.4586 4.60331 15.7164 4.52966C15.9374 4.49283 16.1215 4.49283 16.2688 4.60331C16.4161 4.71378 16.5266 4.89791 16.6002 5.22933L17.1158 7.47566C17.1894 7.69661 17.2631 7.88074 17.4472 7.95439C17.6313 8.02804 17.8154 8.06486 18.0364 7.99121C18.2573 7.91756 18.4415 7.84391 18.5519 7.65978C18.6624 7.51248 18.6992 7.32836 18.6256 7.07058L18.1469 5.04521C18.0732 4.71378 18.0732 4.41918 18.2205 4.19823C18.331 3.94045 18.5519 3.79315 18.8097 3.7195C19.0307 3.68268 19.2148 3.68268 19.3621 3.79315C19.5094 3.90363 19.6199 4.08775 19.6935 4.41918L20.2091 6.66551C20.2827 6.88646 20.3564 7.07058 20.5405 7.14423C20.7246 7.21788 20.9087 7.25471 21.1297 7.18106C21.3506 7.14423 21.5348 7.03376 21.6452 6.88646C21.7557 6.73916 21.7925 6.55503 21.7189 6.29726L21.2033 4.08775C21.0192 3.35125 20.7614 2.8357 20.43 2.61475C20.0986 2.3938 19.6567 2.32015 19.1411 2.43063C18.957 2.57793 18.6624 2.72523 18.4415 2.94618C18.2205 3.16713 18.0364 3.4249 17.9627 3.68268L17.8891 3.94045L17.7418 3.7195C17.3735 3.24078 16.8948 3.05665 16.232 3.24078C15.5691 3.38808 15.164 3.7195 14.9799 4.27188L14.8326 4.67696L14.7221 4.27188C14.6853 4.08775 14.5748 3.94045 14.4275 3.8668C14.2434 3.79315 14.1698 3.79315 14.0593 3.79315Z" fill="#F9F8F7"/>
<path d="M23.8546 6.88629C23.6705 6.88629 23.5232 6.84946 23.3759 6.77581C23.1181 6.66533 22.9708 6.44438 22.8972 6.11296L22.087 2.57775C22.0134 2.28315 22.0502 1.98855 22.2343 1.80443C22.4184 1.58348 22.6394 1.473 22.8972 1.39935C23.1549 1.3257 23.4127 1.36253 23.6337 1.473C23.781 1.54665 23.8914 1.6203 23.9651 1.7676C24.2229 1.28888 24.6648 0.994276 25.2908 0.846976C25.9905 0.699676 26.5429 0.810151 26.9479 1.25205C27.0584 0.994277 27.2057 0.810151 27.4267 0.589201C27.6844 0.331426 28.0159 0.184125 28.3841 0.0736501C28.9733 -0.0736501 29.4889 0 29.8939 0.2946C30.299 0.589201 30.5936 1.14158 30.7777 1.95173L31.2933 4.16123C31.3669 4.49266 31.3301 4.75043 31.146 4.97138C30.9987 5.19233 30.7409 5.30281 30.4831 5.37646C30.1885 5.45011 29.9308 5.41328 29.7098 5.30281C29.452 5.19233 29.3047 4.97138 29.2311 4.63996L28.7155 2.39363C28.6419 2.09903 28.5682 1.98855 28.4946 1.95173C28.4209 1.87808 28.3105 1.87808 28.1632 1.9149C27.9422 1.9149 27.7949 2.02538 27.7213 2.2095C27.6476 2.39363 27.6108 2.61458 27.6844 2.87235L28.1632 4.89773C28.2368 5.22916 28.2 5.48693 28.0159 5.70788C27.8686 5.92883 27.6476 6.03931 27.3162 6.11296C27.0216 6.18661 26.7638 6.14978 26.5428 6.03931C26.2851 5.92883 26.1378 5.70788 26.0641 5.37646L25.5486 3.13013C25.4749 2.83553 25.4013 2.72505 25.3276 2.68823C25.254 2.61458 25.1435 2.61458 24.9962 2.6514C24.7752 2.68823 24.6279 2.76188 24.5543 2.946C24.4806 3.13013 24.4438 3.35108 24.5175 3.60886L24.9962 5.63423C25.0698 5.96566 25.033 6.22343 24.8489 6.44438C24.7016 6.66534 24.4438 6.77581 24.186 6.84946C24.0756 6.88629 23.9651 6.88629 23.8546 6.88629ZM23.1918 1.6203C23.1181 1.6203 23.0445 1.6203 22.9708 1.65713C22.7499 1.69395 22.5657 1.80443 22.4553 1.98855C22.3448 2.13585 22.308 2.31998 22.3448 2.54093L23.1918 6.07613C23.2654 6.29708 23.3391 6.48121 23.5232 6.55486C23.7073 6.62851 23.8914 6.66533 24.1124 6.59168C24.3333 6.55486 24.5175 6.44438 24.6279 6.29708C24.7384 6.14978 24.7752 5.96566 24.7016 5.70788L24.2597 3.68251C24.186 3.35108 24.186 3.05648 24.2965 2.83553C24.407 2.57775 24.6279 2.43045 24.8857 2.3568C25.1067 2.31998 25.2908 2.31998 25.4381 2.43045C25.5854 2.54093 25.6959 2.72505 25.7695 3.05648L26.2851 5.30281C26.3587 5.52376 26.4324 5.70788 26.6165 5.78153C26.8006 5.85518 26.9848 5.89201 27.2057 5.81836C27.4267 5.74471 27.6108 5.67106 27.7213 5.48693C27.8317 5.33963 27.8686 5.15551 27.7949 4.89773L27.3162 2.87235C27.2425 2.54093 27.2425 2.24633 27.3898 2.02538C27.574 1.84125 27.7949 1.69395 28.0527 1.6203C28.2736 1.58348 28.4578 1.58348 28.6051 1.69395C28.7524 1.80443 28.8628 1.98855 28.9365 2.31998L29.452 4.56631C29.5257 4.78726 29.5993 4.97138 29.7835 5.04503C29.9676 5.11868 30.1517 5.15551 30.3727 5.08186C30.5936 5.04503 30.7777 4.93456 30.8882 4.78726C30.9987 4.63996 31.0355 4.45583 30.9619 4.19806L30.4463 1.98855C30.2622 1.25205 30.0044 0.736501 29.673 0.515551C29.3416 0.2946 28.8997 0.22095 28.3841 0.331425C28.0527 0.405076 27.7581 0.552376 27.5371 0.773326C27.3162 0.994276 27.132 1.25205 27.0584 1.50983L26.9848 1.7676L26.8375 1.54665C26.4692 1.06793 25.9905 0.883801 25.3276 1.06793C24.6648 1.21523 24.2597 1.54665 24.0756 2.09903L23.9283 2.5041L23.8178 2.09903C23.781 1.9149 23.6705 1.7676 23.5232 1.69395C23.4127 1.65713 23.3022 1.6203 23.1918 1.6203Z" fill="#F9F8F7"/>
<path d="M32.9873 4.71394C32.7663 4.71394 32.5822 4.64029 32.3981 4.52982C32.1403 4.38252 31.9562 4.12474 31.8825 3.79331C31.8089 3.46189 31.8457 3.16729 32.0298 2.90951C32.1771 2.65174 32.4349 2.46761 32.7664 2.39396C33.0978 2.32031 33.3924 2.35714 33.6502 2.54126C33.9079 2.72539 34.0921 2.94634 34.1657 3.27776C34.2394 3.60919 34.2025 3.90379 34.0184 4.16156C33.8711 4.41934 33.6133 4.60347 33.2819 4.67712C33.1714 4.71394 33.0978 4.71394 32.9873 4.71394ZM33.061 2.68856C32.9873 2.68856 32.9137 2.68856 32.84 2.72539C32.5822 2.79904 32.3981 2.90951 32.2876 3.13046C32.1772 3.35141 32.1403 3.53554 32.1771 3.79331C32.2508 4.05109 32.3613 4.23522 32.5454 4.34569C32.7295 4.45617 32.9505 4.49299 33.2083 4.45617C33.466 4.38252 33.6133 4.27204 33.7606 4.05109C33.8711 3.83014 33.9079 3.64601 33.8711 3.38824C33.7975 3.13046 33.687 2.94634 33.5029 2.83586C33.3556 2.72539 33.2083 2.68856 33.061 2.68856Z" fill="#F9F8F7"/>
<path d="M35.7861 4.08699C35.5651 4.08699 35.381 4.01334 35.1969 3.90286C34.9391 3.75556 34.755 3.49779 34.6813 3.16636C34.6077 2.83494 34.6445 2.54034 34.8286 2.28256C34.9759 2.02478 35.2337 1.84066 35.5651 1.76701C35.8965 1.69336 36.1911 1.73018 36.4489 1.91431C36.7067 2.06161 36.8908 2.31938 36.9645 2.65081C37.0381 2.98224 37.0013 3.27684 36.8172 3.53461C36.6699 3.79239 36.4121 3.97651 36.0807 4.05016C35.9702 4.05016 35.8597 4.08699 35.7861 4.08699ZM35.8229 2.02478C35.7492 2.02478 35.6756 2.02478 35.6019 2.06161C35.3442 2.13526 35.16 2.24573 35.0496 2.46668C34.9391 2.68764 34.9023 2.87176 34.9391 3.12954C35.0127 3.38731 35.1232 3.57144 35.3073 3.68191C35.4915 3.79239 35.7124 3.82921 35.9702 3.79239C36.228 3.71874 36.3753 3.60826 36.5226 3.38731C36.633 3.16636 36.6699 2.98224 36.633 2.72446C36.5594 2.46669 36.4489 2.28256 36.2648 2.17208C36.1175 2.06161 35.9702 2.02478 35.8229 2.02478Z" fill="#F9F8F7"/>
<path d="M46.6943 51.0678L45.5638 48.5879L44.105 46.8738L43.0839 46.3997L41.8075 46.3633L40.9322 46.9103L40.604 48.3691L40.7863 50.9949L41.3334 53.3654L39.1087 52.4536L36.9206 52.3807L38.5982 54.6783L41.6981 55.9547L44.9438 56.5017L46.4755 56.1735L47.0226 55.4806L47.2414 54.3865L46.6943 51.0678ZM44.1415 51.2137L43.5215 51.7242L43.2298 52.1619L42.6098 50.3384L42.8651 49.4267L43.485 49.1714L43.8862 49.3902L44.5426 50.7031L44.6156 51.2137H44.1415Z" fill="#C76E4E"/>
<path d="M44.9074 56.6121L41.6616 56.0651L38.5253 54.7887V54.7522L36.7383 52.3088L39.1452 52.3817L41.224 53.2205L40.7134 50.9959L40.5311 48.3336L40.8593 46.8384L41.771 46.2549L43.1204 46.2914L44.178 46.8019L45.6368 48.5524L46.7673 51.0688L47.2779 54.3875L47.0591 55.5181L46.4755 56.2474L44.9074 56.6121ZM38.5982 54.6428L41.6981 55.9192L44.9074 56.4662L46.4026 56.138L46.9132 55.4816L47.0955 54.424L46.585 51.1418L45.4544 48.6618L44.0321 46.9478L43.0474 46.4737L41.8075 46.4372L40.9687 46.9478L40.6405 48.3701L40.8228 50.9959L41.4063 53.5122L39.0723 52.5276L37.0665 52.4546L38.5982 54.6428ZM43.2298 52.3452L42.5733 50.3394L42.8286 49.3548L43.5215 49.063L43.9956 49.3183L44.6521 50.6677L44.725 51.2512L44.178 51.2876L43.5945 51.7617L43.2298 52.3452ZM42.7557 50.303L43.3027 51.9441L43.4851 51.6523L44.1415 51.1418L44.5427 51.1053L44.5062 50.7041L43.8862 49.4277L43.5215 49.2089L42.9745 49.4642L42.7557 50.303Z" fill="#85422A"/>
<path d="M43.8134 52.2721C43.8134 52.2357 43.8134 52.1992 43.8134 52.1627C43.8134 52.2721 43.8134 52.1992 43.8134 52.1627C43.8134 52.1263 43.8499 52.0898 43.8499 52.0168C43.8134 52.0898 43.8499 52.0168 43.8863 51.9804C43.9228 51.9439 43.9228 51.9074 43.9228 51.871C43.9228 51.8345 43.9593 51.8345 43.9593 51.798C43.9228 51.8345 43.9228 51.8345 43.9593 51.798C43.9957 51.7616 43.9958 51.7251 44.0322 51.7251C44.0687 51.6886 44.0687 51.6886 44.1052 51.6886C44.0687 51.7251 44.0687 51.7251 44.1052 51.6886C44.1781 51.6522 44.324 51.6157 44.4334 51.6522C44.4699 51.6886 44.4699 51.6886 44.4334 51.6522C44.4699 51.6522 44.4698 51.6886 44.5063 51.6886C44.5063 51.6886 44.6157 51.7616 44.5428 51.7251C44.6157 51.798 44.6887 51.871 44.7251 51.9074C44.944 52.2357 44.9804 52.6733 44.871 53.038C44.7616 53.4391 44.5063 53.8038 44.1781 54.0956C43.7769 54.4603 44.3969 55.0803 44.7616 54.6791C45.4545 53.9862 45.9286 53.0015 45.6369 52.0168C45.491 51.5792 45.2357 51.1051 44.7616 50.8863C44.2875 50.6675 43.7769 50.7769 43.4122 51.1051C43.1205 51.3604 42.8652 51.8345 42.9017 52.2357C42.9017 52.4545 43.084 52.6368 43.3028 52.6368C43.5946 52.6733 43.8134 52.4909 43.8134 52.2721Z" fill="#85422A"/>
<path d="M45.1261 51.1051C44.9802 50.5945 44.7614 50.0839 44.4696 49.6828C44.1779 49.2816 43.7767 48.771 43.1932 48.8075C41.9897 48.9169 42.3179 50.7039 42.5367 51.4698C42.6826 52.0533 42.9744 52.5638 43.3026 53.0379C43.4485 53.2203 43.6673 53.3297 43.8861 53.1838C44.0685 53.0744 44.1779 52.7827 44.032 52.6003C43.4485 51.8345 43.0838 50.8133 43.1932 49.8287C43.1932 49.8651 43.1932 49.7557 43.1932 49.7557C43.1932 49.7557 43.2297 49.6098 43.2297 49.6828C43.2297 49.6463 43.2661 49.6463 43.2661 49.6463C43.2297 49.6463 43.2297 49.6463 43.3026 49.6463C43.4485 49.6828 43.5944 49.8651 43.7038 50.011C44.032 50.4122 44.2143 50.8498 44.3602 51.3239C44.4696 51.8345 45.2719 51.6156 45.1261 51.1051Z" fill="#85422A"/>
<path d="M34.4773 52.6381C36.3737 52.0181 38.4889 52.6016 40.2394 53.3675C41.8076 54.0604 43.3028 54.8992 45.0898 54.8262C45.6369 54.7898 45.6369 53.951 45.0898 53.9874C43.2299 54.0604 41.6982 53.0392 40.0206 52.3828C38.1972 51.6534 36.1549 51.1793 34.222 51.7993C33.7479 51.9816 33.9667 52.784 34.4773 52.6381Z" fill="#85422A"/>
<path d="M41.9169 53.2208C41.5158 52.382 41.2605 51.5067 41.1146 50.595C40.9687 49.7562 40.8958 48.7715 41.0782 47.9328C41.2605 47.1304 41.8805 46.6928 42.7193 46.7657C43.5216 46.8387 44.178 47.3857 44.6521 47.9692C45.7827 49.3915 46.5121 51.2879 46.7309 53.1114C46.8038 53.8408 46.9862 55.1901 46.4027 55.7736C45.8556 56.3207 44.7615 56.1748 44.0686 56.0654C42.0993 55.8101 40.2758 54.8984 38.8535 53.549C38.4524 53.1843 37.8689 53.7678 38.27 54.1325C39.8017 55.6278 41.8075 56.6124 43.9228 56.9042C44.8345 57.0136 45.965 57.123 46.7673 56.5759C47.6426 55.956 47.6426 54.8254 47.6426 53.8772C47.5697 51.6526 46.7673 49.3551 45.418 47.6045C44.8345 46.8751 44.0686 46.1822 43.1204 46.0364C42.2816 45.8905 41.3699 46.1093 40.7864 46.7657C40.057 47.641 40.1664 49.0268 40.2758 50.0844C40.3852 51.3609 40.7135 52.5643 41.2605 53.7314C41.4428 54.1325 42.1722 53.7314 41.9169 53.2208Z" fill="#85422A"/>
<path d="M27.8034 54.571C25.1411 53.9875 24.2294 53.6228 22.333 53.5499C20.4366 53.4769 19.2696 53.6957 17.7014 54.7534C16.1697 55.7745 15.3674 57.7803 15.7686 59.5673C15.9144 60.2967 16.2427 60.9896 16.7897 61.4637C17.4461 62.0472 18.3214 62.3389 19.2331 62.3389C20.1084 62.3754 20.9836 62.1931 21.8589 61.9742C25.2141 61.1355 28.788 60.1508 31.815 58.5097" fill="#C76E4E"/>
<path d="M27.9128 54.1331C25.9069 53.6954 23.9376 53.1119 21.8953 53.0755C19.7801 53.039 17.519 53.8048 16.2426 55.5918C15.0027 57.3424 14.8568 60.0411 16.425 61.6457C18.3578 63.5786 21.4212 62.5574 23.6823 61.9375C26.5269 61.1716 29.408 60.2599 32.0338 58.8741C32.5079 58.6188 32.1067 57.8894 31.5961 58.1447C29.5174 59.2388 27.2928 60.0411 25.0317 60.6975C23.9011 61.0257 22.7341 61.3175 21.5671 61.6092C20.4366 61.901 19.1966 62.1198 18.0296 61.6822C15.9144 60.9163 15.6591 58.1811 16.6438 56.4306C17.6284 54.7166 19.6707 53.9143 21.5671 53.8778C23.6823 53.8413 25.6517 54.4248 27.6575 54.8989C28.241 55.0813 28.4598 54.2789 27.9128 54.1331Z" fill="#85422A"/>
<path d="M18.7589 54.4971L17.1543 55.2265L15.6955 57.5605L15.9872 60.2227L16.9719 61.6086L18.9777 62.5203L21.0565 61.9732L21.9682 60.6239L22.2964 58.4357L21.4212 56.0288L18.7589 54.4971Z" fill="#985535"/>
<path d="M27.9128 54.1331C25.9069 53.6954 23.9376 53.1119 21.8953 53.0755C19.7801 53.039 17.519 53.8048 16.2426 55.5918C15.0027 57.3424 14.8568 60.0411 16.425 61.6457C18.3578 63.5786 21.4212 62.5574 23.6823 61.9375C26.5269 61.1716 29.408 60.2599 32.0338 58.8741C32.5079 58.6188 32.1067 57.8894 31.5961 58.1447C29.5174 59.2388 27.2928 60.0411 25.0317 60.6975C23.9011 61.0257 22.7341 61.3175 21.5671 61.6092C20.4366 61.901 19.1966 62.1198 18.0296 61.6822C15.9144 60.9163 15.6591 58.1811 16.6438 56.4306C17.6284 54.7166 19.6707 53.9143 21.5671 53.8778C23.6823 53.8413 25.6517 54.4248 27.6575 54.8989C28.241 55.0813 28.4598 54.2789 27.9128 54.1331Z" fill="#85422A"/>
<path d="M17.9567 55.0803C19.6708 54.9344 21.0931 56.1015 21.6036 57.6696C22.1507 59.3107 21.786 61.1707 20.0719 61.9365C19.5978 62.1553 19.999 62.8847 20.5095 62.6659C22.5518 61.7906 23.0989 59.4566 22.4424 57.4508C22.1507 56.5026 21.6036 55.6274 20.7648 55.0439C19.9625 54.4968 18.9414 54.1686 17.9932 54.2415C17.4461 54.278 17.4097 55.1168 17.9567 55.0803Z" fill="#85422A"/>
<path d="M35.6079 54.4245C38.2702 53.841 39.1819 53.4763 41.0783 53.4034C42.9747 53.3304 44.1417 53.5493 45.7099 54.6069C47.2416 55.628 48.0439 57.6338 47.6427 59.4208C47.4969 60.1502 47.1322 60.8431 46.6216 61.3172C45.9652 61.9007 45.0899 62.1925 44.1782 62.1925C43.3029 62.2289 42.4277 62.0466 41.5524 61.8278C38.1972 60.989 34.6233 60.0043 31.5963 58.3632" fill="#C76E4E"/>
<path d="M35.7172 54.8265C37.4313 54.4254 39.1453 53.9148 40.9323 53.8419C42.8652 53.7689 44.9439 54.1336 46.2568 55.7018C47.4968 57.1606 47.825 59.8593 46.1839 61.1357C45.1992 61.9016 43.8498 61.9016 42.6828 61.6828C41.5523 61.4639 40.4217 61.1722 39.2912 60.844C36.7019 60.151 34.149 59.3123 31.7785 58.0358C31.3044 57.7806 30.8668 58.5099 31.3409 58.7652C33.6749 60.0052 36.1913 60.844 38.7442 61.5733C40.057 61.938 41.4064 62.3392 42.7922 62.558C43.9592 62.7404 45.2721 62.7039 46.2933 62.0474C48.2626 60.844 48.4814 58.0723 47.5332 56.1759C46.585 54.243 44.3969 53.149 42.3181 53.0031C39.9476 52.8572 37.723 53.5137 35.4619 54.0242C34.9878 54.1336 35.2066 54.936 35.7172 54.8265Z" fill="#85422A"/>
<path d="M44.6523 54.3516L46.2935 55.0809L47.7158 57.415L47.424 60.0772L46.4393 61.463L44.4335 62.3748L42.3913 61.8277L41.4431 60.4784L41.1513 58.3267L41.9901 55.9197L44.6523 54.3516Z" fill="#985535"/>
<path d="M35.7172 54.8265C37.4313 54.4254 39.1453 53.9148 40.9323 53.8419C42.8652 53.7689 44.9439 54.1336 46.2568 55.7018C47.4968 57.1606 47.825 59.8593 46.1839 61.1357C45.1992 61.9016 43.8498 61.9016 42.6828 61.6828C41.5523 61.4639 40.4217 61.1722 39.2912 60.844C36.7019 60.151 34.149 59.3123 31.7785 58.0358C31.3044 57.7806 30.8668 58.5099 31.3409 58.7652C33.6749 60.0052 36.1913 60.844 38.7442 61.5733C40.057 61.938 41.4064 62.3392 42.7922 62.558C43.9592 62.7404 45.2721 62.7039 46.2933 62.0474C48.2626 60.844 48.4814 58.0723 47.5332 56.1759C46.585 54.243 44.3969 53.149 42.3181 53.0031C39.9476 52.8572 37.723 53.5137 35.4619 54.0242C34.9878 54.1336 35.2066 54.936 35.7172 54.8265Z" fill="#85422A"/>
<path d="M45.4546 54.097C44.5064 54.0241 43.4852 54.3523 42.7194 54.8629C41.8806 55.4464 41.2971 56.3216 41.0053 57.2698C40.3489 59.2392 40.8959 61.5732 42.9382 62.4849C43.4123 62.7038 43.8499 61.9744 43.3758 61.7556C41.6618 60.9897 41.2971 59.1662 41.8441 57.4887C42.3547 55.9205 43.8135 54.7899 45.491 54.8994C46.0016 54.9723 46.0016 54.1335 45.4546 54.097Z" fill="#85422A"/>
<path d="M39.1451 51.5434C39.0722 57.415 35.717 59.6761 31.596 59.6396C27.475 59.6031 24.1563 57.2691 24.1927 51.3976C24.2657 45.526 27.6938 36.0076 31.8148 36.044C35.9723 36.0805 39.218 45.6719 39.1451 51.5434Z" fill="#C76E4E"/>
<path d="M31.8878 39.874C31.742 39.874 31.5596 39.874 31.3773 39.9105C30.5749 40.0199 29.8456 40.6034 29.335 41.4422C27.6574 44.0315 26.4539 47.8608 26.2351 50.7054C25.9069 55.5193 28.4962 57.5616 31.8878 57.8168C32.3984 57.8533 32.909 57.8533 33.4195 57.7804C35.3524 57.5616 36.957 55.4828 37.1394 52.9665C37.1394 52.93 37.1394 52.93 37.1394 52.93C37.4311 48.0796 35.243 40.0928 31.8878 39.874Z" fill="#FCD3B2"/>
<path d="M31.7054 60.0773C31.669 60.0773 31.6325 60.0773 31.596 60.0773C29.2255 60.0408 23.6822 59.1655 23.7552 51.3976C23.7916 49.2824 24.2293 46.6566 24.9951 44.2132H25.0316C25.2139 43.0462 26.8915 39.3992 28.0221 37.9769C29.2985 36.3723 30.5384 35.6064 31.8149 35.6064H31.8513C36.5194 35.6429 39.6557 46.0002 39.6193 51.5435C39.5098 59.2385 34.1124 60.0773 31.7054 60.0773ZM25.8704 44.432C25.1045 46.8389 24.6669 49.3918 24.6304 51.3976C24.5575 58.1444 28.9703 59.1655 31.596 59.202C34.2218 59.2385 38.6346 58.2538 38.7075 51.5435C38.7805 45.8907 35.5712 36.5182 31.8149 36.4817C31.8149 36.4817 31.8149 36.4817 31.7784 36.4817C30.7937 36.4817 29.7361 37.1746 28.6785 38.524C27.1833 40.4204 25.9798 44.1038 25.8704 44.432Z" fill="#85422A"/>
<path d="M11.0639 30.4657C16.059 30.4657 20.1083 26.4164 20.1083 21.4213C20.1083 16.4262 16.059 12.377 11.0639 12.377C6.06889 12.377 2.01959 16.4262 2.01959 21.4213C2.01959 26.4164 6.06889 30.4657 11.0639 30.4657Z" fill="#C76E4E"/>
<path d="M11.064 30.9024C5.84886 30.9024 1.58197 26.6355 1.58197 21.4205C1.58197 16.2054 5.84886 11.9385 11.064 11.9385C16.279 11.9385 20.5459 16.2054 20.5459 21.4205C20.5459 26.6355 16.279 30.9024 11.064 30.9024ZM11.064 12.8137C6.32296 12.8137 2.45723 16.6795 2.45723 21.4205C2.45723 26.1614 6.32296 30.0272 11.064 30.0272C15.8049 30.0272 19.6707 26.1614 19.6707 21.4205C19.6342 16.643 15.8049 12.8137 11.064 12.8137Z" fill="#85422A"/>
<path d="M11.0638 26.3447C13.7829 26.3447 15.9871 24.1405 15.9871 21.4214C15.9871 18.7023 13.7829 16.498 11.0638 16.498C8.34469 16.498 6.14044 18.7023 6.14044 21.4214C6.14044 24.1405 8.34469 26.3447 11.0638 26.3447Z" fill="#FCD3B2"/>
<path d="M48.7732 28.0965C53.7682 28.0965 57.8175 24.0472 57.8175 19.0522C57.8175 14.0571 53.7682 10.0078 48.7732 10.0078C43.7781 10.0078 39.7288 14.0571 39.7288 19.0522C39.7288 24.0472 43.7781 28.0965 48.7732 28.0965Z" fill="#C76E4E"/>
<path d="M48.7731 28.5333C43.558 28.5333 39.2911 24.2664 39.2911 19.0513C39.2911 13.8362 43.558 9.56934 48.7731 9.56934C53.9882 9.56934 58.2551 13.8362 58.2551 19.0513C58.2551 24.2664 53.9882 28.5333 48.7731 28.5333ZM48.7731 10.4446C44.0321 10.4446 40.1664 14.3103 40.1664 19.0513C40.1664 23.7923 44.0321 27.658 48.7731 27.658C53.5141 27.658 57.3798 23.7923 57.3798 19.0513C57.3798 14.3103 53.5141 10.4446 48.7731 10.4446Z" fill="#85422A"/>
<path d="M48.7731 23.9736C51.4922 23.9736 53.6965 21.7694 53.6965 19.0503C53.6965 16.3312 51.4922 14.127 48.7731 14.127C46.054 14.127 43.8498 16.3312 43.8498 19.0503C43.8498 21.7694 46.054 23.9736 48.7731 23.9736Z" fill="#FCD3B2"/>
<path d="M51.0341 26.5997C51.3258 36.3005 43.1203 43.8496 31.6325 44.3966C19.9988 44.9801 9.24042 38.1604 9.38629 26.855C9.4957 18.7953 17.8836 7.59924 28.4232 7.08867C40.9321 6.54163 50.7423 15.3307 51.0341 26.5997Z" fill="#C76E4E"/>
<path d="M45.1626 26.7089C45.6732 25.5784 45.9285 24.3384 45.7461 23.062C45.2355 19.0504 41.1145 16.2423 36.5559 16.8258C33.456 17.2269 31.1949 18.5763 30.0644 20.9833C28.3503 18.941 24.8493 17.1175 21.7494 17.4822C17.1908 18.0657 14.2732 22.9526 14.7838 26.9642C14.8932 27.9124 15.2214 28.7512 15.6955 29.5535C14.0179 30.7205 13.6897 31.9969 13.9085 33.711C14.492 38.4155 21.7494 42.0989 31.3773 41.8436C40.7863 41.5519 47.9343 34.9874 47.3507 30.2464C47.1684 28.8971 46.4025 27.6936 45.1626 26.7089Z" fill="#FCD3B2"/>
<path d="M28.8973 34.329C28.8973 34.329 29.4079 37.3924 31.5961 37.1736C33.7113 36.9548 33.6748 33.8549 33.6748 33.8549L31.0125 32.542L28.8973 34.329Z" fill="#F48DAC"/>
<path d="M24.2293 32.4699C25.1775 35.5697 30.0279 35.4968 31.1949 32.6157C31.0125 32.6887 30.8302 32.7616 30.6843 32.8346C31.9243 33.6734 33.7477 34.5121 35.243 33.8922C36.2641 33.491 37.0299 32.4334 37.1758 31.3758C37.2488 30.9382 36.5558 30.7193 36.4829 31.1934C36.3735 32.0687 35.8265 32.944 34.9512 33.2722C33.6748 33.7828 32.0701 32.944 31.0125 32.2511C30.7937 32.1052 30.5749 32.2511 30.502 32.4699C29.5902 34.731 25.6516 34.6945 24.9222 32.324C24.8128 31.8134 24.1199 32.0322 24.2293 32.4699Z" fill="#704130"/>
<path d="M30.8328 32.5764C32.0989 32.4923 33.0917 31.9191 33.0503 31.2961C33.0089 30.673 31.949 30.2362 30.6829 30.3203C29.4168 30.4045 28.4239 30.9777 28.4653 31.6007C28.5067 32.2237 29.5667 32.6606 30.8328 32.5764Z" fill="#704130"/>
<path d="M43.629 30.1519C43.7139 28.9464 42.5124 27.8796 40.9453 27.7692C39.3782 27.6587 38.039 28.5464 37.954 29.7519C37.869 30.9574 39.0706 32.0241 40.6377 32.1346C42.2048 32.245 43.544 31.3573 43.629 30.1519Z" fill="#F48DAC"/>
<path d="M23.4044 31.1938C23.4893 29.9884 22.2878 28.9216 20.7207 28.8112C19.1536 28.7007 17.8144 29.5884 17.7294 30.7939C17.6444 31.9993 18.8459 33.0661 20.413 33.1765C21.9801 33.287 23.3194 32.3993 23.4044 31.1938Z" fill="#F48DAC"/>
<path d="M37.7287 29.8809C38.494 29.8787 39.1121 29.0442 39.1091 28.017C39.1062 26.9898 38.4833 26.1588 37.7179 26.161C36.9525 26.1632 36.3345 26.9978 36.3375 28.025C36.3404 29.0522 36.9633 29.8831 37.7287 29.8809Z" fill="#010101"/>
<path d="M37.3247 28.8967C37.5664 28.8959 37.7612 28.5035 37.7597 28.0201C37.7583 27.5367 37.5612 27.1454 37.3195 27.1461C37.0778 27.1469 36.883 27.5393 36.8845 28.0227C36.8859 28.5061 37.083 28.8974 37.3247 28.8967Z" fill="white"/>
<path d="M22.5617 30.4998C23.327 30.4958 23.9432 29.6599 23.9378 28.6327C23.9325 27.6055 23.3078 26.776 22.5424 26.7799C21.777 26.7839 21.1609 27.6198 21.1662 28.647C21.1715 29.6742 21.7963 30.5037 22.5617 30.4998Z" fill="#010101"/>
<path d="M23.0673 29.5148C23.309 29.5135 23.5029 29.1206 23.5003 28.6372C23.4978 28.1538 23.2997 27.763 23.0581 27.7643C22.8164 27.7656 22.6225 28.1585 22.6251 28.6419C22.6276 29.1253 22.8256 29.5161 23.0673 29.5148Z" fill="white"/>
<path d="M30.3196 44.8704C23.974 44.8704 17.9201 42.6822 13.9449 38.853C10.6262 35.6437 8.87572 31.4862 8.94866 26.8546C9.05807 18.175 18.066 7.16128 28.3867 6.68718C34.7688 6.39543 40.7133 8.47417 45.0896 12.5222C49.0647 16.2056 51.3258 21.2019 51.5082 26.5993C51.7999 36.5919 43.4485 44.2869 31.6689 44.8704C31.1948 44.8704 30.7572 44.8704 30.3196 44.8704ZM29.5537 7.52597C29.189 7.52597 28.7879 7.52597 28.4232 7.56244C17.7742 8.03654 9.89686 19.4514 9.82392 26.8911C9.75098 31.2674 11.3921 35.2061 14.5649 38.233C18.6495 42.1717 24.9951 44.3234 31.6325 43.9951C42.9014 43.4481 50.8882 36.1543 50.6329 26.6358C50.487 21.4937 48.2989 16.7162 44.5061 13.1787C40.531 9.49531 35.2794 7.52597 29.5537 7.52597Z" fill="#85422A"/>
<path d="M31.3773 36.5557C30.1738 36.5192 29.1891 37.5039 29.1527 38.7074L29.0797 42.2449C29.0432 43.4483 30.0279 44.433 31.2314 44.4695C32.4349 44.5059 33.4195 43.5213 33.456 42.3178L33.529 38.7803C33.529 37.5768 32.5443 36.5921 31.3773 36.5557Z" fill="#24B34B"/>
<path d="M31.2678 44.6886H31.2313C29.882 44.6522 28.8244 43.5581 28.8608 42.2087L28.9338 38.6712C28.9702 37.3219 30.0643 36.2643 31.4137 36.3007C32.763 36.3372 33.8206 37.4313 33.7842 38.7806L33.7112 42.3181C33.6748 43.631 32.5807 44.6886 31.2678 44.6886ZM31.3407 36.8113C30.2831 36.8113 29.4443 37.6501 29.4079 38.7077L29.3349 42.2452C29.3349 43.3028 30.1737 44.1781 31.2313 44.2145H31.2678C32.3254 44.2145 33.1642 43.3757 33.2007 42.3181L33.2736 38.7806C33.2736 37.723 32.3983 36.8478 31.3407 36.8113Z" fill="#010101"/>
<path d="M31.3406 40.9323C32.529 40.9323 33.4923 39.9689 33.4923 38.7806C33.4923 37.5922 32.529 36.6289 31.3406 36.6289C30.1523 36.6289 29.189 37.5922 29.189 38.7806C29.189 39.9689 30.1523 40.9323 31.3406 40.9323Z" fill="#5DBA47"/>
<path d="M31.3401 41.186C29.9907 41.186 28.9331 40.0919 28.9331 38.779C28.9331 37.4661 30.0272 36.3721 31.3401 36.3721C32.653 36.3721 33.747 37.4661 33.747 38.779C33.747 40.0919 32.653 41.186 31.3401 41.186ZM31.3401 36.8462C30.2825 36.8462 29.4072 37.7214 29.4072 38.779C29.4072 39.8366 30.2825 40.7119 31.3401 40.7119C32.3977 40.7119 33.2729 39.8366 33.2729 38.779C33.2365 37.7214 32.3612 36.8462 31.3401 36.8462Z" fill="#010101"/>
<path d="M27.0739 46.1465C26.7457 46.8394 26.0892 47.4959 25.6151 47.6782C24.047 48.1523 22.4059 48.3347 20.8012 48.1888C20.1812 48.1159 19.5248 48.0064 19.0507 47.6053C18.6131 47.2406 18.3942 46.6936 18.2848 46.1465C18.1754 45.6724 18.1754 45.1983 18.3213 44.7242C18.5766 43.849 19.306 43.1925 20.0718 42.7184C21.0565 42.0984 22.187 41.6608 23.354 41.6243C24.5211 41.5879 25.7245 41.989 26.5269 42.8643C27.2927 43.7396 27.5845 45.0889 27.0739 46.1465Z" fill="#C76E4E"/>
<path d="M26.7091 45.9294C26.4174 46.5129 25.9798 47.0964 25.3233 47.3152C24.521 47.5705 23.7187 47.7164 22.8799 47.7893C22.0776 47.8623 21.2752 47.8623 20.4729 47.7529C19.7071 47.6434 19.1235 47.3517 18.8318 46.6223C18.54 45.8929 18.54 45.0541 18.9412 44.3977C19.3059 43.7777 19.9259 43.3766 20.5458 43.0119C21.8223 42.2825 23.3904 41.8813 24.8492 42.3554C26.308 42.793 27.402 44.3977 26.7091 45.9294C26.4903 46.4035 27.2197 46.8411 27.4385 46.367C28.1679 44.7624 27.5115 42.9389 26.0892 41.9907C24.521 40.9331 22.4787 41.1155 20.8376 41.8813C19.16 42.6472 17.5918 43.9601 17.8471 45.9659C17.9565 46.8411 18.3577 47.7529 19.16 48.1905C19.9623 48.6281 20.947 48.6646 21.8223 48.6646C22.9893 48.6646 24.1928 48.5187 25.3233 48.1905C26.308 47.9352 26.9644 47.2423 27.4385 46.367C27.6938 45.8565 26.9644 45.4553 26.7091 45.9294Z" fill="#85422A"/>
<path d="M24.1562 44.2128C24.0833 42.5352 25.1774 41.4411 25.9797 40.7482C26.1985 40.5659 26.4173 40.3835 26.7091 40.3106C26.9644 40.2377 27.2926 40.2377 27.5114 40.3835C27.7302 40.5294 28.0584 40.9306 28.022 41.4047C29.116 41.4047 29.7725 41.8423 30.2831 42.827C30.7936 43.8116 30.7207 44.9787 30.2101 45.9633C29.6995 46.9115 28.7149 47.2397 27.6937 47.5315C27.0738 47.7138 26.235 47.8597 25.6515 47.6044C24.995 47.3127 24.7762 46.9845 24.5209 46.2915C24.2656 45.6351 24.1927 44.9422 24.1562 44.2128Z" fill="#FCD3B2"/>
<path d="M24.5574 44.2147C24.5209 43.2301 24.9221 42.3548 25.615 41.6254C25.9067 41.3337 26.235 41.0054 26.6361 40.7866C27.1467 40.4949 27.6208 40.8231 27.6208 41.4066C27.6208 41.6254 27.8031 41.8078 28.0584 41.8078C28.5325 41.8078 29.0066 41.9172 29.3713 42.2454C29.7725 42.5736 29.9913 43.0842 30.1372 43.5948C30.3925 44.7253 29.9913 46.0382 28.9337 46.6217C28.4961 46.877 27.9855 47.0229 27.4749 47.1687C26.9279 47.3146 26.2714 47.4605 25.7609 47.2052C24.6668 46.7311 24.6303 45.1994 24.5574 44.2147C24.5209 43.6677 23.6821 43.6677 23.7186 44.2147C23.7915 45.3088 23.8645 46.6946 24.7033 47.497C25.5421 48.3358 26.782 48.2263 27.8031 47.8981C28.8243 47.6064 29.8454 47.2052 30.4289 46.2935C31.0854 45.2723 31.1583 43.8865 30.6842 42.7924C30.1736 41.6619 29.2619 41.0419 28.022 41.0054C28.1678 41.1513 28.3137 41.2972 28.4596 41.4066C28.4231 40.7502 28.022 40.0208 27.329 39.8749C26.5632 39.6926 25.9432 40.2396 25.3962 40.6772C24.375 41.589 23.6821 42.7924 23.7186 44.1783C23.7551 44.7618 24.5939 44.7618 24.5574 44.2147Z" fill="#85422A"/>
<path d="M35.6441 46.0007C35.9723 46.6936 36.5558 47.423 37.0299 47.5689C38.5616 48.1159 40.2028 48.3712 41.8074 48.2983C42.4274 48.2618 43.0838 48.1889 43.5579 47.7877C43.9955 47.4595 44.2508 46.9124 44.3602 46.3654C44.4696 45.8913 44.5061 45.4172 44.3967 44.9431C44.1779 44.0678 43.485 43.3749 42.7191 42.8644C41.7709 42.2079 40.6404 41.7338 39.4734 41.6244C38.3064 41.515 37.1029 41.8797 36.2641 42.7185C35.4253 43.5573 35.17 44.9431 35.6441 46.0007Z" fill="#C76E4E"/>
<path d="M35.2795 46.2204C35.6442 47.0227 36.2277 47.7521 37.0665 48.0438C38.0147 48.3721 39.0358 48.5909 40.0205 48.7003C40.9687 48.7732 41.9898 48.8462 42.9015 48.5909C43.8133 48.3356 44.3968 47.6792 44.6885 46.8039C44.9803 45.9286 44.9803 44.9804 44.5426 44.1781C44.105 43.4123 43.3756 42.8288 42.6463 42.3911C41.1145 41.4429 39.1817 40.9324 37.4312 41.6253C35.6806 42.3182 34.4407 44.2875 35.2065 46.1474C35.4254 46.6215 36.2277 46.4392 36.0089 45.9286C35.4618 44.6157 36.1547 43.1934 37.3947 42.5735C38.7076 41.8806 40.2758 42.1358 41.5522 42.7558C42.8651 43.4123 44.3238 44.4699 44.0321 46.111C43.8862 46.8404 43.558 47.5333 42.8286 47.7886C42.0992 48.0438 41.2604 47.9709 40.4946 47.9344C39.5464 47.898 38.6346 47.7156 37.7229 47.4239C37.3582 47.3145 37.03 47.2051 36.7382 46.9498C36.41 46.6215 36.1547 46.2569 35.9724 45.8557C35.7901 45.3087 35.0607 45.7098 35.2795 46.2204Z" fill="#85422A"/>
<path d="M38.6709 44.2126C38.8168 42.5351 37.7956 41.368 36.9933 40.6751C36.7745 40.4928 36.5557 40.3104 36.3004 40.201C36.0451 40.0916 35.7169 40.0916 35.4981 40.2375C35.2792 40.3834 34.951 40.7481 34.9146 41.2222C33.8205 41.1857 33.1276 41.5869 32.617 42.5351C32.1064 43.4833 32.1064 44.6867 32.5441 45.6714C33.0182 46.6561 33.9664 47.0208 34.9875 47.3855C35.6075 47.6043 36.4463 47.7866 37.0298 47.5313C37.6862 47.2761 37.9415 46.9478 38.1968 46.2914C38.4885 45.6349 38.5615 44.942 38.6709 44.2126Z" fill="#FCD3B2"/>
<path d="M39.0722 44.2136C39.1817 42.7913 38.5252 41.5513 37.5041 40.6031C37.03 40.129 36.41 39.6184 35.6806 39.7279C34.9512 39.8373 34.5136 40.5666 34.4407 41.2231C34.5865 41.0772 34.7324 40.9313 34.8783 40.8219C33.8207 40.7855 32.9819 41.1866 32.3619 42.0619C31.7055 43.0465 31.5596 44.3959 31.9972 45.49C32.3984 46.6205 33.3101 47.204 34.3677 47.6052C35.3889 48.0064 36.6288 48.3346 37.6135 47.6781C38.7805 46.9852 38.9264 45.417 39.0722 44.2136C39.1452 43.6665 38.3064 43.703 38.2335 44.2136C38.124 45.1982 37.9782 46.6935 36.8841 47.1311C36.3371 47.3499 35.7171 47.1676 35.17 46.9852C34.6595 46.8393 34.1489 46.657 33.6748 46.3652C32.6901 45.7453 32.3619 44.3959 32.6901 43.3018C32.836 42.8277 33.1278 42.3172 33.5289 41.9889C33.9301 41.6972 34.4042 41.6243 34.8783 41.6243C35.1336 41.6243 35.2794 41.4419 35.3159 41.2231C35.3524 40.6761 35.8265 40.4208 36.3006 40.6761C36.6653 40.8949 37.03 41.2596 37.2853 41.5878C37.9417 42.3536 38.3064 43.2289 38.2335 44.2136C38.197 44.7606 39.0358 44.7606 39.0722 44.2136Z" fill="#85422A"/>
</svg>
