<svg width="58" height="48" viewBox="0 0 58 48" fill="none" xmlns="http://www.w3.org/2000/svg">
<path d="M26.9745 17.6264C26.9745 16.5286 27.8813 15.6387 28.9999 15.6387C30.1185 15.6387 31.0253 16.5286 31.0253 17.6264V29.4504C31.0253 30.5482 30.1185 31.4381 28.9999 31.4381C27.8813 31.4381 26.9745 30.5482 26.9745 29.4504V17.6264Z" fill="#C93F3F"/>
<path d="M28.9999 32.7547C27.8831 32.7547 26.9745 33.6407 26.9745 34.7297C26.9745 35.8186 27.8831 36.7046 28.9999 36.7046C30.1166 36.7046 31.0253 35.8186 31.0253 34.7297C31.0253 33.6407 30.1167 32.7547 28.9999 32.7547Z" fill="#C93F3F"/>
<path fill-rule="evenodd" clip-rule="evenodd" d="M29.0002 0C26.8005 0 24.7364 1.07758 23.573 2.9621L1.38072 38.9082C0.206429 40.8105 0.206427 43.1355 1.38072 45.0378C2.54411 46.9224 4.60829 48 6.80807 48H51.192C53.3918 48 55.4559 46.9222 56.6194 45.0378C57.7937 43.1355 57.7934 40.8103 56.6194 38.9081L34.4273 2.9621C33.2639 1.07755 31.1997 0 29.0002 0ZM28.4942 5.88832C28.5691 5.76692 28.723 5.64706 29.0002 5.64706L51.6981 42.1117C51.623 42.2332 51.4689 42.3529 51.192 42.3529H6.80807C6.53078 42.3529 6.37689 42.233 6.30197 42.1117C6.2588 42.0417 6.25395 41.9961 6.25395 41.973C6.25395 41.9499 6.25887 41.9042 6.30197 41.8343L28.4942 5.88832Z" fill="#C93F3F"/>
</svg>
