<svg width="271" height="271" viewBox="0 0 271 271" fill="none" xmlns="http://www.w3.org/2000/svg">
<path d="M150.589 226.004C189.316 226.004 220.71 218.23 220.71 208.641C220.71 199.051 189.316 191.278 150.589 191.278C111.862 191.278 80.4678 199.051 80.4678 208.641C80.4678 218.23 111.862 226.004 150.589 226.004Z" fill="#4B4B4B"/>
<path d="M107.207 236.375C128.458 233.976 144.914 225.193 143.962 216.759C143.01 208.324 125.011 203.431 103.759 205.829C82.5072 208.228 66.0511 217.011 67.0032 225.445C67.9553 233.88 85.955 238.773 107.207 236.375Z" fill="#4B4B4B"/>
<path d="M129.886 201.314C130.504 200.731 131.056 200.082 131.532 199.379C133.167 196.978 134.319 193.571 135.045 189.158C137.136 176.237 133.922 165.726 127.583 164.7C121.243 163.674 114.875 172.637 112.784 185.548C111.032 196.378 113.888 202.466 121.272 203.666C122.792 203.995 124.367 203.952 125.867 203.543C127.366 203.134 128.745 202.369 129.886 201.314ZM131.348 188.548C130.554 193.446 129.209 196.823 127.331 198.585C126.604 199.244 125.725 199.713 124.773 199.953C123.821 200.193 122.825 200.195 121.872 199.959C119.646 199.601 114.439 198.759 116.482 186.138C117.168 181.218 118.886 176.498 121.524 172.288C123.373 169.578 125.395 168.117 126.983 168.417C130.496 168.988 133.109 177.737 131.348 188.587V188.548Z" fill="#5D3C16"/>
<path d="M127.331 198.624C126.604 199.282 125.725 199.752 124.773 199.992C123.822 200.232 122.825 200.234 121.873 199.998C119.646 199.64 114.439 198.798 116.482 186.177C117.449 180.37 118.417 174.437 120.092 171.001C121.95 167.188 123.799 163.171 127.689 164.023C135.432 165.726 133.109 177.737 131.348 188.587C130.554 193.484 129.209 196.862 127.331 198.624Z" fill="#F0AF7D"/>
<path d="M126.083 193.765C125.434 193.271 124.931 192.507 125.067 191.936C125.299 190.968 126.954 191.191 128.222 191.607C129.093 191.897 129.954 192.207 130.806 192.526C130.697 193.594 130.389 194.631 129.896 195.585C129.345 195.343 128.793 195.091 128.241 194.868C127.477 194.597 126.751 194.226 126.083 193.765Z" fill="#4A4441"/>
<path d="M115.727 187.677C116.995 187.774 118.262 187.909 119.598 188.113C120.934 188.316 122.502 188.916 122.502 190.135C122.469 190.494 122.323 190.833 122.084 191.102C121.846 191.372 121.527 191.559 121.176 191.636C120.442 191.799 119.685 191.832 118.94 191.732C117.837 191.655 116.733 191.636 115.63 191.645C115.63 191.19 115.63 190.677 115.63 190.203C115.63 189.332 115.63 188.49 115.756 187.658" fill="#4A4441"/>
<path d="M156.628 194.23C156.628 188.984 160.722 188.422 162.436 188.374C165.138 188.361 167.739 189.403 169.685 191.278C170.965 192.694 172.073 194.256 172.985 195.933C174.066 197.938 175.418 199.784 177.002 201.421C179.859 204.16 183.249 206.282 186.961 207.654C189.303 208.519 191.781 208.958 194.278 208.951C196.805 208.946 199.303 208.412 201.61 207.381C203.918 206.351 205.983 204.848 207.673 202.969C208.844 201.692 211.883 197.114 210.693 194.433C210.403 193.838 209.935 193.348 209.354 193.033C208.773 192.717 208.107 192.591 207.451 192.671C207.143 192.673 206.836 192.693 206.531 192.729C204.479 193 202.95 194.752 201.46 196.456C200.327 197.762 199.146 199.117 197.888 199.582C196.917 199.949 195.887 200.139 194.849 200.143C189.719 200.143 184.464 195.981 181.754 192.062C181.299 191.403 180.854 190.745 180.418 190.126C176.615 184.503 173.014 179.179 164.652 177.912C163.735 177.776 162.81 177.709 161.884 177.708C158.518 177.724 155.238 178.772 152.486 180.71C149.734 182.649 147.643 185.384 146.495 188.548C143.243 197.443 156.619 196.678 156.628 194.23Z" fill="#ED7C23"/>
<path d="M160.2 186.913C162.03 186.535 163.925 186.618 165.714 187.156C167.503 187.693 169.131 188.667 170.45 189.99C173.353 192.971 174.66 197.162 177.738 200.095C180.47 202.713 183.712 204.743 187.261 206.057C194.23 208.593 201.508 207.218 206.618 201.711C207.77 200.463 211.071 197.482 210.103 195.333C210.17 193.63 208.07 193.523 207.335 193.523C207.054 193.523 206.754 193.523 206.425 193.591C204.363 193.862 202.834 195.614 201.353 197.317C200.211 198.624 199.03 199.979 197.772 200.443C196.801 200.81 195.771 201 194.733 201.005C189.603 201.005 184.348 196.843 181.638 192.923C181.183 192.265 180.738 191.607 180.302 190.987C176.499 185.354 172.908 180.041 164.546 178.773C163.627 178.628 162.698 178.56 161.768 178.57C158.402 178.586 155.122 179.633 152.37 181.572C149.618 183.51 147.527 186.246 146.379 189.41C145.179 192.517 155.69 188.055 160.2 186.913Z" fill="#F0AF7D"/>
<path d="M180.467 190.135C180.902 190.784 181.347 191.442 181.802 192.071C182.387 192.906 183.034 193.696 183.738 194.433C183.018 195.321 182.214 196.138 181.338 196.872C180.405 197.645 179.393 198.317 178.318 198.875C177.496 199.308 176.649 199.692 175.782 200.027C174.767 198.737 173.851 197.372 173.043 195.943C172.763 195.468 172.482 194.975 172.201 194.559C175.065 193.088 177.444 190.823 179.054 188.035C179.528 188.713 180.021 189.41 180.476 190.106" fill="#4A4441"/>
<path d="M187.212 197.443C189.264 198.953 191.685 199.882 194.22 200.134C193.674 201.485 192.973 202.768 192.129 203.957C191.421 204.937 190.613 205.842 189.719 206.657C189.206 207.121 188.664 207.625 188.093 208.012C187.735 207.905 187.367 207.809 187.009 207.673C185.104 206.968 183.28 206.06 181.57 204.963C184.123 203.04 186.08 200.432 187.212 197.443Z" fill="#4A4441"/>
<path d="M144.791 187.909C146.073 184.39 148.401 181.347 151.464 179.191C154.527 177.035 158.177 175.869 161.922 175.85C162.949 175.843 163.975 175.917 164.99 176.072C174.156 177.466 178.153 183.38 182.015 189.09C182.441 189.729 182.886 190.377 183.341 191.026C185.857 194.665 190.629 198.323 194.878 198.294C195.702 198.294 196.518 198.143 197.288 197.849C198.385 197.17 199.341 196.286 200.104 195.246C201.73 193.378 203.579 191.258 206.347 190.9C206.722 190.851 207.101 190.826 207.479 190.823C208.507 190.735 209.536 190.967 210.426 191.487C211.317 192.007 212.025 192.789 212.454 193.726C214.167 197.598 210.238 203.047 209.086 204.285C207.248 206.333 205.003 207.976 202.495 209.109C199.988 210.242 197.271 210.841 194.52 210.867H194.336C191.619 210.873 188.922 210.398 186.37 209.464C182.404 208 178.78 205.736 175.724 202.814C174.017 201.066 172.56 199.089 171.398 196.939C170.577 195.38 169.573 193.925 168.407 192.603C166.825 191.075 164.712 190.219 162.513 190.213H162.445C158.515 190.281 158.506 193.233 158.506 194.21C158.496 195.894 141.113 197.762 144.791 187.909ZM154.76 194.229C154.76 188.616 158.69 186.564 162.387 186.487H162.464C165.678 186.485 168.765 187.739 171.069 189.981C172.452 191.506 173.651 193.188 174.64 194.994C175.639 196.849 176.882 198.561 178.337 200.085C181.011 202.637 184.18 204.613 187.648 205.892C189.778 206.687 192.034 207.091 194.307 207.083C196.579 207.081 198.825 206.6 200.9 205.673C202.974 204.746 204.83 203.393 206.347 201.701C207.663 200.269 209.667 196.62 209.028 195.188C208.834 194.752 208.321 194.529 207.508 194.539C207.279 194.543 207.049 194.559 206.821 194.588C205.466 194.762 204.169 196.252 202.95 197.685C201.73 199.117 200.317 200.704 198.623 201.334C197.448 201.777 196.202 202.006 194.946 202.011C189.138 202.059 183.331 197.588 180.292 193.126C179.828 192.458 179.382 191.8 178.937 191.142C175.221 185.635 172.007 180.883 164.419 179.731C163.6 179.606 162.771 179.548 161.942 179.557C158.955 179.574 156.046 180.505 153.605 182.225C151.163 183.945 149.307 186.371 148.285 189.177C145.333 197.162 154.75 197.443 154.76 194.229Z" fill="#5D3C16"/>
<path d="M145.333 198.14C145.614 197.888 145.895 197.646 146.185 197.423C146.292 197.336 146.398 197.249 146.514 197.172C149.354 195.234 152.65 194.07 156.077 193.794C156.072 193.862 156.072 193.93 156.077 193.997C156.092 194.848 156.294 195.686 156.668 196.45C157.043 197.214 157.581 197.887 158.245 198.42C154.71 200.262 151.943 203.297 150.434 206.986C147.905 204.601 146.134 201.524 145.343 198.14" fill="#4A4441"/>
<path d="M154.683 180.989C157.409 182.932 159.599 185.532 161.051 188.548C160.127 188.675 159.257 189.058 158.538 189.653C157.82 190.248 157.282 191.032 156.986 191.916C154.105 189.524 150.508 188.162 146.766 188.045C148.087 184.806 150.397 182.066 153.366 180.215C153.705 180.389 154.025 180.573 154.334 180.757L154.683 180.98" fill="#4A4441"/>
<path d="M164.042 188.5C164.96 184.93 164.674 181.157 163.229 177.766C163.723 177.766 164.197 177.844 164.7 177.921C167.765 178.334 170.668 179.542 173.12 181.425C173.12 181.618 173.121 181.812 173.062 182.006L173.004 182.422C172.386 185.462 171.06 188.314 169.133 190.745C167.68 189.552 165.93 188.776 164.071 188.5" fill="#4A4441"/>
<path d="M122.047 188.074C121.931 180.98 124.205 171.795 127.941 163.955C128.367 163.055 128.802 162.174 129.267 161.313C134.251 152.108 140.523 146.795 146.466 146.679C152.408 146.563 158.854 151.712 164.129 160.751C168.91 168.939 172.085 179.354 172.211 187.271C172.501 205.399 156.832 208.36 147.463 208.505C141.462 208.602 132.829 207.634 127.331 202.147C124.253 199.078 122.153 194.588 122.047 188.074Z" fill="#F0AF7D"/>
<path d="M118.301 188.142C118.228 193.177 119.705 198.114 122.531 202.282C127.264 208.912 135.829 212.435 147.521 212.251C165.842 211.951 176.208 202.824 175.947 187.213C175.811 178.57 172.521 167.71 167.362 158.864C161.294 148.479 153.812 142.817 146.408 142.943C139.004 143.069 131.706 148.953 125.976 159.532C125.28 160.819 124.631 162.155 124.041 163.51C120.334 171.63 118.185 180.738 118.301 188.142ZM127.331 202.147C124.254 199.078 122.153 194.588 122.047 188.074C121.931 180.98 124.205 171.795 127.941 163.955C128.367 163.055 128.803 162.174 129.267 161.313C134.252 152.108 140.523 146.795 146.466 146.679C152.409 146.563 158.855 151.712 164.129 160.751C168.911 168.939 172.085 179.354 172.211 187.271C172.501 205.399 156.832 208.36 147.463 208.505C141.462 208.602 132.829 207.634 127.331 202.147Z" fill="#5D3C16"/>
<path d="M167.294 181.115C166.778 181.094 166.279 180.919 165.863 180.612C165.448 180.305 165.133 179.88 164.962 179.392C164.536 177.699 166.452 176.421 168.068 175.782C168.804 175.502 169.53 175.26 170.265 174.998C170.769 176.798 171.233 178.579 171.495 180.321C171.107 180.418 170.711 180.496 170.324 180.612C169.353 180.965 168.326 181.136 167.294 181.115Z" fill="#4A4441"/>
<path d="M168.475 188.926C167.968 188.825 167.503 188.575 167.139 188.207C166.775 187.84 166.529 187.372 166.433 186.864C166.278 185.132 168.369 184.154 170.062 183.777C170.672 183.632 171.408 183.535 171.998 183.419C172.163 184.599 172.143 185.751 172.192 186.864C172.192 187.532 172.192 188.171 172.192 188.8L171.553 188.868C170.536 189.056 169.492 189.056 168.475 188.868" fill="#4A4441"/>
<path d="M166.104 196.881C165.641 196.653 165.257 196.291 165.002 195.843C164.747 195.394 164.631 194.88 164.671 194.365C164.981 192.642 167.246 192.255 168.988 192.342C169.956 192.342 170.866 192.468 171.795 192.555C171.471 194.381 170.905 196.155 170.111 197.83L169.075 197.665C168.044 197.595 167.035 197.329 166.104 196.881Z" fill="#4A4441"/>
<path d="M99.0409 211.961C102.235 214.196 106.997 213.035 117.43 210.509L122.328 209.328H122.453C126.625 208.36 130.196 207.479 132.054 204.227C133.7 201.324 133.448 196.978 131.251 190.232C129.441 184.067 123.15 182.567 112 185.654C104.403 187.484 100.106 188.839 97.6471 191.19C95.0146 193.707 94.7436 196.93 95.2953 201.924C95.2953 202.05 95.2953 202.176 95.2953 202.301C95.8856 207.121 96.6696 210.296 99.0409 211.961ZM99.0409 201.856C98.1601 193.852 98.586 192.7 112.891 189.274H112.959C126.015 185.654 127.206 189.768 127.651 191.316V191.374C128.422 193.572 128.966 195.842 129.277 198.149C129.536 199.588 129.357 201.072 128.764 202.408C127.796 204.227 125.018 204.876 121.563 205.699H121.437L116.52 206.879C108.071 208.931 102.97 210.17 101.151 208.902C99.9797 208.089 99.457 205.466 99.0505 201.856H99.0409Z" fill="#5D3C16"/>
<path d="M112.901 189.255H112.968C126.025 185.635 132.18 187.184 132.626 188.732L132.674 189.981C133.436 192.179 133.971 194.449 134.271 196.756C134.474 198.643 135.345 202.476 134.271 202.785C131.367 203.657 125.038 204.847 121.582 205.689H121.457L116.54 206.87C108.09 208.922 102.99 210.161 101.17 208.893C99.9701 208.051 99.4475 205.466 99.041 201.856C98.1699 193.852 98.5957 192.7 112.901 189.255Z" fill="#F0AF7D"/>
<path d="M137.436 163.713C146.611 163.713 154.044 172.375 154.044 183.07C154.044 193.765 146.611 202.427 137.436 202.427C130.593 202.427 124.718 197.588 122.173 190.726C122.072 189.858 122.017 188.986 122.008 188.113C122.109 181.764 123.318 175.482 125.58 169.549C127.005 167.765 128.807 166.316 130.856 165.308C132.906 164.299 135.152 163.754 137.436 163.713Z" fill="#EDDCCD"/>
<path d="M136.623 220.759C140.31 222.065 144.579 219.675 153.957 214.429L158.351 211.98L158.467 211.922C162.223 209.841 165.465 208.051 166.346 204.441C167.149 201.169 165.746 197.075 161.816 191.171C158.429 185.713 151.954 185.954 142.043 191.926C135.268 195.72 131.396 198.179 129.703 201.101C127.844 204.237 128.464 207.402 130.322 212.077L130.458 212.425C132.296 216.974 133.893 219.8 136.623 220.759ZM133.932 210.993C130.922 203.531 131.029 202.282 143.891 195.149H143.94C155.554 188.161 157.809 191.8 158.651 193.165V193.223C159.976 195.139 161.107 197.182 162.029 199.321C162.665 200.637 162.891 202.114 162.677 203.56C162.184 205.583 159.726 206.938 156.619 208.66L156.512 208.718L152.089 211.177C144.501 215.416 139.913 217.952 137.833 217.245C136.468 216.742 135.287 214.4 133.932 210.993Z" fill="#5D3C16"/>
<path d="M143.891 195.178H143.94C155.554 188.19 161.893 188.026 162.745 189.371L163.123 190.561C163.229 193.368 164.671 195.778 165.349 197.472C166.026 199.166 168.049 200.695 167.343 201.547C165.591 203.637 159.764 206.938 156.696 208.66L156.59 208.718L152.167 211.177C144.579 215.416 139.991 217.952 137.91 217.245C136.516 216.752 135.326 214.409 133.971 211.032C130.922 203.56 131.029 202.331 143.891 195.178Z" fill="#F0AF7D"/>
<path d="M145.053 208.922C144.982 208.41 145.068 207.889 145.297 207.427C145.527 206.964 145.89 206.581 146.34 206.328C147.927 205.621 149.524 207.296 150.434 208.767C150.947 209.599 151.402 210.451 151.886 211.293C150.111 212.293 148.498 213.183 147.047 213.964C146.727 213.248 146.398 212.532 146.079 211.825C145.555 210.931 145.207 209.946 145.053 208.922Z" fill="#4A4441"/>
<path d="M139.246 204.218C138.776 204.451 138.248 204.536 137.729 204.462C137.21 204.387 136.727 204.157 136.342 203.802C135.595 203.092 134.988 202.248 134.551 201.314L134.464 201.16C135.836 199.981 137.313 198.931 138.878 198.024C139.1 198.498 139.333 198.992 139.546 199.466C140.272 201.082 140.736 203.337 139.246 204.218Z" fill="#4A4441"/>
<path d="M168.233 199.456C168.682 198.734 169.049 197.965 169.327 197.162C170.295 194.423 170.566 190.861 170.13 186.38C168.881 173.353 163.113 164.003 156.715 164.613C150.318 165.223 146.437 175.511 147.695 188.539C148.74 199.446 153.047 204.624 160.49 203.908C162.043 203.842 163.558 203.404 164.906 202.629C166.254 201.854 167.395 200.765 168.233 199.456ZM166.413 186.738C166.888 191.674 166.413 195.285 165.068 197.462C164.532 198.286 163.801 198.965 162.94 199.44C162.079 199.914 161.115 200.169 160.132 200.182C157.896 200.395 152.641 200.898 151.421 188.18C150.84 183.244 151.309 178.241 152.796 173.498C153.889 170.411 155.448 168.494 157.083 168.339C160.626 168.001 165.368 175.792 166.423 186.729L166.413 186.738Z" fill="#5D3C16"/>
<path d="M165.068 197.443C164.532 198.267 163.801 198.946 162.94 199.421C162.079 199.895 161.115 200.15 160.132 200.163C157.896 200.376 152.641 200.879 151.421 188.161C150.86 182.277 150.327 176.305 151.073 172.559C151.895 168.407 152.67 164.052 156.647 163.849C164.613 163.519 165.358 175.734 166.423 186.68C166.887 191.636 166.471 195.285 165.068 197.443Z" fill="#F0AF7D"/>
<path d="M162.6 193.087C161.845 192.768 161.158 192.12 161.148 191.568C161.148 190.6 162.794 190.368 164.12 190.455C165.088 190.513 165.949 190.59 166.849 190.677C167.017 191.742 166.981 192.83 166.743 193.881C166.152 193.784 165.562 193.678 164.962 193.6C164.156 193.531 163.362 193.359 162.6 193.087Z" fill="#4A4441"/>
<path d="M151.063 189.826C152.312 189.594 153.579 189.4 154.886 189.264C156.193 189.129 157.877 189.264 158.225 190.484C158.291 190.839 158.24 191.205 158.082 191.529C157.923 191.853 157.665 192.118 157.344 192.284C156.678 192.633 155.953 192.856 155.205 192.942C154.112 193.155 153.047 193.407 151.982 193.697C151.847 193.262 151.711 192.797 151.586 192.313C151.373 191.471 151.198 190.639 151.063 189.826Z" fill="#4A4441"/>
<path d="M110.336 202.824C110.405 202.312 110.627 201.833 110.972 201.448C111.317 201.063 111.77 200.791 112.271 200.666C113.994 200.414 115.088 202.437 115.562 204.111C115.833 205.079 116.075 206.047 116.288 206.938C114.352 207.422 112.523 207.857 110.926 208.215C110.81 207.441 110.694 206.657 110.549 205.892C110.286 204.892 110.213 203.851 110.336 202.824Z" fill="#4A4441"/>
<path d="M105.97 196.756C105.462 196.847 104.938 196.784 104.466 196.575C103.993 196.367 103.594 196.022 103.319 195.585C102.786 194.691 102.425 193.707 102.254 192.681C102.254 192.623 102.254 192.565 102.254 192.516C103.89 191.747 105.594 191.131 107.345 190.677C107.442 191.19 107.529 191.713 107.596 192.245C107.809 193.988 107.645 196.281 105.97 196.756Z" fill="#4A4441"/>
<path d="M94.8502 231.918C94.2837 231.961 93.7204 231.8 93.2629 231.463L80.3323 221.949C80.054 221.744 79.8233 221.482 79.6562 221.179C79.4892 220.877 79.3896 220.542 79.3645 220.197L79.2483 218.736C79.2145 218.193 79.3653 217.654 79.6764 217.208C79.9874 216.762 80.4403 216.434 80.9614 216.277L114.275 206.599C114.437 206.553 114.602 206.52 114.769 206.502C115.241 206.473 115.711 206.58 116.124 206.812L129.316 214.351C129.662 214.547 129.954 214.827 130.163 215.166C130.373 215.504 130.494 215.89 130.516 216.287L130.612 217.729C130.652 218.251 130.518 218.772 130.231 219.209C129.944 219.647 129.52 219.977 129.025 220.149L95.4406 231.85C95.2477 231.899 95.0491 231.922 94.8502 231.918Z" fill="#575755"/>
<path d="M114.817 207.121C115.155 207.108 115.49 207.188 115.785 207.354L129.006 214.864C129.257 215.007 129.47 215.21 129.626 215.455C129.781 215.7 129.874 215.979 129.896 216.268L129.993 217.71C130.021 218.094 129.921 218.477 129.709 218.799C129.498 219.121 129.186 219.364 128.822 219.491L95.2371 231.202C95.0915 231.258 94.938 231.29 94.7822 231.298C94.3642 231.326 93.9498 231.206 93.6111 230.96L80.6902 221.446C80.4833 221.295 80.312 221.101 80.1882 220.877C80.0645 220.653 79.9914 220.404 79.974 220.149L79.8675 218.668C79.8401 218.266 79.9509 217.866 80.1814 217.535C80.412 217.204 80.7485 216.962 81.1354 216.848L114.449 207.17C114.57 207.137 114.693 207.114 114.817 207.102V207.121ZM114.73 205.863C114.517 205.882 114.306 205.921 114.101 205.979L80.787 215.658C80.1341 215.854 79.5663 216.265 79.1749 216.823C78.7834 217.381 78.591 218.055 78.6287 218.736L78.7351 220.226C78.7674 220.66 78.8931 221.082 79.1035 221.463C79.314 221.844 79.6044 222.175 79.9546 222.433L92.9142 231.966C93.4902 232.387 94.1968 232.589 94.908 232.537C95.172 232.521 95.4325 232.469 95.6823 232.382L129.228 220.671C129.852 220.452 130.385 220.034 130.748 219.481C131.11 218.928 131.28 218.272 131.232 217.613L131.135 216.18C131.098 215.688 130.941 215.211 130.678 214.793C130.415 214.374 130.053 214.027 129.625 213.78L116.433 206.25C115.914 205.96 115.323 205.826 114.73 205.863Z" fill="black"/>
<path d="M122.608 217.477L96.0308 226.188C95.5338 226.346 95.0081 226.393 94.4911 226.324C93.9741 226.255 93.4787 226.074 93.0401 225.791L80.971 217.99C80.8654 217.923 80.7817 217.827 80.7298 217.713C80.6778 217.599 80.66 217.472 80.6784 217.348C80.6969 217.225 80.7507 217.109 80.8336 217.015C80.9164 216.921 81.0246 216.853 81.1452 216.819L109.097 208.699C109.18 208.675 109.268 208.668 109.354 208.678C109.441 208.688 109.524 208.715 109.6 208.757L122.734 216.268C122.853 216.326 122.951 216.42 123.015 216.536C123.079 216.652 123.106 216.785 123.092 216.916C123.079 217.048 123.025 217.173 122.938 217.273C122.852 217.373 122.737 217.445 122.608 217.477Z" fill="#D0CFD5"/>
<path d="M91.2982 222.723C91.2416 222.818 91.1505 222.887 91.0439 222.916C90.9374 222.945 90.8238 222.931 90.7271 222.878L86.5944 220.033C86.556 219.996 86.5255 219.951 86.5047 219.902C86.4839 219.853 86.4731 219.8 86.4731 219.747C86.4731 219.694 86.4839 219.641 86.5047 219.592C86.5255 219.543 86.556 219.499 86.5944 219.462C86.6528 219.366 86.7456 219.297 86.8538 219.268C86.9619 219.239 87.0769 219.253 87.1751 219.307L91.2982 222.152C91.3365 222.189 91.367 222.234 91.3878 222.283C91.4087 222.332 91.4194 222.384 91.4194 222.438C91.4194 222.491 91.4087 222.544 91.3878 222.593C91.367 222.642 91.3365 222.686 91.2982 222.723Z" fill="#575755"/>
<path d="M119.107 212.683C120.084 212.647 120.86 212.171 120.84 211.621C120.819 211.071 120.01 210.654 119.033 210.691C118.055 210.727 117.279 211.202 117.3 211.753C117.32 212.303 118.129 212.719 119.107 212.683Z" fill="#D0CFD5"/>
<path d="M57.1521 196.823L80.1484 197.027C80.8346 197.032 81.4909 197.309 81.9734 197.797C82.456 198.285 82.7255 198.944 82.7229 199.63V209.425C82.7229 209.425 82.9552 212.009 85.2974 212.028H80.1193H79.1515L57.1037 211.796C56.4166 211.791 55.7593 211.514 55.2752 211.027C54.7912 210.539 54.5195 209.88 54.5195 209.193L54.5486 199.378C54.5562 198.695 54.8345 198.042 55.3225 197.563C55.8105 197.084 56.4684 196.818 57.1521 196.823Z" fill="#12B406"/>
<path d="M74.9217 206.154C75.8037 206.154 76.5186 205.439 76.5186 204.557C76.5186 203.675 75.8037 202.96 74.9217 202.96C74.0397 202.96 73.3247 203.675 73.3247 204.557C73.3247 205.439 74.0397 206.154 74.9217 206.154Z" fill="#FEFBFF"/>
<path d="M68.5823 206.154C69.4643 206.154 70.1793 205.439 70.1793 204.557C70.1793 203.675 69.4643 202.96 68.5823 202.96C67.7003 202.96 66.9854 203.675 66.9854 204.557C66.9854 205.439 67.7003 206.154 68.5823 206.154Z" fill="#FEFBFF"/>
<path d="M62.243 206.154C63.1249 206.154 63.8399 205.439 63.8399 204.557C63.8399 203.675 63.1249 202.96 62.243 202.96C61.361 202.96 60.646 203.675 60.646 204.557C60.646 205.439 61.361 206.154 62.243 206.154Z" fill="#FEFBFF"/>
<path d="M155.351 43.2633C153.345 45.9742 152.189 49.2191 152.029 52.5873C151.868 55.9554 152.71 59.2956 154.448 62.1851C156.186 65.0745 158.743 67.3835 161.794 68.8198C164.844 70.256 168.253 70.7551 171.587 70.2537C174.922 69.7524 178.033 68.2732 180.526 66.0034C183.02 63.7335 184.784 60.775 185.596 57.5021C186.408 54.2293 186.23 50.7892 185.086 47.6172C183.943 44.4451 181.883 41.6837 179.17 39.6822C177.367 38.3562 175.322 37.3982 173.149 36.863C170.977 36.3278 168.72 36.2257 166.508 36.5628C164.296 36.8998 162.173 37.6693 160.258 38.8273C158.344 39.9853 156.676 41.5091 155.351 43.3117" fill="#F0AF7D"/>
<path d="M171.969 72.028C168.276 72.5889 164.499 72.0429 161.116 70.4589C157.733 68.8749 154.895 66.324 152.96 63.1283C151.026 59.9325 150.082 56.2353 150.247 52.5033C150.412 48.7713 151.68 45.1721 153.889 42.1599C155.616 39.8094 157.863 37.8899 160.454 36.5518C163.046 35.2136 165.911 34.4929 168.828 34.446C171.744 34.3992 174.631 35.0274 177.264 36.2817C179.897 37.5359 182.205 39.3821 184.006 41.676C185.807 43.9699 187.053 46.6493 187.647 49.5047C188.241 52.3602 188.166 55.3143 187.429 58.1361C186.692 60.9579 185.312 63.571 183.397 65.771C181.483 67.9711 179.085 69.6985 176.392 70.8182C174.972 71.399 173.487 71.8052 171.969 72.028ZM156.861 44.3666C154.778 47.1944 153.74 50.657 153.925 54.1642C154.109 57.6713 155.505 61.006 157.873 63.5995C160.241 66.1931 163.435 67.8851 166.911 68.387C170.387 68.889 173.929 68.1698 176.934 66.3521C179.939 64.5344 182.221 61.7308 183.39 58.4191C184.559 55.1074 184.544 51.4927 183.346 48.1912C182.148 44.8897 179.843 42.1059 176.822 40.3142C173.801 38.5225 170.253 37.834 166.781 38.3659C164.814 38.6642 162.925 39.3477 161.223 40.3775C159.52 41.4072 158.038 42.7628 156.861 44.3666Z" fill="#5D3C16"/>
<path d="M157.954 50.0189C156.463 52.0434 155.607 54.4648 155.492 56.9765C155.378 59.4883 156.011 61.9775 157.312 64.1292C158.613 66.2809 160.523 67.9983 162.8 69.0642C165.077 70.13 167.619 70.4964 170.105 70.1169C172.59 69.7375 174.908 68.6292 176.763 66.9324C178.618 65.2356 179.929 63.0265 180.528 60.5847C181.128 58.1429 180.99 55.5781 180.131 53.2149C179.272 50.8517 177.732 48.7963 175.705 47.3089C174.362 46.3202 172.837 45.606 171.218 45.2072C169.598 44.8083 167.916 44.7325 166.268 44.9842C164.619 45.2359 163.036 45.8101 161.61 46.674C160.183 47.5379 158.941 48.6745 157.954 50.0189Z" fill="#EDDCCD"/>
<path d="M76.1897 64.0625C79.2653 65.4455 81.8616 67.7098 83.6499 70.5689C85.4381 73.428 86.3381 76.7533 86.2359 80.124C86.1336 83.4947 85.0337 86.7594 83.0754 89.5048C81.1171 92.2502 78.3884 94.353 75.2345 95.547C72.0807 96.741 68.6436 96.9727 65.3581 96.2125C62.0726 95.4524 59.0864 93.7348 56.7774 91.2769C54.4685 88.8191 52.9405 85.7315 52.387 82.405C51.8334 79.0784 52.2791 75.6625 53.6676 72.5893C55.5231 68.4713 58.9373 65.2582 63.1602 63.6558C67.3831 62.0534 72.0694 62.1927 76.1897 64.0431" fill="#F0AF7D"/>
<path d="M61.4106 96.8439C56.8377 94.7826 53.2708 90.9892 51.4948 86.2981C49.7187 81.607 49.8789 76.4026 51.9402 71.8296C54.0014 67.2566 57.7948 63.6898 62.4859 61.9137C67.177 60.1377 72.3815 60.2979 76.9544 62.3591C81.5274 64.4203 85.0942 68.2138 86.8703 72.9048C88.6464 77.5959 88.4861 82.8004 86.4249 87.3734C84.3637 91.9463 80.5703 95.5132 75.8792 97.2892C71.1881 99.0653 65.9836 98.9051 61.4106 96.8439ZM75.4252 65.8144C72.228 64.3679 68.6281 64.0748 65.2391 64.9852C61.85 65.8956 58.8815 67.9531 56.8395 70.8069C54.7975 73.6608 53.8083 77.1345 54.0406 80.636C54.2728 84.1376 55.7121 87.4502 58.1132 90.0094C60.5142 92.5685 63.7285 94.2159 67.2081 94.6707C70.6877 95.1255 74.2173 94.3596 77.1955 92.5035C80.1736 90.6473 82.416 87.8159 83.5404 84.4917C84.6647 81.1675 84.6016 77.5563 83.3616 74.2734C81.9397 70.5147 79.0858 67.4728 75.4252 65.8144Z" fill="#5D3C16"/>
<path d="M77.2446 71.2245C79.5379 72.2548 81.4742 73.9421 82.8083 76.0731C84.1424 78.2041 84.8144 80.6829 84.7394 83.1959C84.6643 85.709 83.8455 88.1432 82.3866 90.1908C80.9276 92.2383 78.8941 93.8071 76.5434 94.6986C74.1926 95.5902 71.6302 95.7644 69.1804 95.1992C66.7306 94.6341 64.5035 93.3549 62.7809 91.5237C61.0583 89.6925 59.9175 87.3914 59.503 84.9117C59.0885 82.4319 59.4189 79.8849 60.4523 77.593C61.1356 76.0713 62.1123 74.6993 63.3264 73.5555C64.5405 72.4116 65.9682 71.5184 67.5279 70.9269C69.0876 70.3353 70.7486 70.0572 72.4159 70.1082C74.0832 70.1593 75.724 70.5386 77.2446 71.2245Z" fill="#EDDCCD"/>
<path d="M67.1982 130.225C74.9991 159.909 108.574 170.633 144.056 161.303C179.537 151.973 203.511 126.141 195.71 96.4567C187.909 66.7725 149.185 36.4496 113.704 45.77C78.2221 55.0905 59.3973 100.531 67.2466 130.225" fill="#F0AF7D"/>
<path d="M71.1566 122.105C71.4041 122.496 71.5442 122.945 71.5629 123.407C71.5816 123.869 71.4782 124.328 71.2631 124.737C70.8339 125.356 70.2544 125.856 69.579 126.189C68.6645 126.752 67.7824 127.366 66.9368 128.028C66.569 126.092 66.2883 124.031 66.0947 121.979C66.5109 121.766 66.9271 121.572 67.3529 121.379C68.5047 120.866 70.2178 120.643 71.1566 122.105Z" fill="#4A4441"/>
<path d="M80.5646 130.399C80.8221 130.788 80.9751 131.235 81.009 131.7C81.0429 132.165 80.9565 132.63 80.7582 133.051C80.3571 133.695 79.7972 134.225 79.1322 134.59C76.3755 136.496 73.9496 138.84 71.9507 141.53C71.399 140.484 70.886 139.41 70.4021 138.297C69.9182 137.184 69.5601 136.226 69.1826 135.161C71.4492 133.032 74.0075 131.236 76.7803 129.828C77.903 129.257 79.5871 128.957 80.5646 130.399Z" fill="#4A4441"/>
<path d="M80.516 143.824C80.8309 144.192 81.0554 144.629 81.1713 145.099C81.2873 145.57 81.2916 146.061 81.1838 146.534C80.939 147.284 80.5213 147.967 79.9643 148.527C79.4126 149.205 78.8803 149.902 78.3673 150.628C77.101 149.259 75.9273 147.807 74.854 146.282C75.5218 145.546 76.209 144.84 76.9446 144.162C77.864 143.301 79.3642 142.575 80.516 143.824Z" fill="#4A4441"/>
<path d="M155.428 105.787C154.946 105.599 154.532 105.271 154.241 104.844C153.949 104.418 153.792 103.913 153.792 103.396C153.947 101.654 156.173 101.073 157.916 101.005C162.755 100.812 188.316 103.251 197.665 104.558C198.885 104.722 198.295 115.862 197.191 115.523C189.777 113.239 173.643 108.748 167.372 107.684C165 107.268 156.367 106.213 155.428 105.748" fill="#4A4441"/>
<path d="M149.679 117.74C149.206 117.533 148.806 117.189 148.529 116.753C148.253 116.316 148.115 115.807 148.131 115.291C148.344 113.559 150.589 113.055 152.331 113.055C159.958 113.055 183.825 117.895 194.917 121.234C196.562 121.727 191.607 132.074 189.981 131.319C181.957 127.612 169.375 122.695 163.113 120.982C159.929 120.101 150.599 118.214 149.679 117.759" fill="#4A4441"/>
<path d="M155.932 130.516C155.508 130.219 155.184 129.802 155.001 129.319C154.818 128.835 154.785 128.308 154.906 127.806C155.467 126.16 157.809 126.121 159.474 126.47C163.771 127.331 175.327 132.103 184.783 136.545C186.932 137.513 183.003 143.611 180.573 142.217C176.702 140.001 172.221 137.484 169.336 136.148C166.259 134.716 156.754 131.154 155.932 130.516Z" fill="#4A4441"/>
<path d="M120.402 85.2586C121.411 85.1383 122.393 84.847 123.305 84.3972C123.761 84.1861 124.148 83.8508 124.422 83.4296C124.696 83.0085 124.846 82.5186 124.854 82.0163C124.651 80.458 122.473 80.2161 120.789 80.3806C108.207 81.5904 96.9698 86.1878 86.8267 92.9628C86.9234 93.708 87.0202 94.4629 87.1654 95.1985C87.5478 97.2208 88.0849 99.2108 88.7721 101.151C89.7399 100.289 90.7078 99.4474 91.6756 98.6441C99.9918 91.8675 109.864 87.2674 120.402 85.2586Z" fill="#4A4441"/>
<path d="M99.8634 100.202C99.5465 100.272 99.2157 100.243 98.9161 100.118C98.6164 99.9937 98.3625 99.7797 98.189 99.5054C97.7728 98.5375 98.9149 97.4826 99.9118 96.8631C105.476 93.3936 111.685 91.0888 118.166 90.0881C118.607 91.6227 118.93 93.1888 119.133 94.7726C113.088 95.0825 107.178 96.6796 101.799 99.457C101.199 99.8118 100.545 100.067 99.8634 100.212" fill="#4A4441"/>
<path d="M144.53 163.113C126.499 167.855 108.72 167.507 94.5888 162.145C79.3644 156.386 69.2794 145.517 65.3886 130.661C61.401 115.504 64.0723 96.3695 72.5894 79.5191C76.7105 71.1898 82.3082 63.677 89.1108 57.3455C95.9055 50.9424 104.198 46.3467 113.23 43.9794C122.261 41.6121 131.742 41.5489 140.804 43.7955C149.86 45.9342 158.446 49.7202 166.133 54.9646C181.793 65.4755 193.523 80.8257 197.52 96.0211C201.392 110.839 197.966 125.27 187.552 137.755C180.293 146.466 169.907 153.705 157.548 158.787C153.311 160.52 148.962 161.966 144.53 163.113ZM75.8898 81.2032C67.8082 97.26 65.2434 115.407 69.0084 129.751C72.5798 143.349 81.8809 153.338 95.9051 158.641C109.358 163.732 126.296 164.042 143.582 159.493C160.868 154.944 175.521 146.369 184.677 135.297C194.288 123.779 197.472 110.51 193.901 96.9115C186.158 67.3145 147.802 38.724 114.178 47.5508C111.993 48.1244 109.849 48.8455 107.761 49.7091C94.6372 55.1679 83.4778 66.1046 75.8898 81.2032Z" fill="#5D3C16"/>
<path d="M136.787 114.71C137.407 118.94 142.314 121.389 147.753 120.179C153.192 118.969 157.093 114.565 156.464 110.336C155.835 106.106 150.937 103.648 145.498 104.858C140.059 106.068 136.158 110.481 136.787 114.71Z" fill="#F3A8B0"/>
<path d="M70.8276 128.532C71.447 132.761 76.3637 135.21 81.7934 134C87.2231 132.79 91.1332 128.386 90.5041 124.147C89.875 119.908 84.9777 117.469 79.548 118.679C74.1183 119.889 70.1985 124.302 70.8373 128.532" fill="#F3A8B0"/>
<path d="M115.562 137.029C117.575 143.707 126.209 146.998 134.919 144.375C143.63 141.752 148.973 134.232 146.96 127.554C144.946 120.876 136.313 117.585 127.602 120.198C118.892 122.811 113.549 130.351 115.562 137.029Z" fill="#FAD1B3"/>
<path d="M115.223 134.6C117.236 141.278 111.845 148.808 103.183 151.431C94.5208 154.054 85.8488 150.753 83.8259 144.075C81.8031 137.397 87.2038 129.867 95.8661 127.244C104.528 124.621 113.2 127.922 115.223 134.6Z" fill="#FAD1B3"/>
<path d="M134.455 124.941C134.561 125.199 134.742 125.419 134.974 125.575C135.205 125.73 135.478 125.814 135.757 125.814C136.036 125.815 136.309 125.733 136.542 125.579C136.775 125.424 136.956 125.205 137.064 124.947C137.172 124.69 137.201 124.406 137.148 124.132C137.095 123.858 136.962 123.606 136.765 123.408C136.569 123.209 136.318 123.073 136.045 123.017C135.771 122.961 135.488 122.987 135.229 123.092C135.056 123.162 134.899 123.266 134.767 123.397C134.635 123.528 134.529 123.684 134.457 123.855C134.385 124.027 134.348 124.212 134.348 124.398C134.347 124.584 134.384 124.769 134.455 124.941Z" fill="#967667"/>
<path d="M134.261 138.5C134.369 138.758 134.55 138.979 134.782 139.133C135.015 139.288 135.288 139.371 135.567 139.371C135.847 139.37 136.12 139.287 136.352 139.132C136.584 138.976 136.765 138.756 136.872 138.498C136.978 138.239 137.006 137.955 136.952 137.681C136.897 137.408 136.763 137.156 136.565 136.958C136.368 136.761 136.116 136.626 135.842 136.572C135.568 136.517 135.284 136.545 135.026 136.652C134.681 136.797 134.407 137.073 134.264 137.419C134.121 137.765 134.12 138.154 134.261 138.5Z" fill="#967667"/>
<path d="M140.02 134.726C140.127 134.984 140.309 135.204 140.541 135.359C140.774 135.514 141.047 135.596 141.326 135.596C141.606 135.596 141.879 135.513 142.111 135.357C142.343 135.202 142.524 134.981 142.63 134.723C142.737 134.465 142.765 134.181 142.711 133.907C142.656 133.633 142.521 133.381 142.324 133.184C142.126 132.986 141.875 132.852 141.601 132.797C141.327 132.742 141.043 132.77 140.785 132.877C140.613 132.948 140.457 133.052 140.326 133.184C140.194 133.315 140.09 133.471 140.019 133.643C139.948 133.814 139.911 133.998 139.912 134.184C139.912 134.37 139.949 134.554 140.02 134.726Z" fill="#967667"/>
<path d="M140.146 127.699C140.252 127.957 140.433 128.178 140.665 128.333C140.896 128.489 141.169 128.572 141.448 128.573C141.727 128.573 142 128.491 142.233 128.337C142.465 128.183 142.647 127.963 142.755 127.706C142.863 127.448 142.892 127.164 142.839 126.89C142.786 126.616 142.653 126.364 142.456 126.166C142.26 125.967 142.009 125.832 141.736 125.775C141.462 125.719 141.178 125.745 140.92 125.85C140.747 125.921 140.59 126.024 140.458 126.155C140.325 126.286 140.22 126.442 140.148 126.614C140.076 126.786 140.039 126.97 140.039 127.156C140.038 127.342 140.074 127.527 140.146 127.699Z" fill="#967667"/>
<path d="M132.877 130.661C132.983 130.922 133.164 131.146 133.397 131.304C133.63 131.462 133.905 131.548 134.187 131.549C134.469 131.551 134.745 131.469 134.98 131.313C135.215 131.158 135.399 130.936 135.508 130.676C135.617 130.416 135.646 130.13 135.592 129.853C135.538 129.577 135.403 129.322 135.204 129.123C135.005 128.923 134.751 128.787 134.475 128.731C134.198 128.676 133.912 128.704 133.651 128.812C133.479 128.882 133.322 128.986 133.189 129.117C133.057 129.248 132.952 129.404 132.88 129.575C132.808 129.747 132.77 129.932 132.77 130.118C132.77 130.304 132.806 130.489 132.877 130.661Z" fill="#967667"/>
<path d="M93.2821 133.797C93.2513 134.171 93.0729 134.518 92.7861 134.762C92.4993 135.005 92.1276 135.124 91.7529 135.093C91.3781 135.063 91.0309 134.884 90.7877 134.597C90.5445 134.311 90.4251 133.939 90.4559 133.564C90.4904 133.198 90.6643 132.859 90.9418 132.618C91.2193 132.376 91.579 132.251 91.9464 132.267C92.1322 132.282 92.3133 132.333 92.4792 132.418C92.6451 132.503 92.7926 132.62 92.9131 132.762C93.0337 132.904 93.1249 133.069 93.1816 133.246C93.2383 133.424 93.2593 133.611 93.2434 133.797" fill="#967667"/>
<path d="M98.0438 145.353C98.0337 145.541 97.986 145.725 97.9035 145.895C97.8211 146.065 97.7055 146.216 97.5636 146.34C97.4217 146.464 97.2564 146.559 97.0775 146.618C96.8985 146.678 96.7094 146.7 96.5215 146.686C96.3335 146.671 96.1504 146.618 95.983 146.532C95.8155 146.445 95.6671 146.326 95.5465 146.181C95.4259 146.036 95.3356 145.868 95.2807 145.688C95.2259 145.507 95.2078 145.318 95.2274 145.13C95.2375 144.942 95.2852 144.758 95.3677 144.588C95.4501 144.418 95.5657 144.267 95.7076 144.143C95.8495 144.019 96.0148 143.924 96.1937 143.865C96.3727 143.805 96.5618 143.783 96.7497 143.797C96.9377 143.812 97.1208 143.865 97.2883 143.951C97.4557 144.038 97.6041 144.157 97.7247 144.302C97.8453 144.447 97.9356 144.615 97.9905 144.795C98.0453 144.976 98.0634 145.165 98.0438 145.353Z" fill="#967667"/>
<path d="M92.3628 144.675C92.3409 144.954 92.2368 145.22 92.0637 145.439C91.8906 145.659 91.6564 145.822 91.3905 145.908C91.1247 145.995 90.8392 146 90.5702 145.924C90.3012 145.848 90.0607 145.694 89.8793 145.482C89.6978 145.269 89.5835 145.008 89.5507 144.73C89.518 144.452 89.5683 144.171 89.6953 143.922C89.8224 143.673 90.0204 143.468 90.2643 143.331C90.5083 143.195 90.7872 143.134 91.0659 143.156C91.4393 143.185 91.7857 143.362 92.0289 143.647C92.2721 143.932 92.3922 144.302 92.3628 144.675Z" fill="#967667"/>
<path d="M88.4527 138.907C88.4402 139.188 88.3438 139.46 88.1761 139.686C88.0083 139.912 87.7767 140.083 87.511 140.177C87.2453 140.271 86.9577 140.283 86.6851 140.212C86.4125 140.141 86.1673 139.99 85.981 139.779C85.7947 139.567 85.6759 139.305 85.6397 139.026C85.6034 138.746 85.6516 138.463 85.7778 138.211C85.9041 137.959 86.1027 137.751 86.3483 137.613C86.5938 137.475 86.875 137.413 87.1558 137.436C87.5292 137.465 87.8756 137.642 88.1188 137.927C88.362 138.212 88.4821 138.582 88.4527 138.955" fill="#967667"/>
<path d="M98.77 132.267C98.7481 132.546 98.644 132.812 98.4709 133.031C98.2979 133.251 98.0636 133.414 97.7977 133.5C97.5319 133.587 97.2464 133.592 96.9774 133.516C96.7084 133.44 96.468 133.286 96.2865 133.074C96.105 132.861 95.9907 132.6 95.958 132.322C95.9252 132.044 95.9756 131.763 96.1026 131.514C96.2296 131.265 96.4276 131.06 96.6716 130.923C96.9155 130.787 97.1945 130.726 97.4731 130.748C97.6585 130.761 97.8393 130.811 98.0052 130.895C98.171 130.979 98.3186 131.095 98.4392 131.236C98.5599 131.378 98.6512 131.542 98.708 131.719C98.7648 131.896 98.7859 132.082 98.77 132.267Z" fill="#967667"/>
<path d="M108.09 141.307C110.123 146.224 115.165 148.798 119.366 147.066C123.566 145.333 125.328 139.952 123.305 135.045C121.282 130.138 116.23 127.554 112.029 129.286C107.829 131.019 106.067 136.4 108.09 141.307Z" fill="#FAD1B3"/>
<path d="M127.873 137.445L124.253 139.613L129.441 144.23L127.873 137.445Z" fill="white"/>
<path d="M103.377 143.388L107.587 143.514L105.332 150.076L103.377 143.388Z" fill="white"/>
<path d="M99.8539 139.991C99.7765 138.8 101.635 138.558 101.703 139.768C101.728 140.173 101.833 140.569 102.013 140.933C102.192 141.296 102.442 141.621 102.748 141.888C103.519 142.579 104.48 143.024 105.506 143.165C106.666 143.36 107.857 143.198 108.923 142.701C110.051 142.047 111.038 141.175 111.826 140.136C112.717 139.1 113.52 137.987 114.391 136.932C114.391 136.768 114.391 136.603 114.323 136.448L114.236 136.061V135.984C114.232 135.926 114.232 135.868 114.236 135.81C114.074 135.28 113.867 134.765 113.617 134.271C113.531 134.041 113.535 133.788 113.629 133.562C113.722 133.336 113.898 133.153 114.12 133.051C114.351 132.962 114.606 132.965 114.835 133.059C115.063 133.152 115.247 133.33 115.349 133.555C115.789 134.441 116.099 135.386 116.269 136.361C117.315 137.13 118.429 137.801 119.598 138.365C120.745 138.972 122.017 139.304 123.315 139.333C126.141 139.246 128.057 136.477 128.686 133.98C128.727 133.737 128.859 133.519 129.055 133.37C129.251 133.22 129.496 133.152 129.741 133.177C129.984 133.218 130.203 133.349 130.352 133.545C130.501 133.741 130.57 133.987 130.545 134.232C130.269 135.562 129.711 136.818 128.908 137.913C128.104 139.008 127.075 139.918 125.889 140.581C123.528 141.743 120.866 141.055 118.621 139.962C117.615 139.469 116.645 138.906 115.717 138.278C113.927 140.494 112.31 143.02 109.736 144.356C108.46 144.972 107.037 145.22 105.628 145.071C104.219 144.922 102.88 144.383 101.761 143.514C101.22 143.087 100.772 142.554 100.445 141.948C100.117 141.343 99.9159 140.677 99.8539 139.991Z" fill="black"/>
<path d="M94.7436 86.691C93.9333 87.3211 93.0103 87.7908 92.024 88.075C91.526 88.2095 90.9989 88.1888 90.513 88.0159C90.027 87.843 89.6054 87.526 89.3043 87.1072C88.3364 85.6361 89.8076 83.8455 91.1529 82.7518C97.7979 77.3703 105.462 73.3869 113.685 71.0408C115.87 73.0244 117.893 75.1799 119.734 77.4867C110.796 78.5466 102.234 81.7001 94.7436 86.691Z" fill="#4A4441"/>
<path d="M139.372 104.674C139.637 104.621 139.912 104.674 140.139 104.82C140.367 104.966 140.529 105.195 140.591 105.458C141.559 109.552 139.439 111.265 138.2 111.546C134.871 112.513 132.887 109.484 132.306 107.781C132.262 107.652 132.244 107.515 132.253 107.379C132.261 107.243 132.297 107.11 132.357 106.988C132.417 106.866 132.501 106.756 132.604 106.667C132.706 106.577 132.826 106.508 132.955 106.464C133.082 106.411 133.219 106.386 133.356 106.39C133.494 106.394 133.629 106.428 133.753 106.488C133.876 106.549 133.986 106.635 134.073 106.741C134.161 106.847 134.225 106.97 134.261 107.103C134.31 107.239 135.374 110.2 137.649 109.552C137.823 109.494 139.207 108.923 138.53 105.932C138.5 105.799 138.496 105.662 138.519 105.528C138.542 105.393 138.592 105.265 138.665 105.15C138.737 105.035 138.832 104.935 138.944 104.857C139.055 104.779 139.181 104.723 139.314 104.693L139.372 104.674Z" fill="#13110C"/>
<path d="M90.4848 116.995C90.6157 116.958 90.7526 116.948 90.8875 116.965C91.0224 116.981 91.1526 117.025 91.2706 117.092C91.3885 117.16 91.4919 117.25 91.5747 117.358C91.6574 117.466 91.718 117.589 91.7527 117.721C92.2173 119.472 92.2366 123.053 88.9556 124.137C87.7458 124.554 85.0842 124.321 83.584 120.401C83.4931 120.146 83.5058 119.866 83.6194 119.62C83.733 119.374 83.9384 119.182 84.1917 119.086C84.4449 118.99 84.7258 118.996 84.974 119.105C85.2223 119.213 85.4182 119.415 85.5197 119.666C86.6327 122.569 88.1329 122.221 88.2975 122.173C90.5719 121.427 89.788 118.388 89.7492 118.301C89.7082 118.167 89.6949 118.026 89.71 117.887C89.7251 117.747 89.7684 117.613 89.8371 117.49C89.9059 117.368 89.9988 117.261 90.1101 117.176C90.2214 117.091 90.3489 117.029 90.4848 116.995Z" fill="#13110C"/>
<path d="M112.32 124.612C116.027 123.721 120.711 123.586 121.301 125.938C121.785 127.873 116.462 128.415 116.191 132.132C116.104 133.564 115.949 134.426 114.856 134.687C113.762 134.948 113.239 134.252 112.513 133.013C110.578 129.809 105.593 131.774 105.138 129.809C104.596 127.447 108.613 125.502 112.32 124.612Z" fill="black"/>
<path d="M117.585 125.889C117.45 125.086 116.327 125.066 115.708 125.066C114.604 125.065 113.502 125.165 112.417 125.366C111.449 125.56 107.636 126.789 108.545 128.357C108.615 128.46 108.707 128.546 108.814 128.61C108.921 128.673 109.041 128.713 109.165 128.725C109.411 128.743 109.659 128.726 109.9 128.677C111.207 128.464 112.523 128.27 113.83 128.038C114.74 127.873 117.817 127.322 117.585 125.889Z" fill="#837374"/>
<path d="M144.569 111.952C146.033 112.915 147.433 113.972 148.76 115.117C149.22 115.555 149.832 115.8 150.468 115.8C151.104 115.8 151.716 115.555 152.176 115.117C152.627 114.66 152.879 114.045 152.879 113.404C152.879 112.763 152.627 112.147 152.176 111.691C150.541 110.273 148.814 108.963 147.008 107.771C146.733 107.611 146.43 107.506 146.115 107.463C145.8 107.42 145.48 107.44 145.172 107.521C144.865 107.602 144.577 107.742 144.324 107.935C144.071 108.127 143.858 108.367 143.698 108.642C143.538 108.916 143.433 109.22 143.39 109.535C143.347 109.85 143.367 110.17 143.448 110.477C143.529 110.785 143.669 111.073 143.862 111.326C144.054 111.579 144.294 111.792 144.569 111.952Z" fill="#6BBDE3"/>
<path d="M155.515 120.092C156.212 121.456 156.764 122.89 157.161 124.37C157.993 127.37 162.658 126.092 161.826 123.082C161.304 121.201 160.591 119.378 159.696 117.643C159.372 117.089 158.84 116.686 158.218 116.523C157.597 116.361 156.936 116.452 156.381 116.777C155.827 117.101 155.424 117.633 155.262 118.255C155.099 118.876 155.191 119.537 155.515 120.092Z" fill="#6BBDE3"/>
<path d="M161.206 131.629C161.506 133.013 161.758 134.416 161.923 135.819C161.94 136.456 162.2 137.061 162.65 137.511C163.1 137.961 163.706 138.222 164.342 138.239C164.982 138.234 165.595 137.977 166.047 137.525C166.5 137.072 166.757 136.46 166.762 135.819C166.557 133.98 166.26 132.151 165.871 130.341C165.787 130.035 165.643 129.748 165.448 129.498C165.252 129.247 165.009 129.037 164.733 128.88C164.457 128.724 164.152 128.623 163.837 128.584C163.521 128.544 163.202 128.568 162.895 128.652C162.589 128.737 162.302 128.881 162.052 129.076C161.801 129.272 161.591 129.514 161.434 129.791C161.278 130.067 161.177 130.372 161.138 130.687C161.098 131.002 161.122 131.322 161.206 131.629Z" fill="#6BBDE3"/>
<path d="M163.055 143.562C163.055 145.13 162.948 146.688 162.784 148.247C162.786 148.888 163.042 149.502 163.495 149.955C163.948 150.408 164.562 150.664 165.203 150.666C165.841 150.654 166.449 150.395 166.901 149.944C167.352 149.493 167.611 148.884 167.623 148.247C167.788 146.688 167.875 145.13 167.894 143.562C167.942 140.446 163.103 140.446 163.055 143.562Z" fill="#6BBDE3"/>
<path d="M82.4227 126.441C81.6722 128.281 81.3415 130.264 81.4548 132.248C81.4696 132.885 81.7293 133.492 82.1799 133.943C82.6305 134.393 83.2374 134.653 83.8745 134.668C84.5139 134.66 85.1249 134.403 85.5771 133.951C86.0292 133.498 86.2866 132.887 86.2941 132.248C86.217 130.709 86.4952 129.172 87.1071 127.757C87.2742 127.139 87.1912 126.479 86.8761 125.922C86.5609 125.364 86.039 124.952 85.4231 124.776C84.8039 124.625 84.1502 124.716 83.5959 125.031C83.0417 125.345 82.6289 125.86 82.4421 126.47L82.4227 126.441Z" fill="#6BBDE3"/>
<path d="M81.2999 141.472C81.2186 143.262 81.4111 145.053 81.8709 146.785C82.6549 149.805 87.3296 148.527 86.536 145.508C86.1965 144.191 86.0626 142.829 86.1392 141.472C86.1392 140.83 85.8842 140.214 85.4305 139.761C84.9767 139.307 84.3612 139.052 83.7195 139.052C83.0778 139.052 82.4623 139.307 82.0086 139.761C81.5548 140.214 81.2999 140.83 81.2999 141.472Z" fill="#6BBDE3"/>
<path d="M84.2034 153.58C85.065 155.498 86.0813 157.343 87.2425 159.096C87.6481 159.593 88.2319 159.91 88.8689 159.981C89.5058 160.051 90.1451 159.869 90.6494 159.474C91.138 159.066 91.4507 158.485 91.5228 157.853C91.5949 157.22 91.4208 156.584 91.0365 156.077C90.1179 154.666 89.3151 153.184 88.6362 151.644C87.378 148.798 82.9452 150.676 84.2034 153.58Z" fill="#6BBDE3"/>
<path d="M67.605 138.945C67.6228 138.885 67.6538 138.83 67.6956 138.783C67.7375 138.736 67.7891 138.699 67.847 138.674C72.7222 136.33 77.9953 134.925 83.3907 134.532C88.1838 134.248 92.9935 134.488 97.7344 135.248C97.857 135.267 97.9673 135.334 98.0415 135.433C98.1157 135.533 98.1479 135.658 98.1312 135.781C98.1233 135.842 98.1028 135.901 98.0712 135.954C98.0396 136.008 97.9974 136.054 97.9473 136.09C97.9157 136.118 97.8797 136.141 97.8408 136.158C97.7614 136.178 97.6783 136.178 97.5989 136.158C89.285 134.987 79.4709 134.222 68.2534 139.526C68.1562 139.559 68.0507 139.559 67.9534 139.526C67.8822 139.511 67.8154 139.479 67.7584 139.434C67.7013 139.389 67.6554 139.331 67.6243 139.265C67.5803 139.164 67.5734 139.051 67.605 138.945Z" fill="white"/>
<path d="M70.7503 147.027C70.7459 146.902 70.7911 146.78 70.8761 146.688C74.3564 142.918 78.7957 140.165 83.7196 138.723C88.1063 137.596 92.6422 137.162 97.1631 137.436C97.2704 137.441 97.3728 137.482 97.4535 137.553C97.5343 137.623 97.5887 137.719 97.6078 137.825C97.6269 137.931 97.6096 138.04 97.5587 138.134C97.5078 138.229 97.4264 138.303 97.3276 138.345C97.264 138.36 97.1977 138.36 97.1341 138.345C87.2135 138.065 79.0739 139.478 71.5633 147.337C71.52 147.382 71.4681 147.417 71.4107 147.442C71.3534 147.466 71.2917 147.478 71.2294 147.478C71.1671 147.478 71.1054 147.466 71.048 147.442C70.9907 147.417 70.9388 147.382 70.8955 147.337C70.8102 147.255 70.7585 147.145 70.7503 147.027Z" fill="white"/>
<path d="M77.1673 153.367C79.5294 149.63 82.6933 146.466 86.4297 144.104C89.7628 142.083 93.3406 140.495 97.0762 139.381C97.1329 139.357 97.1937 139.345 97.2552 139.345C97.3167 139.345 97.3775 139.357 97.4343 139.381C97.5453 139.441 97.6286 139.542 97.6666 139.662C97.6902 139.719 97.7024 139.779 97.7024 139.841C97.7024 139.902 97.6902 139.963 97.6666 140.02C97.6388 140.076 97.5994 140.126 97.5511 140.166C97.5027 140.206 97.4464 140.235 97.3859 140.252C90.8819 142.352 83.4681 145.295 77.9416 153.851C77.8841 153.93 77.8075 153.993 77.719 154.034C77.6521 154.05 77.5826 154.05 77.5158 154.034C77.4342 154.03 77.3547 154.007 77.2835 153.967C77.198 153.895 77.1398 153.797 77.1187 153.687C77.0975 153.578 77.1147 153.465 77.1673 153.367Z" fill="white"/>
<path d="M121.563 128.967C124.393 125.077 127.638 121.507 131.241 118.32C135.345 114.808 140.073 112.099 145.178 110.336C145.236 110.309 145.299 110.296 145.362 110.296C145.426 110.296 145.489 110.309 145.546 110.336C145.602 110.362 145.651 110.4 145.691 110.446C145.731 110.493 145.761 110.548 145.779 110.607C145.809 110.67 145.825 110.739 145.825 110.81C145.825 110.88 145.809 110.95 145.779 111.013C145.721 111.1 145.636 111.165 145.537 111.197C133.816 115.31 127.418 122.811 122.308 129.48C122.257 129.547 122.191 129.6 122.114 129.635H121.998C121.937 129.643 121.874 129.639 121.814 129.622C121.754 129.606 121.698 129.577 121.65 129.538C121.573 129.467 121.523 129.371 121.507 129.268C121.491 129.164 121.511 129.058 121.563 128.967Z" fill="white"/>
<path d="M123.479 130.816C123.477 130.691 123.522 130.57 123.605 130.477C126.626 127.106 130.156 124.229 134.067 121.95C138.58 119.507 143.672 118.336 148.798 118.563C148.86 118.564 148.921 118.577 148.978 118.603C149.034 118.628 149.085 118.664 149.127 118.709C149.17 118.754 149.203 118.807 149.224 118.865C149.246 118.923 149.256 118.985 149.253 119.047C149.254 119.141 149.223 119.233 149.166 119.308C149.122 119.371 149.062 119.422 148.993 119.456C148.923 119.49 148.846 119.505 148.769 119.501C137.91 119.221 131.125 123.944 124.292 131.116C124.244 131.163 124.188 131.202 124.128 131.232H123.963C123.837 131.231 123.716 131.182 123.624 131.096C123.545 131.022 123.494 130.923 123.479 130.816Z" fill="white"/>
<path d="M126.267 132.151C126.305 132.031 126.388 131.93 126.499 131.871C129.951 130.016 133.627 128.611 137.436 127.689C141.747 126.722 146.22 126.722 150.531 127.689C150.654 127.715 150.762 127.788 150.831 127.893C150.897 128 150.921 128.127 150.899 128.251C150.88 128.334 150.84 128.41 150.783 128.473C150.734 128.521 150.679 128.56 150.618 128.59C150.526 128.613 150.429 128.613 150.337 128.59C140.378 126.422 133.042 129.557 126.954 132.645C126.836 132.693 126.704 132.693 126.586 132.645C126.47 132.604 126.373 132.521 126.315 132.413C126.274 132.332 126.257 132.241 126.267 132.151Z" fill="white"/>
</svg>
