<svg width="271" height="271" viewBox="0 0 271 271" fill="none" xmlns="http://www.w3.org/2000/svg">
<path d="M147.027 237.667C173.048 237.667 194.142 232.446 194.142 226.004C194.142 219.563 173.048 214.342 147.027 214.342C121.006 214.342 99.9119 219.563 99.9119 226.004C99.9119 232.446 121.006 237.667 147.027 237.667Z" fill="#4B4B4B"/>
<path d="M157.015 182.296C156.123 177.032 156.307 171.642 157.557 166.452C158.893 161.613 162.329 162.716 165.445 162.242C168.562 161.768 170.778 159.842 173.479 164.042C176.213 168.641 177.982 173.749 178.676 179.054C180.302 189.845 177.553 195.623 170.275 196.727C168.803 197.032 167.279 196.978 165.832 196.571C164.385 196.163 163.057 195.413 161.961 194.384C161.364 193.801 160.834 193.152 160.384 192.449C158.796 190.068 157.693 186.719 157.015 182.296ZM164.642 164.313C160.926 164.874 158.264 170.382 159.996 181.841C160.751 186.864 162.106 190.339 164.032 192.187C164.799 192.902 165.73 193.416 166.743 193.685C167.756 193.953 168.82 193.967 169.84 193.726C173.498 193.175 177.466 191.055 175.724 179.47C175.088 174.484 173.406 169.688 170.788 165.397C168.823 162.474 166.413 164.042 164.642 164.313Z" fill="#6E6563"/>
<path d="M170.769 165.397C173.388 169.688 175.07 174.484 175.705 179.47C177.447 191.084 173.479 193.175 169.82 193.727C168.8 193.966 167.735 193.951 166.722 193.68C165.709 193.41 164.779 192.894 164.013 192.178C162.077 190.339 160.732 186.855 159.977 181.841C158.245 170.382 160.722 158.797 164.439 158.235C166.229 157.964 168.823 162.475 170.769 165.397Z" fill="#E8E7E9"/>
<path d="M95.392 104.064C89.4687 129.935 77.9706 157.896 54.0839 152.457C30.1972 147.018 13.55 107.703 19.483 81.8324C25.416 55.9616 43.6794 42.9245 67.6339 48.4026C91.5884 53.8807 101.315 78.1836 95.392 104.064Z" fill="#E8E7E9"/>
<path d="M55.7001 154.315C55.0517 154.208 54.3935 154.082 53.7644 153.928C42.1501 151.276 31.4263 140.891 24.2157 125.424C17.3827 110.771 15.0598 94.3463 18.0021 81.4932C21.0025 68.369 27.2064 58.2065 35.9462 52.0994C44.6859 45.9922 55.8743 44.1145 68.0113 46.8923C73.7138 48.0967 79.0519 50.6288 83.5924 54.2831C88.1329 57.9373 91.7477 62.6107 94.1434 67.9238C98.9827 78.2218 99.9506 91.1524 96.9405 104.402C93.3014 120.295 88.5492 132.567 82.8001 140.871C75.4154 151.508 66.3078 156.028 55.7001 154.315ZM64.1592 49.2926C42.8663 45.8567 26.4708 58.2162 20.9831 82.1997C18.1957 94.4044 20.4314 110.084 26.9838 124.137C33.7588 138.732 43.7955 148.498 54.4322 150.937C64.6722 153.269 73.1119 149.417 80.2159 139.139C85.7424 131.154 90.3397 119.24 93.8918 103.735C99.9989 77.041 89.0525 54.9158 67.2854 49.9314C66.2304 49.67 65.1851 49.4668 64.1592 49.2926Z" fill="#6E6563"/>
<path d="M54.2 52.1192C41.6179 56.7553 35.0848 70.5085 32.2877 82.6841C27.4484 103.706 37.7271 137.765 58.1876 145.876C60.2966 146.706 62.486 147.316 64.7206 147.695C67.5197 148.189 70.4015 147.583 72.7635 146.001C84.5423 137.92 91.327 118.901 95.4404 100.967C97.1477 93.79 97.5509 86.3646 96.6309 79.045C94.5137 74.6653 92.1048 70.4327 89.4203 66.3758C81.7839 54.9357 68.0404 47.0089 54.2 52.1192Z" fill="#EFC0B9"/>
<path d="M174.214 105.671C179.354 131.706 189.971 160.007 214.051 155.254C238.132 150.502 255.911 111.788 250.772 85.7526C245.632 59.7172 227.727 46.1285 203.647 50.9097C179.567 55.6909 169.056 79.6357 174.214 105.671Z" fill="#E8E7E9"/>
<path d="M204.934 157.025C197.482 155.825 191.045 151.082 185.712 142.855C180.225 134.377 175.84 121.969 172.685 105.97C170.053 92.6525 171.437 79.7413 176.557 69.5885C179.116 64.351 182.874 59.7901 187.525 56.2757C192.176 52.7613 197.59 50.3922 203.327 49.3603C215.542 46.9503 226.556 49.0796 235.218 55.5256C243.881 61.9715 249.707 72.2404 252.272 85.4517C254.827 98.3919 252.001 114.739 244.732 129.179C237.057 144.414 225.975 154.479 214.332 156.773C211.24 157.418 208.057 157.504 204.934 157.025ZM175.715 105.37C178.792 120.982 183.032 133.022 188.297 141.181C195.072 151.672 203.415 155.786 213.722 153.763C224.427 151.643 234.715 142.149 241.964 127.805C248.933 113.955 251.643 98.3532 249.223 86.0614C244.239 60.781 226.875 47.8795 203.918 52.4187C182.015 56.716 170.411 78.5025 175.715 105.37Z" fill="#6E6563"/>
<path d="M218.097 55.4003C230.505 60.4138 236.651 74.3123 239.08 86.6137C243.251 107.771 231.976 141.501 211.283 148.992C209.15 149.765 206.941 150.307 204.692 150.608C201.883 151.026 199.022 150.332 196.717 148.673C185.18 140.243 178.966 121.069 175.424 102.98C173.944 95.7527 173.767 88.3189 174.901 81.0292C177.153 76.7174 179.688 72.5594 182.489 68.5826C190.474 57.3748 204.45 49.8642 218.126 55.4003" fill="#EFC0B9"/>
<path d="M118.708 180.737C118.477 183.054 117.946 185.332 117.13 187.512C116.719 188.597 116.207 189.64 115.601 190.629C114.993 191.623 114.283 192.551 113.481 193.397C112.663 194.253 111.758 195.021 110.781 195.691C109.776 196.373 108.71 196.959 107.597 197.443C106.457 197.932 105.283 198.337 104.083 198.652C102.864 198.972 101.626 199.218 100.376 199.388C100.305 199.4 100.242 199.439 100.198 199.496C100.155 199.554 100.136 199.626 100.144 199.698C100.154 199.763 100.186 199.822 100.236 199.865C100.286 199.908 100.35 199.931 100.415 199.93C101.707 199.954 103 199.906 104.287 199.785C105.593 199.659 106.887 199.433 108.158 199.107C109.46 198.778 110.727 198.324 111.942 197.752C114.447 196.57 116.676 194.876 118.485 192.778C119.39 191.715 120.199 190.575 120.905 189.371C121.604 188.173 122.212 186.924 122.724 185.635C123.233 184.369 123.672 183.077 124.041 181.763C124.156 181.412 124.199 181.042 124.167 180.673C124.135 180.305 124.029 179.947 123.854 179.622C123.68 179.296 123.441 179.009 123.152 178.778C122.864 178.547 122.531 178.378 122.175 178.279C121.819 178.181 121.446 178.156 121.08 178.206C120.714 178.255 120.361 178.379 120.044 178.569C119.728 178.759 119.452 179.012 119.236 179.311C119.02 179.611 118.866 179.951 118.785 180.312C118.747 180.452 118.718 180.594 118.698 180.737" fill="#E8E7E9"/>
<path d="M101.083 200.763H100.396C100.155 200.747 99.9279 200.649 99.7515 200.485C99.5752 200.321 99.4609 200.101 99.4279 199.863C99.3919 199.588 99.4651 199.311 99.6316 199.09C99.7981 198.869 100.045 198.723 100.318 198.682H100.376C101.577 198.514 102.766 198.275 103.938 197.966C105.1 197.666 106.236 197.275 107.335 196.795C108.405 196.334 109.429 195.773 110.394 195.12C111.324 194.481 112.187 193.748 112.968 192.933C113.732 192.128 114.41 191.246 114.991 190.3C115.568 189.35 116.058 188.349 116.453 187.31C117.258 185.174 117.775 182.942 117.991 180.67C118.039 180.185 118.187 179.716 118.427 179.291C118.666 178.867 118.991 178.497 119.382 178.205C119.772 177.914 120.219 177.707 120.694 177.598C121.168 177.489 121.661 177.48 122.139 177.572C122.618 177.664 123.072 177.854 123.472 178.132C123.873 178.409 124.211 178.767 124.466 179.182C124.72 179.598 124.885 180.062 124.951 180.544C125.016 181.027 124.979 181.518 124.844 181.986C124.476 183.348 124.027 184.686 123.499 185.993C122.971 187.328 122.347 188.622 121.631 189.865C120.905 191.114 120.066 192.293 119.124 193.388C118.184 194.484 117.129 195.477 115.978 196.349C114.847 197.217 113.623 197.957 112.329 198.556C111.072 199.15 109.759 199.62 108.41 199.96C107.098 200.297 105.761 200.53 104.412 200.656C103.305 200.749 102.194 200.784 101.083 200.763ZM119.472 180.825C119.238 183.226 118.688 185.585 117.837 187.842C117.407 188.969 116.876 190.054 116.249 191.084C115.613 192.126 114.87 193.099 114.033 193.988C113.179 194.884 112.232 195.685 111.207 196.378C110.164 197.092 109.056 197.705 107.897 198.208C107.481 198.392 107.045 198.566 106.6 198.73C107.064 198.634 107.519 198.537 107.964 198.421C109.219 198.099 110.44 197.662 111.613 197.114C112.808 196.555 113.94 195.87 114.991 195.072C116.05 194.261 117.023 193.343 117.895 192.333C118.771 191.307 119.555 190.206 120.237 189.042C120.914 187.873 121.505 186.657 122.008 185.403C122.508 184.137 122.938 182.845 123.295 181.531C123.369 181.283 123.391 181.022 123.362 180.765C123.333 180.508 123.252 180.259 123.125 180.033C122.997 179.807 122.826 179.61 122.621 179.451C122.416 179.293 122.181 179.178 121.931 179.112C121.683 179.042 121.425 179.021 121.169 179.052C120.914 179.083 120.668 179.164 120.444 179.291C120.221 179.418 120.025 179.588 119.868 179.792C119.711 179.995 119.596 180.228 119.53 180.477C119.5 180.59 119.484 180.707 119.482 180.825H119.472Z" fill="#6E6563"/>
<path d="M96.1373 196.891C94.2016 197.278 91.4432 199.727 90.0204 201.111C89.9147 201.213 89.8366 201.34 89.7933 201.481C89.7501 201.622 89.7431 201.771 89.773 201.915C89.803 202.059 89.8689 202.193 89.9646 202.304C90.0603 202.416 90.1828 202.502 90.3205 202.553C92.2562 203.26 95.8179 204.489 97.773 204.053C100.512 203.502 102.361 201.45 101.915 199.466C101.47 197.482 98.8763 196.33 96.1083 196.891" fill="#E8E7E9"/>
<path d="M96.8825 204.905C94.518 204.724 92.1979 204.166 90.0107 203.25C89.7657 203.149 89.5493 202.989 89.3806 202.785C89.2118 202.581 89.0958 202.338 89.0428 202.078C88.9847 201.807 88.9969 201.524 89.0782 201.258C89.1595 200.993 89.3072 200.752 89.5074 200.559C91.3463 198.768 93.9789 196.542 96.0017 196.126C99.1472 195.497 102.138 196.91 102.69 199.291C102.795 199.788 102.799 200.302 102.7 200.801C102.602 201.3 102.404 201.774 102.119 202.195C101.63 202.884 101.01 203.471 100.294 203.921C99.578 204.371 98.7806 204.676 97.9471 204.817C97.5963 204.884 97.2394 204.913 96.8825 204.905ZM96.2921 197.646C95.0145 197.907 92.9239 199.368 90.5623 201.672C90.5555 201.685 90.552 201.7 90.552 201.715C90.552 201.731 90.5555 201.746 90.5623 201.759C90.565 201.775 90.5718 201.789 90.582 201.801C90.5923 201.813 90.6055 201.822 90.6204 201.827C93.8047 203.017 96.3598 203.559 97.6471 203.298C98.9188 203.089 100.06 202.395 100.831 201.362C101.001 201.116 101.12 200.839 101.181 200.546C101.243 200.254 101.246 199.952 101.189 199.659C100.831 198.11 98.6052 197.2 96.3501 197.665L96.2921 197.646Z" fill="#6E6563"/>
<path d="M154.693 192.855C169.54 189.7 170.082 194.684 171.078 202.466C173.876 224.407 175.424 227.195 162.774 227.262C152.902 227.311 151.431 225.394 149.418 209.967C147.153 196.33 151.034 193.513 154.693 192.855Z" fill="#E8E7E9"/>
<path d="M162.397 228.811C157.325 228.811 154.131 228.22 151.925 225.365C149.834 222.655 148.924 218.126 147.889 210.189C145.953 198.633 148.102 192.468 154.393 191.345C161.458 189.845 165.833 190.038 168.572 191.984C171.572 194.113 172.046 197.791 172.598 202.146V202.282C172.84 204.14 173.063 205.853 173.276 207.45C174.718 218.329 175.376 223.294 172.84 226.207C170.972 228.356 167.73 228.791 162.774 228.821L162.397 228.811ZM162.223 193.445C159.792 193.521 157.376 193.846 155.012 194.413C153.26 194.723 148.634 195.536 150.986 209.744C152.921 224.852 154.18 225.752 162.803 225.694C167.439 225.694 169.578 225.239 170.546 224.146C172.162 222.287 171.514 217.148 170.246 207.828C170.033 206.231 169.801 204.508 169.569 202.65V202.514C169.094 198.778 168.717 195.836 166.82 194.491C165.43 193.682 163.826 193.318 162.223 193.445Z" fill="#6E6563"/>
<path d="M172.85 187.561C172.85 204.45 160.384 211.032 144.995 211.032C129.606 211.032 117.111 204.45 117.111 187.561C117.111 170.672 129.606 143.243 144.995 143.243C160.384 143.243 172.85 170.663 172.85 187.552" fill="#E8E7E9"/>
<path d="M144.995 212.58C126.305 212.58 115.582 203.463 115.582 187.561C115.582 169.453 128.754 141.714 144.995 141.714C161.235 141.714 174.398 169.453 174.398 187.561C174.398 203.463 163.684 212.58 144.995 212.58ZM144.995 144.83C138.704 144.83 132.006 150.308 126.605 159.861C121.766 168.465 118.65 179.354 118.65 187.59C118.65 206.667 135.103 209.512 144.966 209.512C154.828 209.512 171.311 206.638 171.311 187.561C171.311 179.325 168.185 168.436 163.345 159.832C157.974 150.279 151.286 144.801 144.995 144.801V144.83Z" fill="#6E6563"/>
<path d="M217.381 108.652C216.906 140.368 185.867 159.435 147.947 158.864C110.026 158.293 79.5869 138.297 80.0611 106.6C80.5354 74.9025 111.894 34.8429 149.815 35.4043C187.735 35.9656 217.865 76.9253 217.381 108.652Z" fill="#E8E7E9"/>
<path d="M132.732 159.097C119.598 156.977 107.839 152.37 98.6923 145.643C85.2585 135.771 78.2802 122.25 78.5222 106.552C78.7642 90.4077 86.7006 72.1927 99.757 57.8393C106.15 50.7154 113.785 44.8123 122.289 40.4179C130.777 35.9556 140.249 33.6928 149.837 33.8365C159.426 33.9802 168.825 36.5259 177.176 41.2406C185.542 45.8837 192.995 52.0061 199.175 59.3105C211.757 74.0606 219.171 92.4983 218.929 108.671C218.697 124.37 211.312 137.707 197.636 147.144C184.803 155.99 167.168 160.694 147.976 160.413C142.869 160.346 137.774 159.906 132.732 159.097ZM157.199 37.6111C154.751 37.2118 152.276 36.9919 149.795 36.953C132.703 36.7013 115.746 44.8507 102.041 59.9202C89.459 73.7316 81.842 91.182 81.6097 106.6C81.3871 121.253 87.9298 133.894 100.522 143.156C112.571 152.012 129.422 157.035 147.947 157.316C166.471 157.596 183.496 153.076 195.797 144.598C208.67 135.723 215.59 123.305 215.813 108.623C216.287 79.0161 189.99 42.9053 157.199 37.6111Z" fill="#6E6563"/>
<path d="M130.999 118.417C131.503 122.811 127.244 126.557 121.495 126.789C115.746 127.022 110.674 123.663 110.171 119.269C109.668 114.875 113.917 111.129 119.666 110.897C125.415 110.665 130.496 114.023 130.999 118.417Z" fill="#F3A8B0"/>
<path d="M178.589 118.417C178.086 122.811 182.344 126.557 188.093 126.789C193.842 127.022 198.914 123.663 199.417 119.269C199.921 114.875 195.672 111.129 189.923 110.897C184.174 110.665 179.092 114.023 178.589 118.417Z" fill="#F3A8B0"/>
<path d="M149.921 123.412C152.729 121.964 155.956 121.549 159.038 122.24C165.581 123.702 169.81 129.712 171.069 136.013C172.859 144.975 171.843 152.689 169.133 161.39C167.797 166.195 165.535 170.693 162.474 174.631C160.951 176.467 159.216 178.118 157.306 179.547C155.322 181.047 152.834 181.889 150.976 183.545C149.737 184.658 148.885 186.206 147.443 187.048C146.593 187.545 145.605 187.752 144.627 187.639C144.45 187.622 144.279 187.57 144.124 187.484C143.954 187.366 143.815 187.21 143.717 187.029C142.178 184.687 144.549 182.364 143.194 180.254C142.12 178.541 139.381 179.286 138.297 177.65C137.107 175.869 138.781 173.227 140.726 172.995C142.672 172.763 144.849 173.856 146.959 173.847C151.799 173.847 154.015 168.301 154.189 164.284C154.312 161.67 153.904 159.058 152.989 156.606C152.074 154.154 150.672 151.913 148.866 150.018C147.25 148.363 145.343 147.008 143.92 145.179C142.617 143.418 141.76 141.368 141.423 139.203C141.086 137.039 141.279 134.825 141.985 132.751C143.291 128.712 146.14 125.352 149.911 123.402" fill="#E8E7E9"/>
<path d="M145.663 189.197C145.263 189.235 144.862 189.235 144.462 189.197C144.066 189.158 143.682 189.032 143.34 188.829C142.97 188.582 142.664 188.25 142.449 187.861C142.035 187.153 141.774 186.366 141.682 185.551C141.59 184.736 141.67 183.91 141.917 183.128C142.13 182.16 142.227 181.521 141.917 181.028C141.714 180.708 141.201 180.563 140.368 180.37C139.046 180.191 137.848 179.495 137.039 178.434C136.643 177.819 136.414 177.112 136.377 176.381C136.34 175.651 136.494 174.924 136.826 174.272C137.159 173.514 137.676 172.852 138.33 172.345C138.984 171.838 139.755 171.502 140.572 171.369C141.904 171.277 143.242 171.428 144.52 171.814C145.322 172.041 146.147 172.174 146.979 172.211C150.657 172.211 152.525 167.478 152.67 164.129C152.77 161.729 152.387 159.333 151.544 157.084C150.702 154.834 149.416 152.777 147.763 151.034C147.172 150.444 146.553 149.882 145.885 149.292C144.727 148.325 143.661 147.253 142.701 146.088C141.242 144.127 140.281 141.841 139.902 139.427C139.523 137.013 139.736 134.542 140.523 132.228C141.964 127.798 145.094 124.115 149.234 121.979C152.359 120.374 155.948 119.915 159.377 120.682C165.881 122.134 171.069 128.009 172.598 135.655C174.282 144.094 173.701 151.905 170.662 161.787C168.862 167.594 166.655 171.978 163.713 175.55C162.115 177.479 160.296 179.214 158.293 180.718C157.33 181.41 156.317 182.031 155.264 182.576C154.119 183.14 153.044 183.835 152.06 184.648C151.635 185.046 151.237 185.473 150.87 185.925C150.151 186.87 149.274 187.683 148.276 188.325C147.482 188.809 146.588 189.107 145.663 189.197ZM144.995 186.119C145.59 186.15 146.181 186.009 146.698 185.712C147.388 185.236 147.996 184.651 148.498 183.98C148.953 183.419 149.448 182.892 149.979 182.402C151.136 181.432 152.403 180.6 153.754 179.924C154.677 179.453 155.564 178.913 156.406 178.308C158.22 176.956 159.865 175.39 161.303 173.643C164.254 169.874 166.422 165.553 167.681 160.935C170.585 151.566 171.127 144.21 169.549 136.313C168.581 131.415 165.146 125.182 158.7 123.731C155.967 123.121 153.108 123.488 150.618 124.766C147.209 126.53 144.638 129.571 143.466 133.225C142.851 135.06 142.686 137.015 142.984 138.927C143.282 140.838 144.035 142.65 145.179 144.21C146.033 145.224 146.972 146.163 147.985 147.017C148.663 147.617 149.36 148.237 150.018 148.953C151.969 150.997 153.489 153.413 154.487 156.057C155.484 158.701 155.94 161.518 155.825 164.342C155.602 169.675 152.457 175.356 147.066 175.385C145.982 175.349 144.907 175.183 143.862 174.892C142.938 174.61 141.973 174.482 141.007 174.514C140.717 174.588 140.449 174.727 140.222 174.922C139.995 175.117 139.817 175.362 139.701 175.637C139.606 175.814 139.557 176.012 139.557 176.213C139.557 176.413 139.606 176.611 139.701 176.789C139.894 177.089 140.523 177.243 141.191 177.398C141.869 177.486 142.523 177.711 143.112 178.058C143.701 178.406 144.213 178.87 144.617 179.421C144.983 180.081 145.209 180.809 145.28 181.56C145.352 182.311 145.268 183.069 145.033 183.786C144.733 184.861 144.617 185.49 144.995 186.119Z" fill="#6E6563"/>
<path d="M159.396 138.762C158.275 139.563 157.294 140.544 156.493 141.665C157.582 140.937 158.786 140.398 160.055 140.068C161.278 139.75 162.536 139.578 163.8 139.555C165.994 139.559 168.184 139.756 170.343 140.146C170.275 139.7 170.217 139.255 170.14 138.81C169.905 137.485 169.535 136.188 169.036 134.938C167.029 135.361 165.061 135.95 163.152 136.7C161.83 137.235 160.576 137.924 159.416 138.752" fill="#988E92"/>
<path d="M165.291 146.93C163.886 147.195 162.518 147.627 161.216 148.218C159.954 148.785 158.795 149.561 157.79 150.512C158.998 150.004 160.285 149.709 161.593 149.641C162.853 149.564 164.117 149.638 165.358 149.863C167.084 150.196 168.781 150.669 170.43 151.276C170.634 149.648 170.74 148.01 170.749 146.369C168.918 146.409 167.092 146.597 165.291 146.93Z" fill="#988E92"/>
<path d="M166.471 158.109C165.041 158.075 163.612 158.208 162.213 158.505C160.847 158.794 159.539 159.307 158.341 160.025C159.62 159.795 160.929 159.779 162.213 159.977C163.462 160.173 164.684 160.518 165.852 161.003C166.539 161.283 167.217 161.603 167.884 161.97C168.281 160.732 168.659 159.512 168.978 158.312C168.126 158.215 167.265 158.147 166.404 158.128" fill="#988E92"/>
<path d="M157.567 167.661C158.862 167.868 160.112 168.293 161.264 168.92C162.265 169.465 163.206 170.113 164.071 170.855C164.545 170.062 164.971 169.239 165.378 168.397C164.184 167.971 162.948 167.675 161.69 167.516C160.318 167.331 158.923 167.38 157.567 167.661Z" fill="#988E92"/>
<path d="M154.015 173.305C155.139 173.975 156.144 174.829 156.986 175.831C157.493 176.44 157.953 177.087 158.361 177.767C158.961 177.244 159.532 176.702 160.084 176.131C159.392 175.595 158.661 175.113 157.896 174.689C156.692 174.018 155.383 173.553 154.025 173.314" fill="#988E92"/>
<path d="M118.611 223.788C120.227 227.021 123.257 228.202 128.231 229.17L128.609 229.247C133.448 230.167 136.749 230.36 138.994 228.608C142.043 226.237 142.343 227.021 143.011 216.026C143.107 214.429 143.214 212.697 143.33 210.838V210.703C143.62 206.367 143.862 202.621 141.327 199.96C139.013 197.53 134.755 190.717 127.535 190.843C121.147 190.746 117.856 196.388 117.537 208.099C117.053 216.113 117.111 220.73 118.611 223.788ZM129.18 226.208C120.702 224.611 119.685 223.498 120.634 208.293V208.235C121.04 193.853 127.564 193.959 127.564 193.959C129.99 193.871 132.419 194.03 134.813 194.433C136.402 194.629 137.895 195.304 139.091 196.369C140.688 198.043 140.494 201.015 140.252 204.77V204.906C140.126 206.773 140.02 208.506 139.923 210.113C139.352 219.501 139.042 224.679 137.097 226.189C135.955 227.06 133.739 227.069 129.18 226.208Z" fill="#6E6563"/>
<path d="M120.29 208.1V208.042C120.697 193.659 125.749 188.984 127.52 189.023C129.966 188.936 132.414 189.095 134.828 189.497C136.33 189.775 137.694 190.553 138.699 191.704C140.306 193.388 140.112 200.802 139.87 204.557V204.693C139.744 206.561 139.638 208.293 139.541 209.9C138.97 219.288 138.66 224.466 136.715 225.976C135.573 226.866 133.356 226.876 128.798 225.976C120.358 224.418 119.342 223.305 120.29 208.1Z" fill="#E8E7E9"/>
<path d="M147.327 208.708C146.815 208.709 146.306 208.63 145.817 208.476L113.239 198.033C111.993 197.631 110.956 196.751 110.358 195.587C109.759 194.422 109.646 193.067 110.045 191.819L114.981 176.45C115.299 175.452 115.926 174.582 116.772 173.966C117.618 173.35 118.639 173.02 119.685 173.023C120.197 173.023 120.707 173.102 121.195 173.256L153.744 183.699C154.991 184.101 156.027 184.98 156.626 186.145C157.225 187.31 157.337 188.665 156.938 189.913L152.002 205.282C151.686 206.275 151.063 207.142 150.223 207.757C149.383 208.373 148.369 208.706 147.327 208.708Z" fill="#575755"/>
<path d="M119.714 173.991C120.124 173.992 120.532 174.054 120.924 174.175L153.473 184.619C154.477 184.943 155.311 185.651 155.794 186.589C156.276 187.527 156.367 188.617 156.048 189.622L151.112 204.982C150.854 205.783 150.348 206.482 149.668 206.977C148.988 207.473 148.169 207.74 147.327 207.741C146.917 207.74 146.509 207.678 146.117 207.557L113.568 197.114C112.565 196.79 111.73 196.081 111.248 195.143C110.765 194.205 110.674 193.115 110.994 192.11L115.93 176.75C116.188 175.949 116.693 175.25 117.373 174.755C118.053 174.259 118.873 173.992 119.714 173.991ZM119.714 172.056C118.461 172.052 117.239 172.448 116.226 173.186C115.213 173.924 114.462 174.965 114.081 176.159L109.155 191.519C108.919 192.262 108.833 193.043 108.9 193.819C108.967 194.595 109.187 195.35 109.547 196.04C109.906 196.731 110.399 197.344 110.996 197.843C111.593 198.343 112.283 198.72 113.026 198.953L145.575 209.396C146.157 209.585 146.764 209.68 147.376 209.676C148.614 209.662 149.816 209.257 150.812 208.521C151.807 207.784 152.545 206.753 152.921 205.573L157.848 190.213C158.326 188.72 158.191 187.099 157.475 185.705C156.758 184.311 155.517 183.259 154.025 182.78L121.476 172.336C120.895 172.147 120.287 172.052 119.676 172.056H119.714Z" fill="black"/>
<path d="M148.753 204.05L150.456 198.741C150.688 198.019 150.29 197.245 149.567 197.013L147.015 196.194C146.292 195.962 145.518 196.36 145.286 197.082L143.583 202.391C143.351 203.113 143.749 203.887 144.471 204.119L147.024 204.938C147.747 205.17 148.521 204.772 148.753 204.05Z" fill="black"/>
<path d="M114.207 175.443C115.923 170.388 118.65 165.735 122.221 161.767C125.696 158.157 128.202 160.8 131.164 161.826C134.126 162.851 136.971 162.251 137.368 167.236C137.594 172.586 136.721 177.925 134.803 182.925C131.096 193.194 125.928 196.968 118.998 194.471C117.559 194.038 116.245 193.265 115.167 192.217C114.089 191.169 113.278 189.878 112.804 188.451C112.553 187.662 112.39 186.847 112.32 186.022C112.059 183.128 112.688 179.653 114.207 175.443ZM129.47 163.258C125.938 161.98 120.972 165.561 117.033 176.469C115.311 181.241 114.846 184.948 115.659 187.483C115.986 188.481 116.554 189.383 117.314 190.107C118.074 190.832 119.002 191.357 120.014 191.636C123.489 192.894 127.999 192.913 131.977 181.899C133.797 177.214 134.602 172.197 134.339 167.178C134.019 163.635 131.154 163.868 129.47 163.258Z" fill="#6E6563"/>
<path d="M134.339 167.129C134.601 172.151 133.796 177.172 131.977 181.86C127.999 192.874 123.499 192.845 120.014 191.636C119.009 191.358 118.087 190.837 117.329 190.12C116.571 189.403 116.001 188.511 115.669 187.522C114.856 184.977 115.31 181.27 117.033 176.498C120.972 165.6 127.147 157.383 131.735 159.319C134.435 160.422 134.019 163.635 134.339 167.129Z" fill="#E8E7E9"/>
<path d="M199.108 179.286L169.288 179.557C168.847 179.559 168.411 179.649 168.004 179.82C167.598 179.991 167.229 180.241 166.919 180.554C166.609 180.868 166.363 181.24 166.197 181.648C166.031 182.056 165.946 182.494 165.949 182.935L166.017 195.633C166.017 195.633 165.716 198.991 162.668 199.001H169.443H170.662L199.253 198.74C199.695 198.738 200.132 198.65 200.539 198.479C200.947 198.309 201.317 198.06 201.628 197.746C201.939 197.432 202.185 197.06 202.352 196.651C202.519 196.242 202.604 195.804 202.602 195.362L202.534 182.673C202.538 182.224 202.452 181.779 202.28 181.363C202.109 180.948 201.856 180.571 201.537 180.255C201.217 179.94 200.838 179.691 200.42 179.524C200.003 179.358 199.557 179.277 199.108 179.286Z" fill="#12B406"/>
<path d="M176.063 191.374C177.201 191.374 178.124 190.451 178.124 189.313C178.124 188.174 177.201 187.251 176.063 187.251C174.924 187.251 174.001 188.174 174.001 189.313C174.001 190.451 174.924 191.374 176.063 191.374Z" fill="#FEFBFF"/>
<path d="M184.28 191.374C185.419 191.374 186.342 190.451 186.342 189.313C186.342 188.174 185.419 187.251 184.28 187.251C183.141 187.251 182.219 188.174 182.219 189.313C182.219 190.451 183.141 191.374 184.28 191.374Z" fill="#FEFBFF"/>
<path d="M192.497 191.374C193.636 191.374 194.559 190.451 194.559 189.313C194.559 188.174 193.636 187.251 192.497 187.251C191.359 187.251 190.436 188.174 190.436 189.313C190.436 190.451 191.359 191.374 192.497 191.374Z" fill="#FEFBFF"/>
<path d="M178.241 116.143C180.176 127.705 181.696 139.32 182.799 150.985C183.099 154.054 187.939 154.083 187.638 150.985C186.477 138.881 184.903 126.831 182.915 114.836C182.402 111.778 177.737 113.075 178.241 116.123V116.143Z" fill="#6BBDE3"/>
<path d="M126.092 115.262C124.105 127.573 121.805 139.833 119.192 152.041C118.543 155.07 123.208 156.377 123.857 153.328C126.483 141.133 128.783 128.873 130.757 116.549C131.251 113.501 126.586 112.194 126.092 115.262Z" fill="#6BBDE3"/>
<path d="M183.244 108.835C183.38 108.843 183.513 108.877 183.635 108.936C183.758 108.995 183.867 109.078 183.957 109.18C184.047 109.282 184.116 109.4 184.16 109.529C184.204 109.657 184.221 109.794 184.212 109.929C183.961 114.11 181.502 115.146 180.215 115.107C176.769 115.107 175.695 111.642 175.608 109.842C175.595 109.567 175.692 109.299 175.877 109.096C176.062 108.892 176.321 108.771 176.595 108.758C176.87 108.745 177.138 108.842 177.342 109.027C177.545 109.212 177.666 109.471 177.679 109.745C177.679 109.881 177.883 113.026 180.254 113.036C180.447 113.036 181.928 112.871 182.112 109.803C182.132 109.531 182.257 109.277 182.462 109.097C182.666 108.916 182.933 108.822 183.206 108.835H183.244Z" fill="#13110C"/>
<path d="M132.49 109.291C132.757 109.306 133.008 109.424 133.188 109.621C133.369 109.818 133.466 110.078 133.458 110.346C133.458 112.156 132.49 115.601 128.986 115.727C127.709 115.795 125.221 114.817 124.863 110.646C124.84 110.371 124.927 110.098 125.105 109.888C125.283 109.677 125.537 109.546 125.812 109.523C126.086 109.5 126.359 109.587 126.57 109.765C126.78 109.943 126.911 110.197 126.935 110.471C127.196 113.578 128.735 113.656 128.87 113.656C131.271 113.569 131.358 110.433 131.358 110.297C131.361 110.155 131.394 110.015 131.453 109.886C131.513 109.757 131.599 109.642 131.705 109.548C131.811 109.453 131.936 109.382 132.071 109.338C132.206 109.293 132.349 109.277 132.49 109.291Z" fill="#13110C"/>
</svg>
