<svg width="271" height="271" viewBox="0 0 271 271" fill="none" xmlns="http://www.w3.org/2000/svg">
<path d="M147.588 228.076C173.609 228.076 194.704 222.854 194.704 216.413C194.704 209.972 173.609 204.75 147.588 204.75C121.567 204.75 100.473 209.972 100.473 216.413C100.473 222.854 121.567 228.076 147.588 228.076Z" fill="#4B4B4B"/>
<path d="M90.8819 233.109L99.0022 231.773C100.338 231.42 101.707 231.203 103.087 231.124C105.022 231.221 105.303 231.608 106.493 233.399C107.781 235.335 108.623 236.632 111.139 237.106C113.907 237.619 116.375 236.564 118.785 235.344C120.063 234.696 122.057 233.138 123.499 233.06C124.176 233.06 126.18 234.125 126.789 234.338C128.251 234.841 128.077 235.257 129.799 235.247C134.639 235.247 137.542 229.556 142.672 232.741C144.24 233.709 144.608 235.867 146.795 235.644C147.656 235.557 148.237 234.793 148.992 234.512C152.031 233.36 152.089 234.87 154.354 235.17C154.852 235.229 155.357 235.199 155.844 235.083C157.364 234.764 157.654 233.921 159.367 233.776C161.429 233.592 162.523 234.376 164.255 235.47C165.049 235.973 165.784 234.715 164.991 234.222C162.871 232.876 160.693 231.444 158.08 232.286C156.812 232.683 156.435 233.35 155.07 233.409C153.706 233.467 153.318 232.779 152.021 232.441C151.391 232.267 150.728 232.24 150.086 232.363C148.353 232.721 147.105 234.415 145.082 233.331C143.979 232.731 143.562 231.221 142.42 230.602C140.349 229.469 137.881 230.224 135.878 231.173C132.103 232.944 131.484 234.076 126.751 232.334C125.628 231.918 125.657 231.444 124.341 231.366C120.16 231.231 116.898 235.954 112.504 235.789C107.577 235.596 108.952 230.34 104.993 229.527C103.3 229.179 101.122 229.934 99.4958 230.205L90.4754 231.705C89.5075 231.85 89.9431 233.254 90.8625 233.099L90.8819 233.109Z" fill="#1A1A1A"/>
<path d="M133.893 151.518C133.01 151.211 132.066 151.122 131.141 151.259C130.215 151.395 129.337 151.753 128.58 152.302C127.08 153.414 125.772 154.764 124.708 156.299C118.117 164.758 111.468 173.333 107.084 183.128C105.855 185.867 104.8 188.935 105.719 191.839C106.513 194.317 108.623 196.117 110.839 197.501C112.892 198.955 115.332 199.764 117.846 199.824C120.111 199.65 122.253 198.727 123.934 197.201C125.602 195.682 127.042 193.932 128.212 192.003C132.575 185.366 135.873 178.087 137.987 170.43C139.009 167.259 139.627 163.971 139.826 160.645C139.914 157.335 139.788 154.083 133.893 151.518Z" fill="#D28B56"/>
<path d="M134.29 150.153C130.138 148.837 126.789 151.46 124.292 154.547C121.176 158.419 118.166 162.377 115.291 166.423C112.241 170.622 109.523 175.052 107.161 179.673C105.284 183.438 103.048 187.871 104.345 192.168C105.458 195.865 109.184 198.459 112.475 199.998C114.282 200.897 116.3 201.281 118.311 201.111C120.322 200.94 122.247 200.22 123.876 199.03C127.748 196.291 130.264 191.684 132.5 187.638C134.855 183.313 136.799 178.777 138.307 174.088C139.884 169.249 141.481 164.013 141.21 158.883C140.968 154.576 138.375 152.021 134.6 150.25C132.955 149.486 131.483 151.905 133.139 152.679C137.823 154.877 138.781 157.722 138.239 162.6C137.552 167.393 136.278 172.084 134.445 176.566C132.738 181.091 130.592 185.438 128.038 189.545C125.309 193.959 121.389 199.669 115.359 198.024C110.307 196.649 105.68 192.478 107.142 186.903C108.332 182.373 111.013 178.037 113.501 174.098C115.988 170.159 118.746 166.297 121.582 162.561C124.137 159.193 128.357 151.208 133.468 152.825C135.239 153.434 136.032 150.705 134.29 150.153Z" fill="#9C6231"/>
<path d="M118.572 198.759C118.908 197.37 118.918 195.923 118.6 194.529C118.283 193.136 117.646 191.836 116.741 190.73C115.836 189.624 114.687 188.743 113.384 188.157C112.081 187.57 110.66 187.293 109.232 187.348C107.628 187.368 106.081 187.947 104.857 188.984C103.309 190.387 102.728 192.536 101.954 194.481C101.133 196.613 99.9867 198.604 98.5567 200.385C96.834 202.485 98.9245 205.96 100.589 206.492C106.832 208.457 114.778 209.812 118.572 198.759Z" fill="#F8D9C0"/>
<path d="M119.879 199.127C121.05 192.207 116.123 185.325 108.632 186.061C105.235 186.39 103.048 188.384 101.693 191.423C100.842 193.71 99.8065 195.924 98.5955 198.043C97.7051 199.388 96.6598 200.463 96.563 202.147C96.3598 207.77 101.044 208.864 105.371 208.922C107.258 209.067 109.154 209.067 111.042 208.922C115.427 207.867 118.185 203.647 119.879 199.117C120.488 197.482 117.866 196.775 117.266 198.391C115.872 202.118 113.607 205.679 109.465 206.454C106.836 206.87 104.143 206.503 101.722 205.399C100.963 204.994 100.362 204.347 100.011 203.562C99.6605 202.777 99.5814 201.898 99.786 201.063C99.9505 200.347 101.286 198.963 101.722 198.237C102.508 196.753 103.2 195.22 103.793 193.649C105.448 189.545 109.048 187.377 113.317 189.603C114.838 190.447 116.049 191.755 116.773 193.336C117.498 194.917 117.697 196.689 117.343 198.391C116.975 200.105 119.579 200.84 119.879 199.127Z" fill="#9C6231"/>
<path d="M89.7879 232.808L89.2168 232.489C89.0533 232.398 88.9095 232.276 88.7936 232.129C88.6776 231.983 88.592 231.814 88.5416 231.634C88.4912 231.454 88.477 231.266 88.4999 231.08C88.5227 230.895 88.5822 230.716 88.6748 230.553L109.668 193.368C109.757 193.204 109.879 193.059 110.026 192.942C110.172 192.826 110.341 192.739 110.521 192.689C110.702 192.638 110.89 192.625 111.076 192.648C111.262 192.672 111.441 192.732 111.603 192.826L112.174 193.146C112.338 193.236 112.482 193.359 112.598 193.505C112.714 193.652 112.799 193.82 112.85 194C112.9 194.18 112.914 194.369 112.891 194.554C112.869 194.74 112.809 194.919 112.716 195.081L91.6946 232.286C91.51 232.607 91.206 232.842 90.8489 232.94C90.4917 233.038 90.1104 232.99 89.7879 232.808Z" fill="#77D144"/>
<path d="M90.9108 233.254C90.3601 233.404 89.7723 233.331 89.2751 233.05C88.7646 232.765 88.3881 232.289 88.2284 231.726C88.0687 231.164 88.1389 230.561 88.4234 230.05L109.097 193.436C109.234 193.18 109.423 192.955 109.651 192.776C109.879 192.596 110.142 192.465 110.423 192.391C110.701 192.309 110.992 192.284 111.28 192.317C111.567 192.351 111.845 192.441 112.097 192.584C112.608 192.869 112.984 193.346 113.144 193.908C113.304 194.471 113.233 195.074 112.949 195.585L92.2755 232.208C92.1309 232.466 91.9353 232.692 91.7007 232.871C91.466 233.051 91.1973 233.181 90.9108 233.254ZM110.694 193.3C110.535 193.346 110.386 193.422 110.257 193.525C110.127 193.628 110.019 193.756 109.939 193.901L89.2558 230.524C89.1725 230.67 89.1193 230.83 89.0994 230.996C89.0794 231.163 89.0931 231.331 89.1396 231.492C89.1841 231.652 89.2601 231.801 89.3632 231.93C89.4663 232.06 89.5943 232.168 89.7397 232.247C89.8832 232.328 90.0412 232.379 90.2047 232.398C90.3681 232.418 90.5338 232.404 90.6921 232.359C90.8504 232.314 90.9982 232.239 91.1271 232.136C91.256 232.034 91.3634 231.907 91.4431 231.763L112.117 195.149C112.201 195.004 112.254 194.843 112.272 194.676C112.291 194.51 112.274 194.341 112.223 194.181C112.135 193.864 111.924 193.594 111.638 193.43C111.352 193.267 111.012 193.224 110.694 193.31V193.3Z" fill="black"/>
<path d="M108.981 189.7C112.136 188.5 114.623 189.584 116.337 193.291C118.137 195.488 116.869 196.775 116.201 199.533C111.1 205.699 112.901 206.647 106.522 206.657L108.981 189.7Z" fill="#F8D9C0"/>
<path d="M108.4 207.489C106.525 203.758 106.058 199.477 107.084 195.43L108.4 207.489Z" fill="#9C6231"/>
<path d="M109.62 206.754C107.771 203.521 107.684 199.34 108.449 195.817C108.845 193.988 106.039 193.213 105.651 195.043C104.684 199.34 104.867 204.295 107.113 208.225C107.21 208.389 107.338 208.533 107.49 208.648C107.642 208.764 107.815 208.848 108 208.896C108.185 208.944 108.377 208.955 108.566 208.929C108.755 208.902 108.937 208.839 109.102 208.743C109.266 208.646 109.41 208.518 109.526 208.366C109.641 208.213 109.725 208.04 109.773 207.855C109.821 207.671 109.832 207.478 109.806 207.289C109.779 207.1 109.716 206.918 109.62 206.754Z" fill="#9C6231"/>
<path d="M203.492 185.761L199.708 177.292L194.82 171.417L191.384 169.772L187.029 169.665L184.057 171.485L182.925 176.45L183.438 185.403L185.19 193.465L177.689 190.31L170.246 190.01L175.879 197.869L186.351 202.282L197.327 204.218L202.573 203.134L204.44 200.733L205.147 197.017L203.492 185.761ZM194.926 186.177L192.807 187.89L191.839 189.313L189.836 183.08L190.707 179.954L192.768 179.063L194.162 179.886L196.301 184.367L196.504 186.08L194.926 186.177Z" fill="#D28B56"/>
<path d="M197.327 204.508L186.245 202.514L175.676 198.101L169.656 189.7L177.786 190.039L184.774 192.942L183.148 185.412L182.615 176.373L183.796 171.301L186.942 169.365L191.491 169.501L195.033 171.224L199.959 177.166L203.763 185.703L205.428 197.017L204.702 200.888L202.766 203.424L197.327 204.508ZM186.429 201.982L197.317 203.918L202.408 202.872L204.179 200.608L204.866 197.007L203.25 185.828L199.495 177.427L194.656 171.62L191.326 170.033L187.116 169.927L184.309 171.649L183.196 176.489L183.709 185.403L185.567 193.958L177.621 190.61L170.846 190.339L176.092 197.656L186.429 201.982ZM191.762 189.961L189.555 183.08L190.523 179.741L192.836 178.773L194.433 179.741L196.63 184.396L196.872 186.4L195.072 186.516L193.049 188.142L191.762 189.961ZM190.145 183.07L191.946 188.674L192.623 187.706L194.82 185.935L196.204 185.848L196.03 184.493L193.959 180.128L192.759 179.421L190.958 180.196L190.145 183.07Z" fill="#D28B56"/>
<path d="M198.75 173.353C195.323 169.007 188.2 165.61 183.622 170.517C181.028 173.304 181.212 178.057 181.493 181.57C181.753 184.833 182.439 188.048 183.535 191.132C182.567 190.678 181.599 190.242 180.554 189.855C174.447 187.455 167.788 185.983 161.361 187.968C159.629 188.51 160.393 191.239 162.116 190.707C168.998 188.577 176.305 190.871 182.606 193.804C187.648 196.156 192.42 198.556 198.091 198.449C198.399 198.436 198.694 198.325 198.934 198.133C199.173 197.94 199.345 197.676 199.424 197.379C199.503 197.081 199.485 196.767 199.372 196.48C199.26 196.194 199.058 195.952 198.798 195.788C200.734 192.642 201.44 188.5 198.304 185.8L198.208 185.732C197.453 183.08 193.61 175.008 189.845 178.754C188.423 180.176 188.674 182.76 188.877 184.561C189.248 187.358 190.309 190.019 191.965 192.304C193.02 193.775 195.478 192.362 194.414 190.871C194.143 190.494 193.891 190.097 193.649 189.7C193.662 189.279 193.798 188.871 194.041 188.527C194.283 188.183 194.622 187.918 195.014 187.764C196.311 187.348 197.075 188.606 197.404 189.7C198.072 191.897 196.949 193.92 195.469 195.507C192.577 195.056 189.77 194.169 187.145 192.875C185.527 189.318 184.544 185.505 184.241 181.609C183.99 178.328 183.506 172.811 187.31 171.378C195.052 168.475 200.24 180.496 201.973 185.983C203.174 189.639 203.695 193.483 203.511 197.327C203.376 199.572 202.94 201.576 200.608 202.485C199.061 202.913 197.442 203.009 195.856 202.766C188.59 202.164 181.77 199.017 176.595 193.881C175.289 192.604 173.285 194.607 174.592 195.885C179.876 201.103 186.721 204.45 194.085 205.418C197.095 205.805 200.705 206.076 203.337 204.266C205.97 202.456 206.289 199.243 206.338 196.33C206.451 188.037 203.779 179.947 198.75 173.353ZM192.217 186.351C191.821 185.129 191.621 183.852 191.626 182.567C191.626 180.805 192.217 180.631 193.339 182.044C193.997 182.884 194.531 183.812 194.927 184.803C193.875 185 192.921 185.546 192.217 186.351Z" fill="#9C6231"/>
<path d="M175.86 182.48C179.47 202.108 169.714 211.816 155.932 214.351C142.149 216.887 129.577 211.303 125.928 191.675C122.279 172.046 127.602 138.133 141.414 135.597C155.225 133.061 172.279 162.861 175.86 182.48Z" fill="#D28B56"/>
<path d="M140.339 150.357C139.781 150.422 139.232 150.552 138.704 150.744C136.11 151.712 134.058 154.102 132.848 157.161C128.977 166.897 127.38 180.389 128.57 190.01C130.583 206.212 140.591 211.39 151.973 209.977C153.675 209.77 155.353 209.403 156.986 208.883C163.287 206.831 167.255 198.962 166.239 190.494C166.239 190.436 166.239 190.377 166.239 190.329C164.197 174.108 151.702 148.944 140.339 150.357Z" fill="#FCD3B1"/>
<path d="M149.95 216.413C145.12 216.508 140.372 215.16 136.313 212.541C130.254 208.515 126.276 201.585 124.495 191.926C123.181 183.727 123.012 175.385 123.992 167.139C124.069 166.529 125.773 152.544 129.964 144.501C133.187 138.307 136.845 134.9 141.152 134.106C148.014 132.848 156.009 138.442 163.684 149.882C170.12 159.454 175.472 172.143 177.321 182.189C179.102 191.868 177.863 199.746 173.633 205.67C169.907 210.877 163.887 214.38 156.212 215.793C154.148 216.19 152.052 216.397 149.95 216.413ZM132.596 145.895C128.667 153.454 126.963 167.362 126.954 167.497C125.993 175.449 126.153 183.496 127.428 191.403C129.054 200.24 132.596 206.521 137.958 210.083C142.643 213.19 148.759 214.158 155.67 212.89C162.58 211.622 167.942 208.525 171.156 203.956C174.901 198.72 175.995 191.587 174.35 182.751C172.559 173.072 167.391 160.829 161.167 151.557C154.296 141.317 147.182 136.071 141.646 137.039C138.345 137.649 135.287 140.62 132.548 145.875L132.596 145.895Z" fill="#9C6231"/>
<path d="M71.4277 112.804C88.3723 112.804 102.109 99.0674 102.109 82.1227C102.109 65.178 88.3723 51.4417 71.4277 51.4417C54.483 51.4417 40.7466 65.178 40.7466 82.1227C40.7466 99.0674 54.483 112.804 71.4277 112.804Z" fill="#D28B56"/>
<path d="M71.4183 114.304C63.4085 114.311 55.6835 111.333 49.7506 105.952C43.8177 100.571 40.1027 93.172 39.3303 85.1995C38.558 77.227 40.7838 69.2528 45.5734 62.8328C50.3631 56.4128 57.3729 52.0077 65.2351 50.477C73.0973 48.9463 81.2477 50.3999 88.096 54.5541C94.9444 58.7083 99.9992 65.265 102.274 72.9449C104.549 80.6249 103.881 88.8769 100.401 96.0909C96.9198 103.305 90.8761 108.963 83.4488 111.962C79.6262 113.508 75.5417 114.303 71.4183 114.304ZM71.4183 52.9224C64.1823 52.9119 57.2004 55.5894 51.8268 60.4354C46.4531 65.2814 43.0709 71.9506 42.3363 79.1492C41.6016 86.3478 43.5667 93.5627 47.8506 99.3943C52.1344 105.226 58.4315 109.259 65.5205 110.71C72.6094 112.162 79.9847 110.929 86.2159 107.25C92.447 103.571 97.0898 97.7094 99.2435 90.8014C101.397 83.8933 100.909 76.4316 97.872 69.8635C94.8355 63.2955 89.4678 58.0893 82.81 55.255C79.2222 53.7292 75.3655 52.9362 71.4667 52.9224H71.4183Z" fill="#9C6231"/>
<path d="M71.428 98.8085C80.6434 98.8085 88.1139 91.338 88.1139 82.1226C88.1139 72.9073 80.6434 65.4368 71.428 65.4368C62.2127 65.4368 54.7422 72.9073 54.7422 82.1226C54.7422 91.338 62.2127 98.8085 71.428 98.8085Z" fill="#F8D9C0"/>
<path d="M199.572 108.352C216.517 108.352 230.253 94.6153 230.253 77.6706C230.253 60.7259 216.517 46.9895 199.572 46.9895C182.627 46.9895 168.891 60.7259 168.891 77.6706C168.891 94.6153 182.627 108.352 199.572 108.352Z" fill="#D28B56"/>
<path d="M199.572 109.862C192.655 109.863 185.921 107.636 180.369 103.511C174.817 99.385 170.742 93.5801 168.748 86.9565C166.754 80.3329 166.948 73.2431 169.3 66.7381C171.652 60.233 176.037 54.6589 181.806 50.8419C187.575 47.025 194.42 45.1684 201.327 45.5474C208.233 45.9263 214.834 48.5206 220.151 52.9458C225.467 57.3709 229.217 63.3913 230.843 70.1147C232.469 76.838 231.886 83.9064 229.179 90.2721L227.805 89.6914L229.179 90.2721C226.701 96.0751 222.575 101.024 217.313 104.506C212.05 107.988 205.882 109.85 199.572 109.862ZM199.621 48.48C194.347 48.475 189.17 49.8989 184.64 52.6004C180.111 55.3019 176.398 59.1801 173.896 63.8229C171.394 68.4656 170.197 73.6995 170.431 78.9682C170.666 84.237 172.323 89.3438 175.227 93.746C178.132 98.1481 182.175 101.681 186.926 103.97C191.678 106.258 196.961 107.217 202.213 106.743C207.466 106.27 212.492 104.382 216.758 101.281C221.024 98.1796 224.37 93.9806 226.44 89.13C228.334 84.6928 229.099 79.8553 228.666 75.0502C228.232 70.2451 226.615 65.6223 223.958 61.5952C221.301 57.5682 217.688 54.2624 213.441 51.9737C209.193 49.685 204.445 48.4846 199.621 48.48Z" fill="#9C6231"/>
<path d="M199.572 94.3563C208.787 94.3563 216.258 86.8858 216.258 77.6705C216.258 68.4551 208.787 60.9846 199.572 60.9846C190.357 60.9846 182.886 68.4551 182.886 77.6705C182.886 86.8858 190.357 94.3563 199.572 94.3563Z" fill="#F8D9C0"/>
<path d="M202.611 113.588C198.072 146.137 166.471 166.82 127.66 162.193C88.3654 157.557 56.2132 128.638 63.0946 90.9786C68.0017 64.0818 102.341 31.3005 137.881 35.6365C180.118 40.8048 207.896 75.6864 202.611 113.588Z" fill="#D28B56"/>
<path d="M175.376 138.965C174.64 134.426 171.872 130.458 167.556 127.235C169.252 123.313 169.796 118.989 169.123 114.769C166.926 101.219 152.67 92.2272 137.242 94.7243C126.78 96.418 119.298 101.267 115.736 109.542C109.745 102.767 97.5988 96.96 87.1363 98.6925C76.2189 100.454 68.3599 109.474 65.4854 119.405C74.1961 142.546 99.0313 158.816 127.66 162.194C143.359 164.052 157.877 161.777 169.898 156.261C174.214 150.395 176.237 144.279 175.376 138.965Z" fill="#F8D9C0"/>
<path d="M102.457 147.027C106.174 157.383 122.153 156.88 126.073 146.969L124.273 147.695C129.257 150.792 136.313 153.638 141.694 149.776C144.385 147.84 147.124 143.495 145.324 140.155C144.578 138.762 142.42 140.001 143.214 141.385C144.52 143.814 141.355 147.269 139.468 148.295C135.006 150.724 129.402 147.985 125.531 145.585C125.368 145.495 125.188 145.442 125.002 145.432C124.816 145.421 124.631 145.452 124.459 145.522C124.287 145.593 124.133 145.701 124.009 145.84C123.884 145.978 123.793 146.142 123.74 146.321C120.721 153.957 107.713 154.354 104.848 146.321C104.315 144.85 101.944 145.488 102.486 146.979L102.457 147.027Z" fill="#714A35"/>
<path d="M124.761 146.857C129.036 146.468 132.346 144.444 132.154 142.336C131.962 140.228 128.341 138.835 124.067 139.224C119.792 139.613 116.482 141.637 116.674 143.745C116.866 145.853 120.487 147.247 124.761 146.857Z" fill="#714A35"/>
<path d="M168.957 137.505C169.114 133.43 164.941 129.961 159.637 129.757C154.333 129.553 149.906 132.692 149.75 136.767C149.593 140.843 153.766 144.312 159.07 144.515C164.374 144.719 168.801 141.581 168.957 137.505Z" fill="#F3A8B0"/>
<path d="M89.9043 135.548C85.2392 135.848 81.7162 138.675 81.3291 142.12C84.7126 145.159 88.3706 147.877 92.2562 150.24C97.3471 149.757 100.967 146.263 100.454 142.294C99.941 138.326 95.1791 135.21 89.9043 135.548Z" fill="#F3A8B0"/>
<path d="M138.21 164.313C134.626 164.31 131.045 164.097 127.486 163.674C104.374 160.945 83.4778 149.718 71.6022 133.671C67.0259 127.612 63.7737 120.659 62.0563 113.263C60.339 105.867 60.1949 98.192 61.6333 90.7366C64.1691 76.8091 74.0509 61.7589 88.0751 50.435C103.561 37.8528 121.36 32.1231 138.075 34.1653C159.619 36.7979 178.279 47.0862 190.61 63.1333C196.133 70.2454 200.172 78.3934 202.49 87.0947C204.807 95.7961 205.356 104.874 204.102 113.791C202.991 121.781 200.154 129.434 195.786 136.217C191.419 142.999 185.626 148.749 178.812 153.067C167.439 160.442 153.328 164.313 138.21 164.313ZM131.3 36.7785C97.986 36.7785 68.8245 67.9338 64.5175 91.2979C63.1541 98.3566 63.2896 105.623 64.9153 112.626C66.5409 119.629 69.6205 126.212 73.9541 131.948C85.3555 147.376 105.487 158.157 127.796 160.79C165.823 165.271 196.649 145.362 201.101 113.442C202.297 104.923 201.771 96.2509 199.555 87.9386C197.339 79.6263 193.478 71.8431 188.2 65.0496C176.402 49.5349 158.448 39.6821 137.697 37.1173C135.573 36.8749 133.437 36.7618 131.3 36.7785Z" fill="#9C6231"/>
<path d="M148.953 136.061C148.343 137.852 146.785 141.23 148.111 143.059C149.737 145.314 155.138 144.027 155.505 146.379C155.786 148.121 153.357 150.115 154.905 151.77C155.37 152.273 155.825 152.186 156.396 152.389C157.973 152.931 159.048 152.254 160.054 153.773C161.061 155.293 160.374 156.144 159.967 157.732C159.897 158.056 159.954 158.394 160.125 158.678C160.297 158.962 160.571 159.169 160.891 159.257C161.21 159.345 161.552 159.307 161.844 159.151C162.137 158.995 162.359 158.733 162.464 158.419C162.919 156.648 164.206 153.463 162.968 151.741C160.887 148.837 156.706 151.973 158.002 147.066C158.428 145.479 158.593 144.443 157.209 143.436C156.115 142.643 154.179 142.556 152.902 142.236C151.46 141.888 151.073 142.081 150.598 140.794C150.124 139.507 151.092 137.774 151.45 136.748C152.002 135.171 149.514 134.493 148.953 136.061Z" fill="#6BBDE3"/>
<path d="M151.866 130.245C152.147 130.239 152.419 130.345 152.622 130.539C152.825 130.733 152.943 130.999 152.95 131.28C153.134 135.626 150.695 136.952 149.369 137.087C145.798 137.397 144.337 133.98 144.066 132.122C144.044 131.851 144.125 131.582 144.294 131.368C144.464 131.155 144.707 131.014 144.976 130.973C145.245 130.933 145.52 130.996 145.744 131.15C145.969 131.304 146.126 131.537 146.185 131.803C146.185 131.948 146.737 135.171 149.185 134.939C149.379 134.939 150.899 134.59 150.763 131.406C150.755 131.121 150.859 130.844 151.052 130.634C151.246 130.424 151.514 130.298 151.799 130.283L151.866 130.245Z" fill="#13110C"/>
<path d="M96.8342 139.284C95.5953 140.494 93.7564 142.411 94.3274 144.308C94.6081 145.275 96.0793 146.108 96.176 146.989C96.176 147.26 94.1048 148.673 93.6886 149.128C92.6434 150.279 94.3565 152.031 95.4018 150.841C96.447 149.65 99.3216 148.953 98.9248 146.863C98.7409 145.895 97.8311 145.305 97.3278 144.511C96.8245 143.717 96.6793 143.427 97.1923 142.575C97.5691 142.004 98.0216 141.486 98.5376 141.036C99.6603 139.943 97.9472 138.229 96.8342 139.323V139.284Z" fill="#6BBDE3"/>
<path d="M100.851 134.281C100.992 134.281 101.132 134.308 101.262 134.362C101.392 134.416 101.511 134.495 101.61 134.595C101.71 134.695 101.789 134.813 101.843 134.944C101.897 135.074 101.925 135.214 101.925 135.355C101.925 137.232 100.957 140.833 97.3955 141.036C96.0696 141.133 93.466 140.184 93.0112 135.848C92.9816 135.565 93.066 135.281 93.2457 135.06C93.4254 134.838 93.6857 134.697 93.9693 134.668C94.253 134.638 94.5367 134.722 94.7582 134.902C94.9796 135.082 95.1206 135.342 95.1501 135.626C95.4889 138.849 97.0858 138.897 97.26 138.897C99.7474 138.752 99.7765 135.5 99.7765 135.355C99.779 135.071 99.893 134.799 100.094 134.598C100.295 134.397 100.567 134.283 100.851 134.281Z" fill="#13110C"/>
<path d="M138.055 205.689V209.812L142.865 211.119L155.448 201.982L146.253 195.343L138.055 205.689Z" fill="#D28B56"/>
<path d="M139.091 204.77C139.186 208.376 138.995 211.985 138.52 215.561C138.278 217.342 137.89 219.268 136.506 220.468C135.122 221.668 132.732 221.794 130.699 221.736C128.831 221.736 126.828 221.601 125.279 220.633C123.256 219.384 122.376 216.974 121.718 214.71C119.608 207.383 117.643 185.296 123.402 180.622C123.402 180.622 129.828 174.66 141.946 182.625C148.972 187.261 152.592 190.232 152.592 190.232" fill="#D28B56"/>
<path d="M137.639 204.769C137.716 210.644 138.471 221.3 130.003 220.255C125.841 219.742 123.973 217.584 122.957 213.683C122.598 212.328 122.347 210.954 122.124 209.58C120.943 202.437 120.285 194.404 121.824 187.319C125.25 171.456 144.52 185.557 151.586 191.307C153.018 192.478 155.089 190.435 153.638 189.255C146.64 183.564 137.068 175.356 127.36 177.35C120.585 178.744 118.959 184.793 118.388 191.036C117.951 196.708 118.149 202.412 118.979 208.041C119.492 211.912 120.005 216.48 122.318 219.732C125.008 223.497 132.19 224.572 136.245 222.413C141.665 219.51 140.61 209.773 140.542 204.818C140.542 202.96 137.639 202.95 137.639 204.818V204.769Z" fill="#9C6231"/>
<path d="M156.735 205.689V209.812L161.439 210.47L167.294 202.65L165.329 196.223L156.735 205.689Z" fill="#D28B56"/>
<path d="M157.761 204.77C157.856 208.376 157.665 211.985 157.189 215.561C156.948 217.342 156.56 219.268 155.176 220.468C153.647 221.784 151.402 221.794 149.369 221.736C147.492 221.736 145.498 221.601 143.949 220.633C141.926 219.384 141.046 216.974 140.387 214.709C138.278 207.383 136.313 186.303 142.072 181.618C142.072 181.618 150.124 173.624 160.616 183.632C164.216 187.067 166.365 197.53 166.365 197.53" fill="#D28B56"/>
<path d="M156.319 204.77C156.396 210.645 157.151 221.301 148.682 220.255C144.491 219.742 142.643 217.545 141.617 213.645C141.249 212.222 140.978 210.741 140.746 209.328C139.584 202.195 138.81 193.746 140.852 186.719C142.517 181.154 148.218 178.87 153.657 180.786C161.09 183.409 163.51 190.9 164.991 197.907C165.378 199.737 168.175 198.962 167.788 197.143C165.852 188.113 161.506 177.892 150.811 177.176C143.214 176.673 138.587 181.87 137.426 188.858C136.644 194.358 136.611 199.938 137.329 205.447C137.794 209.861 138.191 215.6 140.775 219.394C143.494 223.381 150.25 224.485 154.576 222.51C160.335 219.878 159.29 209.812 159.222 204.77C159.222 202.911 156.319 202.902 156.319 204.77Z" fill="#9C6231"/>
<path d="M165.504 166.655C157.509 167.701 154.441 168.668 146.321 172.346C143.572 173.585 139.381 175.463 138.307 178.279C137.339 180.709 137.91 183.457 138.771 185.916C139.463 188.337 140.866 190.495 142.798 192.11C144.676 193.398 146.932 194.018 149.205 193.871C151.46 193.725 153.682 193.259 155.806 192.487C163.355 190.029 180.622 181.522 182.828 174.834C182.828 174.834 184.503 166.897 174.824 161.7C174.824 161.7 169.491 158.671 165.068 160.732C162.6 161.903 161.003 163.636 160.635 165.571" fill="#D28B56"/>
<path d="M165.087 165.262C159.469 165.98 153.975 167.465 148.76 169.675C144.656 171.427 138.675 173.324 136.884 177.892C135.161 182.286 137.445 188.887 140.63 192.149C144.327 195.943 149.805 195.71 154.547 194.394C163.51 191.897 173.246 187.009 180.138 180.738C184.977 176.363 185.654 171.059 181.715 165.658C176.682 158.729 162.706 154.48 159.203 165.204C158.622 166.984 161.429 167.749 162.01 165.978C165.407 155.544 182.606 165.01 181.444 173.721C180.67 179.605 170.701 184.057 166.046 186.458C157.548 190.832 143.185 197.733 139.671 184.009C137.658 176.102 146.892 173.363 152.631 171.175C156.903 169.615 161.344 168.563 165.862 168.039C167.71 167.788 166.917 164.991 165.087 165.242V165.262Z" fill="#9C6231"/>
<path d="M149.437 180.631C146.66 175.656 141.356 174.137 137.823 173.672C136.855 173.556 133.448 173.672 132.674 175.666C132.469 176.309 132.407 176.989 132.494 177.658C132.581 178.327 132.814 178.969 133.177 179.537C130.07 181.473 128.899 183.99 129.248 187.648C129.456 189.478 130.089 191.234 131.098 192.775C132.106 194.316 133.461 195.6 135.055 196.523C138.239 198.372 141.636 197.569 145.179 196.581C147.269 196.001 150.018 194.897 151.208 193.107C152.573 191.123 152.641 189.7 152.176 187.3C151.566 184.964 150.645 182.721 149.437 180.631Z" fill="#F8D9C0"/>
<path d="M150.483 180.021C150.433 179.929 150.374 179.842 150.308 179.76C148.847 177.525 146.854 175.686 144.508 174.409C142.162 173.133 139.536 172.457 136.865 172.443C132.577 172.55 130.487 175.405 131.716 179.121C124.641 185.238 128.812 197.975 138.549 198.759C142.827 199.098 149.428 197.462 152.167 193.813C155.361 189.545 152.554 184.096 150.483 180.021ZM151.102 190.542C150.212 194.142 145.74 195.381 142.604 195.962C138.162 196.833 134.126 195.585 131.774 191.539C129.509 187.668 129.974 183.235 133.71 180.554C133.979 180.385 134.175 180.12 134.256 179.813C134.337 179.505 134.297 179.178 134.145 178.899C131.784 173.895 138.017 174.766 140.359 175.424C143.671 176.256 146.532 178.337 148.344 181.231C149.718 183.893 151.867 187.474 151.102 190.542Z" fill="#9C6231"/>
</svg>
