<svg width="51" height="51" viewBox="0 0 51 51" fill="none" xmlns="http://www.w3.org/2000/svg">
<rect width="51" height="51" fill="#CAE8C7"/>
<mask id="mask0_14093_94807" style="mask-type:alpha" maskUnits="userSpaceOnUse" x="0" y="0" width="51" height="51">
<rect width="51" height="51" fill="#CAE8C7"/>
</mask>
<g mask="url(#mask0_14093_94807)">
<path d="M23.996 36.7577C26.9648 36.7577 29.3715 36.2906 29.3715 35.7144C29.3715 35.1382 26.9648 34.6711 23.996 34.6711C21.0272 34.6711 18.6205 35.1382 18.6205 35.7144C18.6205 36.2906 21.0272 36.7577 23.996 36.7577Z" fill="#9D9D9C"/>
<path d="M16.2087 17.9974C15.9448 22.0293 14.9016 26.5154 11.1707 26.276C7.4397 26.0305 3.99102 20.538 4.25489 16.5C4.51875 12.4681 6.95492 10.0624 10.6859 10.3017C14.4168 10.5472 16.4725 13.9655 16.2087 17.9974Z" fill="#C8C8CE"/>
<path d="M11.4652 26.5276C11.3609 26.5276 11.2627 26.5215 11.1584 26.5154C9.34815 26.3988 7.47653 25.0977 6.01606 22.9437C4.62922 20.9063 3.88058 18.4883 4.01558 16.4816C4.15058 14.4319 4.83786 12.7504 6.00379 11.6212C7.17585 10.4736 8.80201 9.93354 10.6982 10.0563C12.5575 10.179 14.0978 11.0504 15.1471 12.5908C16.1228 14.0207 16.5892 15.9477 16.4542 18.0158C16.086 23.6679 14.4107 26.5276 11.4652 26.5276ZM10.1766 10.5288C8.63632 10.5288 7.31699 11.0198 6.33516 11.971C5.25514 13.0204 4.62309 14.5853 4.49422 16.5123C4.37149 18.4147 5.08946 20.716 6.41493 22.6675C7.78949 24.6927 9.52611 25.9201 11.1829 26.0244C11.275 26.0305 11.367 26.0305 11.4591 26.0305C12.9134 26.0305 13.9996 25.2389 14.7666 23.6249C15.4048 22.2932 15.8037 20.3908 15.9632 17.9728C16.0921 16.0152 15.6564 14.1987 14.7421 12.8547C13.7848 11.4493 12.3734 10.6454 10.6675 10.535C10.5018 10.535 10.3423 10.5288 10.1766 10.5288Z" fill="#666161"/>
<path d="M8.75286 11.1854C6.97943 12.1858 6.32283 14.4073 6.2001 16.3159C5.98532 19.593 8.35399 24.4656 11.6309 25.1898C11.9745 25.2634 12.3181 25.3002 12.6556 25.3064C13.0852 25.3125 13.5086 25.153 13.8216 24.8584C15.3986 23.3549 15.957 20.3355 16.1411 17.5371C16.2209 16.3527 16.092 15.2235 15.7914 14.2109C15.3495 13.585 14.8832 13.002 14.3984 12.4803C12.9686 10.94 10.7104 10.0808 8.75286 11.1854Z" fill="#EEB9B1"/>
<path d="M15.9449 17.9053C15.9817 21.2131 15.1533 24.3797 13.0116 24.4042C10.8639 24.4288 8.18839 20.5073 8.15157 17.1996C8.11475 13.8918 9.87591 12.2962 12.0175 12.2717C14.1591 12.241 15.908 14.5975 15.9449 17.9053Z" fill="#F9D2CA"/>
<path d="M32.2985 15.6471C33.7038 19.4397 35.9865 23.4348 39.4904 22.1399C42.9943 20.8389 44.731 14.5854 43.3257 10.7928C41.9205 7.00025 38.9013 5.39239 35.3913 6.69341C31.8874 7.99443 30.8933 11.8607 32.2985 15.6471Z" fill="#C8C8CE"/>
<path d="M38.1588 22.6369C35.8147 22.6369 33.7713 20.3233 32.0715 15.7329C31.3535 13.7936 31.2492 11.8114 31.7769 10.1606C32.3415 8.38704 33.5626 7.11057 35.3177 6.46006C37.0972 5.79728 38.8093 5.85251 40.2698 6.61348C41.7118 7.36218 42.8532 8.7798 43.565 10.7068C44.2646 12.5908 44.2339 15.1192 43.4914 17.4757C42.7059 19.955 41.2823 21.7409 39.5825 22.3668C39.0977 22.5509 38.6191 22.6369 38.1588 22.6369ZM37.7231 6.49688C37.0052 6.49688 36.2504 6.63803 35.4833 6.92647C33.8817 7.52174 32.7588 8.69388 32.2433 10.314C31.7462 11.8605 31.8506 13.7261 32.5317 15.5672C33.3724 17.8378 34.3051 19.5439 35.2931 20.6424C36.5695 22.0539 37.9134 22.465 39.4107 21.9127C40.9632 21.3358 42.2825 19.6666 43.0189 17.3285C43.7307 15.0762 43.7614 12.6706 43.0987 10.8786C42.4298 9.06823 41.3682 7.74881 40.0366 7.0492C39.3248 6.68099 38.5454 6.49688 37.7231 6.49688Z" fill="#666161"/>
<path d="M37.6802 7.02466C39.6684 7.47879 40.9264 9.41804 41.5952 11.21C42.7366 14.2907 41.8591 19.6359 38.932 21.2683C38.6252 21.4402 38.3061 21.5691 37.9809 21.6734C37.5697 21.8023 37.1156 21.7716 36.7352 21.5752C34.7961 20.5872 33.397 17.8562 32.4213 15.2235C32.0101 14.1128 31.8076 12.9958 31.8076 11.9342C32.0531 11.21 32.3354 10.5165 32.6483 9.87831C33.5688 7.99429 35.4895 6.52144 37.6802 7.02466Z" fill="#EEB9B1"/>
<path d="M32.7096 15.5119C33.6178 18.6908 35.3176 21.4892 37.3795 20.9001C39.4413 20.311 40.8895 15.7881 39.9813 12.6092C39.0731 9.43029 36.9315 8.40544 34.8697 8.98844C32.8017 9.57758 31.8014 12.333 32.7096 15.5119Z" fill="#F9D2CA"/>
<path d="M20.0932 28.565C20.0564 28.921 19.9766 29.2769 19.8539 29.6022C19.7925 29.7678 19.7127 29.9274 19.6207 30.0747C19.5286 30.2281 19.4182 30.3631 19.2954 30.4981C19.1727 30.627 19.0377 30.7436 18.8843 30.8479C18.7309 30.9523 18.5713 31.0382 18.3995 31.1118C18.2277 31.1855 18.0497 31.2468 17.8657 31.2959C17.6816 31.345 17.4913 31.3818 17.3011 31.4064C17.2766 31.4125 17.2643 31.4309 17.2643 31.4555C17.2643 31.4739 17.2827 31.4923 17.3072 31.4923C17.5036 31.4984 17.7 31.4923 17.8963 31.4678C18.0927 31.4494 18.2891 31.4125 18.4854 31.3634C18.6818 31.3143 18.872 31.2468 19.0623 31.1548C19.2464 31.0689 19.4304 30.9584 19.5961 30.8295C19.7618 30.7007 19.9214 30.5534 20.0564 30.3938C20.1975 30.2342 20.3202 30.0563 20.4246 29.8783C20.5289 29.6942 20.6209 29.504 20.7007 29.3076C20.7805 29.1112 20.848 28.9148 20.9032 28.7123V28.7062C20.9646 28.4852 20.8357 28.2582 20.6148 28.1968C20.3939 28.1354 20.1668 28.2643 20.1055 28.4852C20.1055 28.5221 20.0993 28.5466 20.0932 28.565Z" fill="#C8C8CE"/>
<path d="M17.4113 31.6213C17.3745 31.6213 17.3438 31.6213 17.307 31.6213C17.2272 31.6213 17.1597 31.5599 17.1474 31.4802C17.1413 31.4372 17.1536 31.3942 17.1781 31.3574C17.2027 31.3206 17.2456 31.3022 17.2886 31.2961C17.4849 31.2654 17.669 31.2286 17.8409 31.1856C18.025 31.1365 18.1968 31.0751 18.3563 31.0076C18.522 30.934 18.6816 30.8481 18.8227 30.7499C18.9638 30.6517 19.0988 30.5412 19.2154 30.4185C19.332 30.2957 19.4363 30.1607 19.5222 30.0196C19.6082 29.8784 19.6818 29.725 19.7432 29.5655C19.8598 29.2647 19.9334 28.9395 19.9763 28.559C19.9825 28.5283 19.9825 28.5038 19.9948 28.4731C20.0745 28.1847 20.3691 28.019 20.6575 28.0987C20.7986 28.1356 20.9091 28.2276 20.9827 28.3504C21.0564 28.4731 21.0686 28.6204 21.0318 28.7615C20.9704 28.9763 20.9029 29.185 20.8293 29.3752C20.7434 29.5839 20.6514 29.7802 20.5409 29.9582C20.4243 30.1546 20.3016 30.3326 20.1604 30.4921C20.0193 30.6578 19.8536 30.8112 19.6818 30.9463C19.51 31.0751 19.3197 31.1917 19.1234 31.2838C18.9393 31.3697 18.7368 31.4433 18.5281 31.4986C18.3379 31.5477 18.1293 31.5845 17.9206 31.6029C17.7488 31.6152 17.5831 31.6213 17.4113 31.6213ZM20.2157 28.5836C20.1727 28.9825 20.0929 29.3384 19.9702 29.6514C19.9027 29.8293 19.8229 29.995 19.7247 30.1485C19.6266 30.308 19.5161 30.4553 19.3872 30.5903C19.2584 30.7253 19.1111 30.8481 18.9577 30.9585C18.8043 31.0629 18.6325 31.1549 18.4545 31.2347C18.4115 31.2531 18.3625 31.2715 18.3134 31.2899C18.3625 31.2776 18.4115 31.2654 18.4606 31.2531C18.657 31.204 18.8411 31.1365 19.0129 31.0567C19.197 30.9708 19.3688 30.8665 19.5284 30.7437C19.6879 30.621 19.8413 30.4799 19.9702 30.3264C20.0991 30.1791 20.2218 30.0073 20.3261 29.8232C20.4243 29.6514 20.5164 29.4673 20.5961 29.2709C20.6698 29.0929 20.7373 28.8965 20.7925 28.6879C20.817 28.6081 20.8048 28.5283 20.7679 28.4608C20.7311 28.3933 20.6636 28.3442 20.59 28.3258C20.4366 28.2829 20.2709 28.3749 20.2279 28.5283C20.2218 28.5467 20.2218 28.5651 20.2157 28.5836Z" fill="#666161"/>
<path d="M16.6565 31.026C16.3619 31.0873 15.9446 31.4617 15.7237 31.6703C15.6562 31.7378 15.6808 31.8544 15.7667 31.8913C16.0551 32.0017 16.6012 32.1797 16.9019 32.1183C17.3192 32.0324 17.6015 31.7194 17.534 31.4187C17.4665 31.118 17.0738 30.9462 16.6565 31.026Z" fill="#C8C8CE"/>
<path d="M16.7732 32.2534C16.4664 32.2534 16.0491 32.1245 15.73 32.0079C15.6502 31.9772 15.5888 31.9097 15.5704 31.8238C15.552 31.7379 15.5766 31.652 15.6441 31.5906C15.9263 31.3145 16.3252 30.9769 16.6382 30.9156C17.1168 30.8174 17.5771 31.0383 17.663 31.4004C17.6998 31.5477 17.6691 31.7011 17.5771 31.8422C17.4482 32.0448 17.215 32.192 16.9389 32.2473C16.8836 32.2473 16.8284 32.2534 16.7732 32.2534ZM16.8652 31.1304C16.8039 31.1304 16.7425 31.1365 16.6811 31.1488C16.4909 31.1856 16.1718 31.4127 15.8098 31.7625C15.8098 31.7625 15.8036 31.7686 15.8098 31.7747C15.8098 31.7809 15.8159 31.7809 15.8159 31.7809C16.3007 31.965 16.6873 32.0448 16.8836 32.0018C17.0923 31.9588 17.2702 31.8484 17.3623 31.7072C17.3991 31.6459 17.442 31.5538 17.4175 31.4495C17.3745 31.2592 17.1352 31.1304 16.8652 31.1304Z" fill="#666161"/>
<path d="M16.0061 31.5844C16.184 31.4617 16.5277 31.2469 16.7425 31.2407C16.81 31.2407 16.8713 31.2469 16.9327 31.2591C17.0493 31.3205 17.1291 31.4187 17.1352 31.5292C17.1475 31.7194 16.945 31.879 16.6934 31.8851C16.5093 31.8912 16.1656 31.8299 16.0061 31.7378C15.9509 31.7071 15.9509 31.6212 16.0061 31.5844Z" fill="#E0E0E2"/>
<path d="M20.2648 27.6016C18.6018 28.3749 17.8961 27.976 17.5463 27.2396C17.2027 26.497 17.35 25.6992 19.0068 24.9198C20.6698 24.1466 22.2959 24.1159 22.6396 24.8585C22.9894 25.5949 21.9216 26.8223 20.2648 27.6016Z" fill="#C8C8CE"/>
<path d="M18.7429 28.2644C18.6079 28.2644 18.479 28.2521 18.3563 28.2214C17.8961 28.1171 17.5463 27.8225 17.3192 27.3377C17.0922 26.8529 17.0861 26.3926 17.3008 25.9753C17.5463 25.5028 18.0679 25.0793 18.8963 24.6927C19.7309 24.3061 20.5838 24.079 21.3079 24.0668C22.0995 24.0484 22.6457 24.2938 22.8604 24.748C23.0691 25.2021 22.9034 25.7789 22.3879 26.3742C21.9154 26.9204 21.1975 27.4298 20.3629 27.8225C19.7309 28.1171 19.197 28.2644 18.7429 28.2644ZM21.3816 24.5638C21.3632 24.5638 21.3447 24.5638 21.3263 24.5638C20.6759 24.5761 19.8904 24.7786 19.1172 25.1407C18.3993 25.4782 17.939 25.8342 17.7488 26.2024C17.6015 26.4847 17.6077 26.7793 17.7733 27.1291C17.939 27.4789 18.1599 27.6752 18.4729 27.7427C18.8779 27.8348 19.4486 27.7059 20.1666 27.3745C21.805 26.6074 22.6764 25.4844 22.4248 24.9566C22.302 24.705 21.9216 24.5638 21.3816 24.5638Z" fill="#666161"/>
<path d="M20.0623 27.2763C21.6455 26.5337 22.658 25.3616 22.3328 24.6558C22.1794 24.3183 21.7437 24.1526 21.1669 24.1465C20.2464 24.5331 19.4732 24.8829 19.1357 25.0793C18.6264 25.38 18.1109 25.7543 18.0618 26.4171C18.0434 26.6749 18.117 26.9265 18.252 27.1413C18.2705 27.172 18.295 27.2026 18.3134 27.2395C18.522 27.534 18.8902 27.6752 19.24 27.5831C19.4793 27.5218 19.7493 27.4174 20.0623 27.2763Z" fill="#E0E0E2"/>
<path d="M25.5729 30.4124C27.8373 29.9337 27.917 30.6885 28.0704 31.8791C28.5 35.2237 28.7332 35.6471 26.8063 35.6533C25.3029 35.6594 25.0759 35.371 24.769 33.0205C24.4254 30.9401 25.0206 30.5106 25.5729 30.4124Z" fill="#C8C8CE"/>
<path d="M26.7512 35.8986C25.978 35.8986 25.4871 35.8066 25.1496 35.3709C24.8305 34.9536 24.6894 34.2662 24.5298 33.0573C24.2353 31.2899 24.5666 30.3509 25.5301 30.1729C26.6101 29.9459 27.2789 29.9766 27.6962 30.2711C28.1565 30.5964 28.2301 31.1671 28.316 31.8238V31.8422C28.3528 32.1245 28.3896 32.3884 28.4203 32.6277C28.6412 34.2908 28.7394 35.0456 28.3528 35.4936C28.0644 35.825 27.5674 35.8925 26.8126 35.8925C26.788 35.8986 26.7696 35.8986 26.7512 35.8986ZM26.7267 30.5166C26.4321 30.5166 26.0701 30.5657 25.6282 30.6578H25.6221C25.3582 30.7069 24.6587 30.8296 25.0207 32.9836V32.9898C25.1619 34.0883 25.2907 34.751 25.5423 35.0763C25.7448 35.334 26.0517 35.42 26.8126 35.4138C27.5121 35.4077 27.8435 35.3463 27.9846 35.1806C28.2301 34.8983 28.1258 34.1189 27.9355 32.7013C27.9049 32.4559 27.868 32.1981 27.8312 31.9097V31.8913C27.7576 31.3267 27.7024 30.8787 27.4139 30.6762C27.2605 30.5657 27.0335 30.5166 26.7267 30.5166Z" fill="#666161"/>
<path d="M25.5729 30.4122C26.1436 30.3324 26.5731 30.314 26.9045 30.3447C27.0579 30.6147 27.1868 30.8541 27.2666 31.0198C27.6163 31.7623 27.5979 32.7013 27.6409 33.4991C27.6532 33.7261 27.647 33.9593 27.5979 34.1864C27.4138 35.064 26.837 35.2665 26.1988 35.2849C25.6281 35.3033 25.1188 34.9167 24.9899 34.3644C24.9102 34.0146 24.8427 33.5727 24.769 33.0204C24.4254 30.94 25.0206 30.5104 25.5729 30.4122Z" fill="#E0E0E2"/>
<path d="M22.6211 30.4121C20.3568 29.9335 20.277 30.6883 20.1236 31.8788C19.6941 35.2234 19.4609 35.6469 21.3877 35.653C22.8911 35.6592 23.1182 35.3707 23.425 33.0203C23.7687 30.9399 23.1796 30.5103 22.6211 30.4121Z" fill="#C8C8CE"/>
<path d="M21.4491 35.8986C21.4307 35.8986 21.4123 35.8986 21.3877 35.8986C20.6268 35.8925 20.1359 35.825 19.8475 35.4997C19.4609 35.0517 19.5591 34.2969 19.78 32.6338C19.8106 32.3945 19.8475 32.1306 19.8843 31.8483V31.8299C19.9702 31.1732 20.0438 30.6025 20.5041 30.2773C20.9213 29.9765 21.5902 29.9459 22.6702 30.1791C23.6337 30.3509 23.9589 31.296 23.6705 33.0634C23.5109 34.2724 23.3759 34.9658 23.0507 35.377C22.7132 35.8127 22.2223 35.8986 21.4491 35.8986ZM21.4736 30.5166C21.1607 30.5166 20.9336 30.5718 20.7863 30.6762C20.5041 30.8787 20.4427 31.3267 20.3691 31.8913V31.9097C20.3322 32.192 20.2954 32.4558 20.2647 32.7013C20.0745 34.1189 19.9702 34.8983 20.2157 35.1806C20.3568 35.3463 20.6882 35.4077 21.3877 35.4138C22.1486 35.42 22.4555 35.334 22.658 35.0763C22.9096 34.751 23.0323 34.0944 23.1796 32.9898V32.9836C23.5355 30.8296 22.8359 30.7068 22.5782 30.6577H22.572C22.1302 30.5596 21.7682 30.5166 21.4736 30.5166Z" fill="#666161"/>
<path d="M22.621 30.4122C22.0503 30.3324 21.6207 30.314 21.2894 30.3447C21.1359 30.6147 21.0071 30.8541 20.9273 31.0198C20.5775 31.7623 20.5959 32.7013 20.553 33.4991C20.5407 33.7261 20.5469 33.9593 20.5959 34.1864C20.78 35.064 21.3569 35.2665 21.995 35.2849C22.5657 35.3033 23.0751 34.9167 23.2039 34.3644C23.2837 34.0146 23.3512 33.5727 23.4248 33.0204C23.7685 30.94 23.1794 30.5104 22.621 30.4122Z" fill="#E0E0E2"/>
<path d="M28.34 29.6082C28.34 32.1796 26.4377 33.186 24.0936 33.186C21.7495 33.186 19.8472 32.1857 19.8472 29.6082C19.8472 27.0307 21.7495 22.8577 24.0936 22.8577C26.4377 22.8577 28.34 27.0369 28.34 29.6082Z" fill="#C8C8CE"/>
<path d="M24.1 33.4316C21.2466 33.4316 19.6082 32.0385 19.6082 29.6083C19.6082 26.8467 21.6209 22.6123 24.1 22.6123C26.5792 22.6123 28.5919 26.8467 28.5919 29.6083C28.5858 32.0385 26.9535 33.4316 24.1 33.4316ZM24.1 23.1033C23.1427 23.1033 22.1302 23.9379 21.3141 25.3862C20.5777 26.6933 20.1052 28.3503 20.1052 29.6083C20.1052 30.8541 20.6268 32.9407 24.1062 32.9407C27.5855 32.9407 28.1071 30.8541 28.1071 29.6083C28.1071 28.3564 27.6285 26.6995 26.8982 25.3862C26.0698 23.9379 25.0512 23.1033 24.1 23.1033Z" fill="#666161"/>
<path d="M27.7206 29.0744C27.4076 26.6197 25.7753 23.3732 23.7687 23.1339C22.7501 23.8397 21.9462 24.8522 21.5105 26.0121C20.9705 27.4297 20.995 29.0499 21.5535 30.4613C22.0444 31.701 23.2655 32.4435 24.7567 32.3024C25.5299 32.2288 26.3644 31.8237 26.8983 31.2653C27.4076 30.7314 27.8188 29.8538 27.7206 29.0744Z" fill="#E0E0E2"/>
<path d="M34.6674 15.7267C35.367 20.5073 31.1635 24.1281 25.4443 24.9627C19.7252 25.7973 14.6626 23.5267 13.9692 18.7461C13.2696 13.9654 17.0128 7.1842 22.732 6.34958C28.4512 5.51497 33.9678 10.9461 34.6674 15.7267Z" fill="#C8C8CE"/>
<path d="M23.1614 25.38C21.1363 25.38 19.2524 24.975 17.7122 24.1834C15.4478 23.0235 14.0671 21.1579 13.7235 18.789C13.3676 16.3527 14.1224 13.4193 15.7363 10.94C17.5097 8.22136 19.9765 6.50917 22.695 6.11641C25.4073 5.71752 28.2669 6.65646 30.7399 8.75527C32.9981 10.67 34.5567 13.2659 34.9127 15.7022C35.2563 18.071 34.4708 20.2558 32.636 22.017C30.9178 23.6617 28.3773 24.797 25.4871 25.2205C24.6893 25.3248 23.9161 25.38 23.1614 25.38ZM23.9223 6.50917C23.5357 6.50917 23.1491 6.53986 22.7625 6.59509C20.1913 6.96944 17.8411 8.60798 16.1474 11.2039C14.5949 13.585 13.8708 16.3895 14.2083 18.7154C14.5274 20.9247 15.816 22.6614 17.9331 23.7476C19.9581 24.7848 22.6091 25.1346 25.4073 24.7234C28.2055 24.3184 30.6478 23.226 32.2924 21.6488C34.0106 20.0041 34.747 17.9667 34.4279 15.7636C34.0904 13.4438 32.5931 10.9584 30.4269 9.12348C28.408 7.41743 26.1375 6.50917 23.9223 6.50917Z" fill="#666161"/>
<path d="M22.3205 6.77299C20.9214 7.24553 19.6021 7.88377 18.4791 8.82885C16.9818 10.0869 15.9202 11.8482 15.5029 13.7568C15.2207 15.0394 15.2391 16.3833 15.5275 17.6598C16.767 23.0787 22.8789 25.4168 27.8495 23.5512C29.7886 22.8209 31.4884 21.5138 32.8077 19.9059C33.2127 19.4149 33.6116 18.8626 33.9798 18.2735C34.0902 17.6046 34.0964 16.905 33.9921 16.1808C33.3048 11.4677 27.9354 6.1409 22.3205 6.77299Z" fill="#E0E0E2"/>
<path d="M19.3099 20.9982C20.1867 20.9111 20.8441 20.302 20.7782 19.6375C20.7122 18.9731 19.948 18.5051 19.0711 18.5921C18.1943 18.6791 17.5369 19.2883 17.6028 19.9527C17.6688 20.6171 18.433 21.0852 19.3099 20.9982Z" fill="#FFA4A8"/>
<path d="M29.6743 18.7524C30.5511 18.6654 31.2085 18.0562 31.1426 17.3918C31.0767 16.7274 30.3124 16.2593 29.4356 16.3463C28.5587 16.4334 27.9013 17.0425 27.9673 17.7069C28.0332 18.3714 28.7975 18.8394 29.6743 18.7524Z" fill="#FFA4A8"/>
<path d="M20.3591 19.1276C20.7773 19.0861 21.0712 18.5986 21.0157 18.0387C20.9601 17.4789 20.5761 17.0586 20.1579 17.1001C19.7397 17.1416 19.4457 17.6292 19.5013 18.189C19.5568 18.7489 19.9409 19.1691 20.3591 19.1276Z" fill="black"/>
<path d="M28.1279 17.7347C28.5461 17.6932 28.8401 17.2057 28.7845 16.6458C28.7289 16.0859 28.3449 15.6657 27.9267 15.7072C27.5085 15.7487 27.2146 16.2362 27.2701 16.7961C27.3257 17.3559 27.7097 17.7762 28.1279 17.7347Z" fill="black"/>
<path d="M27.865 17.2154C27.9965 17.2023 28.0823 16.9811 28.0567 16.7214C28.0311 16.4617 27.9037 16.2618 27.7722 16.2749C27.6406 16.2881 27.5548 16.5092 27.5804 16.769C27.6061 17.0287 27.7335 17.2286 27.865 17.2154Z" fill="white"/>
<path d="M20.5807 18.5533C20.7122 18.5402 20.7981 18.319 20.7724 18.0593C20.7468 17.7996 20.6194 17.5997 20.4879 17.6128C20.3564 17.626 20.2705 17.8471 20.2962 18.1068C20.3218 18.3666 20.4492 18.5665 20.5807 18.5533Z" fill="white"/>
<path d="M31.3963 25.331C33.0163 23.8336 32.8875 22.8578 32.2186 22.1336C31.5497 21.4095 30.5863 21.2131 28.9724 22.7166C27.3524 24.214 26.5853 26.0183 27.2542 26.7363C27.9231 27.4666 29.7763 26.8345 31.3963 25.331Z" fill="#C8C8CE"/>
<path d="M28.0643 27.2826C27.6532 27.2826 27.3095 27.1598 27.0764 26.9082C26.6836 26.4848 26.6652 25.779 27.0334 24.926C27.3709 24.1343 28.003 23.2875 28.8068 22.5388C29.6046 21.7962 30.3041 21.4096 30.93 21.3482C31.4762 21.2991 31.9732 21.5078 32.4028 21.968C33.3294 22.9683 33.0532 24.1282 31.5621 25.509C30.3409 26.6443 29.0155 27.2826 28.0643 27.2826ZM31.0896 21.833C31.0528 21.833 31.0098 21.833 30.973 21.8392C30.4637 21.8882 29.8439 22.2442 29.1382 22.9008C28.3834 23.6004 27.7943 24.3921 27.4814 25.1224C27.1991 25.779 27.1868 26.3068 27.4323 26.5768C27.6839 26.8468 28.2116 26.8714 28.8866 26.6382C29.6353 26.3804 30.4698 25.8527 31.2246 25.1531C32.8692 23.625 32.5255 22.8272 32.0346 22.3056C31.7401 21.9864 31.4394 21.833 31.0896 21.833Z" fill="#666161"/>
<path d="M30.5923 25.0732C29.2239 26.4356 27.6161 27.0493 27.0086 26.4356C26.7202 26.1472 26.7079 25.6317 26.9227 25.0303C27.6713 24.2202 28.3279 23.5513 28.6654 23.2751C29.1686 22.8578 29.7577 22.465 30.4634 22.6676C30.7334 22.7473 30.9727 22.9192 31.1446 23.1401C31.1691 23.1708 31.1937 23.2076 31.2243 23.2444C31.4514 23.5697 31.4575 24.0115 31.2305 24.3368C31.0709 24.5639 30.8623 24.8093 30.5923 25.0732Z" fill="#E0E0E2"/>
<path d="M23.6643 19.3291C24.0938 19.1512 24.5786 19.1143 25.0634 19.2616C26.0391 19.5623 26.6097 20.5258 26.7263 21.4954C26.892 22.8762 26.6466 24.0361 26.1372 25.3248C25.8611 26.0306 25.4991 26.7056 24.9713 27.258C24.7197 27.5218 24.4374 27.7489 24.1306 27.9453C23.8115 28.1478 23.4249 28.246 23.1242 28.4792C22.9217 28.6326 22.7745 28.8597 22.5474 28.9701C22.4124 29.0377 22.259 29.0561 22.1117 29.0254C22.0872 29.0192 22.0565 29.0131 22.0381 28.9947C22.0136 28.9763 21.9951 28.9456 21.9829 28.9211C21.7742 28.5467 22.167 28.2214 21.9829 27.8778C21.8417 27.6078 21.4122 27.6875 21.271 27.4237C21.1115 27.1414 21.3999 26.7547 21.6945 26.7425C22.0136 26.7302 22.3081 26.9204 22.6333 26.945C23.3636 27.0002 23.7686 26.184 23.8422 25.5765C23.9404 24.7909 23.7072 23.9625 23.1979 23.3488C22.9708 23.0788 22.7008 22.8517 22.5045 22.5571C22.1363 22.0048 22.1056 21.2622 22.3572 20.6486C22.6026 20.0471 23.0813 19.5685 23.6643 19.3291Z" fill="#C8C8CE"/>
<path d="M22.2346 29.2831C22.1732 29.2831 22.1118 29.277 22.0505 29.2647C22.0014 29.2524 21.94 29.2401 21.8786 29.1911C21.8111 29.142 21.7743 29.0745 21.7498 29.0376C21.5964 28.7553 21.67 28.4976 21.7252 28.3073C21.7682 28.1601 21.7927 28.068 21.7498 27.9944C21.7252 27.9453 21.6516 27.9207 21.5289 27.8839C21.3693 27.8348 21.1607 27.7612 21.038 27.5525C20.9275 27.3561 20.9336 27.1229 21.0564 26.9081C21.1852 26.6749 21.4246 26.5154 21.67 26.5092C21.8909 26.5031 22.0934 26.5645 22.2652 26.6258C22.3941 26.6688 22.5168 26.7056 22.6334 26.7179C23.1857 26.7609 23.5232 26.0674 23.5846 25.5642C23.6705 24.8339 23.4557 24.0729 22.9955 23.5267C22.9157 23.4285 22.8237 23.3365 22.7316 23.2383C22.5782 23.0787 22.4187 22.913 22.2837 22.7105C21.8848 22.1091 21.8173 21.2868 22.118 20.5688C22.3941 19.906 22.9218 19.3721 23.5662 19.1082C24.0755 18.8995 24.6155 18.875 25.131 19.0284C26.1067 19.3291 26.8246 20.2865 26.9658 21.4709C27.1253 22.7719 26.9412 23.9563 26.3582 25.423C26.0146 26.2883 25.628 26.9265 25.1371 27.4359C24.8794 27.7059 24.5787 27.9514 24.2473 28.1601C24.0878 28.2582 23.9221 28.3319 23.7625 28.4055C23.5784 28.4915 23.4005 28.5712 23.2532 28.6817C23.1857 28.7308 23.1243 28.7922 23.0568 28.8597C22.9403 28.9763 22.8052 29.1113 22.6334 29.1972C22.5168 29.2463 22.3757 29.2831 22.2346 29.2831ZM22.1793 28.786C22.2652 28.7983 22.3573 28.786 22.4309 28.7431C22.5352 28.694 22.6273 28.6019 22.7255 28.5037C22.7991 28.4301 22.8789 28.3503 22.9709 28.2828C23.1612 28.1355 23.3698 28.0435 23.5784 27.9514C23.7319 27.8839 23.873 27.8164 24.0019 27.7366C24.2964 27.5464 24.5664 27.3316 24.7996 27.0861C25.2414 26.6258 25.5973 26.0367 25.9164 25.2328C26.4626 23.8458 26.6344 22.7351 26.4933 21.52C26.346 20.3171 25.5973 19.6728 25.0021 19.4887C24.5971 19.3659 24.1675 19.3843 23.7687 19.55C23.2471 19.7648 22.8175 20.2005 22.5905 20.7467C22.3573 21.3052 22.4064 21.9618 22.7132 22.4282C22.8237 22.5878 22.9587 22.7351 23.1059 22.8824C23.2041 22.9805 23.3023 23.0849 23.3943 23.1953C23.9344 23.8458 24.1982 24.748 24.0939 25.6071C23.9957 26.4172 23.4496 27.2518 22.6212 27.1904C22.4493 27.1782 22.2898 27.1291 22.1364 27.08C21.983 27.0309 21.8418 26.9818 21.713 26.9879C21.6455 26.9879 21.5534 27.0554 21.5105 27.1352C21.4921 27.172 21.4614 27.2395 21.4921 27.3009C21.5166 27.3439 21.6086 27.3745 21.7068 27.4052C21.8664 27.4605 22.0934 27.528 22.21 27.755C22.345 28.0066 22.2775 28.2398 22.2223 28.4301C22.1548 28.6019 22.1364 28.694 22.1793 28.786Z" fill="#666161"/>
<path d="M24.0141 27.9146C24.2903 27.7428 24.548 27.5402 24.7812 27.3009C25.266 26.81 25.6035 26.1963 25.8674 25.5519C26.3521 24.3798 26.6037 23.3181 26.4871 22.0416C26.4626 21.7532 26.389 21.4586 26.2785 21.1886C26.1619 21.0474 26.0269 20.9186 25.8796 20.8204C25.4378 20.5319 24.818 20.5381 24.3455 20.7283C23.8607 20.9247 23.4066 21.3481 23.3269 21.8882C23.2287 22.5203 23.5662 23.1094 23.8116 23.6617C24.051 24.1956 24.2351 24.7786 24.2351 25.3678C24.2289 25.9631 24.0141 26.5706 23.5662 26.945C23.2716 27.1966 22.5782 27.2457 22.2039 27.1904C22.0566 27.172 21.9646 27.35 22.0628 27.4666C22.2284 27.6691 22.4432 27.9085 22.3696 28.1478C22.2468 28.5344 22.3941 28.7615 22.7562 28.6878C22.8728 28.5896 22.9771 28.4669 23.106 28.3687C23.376 28.1785 23.7257 28.0926 24.0141 27.9146Z" fill="#E0E0E2"/>
<path d="M24.9165 21.7714C24.7324 21.8819 24.5667 22.023 24.4378 22.1826C24.6158 22.0783 24.806 22.0169 24.9963 21.9801C25.1865 21.9433 25.3828 21.9371 25.5731 21.9494C25.9044 21.9678 26.2235 22.0353 26.561 22.1151C26.5549 22.0476 26.5549 21.9801 26.5426 21.9126C26.5242 21.7101 26.4813 21.5075 26.4199 21.3112C26.1192 21.3541 25.8063 21.4093 25.5056 21.5075C25.3031 21.575 25.1006 21.661 24.9165 21.7714Z" fill="#A8A8AD"/>
<path d="M25.7204 23.0848C25.5056 23.1093 25.2909 23.1584 25.0883 23.2321C24.8858 23.3057 24.6956 23.4101 24.5422 23.5389C24.7386 23.4714 24.9349 23.4469 25.1313 23.453C25.3277 23.453 25.5179 23.4837 25.702 23.5328C25.9597 23.6003 26.2052 23.6985 26.4568 23.8089C26.5059 23.5635 26.5427 23.318 26.5611 23.0664C26.2788 23.0541 25.9965 23.048 25.7204 23.0848Z" fill="#A8A8AD"/>
<path d="M25.7634 24.7969C25.5425 24.7785 25.3277 24.7785 25.1129 24.8091C24.8982 24.8398 24.6957 24.9012 24.5116 24.9932C24.7141 24.9687 24.9166 24.9871 25.1068 25.0301C25.297 25.073 25.475 25.1405 25.6468 25.2264C25.7511 25.2755 25.8493 25.3369 25.9414 25.3921C26.015 25.208 26.0886 25.0301 26.15 24.8521C26.0273 24.8276 25.8923 24.8091 25.7634 24.7969Z" fill="#A8A8AD"/>
<path d="M24.3027 26.1409C24.5052 26.19 24.6832 26.2698 24.8489 26.3741C24.9962 26.4662 25.1312 26.5828 25.2539 26.6994C25.3337 26.5828 25.4073 26.4662 25.4809 26.3435C25.303 26.2637 25.1189 26.2023 24.9287 26.1655C24.72 26.1225 24.5052 26.1103 24.3027 26.1409Z" fill="#A8A8AD"/>
<path d="M23.6954 26.957C23.8611 27.0736 24.0022 27.2209 24.1188 27.3743C24.1925 27.4725 24.2538 27.5769 24.3029 27.6812C24.4011 27.6075 24.4931 27.5339 24.5852 27.4541C24.487 27.3621 24.3827 27.2823 24.2722 27.2086C24.0881 27.092 23.8918 27.0061 23.6954 26.957Z" fill="#A8A8AD"/>
<path d="M23.0939 27.6014C23.2289 27.7549 23.3271 27.9267 23.4008 28.1108C23.4069 28.1292 23.413 28.1538 23.4253 28.1722C23.5051 28.1415 23.5849 28.1047 23.6646 28.074C23.6401 28.0433 23.6155 28.0187 23.591 27.9942C23.4437 27.8346 23.2719 27.6996 23.0939 27.6014Z" fill="#A8A8AD"/>
<path d="M32.9527 52.4178C32.6152 52.4178 32.3329 52.3565 32.0997 52.2215C31.7745 52.0312 31.572 51.6814 31.572 51.3132C31.572 50.9757 31.7438 50.6811 32.0383 50.5093C32.2531 50.3865 32.474 50.3681 32.6274 50.3681C32.7195 50.3681 32.8115 50.3743 32.9097 50.3804C32.9956 50.3865 33.0815 50.3927 33.1675 50.3927C33.2963 50.3927 33.3945 50.3743 33.4743 50.3497C33.8793 50.2086 34.1554 49.8281 34.1431 49.423C34.1247 48.5639 33.4559 48.4718 33.1675 48.478C32.7318 48.4841 32.2777 48.6743 31.9831 48.9812C31.7683 49.2021 31.6149 49.4721 31.4554 49.7544C31.2774 50.0674 31.0872 50.3927 30.8111 50.6627C30.3447 51.123 29.7863 51.485 29.191 51.7121C28.7983 51.8655 28.3933 51.9392 27.9944 51.9453C27.1415 51.9514 26.3805 51.6262 25.7792 51.0002C25.5828 50.7916 25.0735 50.049 25.2576 49.6071C25.3067 49.4967 25.4355 49.3126 25.7853 49.3064C25.8283 49.3064 25.8835 49.3064 25.9326 49.3126C26.2701 49.3494 26.5278 49.6378 26.7733 49.9079C26.9635 50.1165 27.1599 50.3374 27.3685 50.4111C27.5281 50.4663 27.6937 50.497 27.8717 50.497C28.7124 50.4909 29.5654 49.7851 30.001 49.1346C30.0747 49.0241 30.1483 48.9137 30.2158 48.8094C30.8233 47.8766 31.4002 46.9928 32.7686 46.7658C32.922 46.7412 33.0693 46.729 33.2227 46.7228C34.3579 46.7167 35.3582 47.3979 35.7754 48.4596C36.3461 49.914 35.6282 51.5403 34.1431 52.1601C33.7627 52.3196 33.327 52.4117 32.9527 52.4178Z" fill="#F38032"/>
<path d="M32.9342 52.7247C32.5538 52.7247 32.2224 52.6449 31.9462 52.4853C31.529 52.2398 31.2651 51.7918 31.2651 51.3132C31.2651 50.8652 31.4921 50.4724 31.8787 50.2454C32.1549 50.0858 32.4372 50.0612 32.6213 50.0612C32.7194 50.0612 32.8176 50.0674 32.9219 50.0735H32.9403C33.0201 50.0797 33.0938 50.0797 33.1613 50.0797C33.2533 50.0797 33.3208 50.0674 33.3699 50.049C33.6522 49.9508 33.8424 49.6869 33.8363 49.4169C33.8363 49.2573 33.824 48.7725 33.1797 48.7725C33.1735 48.7725 33.1735 48.7725 33.1674 48.7725C32.8176 48.7725 32.4372 48.9382 32.204 49.1775C32.0199 49.3739 31.8726 49.6255 31.7192 49.8894C31.529 50.2208 31.3326 50.5645 31.0258 50.8652C30.5287 51.3561 29.9335 51.7428 29.3014 51.9821C28.8719 52.1478 28.4301 52.2337 28.0005 52.2337C27.9882 52.2337 27.9821 52.2337 27.9698 52.2337C27.0432 52.2337 26.2148 51.8716 25.5643 51.1904C25.3741 50.9879 24.7114 50.1103 24.9875 49.466C25.0489 49.3187 25.2514 48.9873 25.7975 48.9812C25.8589 48.9812 25.9203 48.9812 25.9816 48.9934C26.4357 49.0425 26.7425 49.3862 27.0187 49.693C27.1782 49.8649 27.3562 50.0674 27.485 50.1103C27.6078 50.1533 27.7428 50.1779 27.8778 50.1779C28.5773 50.1717 29.3505 49.558 29.7494 48.9566C29.823 48.8462 29.8905 48.7418 29.958 48.6375C30.5778 47.6863 31.216 46.7044 32.7194 46.4528C32.8851 46.4221 33.0569 46.4098 33.2226 46.4098C34.4867 46.3975 35.6036 47.1585 36.0638 48.3429C36.6959 49.9508 35.9042 51.7489 34.2658 52.4424C33.8424 52.6203 33.3638 52.7247 32.9526 52.7247C32.9465 52.7247 32.9403 52.7247 32.9342 52.7247ZM32.6458 50.6688C32.6397 50.6688 32.6335 50.6688 32.6274 50.6688C32.4985 50.6688 32.339 50.6811 32.1917 50.767C31.9892 50.8836 31.8787 51.0738 31.8787 51.307C31.8787 51.5709 32.026 51.8164 32.2531 51.9514C32.431 52.0557 32.6581 52.111 32.9342 52.111C32.9403 52.111 32.9465 52.111 32.9526 52.111C33.2901 52.111 33.6829 52.025 34.0326 51.8778C35.3581 51.3193 36.0024 49.8649 35.4992 48.57C35.1311 47.6311 34.2535 47.0296 33.2533 47.0296C33.2472 47.0296 33.241 47.0296 33.2349 47.0296C33.0999 47.0296 32.9649 47.0419 32.8299 47.0665C31.5965 47.2751 31.081 48.0668 30.4858 48.975C30.4121 49.0855 30.3446 49.196 30.271 49.3064C29.5837 50.3313 28.5835 50.7977 27.8901 50.8038C27.6814 50.8038 27.4789 50.7731 27.2825 50.6995C27.0003 50.6013 26.7794 50.3497 26.5646 50.1103C26.3559 49.8771 26.1412 49.6378 25.9141 49.6133C25.8712 49.6071 25.8343 49.6071 25.8037 49.6071C25.6687 49.6071 25.5889 49.6439 25.5582 49.7176C25.46 49.9569 25.7975 50.5461 26.0184 50.7793C26.5584 51.3439 27.2457 51.6323 28.0066 51.6323C28.3687 51.6323 28.7369 51.5586 29.0989 51.4175C29.6512 51.2088 30.1728 50.8652 30.6085 50.4356C30.854 50.1901 31.0319 49.8894 31.2037 49.5887C31.3756 49.288 31.5412 49.0057 31.7744 48.7541C32.1242 48.392 32.6581 48.1588 33.1735 48.1588C33.7872 48.1527 34.4438 48.4779 34.4622 49.4046C34.4745 49.9385 34.1124 50.4356 33.5847 50.6258C33.4681 50.6688 33.3392 50.6872 33.1735 50.6872C33.0815 50.6872 32.9956 50.6811 32.9158 50.6811H32.8974C32.7992 50.6749 32.7194 50.6688 32.6458 50.6688Z" fill="#54360E"/>
<path d="M35.9537 50.1348C36.0519 49.6316 36.0089 49.0977 35.8125 48.5883C35.3953 47.5205 34.395 46.8393 33.2598 46.8516C33.1064 46.8516 32.9591 46.8639 32.8057 46.8946C31.4373 47.1278 30.8604 48.0053 30.2529 48.9381C30.1854 49.0425 30.1118 49.1529 30.0382 49.2634C29.6025 49.9139 28.7556 50.6196 27.9088 50.6258C27.737 50.6258 27.5652 50.6012 27.4056 50.5399C27.197 50.4662 27.0006 50.2453 26.8104 50.0366C26.5649 49.7605 26.3072 49.4782 25.9697 49.4414C25.9145 49.4352 25.8654 49.4352 25.8224 49.4352C25.6997 49.4352 25.356 49.4598 25.3745 49.7359C25.221 50.0919 25.7733 50.5705 25.9636 50.7731C26.8165 51.6629 28.0131 51.8716 29.1484 51.4358C29.7191 51.2149 30.2591 50.8651 30.6947 50.4294C31.1918 49.9384 31.3882 49.2511 31.8607 48.754C32.2718 48.3245 32.953 48.0851 33.5359 48.2263C34.2784 48.4042 34.5914 49.2266 34.168 49.8525C34.0637 50.006 33.9532 50.1655 33.8121 50.2944C33.5727 50.5092 33.3027 50.5337 32.9959 50.5153C32.8364 50.5337 32.6707 50.5215 32.505 50.5092C32.37 50.5215 32.2166 50.5521 32.0632 50.6442C31.6459 50.8835 31.6091 51.4788 31.965 51.9268C32.3639 52.4239 33.4807 52.3871 34.0882 52.1293C34.9289 51.7734 35.6346 50.994 35.9537 50.1348Z" fill="#E58341"/>
<path d="M36.0021 50.0244C35.953 49.9814 35.9101 49.9446 35.861 49.9078C35.8426 49.8955 35.8242 49.8771 35.8058 49.8648C35.4437 49.6071 34.8178 49.3677 34.2287 49.337C34.2287 49.3493 34.2287 49.3616 34.2287 49.3739C34.2348 49.65 34.0998 49.92 33.8851 50.1041C34.4619 50.3926 34.9405 50.8897 35.186 51.4911C35.6094 51.0799 35.8855 50.5705 36.0021 50.0244Z" fill="#423F3F"/>
<path d="M34.4255 47.2258C34.0635 47.4713 33.64 47.9561 33.4007 48.4839C33.6462 48.5269 33.9469 48.6557 34.0757 49.0239C34.536 48.6312 35.1373 48.3857 35.7387 48.3612C35.5055 47.815 35.1128 47.3793 34.6342 47.0908C34.5789 47.1215 34.5298 47.1522 34.4746 47.1829C34.4623 47.2013 34.4439 47.2136 34.4255 47.2258Z" fill="#423F3F"/>
<path d="M32.9097 48.4903C32.7502 47.9134 32.7809 47.2813 33.0141 46.729C32.9343 46.7351 32.8545 46.7474 32.7747 46.7597C32.1979 46.8579 31.7622 47.0727 31.4002 47.355C31.4063 47.3856 31.4063 47.4163 31.4125 47.447C31.4186 47.4716 31.4186 47.49 31.4247 47.5145C31.4984 47.9134 31.7438 48.4535 32.0875 48.8708C32.3145 48.6744 32.6029 48.5394 32.9097 48.4903Z" fill="#423F3F"/>
<path d="M30.222 48.8032C30.1545 48.9076 30.0808 49.018 30.0072 49.1285C29.9213 49.2574 29.817 49.3924 29.7004 49.5212C29.8231 49.6624 29.952 49.7974 30.0992 49.914C30.2465 50.0306 30.4122 50.1411 30.6024 50.2331C30.7374 50.3006 30.8786 50.362 31.0197 50.4172C31.1915 50.2024 31.3265 49.9692 31.4554 49.7422C31.4984 49.6624 31.5474 49.5887 31.5904 49.5151C31.1179 49.2819 30.7129 48.9137 30.449 48.4657C30.3693 48.57 30.2956 48.6866 30.222 48.8032Z" fill="#423F3F"/>
<path d="M29.1298 50.0244C28.78 50.276 28.3872 50.454 27.9884 50.4847C28.0804 50.6995 28.1909 50.9081 28.3382 51.1045C28.4486 51.2579 28.5836 51.3991 28.7432 51.5402C28.8291 51.6139 28.9211 51.6875 29.0132 51.7611C29.0745 51.7427 29.1298 51.7243 29.1911 51.6998C29.4979 51.5832 29.7925 51.4298 30.0748 51.2395C29.6575 50.9327 29.32 50.5031 29.1298 50.0244Z" fill="#423F3F"/>
<path d="M31.6829 46.2134C29.9524 47.0234 29.2099 46.6061 28.854 45.8329C28.4919 45.0596 28.6514 44.225 30.3819 43.4149C32.1124 42.6049 33.8061 42.5742 34.1681 43.3474C34.524 44.1268 33.4133 45.4094 31.6829 46.2134Z" fill="#F38032"/>
<path d="M30.0997 46.9559C29.394 46.9559 28.8847 46.6245 28.5779 45.9617C28.0563 44.8509 28.6208 43.8997 30.2531 43.1388C31.1307 42.7276 32.0266 42.4944 32.7875 42.4821C33.6282 42.4637 34.2234 42.7276 34.4505 43.2185C34.8984 44.1759 33.7693 45.5812 31.8241 46.4895C31.1552 46.8025 30.5784 46.9559 30.0997 46.9559ZM32.8489 43.1019C32.8304 43.1019 32.812 43.1019 32.7936 43.1019C32.1186 43.1142 31.3086 43.3229 30.5109 43.6972C28.6086 44.5871 28.9768 45.3726 29.1363 45.704C29.2959 46.0354 29.6579 46.8209 31.5602 45.9372C32.3579 45.5628 33.0391 45.078 33.4809 44.5686C33.8552 44.1391 34.0086 43.734 33.8921 43.4824C33.7755 43.2431 33.3889 43.1019 32.8489 43.1019Z" fill="#54360E"/>
<path d="M31.4313 46.017C33.1618 45.2069 34.2725 43.9243 33.9104 43.1572C33.7386 42.789 33.2661 42.6049 32.634 42.5988C31.6276 43.0222 30.7869 43.3965 30.4126 43.6175C29.8542 43.9427 29.2897 44.3539 29.2406 45.0781C29.2222 45.3542 29.3019 45.6304 29.4492 45.8697C29.4676 45.9065 29.4922 45.9372 29.5167 45.9802C29.7437 46.3054 30.1488 46.4589 30.5292 46.3545C30.7931 46.287 31.0938 46.1766 31.4313 46.017Z" fill="#F48F4B"/>
<path d="M37.2242 49.147C39.5806 48.6438 39.6665 49.4354 39.8261 50.6751C40.2679 54.1608 40.5134 54.6027 38.5067 54.6088C36.9419 54.6149 36.7088 54.3142 36.3835 51.8656C36.0276 49.6993 36.6413 49.2513 37.2242 49.147Z" fill="#F38032"/>
<path d="M38.4329 54.9155C37.764 54.9155 37.132 54.8603 36.7331 54.3448C36.3956 53.9029 36.2483 53.1788 36.0826 51.9084C35.7758 50.0367 36.1256 49.0364 37.1627 48.8461C38.304 48.6068 39.0097 48.6375 39.4577 48.9566C39.9547 49.3125 40.0345 49.914 40.1204 50.6136V50.632C40.1572 50.9265 40.1941 51.1966 40.2247 51.4543C40.4579 53.2033 40.5622 53.995 40.1388 54.4798C39.8259 54.8357 39.2981 54.9094 38.4943 54.9155C38.482 54.9155 38.4574 54.9155 38.4329 54.9155ZM38.4206 49.3064C38.1199 49.3064 37.7456 49.3555 37.2854 49.4537H37.2731C37.0154 49.5028 36.322 49.6194 36.684 51.8164V51.8287C36.997 54.222 37.1749 54.3141 38.5004 54.308C39.0956 54.3018 39.5252 54.265 39.6847 54.0809C39.9241 53.8047 39.8075 52.9517 39.6234 51.5402C39.5927 51.2886 39.5559 51.0125 39.5129 50.7179V50.6995C39.4393 50.1226 39.3779 49.6623 39.1018 49.466C38.9606 49.3555 38.7336 49.3064 38.4206 49.3064Z" fill="#54360E"/>
<path d="M37.2236 49.1469C37.8188 49.061 38.2668 49.0426 38.6105 49.0794C38.77 49.3617 38.905 49.6072 38.9909 49.7851C39.353 50.5584 39.3407 51.5341 39.3836 52.3687C39.3959 52.6081 39.3898 52.8474 39.3407 53.0868C39.1443 54.0012 38.5491 54.2098 37.8802 54.2344C37.285 54.2528 36.7572 53.8539 36.6161 53.2709C36.5302 52.9088 36.4627 52.4485 36.3829 51.8717C36.027 49.6992 36.6406 49.2512 37.2236 49.1469Z" fill="#EFAA7B"/>
<path d="M34.1439 49.1467C31.7875 48.6435 31.7016 49.4352 31.542 50.6748C31.1002 54.1606 30.8548 54.6024 32.8614 54.6085C34.4262 54.6147 34.6593 54.314 34.9846 51.8654C35.3405 49.6991 34.7268 49.2511 34.1439 49.1467Z" fill="#F38032"/>
<path d="M32.9349 54.9155C32.9103 54.9155 32.8858 54.9155 32.8612 54.9155C32.0573 54.9094 31.5296 54.8357 31.2167 54.4798C30.7932 53.995 30.9037 53.1972 31.1307 51.4543C31.1614 51.2027 31.1982 50.9265 31.2351 50.632V50.6135C31.3271 49.9139 31.4007 49.3125 31.8978 48.9566C32.3458 48.6375 33.0576 48.6007 34.1928 48.8461C35.2299 49.0302 35.5858 50.0367 35.2728 51.9084C35.1072 53.1788 34.9599 53.9029 34.6224 54.3448C34.2358 54.8603 33.6037 54.9155 32.9349 54.9155ZM32.9471 49.3064C32.6342 49.3064 32.4071 49.3616 32.2598 49.466C31.9837 49.6623 31.9223 50.1226 31.8487 50.6995V50.7179C31.8119 51.0124 31.7751 51.2886 31.7382 51.5402C31.548 52.9578 31.4376 53.8109 31.6769 54.0809C31.8364 54.265 32.266 54.3018 32.8612 54.3079C34.1806 54.3141 34.3646 54.222 34.6776 51.8287V51.8164C35.0397 49.6194 34.3524 49.4966 34.0885 49.4537H34.0762C33.6221 49.3494 33.2417 49.3064 32.9471 49.3064Z" fill="#54360E"/>
<path d="M34.1431 49.1469C33.5478 49.061 33.0999 49.0426 32.7562 49.0794C32.5967 49.3617 32.4617 49.6072 32.3758 49.7851C32.0137 50.5584 32.026 51.5341 31.983 52.3687C31.9708 52.6081 31.9769 52.8474 32.026 53.0868C32.2224 54.0012 32.8176 54.2098 33.4865 54.2344C34.0817 54.2528 34.6094 53.8539 34.7506 53.2709C34.8365 52.9088 34.904 52.4485 34.9838 51.8717C35.3397 49.6992 34.726 49.2512 34.1431 49.1469Z" fill="#EFAA7B"/>
<path d="M40.1081 48.306C40.1081 50.9879 38.126 52.0311 35.6837 52.0311C33.2414 52.0311 31.2593 50.9879 31.2593 48.306C31.2593 45.6242 33.2414 41.2732 35.6837 41.2732C38.126 41.2732 40.1081 45.6304 40.1081 48.306Z" fill="#F38032"/>
<path d="M35.6838 52.3442C32.6769 52.3442 30.9526 50.8713 30.9526 48.3123C30.9526 46.8947 31.4619 45.1027 32.2903 43.636C33.2599 41.9176 34.4626 40.9664 35.6838 40.9664C36.905 40.9664 38.1138 41.9115 39.0772 43.636C39.8995 45.1027 40.415 46.8885 40.415 48.3123C40.415 50.8713 38.6907 52.3442 35.6838 52.3442ZM35.6838 41.5801C34.7081 41.5801 33.6649 42.4393 32.8242 43.9367C32.0633 45.2929 31.5662 47.0113 31.5662 48.3061C31.5662 51.2825 34.1436 51.7244 35.6838 51.7244C37.224 51.7244 39.8013 51.2825 39.8013 48.3061C39.8013 47.0051 39.3104 45.2929 38.5434 43.9367C37.7027 42.4393 36.6595 41.5801 35.6838 41.5801Z" fill="#54360E"/>
<path d="M35.6834 41.2732C35.5607 41.2732 35.4441 41.2855 35.3275 41.3039C34.7568 41.4021 34.2598 41.758 33.9223 42.2305C32.8484 43.7402 32.155 45.9127 32.155 47.496C32.155 50.1778 34.137 51.2211 36.5793 51.2211C36.9537 51.2211 37.3218 51.1965 37.6716 51.1413C39.0585 50.9326 40.1017 49.7359 40.1078 48.3306C40.1078 48.3183 40.1078 48.3122 40.1078 48.2999C40.1078 45.6304 38.1257 41.2732 35.6834 41.2732Z" fill="#EFAA7B"/>
<path d="M35.6838 50.6687C37.1987 50.6687 38.4268 49.24 38.4268 47.4775C38.4268 45.7151 37.1987 44.2864 35.6838 44.2864C34.1689 44.2864 32.9408 45.7151 32.9408 47.4775C32.9408 49.24 34.1689 50.6687 35.6838 50.6687Z" fill="#E8D4C4"/>
<path d="M30.3635 45.7041C30.3697 45.569 30.4249 45.434 30.5169 45.3972C30.6703 45.3358 30.7931 45.5875 30.8544 45.7961C30.8974 45.9434 30.9342 46.0845 30.971 46.2318C30.7808 46.33 30.6151 46.3791 30.4678 46.3914C30.4494 46.2932 30.4372 46.195 30.4126 46.1029C30.3881 45.9679 30.3574 45.8329 30.3635 45.7041Z" fill="#423F3F"/>
<path d="M30.2347 43.734C30.339 43.9181 30.4372 44.1022 30.5292 44.2925C30.6213 44.4827 30.6888 44.7589 30.5231 44.8755C30.4249 44.943 30.2899 44.9123 30.1979 44.8387C30.1058 44.765 30.0383 44.6484 29.977 44.5441C29.8849 44.3907 29.7867 44.2372 29.6824 44.0899C29.7438 44.047 29.8051 43.9979 29.8726 43.9549C29.9954 43.869 30.1181 43.8015 30.2347 43.734Z" fill="#423F3F"/>
<path d="M32.3579 47.2874C32.5236 47.269 32.6954 47.1647 32.7384 46.999C32.8059 46.7228 32.4868 46.5141 32.2168 46.416C32.0941 46.373 31.9775 46.3362 31.8547 46.2932C31.775 46.5878 31.7136 46.8824 31.6645 47.1708C31.7259 47.1892 31.7934 47.2015 31.8609 47.2137C32.0204 47.2567 32.1923 47.3058 32.3579 47.2874Z" fill="#423F3F"/>
<path d="M32.1857 48.5699C32.3514 48.527 32.5048 48.3981 32.5171 48.2263C32.5416 47.944 32.1919 47.7844 31.9157 47.7292C31.8175 47.7108 31.6948 47.6924 31.5966 47.674C31.5721 47.8703 31.5782 48.0606 31.5721 48.2385C31.566 48.349 31.5721 48.4533 31.5782 48.5577C31.615 48.5638 31.6519 48.5638 31.6825 48.5699C31.8482 48.5883 32.0201 48.6129 32.1857 48.5699Z" fill="#423F3F"/>
<path d="M32.597 49.871C32.7443 49.7851 32.8547 49.6194 32.824 49.4537C32.7688 49.1714 32.3945 49.1161 32.1122 49.1345C31.9588 49.1468 31.8054 49.1591 31.652 49.1775C31.7133 49.4966 31.8115 49.7789 31.9404 50.0367C31.9956 50.0244 32.057 50.0183 32.1122 50.006C32.2779 49.9814 32.4497 49.9569 32.597 49.871Z" fill="#423F3F"/>
<path d="M38.9361 46.999C38.9729 47.1647 39.1447 47.269 39.3165 47.2874C39.4822 47.3058 39.654 47.2567 39.8136 47.2137C39.8749 47.1953 39.9424 47.1831 40.0099 47.1708C39.9609 46.8824 39.8995 46.5939 39.8197 46.2932C39.697 46.3362 39.5804 46.373 39.4577 46.416C39.1877 46.5141 38.8686 46.7167 38.9361 46.999Z" fill="#423F3F"/>
<path d="M40.077 47.7416C39.9788 47.7539 39.8745 47.7661 39.7763 47.7845C39.4941 47.8336 39.1443 47.9809 39.1627 48.2632C39.1688 48.435 39.3222 48.5639 39.4818 48.613C39.6413 48.6621 39.8193 48.6437 39.985 48.6314C40.0218 48.6314 40.0586 48.6253 40.0893 48.6253C40.0954 48.521 40.1016 48.4166 40.1016 48.3062C40.1077 48.1282 40.0954 47.938 40.077 47.7416Z" fill="#423F3F"/>
<path d="M38.7208 49.3739C38.6595 49.5335 38.7392 49.7176 38.862 49.828C38.9908 49.9385 39.1565 49.9937 39.3099 50.0551C39.3652 50.0735 39.4204 50.0981 39.4695 50.1165C39.6474 49.8894 39.7947 49.6255 39.9174 49.3248C39.7702 49.2819 39.6229 49.2328 39.4756 49.1959C39.1995 49.1223 38.8252 49.11 38.7208 49.3739Z" fill="#423F3F"/>
<path d="M27.9922 30.1935C28.7942 28.8724 28.3757 27.1527 27.0576 26.3525C25.7394 25.5523 24.0208 25.9746 23.2189 27.2957C22.417 28.6168 22.8355 30.3364 24.1536 31.1367C25.4717 31.9369 27.1903 31.5146 27.9922 30.1935Z" fill="#F38032"/>
<path d="M25.6016 31.8471C25.0555 31.8471 24.4971 31.6998 24 31.3991C23.2943 30.9695 22.7973 30.2883 22.6009 29.4844C22.4045 28.6805 22.5334 27.8458 22.9691 27.1401C23.3986 26.4344 24.0798 25.9311 24.8837 25.7348C25.6875 25.5384 26.5221 25.6672 27.2278 26.0968C28.6883 26.9867 29.1546 28.8952 28.2649 30.362C27.6758 31.3132 26.651 31.8471 25.6016 31.8471ZM25.62 26.2564C25.4237 26.2564 25.2212 26.2809 25.0248 26.33C24.3805 26.4896 23.8343 26.8885 23.4846 27.4531C23.1409 28.0238 23.0366 28.6927 23.19 29.3371C23.3496 29.9815 23.7423 30.5277 24.313 30.8713C25.485 31.5832 27.0192 31.2088 27.731 30.0367C28.4428 28.8646 28.0746 27.3303 26.9026 26.6185C26.5098 26.3791 26.068 26.2564 25.62 26.2564Z" fill="#54360E"/>
<path d="M27.9948 30.1963C28.1912 29.871 28.32 29.5151 28.3691 29.1591C28.363 28.3061 27.9089 27.4654 27.105 26.9744C25.89 26.2318 24.3313 26.5755 23.6256 27.7354C22.92 28.8952 23.3372 30.4356 24.5522 31.172C24.8775 31.3684 25.2334 31.4911 25.5832 31.5402C26.5343 31.5464 27.4671 31.0677 27.9948 30.1963Z" fill="#E58341"/>
<path d="M27.7836 30.407C28.3828 29.4228 28.0731 28.1406 27.0918 27.5431C26.1105 26.9456 24.8293 27.2592 24.2301 28.2434C23.6309 29.2276 23.9407 30.5099 24.922 31.1073C25.9032 31.7048 27.1844 31.3913 27.7836 30.407Z" fill="#E8D4C4"/>
<path d="M44.4421 28.3999C45.5013 27.2791 45.4494 25.5098 44.3262 24.4482C43.203 23.3866 41.4338 23.4346 40.3746 24.5554C39.3154 25.6762 39.3672 27.4454 40.4904 28.5071C41.6136 29.5687 43.3829 29.5207 44.4421 28.3999Z" fill="#F38032"/>
<path d="M42.4092 29.5825C41.6114 29.5825 40.8628 29.2818 40.2798 28.7356C39.0341 27.5634 38.9789 25.5935 40.151 24.3477C40.7217 23.7463 41.4887 23.4026 42.3171 23.3781C43.1456 23.3536 43.931 23.6543 44.5385 24.225C45.7842 25.3971 45.8395 27.3671 44.6674 28.6129C44.0967 29.2143 43.3297 29.5579 42.5012 29.5825C42.4706 29.5825 42.4399 29.5825 42.4092 29.5825ZM42.4092 23.9918C42.3846 23.9918 42.3601 23.9918 42.3355 23.9918C41.6728 24.0102 41.053 24.2864 40.5989 24.7712C39.6601 25.7653 39.703 27.3487 40.7033 28.2876C41.188 28.7417 41.8201 28.9872 42.4828 28.9688C43.1456 28.9504 43.7653 28.6742 44.2194 28.1894C45.1583 27.1952 45.1154 25.6119 44.1151 24.673C43.6487 24.2311 43.0474 23.9918 42.4092 23.9918Z" fill="#54360E"/>
<path d="M40.4948 28.5146C40.2187 28.2507 40.0039 27.9438 39.8566 27.6186C39.6357 26.7962 39.8505 25.8634 40.5009 25.1761C41.4766 24.139 43.0721 24.053 44.0601 24.9859C45.0481 25.9187 45.0542 27.5142 44.0785 28.5452C43.8146 28.8214 43.5078 29.0301 43.1826 29.1712C42.2621 29.4228 41.2373 29.2142 40.4948 28.5146Z" fill="#E58341"/>
<path d="M43.6962 28.5767C44.4843 27.7407 44.4436 26.4221 43.6052 25.6316C42.7668 24.8411 41.4482 24.878 40.6601 25.714C39.8719 26.55 39.9127 27.8685 40.7511 28.659C41.5895 29.4495 42.908 29.4127 43.6962 28.5767Z" fill="#E8D4C4"/>
<path d="M45.8763 34.0377C46.5513 39.027 42.127 42.752 36.1562 43.556C30.1916 44.3599 24.9388 41.942 24.2638 36.9466C23.5888 31.9573 27.5713 24.9306 33.5359 24.1266C39.5006 23.3227 45.2013 29.0423 45.8763 34.0377Z" fill="#F38032"/>
<path d="M33.9468 44.0163C31.7561 44.0163 29.7311 43.5683 28.0865 42.6969C25.724 41.4511 24.3003 39.4812 23.9628 36.9896C23.6192 34.4366 24.4414 31.3743 26.1597 28.7969C27.0372 27.4897 28.1233 26.3544 29.3015 25.5198C30.6086 24.5931 32.02 24.0224 33.4988 23.826C34.9777 23.6296 36.4873 23.8014 37.9969 24.3476C39.3776 24.8447 40.6908 25.6302 41.8935 26.6796C44.2315 28.7048 45.8331 31.4419 46.1767 33.9948C46.5142 36.4864 45.6613 38.7693 43.716 40.5919C41.8996 42.2918 39.2303 43.4517 36.1989 43.8629C35.438 43.9672 34.6832 44.0163 33.9468 44.0163ZM34.6893 24.3599C34.3211 24.3599 33.9468 24.3844 33.5786 24.4335C30.9093 24.7956 28.4547 26.4649 26.669 29.1405C25.0305 31.5953 24.2451 34.498 24.5703 36.9098C24.8771 39.1989 26.1903 41.0092 28.3688 42.1568C30.4552 43.2553 33.2104 43.6481 36.113 43.2553C39.0216 42.8626 41.5683 41.7579 43.2926 40.1439C45.0906 38.4624 45.8761 36.3636 45.5692 34.0807C45.244 31.6689 43.7222 29.0792 41.4885 27.146C39.396 25.3234 37.015 24.3599 34.6893 24.3599Z" fill="#54360E"/>
<path d="M33.8794 24.851C32.4189 25.3296 31.0382 25.9801 29.8539 26.9498C28.283 28.2446 27.1538 30.0673 26.6998 32.0495C26.3929 33.3812 25.3866 35.3696 25.675 36.7074C26.9023 42.3656 33.4314 44.9247 38.6351 43.0345C40.6663 42.2981 43.5259 41.1075 44.6673 38.6589C44.7348 38.5178 44.8698 38.4134 44.9741 38.2846C45.7473 37.3027 46.1093 36.0507 45.9436 34.8111C45.9436 34.805 45.9436 34.7988 45.9436 34.7866C45.2748 29.8709 39.7458 24.2557 33.8794 24.851Z" fill="#EFAA7B"/>
<path d="M45.8578 33.9334C45.0233 33.7984 44.1642 33.7554 43.2744 33.8352C42.9921 33.8597 42.6301 33.9702 42.6178 34.2586C42.6116 34.4305 42.7467 34.5777 42.9062 34.6391C43.0657 34.7005 43.2376 34.7005 43.4033 34.7005C44.2746 34.7066 45.146 34.8355 45.9867 35.081C45.9806 34.8355 45.9622 34.5839 45.9253 34.3323C45.9069 34.1973 45.8824 34.0684 45.8578 33.9334Z" fill="#423F3F"/>
<path d="M41.231 35.6763C41.2187 35.842 41.3476 35.9954 41.5071 36.0629C41.6605 36.1304 41.8385 36.1365 42.0042 36.1427C43.2683 36.1979 44.5262 36.517 45.6676 37.0632C45.8026 36.6766 45.8947 36.2838 45.9622 35.8727C44.6919 35.4247 43.3419 35.1976 41.906 35.2712C41.6176 35.2897 41.2555 35.3878 41.231 35.6763Z" fill="#423F3F"/>
<path d="M41.8384 38.0084C41.7893 38.1679 41.8875 38.3459 42.0286 38.4441C42.1636 38.5423 42.3354 38.5791 42.5011 38.622C43.17 38.7877 43.8204 39.0394 44.4402 39.3462C44.6611 39.0578 44.8636 38.7571 45.0416 38.4441C44.2745 38.1188 43.4522 37.8795 42.5809 37.7506C42.2925 37.7076 41.9181 37.7322 41.8384 38.0084Z" fill="#423F3F"/>
<path d="M27.5219 36.2594C27.6569 36.1551 27.749 35.9771 27.6999 35.8176C27.614 35.5475 27.2335 35.5291 26.9574 35.5844C26.0799 35.7439 25.2576 36.014 24.4905 36.3638C24.5028 36.4988 24.5151 36.6338 24.5335 36.7688C24.5703 37.0204 24.6194 37.2659 24.6746 37.5052C25.4171 37.0449 26.221 36.689 27.0617 36.4558C27.2213 36.4067 27.3869 36.3638 27.5219 36.2594Z" fill="#423F3F"/>
<path d="M29.4185 37.7629C29.5474 37.6585 29.6333 37.4744 29.578 37.3149C29.4798 37.0449 29.1055 37.0449 28.8232 37.1062C27.418 37.4131 26.1784 37.9899 25.0739 38.757C25.2396 39.1375 25.4421 39.4935 25.6691 39.831C26.6264 39.0025 27.7494 38.3581 28.9583 37.9715C29.1178 37.9224 29.2896 37.8733 29.4185 37.7629Z" fill="#423F3F"/>
<path d="M29.3937 40.0029C29.498 39.874 29.5471 39.6776 29.4612 39.5303C29.3139 39.2848 28.9396 39.3646 28.6819 39.4812C27.878 39.8433 27.1477 40.2852 26.4973 40.8006C26.7489 41.0523 27.025 41.2916 27.3134 41.5125C27.8289 41.0461 28.3873 40.6411 28.9887 40.2974C29.136 40.2176 29.2894 40.1379 29.3937 40.0029Z" fill="#423F3F"/>
<path d="M35.463 26.6245C35.6349 26.6245 35.8067 26.6245 35.9601 26.5631C36.1196 26.5018 36.2546 26.3545 36.2485 26.1827C36.2362 25.8942 35.8742 25.7838 35.5919 25.7592C34.1253 25.6365 32.7323 25.8267 31.4191 26.2563C31.3087 26.7288 31.2289 27.2136 31.1921 27.6985C32.5053 27.0111 33.978 26.6368 35.463 26.6245Z" fill="#423F3F"/>
<path d="M31.744 29.2635C31.5905 29.331 31.431 29.4046 31.2653 29.4108C31.0935 29.4169 30.9094 29.3371 30.848 29.1837C30.7437 28.9198 31.026 28.6682 31.2714 28.5271C33.1247 27.4899 35.1006 27.1217 37.1011 27.1954C37.1502 27.3242 37.1993 27.4531 37.2484 27.582C37.3711 27.9441 37.4693 28.3123 37.5368 28.6805C37.3343 28.6375 37.1256 28.5946 36.917 28.5639C35.1742 28.3061 33.3578 28.5516 31.744 29.2635Z" fill="#423F3F"/>
<path d="M35.9043 29.6132C36.0087 29.5641 36.0884 29.4536 36.0762 29.3431C36.0516 29.1529 35.8 29.0977 35.6098 29.0915C34.4745 29.0854 33.4375 29.3554 32.4802 29.8095C32.5538 30.0918 32.6397 30.3741 32.7502 30.6442C33.597 30.1103 34.5727 29.7789 35.573 29.6868C35.6834 29.6745 35.8 29.6684 35.9043 29.6132Z" fill="#423F3F"/>
<path d="M29.8519 38.1418C30.7681 38.0776 31.4713 37.4609 31.4225 36.7644C31.3737 36.0679 30.5914 35.5553 29.6752 35.6195C28.7589 35.6837 28.0557 36.3004 28.1045 36.9969C28.1533 37.6934 28.9356 38.206 29.8519 38.1418Z" fill="#FFA4A8"/>
<path d="M40.726 36.1102C41.6422 36.046 42.3454 35.4293 42.2966 34.7328C42.2478 34.0363 41.4655 33.5237 40.5493 33.5879C39.6331 33.6521 38.9299 34.2687 38.9787 34.9653C39.0275 35.6618 39.8098 36.1744 40.726 36.1102Z" fill="#FFA4A8"/>
<path d="M31.0039 36.2152C31.44 36.1846 31.7603 35.6856 31.7194 35.1007C31.6784 34.5158 31.2916 34.0663 30.8555 34.0969C30.4193 34.1275 30.099 34.6264 30.14 35.2114C30.1809 35.7963 30.5677 36.2457 31.0039 36.2152Z" fill="black"/>
<path d="M39.1407 35.0002C39.5769 34.9696 39.8972 34.4707 39.8562 33.8857C39.8153 33.3008 39.4285 32.8514 38.9923 32.8819C38.5562 32.9125 38.2359 33.4114 38.2768 33.9964C38.3178 34.5813 38.7046 35.0307 39.1407 35.0002Z" fill="black"/>
<path d="M38.8795 34.4423C39.0148 34.4328 39.1091 34.2058 39.0903 33.9353C39.0714 33.6648 38.9465 33.4532 38.8113 33.4627C38.676 33.4723 38.5817 33.6993 38.6005 33.9698C38.6194 34.2403 38.7443 34.4518 38.8795 34.4423Z" fill="white"/>
<path d="M31.2513 35.6207C31.3865 35.6111 31.4809 35.3841 31.462 35.1136C31.4432 34.8431 31.3183 34.6316 31.183 34.6411C31.0478 34.6506 30.9535 34.8776 30.9723 35.1481C30.9911 35.4186 31.1161 35.6302 31.2513 35.6207Z" fill="white"/>
<path d="M43.2192 44.09C45.0785 42.6048 45.1092 41.5493 44.5446 40.727C43.9862 39.9046 43.0473 39.6223 41.188 41.1074C39.3286 42.5926 38.2732 44.4705 38.8316 45.2928C39.3961 46.1151 41.3598 45.5751 43.2192 44.09Z" fill="#F38032"/>
<path d="M39.7398 45.9803C39.6355 45.9803 39.5373 45.9741 39.4391 45.9618C39.0586 45.9066 38.7641 45.7348 38.58 45.4648C37.9111 44.4829 38.9482 42.5006 40.9978 40.8682C42.0655 40.0152 42.9246 39.6531 43.6426 39.7636C44.1028 39.8311 44.4955 40.1011 44.8023 40.5553C45.5939 41.7151 45.1399 42.9548 43.4155 44.3356C42.1207 45.3604 40.7216 45.9803 39.7398 45.9803ZM43.391 40.3527C42.8816 40.3527 42.2066 40.6841 41.3844 41.3408C39.5311 42.8259 38.6843 44.5197 39.0893 45.115C39.1752 45.2438 39.3225 45.3236 39.5312 45.3543C40.2062 45.4586 41.55 45.029 43.0289 43.8508C45.1521 42.157 44.5262 41.2426 44.293 40.8989C44.0782 40.5859 43.8328 40.408 43.5444 40.365C43.4953 40.3589 43.4462 40.3527 43.391 40.3527Z" fill="#54360E"/>
<path d="M43.0043 43.8323C41.1449 45.3175 39.1813 45.8575 38.6167 45.0352C38.3529 44.6424 38.4511 44.0164 38.8254 43.3107C39.8563 42.4209 40.7522 41.6844 41.194 41.3899C41.8629 40.948 42.6177 40.5368 43.3786 40.8805C43.6732 41.0094 43.9002 41.2487 44.0536 41.5433C44.0782 41.5863 44.0966 41.6292 44.1211 41.6783C44.3113 42.1079 44.2193 42.6418 43.8879 43.01C43.6548 43.2678 43.3663 43.5378 43.0043 43.8323Z" fill="#EFAA7B"/>
<path d="M43.5874 40.6105C43.4708 40.7025 43.3542 40.7946 43.2376 40.8928C43.121 40.991 42.986 41.1505 43.0167 41.261C43.0351 41.3285 43.1088 41.3408 43.1824 41.3162C43.256 41.2917 43.3297 41.2364 43.3972 41.1812C43.5015 41.1014 43.6058 41.0339 43.7101 40.9603C43.6979 40.9173 43.6856 40.8744 43.6733 40.8314C43.6426 40.7516 43.6181 40.678 43.5874 40.6105Z" fill="#423F3F"/>
<path d="M43.9312 41.0585C43.8146 41.1505 43.698 41.2426 43.5814 41.3408C43.4649 41.439 43.3298 41.5985 43.3605 41.709C43.3789 41.7765 43.4526 41.7888 43.5262 41.7642C43.5998 41.7397 43.6735 41.6844 43.741 41.6292C43.8453 41.5494 43.9496 41.4819 44.0539 41.4083C44.0417 41.3653 44.0294 41.3224 44.0171 41.2794C43.9926 41.1996 43.968 41.126 43.9312 41.0585Z" fill="#423F3F"/>
<path d="M44.1212 41.6108C44.0046 41.7029 43.888 41.7949 43.7714 41.8931C43.6549 41.9913 43.5199 42.1509 43.5505 42.2613C43.5689 42.3289 43.6426 42.3411 43.7162 42.3166C43.7899 42.292 43.8635 42.2368 43.931 42.1816C44.0353 42.1018 44.1396 42.0343 44.2439 41.9606C44.2317 41.9177 44.2194 41.8747 44.2071 41.8318C44.1826 41.752 44.1519 41.6783 44.1212 41.6108Z" fill="#423F3F"/>
<path d="M33.5346 40.9795C35.0119 40.8348 36.119 39.7932 36.0073 38.6532C35.8956 37.5131 34.6075 36.7062 33.1302 36.8509C31.653 36.9956 30.5459 38.0371 30.6576 39.1772C30.7692 40.3173 32.0573 41.1242 33.5346 40.9795Z" fill="#E8D4C4"/>
<path d="M38.7874 40.0653C40.2647 39.9206 41.3717 38.8791 41.2601 37.739C41.1484 36.5989 39.8603 35.792 38.383 35.9367C36.9057 36.0814 35.7987 37.123 35.9104 38.263C36.022 39.4031 37.3101 40.21 38.7874 40.0653Z" fill="#E8D4C4"/>
<path d="M35.7265 36.5662C35.1067 36.6644 34.3887 36.9344 34.4439 37.3272C34.493 37.6525 35.3399 37.4008 35.6099 37.947C35.7142 38.1557 35.7878 38.2784 35.9719 38.2539C36.156 38.2232 36.1928 38.0882 36.2235 37.855C36.3094 37.2536 37.1931 37.2352 37.144 36.9099C37.0765 36.5171 36.3401 36.468 35.7265 36.5662Z" fill="#3A3733"/>
<path d="M35.0088 37.0878C34.9782 36.9589 35.15 36.8853 35.242 36.8485C35.4077 36.781 35.5795 36.7196 35.7575 36.6889C35.9109 36.6582 36.5736 36.603 36.5307 36.8976C36.5245 36.9405 36.4939 36.9712 36.4632 36.9896C36.4264 37.008 36.3895 37.0203 36.3466 37.0264C36.1379 37.0755 35.9232 37.1308 35.7145 37.1737C35.5611 37.2105 35.0579 37.321 35.0088 37.0878Z" fill="#605C58"/>
<path d="M32.1554 38.2354C32.2842 38.2354 32.3886 38.131 32.3886 38.0022C32.3886 37.8734 32.2842 37.769 32.1554 37.769C32.0266 37.769 31.9222 37.8734 31.9222 38.0022C31.9222 38.131 32.0266 38.2354 32.1554 38.2354Z" fill="#878787"/>
<path d="M33.0326 40.2792C33.1614 40.2792 33.2658 40.1747 33.2658 40.046C33.2658 39.9172 33.1614 39.8127 33.0326 39.8127C32.9038 39.8127 32.7994 39.9172 32.7994 40.046C32.7994 40.1747 32.9038 40.2792 33.0326 40.2792Z" fill="#878787"/>
<path d="M31.922 40.0642C32.0508 40.0642 32.1552 39.9598 32.1552 39.831C32.1552 39.7022 32.0508 39.5978 31.922 39.5978C31.7932 39.5978 31.6888 39.7022 31.6888 39.831C31.6888 39.9598 31.7932 40.0642 31.922 40.0642Z" fill="#878787"/>
<path d="M31.462 39.0086C31.5908 39.0086 31.6952 38.9042 31.6952 38.7754C31.6952 38.6466 31.5908 38.5422 31.462 38.5422C31.3332 38.5422 31.2288 38.6466 31.2288 38.7754C31.2288 38.9042 31.3332 39.0086 31.462 39.0086Z" fill="#878787"/>
<path d="M32.7568 39.0086C32.8856 39.0086 32.99 38.9042 32.99 38.7754C32.99 38.6466 32.8856 38.5422 32.7568 38.5422C32.628 38.5422 32.5236 38.6466 32.5236 38.7754C32.5236 38.9042 32.628 39.0086 32.7568 39.0086Z" fill="#878787"/>
<path d="M39.3961 36.8977C39.5249 36.8977 39.6293 36.7933 39.6293 36.6645C39.6293 36.5357 39.5249 36.4313 39.3961 36.4313C39.2674 36.4313 39.163 36.5357 39.163 36.6645C39.163 36.7933 39.2674 36.8977 39.3961 36.8977Z" fill="#878787"/>
<path d="M39.3961 38.9474C39.5249 38.9474 39.6293 38.8429 39.6293 38.7142C39.6293 38.5854 39.5249 38.481 39.3961 38.481C39.2674 38.481 39.163 38.5854 39.163 38.7142C39.163 38.8429 39.2674 38.9474 39.3961 38.9474Z" fill="#878787"/>
<path d="M40.2123 38.4931C40.3411 38.4931 40.4455 38.3887 40.4455 38.2599C40.4455 38.1311 40.3411 38.0267 40.2123 38.0267C40.0835 38.0267 39.9791 38.1311 39.9791 38.2599C39.9791 38.3887 40.0835 38.4931 40.2123 38.4931Z" fill="#878787"/>
<path d="M40.4456 37.3701C40.5744 37.3701 40.6788 37.2657 40.6788 37.1369C40.6788 37.0081 40.5744 36.9037 40.4456 36.9037C40.3168 36.9037 40.2124 37.0081 40.2124 37.1369C40.2124 37.2657 40.3168 37.3701 40.4456 37.3701Z" fill="#878787"/>
<path d="M38.4635 37.008C38.5923 37.008 38.6967 36.9036 38.6967 36.7748C38.6967 36.646 38.5923 36.5416 38.4635 36.5416C38.3347 36.5416 38.2303 36.646 38.2303 36.7748C38.2303 36.9036 38.3347 37.008 38.4635 37.008Z" fill="#878787"/>
<path d="M43.378 36.0381C43.3903 36.0258 43.4026 36.0135 43.4026 35.9951C43.4026 35.9644 43.3842 35.9399 43.3535 35.9399C42.4453 35.8908 41.5923 36.0013 40.7455 36.2774C39.9232 36.5474 39.2114 36.9341 38.6223 37.2839C38.5978 37.2961 38.5855 37.333 38.6039 37.3575C38.6162 37.3821 38.653 37.3943 38.6775 37.3759C39.868 36.6763 41.3101 35.9399 43.3535 36.0504C43.3535 36.0504 43.3658 36.0504 43.378 36.0381Z" fill="white"/>
<path d="M38.6415 37.4069C38.6169 37.4069 38.5862 37.3947 38.574 37.3701C38.5494 37.3333 38.5678 37.2842 38.5985 37.2658C39.1876 36.9221 39.9056 36.5294 40.7279 36.2594C41.5808 35.9832 42.4338 35.8727 43.3481 35.9218C43.3911 35.9218 43.4218 35.9587 43.4218 36.0016C43.4218 36.0262 43.4095 36.0507 43.3849 36.063C43.3727 36.0753 43.3543 36.0753 43.3358 36.0753C41.2985 35.9648 39.8626 36.7012 38.6722 37.4008C38.666 37.4069 38.6537 37.4069 38.6415 37.4069ZM42.937 35.9525C42.1822 35.9525 41.4642 36.0691 40.7463 36.3023C39.924 36.5723 39.2122 36.959 38.6231 37.3026C38.6108 37.3088 38.6047 37.3333 38.6108 37.3456C38.6169 37.3579 38.6415 37.364 38.6537 37.3579C39.8503 36.6582 41.2924 35.9157 43.342 36.0262C43.3481 36.0262 43.3543 36.0262 43.3604 36.02C43.3665 36.0139 43.3727 36.0077 43.3727 35.9955C43.3727 35.9771 43.3604 35.9648 43.342 35.9648C43.2131 35.9586 43.072 35.9525 42.937 35.9525Z" fill="white"/>
<path d="M43.3899 37.4428C43.396 37.4367 43.4083 37.4306 43.4083 37.4183C43.4206 37.3937 43.4083 37.3569 43.3776 37.3446C42.5615 36.9826 41.7637 36.8476 40.9414 36.9396C40.1437 37.0255 39.4257 37.314 38.8244 37.5778C38.7998 37.5901 38.7876 37.6208 38.7998 37.6515C38.8121 37.676 38.8428 37.6883 38.8735 37.676C40.3646 37.0071 41.6962 36.7125 43.3347 37.4428C43.3531 37.4551 43.3715 37.449 43.3899 37.4428Z" fill="white"/>
<path d="M38.856 37.7077C38.8437 37.7077 38.8376 37.7077 38.8253 37.7016C38.8069 37.6954 38.7885 37.677 38.7824 37.6586C38.7762 37.6402 38.7762 37.6157 38.7824 37.5972C38.7885 37.5788 38.8069 37.5604 38.8253 37.5543C39.4267 37.2843 40.1447 37.002 40.9485 36.9161C41.777 36.824 42.5747 36.959 43.397 37.3211C43.4154 37.3272 43.4277 37.3456 43.4399 37.364C43.4461 37.3825 43.4461 37.407 43.4399 37.4254C43.4338 37.4377 43.4215 37.45 43.4092 37.4622C43.3847 37.4745 43.3602 37.4806 43.3356 37.4684C41.7033 36.7442 40.384 37.0388 38.8928 37.7016C38.8744 37.7077 38.8683 37.7077 38.856 37.7077ZM41.4395 36.9345C41.2738 36.9345 41.1142 36.9406 40.9485 36.959C40.1569 37.0449 39.439 37.3272 38.8437 37.5972C38.8376 37.6034 38.8315 37.6095 38.8253 37.6157C38.8192 37.6218 38.8253 37.6341 38.8253 37.6402C38.8315 37.6463 38.8376 37.6525 38.8437 37.6586C38.8499 37.6647 38.8621 37.6586 38.8683 37.6586C40.3656 36.9897 41.7033 36.6951 43.3479 37.4254C43.3602 37.4315 43.3663 37.4315 43.3786 37.4254C43.3847 37.4193 43.3908 37.4193 43.3908 37.4131C43.397 37.407 43.397 37.3947 43.3908 37.3886C43.3908 37.3824 43.3847 37.3763 43.3724 37.3702C42.722 37.0817 42.0899 36.9345 41.4395 36.9345Z" fill="white"/>
<path d="M42.8317 38.8423C42.8378 38.8362 42.8501 38.8301 42.8562 38.8239C42.8747 38.7994 42.8685 38.7626 42.844 38.7503C42.2242 38.3207 41.5799 38.0507 40.868 37.9279C40.1808 37.8052 39.5119 37.8359 38.9596 37.8788C38.9289 37.8788 38.9044 37.9095 38.9105 37.9402C38.9105 37.9709 38.9412 37.9955 38.9719 37.9893C40.0949 37.8973 41.4081 37.885 42.7887 38.8423C42.7949 38.8485 42.8194 38.8485 42.8317 38.8423Z" fill="white"/>
<path d="M42.814 38.8737C42.7956 38.8737 42.7833 38.8676 42.771 38.8615C41.3965 37.9102 40.0894 37.9225 38.9726 38.0146C38.9542 38.0146 38.9296 38.0084 38.9173 37.9962C38.9051 37.9839 38.8928 37.9655 38.8928 37.9409C38.8928 37.9225 38.8989 37.898 38.9112 37.8857C38.9235 37.8673 38.9419 37.8611 38.9664 37.8611C39.5248 37.8182 40.1876 37.7875 40.881 37.9102C41.5928 38.033 42.2433 38.303 42.8631 38.7387C42.8815 38.751 42.8938 38.7694 42.8938 38.7878C42.8999 38.8062 42.8938 38.8308 42.8815 38.843C42.8753 38.8553 42.8631 38.8615 42.8508 38.8676C42.8324 38.8676 42.8201 38.8737 42.814 38.8737ZM39.8194 37.9287C40.7337 37.9287 41.7462 38.0943 42.7956 38.8246C42.8017 38.8308 42.814 38.8308 42.8263 38.8246C42.8324 38.8246 42.8385 38.8185 42.8385 38.8124C42.8447 38.8062 42.8447 38.8001 42.8447 38.7878C42.8447 38.7817 42.8385 38.7694 42.8324 38.7694C42.2187 38.3398 41.5744 38.0759 40.8687 37.9532C40.1814 37.8305 39.5187 37.8611 38.9664 37.9041C38.9603 37.9041 38.948 37.9102 38.9419 37.9164C38.9357 37.9225 38.9357 37.9287 38.9357 37.9409C38.9357 37.9471 38.9419 37.9593 38.948 37.9593C38.9542 37.9655 38.9603 37.9655 38.9726 37.9655C39.2364 37.9409 39.5248 37.9287 39.8194 37.9287Z" fill="white"/>
<path d="M29.8171 36.5846C29.8049 36.5723 29.7926 36.56 29.7926 36.5416C29.7926 36.511 29.811 36.4864 29.8417 36.4864C30.7499 36.4373 31.6029 36.5478 32.4497 36.8239C33.272 37.094 33.9838 37.4806 34.5729 37.8304C34.5975 37.8427 34.6097 37.8795 34.5913 37.904C34.579 37.9286 34.5422 37.9408 34.5177 37.9224C33.3272 37.2228 31.8851 36.4864 29.8417 36.5969C29.8417 36.5907 29.8294 36.5907 29.8171 36.5846Z" fill="white"/>
<path d="M34.5546 37.947C34.5424 37.947 34.5301 37.9409 34.5178 37.9348C33.3273 37.2351 31.8914 36.5049 29.8541 36.6092C29.8357 36.6092 29.8234 36.6031 29.805 36.5969C29.7866 36.5846 29.7743 36.5601 29.7682 36.5355C29.7682 36.5171 29.7743 36.4926 29.7866 36.4803C29.7989 36.4619 29.8173 36.4558 29.8418 36.4558C30.7562 36.4067 31.6091 36.5171 32.4621 36.7933C33.2905 37.0633 34.0023 37.4499 34.5914 37.7997C34.6099 37.812 34.6221 37.8243 34.6283 37.8488C34.6344 37.8672 34.6283 37.8918 34.6221 37.9102C34.6099 37.9286 34.5976 37.9409 34.573 37.947C34.5669 37.947 34.5608 37.947 34.5546 37.947ZM30.2591 36.5601C32.0939 36.5601 33.4317 37.2474 34.5424 37.8979C34.5485 37.9041 34.5608 37.9041 34.5669 37.9041C34.573 37.9041 34.5792 37.8979 34.5853 37.8918C34.5914 37.8857 34.5914 37.8734 34.5914 37.8672C34.5914 37.8611 34.5853 37.855 34.5792 37.8488C33.9901 37.5052 33.2782 37.1124 32.456 36.8485C31.6091 36.5724 30.7623 36.4619 29.8541 36.511C29.848 36.511 29.8357 36.5171 29.8296 36.5233C29.8234 36.5294 29.8234 36.5355 29.8234 36.5478C29.8234 36.5601 29.8296 36.5662 29.8357 36.5724C29.8418 36.5785 29.848 36.5785 29.8541 36.5785C29.9891 36.5601 30.1241 36.5601 30.2591 36.5601Z" fill="white"/>
<path d="M29.8166 38.0448C29.8104 38.0386 29.7982 38.0325 29.7982 38.0202C29.7859 37.9957 29.7982 37.9589 29.8288 37.9466C30.645 37.5845 31.4427 37.4495 32.265 37.5415C33.0627 37.6275 33.7807 37.9159 34.3821 38.1798C34.4066 38.1921 34.4189 38.2227 34.4066 38.2534C34.3944 38.278 34.3637 38.2902 34.333 38.278C32.8418 37.609 31.5102 37.3145 29.8718 38.0448C29.8473 38.057 29.8288 38.0509 29.8166 38.0448Z" fill="white"/>
<path d="M34.346 38.3091C34.3337 38.3091 34.3214 38.3091 34.3153 38.303C32.8303 37.6402 31.5048 37.3457 29.8725 38.0698C29.848 38.0821 29.8234 38.0759 29.7989 38.0637C29.7866 38.0575 29.7743 38.0453 29.7682 38.0268C29.762 38.0084 29.762 37.9839 29.7682 37.9655C29.7743 37.9471 29.7927 37.9287 29.8111 37.9225C30.6334 37.5604 31.4312 37.4254 32.2596 37.5175C33.0573 37.6034 33.7814 37.8918 34.3828 38.1557C34.4196 38.1741 34.438 38.2171 34.4196 38.26C34.4135 38.2785 34.3951 38.2907 34.3767 38.303C34.3644 38.3091 34.3583 38.3091 34.346 38.3091ZM31.7503 37.6034C32.6216 37.6034 33.4501 37.8673 34.3337 38.2662C34.3398 38.2723 34.3521 38.2723 34.3583 38.2662C34.3644 38.2662 34.3705 38.26 34.3767 38.2478C34.3828 38.2294 34.3767 38.211 34.3583 38.2048C33.763 37.9409 33.0451 37.6525 32.2534 37.5666C31.4373 37.4745 30.6457 37.6095 29.8295 37.9716C29.8234 37.9778 29.8173 37.9839 29.8111 37.99C29.8111 37.9962 29.8111 38.0084 29.8111 38.0146C29.8111 38.0207 29.8173 38.0268 29.8234 38.0268C29.8295 38.033 29.8418 38.033 29.8541 38.0268C30.5291 37.7261 31.1489 37.6034 31.7503 37.6034Z" fill="white"/>
<path d="M30.148 39.5423C30.1418 39.5361 30.1296 39.53 30.1234 39.5239C30.105 39.4993 30.1112 39.4625 30.1357 39.4502C30.7555 39.0207 31.3998 38.7506 32.1116 38.6279C32.7989 38.5052 33.4678 38.5358 34.0201 38.5788C34.0508 38.5788 34.0753 38.6095 34.0692 38.6402C34.0692 38.6709 34.0385 38.6954 34.0078 38.6893C32.8848 38.5972 31.5716 38.5849 30.1909 39.5423C30.1848 39.5484 30.1603 39.5484 30.148 39.5423Z" fill="white"/>
<path d="M30.1669 39.5672C30.1546 39.5672 30.1423 39.5672 30.1362 39.5611C30.1239 39.5549 30.1116 39.5488 30.1055 39.5365C30.0932 39.5181 30.0871 39.4997 30.0932 39.4813C30.0994 39.4629 30.1055 39.4445 30.1239 39.4322C30.7437 39.0026 31.3942 38.7326 32.106 38.6037C32.7994 38.481 33.4621 38.5117 34.0205 38.5546C34.039 38.5546 34.0574 38.5669 34.0758 38.5792C34.088 38.5976 34.0942 38.616 34.0942 38.6344C34.0942 38.6528 34.0819 38.6712 34.0696 38.6896C34.0512 38.7019 34.0328 38.708 34.0144 38.708C32.8976 38.616 31.5844 38.6037 30.216 39.5549C30.1975 39.5672 30.1853 39.5672 30.1669 39.5672ZM33.1737 38.5608C32.8362 38.5608 32.4803 38.5853 32.1183 38.6467C31.4126 38.7694 30.7682 39.0394 30.1546 39.4629C30.1485 39.469 30.1423 39.4752 30.1423 39.4813C30.1423 39.4874 30.1423 39.4997 30.1485 39.5058C30.1546 39.512 30.1546 39.512 30.1607 39.5181C30.173 39.5243 30.1853 39.5243 30.1914 39.5181C31.5782 38.5546 32.8976 38.573 34.0205 38.6651C34.0267 38.6651 34.039 38.6651 34.0451 38.659C34.0512 38.6528 34.0574 38.6467 34.0574 38.6405C34.0574 38.6344 34.0574 38.6221 34.0512 38.616C34.0451 38.6099 34.039 38.6037 34.0267 38.6037C33.7628 38.5792 33.4744 38.5608 33.1737 38.5608Z" fill="white"/>
<path d="M36.3097 41.5922C37.0553 41.5922 37.6597 40.8861 37.6597 40.015C37.6597 39.144 37.0553 38.4379 36.3097 38.4379C35.5641 38.4379 34.9597 39.144 34.9597 40.015C34.9597 40.8861 35.5641 41.5922 36.3097 41.5922Z" fill="#E8D4C4"/>
<path d="M35.9839 38.1128C35.9655 38.2908 35.9901 38.4871 36.0453 38.6835L35.9839 38.1128Z" fill="#3A3733"/>
<path d="M35.8307 38.1127C35.8123 38.3153 35.843 38.5239 35.8982 38.7203C35.9228 38.8001 36.0087 38.8553 36.0885 38.8246C36.1682 38.8001 36.2173 38.7203 36.1928 38.6344C36.1805 38.5853 36.1682 38.5362 36.156 38.4871C36.1498 38.4687 36.1498 38.4441 36.1437 38.4257C36.1437 38.4196 36.1437 38.4134 36.1375 38.4073C36.1375 38.4319 36.1437 38.4319 36.1375 38.4196C36.1375 38.4073 36.1375 38.4012 36.1314 38.3889C36.1191 38.2968 36.1191 38.2048 36.1314 38.1127C36.1375 38.033 36.0578 37.9532 35.978 37.9593C35.8921 37.9593 35.8369 38.0268 35.8307 38.1127Z" fill="#3A3733"/>
<path d="M34.1679 39.4875L34.8491 39.5919L34.352 40.6106L34.1679 39.4875Z" fill="white"/>
<path d="M38.2548 38.8553L37.6228 39.1376L38.3776 39.9907L38.2548 38.8553Z" fill="white"/>
<path d="M35.0887 39.7145C35.0887 39.7145 35.328 41.2916 36.4633 40.9848C37.5985 40.678 37.261 39.3033 37.261 39.3033L36.0398 38.6835L35.0887 39.7145Z" fill="#F4AEAE"/>
<path d="M33.5665 39.1621C33.8304 39.5181 34.217 39.8065 34.6711 39.8372C35.1007 39.8679 35.4627 39.5978 35.7327 39.291C35.8861 39.1192 36.0211 38.9289 36.1438 38.7325C36.0763 38.7509 36.0027 38.7694 35.9352 38.7878C36.3893 39.021 36.825 39.3585 37.3527 39.4076C37.8068 39.4444 38.2977 39.1805 38.5064 38.7816C38.6107 38.5791 38.6537 38.3459 38.58 38.125C38.5187 37.9409 38.218 38.0207 38.2855 38.2048C38.3284 38.3336 38.3223 38.4687 38.2609 38.5914C38.1873 38.7448 38.0707 38.8676 37.9234 38.9596C37.7577 39.0578 37.5675 39.113 37.3773 39.1008C37.1625 39.0885 36.96 38.9903 36.7698 38.8982C36.5427 38.7816 36.3218 38.6405 36.0948 38.5239C36.0211 38.4871 35.9291 38.5055 35.8861 38.5791C35.7695 38.7694 35.6407 38.9473 35.4934 39.1069C35.3522 39.2603 35.1866 39.4137 34.9902 39.4874C34.5545 39.6531 34.0943 39.3524 33.8365 39.0087C33.7875 38.9412 33.7015 38.9105 33.6279 38.9535C33.5543 38.9964 33.5175 39.1008 33.5665 39.1621Z" fill="#3A3733"/>
<path d="M14.1744 28.3603C14.7512 27.9246 15.236 27.3477 15.3096 26.6972C15.3894 26.0467 15.2851 26.4211 14.5426 26.2308C15.5735 26.3904 16.1503 25.9608 16.4694 26.8077C16.7394 26.3413 17.1874 25.9485 17.7397 25.7153C17.6783 26.1879 17.6231 26.6543 17.5617 27.1268C17.8747 26.7156 18.4453 26.4518 19.0283 26.4518C18.4269 27.1882 18.5313 28.2805 19.2615 28.931L14.1744 28.3603Z" fill="#FAD73D"/>
<path d="M27.5575 43.905C27.1157 43.5183 25.7166 44.3161 25.2625 44.4327C24.4709 44.6352 23.6363 44.5371 22.8325 44.6168C22.0838 44.6966 21.3229 44.936 20.6786 45.3042C19.666 45.8749 18.6413 46.9857 19.0033 48.1885C19.7949 50.8212 24.612 49.7166 26.14 48.4462C26.3486 48.2744 27.1157 47.5809 26.7782 47.2618C26.6739 47.1636 26.4775 47.1575 26.2198 47.2005C27.3366 46.5622 27.8091 45.654 27.533 45.4453C27.3489 45.2858 26.9255 45.3962 26.3548 45.5926C27.3918 44.9605 27.8275 44.1075 27.5575 43.905Z" fill="#F5BE2F"/>
<path d="M21.8447 50.048C21.3599 50.048 20.8936 49.9927 20.464 49.8639C19.5865 49.6 19.0035 49.0476 18.7642 48.2621C18.5801 47.6423 18.7028 46.9918 19.1201 46.3781C19.4515 45.8872 19.9608 45.433 20.556 45.0955C21.2311 44.715 22.0288 44.4573 22.8081 44.3775C23.1272 44.3468 23.4463 44.3407 23.7531 44.3345C24.2625 44.3284 24.735 44.3161 25.2013 44.1995C25.3057 44.175 25.4898 44.0952 25.6923 44.0093C26.3918 43.7147 27.2693 43.3465 27.7111 43.7208C27.8277 43.8129 27.883 43.954 27.8768 44.1259C27.8646 44.3836 27.6866 44.7518 27.3307 45.1323C27.4718 45.1385 27.5884 45.1814 27.6866 45.2612C27.7602 45.3164 27.8646 45.4453 27.8523 45.6785C27.8277 46.0835 27.4473 46.6052 26.895 47.047C26.9134 47.0593 26.9318 47.0777 26.9502 47.09C27.0607 47.1943 27.1159 47.3355 27.1098 47.4889C27.0914 47.9369 26.5391 48.4462 26.2998 48.6426C25.4591 49.3299 23.5629 50.048 21.8447 50.048ZM27.2202 44.0461C26.8705 44.0461 26.2077 44.3284 25.8886 44.4634C25.6493 44.5616 25.4652 44.6414 25.3302 44.6782C24.8086 44.8132 24.2809 44.8193 23.7654 44.8316C23.4647 44.8378 23.1579 44.8439 22.8634 44.8746C22.1515 44.9482 21.4213 45.1814 20.8076 45.5312C19.8074 46.0958 18.9422 47.1145 19.2428 48.1271C19.4331 48.7531 19.8933 49.1827 20.6113 49.3975C22.3786 49.9314 25.0172 49.0722 25.9868 48.2621C26.3427 47.9676 26.6189 47.6239 26.625 47.4705C26.625 47.4521 26.625 47.4521 26.6189 47.4459C26.6189 47.4459 26.5575 47.3968 26.2752 47.4459L24.8884 47.6914L26.1095 46.9918C27.0545 46.4518 27.392 45.789 27.3798 45.6294C27.3245 45.5926 27.1098 45.6049 26.4532 45.8258L24.3606 46.5377L26.2507 45.3839C27.1282 44.8439 27.4227 44.2363 27.4105 44.0891C27.3491 44.0584 27.2939 44.0461 27.2202 44.0461Z" fill="#DDAB1D"/>
<path d="M25.5267 44.4941C25.2874 44.5923 25.0849 44.6721 24.956 44.7028C24.1644 44.8992 23.3298 44.801 22.526 44.8808C21.7773 44.9544 21.0164 45.1876 20.3721 45.5374C20.145 45.6601 19.9118 45.8136 19.6971 45.9854C19.1325 46.6543 18.7214 47.6178 18.9423 48.3174C19.5805 50.3549 23.1764 49.6614 24.6492 48.9679C24.8946 48.8513 26.5944 47.9001 26.079 47.4705C25.9808 47.3907 25.809 47.3846 25.5696 47.4214C26.6742 46.8139 27.1406 45.9977 26.8706 45.8136C26.6619 45.6479 26.1833 45.7338 25.5144 46.0161C26.7233 45.4024 27.1467 44.5064 26.8583 44.2978C26.6619 44.1321 26.1772 44.2732 25.5267 44.4941Z" fill="#FAD73D"/>
<path d="M24.8271 45.0771C24.4896 45.2551 24.0907 45.3288 23.7041 45.3778C22.5321 45.519 21.2802 45.4269 20.3843 46.2554C19.6663 46.9243 19.5129 47.9001 20.2002 48.6365C21.1943 49.6982 23.2132 49.2318 24.3669 48.6611C24.5141 48.5874 25.1401 48.2867 25.0235 47.8878C24.9805 47.7405 24.6123 47.673 24.465 47.7405C24.9007 47.5503 25.4162 47.2189 25.588 46.7832C25.6862 46.5377 25.5635 46.28 25.2873 46.194C25.1216 46.145 24.9253 46.1572 24.6737 46.2002C24.9682 46.145 25.2566 45.9424 25.496 45.7706C25.7291 45.6049 25.9194 45.3901 25.9623 45.1201C26.0482 44.531 25.0726 44.9483 24.8271 45.0771Z" fill="#FFE266"/>
<path d="M5.07358 52.7296C4.8588 52.2019 6.06155 51.2261 6.31928 50.864C6.76724 50.2258 6.9452 49.4525 7.28884 48.7591C7.60793 48.1208 8.08044 47.5256 8.63885 47.0776C9.50409 46.3718 10.8787 45.8379 11.8912 46.5744C14.1003 48.1822 11.4984 52.0914 9.80478 53.0242C9.57159 53.1531 8.67567 53.6011 8.48544 53.1838C8.42408 53.0549 8.47931 52.8831 8.60817 52.6683C7.64475 53.4415 6.63837 53.552 6.53405 53.2329C6.44201 53.0119 6.68746 52.6744 7.05565 52.2387C6.11678 52.9444 5.1779 53.0365 5.07358 52.7296Z" fill="#F5BE2F"/>
<path d="M6.90862 53.6502C6.8043 53.6502 6.71225 53.6379 6.63861 53.6133C6.4177 53.5458 6.33179 53.4047 6.30111 53.3249C6.25202 53.2083 6.25815 53.0856 6.29497 52.9567C5.85928 53.1285 5.45428 53.1899 5.172 53.104C5.01245 53.0549 4.89586 52.9506 4.84677 52.8155C4.63199 52.2816 5.27018 51.625 5.78565 51.0972C5.92678 50.9499 6.06792 50.8088 6.12315 50.729C6.38702 50.3547 6.54657 49.9374 6.71839 49.4894C6.82271 49.2132 6.93316 48.9309 7.06816 48.6609C7.39953 47.9981 7.90272 47.366 8.47955 46.8996C8.98887 46.4823 9.58411 46.1877 10.1548 46.0588C10.8666 45.8993 11.5171 46.0159 12.0325 46.3902C12.7076 46.8812 13.0328 47.6238 12.9776 48.5259C12.8671 50.3056 11.2409 52.5271 9.91547 53.2513C9.65161 53.3985 8.99501 53.7177 8.57159 53.5827C8.42432 53.5336 8.31386 53.4415 8.2525 53.3065C8.24022 53.2819 8.23409 53.2635 8.22795 53.239C7.73704 53.5151 7.25839 53.6502 6.90862 53.6502ZM6.7552 53.1347C6.89634 53.2022 7.62658 53.1408 8.44886 52.478L9.50433 51.6311L8.81705 52.791C8.68205 53.0181 8.70659 53.0794 8.70659 53.0794C8.71273 53.0856 8.71273 53.0917 8.73114 53.0978C8.88455 53.1469 9.28956 53.0242 9.68843 52.8033C10.8728 52.1528 12.3946 50.0785 12.4928 48.4768C12.5419 47.7342 12.2903 47.1635 11.7503 46.7707C10.8973 46.1509 9.65161 46.5682 8.79864 47.2678C8.27091 47.6974 7.81681 48.2681 7.51612 48.8695C7.39339 49.1211 7.28908 49.385 7.18476 49.6612C7.0068 50.1153 6.82884 50.5879 6.52816 51.0052C6.44838 51.1156 6.31338 51.2568 6.14156 51.4347C5.86542 51.717 5.22723 52.3798 5.307 52.6253C5.44201 52.6928 6.10474 52.6498 6.90862 52.0423L8.62068 50.7536L7.24612 52.3982C6.82884 52.8892 6.74907 53.0733 6.7552 53.1347Z" fill="#DDAB1D"/>
<path d="M6.54053 51.0543C6.71235 50.8764 6.85962 50.723 6.93326 50.6248C7.38122 49.9865 7.55918 49.2133 7.90282 48.5198C8.22191 47.8816 8.69442 47.2863 9.25284 46.8383C9.4492 46.6788 9.67012 46.5253 9.90944 46.3965C10.7501 46.1326 11.824 46.1142 12.4377 46.5622C14.2234 47.8632 12.3702 50.8211 11.2104 51.8828C11.014 52.0608 9.52898 53.2329 9.27738 52.6192C9.22829 52.5026 9.28352 52.3431 9.39398 52.1467C8.43669 52.9077 7.48554 53.0365 7.39349 52.7236C7.30145 52.4781 7.54077 52.0853 8.03782 51.5882C7.04372 52.4413 6.02507 52.5026 5.91461 52.1712C5.81643 51.9319 6.11711 51.5514 6.54053 51.0543Z" fill="#FAD73D"/>
<path d="M7.34424 50.6432C7.62651 50.41 7.83515 50.0725 8.00084 49.7534C8.52243 48.7592 8.84153 47.6116 9.94609 47.1084C10.8359 46.7033 11.8423 46.9243 12.3393 47.8018C13.0573 49.0722 11.9404 50.6984 11.0016 51.5208C10.885 51.6251 10.3879 52.0731 10.0259 51.8276C9.897 51.7417 9.95223 51.3858 10.0627 51.2753C9.73131 51.5944 9.24653 51.9381 8.76176 51.932C8.49175 51.932 8.27698 51.7294 8.28311 51.4533C8.28925 51.2876 8.36289 51.1158 8.49175 50.9071C8.34448 51.1526 8.04379 51.3367 7.80447 51.484C7.57128 51.6313 7.29514 51.7294 7.01287 51.6681C6.40536 51.5269 7.1356 50.8089 7.34424 50.6432Z" fill="#FFE266"/>
<path d="M21.6357 51.5147C21.6357 54.9084 19.1321 56.2278 16.0393 56.2278C12.9465 56.2278 10.4429 54.9084 10.4429 51.5147C10.4429 48.121 12.9465 42.6162 16.0393 42.6162C19.1321 42.6162 21.6357 48.121 21.6357 51.5147Z" fill="#F5BE2F"/>
<path d="M16.0457 56.4733C12.3331 56.4733 10.2038 54.669 10.2038 51.5147C10.2038 49.7718 10.8604 47.4766 11.8729 45.6724C13.0695 43.5429 14.5484 42.3707 16.0457 42.3707C17.5368 42.3707 19.0157 43.5429 20.2185 45.6724C21.231 47.4766 21.8876 49.7718 21.8876 51.5147C21.8815 54.6629 19.7521 56.4733 16.0457 56.4733ZM16.0457 42.8617C14.757 42.8617 13.3947 43.9724 12.3025 45.9117C11.3268 47.6484 10.6947 49.8454 10.6947 51.5147C10.6947 53.1839 11.3881 55.9823 16.0457 55.9823C20.7033 55.9823 21.3967 53.1839 21.3967 51.5147C21.3967 49.8516 20.7646 47.6484 19.7889 45.9117C18.6966 43.9724 17.3282 42.8617 16.0457 42.8617Z" fill="#DDAB1D"/>
<path d="M16.0457 42.6162C15.8923 42.6162 15.745 42.6285 15.5977 42.653C14.8736 42.7819 14.2416 43.2238 13.8181 43.8252C12.462 45.7337 11.5845 48.4769 11.5845 50.4837C11.5845 53.8774 14.0881 55.1968 17.1809 55.1968C17.6596 55.1968 18.1198 55.1661 18.5616 55.0986C20.3166 54.8347 21.636 53.3189 21.6482 51.5454C21.6482 51.5331 21.6482 51.5208 21.6482 51.5085C21.636 48.121 19.1323 42.6162 16.0457 42.6162Z" fill="#FAD73D"/>
<path d="M16.0398 44.7764C15.9171 44.7764 15.8005 44.7886 15.6839 44.8071C15.1132 44.8991 14.6162 45.2305 14.2787 45.6724C13.2048 47.0777 12.5175 49.1029 12.5175 50.588C12.5175 53.0918 14.4996 54.0615 16.9358 54.0615C17.3101 54.0615 17.6783 54.0369 18.0219 53.9878C19.4087 53.7976 20.4519 52.6745 20.4581 51.3674C20.4581 51.3612 20.4581 51.349 20.4581 51.3428C20.4581 48.839 18.4821 44.7764 16.0398 44.7764Z" fill="#FFE266"/>
<path d="M26.4408 39.0876C26.4408 44.0585 21.6237 47.1146 15.6897 47.1146C9.75577 47.1146 4.93866 44.0523 4.93866 39.0876C4.93866 34.1229 9.75577 27.7773 15.6897 27.7773C21.6237 27.7773 26.4408 34.1167 26.4408 39.0876Z" fill="#F5BE2F"/>
<path d="M15.6899 47.3601C12.6831 47.3601 9.93394 46.5807 7.94574 45.1631C5.81639 43.6473 4.69342 41.5484 4.69342 39.0876C4.69342 36.5592 5.89616 33.6871 7.90278 31.4103C10.1058 28.9126 12.8733 27.538 15.6899 27.538C18.5066 27.538 21.2741 28.9126 23.4771 31.4103C25.4898 33.6871 26.6864 36.5592 26.6864 39.0876C26.6864 41.5484 25.5635 43.6473 23.4341 45.1631C21.4459 46.5807 18.6968 47.3601 15.6899 47.3601ZM15.6899 28.0228C13.0144 28.0228 10.3819 29.3422 8.27097 31.7294C6.33799 33.9203 5.18434 36.6696 5.18434 39.0876C5.18434 41.3827 6.2398 43.3465 8.22801 44.7642C10.1364 46.1204 12.7813 46.8691 15.6899 46.8691C18.5925 46.8691 21.2434 46.1204 23.1518 44.7642C25.1462 43.3465 26.1955 41.3827 26.1955 39.0876C26.1955 36.6758 25.0419 33.9264 23.1089 31.7356C21.0041 29.3422 18.3654 28.0228 15.6899 28.0228Z" fill="#DDAB1D"/>
<path d="M15.6591 27.4828C14.168 27.7589 12.732 28.2069 11.4434 29.0047C9.73744 30.0603 8.39356 31.6927 7.68787 33.5767C7.21536 34.8409 7.02513 36.2033 7.13559 37.5473C7.58969 43.2423 13.4623 46.5316 18.7948 45.3656C20.8751 44.9115 22.8019 43.8314 24.379 42.3954C24.4956 42.2911 24.6122 42.1806 24.7288 42.0701C25.6124 41.211 26.134 40.0327 26.134 38.8053C26.134 38.7992 26.134 38.793 26.134 38.7808C26.134 33.8897 21.4703 27.673 15.6591 27.4828Z" fill="#FAD73D"/>
<path d="M11.8315 39.4469C11.8715 38.7498 11.1606 38.1421 10.2436 38.0895C9.32662 38.037 8.55087 38.5594 8.5109 39.2565C8.47094 39.9536 9.18189 40.5613 10.0989 40.6139C11.0158 40.6665 11.7916 40.144 11.8315 39.4469Z" fill="#FFA4A8"/>
<path d="M22.8702 38.8146C22.9102 38.1175 22.1992 37.5098 21.2823 37.4572C20.3653 37.4046 19.5896 37.9271 19.5496 38.6242C19.5096 39.3213 20.2206 39.929 21.1375 39.9816C22.0545 40.0341 22.8303 39.5117 22.8702 38.8146Z" fill="#FFA4A8"/>
<path d="M12.3386 37.8342C12.3722 37.2488 12.0456 36.754 11.6091 36.7289C11.1726 36.7039 10.7915 37.1582 10.758 37.7436C10.7244 38.329 11.051 38.8239 11.4875 38.8489C11.924 38.8739 12.3051 38.4197 12.3386 37.8342Z" fill="black"/>
<path d="M20.5658 37.6652C20.5994 37.0798 20.2727 36.5849 19.8363 36.5599C19.3998 36.5348 19.0187 36.9891 18.9852 37.5745C18.9516 38.16 19.2782 38.6548 19.7147 38.6798C20.1512 38.7049 20.5323 38.2506 20.5658 37.6652Z" fill="black"/>
<path d="M19.798 37.6194C19.8135 37.3487 19.7163 37.1229 19.581 37.1151C19.4457 37.1074 19.3233 37.3205 19.3078 37.5913C19.2923 37.862 19.3894 38.0877 19.5248 38.0955C19.6601 38.1032 19.7824 37.8901 19.798 37.6194Z" fill="white"/>
<path d="M12.0767 37.8186C12.0922 37.5479 11.9951 37.3221 11.8597 37.3144C11.7244 37.3066 11.6021 37.5198 11.5866 37.7905C11.5711 38.0612 11.6682 38.2869 11.8035 38.2947C11.9389 38.3025 12.0612 38.0893 12.0767 37.8186Z" fill="white"/>
<path d="M11.6766 41.3703C11.6705 42.0515 12.6707 43.8619 16.101 43.8803C19.6785 43.8926 20.4088 41.9594 20.4088 41.9594C20.4517 41.1494 11.6766 41.3703 11.6766 41.3703Z" fill="#D02928"/>
<path d="M11.2162 41.131C11.0751 41.892 13.9592 42.8616 16.5365 42.7757C18.9972 42.6959 21.0284 42.1497 21.0529 41.4133C21.0836 40.6769 19.9729 40.5418 18.7947 40.057C17.6165 39.5722 17.4386 38.7069 16.0702 38.8113C14.6956 38.9156 14.8551 39.6275 13.5665 39.8852C12.2778 40.1368 11.4065 40.1184 11.2162 41.131Z" fill="#E35125"/>
<path d="M13.0143 40.3701C12.8793 40.3885 12.7382 40.413 12.6216 40.4805C12.505 40.5481 12.4068 40.6708 12.4129 40.8119C12.4191 41.0329 12.6645 41.1556 12.8732 41.2231C13.1248 41.3029 13.3825 41.3643 13.6464 41.4072C13.7875 41.4318 13.9286 41.444 14.0698 41.4195C14.352 41.3581 14.5607 41.1249 14.7448 40.904C14.8859 40.7383 15.0332 40.5419 15.0148 40.3271C15.0086 40.2842 14.9964 40.2351 14.9718 40.2044C14.9227 40.1492 14.843 40.143 14.7755 40.143C14.1802 40.1123 13.5911 40.278 13.0143 40.3701Z" fill="#EB7939"/>
</g>
</svg>
