<svg width="51" height="51" viewBox="0 0 51 51" fill="none" xmlns="http://www.w3.org/2000/svg">
<path fill-rule="evenodd" clip-rule="evenodd" d="M51 25.5275C51.0041 32.3863 48.2342 38.9568 43.3201 43.7437C42.9881 44.0757 42.6339 44.3856 42.2798 44.6955C32.6736 53.102 18.329 53.102 8.72292 44.6955C8.36876 44.3856 8.01459 44.0757 7.68257 43.7437C-0.602565 35.6511 -2.39343 22.9914 3.32194 12.9182C9.03731 2.84511 20.8233 -2.11125 32.02 0.849883C43.2166 3.81101 51.0115 13.9459 51 25.5274V25.5275Z" fill="#BCDDBA"/>
<mask id="mask0_10541:57231" style="mask-type:alpha" maskUnits="userSpaceOnUse" x="0" y="0" width="51" height="51">
<path fill-rule="evenodd" clip-rule="evenodd" d="M51 25.5275C51.0041 32.3863 48.2342 38.9568 43.3201 43.7437C42.9881 44.0757 42.6339 44.3856 42.2798 44.6955C32.6736 53.102 18.329 53.102 8.72292 44.6955C8.36876 44.3856 8.01459 44.0757 7.68257 43.7437C-0.602565 35.6511 -2.39343 22.9914 3.32194 12.9182C9.03731 2.84511 20.8233 -2.11125 32.02 0.849883C43.2166 3.81101 51.0115 13.9459 51 25.5274V25.5275Z" fill="#B7C6B6"/>
</mask>
<g mask="url(#mask0_10541:57231)">
<path d="M24.3656 36.0459C27.6518 36.0459 30.3157 35.5289 30.3157 34.8911C30.3157 34.2533 27.6518 33.7363 24.3656 33.7363C21.0795 33.7363 18.4155 34.2533 18.4155 34.8911C18.4155 35.5289 21.0795 36.0459 24.3656 36.0459Z" fill="#9D9D9C"/>
<path d="M15.7463 15.2794C15.4542 19.7423 14.2995 24.7079 10.1697 24.443C6.04 24.1712 2.2227 18.0917 2.51477 13.622C2.80684 9.15911 5.5034 6.49633 9.63315 6.76125C13.7629 7.03296 16.0383 10.8166 15.7463 15.2794Z" fill="#C8C8CE"/>
<path d="M10.4956 24.7215C10.3801 24.7215 10.2714 24.7148 10.156 24.708C8.15222 24.5789 6.08055 23.1388 4.46397 20.7545C2.9289 18.4993 2.10024 15.823 2.24967 13.6017C2.3991 11.3329 3.15984 9.47167 4.45039 8.22179C5.74773 6.95153 7.5477 6.35376 9.64653 6.48962C11.7046 6.62548 13.4095 7.59006 14.571 9.29505C15.651 10.8778 16.1672 13.0107 16.0178 15.2999C15.6102 21.5561 13.7559 24.7215 10.4956 24.7215ZM9.06918 7.01267C7.3643 7.01267 5.90395 7.55609 4.81717 8.60898C3.62172 9.77055 2.92211 11.5027 2.77947 13.6357C2.64362 15.7414 3.43833 18.2887 4.90547 20.4489C6.42696 22.6905 8.34919 24.0491 10.1831 24.1645C10.285 24.1713 10.3869 24.1713 10.4888 24.1713C12.0986 24.1713 13.3008 23.2951 14.1499 21.5085C14.8563 20.0345 15.2978 17.9287 15.4744 15.2524C15.617 13.0854 15.1347 11.0748 14.1227 9.58715C13.0631 8.03159 11.5008 7.14173 9.61257 7.01946C9.42918 7.01946 9.25258 7.01267 9.06918 7.01267Z" fill="#666161"/>
<path d="M7.49341 7.73931C5.53042 8.84654 4.80364 11.3055 4.66779 13.4181C4.43006 17.0455 7.0519 22.439 10.679 23.2405C11.0594 23.322 11.4398 23.3628 11.8133 23.3696C12.2888 23.3764 12.7575 23.1998 13.1039 22.8737C14.8495 21.2095 15.4676 17.8674 15.6714 14.7699C15.7597 13.4589 15.6171 12.209 15.2842 11.0882C14.7952 10.3953 14.279 9.74999 13.7424 9.1726C12.1598 7.4676 9.66017 6.51661 7.49341 7.73931Z" fill="#EEB9B1"/>
<path d="M15.4541 15.1775C15.4948 18.8389 14.5778 22.344 12.2073 22.3711C9.82999 22.3983 6.86853 18.0577 6.82778 14.3964C6.78702 10.735 8.73643 8.96891 11.107 8.94173C13.4775 8.90777 15.4133 11.5162 15.4541 15.1775Z" fill="#F9D2CA"/>
<path d="M33.5557 12.6785C35.1111 16.8765 37.6379 21.2986 41.5163 19.8653C45.3948 18.4253 47.317 11.5034 45.7616 7.30542C44.2061 3.10746 40.8643 1.32774 36.979 2.76782C33.1006 4.20789 32.0002 8.48737 33.5557 12.6785Z" fill="#C8C8CE"/>
<path d="M40.0422 20.4151C37.4475 20.4151 35.1856 17.8542 33.3042 12.7732C32.5095 10.6267 32.394 8.43258 32.9781 6.60531C33.603 4.64218 34.9547 3.22928 36.8973 2.50924C38.8671 1.77561 40.7622 1.83675 42.3787 2.67906C43.9749 3.50778 45.2383 5.07692 46.0262 7.20987C46.8006 9.29526 46.7666 12.0939 45.9447 14.7023C45.0753 17.4466 43.4995 19.4234 41.618 20.1162C41.0814 20.32 40.5516 20.4151 40.0422 20.4151ZM39.5599 2.54999C38.7652 2.54999 37.9298 2.70623 37.0807 3.02549C35.3079 3.6844 34.0649 4.98182 33.4944 6.77513C32.9442 8.48692 33.0596 10.5519 33.8136 12.5898C34.7441 15.1031 35.7766 16.9915 36.8701 18.2074C38.283 19.7698 39.7705 20.2249 41.4278 19.6136C43.1463 18.975 44.6066 17.1274 45.4217 14.5393C46.2096 12.0464 46.2436 9.38357 45.51 7.40007C44.7696 5.39619 43.5946 3.93573 42.1206 3.16135C41.3327 2.75378 40.4701 2.54999 39.5599 2.54999Z" fill="#666161"/>
<path d="M39.5125 3.1337C41.7132 3.63637 43.1056 5.7829 43.846 7.7664C45.1094 11.1764 44.1381 17.0929 40.8981 18.8998C40.5585 19.09 40.2053 19.2327 39.8453 19.3482C39.3902 19.4908 38.8876 19.4568 38.4665 19.2395C36.3201 18.1458 34.7714 15.123 33.6914 12.2089C33.2364 10.9794 33.0122 9.74311 33.0122 8.56796C33.2839 7.7664 33.5963 6.99881 33.9428 6.29236C34.9616 4.20697 37.0876 2.57669 39.5125 3.1337Z" fill="#EEB9B1"/>
<path d="M34.0106 12.5286C35.0159 16.0472 36.8974 19.1448 39.1796 18.4927C41.4618 17.8405 43.0648 12.8342 42.0595 9.31555C41.0543 5.79687 38.6837 4.66247 36.4015 5.30779C34.1125 5.9599 33.0053 9.00987 34.0106 12.5286Z" fill="#F9D2CA"/>
<path d="M20.0453 26.9772C20.0046 27.3712 19.9163 27.7652 19.7804 28.1252C19.7125 28.3086 19.6242 28.4852 19.5223 28.6483C19.4204 28.8181 19.2982 28.9675 19.1623 29.117C19.0265 29.2596 18.8771 29.3887 18.7072 29.5042C18.5374 29.6196 18.3608 29.7147 18.1706 29.7962C17.9805 29.8778 17.7835 29.9457 17.5797 30C17.3759 30.0544 17.1654 30.0951 16.9548 30.1223C16.9276 30.1291 16.9141 30.1495 16.9141 30.1766C16.9141 30.197 16.9344 30.2174 16.9616 30.2174C17.179 30.2242 17.3963 30.2174 17.6137 30.1902C17.831 30.1699 18.0484 30.1291 18.2657 30.0748C18.4831 30.0204 18.6937 29.9457 18.9042 29.8438C19.108 29.7487 19.3118 29.6264 19.4952 29.4838C19.6785 29.3411 19.8551 29.1781 20.0046 29.0015C20.1608 28.8249 20.2967 28.6279 20.4121 28.4309C20.5276 28.2271 20.6295 28.0165 20.7178 27.7992C20.8061 27.5818 20.8808 27.3644 20.9419 27.1403V27.1335C21.0098 26.8889 20.8672 26.6376 20.6227 26.5697C20.3782 26.5017 20.1268 26.6444 20.0589 26.8889C20.0589 26.9297 20.0521 26.9568 20.0453 26.9772Z" fill="#C8C8CE"/>
<path d="M17.077 30.3597C17.0363 30.3597 17.0023 30.3597 16.9615 30.3597C16.8732 30.3597 16.7985 30.2918 16.7849 30.2035C16.7781 30.1559 16.7917 30.1084 16.8189 30.0676C16.8461 30.0269 16.8936 30.0065 16.9412 29.9997C17.1585 29.9657 17.3623 29.925 17.5525 29.8774C17.7562 29.8231 17.9464 29.7551 18.123 29.6804C18.3064 29.5989 18.483 29.5038 18.6392 29.3951C18.7955 29.2864 18.9449 29.1642 19.074 29.0283C19.203 28.8925 19.3185 28.743 19.4136 28.5868C19.5087 28.4305 19.5902 28.2607 19.6581 28.0841C19.7872 27.7513 19.8687 27.3912 19.9162 26.9701C19.923 26.9361 19.923 26.9089 19.9366 26.875C20.0249 26.5557 20.3509 26.3723 20.6702 26.4606C20.8264 26.5014 20.9486 26.6033 21.0302 26.7391C21.1117 26.875 21.1252 27.038 21.0845 27.1942C21.0166 27.432 20.9419 27.663 20.8603 27.8735C20.7653 28.1045 20.6634 28.3219 20.5411 28.5188C20.4121 28.7362 20.2762 28.9332 20.12 29.1098C19.9638 29.2932 19.7804 29.4631 19.5902 29.6125C19.4 29.7551 19.1894 29.8842 18.9721 29.9861C18.7683 30.0812 18.5442 30.1627 18.3132 30.2238C18.1027 30.2782 17.8717 30.3189 17.6408 30.3393C17.4506 30.3529 17.2672 30.3597 17.077 30.3597ZM20.1811 26.9973C20.1336 27.4388 20.0453 27.8328 19.9094 28.1792C19.8347 28.3762 19.7464 28.5596 19.6377 28.7294C19.529 28.906 19.4068 29.0691 19.2641 29.2185C19.1215 29.368 18.9585 29.5038 18.7887 29.6261C18.6189 29.7416 18.4287 29.8435 18.2317 29.9318C18.1842 29.9521 18.1298 29.9725 18.0755 29.9929C18.1298 29.9793 18.1842 29.9657 18.2385 29.9521C18.4559 29.8978 18.6596 29.8231 18.8498 29.7348C19.0536 29.6397 19.2438 29.5242 19.4204 29.3883C19.597 29.2525 19.7668 29.0962 19.9094 28.9264C20.0521 28.7634 20.1879 28.5732 20.3034 28.3694C20.4121 28.1792 20.5139 27.9754 20.6022 27.7581C20.6837 27.5611 20.7585 27.3437 20.8196 27.1127C20.8468 27.0244 20.8332 26.9361 20.7924 26.8614C20.7517 26.7867 20.677 26.7323 20.5954 26.712C20.4256 26.6644 20.2422 26.7663 20.1947 26.9361C20.1879 26.9565 20.1879 26.9769 20.1811 26.9973Z" fill="#666161"/>
<path d="M16.2419 29.7013C15.9159 29.7692 15.454 30.1836 15.2094 30.4145C15.1347 30.4892 15.1619 30.6183 15.257 30.6591C15.5762 30.7813 16.1808 30.9783 16.5136 30.9104C16.9755 30.8153 17.2879 30.4689 17.2132 30.136C17.1385 29.8032 16.7038 29.613 16.2419 29.7013Z" fill="#C8C8CE"/>
<path d="M16.3711 31.0594C16.0314 31.0594 15.5696 30.9168 15.2164 30.7877C15.1281 30.7537 15.0601 30.679 15.0398 30.5839C15.0194 30.4888 15.0465 30.3937 15.1213 30.3258C15.4337 30.0201 15.8752 29.6465 16.2216 29.5786C16.7514 29.4699 17.2609 29.7144 17.3559 30.1152C17.3967 30.2782 17.3627 30.4481 17.2609 30.6043C17.1182 30.8285 16.8601 30.9915 16.5544 31.0526C16.4933 31.0526 16.4322 31.0594 16.3711 31.0594ZM16.4729 29.8163C16.405 29.8163 16.3371 29.8231 16.2692 29.8367C16.0586 29.8775 15.7054 30.1288 15.3047 30.516C15.3047 30.516 15.2979 30.5228 15.3047 30.5296C15.3047 30.5364 15.3114 30.5364 15.3114 30.5364C15.848 30.7402 16.276 30.8285 16.4933 30.7809C16.7243 30.7334 16.9212 30.6111 17.0231 30.4549C17.0639 30.3869 17.1114 30.285 17.0843 30.1696C17.0367 29.959 16.7718 29.8163 16.4729 29.8163Z" fill="#666161"/>
<path d="M15.5219 30.3189C15.7189 30.183 16.0993 29.9453 16.337 29.9385C16.4117 29.9385 16.4796 29.9453 16.5476 29.9589C16.6766 30.0268 16.7649 30.1355 16.7717 30.2577C16.7853 30.4683 16.5612 30.6449 16.2827 30.6517C16.0789 30.6585 15.6985 30.5906 15.5219 30.4887C15.4608 30.4547 15.4608 30.3596 15.5219 30.3189Z" fill="#E0E0E2"/>
<path d="M20.2357 25.9105C18.3949 26.7664 17.6138 26.3249 17.2267 25.5097C16.8463 24.6878 17.0093 23.8047 18.8432 22.942C20.684 22.0862 22.4839 22.0522 22.8643 22.8741C23.2515 23.6893 22.0696 25.0478 20.2357 25.9105Z" fill="#C8C8CE"/>
<path d="M18.5513 26.6444C18.4019 26.6444 18.2592 26.6308 18.1234 26.5969C17.6139 26.4814 17.2268 26.1553 16.9755 25.6187C16.7241 25.0821 16.7174 24.5726 16.9551 24.1107C17.2268 23.5877 17.8041 23.119 18.7211 22.691C19.6449 22.2631 20.589 22.0117 21.3905 21.9981C22.2667 21.9778 22.8712 22.2495 23.109 22.7521C23.3399 23.2548 23.1565 23.8933 22.5859 24.5522C22.0629 25.1568 21.2682 25.7206 20.3445 26.1553C19.6449 26.4814 19.0539 26.6444 18.5513 26.6444ZM21.472 22.5484C21.4516 22.5484 21.4312 22.5484 21.4109 22.5484C20.6909 22.5619 19.8215 22.7861 18.9656 23.1869C18.1709 23.5605 17.6615 23.9545 17.4509 24.362C17.2879 24.6745 17.2947 25.0006 17.4781 25.3878C17.6615 25.7749 17.906 25.9923 18.2524 26.067C18.7007 26.1689 19.3324 26.0263 20.1271 25.6595C21.9407 24.8104 22.9052 23.5673 22.6267 22.9831C22.4908 22.7046 22.0697 22.5484 21.472 22.5484Z" fill="#666161"/>
<path d="M20.0118 25.5503C21.7643 24.7283 22.885 23.4309 22.525 22.6497C22.3552 22.2761 21.8729 22.0927 21.2345 22.0859C20.2156 22.5139 19.3598 22.9011 18.9862 23.1184C18.4224 23.4513 17.8519 23.8657 17.7975 24.5993C17.7771 24.8846 17.8587 25.1631 18.0081 25.4008C18.0285 25.4348 18.0556 25.4688 18.076 25.5095C18.307 25.8356 18.7145 25.9918 19.1017 25.8899C19.3666 25.822 19.6654 25.7065 20.0118 25.5503Z" fill="#E0E0E2"/>
<path d="M26.1114 29.0217C28.6178 28.4919 28.7061 29.3274 28.8759 30.6452C29.3514 34.3473 29.6095 34.816 27.4767 34.8228C25.8126 34.8296 25.5613 34.5103 25.2216 31.9087C24.8413 29.6059 25.5001 29.1304 26.1114 29.0217Z" fill="#C8C8CE"/>
<path d="M27.4156 35.094C26.5598 35.094 26.0164 34.9921 25.6428 34.5098C25.2896 34.0479 25.1334 33.2871 24.9568 31.9489C24.6307 29.9926 24.9975 28.9533 26.0639 28.7563C27.2594 28.505 27.9998 28.5389 28.4616 28.865C28.9711 29.225 29.0526 29.8567 29.1477 30.5836V30.604C29.1884 30.9164 29.2292 31.2085 29.2631 31.4734C29.5077 33.3143 29.6163 34.1498 29.1884 34.6457C28.8692 35.0125 28.319 35.0872 27.4835 35.0872C27.4564 35.094 27.436 35.094 27.4156 35.094ZM27.3884 29.1367C27.0624 29.1367 26.6617 29.191 26.1726 29.2929H26.1658C25.8737 29.3473 25.0994 29.4831 25.5002 31.8674V31.8742C25.6564 33.0901 25.799 33.8237 26.0775 34.1838C26.3017 34.4691 26.6413 34.5642 27.4835 34.5574C28.2579 34.5506 28.6247 34.4826 28.7809 34.2992C29.0526 33.9868 28.9371 33.1241 28.7265 31.5549C28.6926 31.2832 28.6518 30.9979 28.6111 30.6787V30.6583C28.5296 30.0334 28.4684 29.5375 28.1492 29.3133C27.9794 29.191 27.7281 29.1367 27.3884 29.1367Z" fill="#666161"/>
<path d="M26.1114 29.0219C26.7431 28.9336 27.2186 28.9132 27.5854 28.9472C27.7552 29.2461 27.8978 29.511 27.9861 29.6944C28.3733 30.5163 28.3529 31.5556 28.4005 32.4387C28.414 32.69 28.4073 32.9481 28.3529 33.1995C28.1491 34.1708 27.5107 34.395 26.8043 34.4154C26.1726 34.4358 25.6088 34.0078 25.4662 33.3965C25.3779 33.0093 25.3032 32.5202 25.2216 31.9088C24.8413 29.6061 25.5001 29.1306 26.1114 29.0219Z" fill="#E0E0E2"/>
<path d="M22.8436 29.0217C20.3372 28.4919 20.2489 29.3274 20.0791 30.6452C19.6036 34.3473 19.3455 34.816 21.4783 34.8228C23.1425 34.8296 23.3938 34.5103 23.7334 31.9087C24.1138 29.6059 23.4617 29.1304 22.8436 29.0217Z" fill="#C8C8CE"/>
<path d="M21.5464 35.0942C21.526 35.0942 21.5056 35.0942 21.4785 35.0942C20.6362 35.0874 20.0928 35.0127 19.7736 34.6527C19.3457 34.1568 19.4543 33.3213 19.6989 31.4804C19.7328 31.2155 19.7736 30.9234 19.8143 30.6109V30.5905C19.9094 29.8637 19.9909 29.232 20.5004 28.872C20.9622 28.5391 21.7026 28.5051 22.8981 28.7633C23.9645 28.9535 24.3244 29.9996 24.0052 31.9559C23.8286 33.2941 23.6792 34.0617 23.3192 34.5168C22.9456 34.9991 22.4022 35.0942 21.5464 35.0942ZM21.5735 29.1369C21.2271 29.1369 20.9758 29.198 20.8128 29.3135C20.5004 29.5377 20.4324 30.0335 20.3509 30.6585V30.6789C20.3102 30.9913 20.2694 31.2834 20.2355 31.5551C20.0249 33.1243 19.9094 33.987 20.1811 34.2994C20.3373 34.4828 20.7041 34.5508 21.4785 34.5576C22.3207 34.5644 22.6603 34.4693 22.8845 34.184C23.163 33.8239 23.2988 33.0971 23.4618 31.8744V31.8676C23.8558 29.4833 23.0814 29.3475 22.7962 29.2931H22.7894C22.3003 29.1844 21.8996 29.1369 21.5735 29.1369Z" fill="#666161"/>
<path d="M22.8439 29.0219C22.2122 28.9336 21.7367 28.9132 21.3699 28.9472C21.2001 29.2461 21.0575 29.511 20.9692 29.6944C20.582 30.5163 20.6024 31.5556 20.5549 32.4387C20.5413 32.69 20.5481 32.9481 20.6024 33.1995C20.8062 34.1708 21.4446 34.395 22.151 34.4154C22.7827 34.4358 23.3465 34.0078 23.4891 33.3965C23.5774 33.0093 23.6522 32.5202 23.7337 31.9088C24.114 29.6061 23.462 29.1306 22.8439 29.0219Z" fill="#E0E0E2"/>
<path d="M29.1741 28.1313C29.1741 30.9775 27.0684 32.0915 24.4737 32.0915C21.8791 32.0915 19.7734 30.9843 19.7734 28.1313C19.7734 25.2783 21.8791 20.6592 24.4737 20.6592C27.0684 20.6592 29.1741 25.2851 29.1741 28.1313Z" fill="#C8C8CE"/>
<path d="M24.4808 32.3634C21.3223 32.3634 19.5088 30.8215 19.5088 28.1315C19.5088 25.0747 21.7367 20.3877 24.4808 20.3877C27.2249 20.3877 29.4528 25.0747 29.4528 28.1315C29.446 30.8215 27.6392 32.3634 24.4808 32.3634ZM24.4808 20.9311C23.4212 20.9311 22.3004 21.8549 21.3971 23.458C20.582 24.9049 20.059 26.739 20.059 28.1315C20.059 29.5104 20.6363 31.82 24.4876 31.82C28.3388 31.82 28.9162 29.5104 28.9162 28.1315C28.9162 26.7458 28.3864 24.9117 27.5781 23.458C26.6611 21.8549 25.5336 20.9311 24.4808 20.9311Z" fill="#666161"/>
<path d="M28.4886 27.5403C28.1422 24.8232 26.3354 21.2298 24.1143 20.9648C22.9868 21.746 22.097 22.8668 21.6147 24.1507C21.017 25.7198 21.0442 27.5131 21.6623 29.0755C22.2057 30.4476 23.5573 31.2695 25.2079 31.1133C26.0637 31.0318 26.9875 30.5835 27.5784 29.9653C28.1422 29.3744 28.5973 28.403 28.4886 27.5403Z" fill="#E0E0E2"/>
<path d="M36.1777 12.7661C36.9521 18.0577 32.2993 22.0655 25.9688 22.9893C19.6384 23.9131 14.0347 21.3998 13.2671 16.1082C12.4928 10.8166 16.6361 3.3105 22.9666 2.38668C29.2971 1.46286 35.4034 7.4745 36.1777 12.7661Z" fill="#C8C8CE"/>
<path d="M23.4419 23.4514C21.2004 23.4514 19.1152 23.003 17.4103 22.1268C14.9039 20.8429 13.3756 18.7779 12.9953 16.1559C12.6013 13.4591 13.4368 10.2122 15.2232 7.46785C17.1862 4.45863 19.9167 2.56344 22.9257 2.1287C25.9279 1.68716 29.0931 2.72646 31.8305 5.04961C34.33 7.16897 36.0553 10.0423 36.4493 12.7391C36.8296 15.3611 35.9602 17.7793 33.9293 19.7289C32.0274 21.5494 29.2154 22.806 26.0162 23.2747C25.1332 23.3902 24.2774 23.4514 23.4419 23.4514ZM24.2842 2.56344C23.8562 2.56344 23.4283 2.5974 23.0004 2.65854C20.1544 3.0729 17.5529 4.88658 15.6783 7.75994C13.9598 10.3956 13.1583 13.4999 13.5319 16.0744C13.8851 18.5198 15.3115 20.4421 17.6548 21.6445C19.8963 22.7924 22.8306 23.1796 25.9279 22.7245C29.0252 22.2762 31.7286 21.0671 33.5489 19.3213C35.4508 17.5008 36.2659 15.2456 35.9127 12.807C35.5391 10.2393 33.8817 7.48823 31.484 5.45718C29.2494 3.56877 26.7362 2.56344 24.2842 2.56344Z" fill="#666161"/>
<path d="M22.5111 2.85563C20.9625 3.37867 19.5021 4.08513 18.2591 5.13122C16.6018 6.52375 15.4267 8.47329 14.9648 10.5859C14.6524 12.0056 14.6728 13.4932 14.992 14.9061C16.3641 20.9041 23.1292 23.4922 28.631 21.4272C30.7774 20.6188 32.6589 19.172 34.1193 17.3923C34.5676 16.8488 35.0091 16.2375 35.4166 15.5854C35.5389 14.845 35.5457 14.0706 35.4302 13.269C34.6694 8.05213 28.7261 2.15597 22.5111 2.85563Z" fill="#E0E0E2"/>
<path d="M19.1789 18.6012C20.1494 18.5048 20.8771 17.8306 20.8041 17.0951C20.7311 16.3597 19.8851 15.8416 18.9146 15.9379C17.944 16.0342 17.2164 16.7085 17.2894 17.4439C17.3623 18.1794 18.2083 18.6975 19.1789 18.6012Z" fill="#FFA4A8"/>
<path d="M30.651 16.1158C31.6216 16.0195 32.3492 15.3452 32.2762 14.6098C32.2033 13.8743 31.3573 13.3562 30.3867 13.4525C29.4162 13.5489 28.6886 14.2231 28.7615 14.9586C28.8345 15.694 29.6805 16.2121 30.651 16.1158Z" fill="#FFA4A8"/>
<path d="M20.3401 16.5301C20.803 16.4842 21.1284 15.9446 21.0669 15.3249C21.0054 14.7052 20.5803 14.24 20.1174 14.286C19.6545 14.3319 19.3291 14.8715 19.3906 15.4912C19.4521 16.1109 19.8772 16.5761 20.3401 16.5301Z" fill="black"/>
<path d="M28.9392 14.9881C29.4021 14.9422 29.7275 14.4026 29.666 13.7829C29.6045 13.1632 29.1794 12.698 28.7165 12.744C28.2537 12.7899 27.9283 13.3295 27.9898 13.9492C28.0513 14.5689 28.4763 15.0341 28.9392 14.9881Z" fill="black"/>
<path d="M28.6481 14.4141C28.7937 14.3996 28.8887 14.1548 28.8603 13.8673C28.8319 13.5799 28.6909 13.3586 28.5453 13.3731C28.3998 13.3876 28.3047 13.6325 28.3331 13.9199C28.3615 14.2074 28.5025 14.4287 28.6481 14.4141Z" fill="white"/>
<path d="M20.5856 15.8956C20.7312 15.8811 20.8262 15.6362 20.7978 15.3488C20.7694 15.0613 20.6284 14.84 20.4828 14.8546C20.3373 14.8691 20.2422 15.1139 20.2706 15.4014C20.299 15.6888 20.44 15.9101 20.5856 15.8956Z" fill="white"/>
<path d="M32.5569 23.3972C34.3501 21.7397 34.2074 20.6597 33.467 19.8581C32.7267 19.0566 31.6603 18.8392 29.8739 20.5034C28.0807 22.1609 27.2317 24.158 27.972 24.9527C28.7124 25.7611 30.7637 25.0614 32.5569 23.3972Z" fill="#C8C8CE"/>
<path d="M28.8688 25.5569C28.4137 25.5569 28.0333 25.421 27.7752 25.1425C27.3405 24.6738 27.3201 23.8927 27.7276 22.9484C28.1012 22.0722 28.8008 21.1348 29.6906 20.306C30.5736 19.4841 31.348 19.0562 32.0408 18.9882C32.6453 18.9339 33.1955 19.1649 33.6709 19.6743C34.6966 20.7815 34.3909 22.0654 32.7404 23.5938C31.3887 24.8504 29.9216 25.5569 28.8688 25.5569ZM32.2174 19.5249C32.1766 19.5249 32.1291 19.5249 32.0883 19.5317C31.5246 19.586 30.8385 19.98 30.0574 20.7068C29.222 21.4812 28.5699 22.3575 28.2235 23.1658C27.911 23.8927 27.8975 24.4768 28.1691 24.7757C28.4476 25.0746 29.0318 25.1018 29.7789 24.8436C30.6076 24.5583 31.5314 23.9742 32.3668 23.1998C34.1872 21.5084 33.8068 20.6253 33.2634 20.0479C32.9374 19.6947 32.6045 19.5249 32.2174 19.5249Z" fill="#666161"/>
<path d="M31.667 23.1112C30.1523 24.6193 28.3727 25.2985 27.7003 24.6193C27.3811 24.3 27.3675 23.7294 27.6052 23.0637C28.4339 22.167 29.1607 21.4266 29.5342 21.1209C30.0912 20.659 30.7433 20.2243 31.5244 20.4485C31.8233 20.5368 32.0882 20.727 32.2783 20.9715C32.3055 21.0055 32.3327 21.0462 32.3666 21.087C32.618 21.447 32.6248 21.9361 32.3734 22.2961C32.1968 22.5474 31.9659 22.8192 31.667 23.1112Z" fill="#E0E0E2"/>
<path d="M23.9982 16.7539C24.4737 16.5569 25.0103 16.5162 25.5469 16.6792C26.6269 17.0121 27.2585 18.0785 27.3876 19.1518C27.571 20.6802 27.2993 21.964 26.7355 23.3905C26.4299 24.1717 26.0291 24.9189 25.445 25.5303C25.1665 25.8223 24.8541 26.0737 24.5144 26.2911C24.1612 26.5152 23.7333 26.6239 23.4005 26.882C23.1763 27.0518 23.0133 27.3032 22.762 27.4255C22.6126 27.5002 22.4428 27.5206 22.2798 27.4866C22.2526 27.4798 22.2186 27.473 22.1983 27.4526C22.1711 27.4322 22.1507 27.3983 22.1371 27.3711C21.9062 26.9567 22.3409 26.5967 22.1371 26.2163C21.9809 25.9174 21.5054 26.0058 21.3492 25.7137C21.1726 25.4012 21.4918 24.9732 21.8179 24.9597C22.1711 24.9461 22.4971 25.1567 22.8571 25.1838C23.6654 25.245 24.1137 24.3415 24.1952 23.669C24.3039 22.7995 24.0458 21.8825 23.482 21.2032C23.2307 20.9044 22.9318 20.653 22.7145 20.327C22.3069 19.7156 22.273 18.8937 22.5515 18.2144C22.8231 17.5487 23.353 17.0189 23.9982 16.7539Z" fill="#C8C8CE"/>
<path d="M22.4158 27.7716C22.3478 27.7716 22.2799 27.7648 22.212 27.7512C22.1577 27.7376 22.0897 27.724 22.0218 27.6697C21.9471 27.6153 21.9063 27.5406 21.8792 27.4999C21.7094 27.1874 21.7909 26.9021 21.852 26.6915C21.8996 26.5285 21.9267 26.4266 21.8792 26.3451C21.852 26.2907 21.7705 26.2636 21.6347 26.2228C21.4581 26.1685 21.2271 26.087 21.0913 25.856C20.969 25.6386 20.9758 25.3805 21.1116 25.1428C21.2543 24.8846 21.5192 24.708 21.7909 24.7012C22.0354 24.6944 22.2595 24.7624 22.4497 24.8303C22.5924 24.8778 22.7282 24.9186 22.8573 24.9322C23.4686 24.9797 23.8422 24.2121 23.9101 23.6551C24.0052 22.8468 23.7675 22.0045 23.258 21.3999C23.1697 21.2912 23.0678 21.1893 22.966 21.0807C22.7961 20.904 22.6195 20.7206 22.4701 20.4965C22.0286 19.8308 21.9539 18.9205 22.2867 18.1258C22.5924 17.3922 23.1765 16.8012 23.8897 16.5091C24.4535 16.2781 25.0512 16.251 25.6218 16.4208C26.7017 16.7536 27.4964 17.8133 27.6527 19.1243C27.8293 20.5644 27.6255 21.8754 26.9802 23.4989C26.5999 24.4567 26.1719 25.1631 25.6286 25.7269C25.3433 26.0258 25.0104 26.2975 24.6437 26.5285C24.4671 26.6372 24.2837 26.7187 24.1071 26.8002C23.9033 26.8953 23.7063 26.9836 23.5433 27.1059C23.4686 27.1602 23.4007 27.2282 23.3259 27.3029C23.1969 27.4319 23.0475 27.5814 22.8573 27.6765C22.7282 27.7308 22.572 27.7716 22.4158 27.7716ZM22.3546 27.2214C22.4497 27.235 22.5516 27.2214 22.6331 27.1738C22.7486 27.1195 22.8505 27.0176 22.9592 26.9089C23.0407 26.8274 23.129 26.7391 23.2309 26.6644C23.4414 26.5013 23.6724 26.3994 23.9033 26.2975C24.0731 26.2228 24.2293 26.1481 24.372 26.0598C24.698 25.8492 24.9969 25.6115 25.255 25.3398C25.744 24.8303 26.138 24.1782 26.4912 23.2883C27.0957 21.7531 27.2859 20.5236 27.1297 19.1787C26.9666 17.8473 26.138 17.134 25.4791 16.9302C25.0308 16.7944 24.5554 16.8148 24.1139 16.9982C23.5365 17.2359 23.061 17.7182 22.8097 18.3228C22.5516 18.9409 22.606 19.6678 22.9456 20.184C23.0678 20.3606 23.2173 20.5236 23.3803 20.6867C23.489 20.7954 23.5976 20.9108 23.6995 21.0331C24.2973 21.7531 24.5893 22.7517 24.4739 23.7027C24.3652 24.5993 23.7607 25.5232 22.8437 25.4552C22.6535 25.4416 22.4769 25.3873 22.3071 25.333C22.1373 25.2786 21.9811 25.2243 21.8384 25.2311C21.7637 25.2311 21.6618 25.3058 21.6143 25.3941C21.5939 25.4349 21.5599 25.5096 21.5939 25.5775C21.6211 25.6251 21.723 25.659 21.8316 25.693C22.0082 25.7541 22.2595 25.8288 22.3886 26.0802C22.538 26.3587 22.4633 26.6168 22.4022 26.8274C22.3275 27.0176 22.3071 27.1195 22.3546 27.2214Z" fill="#666161"/>
<path d="M24.3857 26.2571C24.6914 26.0669 24.9766 25.8427 25.2347 25.5778C25.7713 25.0344 26.1449 24.3551 26.437 23.6418C26.9736 22.3444 27.2521 21.1692 27.123 19.7563C27.0959 19.4371 27.0143 19.111 26.8921 18.8121C26.763 18.6559 26.6136 18.5133 26.4506 18.4046C25.9615 18.0853 25.2755 18.0921 24.7525 18.3027C24.2159 18.52 23.7133 18.9887 23.625 19.5865C23.5163 20.2862 23.8899 20.9383 24.1616 21.5496C24.4265 22.1406 24.6302 22.7859 24.6302 23.438C24.6234 24.0969 24.3857 24.7694 23.8899 25.1838C23.5638 25.4623 22.7963 25.5166 22.382 25.4555C22.2189 25.4351 22.1171 25.6321 22.2257 25.7612C22.4091 25.9854 22.6469 26.2503 22.5654 26.5152C22.4295 26.9431 22.5925 27.1945 22.9933 27.113C23.1223 27.0043 23.2378 26.8684 23.3804 26.7597C23.6793 26.5492 24.0665 26.4541 24.3857 26.2571Z" fill="#E0E0E2"/>
<path d="M25.3848 19.4567C25.181 19.579 24.9976 19.7352 24.855 19.9118C25.052 19.7964 25.2625 19.7284 25.4731 19.6877C25.6836 19.6469 25.901 19.6401 26.1116 19.6537C26.4784 19.6741 26.8316 19.7488 27.2051 19.8371C27.1983 19.7624 27.1983 19.6877 27.1848 19.613C27.1644 19.3888 27.1168 19.1646 27.0489 18.9473C26.7161 18.9948 26.3697 19.056 26.0368 19.1646C25.8127 19.2394 25.5886 19.3345 25.3848 19.4567Z" fill="#A8A8AD"/>
<path d="M26.2743 20.9108C26.0366 20.938 25.7989 20.9923 25.5747 21.0738C25.3506 21.1553 25.14 21.2708 24.9702 21.4134C25.1876 21.3387 25.4049 21.3116 25.6223 21.3183C25.8396 21.3183 26.0502 21.3523 26.254 21.4067C26.5392 21.4814 26.8109 21.5901 27.0894 21.7123C27.1438 21.4406 27.1845 21.1689 27.2049 20.8904C26.8924 20.8768 26.58 20.87 26.2743 20.9108Z" fill="#A8A8AD"/>
<path d="M26.3222 22.8059C26.0776 22.7855 25.8399 22.7855 25.6022 22.8195C25.3644 22.8534 25.1403 22.9214 24.9365 23.0233C25.1607 22.9961 25.3848 23.0165 25.5954 23.064C25.8059 23.1116 26.0029 23.1863 26.1931 23.2814C26.3086 23.3357 26.4173 23.4037 26.5191 23.4648C26.6007 23.261 26.6822 23.064 26.7501 22.867C26.6142 22.8399 26.4648 22.8195 26.3222 22.8059Z" fill="#A8A8AD"/>
<path d="M24.7051 24.2933C24.9292 24.3476 25.1262 24.4359 25.3096 24.5514C25.4726 24.6533 25.622 24.7824 25.7579 24.9114C25.8462 24.7824 25.9277 24.6533 26.0092 24.5174C25.8122 24.4291 25.6085 24.3612 25.3979 24.3205C25.167 24.2729 24.9292 24.2593 24.7051 24.2933Z" fill="#A8A8AD"/>
<path d="M24.0332 25.1963C24.2166 25.3254 24.3728 25.4884 24.5019 25.6582C24.5834 25.7669 24.6513 25.8824 24.7056 25.9978C24.8143 25.9163 24.9162 25.8348 25.0181 25.7465C24.9094 25.6446 24.7939 25.5563 24.6717 25.4748C24.4679 25.3457 24.2506 25.2506 24.0332 25.1963Z" fill="#A8A8AD"/>
<path d="M23.3672 25.9102C23.5166 26.08 23.6253 26.2702 23.7068 26.474C23.7136 26.4943 23.7204 26.5215 23.734 26.5419C23.8223 26.5079 23.9106 26.4672 23.9989 26.4332C23.9717 26.3992 23.9445 26.3721 23.9174 26.3449C23.7544 26.1683 23.5642 26.0188 23.3672 25.9102Z" fill="#A8A8AD"/>
<path d="M34.2795 53.379C33.9059 53.379 33.5935 53.311 33.3354 53.1616C32.9754 52.951 32.7512 52.5638 32.7512 52.1563C32.7512 51.7827 32.9414 51.4566 33.2675 51.2664C33.5052 51.1306 33.7497 51.1102 33.9195 51.1102C34.0214 51.1102 34.1233 51.117 34.232 51.1238C34.3271 51.1306 34.4222 51.1373 34.5173 51.1373C34.6599 51.1373 34.7686 51.117 34.8569 51.0898C35.3052 50.9336 35.6108 50.5124 35.5972 50.0641C35.5769 49.1131 34.8365 49.0112 34.5173 49.018C34.035 49.0248 33.5324 49.2354 33.2063 49.575C32.9686 49.8195 32.7988 50.1184 32.6222 50.4309C32.4252 50.7773 32.2146 51.1373 31.909 51.4362C31.3928 51.9457 30.7747 52.3465 30.1158 52.5978C29.6811 52.7676 29.2328 52.8491 28.7913 52.8559C27.8472 52.8627 27.0049 52.5027 26.3393 51.8098C26.1219 51.5789 25.5581 50.7569 25.7619 50.2679C25.8163 50.1456 25.9589 49.9418 26.3461 49.935C26.3936 49.935 26.4547 49.935 26.5091 49.9418C26.8826 49.9826 27.1679 50.3018 27.4396 50.6007C27.6502 50.8317 27.8675 51.0762 28.0985 51.1577C28.2751 51.2189 28.4585 51.2528 28.6555 51.2528C29.586 51.246 30.5301 50.4649 31.0124 49.7448C31.0939 49.6225 31.1754 49.5003 31.2501 49.3848C31.9226 48.3523 32.5611 47.3741 34.0757 47.1228C34.2456 47.0956 34.4086 47.082 34.5784 47.0752C35.835 47.0684 36.9421 47.8224 37.404 48.9976C38.0357 50.6075 37.241 52.4076 35.5972 53.0937C35.1761 53.2703 34.6939 53.3722 34.2795 53.379Z" fill="#F38032"/>
<path d="M34.2592 53.7185C33.8381 53.7185 33.4713 53.6302 33.1656 53.4536C32.7038 53.1819 32.4117 52.686 32.4117 52.1561C32.4117 51.6603 32.663 51.2255 33.0909 50.9742C33.3966 50.7976 33.709 50.7704 33.9128 50.7704C34.0215 50.7704 34.1302 50.7772 34.2456 50.784H34.266C34.3543 50.7908 34.4358 50.7908 34.5105 50.7908C34.6124 50.7908 34.6871 50.7772 34.7415 50.7568C35.0539 50.6481 35.2645 50.356 35.2577 50.0572C35.2577 49.8805 35.2441 49.3439 34.5309 49.3439C34.5241 49.3439 34.5241 49.3439 34.5173 49.3439C34.1302 49.3439 33.709 49.5273 33.4509 49.7922C33.2471 50.0096 33.0841 50.2881 32.9143 50.5802C32.7038 50.947 32.4864 51.3274 32.1468 51.6603C31.5966 52.2037 30.9377 52.6316 30.2381 52.8966C29.7627 53.08 29.2736 53.1751 28.7982 53.1751C28.7846 53.1751 28.7778 53.1751 28.7642 53.1751C27.7386 53.1751 26.8216 52.7743 26.1016 52.0203C25.891 51.7961 25.1575 50.8247 25.4631 50.1115C25.531 49.9485 25.7552 49.5817 26.3597 49.5749C26.4276 49.5749 26.4956 49.5749 26.5635 49.5885C27.0661 49.6428 27.4057 50.0232 27.7114 50.3628C27.888 50.553 28.085 50.7772 28.2276 50.8247C28.3634 50.8723 28.5129 50.8995 28.6623 50.8995C29.4366 50.8927 30.2925 50.2134 30.734 49.5477C30.8155 49.4254 30.8902 49.31 30.9649 49.1945C31.6509 48.1416 32.3573 47.0547 34.0215 46.7762C34.2049 46.7423 34.3951 46.7287 34.5784 46.7287C35.9777 46.7151 37.2139 47.5574 37.7233 48.8684C38.4229 50.6481 37.5467 52.6384 35.7331 53.406C35.2645 53.603 34.7347 53.7185 34.2796 53.7185C34.2728 53.7185 34.266 53.7185 34.2592 53.7185ZM33.94 51.4429C33.9332 51.4429 33.9264 51.4429 33.9196 51.4429C33.7769 51.4429 33.6003 51.4565 33.4373 51.5516C33.2132 51.6806 33.0909 51.8912 33.0909 52.1493C33.0909 52.4414 33.2539 52.7132 33.5053 52.8626C33.7022 52.9781 33.9535 53.0392 34.2592 53.0392C34.266 53.0392 34.2728 53.0392 34.2796 53.0392C34.6532 53.0392 35.0879 52.9441 35.475 52.7811C36.9422 52.1629 37.6554 50.553 37.0984 49.1197C36.6909 48.0804 35.7196 47.4148 34.6124 47.4148C34.6056 47.4148 34.5988 47.4148 34.592 47.4148C34.4426 47.4148 34.2932 47.4283 34.1437 47.4555C32.7785 47.6865 32.2079 48.5627 31.5491 49.5681C31.4675 49.6903 31.3928 49.8126 31.3113 49.9349C30.5506 51.0693 29.4434 51.5855 28.6759 51.5923C28.445 51.5923 28.2208 51.5584 28.0035 51.4769C27.691 51.3682 27.4465 51.0897 27.2087 50.8247C26.9778 50.5666 26.7401 50.3017 26.4888 50.2745C26.4412 50.2677 26.4005 50.2677 26.3665 50.2677C26.2171 50.2677 26.1288 50.3085 26.0948 50.39C25.9861 50.6549 26.3597 51.307 26.6042 51.5652C27.202 52.1901 27.9627 52.5094 28.8049 52.5094C29.2057 52.5094 29.6132 52.4279 30.014 52.2716C30.6253 52.0407 31.2026 51.6603 31.6849 51.1848C31.9566 50.9131 32.1536 50.5802 32.3438 50.2474C32.5339 49.9145 32.7173 49.602 32.9755 49.3235C33.3626 48.9228 33.9535 48.6646 34.5241 48.6646C35.2033 48.6578 35.9301 49.0179 35.9505 50.0436C35.9641 50.6345 35.5633 51.1848 34.9792 51.3953C34.8501 51.4429 34.7075 51.4633 34.5241 51.4633C34.4222 51.4633 34.3271 51.4565 34.2388 51.4565H34.2184C34.1098 51.4497 34.0215 51.4429 33.94 51.4429Z" fill="#54360E"/>
<path d="M37.6012 50.8521C37.7099 50.2951 37.6624 49.7041 37.445 49.1403C36.9831 47.9584 35.876 47.2044 34.6194 47.218C34.4496 47.218 34.2866 47.2315 34.1168 47.2655C32.6021 47.5236 31.9636 48.495 31.2912 49.5275C31.2164 49.643 31.1349 49.7653 31.0534 49.8875C30.5712 50.6076 29.6338 51.3887 28.6965 51.3955C28.5063 51.3955 28.3161 51.3684 28.1395 51.3004C27.9086 51.2189 27.6912 50.9744 27.4807 50.7434C27.209 50.4378 26.9237 50.1253 26.5501 50.0845C26.489 50.0777 26.4346 50.0777 26.3871 50.0777C26.2512 50.0777 25.8709 50.1049 25.8912 50.4106C25.7214 50.8046 26.3327 51.3344 26.5433 51.5586C27.4874 52.5435 28.812 52.7745 30.0685 52.2922C30.7002 52.0476 31.2979 51.6605 31.7802 51.1782C32.3304 50.6347 32.5477 49.8739 33.0707 49.3237C33.5258 48.8482 34.2798 48.5833 34.9251 48.7395C35.7469 48.9365 36.0933 49.8468 35.6247 50.5396C35.5092 50.7095 35.3869 50.8861 35.2307 51.0287C34.9658 51.2665 34.667 51.2936 34.3273 51.2733C34.1507 51.2936 33.9673 51.2801 33.7839 51.2665C33.6345 51.2801 33.4647 51.314 33.2949 51.4159C32.833 51.6808 32.7923 52.3397 33.1862 52.8356C33.6277 53.3858 34.8639 53.3451 35.5364 53.0598C36.4669 52.6658 37.248 51.8031 37.6012 50.8521Z" fill="#E58341"/>
<path d="M37.6549 50.7295C37.6005 50.682 37.553 50.6412 37.4987 50.6005C37.4783 50.5869 37.4579 50.5665 37.4375 50.5529C37.0368 50.2676 36.344 50.0027 35.6919 49.9688C35.6919 49.9823 35.6919 49.9959 35.6919 50.0095C35.6987 50.3152 35.5493 50.6141 35.3115 50.8179C35.95 51.1371 36.4798 51.6873 36.7515 52.353C37.2202 51.8979 37.5258 51.3341 37.6549 50.7295Z" fill="#423F3F"/>
<path d="M35.9097 47.6319C35.509 47.9036 35.0403 48.4402 34.7754 49.0244C35.0471 49.0719 35.3799 49.2146 35.5225 49.6222C36.032 49.1874 36.6976 48.9157 37.3633 48.8885C37.1052 48.284 36.6705 47.8017 36.1407 47.4824C36.0795 47.5164 36.0252 47.5504 35.9641 47.5843C35.9505 47.6047 35.9301 47.6183 35.9097 47.6319Z" fill="#423F3F"/>
<path d="M34.232 49.0316C34.0554 48.393 34.0893 47.6934 34.3474 47.082C34.2591 47.0888 34.1708 47.1024 34.0825 47.116C33.444 47.2247 32.9618 47.4624 32.561 47.7749C32.5678 47.8089 32.5678 47.8428 32.5746 47.8768C32.5814 47.904 32.5814 47.9243 32.5882 47.9515C32.6697 48.393 32.9414 48.9908 33.3218 49.4527C33.5731 49.2354 33.8923 49.0859 34.232 49.0316Z" fill="#423F3F"/>
<path d="M31.257 49.3775C31.1823 49.493 31.1008 49.6153 31.0193 49.7375C30.9242 49.8802 30.8087 50.0296 30.6797 50.1723C30.8155 50.3285 30.9582 50.4779 31.1212 50.607C31.2842 50.7361 31.4676 50.8583 31.6782 50.9602C31.8276 51.035 31.9838 51.1029 32.14 51.164C32.3302 50.9263 32.4797 50.6681 32.6223 50.4168C32.6698 50.3285 32.7242 50.247 32.7717 50.1655C32.2487 49.9074 31.8004 49.4998 31.5084 49.0039C31.4201 49.1194 31.3385 49.2484 31.257 49.3775Z" fill="#423F3F"/>
<path d="M30.0481 50.7295C29.6609 51.008 29.2262 51.205 28.7847 51.239C28.8866 51.4767 29.0088 51.7077 29.1718 51.925C29.2941 52.0948 29.4435 52.2511 29.6201 52.4073C29.7152 52.4888 29.8171 52.5703 29.919 52.6519C29.9869 52.6315 30.0481 52.6111 30.116 52.5839C30.4556 52.4549 30.7816 52.285 31.0941 52.0745C30.6322 51.7348 30.2586 51.2593 30.0481 50.7295Z" fill="#423F3F"/>
<path d="M32.8742 46.5105C30.9587 47.4072 30.1368 46.9452 29.7429 46.0893C29.3421 45.2334 29.5187 44.3096 31.4342 43.413C33.3496 42.5163 35.2243 42.4824 35.6251 43.3383C36.019 44.2009 34.7896 45.6206 32.8742 46.5105Z" fill="#F38032"/>
<path d="M31.1217 47.3329C30.3406 47.3329 29.7768 46.966 29.4372 46.2324C28.8599 45.0029 29.4848 43.95 31.2915 43.1077C32.2628 42.6526 33.2545 42.3945 34.0968 42.3809C35.0273 42.3605 35.6862 42.6526 35.9375 43.196C36.4333 44.2557 35.1836 45.8113 33.0304 46.8166C32.29 47.163 31.6515 47.3329 31.1217 47.3329ZM34.1647 43.067C34.1443 43.067 34.124 43.067 34.1036 43.067C33.3564 43.0805 32.4598 43.3115 31.5768 43.7259C29.4712 44.7108 29.8787 45.5803 30.0553 45.9471C30.2319 46.3139 30.6327 47.1834 32.7383 46.2052C33.6213 45.7909 34.3753 45.2542 34.8643 44.6904C35.2787 44.2149 35.4485 43.7666 35.3194 43.4881C35.1904 43.2232 34.7624 43.067 34.1647 43.067Z" fill="#54360E"/>
<path d="M32.5957 46.2943C34.5112 45.3977 35.7406 43.978 35.3398 43.1289C35.1497 42.7213 34.6267 42.5175 33.927 42.5107C32.8131 42.9794 31.8825 43.3938 31.4682 43.6384C30.8501 43.9984 30.2252 44.4535 30.1709 45.255C30.1505 45.5607 30.2388 45.8664 30.4018 46.1313C30.4222 46.1721 30.4493 46.206 30.4765 46.2536C30.7278 46.6136 31.1761 46.7834 31.5973 46.668C31.8893 46.5932 32.2222 46.471 32.5957 46.2943Z" fill="#F48F4B"/>
<path d="M39.0075 49.7579C41.6158 49.2009 41.7109 50.0771 41.8875 51.4493C42.3765 55.3076 42.6482 55.7967 40.4271 55.8035C38.6951 55.8103 38.437 55.4774 38.077 52.7671C37.683 50.3692 38.3622 49.8734 39.0075 49.7579Z" fill="#F38032"/>
<path d="M40.3456 56.1435C39.6052 56.1435 38.9056 56.0823 38.4641 55.5117C38.0905 55.0226 37.9275 54.2211 37.7441 52.815C37.4045 50.7432 37.7916 49.6359 38.9395 49.4254C40.2029 49.1604 40.984 49.1944 41.4799 49.5476C42.0301 49.9416 42.1184 50.6073 42.2135 51.3817V51.4021C42.2542 51.7281 42.295 52.027 42.3289 52.3123C42.587 54.2483 42.7025 55.1245 42.2338 55.6612C41.8874 56.0551 41.3033 56.1367 40.4135 56.1435C40.3999 56.1435 40.3727 56.1435 40.3456 56.1435ZM40.332 49.9348C39.9991 49.9348 39.5848 49.9892 39.0754 50.0978H39.0618C38.7765 50.1522 38.009 50.2813 38.4097 52.7131V52.7267C38.7561 55.3759 38.9531 55.4778 40.4203 55.471C41.0791 55.4642 41.5546 55.4234 41.7312 55.2196C41.9961 54.914 41.867 53.9698 41.6633 52.4074C41.6293 52.1289 41.5886 51.8232 41.541 51.4972V51.4768C41.4595 50.8383 41.3916 50.3288 41.0859 50.1114C40.9297 49.9892 40.6784 49.9348 40.332 49.9348Z" fill="#54360E"/>
<path d="M39.007 49.7587C39.6659 49.6636 40.1617 49.6432 40.5421 49.684C40.7187 49.9964 40.8681 50.2681 40.9632 50.4651C41.364 51.321 41.3504 52.4011 41.3979 53.3249C41.4115 53.5898 41.4047 53.8548 41.3504 54.1197C41.133 55.1318 40.4742 55.3628 39.7338 55.3899C39.075 55.4103 38.4908 54.9688 38.3346 54.3235C38.2395 53.9227 38.1648 53.4132 38.0765 52.7747C37.6825 50.37 38.3618 49.8742 39.007 49.7587Z" fill="#EFAA7B"/>
<path d="M35.5984 49.7579C32.9901 49.2009 32.895 50.0771 32.7184 51.4493C32.2293 55.3076 31.9577 55.7967 34.1788 55.8035C35.9108 55.8103 36.1689 55.4774 36.5289 52.7671C36.9229 50.3692 36.2436 49.8734 35.5984 49.7579Z" fill="#F38032"/>
<path d="M34.26 56.1434C34.2329 56.1434 34.2057 56.1434 34.1785 56.1434C33.2887 56.1366 32.7046 56.055 32.3582 55.6611C31.8895 55.1244 32.0118 54.2414 32.2631 52.3122C32.297 52.0337 32.3378 51.728 32.3785 51.402V51.3816C32.4804 50.6072 32.5619 49.9415 33.1121 49.5475C33.608 49.1943 34.3959 49.1535 35.6525 49.4253C36.8004 49.629 37.1943 50.7431 36.8479 52.8149C36.6645 54.221 36.5015 55.0225 36.1279 55.5116C35.7 56.0822 35.0004 56.1434 34.26 56.1434ZM34.2736 49.9347C33.9272 49.9347 33.6759 49.9959 33.5129 50.1113C33.2072 50.3287 33.1393 50.8382 33.0578 51.4767V51.4971C33.017 51.8231 32.9763 52.1288 32.9355 52.4073C32.725 53.9764 32.6027 54.9206 32.8676 55.2195C33.0442 55.4233 33.5197 55.4641 34.1785 55.4709C35.6389 55.4777 35.8426 55.3758 36.189 52.7266V52.713C36.5898 50.2811 35.8291 50.1453 35.537 50.0977H35.5234C35.0208 49.9823 34.5996 49.9347 34.2736 49.9347Z" fill="#54360E"/>
<path d="M35.5976 49.7587C34.9388 49.6636 34.4429 49.6432 34.0625 49.684C33.8859 49.9964 33.7365 50.2681 33.6414 50.4651C33.2407 51.321 33.2543 52.4011 33.2067 53.3249C33.1931 53.5898 33.1999 53.8548 33.2543 54.1197C33.4716 55.1318 34.1305 55.3628 34.8708 55.3899C35.5297 55.4103 36.1138 54.9688 36.2701 54.3235C36.3651 53.9227 36.4399 53.4132 36.5282 52.7747C36.9221 50.37 36.2429 49.8742 35.5976 49.7587Z" fill="#EFAA7B"/>
<path d="M42.1998 48.8275C42.1998 51.796 40.0059 52.9508 37.3026 52.9508C34.5992 52.9508 32.4053 51.796 32.4053 48.8275C32.4053 45.8591 34.5992 41.043 37.3026 41.043C40.0059 41.043 42.1998 45.8659 42.1998 48.8275Z" fill="#F38032"/>
<path d="M37.3028 53.297C33.9746 53.297 32.0659 51.6667 32.0659 48.8341C32.0659 47.265 32.6297 45.2815 33.5466 43.658C34.6198 41.756 35.9511 40.7031 37.3028 40.7031C38.6545 40.7031 39.9926 41.7492 41.059 43.658C41.9692 45.2815 42.5397 47.2582 42.5397 48.8341C42.5397 51.6667 40.6311 53.297 37.3028 53.297ZM37.3028 41.3824C36.2228 41.3824 35.0681 42.3334 34.1376 43.9908C33.2953 45.4921 32.7452 47.3941 32.7452 48.8273C32.7452 52.1219 35.5979 52.6109 37.3028 52.6109C39.0077 52.6109 41.8605 52.1219 41.8605 48.8273C41.8605 47.3873 41.3171 45.4921 40.468 43.9908C39.5375 42.3334 38.3828 41.3824 37.3028 41.3824Z" fill="#54360E"/>
<path d="M37.3026 41.043C37.1667 41.043 37.0377 41.0566 36.9086 41.0769C36.2769 41.1856 35.7267 41.5796 35.3532 42.1026C34.1645 43.7737 33.397 46.1783 33.397 47.9309C33.397 50.8994 35.5909 52.0541 38.2943 52.0541C38.7086 52.0541 39.1161 52.027 39.5033 51.9658C41.0384 51.7349 42.1931 50.4103 42.1998 48.8547C42.1998 48.8411 42.1998 48.8343 42.1998 48.8207C42.1998 45.8659 40.0059 41.043 37.3026 41.043Z" fill="#EFAA7B"/>
<path d="M37.3028 51.4425C38.9796 51.4425 40.339 49.861 40.339 47.9102C40.339 45.9594 38.9796 44.3779 37.3028 44.3779C35.6259 44.3779 34.2666 45.9594 34.2666 47.9102C34.2666 49.861 35.6259 51.4425 37.3028 51.4425Z" fill="#E8D4C4"/>
<path d="M31.414 45.9477C31.4208 45.7983 31.4819 45.6488 31.5838 45.6081C31.7536 45.5401 31.8894 45.8186 31.9573 46.0496C32.0049 46.2126 32.0456 46.3688 32.0864 46.5319C31.8758 46.6406 31.6925 46.6949 31.5294 46.7085C31.5091 46.5998 31.4955 46.4911 31.4683 46.3892C31.4411 46.2398 31.4072 46.0903 31.414 45.9477Z" fill="#423F3F"/>
<path d="M31.2715 43.7666C31.3869 43.9704 31.4956 44.1742 31.5975 44.3847C31.6994 44.5953 31.7741 44.901 31.5907 45.0301C31.482 45.1048 31.3326 45.0708 31.2307 44.9893C31.1288 44.9078 31.0541 44.7787 30.9862 44.6633C30.8843 44.4934 30.7756 44.3236 30.6602 44.1606C30.7281 44.113 30.796 44.0587 30.8707 44.0111C31.0066 43.916 31.1424 43.8413 31.2715 43.7666Z" fill="#423F3F"/>
<path d="M33.6215 47.7001C33.8049 47.6797 33.9951 47.5642 34.0427 47.3808C34.1174 47.0751 33.7642 46.8442 33.4653 46.7355C33.3295 46.6879 33.2004 46.6472 33.0646 46.5996C32.9763 46.9257 32.9083 47.2517 32.854 47.571C32.9219 47.5914 32.9966 47.6049 33.0714 47.6185C33.248 47.6661 33.4381 47.7204 33.6215 47.7001Z" fill="#423F3F"/>
<path d="M33.4311 49.1197C33.6145 49.0721 33.7843 48.9295 33.7979 48.7393C33.825 48.4268 33.4379 48.2502 33.1322 48.1891C33.0235 48.1687 32.8877 48.1483 32.779 48.1279C32.7518 48.3453 32.7586 48.5559 32.7518 48.7529C32.745 48.8751 32.7518 48.9906 32.7586 49.1061C32.7994 49.1129 32.8401 49.1129 32.8741 49.1197C33.0575 49.1401 33.2477 49.1672 33.4311 49.1197Z" fill="#423F3F"/>
<path d="M33.8859 50.5599C34.0489 50.4648 34.1712 50.2814 34.1372 50.098C34.0761 49.7855 33.6617 49.7244 33.3493 49.7448C33.1795 49.7583 33.0097 49.7719 32.8398 49.7923C32.9078 50.1455 33.0164 50.458 33.1591 50.7433C33.2202 50.7297 33.2881 50.7229 33.3493 50.7093C33.5327 50.6822 33.7229 50.655 33.8859 50.5599Z" fill="#423F3F"/>
<path d="M40.9027 47.3808C40.9435 47.5642 41.1337 47.6797 41.3238 47.7001C41.5072 47.7204 41.6974 47.6661 41.874 47.6185C41.9419 47.5982 42.0167 47.5846 42.0914 47.571C42.037 47.2517 41.9691 46.9325 41.8808 46.5996C41.745 46.6472 41.6159 46.6879 41.4801 46.7355C41.1812 46.8442 40.828 47.0683 40.9027 47.3808Z" fill="#423F3F"/>
<path d="M42.1657 48.2031C42.057 48.2167 41.9415 48.2303 41.8328 48.2507C41.5204 48.305 41.1332 48.468 41.1536 48.7805C41.1604 48.9707 41.3302 49.1134 41.5068 49.1677C41.6834 49.222 41.8804 49.2017 42.0638 49.1881C42.1045 49.1881 42.1453 49.1813 42.1793 49.1813C42.186 49.0658 42.1928 48.9503 42.1928 48.8281C42.1996 48.6311 42.186 48.4205 42.1657 48.2031Z" fill="#423F3F"/>
<path d="M40.6645 50.0093C40.5966 50.1859 40.6849 50.3897 40.8208 50.5119C40.9634 50.6342 41.1468 50.6953 41.3166 50.7633C41.3777 50.7836 41.4389 50.8108 41.4932 50.8312C41.6902 50.5799 41.8532 50.2878 41.989 49.9549C41.826 49.9074 41.663 49.853 41.5 49.8123C41.1943 49.7308 40.78 49.7172 40.6645 50.0093Z" fill="#423F3F"/>
<path d="M28.7892 28.7795C29.6768 27.3172 29.2136 25.4137 27.7546 24.528C26.2956 23.6422 24.3933 24.1096 23.5056 25.572C22.618 27.0343 23.0812 28.9378 24.5402 29.8235C25.9992 30.7092 27.9016 30.2418 28.7892 28.7795Z" fill="#F38032"/>
<path d="M26.1431 30.609C25.5386 30.609 24.9205 30.4459 24.3703 30.1131C23.5892 29.6376 23.039 28.8836 22.8216 27.9937C22.6043 27.1039 22.7469 26.1801 23.2292 25.3989C23.7047 24.6177 24.4586 24.0607 25.3484 23.8433C26.2382 23.626 27.162 23.7686 27.9431 24.2441C29.5597 25.2291 30.0759 27.3416 29.091 28.9651C28.4389 30.018 27.3046 30.609 26.1431 30.609ZM26.1635 24.4207C25.9461 24.4207 25.722 24.4479 25.5046 24.5022C24.7914 24.6788 24.1869 25.1204 23.7997 25.7453C23.4194 26.3771 23.3039 27.1175 23.4737 27.8307C23.6503 28.544 24.085 29.1485 24.7167 29.5289C26.0141 30.3169 27.7121 29.9025 28.5001 28.6051C29.288 27.3077 28.8804 25.6095 27.5831 24.8215C27.1484 24.5566 26.6593 24.4207 26.1635 24.4207Z" fill="#54360E"/>
<path d="M28.792 28.7817C29.0093 28.4216 29.152 28.0277 29.2063 27.6337C29.1995 26.6895 28.6969 25.7589 27.8071 25.2154C26.4622 24.3935 24.737 24.7739 23.9558 26.0577C23.1747 27.3416 23.6366 29.0466 24.9815 29.8617C25.3415 30.0791 25.7354 30.2149 26.1226 30.2693C27.1754 30.2761 28.2079 29.7462 28.792 28.7817Z" fill="#E58341"/>
<path d="M28.558 29.016C29.2213 27.9266 28.8784 26.5073 27.7923 25.846C26.7061 25.1847 25.2879 25.5317 24.6247 26.6212C23.9615 27.7106 24.3043 29.1299 25.3905 29.7912C26.4766 30.4525 27.8948 30.1055 28.558 29.016Z" fill="#E8D4C4"/>
<path d="M46.9972 26.7942C48.1696 25.5536 48.1122 23.5952 46.869 22.4202C45.6257 21.2451 43.6674 21.2982 42.4949 22.5388C41.3225 23.7794 41.3799 25.7378 42.6232 26.9128C43.8665 28.0879 45.8248 28.0348 46.9972 26.7942Z" fill="#F38032"/>
<path d="M44.7473 28.1025C43.8642 28.1025 43.0356 27.7696 42.3903 27.1651C41.0115 25.8676 40.9503 23.6871 42.2477 22.3082C42.8794 21.6425 43.7284 21.2621 44.6454 21.2349C45.5623 21.2078 46.4318 21.5406 47.1042 22.1724C48.483 23.4698 48.5442 25.6503 47.2468 27.0292C46.6151 27.6949 45.7661 28.0753 44.8491 28.1025C44.8152 28.1025 44.7812 28.1025 44.7473 28.1025ZM44.7473 21.9142C44.7201 21.9142 44.6929 21.9142 44.6657 21.9142C43.9322 21.9346 43.2461 22.2403 42.7435 22.7769C41.7043 23.8773 41.7518 25.6299 42.859 26.6692C43.3956 27.1719 44.0952 27.4436 44.8288 27.4232C45.5623 27.4028 46.2484 27.0971 46.751 26.5605C47.7902 25.4601 47.7427 23.7075 46.6355 22.6682C46.1193 22.1791 45.4537 21.9142 44.7473 21.9142Z" fill="#54360E"/>
<path d="M42.628 26.9211C42.3223 26.629 42.0846 26.2894 41.9216 25.9294C41.6771 25.0191 41.9148 23.9866 42.6348 23.2258C43.7148 22.0778 45.4808 21.9827 46.5744 23.0152C47.6679 24.0477 47.6747 25.8139 46.5947 26.9551C46.3027 27.2608 45.963 27.4917 45.6031 27.6479C44.5842 27.9264 43.4499 27.6955 42.628 26.9211Z" fill="#E58341"/>
<path d="M46.1717 26.9893C47.0441 26.064 46.999 24.6045 46.0709 23.7295C45.1429 22.8544 43.6834 22.8953 42.811 23.8206C41.9387 24.7459 41.9837 26.2054 42.9118 27.0804C43.8398 27.9555 45.2993 27.9147 46.1717 26.9893Z" fill="#E8D4C4"/>
<path d="M48.5851 33.0341C49.3322 38.5567 44.435 42.6799 37.826 43.5698C31.2239 44.4596 25.4096 41.7833 24.6625 36.2539C23.9153 30.7314 28.3235 22.9536 34.9257 22.0637C41.5278 21.1739 47.8379 27.5048 48.5851 33.0341Z" fill="#F38032"/>
<path d="M35.3804 44.0797C32.9555 44.0797 30.714 43.5839 28.8937 42.6193C26.2786 41.2403 24.7028 39.0598 24.3292 36.302C23.9488 33.4761 24.859 30.0865 26.7609 27.2335C27.7322 25.7867 28.9344 24.53 30.2385 23.6062C31.6853 22.5805 33.2476 21.9487 34.8845 21.7314C36.5215 21.514 38.1924 21.7042 39.8633 22.3087C41.3916 22.859 42.8451 23.7284 44.1765 24.89C46.7643 27.1316 48.5371 30.1612 48.9175 32.9871C49.2911 35.7449 48.3469 38.2719 46.1938 40.2893C44.1832 42.1709 41.2286 43.4548 37.8731 43.9099C37.0309 44.0254 36.1954 44.0797 35.3804 44.0797ZM36.2022 22.3223C35.7947 22.3223 35.3804 22.3495 34.9728 22.4038C32.0181 22.8046 29.3012 24.6523 27.3246 27.6139C25.5111 30.3311 24.6417 33.5441 25.0016 36.2136C25.3413 38.7474 26.7948 40.7513 29.2061 42.0215C31.5155 43.2374 34.5653 43.6722 37.7781 43.2374C40.9976 42.8027 43.8165 41.58 45.7251 39.7935C47.7153 37.9322 48.5847 35.6091 48.2451 33.0822C47.8851 30.4126 46.2006 27.546 43.7282 25.4063C41.412 23.3888 38.7765 22.3223 36.2022 22.3223Z" fill="#54360E"/>
<path d="M35.3057 22.8656C33.6891 23.3955 32.1609 24.1155 30.8499 25.1888C29.1111 26.6221 27.8613 28.6395 27.3587 30.8336C27.019 32.3076 25.9051 34.5085 26.2243 35.9894C27.5828 42.2523 34.8099 45.0849 40.5698 42.9928C42.818 42.1776 45.9833 40.8598 47.2467 38.1495C47.3214 37.9932 47.4708 37.8778 47.5863 37.7351C48.4421 36.6483 48.8429 35.2625 48.6595 33.8904C48.6595 33.8836 48.6595 33.8768 48.6595 33.8632C47.9191 28.4222 41.7992 22.2067 35.3057 22.8656Z" fill="#EFAA7B"/>
<path d="M48.5641 32.9186C47.6404 32.7692 46.6894 32.7216 45.7045 32.8099C45.3921 32.8371 44.9913 32.9594 44.9778 33.2786C44.971 33.4688 45.1204 33.6318 45.297 33.6998C45.4736 33.7677 45.6638 33.7677 45.8472 33.7677C46.8117 33.7745 47.7762 33.9171 48.7068 34.1889C48.7 33.9171 48.6796 33.6386 48.6388 33.3601C48.6185 33.2107 48.5913 33.068 48.5641 32.9186Z" fill="#423F3F"/>
<path d="M43.4428 34.8482C43.4292 35.0316 43.5718 35.2015 43.7484 35.2762C43.9183 35.3509 44.1152 35.3577 44.2986 35.3645C45.6978 35.4256 47.0903 35.7789 48.3537 36.3834C48.5031 35.9555 48.605 35.5207 48.6797 35.0656C47.2737 34.5697 45.7794 34.3184 44.1899 34.3999C43.8707 34.4203 43.47 34.529 43.4428 34.8482Z" fill="#423F3F"/>
<path d="M44.1152 37.4298C44.0609 37.6064 44.1696 37.8034 44.3258 37.9121C44.4752 38.0208 44.6654 38.0615 44.8488 38.1091C45.5892 38.2925 46.3092 38.571 46.9952 38.9106C47.2397 38.5914 47.4639 38.2585 47.6608 37.9121C46.8118 37.5521 45.9016 37.2871 44.9371 37.1445C44.6179 37.0969 44.2035 37.1241 44.1152 37.4298Z" fill="#423F3F"/>
<path d="M28.2685 35.4938C28.4179 35.3783 28.5198 35.1813 28.4655 35.0047C28.3704 34.7058 27.9493 34.6855 27.6436 34.7466C26.6723 34.9232 25.7621 35.2221 24.9131 35.6093C24.9267 35.7587 24.9403 35.9082 24.9606 36.0576C25.0014 36.3361 25.0557 36.6078 25.1169 36.8728C25.9387 36.3633 26.8285 35.9693 27.7591 35.7112C27.9357 35.6568 28.1191 35.6093 28.2685 35.4938Z" fill="#423F3F"/>
<path d="M30.3681 37.1572C30.5107 37.0417 30.6058 36.8379 30.5447 36.6613C30.436 36.3624 30.0217 36.3624 29.7092 36.4303C28.1538 36.77 26.7817 37.4085 25.5591 38.2576C25.7425 38.6788 25.9666 39.0727 26.2179 39.4463C27.2775 38.5293 28.5205 37.8161 29.8586 37.3881C30.0352 37.3338 30.2254 37.2794 30.3681 37.1572Z" fill="#423F3F"/>
<path d="M30.3403 39.6373C30.4557 39.4947 30.5101 39.2773 30.415 39.1143C30.252 38.8425 29.8376 38.9308 29.5524 39.0599C28.6626 39.4607 27.8543 39.9498 27.1343 40.5204C27.4128 40.7989 27.7184 41.0638 28.0377 41.3083C28.6082 40.7921 29.2263 40.3438 29.892 39.9634C30.055 39.875 30.2248 39.7867 30.3403 39.6373Z" fill="#423F3F"/>
<path d="M37.0585 24.8285C37.2487 24.8285 37.4389 24.8285 37.6087 24.7605C37.7853 24.6926 37.9347 24.5296 37.9279 24.3394C37.9144 24.0201 37.5136 23.8978 37.2012 23.8707C35.5778 23.7348 34.0359 23.9454 32.5824 24.4209C32.4601 24.9439 32.3718 25.4806 32.3311 26.0172C33.7846 25.2564 35.4148 24.842 37.0585 24.8285Z" fill="#423F3F"/>
<path d="M32.9416 27.7494C32.7718 27.8241 32.5952 27.9057 32.4118 27.9125C32.2217 27.9192 32.0179 27.8309 31.95 27.6611C31.8345 27.369 32.1469 27.0905 32.4186 26.9343C34.4699 25.7863 36.6571 25.3787 38.8714 25.4602C38.9257 25.6029 38.9801 25.7455 39.0344 25.8882C39.1702 26.289 39.2789 26.6965 39.3536 27.1041C39.1295 27.0566 38.8985 27.009 38.6676 26.975C36.7386 26.6897 34.728 26.9615 32.9416 27.7494Z" fill="#423F3F"/>
<path d="M37.547 28.1371C37.6624 28.0827 37.7507 27.9605 37.7372 27.8382C37.71 27.6276 37.4315 27.5665 37.2209 27.5597C35.9643 27.5529 34.8164 27.8518 33.7568 28.3544C33.8383 28.6669 33.9334 28.9794 34.0557 29.2783C34.993 28.6873 36.073 28.3205 37.1802 28.2186C37.3024 28.205 37.4315 28.1982 37.547 28.1371Z" fill="#423F3F"/>
<path d="M30.8473 37.5773C31.8615 37.5063 32.6398 36.8237 32.5858 36.0527C32.5318 35.2817 31.6659 34.7144 30.6517 34.7854C29.6376 34.8565 28.8592 35.5391 28.9132 36.31C28.9672 37.081 29.8332 37.6484 30.8473 37.5773Z" fill="#FFA4A8"/>
<path d="M42.8839 35.3283C43.8981 35.2573 44.6765 34.5747 44.6225 33.8037C44.5684 33.0327 43.7025 32.4653 42.6884 32.5364C41.6742 32.6074 40.8958 33.29 40.9498 34.061C41.0038 34.832 41.8698 35.3994 42.8839 35.3283Z" fill="#FFA4A8"/>
<path d="M32.1223 35.4436C32.6051 35.4098 32.9597 34.8575 32.9143 34.21C32.869 33.5625 32.4408 33.0651 31.9581 33.0989C31.4753 33.1327 31.1208 33.685 31.1661 34.3325C31.2115 34.98 31.6396 35.4774 32.1223 35.4436Z" fill="black"/>
<path d="M41.1292 34.0989C41.6119 34.065 41.9665 33.5127 41.9212 32.8653C41.8758 32.2178 41.4477 31.7204 40.9649 31.7542C40.4822 31.788 40.1276 32.3403 40.1729 32.9878C40.2183 33.6352 40.6464 34.1327 41.1292 34.0989Z" fill="black"/>
<path d="M40.8398 33.4822C40.9894 33.4716 41.0939 33.2204 41.073 32.921C41.0521 32.6215 40.9139 32.3874 40.7642 32.3979C40.6145 32.4084 40.5101 32.6597 40.5309 32.9591C40.5518 33.2585 40.6901 33.4927 40.8398 33.4822Z" fill="white"/>
<path d="M32.3964 34.7859C32.5461 34.7753 32.6505 34.5241 32.6297 34.2247C32.6088 33.9252 32.4705 33.6911 32.3208 33.7016C32.1712 33.7122 32.0667 33.9634 32.0876 34.2628C32.1084 34.5623 32.2467 34.7964 32.3964 34.7859Z" fill="white"/>
<path d="M45.6435 44.1605C47.7016 42.5167 47.7355 41.3483 47.1106 40.4381C46.4925 39.5278 45.4533 39.2154 43.3952 40.8592C41.3371 42.5031 40.1689 44.5817 40.787 45.4919C41.4119 46.4022 43.5854 45.8044 45.6435 44.1605Z" fill="#F38032"/>
<path d="M41.7923 46.2531C41.6768 46.2531 41.5681 46.2463 41.4595 46.2327C41.0383 46.1716 40.7123 45.9814 40.5085 45.6825C39.7682 44.5957 40.9161 42.4016 43.1847 40.5947C44.3666 39.6505 45.3175 39.2497 46.1122 39.372C46.6217 39.4467 47.0564 39.7456 47.396 40.2483C48.2722 41.5321 47.7696 42.9043 45.8609 44.4326C44.4277 45.567 42.8791 46.2531 41.7923 46.2531ZM45.8337 40.0241C45.27 40.0241 44.5228 40.3909 43.6126 41.1177C41.5614 42.7616 40.624 44.6364 41.0723 45.2953C41.1674 45.438 41.3304 45.5263 41.5614 45.5603C42.3085 45.6757 43.796 45.2002 45.433 43.896C47.7831 42.0212 47.0903 41.0091 46.8322 40.6287C46.5945 40.2822 46.3228 40.0852 46.0035 40.0377C45.9492 40.0309 45.8949 40.0241 45.8337 40.0241Z" fill="#54360E"/>
<path d="M45.4059 43.8755C43.3478 45.5194 41.1742 46.1171 40.5493 45.2069C40.2573 44.7721 40.366 44.0793 40.7803 43.2981C41.9214 42.3131 42.9131 41.498 43.4021 41.172C44.1425 40.6829 44.978 40.2278 45.8202 40.6082C46.1462 40.7508 46.3976 41.0157 46.5674 41.3418C46.5945 41.3893 46.6149 41.4369 46.6421 41.4912C46.8526 41.9667 46.7508 42.5577 46.384 42.9653C46.1259 43.2506 45.8066 43.5494 45.4059 43.8755Z" fill="#EFAA7B"/>
<path d="M46.0511 40.3096C45.9221 40.4115 45.793 40.5134 45.664 40.622C45.5349 40.7307 45.3855 40.9073 45.4194 41.0296C45.4398 41.1043 45.5213 41.1179 45.6028 41.0907C45.6843 41.0636 45.7659 41.0024 45.8406 40.9413C45.956 40.853 46.0715 40.7783 46.187 40.6968C46.1734 40.6492 46.1598 40.6017 46.1462 40.5541C46.1123 40.4658 46.0851 40.3843 46.0511 40.3096Z" fill="#423F3F"/>
<path d="M46.4315 40.8057C46.3024 40.9076 46.1734 41.0094 46.0443 41.1181C45.9153 41.2268 45.7659 41.4034 45.7998 41.5257C45.8202 41.6004 45.9017 41.614 45.9832 41.5868C46.0647 41.5597 46.1462 41.4985 46.2209 41.4374C46.3364 41.3491 46.4519 41.2744 46.5673 41.1929C46.5538 41.1453 46.5402 41.0978 46.5266 41.0502C46.4994 40.9619 46.4722 40.8804 46.4315 40.8057Z" fill="#423F3F"/>
<path d="M46.642 41.417C46.5129 41.5189 46.3838 41.6208 46.2548 41.7295C46.1257 41.8381 45.9763 42.0148 46.0103 42.137C46.0306 42.2118 46.1121 42.2253 46.1937 42.1982C46.2752 42.171 46.3567 42.1099 46.4314 42.0487C46.5469 41.9604 46.6623 41.8857 46.7778 41.8042C46.7642 41.7566 46.7506 41.7091 46.737 41.6615C46.7099 41.5732 46.6759 41.4917 46.642 41.417Z" fill="#423F3F"/>
<path d="M34.924 40.7183C36.5592 40.5582 37.7846 39.4053 37.661 38.1433C37.5374 36.8814 36.1116 35.9883 34.4764 36.1484C32.8412 36.3086 31.6158 37.4615 31.7394 38.7234C31.863 39.9854 33.2888 40.8785 34.924 40.7183Z" fill="#E8D4C4"/>
<path d="M40.738 39.7057C42.3732 39.5455 43.5985 38.3926 43.4749 37.1307C43.3513 35.8687 41.9255 34.9756 40.2904 35.1357C38.6552 35.2959 37.4298 36.4488 37.5534 37.7107C37.677 38.9727 39.1028 39.8658 40.738 39.7057Z" fill="#E8D4C4"/>
<path d="M37.3502 35.8333C36.6641 35.942 35.8694 36.2409 35.9306 36.6756C35.9849 37.0357 36.9223 36.7572 37.2211 37.3617C37.3366 37.5927 37.4181 37.7285 37.6219 37.7014C37.8256 37.6674 37.8664 37.518 37.9004 37.2598C37.9954 36.5941 38.9735 36.5738 38.9192 36.2137C38.8445 35.779 38.0294 35.7247 37.3502 35.8333Z" fill="#3A3733"/>
<path d="M36.5558 36.4109C36.5218 36.2682 36.712 36.1867 36.8139 36.1459C36.9973 36.0712 37.1875 36.0033 37.3844 35.9693C37.5542 35.9354 38.2878 35.8742 38.2403 36.2003C38.2335 36.2478 38.1995 36.2818 38.1656 36.3022C38.1248 36.3225 38.084 36.3361 38.0365 36.3429C37.8056 36.3973 37.5678 36.4584 37.3369 36.5059C37.1671 36.5467 36.6101 36.669 36.5558 36.4109Z" fill="#605C58"/>
<path d="M33.3973 37.6803C33.5398 37.6803 33.6554 37.5647 33.6554 37.4222C33.6554 37.2796 33.5398 37.1641 33.3973 37.1641C33.2547 37.1641 33.1392 37.2796 33.1392 37.4222C33.1392 37.5647 33.2547 37.6803 33.3973 37.6803Z" fill="#878787"/>
<path d="M34.3685 39.943C34.511 39.943 34.6266 39.8274 34.6266 39.6849C34.6266 39.5423 34.511 39.4268 34.3685 39.4268C34.2259 39.4268 34.1104 39.5423 34.1104 39.6849C34.1104 39.8274 34.2259 39.943 34.3685 39.943Z" fill="#878787"/>
<path d="M33.139 39.7047C33.2815 39.7047 33.3971 39.5892 33.3971 39.4466C33.3971 39.304 33.2815 39.1885 33.139 39.1885C32.9964 39.1885 32.8809 39.304 32.8809 39.4466C32.8809 39.5892 32.9964 39.7047 33.139 39.7047Z" fill="#878787"/>
<path d="M32.6297 38.5368C32.7722 38.5368 32.8878 38.4212 32.8878 38.2786C32.8878 38.1361 32.7722 38.0205 32.6297 38.0205C32.4871 38.0205 32.3716 38.1361 32.3716 38.2786C32.3716 38.4212 32.4871 38.5368 32.6297 38.5368Z" fill="#878787"/>
<path d="M34.0628 38.5368C34.2053 38.5368 34.3209 38.4212 34.3209 38.2786C34.3209 38.1361 34.2053 38.0205 34.0628 38.0205C33.9202 38.0205 33.8047 38.1361 33.8047 38.2786C33.8047 38.4212 33.9202 38.5368 34.0628 38.5368Z" fill="#878787"/>
<path d="M41.4119 36.1999C41.5545 36.1999 41.67 36.0843 41.67 35.9417C41.67 35.7992 41.5545 35.6836 41.4119 35.6836C41.2694 35.6836 41.1538 35.7992 41.1538 35.9417C41.1538 36.0843 41.2694 36.1999 41.4119 36.1999Z" fill="#878787"/>
<path d="M41.4119 38.4684C41.5545 38.4684 41.67 38.3528 41.67 38.2103C41.67 38.0677 41.5545 37.9521 41.4119 37.9521C41.2694 37.9521 41.1538 38.0677 41.1538 38.2103C41.1538 38.3528 41.2694 38.4684 41.4119 38.4684Z" fill="#878787"/>
<path d="M42.3152 37.9664C42.4578 37.9664 42.5733 37.8509 42.5733 37.7083C42.5733 37.5658 42.4578 37.4502 42.3152 37.4502C42.1727 37.4502 42.0571 37.5658 42.0571 37.7083C42.0571 37.8509 42.1727 37.9664 42.3152 37.9664Z" fill="#878787"/>
<path d="M42.5735 36.7233C42.7161 36.7233 42.8317 36.6077 42.8317 36.4652C42.8317 36.3226 42.7161 36.207 42.5735 36.207C42.431 36.207 42.3154 36.3226 42.3154 36.4652C42.3154 36.6077 42.431 36.7233 42.5735 36.7233Z" fill="#878787"/>
<path d="M40.3797 36.3219C40.5222 36.3219 40.6378 36.2063 40.6378 36.0638C40.6378 35.9212 40.5222 35.8057 40.3797 35.8057C40.2371 35.8057 40.1216 35.9212 40.1216 36.0638C40.1216 36.2063 40.2371 36.3219 40.3797 36.3219Z" fill="#878787"/>
<path d="M45.8196 35.2482C45.8332 35.2346 45.8468 35.221 45.8468 35.2006C45.8468 35.1666 45.8264 35.1395 45.7925 35.1395C44.7872 35.0851 43.8431 35.2074 42.9057 35.5131C41.9956 35.812 41.2076 36.2399 40.5556 36.6271C40.5284 36.6407 40.5148 36.6814 40.5352 36.7086C40.5488 36.7358 40.5895 36.7494 40.6167 36.729C41.9344 35.9546 43.5306 35.1395 45.7925 35.2617C45.7925 35.2617 45.8061 35.2617 45.8196 35.2482Z" fill="white"/>
<path d="M40.5766 36.7638C40.5494 36.7638 40.5154 36.7502 40.5018 36.723C40.4747 36.6823 40.4951 36.6279 40.529 36.6076C41.1811 36.2272 41.9758 35.7924 42.886 35.4935C43.8301 35.1879 44.7742 35.0656 45.7863 35.1199C45.8338 35.1199 45.8678 35.1607 45.8678 35.2082C45.8678 35.2354 45.8542 35.2626 45.827 35.2762C45.8135 35.2898 45.7931 35.2898 45.7727 35.2898C43.5177 35.1675 41.9282 35.9826 40.6105 36.757C40.6037 36.7638 40.5902 36.7638 40.5766 36.7638ZM45.3312 35.1539C44.4957 35.1539 43.701 35.283 42.9063 35.5411C41.9962 35.84 41.2083 36.2679 40.5562 36.6483C40.5426 36.6551 40.5358 36.6823 40.5426 36.6959C40.5494 36.7095 40.5766 36.7162 40.5901 36.7095C41.9147 35.9351 43.5109 35.1131 45.7795 35.2354C45.7863 35.2354 45.7931 35.2354 45.7999 35.2286C45.8067 35.2218 45.8135 35.215 45.8135 35.2015C45.8135 35.1811 45.7999 35.1675 45.7795 35.1675C45.6369 35.1607 45.4806 35.1539 45.3312 35.1539Z" fill="white"/>
<path d="M45.8326 36.8038C45.8394 36.797 45.853 36.7902 45.853 36.7766C45.8665 36.7495 45.853 36.7087 45.819 36.6951C44.9156 36.2944 44.0326 36.1449 43.1224 36.2468C42.2394 36.3419 41.4447 36.6612 40.7791 36.9533C40.7519 36.9668 40.7383 37.0008 40.7519 37.0348C40.7655 37.0619 40.7995 37.0755 40.8334 37.0619C42.484 36.3215 43.9579 35.9955 45.7715 36.8038C45.7918 36.8174 45.8122 36.8106 45.8326 36.8038Z" fill="white"/>
<path d="M40.8141 37.0967C40.8006 37.0967 40.7938 37.0967 40.7802 37.0899C40.7598 37.0831 40.7394 37.0627 40.7326 37.0424C40.7258 37.022 40.7258 36.9948 40.7326 36.9744C40.7394 36.9541 40.7598 36.9337 40.7802 36.9269C41.4458 36.628 42.2405 36.3155 43.1303 36.2204C44.0473 36.1185 44.9303 36.268 45.8405 36.6688C45.8609 36.6755 45.8744 36.6959 45.888 36.7163C45.8948 36.7367 45.8948 36.7639 45.888 36.7842C45.8812 36.7978 45.8676 36.8114 45.8541 36.825C45.8269 36.8386 45.7997 36.8454 45.7726 36.8318C43.9658 36.0302 42.5054 36.3563 40.8549 37.0899C40.8345 37.0967 40.8277 37.0967 40.8141 37.0967ZM43.6737 36.2408C43.4903 36.2408 43.3137 36.2476 43.1303 36.268C42.2541 36.3631 41.4594 36.6755 40.8006 36.9744C40.7938 36.9812 40.787 36.988 40.7802 36.9948C40.7734 37.0016 40.7802 37.0152 40.7802 37.022C40.787 37.0288 40.7938 37.0356 40.8006 37.0424C40.8073 37.0492 40.8209 37.0424 40.8277 37.0424C42.4851 36.3019 43.9658 35.9759 45.7861 36.7842C45.7997 36.791 45.8065 36.791 45.8201 36.7842C45.8269 36.7774 45.8337 36.7774 45.8337 36.7706C45.8405 36.7639 45.8405 36.7503 45.8337 36.7435C45.8337 36.7367 45.8269 36.7299 45.8133 36.7231C45.0933 36.4038 44.3937 36.2408 43.6737 36.2408Z" fill="white"/>
<path d="M45.2149 38.3524C45.2217 38.3456 45.2353 38.3388 45.2421 38.3321C45.2624 38.3049 45.2556 38.2641 45.2285 38.2505C44.5424 37.775 43.8293 37.4762 43.0413 37.3403C42.2806 37.2045 41.5402 37.2384 40.9289 37.286C40.895 37.286 40.8678 37.3199 40.8746 37.3539C40.8746 37.3879 40.9085 37.415 40.9425 37.4082C42.1855 37.3063 43.6391 37.2928 45.1673 38.3524C45.1741 38.3592 45.2013 38.3592 45.2149 38.3524Z" fill="white"/>
<path d="M45.1953 38.3872C45.1749 38.3872 45.1613 38.3805 45.1477 38.3737C43.6263 37.3208 42.1795 37.3344 40.9433 37.4363C40.9229 37.4363 40.8957 37.4295 40.8822 37.4159C40.8686 37.4023 40.855 37.3819 40.855 37.3547C40.855 37.3344 40.8618 37.3072 40.8754 37.2936C40.8889 37.2732 40.9093 37.2664 40.9365 37.2664C41.5546 37.2189 42.2882 37.1849 43.0557 37.3208C43.8436 37.4566 44.5636 37.7555 45.2496 38.2378C45.27 38.2514 45.2836 38.2718 45.2836 38.2922C45.2904 38.3125 45.2836 38.3397 45.27 38.3533C45.2632 38.3669 45.2496 38.3737 45.236 38.3805C45.2157 38.3805 45.2021 38.3872 45.1953 38.3872ZM41.8806 37.3412C42.8927 37.3412 44.0134 37.5246 45.1749 38.3329C45.1817 38.3397 45.1953 38.3397 45.2089 38.3329C45.2157 38.3329 45.2225 38.3261 45.2225 38.3193C45.2292 38.3125 45.2293 38.3057 45.2293 38.2922C45.2293 38.2854 45.2225 38.2718 45.2157 38.2718C44.5364 37.7963 43.8232 37.5042 43.0421 37.3683C42.2814 37.2325 41.5478 37.2664 40.9365 37.314C40.9297 37.314 40.9161 37.3208 40.9093 37.3276C40.9025 37.3344 40.9025 37.3412 40.9025 37.3547C40.9025 37.3615 40.9093 37.3751 40.9161 37.3751C40.9229 37.3819 40.9297 37.3819 40.9433 37.3819C41.2354 37.3547 41.5546 37.3412 41.8806 37.3412Z" fill="white"/>
<path d="M30.8089 35.8536C30.7953 35.84 30.7817 35.8265 30.7817 35.8061C30.7817 35.7721 30.8021 35.7449 30.8361 35.7449C31.8413 35.6906 32.7855 35.8129 33.7228 36.1185C34.633 36.4174 35.4209 36.8454 36.073 37.2326C36.1002 37.2462 36.1137 37.2869 36.0934 37.3141C36.0798 37.3413 36.039 37.3548 36.0119 37.3345C34.6941 36.5601 33.0979 35.7449 30.8361 35.8672C30.8361 35.8604 30.8225 35.8604 30.8089 35.8536Z" fill="white"/>
<path d="M36.0529 37.3614C36.0393 37.3614 36.0258 37.3546 36.0122 37.3478C34.6945 36.5734 33.105 35.7651 30.85 35.8806C30.8296 35.8806 30.816 35.8738 30.7956 35.867C30.7753 35.8534 30.7617 35.8262 30.7549 35.7991C30.7549 35.7787 30.7617 35.7515 30.7753 35.7379C30.7888 35.7176 30.8092 35.7108 30.8364 35.7108C31.8485 35.6564 32.7926 35.7787 33.7367 36.0844C34.6537 36.3832 35.4416 36.8112 36.0937 37.1984C36.1141 37.212 36.1276 37.2256 36.1344 37.2527C36.1412 37.2731 36.1344 37.3003 36.1277 37.3207C36.1141 37.341 36.1005 37.3546 36.0733 37.3614C36.0665 37.3614 36.0597 37.3614 36.0529 37.3614ZM31.2983 35.8262C33.3292 35.8262 34.8099 36.587 36.0393 37.3071C36.0461 37.3139 36.0597 37.3139 36.0665 37.3139C36.0733 37.3139 36.0801 37.3071 36.0869 37.3003C36.0937 37.2935 36.0937 37.2799 36.0937 37.2731C36.0937 37.2663 36.0869 37.2595 36.0801 37.2527C35.428 36.8723 34.6401 36.4376 33.7299 36.1455C32.7926 35.8398 31.8552 35.7176 30.85 35.7719C30.8432 35.7719 30.8296 35.7787 30.8228 35.7855C30.816 35.7923 30.816 35.7991 30.816 35.8127C30.816 35.8262 30.8228 35.833 30.8296 35.8398C30.8364 35.8466 30.8432 35.8466 30.85 35.8466C30.9994 35.8262 31.1488 35.8262 31.2983 35.8262Z" fill="white"/>
<path d="M30.8088 37.4689C30.802 37.4621 30.7884 37.4553 30.7884 37.4417C30.7748 37.4145 30.7884 37.3738 30.8224 37.3602C31.7258 36.9594 32.6088 36.8099 33.5189 36.9118C34.4019 37.0069 35.1966 37.3262 35.8623 37.6183C35.8895 37.6319 35.903 37.6658 35.8895 37.6998C35.8759 37.727 35.8419 37.7406 35.808 37.727C34.1574 36.9866 32.6835 36.6605 30.8699 37.4689C30.8427 37.4824 30.8224 37.4756 30.8088 37.4689Z" fill="white"/>
<path d="M35.8222 37.7617C35.8086 37.7617 35.795 37.7617 35.7882 37.755C34.1445 37.0213 32.6773 36.6953 30.8706 37.4968C30.8434 37.5104 30.8162 37.5036 30.7891 37.49C30.7755 37.4832 30.7619 37.4697 30.7551 37.4493C30.7483 37.4289 30.7483 37.4017 30.7551 37.3813C30.7619 37.361 30.7823 37.3406 30.8026 37.3338C31.7128 36.933 32.5958 36.7836 33.5128 36.8855C34.3958 36.9806 35.1973 37.2998 35.863 37.5919C35.9037 37.6123 35.9241 37.6599 35.9037 37.7074C35.8969 37.7278 35.8765 37.7414 35.8562 37.755C35.8426 37.7617 35.8358 37.7617 35.8222 37.7617ZM32.949 36.9806C33.9135 36.9806 34.8305 37.2727 35.8086 37.7142C35.8154 37.721 35.829 37.721 35.8358 37.7142C35.8426 37.7142 35.8494 37.7074 35.8562 37.6938C35.863 37.6734 35.8562 37.6531 35.8358 37.6463C35.1769 37.3542 34.3822 37.0349 33.506 36.9398C32.6026 36.8379 31.7264 36.9874 30.823 37.3881C30.8162 37.3949 30.8094 37.4017 30.8026 37.4085C30.8026 37.4153 30.8026 37.4289 30.8026 37.4357C30.8026 37.4425 30.8094 37.4493 30.8162 37.4493C30.823 37.4561 30.8366 37.4561 30.8502 37.4493C31.5973 37.1164 32.2834 36.9806 32.949 36.9806Z" fill="white"/>
<path d="M31.1752 39.1268C31.1685 39.1201 31.1549 39.1133 31.1481 39.1065C31.1277 39.0793 31.1345 39.0385 31.1617 39.025C31.8477 38.5495 32.5609 38.2506 33.3488 38.1147C34.1095 37.9789 34.8499 38.0128 35.4612 38.0604C35.4952 38.0604 35.5224 38.0943 35.5156 38.1283C35.5156 38.1623 35.4816 38.1894 35.4476 38.1826C34.2046 38.0808 32.7511 38.0672 31.2228 39.1268C31.216 39.1336 31.1888 39.1336 31.1752 39.1268Z" fill="white"/>
<path d="M31.196 39.1548C31.1824 39.1548 31.1688 39.1548 31.162 39.148C31.1484 39.1412 31.1349 39.1344 31.1281 39.1209C31.1145 39.1005 31.1077 39.0801 31.1145 39.0597C31.1213 39.0393 31.1281 39.019 31.1484 39.0054C31.8345 38.5299 32.5545 38.231 33.3424 38.0884C34.1099 37.9525 34.8435 37.9865 35.4616 38.034C35.482 38.034 35.5023 38.0476 35.5227 38.0612C35.5363 38.0816 35.5431 38.1019 35.5431 38.1223C35.5431 38.1427 35.5295 38.1631 35.5159 38.1835C35.4955 38.197 35.4752 38.2038 35.4548 38.2038C34.2186 38.1019 32.765 38.0884 31.2503 39.1412C31.23 39.1548 31.2164 39.1548 31.196 39.1548ZM34.5242 38.0408C34.1507 38.0408 33.7567 38.068 33.356 38.1359C32.5748 38.2718 31.8616 38.5706 31.1824 39.0393C31.1756 39.0461 31.1688 39.0529 31.1688 39.0597C31.1688 39.0665 31.1688 39.0801 31.1756 39.0869C31.1824 39.0937 31.1824 39.0937 31.1892 39.1005C31.2028 39.1073 31.2164 39.1073 31.2232 39.1005C32.7582 38.034 34.2186 38.0544 35.4616 38.1563C35.4684 38.1563 35.482 38.1563 35.4887 38.1495C35.4955 38.1427 35.5023 38.1359 35.5023 38.1291C35.5023 38.1223 35.5023 38.1087 35.4955 38.1019C35.4887 38.0951 35.482 38.0884 35.4684 38.0884C35.1763 38.0612 34.8571 38.0408 34.5242 38.0408Z" fill="white"/>
<path d="M37.9958 41.3968C38.8211 41.3968 39.4901 40.6152 39.4901 39.651C39.4901 38.6869 38.8211 37.9053 37.9958 37.9053C37.1705 37.9053 36.5015 38.6869 36.5015 39.651C36.5015 40.6152 37.1705 41.3968 37.9958 41.3968Z" fill="#E8D4C4"/>
<path d="M37.6351 37.5449C37.6147 37.7419 37.6419 37.9593 37.703 38.1766L37.6351 37.5449Z" fill="#3A3733"/>
<path d="M37.4654 37.5452C37.445 37.7694 37.479 38.0003 37.5401 38.2177C37.5673 38.306 37.6624 38.3671 37.7507 38.3332C37.839 38.306 37.8933 38.2177 37.8661 38.1226C37.8526 38.0682 37.839 38.0139 37.8254 37.9596C37.8186 37.9392 37.8186 37.912 37.8118 37.8916C37.8118 37.8848 37.8118 37.878 37.805 37.8712C37.805 37.8984 37.8118 37.8984 37.805 37.8848C37.805 37.8712 37.805 37.8645 37.7982 37.8509C37.7846 37.749 37.7846 37.6471 37.7982 37.5452C37.805 37.4569 37.7167 37.3686 37.6284 37.3754C37.5333 37.3754 37.4722 37.4501 37.4654 37.5452Z" fill="#3A3733"/>
<path d="M35.625 39.0664L36.379 39.1819L35.8288 40.3095L35.625 39.0664Z" fill="white"/>
<path d="M40.1488 38.3672L39.4492 38.6797L40.2847 39.6239L40.1488 38.3672Z" fill="white"/>
<path d="M36.644 39.318C36.644 39.318 36.9089 41.0637 38.1655 40.7241C39.4221 40.3844 39.0485 38.8628 39.0485 38.8628L37.6969 38.1768L36.644 39.318Z" fill="#F4AEAE"/>
<path d="M34.9593 38.706C35.2514 39.1 35.6793 39.4193 36.1819 39.4532C36.6574 39.4872 37.0581 39.1883 37.357 38.8487C37.5268 38.6585 37.6763 38.4479 37.8121 38.2305C37.7374 38.2509 37.6559 38.2713 37.5812 38.2917C38.0838 38.5498 38.566 38.9234 39.1502 38.9777C39.6528 39.0185 40.1962 38.7264 40.4272 38.2849C40.5426 38.0607 40.5902 37.8026 40.5087 37.558C40.4407 37.3542 40.1079 37.4426 40.1826 37.6463C40.2302 37.789 40.2234 37.9384 40.1555 38.0743C40.0739 38.2441 39.9449 38.38 39.7819 38.4819C39.5985 38.5905 39.3879 38.6517 39.1774 38.6381C38.9396 38.6245 38.7155 38.5158 38.5049 38.4139C38.2536 38.2849 38.0091 38.1286 37.7578 37.9996C37.6763 37.9588 37.5744 37.9792 37.5268 38.0607C37.3978 38.2713 37.2551 38.4683 37.0921 38.6449C36.9359 38.8147 36.7525 38.9845 36.5351 39.066C36.0529 39.2494 35.5435 38.9166 35.2582 38.5362C35.2038 38.4615 35.1087 38.4275 35.0272 38.4751C34.9457 38.5226 34.905 38.6381 34.9593 38.706Z" fill="#3A3733"/>
<path d="M13.4941 26.75C14.1326 26.2677 14.6692 25.6292 14.7507 24.9091C14.839 24.1891 14.7236 24.6034 13.9017 24.3929C15.0428 24.5695 15.6813 24.094 16.0345 25.0314C16.3333 24.5151 16.8292 24.0804 17.4405 23.8223C17.3726 24.3453 17.3114 24.8616 17.2435 25.3846C17.5899 24.9295 18.2216 24.6374 18.8669 24.6374C18.2012 25.4525 18.3167 26.6617 19.125 27.3817L13.4941 26.75Z" fill="#FAD73D"/>
<path d="M28.3082 43.956C27.8191 43.528 26.2705 44.4111 25.7678 44.5402C24.8916 44.7643 23.9679 44.6556 23.0781 44.7439C22.2494 44.8322 21.4071 45.0972 20.6939 45.5047C19.5732 46.1365 18.4389 47.366 18.8396 48.6974C19.7158 51.6115 25.0478 50.3888 26.7391 48.9827C26.9701 48.7925 27.8191 48.0249 27.4455 47.6716C27.3301 47.563 27.1127 47.5562 26.8274 47.6037C28.0636 46.8973 28.5866 45.8919 28.281 45.661C28.0772 45.4844 27.6086 45.6066 26.9769 45.824C28.1248 45.1243 28.607 44.1801 28.3082 43.956Z" fill="#F5BE2F"/>
<path d="M21.9847 50.7559C21.4481 50.7559 20.9319 50.6948 20.4565 50.5522C19.4852 50.2601 18.8399 49.6487 18.575 48.7792C18.3712 48.0932 18.5071 47.3731 18.9689 46.6938C19.3357 46.1504 19.8995 45.6477 20.5583 45.2741C21.3055 44.853 22.1885 44.5677 23.0511 44.4794C23.4043 44.4454 23.7575 44.4386 24.0972 44.4318C24.6609 44.425 25.1839 44.4115 25.7002 44.2824C25.8156 44.2552 26.0194 44.1669 26.2435 44.0718C27.0179 43.7458 27.9892 43.3382 28.4782 43.7526C28.6073 43.8544 28.6684 44.0107 28.6616 44.2009C28.648 44.4862 28.4511 44.8937 28.0571 45.3149C28.2133 45.3217 28.3424 45.3692 28.4511 45.4576C28.5326 45.5187 28.648 45.6613 28.6344 45.9195C28.6073 46.3678 28.1861 46.9452 27.5748 47.4343C27.5952 47.4478 27.6156 47.4682 27.636 47.4818C27.7582 47.5973 27.8194 47.7535 27.8126 47.9233C27.7922 48.4192 27.1809 48.983 26.916 49.2004C25.9854 49.9612 23.8866 50.7559 21.9847 50.7559ZM27.9348 44.1126C27.5477 44.1126 26.8141 44.425 26.4609 44.5745C26.196 44.6832 25.9922 44.7715 25.8428 44.8122C25.2654 44.9617 24.6813 44.9685 24.1107 44.9821C23.7779 44.9888 23.4383 44.9956 23.1123 45.0296C22.3244 45.1111 21.5161 45.3692 20.8368 45.7564C19.7297 46.3814 18.772 47.509 19.1048 48.6298C19.3153 49.3227 19.8248 49.7982 20.6195 50.0359C22.5757 50.6269 25.4964 49.6759 26.5696 48.7792C26.9635 48.4532 27.2692 48.0728 27.276 47.903C27.276 47.8826 27.276 47.8826 27.2692 47.8758C27.2692 47.8758 27.2013 47.8214 26.8888 47.8758L25.3537 48.1475L26.7054 47.3731C27.7514 46.7754 28.125 46.0417 28.1114 45.8651C28.0503 45.8244 27.8126 45.8379 27.0858 46.0825L24.7696 46.8705L26.8616 45.5934C27.8329 44.9956 28.159 44.3232 28.1454 44.1601C28.0775 44.1262 28.0163 44.1126 27.9348 44.1126Z" fill="#DDAB1D"/>
<path d="M26.06 44.6081C25.7951 44.7168 25.571 44.8051 25.4283 44.839C24.5521 45.0564 23.6284 44.9477 22.7386 45.036C21.9099 45.1175 21.0677 45.3757 20.3545 45.7629C20.1031 45.8987 19.845 46.0685 19.6073 46.2587C18.9824 46.9992 18.5273 48.0656 18.7718 48.84C19.4782 51.0952 23.4586 50.3276 25.0887 49.56C25.3604 49.431 27.2419 48.3781 26.6713 47.9026C26.5627 47.8143 26.3725 47.8075 26.1076 47.8483C27.3302 47.1758 27.8464 46.2723 27.5476 46.0685C27.3166 45.8851 26.7868 45.9802 26.0464 46.2927C27.3845 45.6134 27.8532 44.6217 27.534 44.3907C27.3166 44.2073 26.78 44.3635 26.06 44.6081Z" fill="#FAD73D"/>
<path d="M25.2855 45.254C24.9119 45.451 24.4704 45.5325 24.0425 45.5869C22.7452 45.7431 21.3595 45.6412 20.3678 46.5582C19.5731 47.2987 19.4033 48.3787 20.1641 49.1939C21.2644 50.369 23.4991 49.8528 24.7761 49.221C24.9391 49.1395 25.6319 48.8067 25.5029 48.3651C25.4553 48.2021 25.0478 48.1274 24.8848 48.2021C25.367 47.9915 25.9376 47.6247 26.1278 47.1424C26.2364 46.8707 26.1006 46.5854 25.7949 46.4903C25.6115 46.436 25.3942 46.4496 25.1157 46.4971C25.4417 46.436 25.761 46.2118 26.0259 46.0216C26.284 45.8382 26.4945 45.6005 26.5421 45.3016C26.6372 44.6495 25.5572 45.1114 25.2855 45.254Z" fill="#FFE266"/>
<path d="M3.42085 53.7243C3.18312 53.1401 4.51442 52.0601 4.7997 51.6593C5.29554 50.9529 5.49252 50.097 5.87289 49.3294C6.22609 48.6229 6.7491 47.964 7.36721 47.4681C8.32493 46.687 9.84641 46.096 10.9672 46.9111C13.4124 48.6908 10.5324 53.0179 8.65775 54.0504C8.39964 54.193 7.40796 54.6889 7.1974 54.227C7.12947 54.0843 7.19061 53.8941 7.33325 53.6564C6.26685 54.5123 5.1529 54.6346 5.03743 54.2813C4.93555 54.0368 5.20724 53.6632 5.61478 53.1809C4.57555 53.9621 3.53632 54.064 3.42085 53.7243Z" fill="#F5BE2F"/>
<path d="M5.45211 54.7434C5.33664 54.7434 5.23476 54.7298 5.15325 54.7027C4.90872 54.6279 4.81363 54.4717 4.77967 54.3834C4.72533 54.2543 4.73212 54.1185 4.77288 53.9758C4.29062 54.166 3.84232 54.234 3.52988 54.1389C3.35328 54.0845 3.22422 53.969 3.16988 53.8196C2.93215 53.2286 3.63855 52.5018 4.20911 51.9176C4.36534 51.7546 4.52156 51.5983 4.58269 51.51C4.87476 51.0957 5.05136 50.6338 5.24155 50.1379C5.35702 49.8322 5.47928 49.5197 5.62871 49.2209C5.9955 48.4872 6.55247 47.7876 7.19095 47.2713C7.75472 46.8094 8.41358 46.4834 9.04526 46.3407C9.83318 46.1641 10.5532 46.2932 11.1237 46.7075C11.8709 47.2509 12.2309 48.0729 12.1697 49.0714C12.0475 51.0413 10.2475 53.5003 8.78036 54.3019C8.48829 54.4649 7.76151 54.8181 7.29284 54.6687C7.12982 54.6144 7.00756 54.5125 6.93964 54.363C6.92605 54.3358 6.91926 54.3155 6.91247 54.2883C6.36908 54.594 5.83928 54.7434 5.45211 54.7434ZM5.2823 54.1728C5.43853 54.2475 6.24682 54.1796 7.15699 53.446L8.32527 52.5086L7.56453 53.7924C7.4151 54.0438 7.44227 54.1117 7.44227 54.1117C7.44906 54.1185 7.44906 54.1253 7.46944 54.1321C7.63925 54.1864 8.08754 54.0506 8.52905 53.806C9.83997 53.086 11.5245 50.79 11.6331 49.0171C11.6875 48.1951 11.409 47.5634 10.8113 47.1287C9.86714 46.4426 8.48829 46.9045 7.54415 47.6789C6.96001 48.1544 6.45738 48.7861 6.12455 49.4518C5.98871 49.7303 5.87324 50.0224 5.75777 50.3281C5.56079 50.8308 5.36381 51.3538 5.03099 51.8157C4.94269 51.938 4.79325 52.0942 4.60307 52.2912C4.29741 52.6037 3.59101 53.3373 3.67931 53.609C3.82874 53.6837 4.56231 53.6362 5.45211 52.9637L7.34718 51.5372L5.82569 53.3577C5.36381 53.9011 5.27551 54.1049 5.2823 54.1728Z" fill="#DDAB1D"/>
<path d="M5.04455 51.8696C5.23473 51.6726 5.39775 51.5027 5.47926 51.3941C5.9751 50.6876 6.17208 49.8317 6.55245 49.0641C6.90565 48.3577 7.42866 47.6988 8.04676 47.2029C8.26412 47.0263 8.50864 46.8565 8.77354 46.7138C9.7041 46.4217 10.8928 46.4013 11.572 46.8972C13.5486 48.3373 11.4973 51.6114 10.2135 52.7866C9.99617 52.9836 8.35242 54.281 8.07393 53.6017C8.01959 53.4727 8.08073 53.2961 8.20299 53.0787C7.14338 53.921 6.09057 54.0636 5.98868 53.7172C5.8868 53.4455 6.1517 53.0108 6.70188 52.4605C5.60152 53.4047 4.47399 53.4727 4.35173 53.1058C4.24305 52.8409 4.57588 52.4198 5.04455 51.8696Z" fill="#FAD73D"/>
<path d="M5.93423 51.4143C6.24668 51.1561 6.47762 50.7825 6.66101 50.4293C7.23836 49.3289 7.59156 48.0586 8.81419 47.5016C9.79908 47.0533 10.913 47.2978 11.4632 48.2692C12.2579 49.6753 11.0217 51.4754 9.98247 52.3856C9.85342 52.5011 9.30324 52.997 8.90249 52.7253C8.75985 52.6302 8.82098 52.2362 8.94324 52.1139C8.57645 52.4671 8.03986 52.8475 7.50326 52.8407C7.2044 52.8407 6.96667 52.6166 6.97346 52.3109C6.98025 52.1275 7.06176 51.9373 7.2044 51.7063C7.04138 51.9781 6.70856 52.1818 6.44366 52.3449C6.18555 52.5079 5.87989 52.6166 5.56744 52.5487C4.895 52.3924 5.70329 51.5977 5.93423 51.4143Z" fill="#FFE266"/>
<path d="M21.7535 52.3789C21.7535 56.1353 18.9822 57.5958 15.5589 57.5958C12.1355 57.5958 9.36426 56.1353 9.36426 52.3789C9.36426 48.6225 12.1355 42.5293 15.5589 42.5293C18.9822 42.5293 21.7535 48.6225 21.7535 52.3789Z" fill="#F5BE2F"/>
<path d="M15.5659 57.8677C11.4566 57.8677 9.09961 55.8706 9.09961 52.3791C9.09961 50.45 9.82639 47.9094 10.9471 45.9123C12.2716 43.5552 13.9086 42.2578 15.5659 42.2578C17.2165 42.2578 18.8534 43.5552 20.1847 45.9123C21.3055 47.9094 22.0322 50.45 22.0322 52.3791C22.0254 55.8638 19.6685 57.8677 15.5659 57.8677ZM15.5659 42.8012C14.1395 42.8012 12.6316 44.0307 11.4226 46.1773C10.3426 48.0996 9.643 50.5315 9.643 52.3791C9.643 54.2268 10.4105 57.3243 15.5659 57.3243C20.7213 57.3243 21.4889 54.2268 21.4889 52.3791C21.4889 50.5383 20.7892 48.0996 19.7093 46.1773C18.5002 44.0307 16.9855 42.8012 15.5659 42.8012Z" fill="#DDAB1D"/>
<path d="M15.5655 42.5293C15.3957 42.5293 15.2327 42.5429 15.0696 42.5701C14.2681 42.7127 13.5685 43.2018 13.0999 43.8675C11.5987 45.98 10.6274 49.0164 10.6274 51.2377C10.6274 54.9941 13.3987 56.4546 16.8221 56.4546C17.3519 56.4546 17.8613 56.4206 18.3503 56.3459C20.2929 56.0538 21.7533 54.376 21.7669 52.4128C21.7669 52.3993 21.7669 52.3857 21.7669 52.3721C21.7533 48.6225 18.982 42.5293 15.5655 42.5293Z" fill="#FAD73D"/>
<path d="M15.5595 44.9209C15.4236 44.9209 15.2946 44.9345 15.1655 44.9549C14.5338 45.0568 13.9836 45.4236 13.61 45.9127C12.4214 47.4682 11.6606 49.7098 11.6606 51.3537C11.6606 54.1252 13.8546 55.1984 16.5511 55.1984C16.9655 55.1984 17.373 55.1713 17.7534 55.1169C19.2885 54.9063 20.4431 53.6633 20.4499 52.2164C20.4499 52.2096 20.4499 52.196 20.4499 52.1892C20.4499 49.4177 18.2628 44.9209 15.5595 44.9209Z" fill="#FFE266"/>
<path d="M27.0719 38.6237C27.0719 44.1258 21.7399 47.5087 15.1717 47.5087C8.60348 47.5087 3.27148 44.1191 3.27148 38.6237C3.27148 33.1283 8.60348 26.1045 15.1717 26.1045C21.7399 26.1045 27.0719 33.1215 27.0719 38.6237Z" fill="#F5BE2F"/>
<path d="M15.1719 47.7806C11.8436 47.7806 8.80067 46.918 6.59994 45.3488C4.243 43.671 3 41.3478 3 38.6239C3 35.8253 4.3313 32.6462 6.5524 30.1261C8.99085 27.3614 12.0542 25.8398 15.1719 25.8398C18.2896 25.8398 21.3529 27.3614 23.7914 30.1261C26.0193 32.6462 27.3438 35.8253 27.3438 38.6239C27.3438 41.3478 26.1008 43.671 23.7438 45.3488C21.5431 46.918 18.5001 47.7806 15.1719 47.7806ZM15.1719 26.3765C12.2104 26.3765 9.29651 27.8369 6.95994 30.4793C4.82035 32.9044 3.54339 35.9476 3.54339 38.6239C3.54339 41.1644 4.71167 43.3381 6.91239 44.9073C9.02481 46.4085 11.9523 47.2372 15.1719 47.2372C18.3847 47.2372 21.319 46.4085 23.4314 44.9073C25.6389 43.3381 26.8004 41.1644 26.8004 38.6239C26.8004 35.9543 25.5234 32.9112 23.3838 30.4861C21.0541 27.8369 18.1334 26.3765 15.1719 26.3765Z" fill="#DDAB1D"/>
<path d="M15.1378 25.7783C13.4873 26.084 11.8979 26.5799 10.4715 27.4629C8.5832 28.6313 7.09568 30.4382 6.31456 32.5236C5.79155 33.9229 5.58098 35.4309 5.70325 36.9185C6.20588 43.2223 12.7062 46.8632 18.6087 45.5726C20.9113 45.0699 23.0441 43.8744 24.7897 42.2849C24.9188 42.1694 25.0479 42.0471 25.1769 41.9249C26.155 40.9739 26.7324 39.6696 26.7324 38.3111C26.7324 38.3043 26.7324 38.2975 26.7324 38.2839C26.7324 32.87 21.5702 25.9889 15.1378 25.7783Z" fill="#FAD73D"/>
<path d="M10.9012 39.0207C10.9454 38.2491 10.1585 37.5765 9.14349 37.5183C8.12851 37.4601 7.26985 38.0384 7.22561 38.81C7.18137 39.5815 7.96831 40.2542 8.98329 40.3124C9.99827 40.3706 10.8569 39.7923 10.9012 39.0207Z" fill="#FFA4A8"/>
<path d="M23.1199 38.3215C23.1642 37.5499 22.3772 36.8772 21.3622 36.819C20.3473 36.7608 19.4886 37.3391 19.4444 38.1107C19.4001 38.8823 20.1871 39.555 21.202 39.6132C22.217 39.6714 23.0757 39.0931 23.1199 38.3215Z" fill="#FFA4A8"/>
<path d="M11.4624 37.2366C11.4996 36.5886 11.138 36.0409 10.6549 36.0132C10.1717 35.9855 9.74993 36.4883 9.71278 37.1363C9.67563 37.7843 10.0372 38.332 10.5203 38.3597C11.0035 38.3874 11.4252 37.8846 11.4624 37.2366Z" fill="black"/>
<path d="M20.5688 37.0491C20.606 36.4011 20.2444 35.8534 19.7613 35.8257C19.2782 35.798 18.8564 36.3008 18.8192 36.9488C18.7821 37.5968 19.1436 38.1445 19.6268 38.1722C20.1099 38.1999 20.5317 37.6971 20.5688 37.0491Z" fill="black"/>
<path d="M19.7191 36.9983C19.7363 36.6987 19.6288 36.4488 19.479 36.4402C19.3292 36.4316 19.1938 36.6676 19.1766 36.9672C19.1594 37.2669 19.267 37.5167 19.4168 37.5253C19.5666 37.5339 19.702 37.298 19.7191 36.9983Z" fill="white"/>
<path d="M11.1727 37.219C11.1899 36.9194 11.0824 36.6695 10.9326 36.6609C10.7828 36.6523 10.6474 36.8883 10.6302 37.1879C10.613 37.4876 10.7206 37.7374 10.8704 37.746C11.0202 37.7546 11.1556 37.5187 11.1727 37.219Z" fill="white"/>
<path d="M10.7295 41.1506C10.7227 41.9046 11.8299 43.9085 15.6268 43.9288C19.5867 43.9424 20.395 41.8027 20.395 41.8027C20.4426 40.906 10.7295 41.1506 10.7295 41.1506Z" fill="#D02928"/>
<path d="M10.2199 40.8858C10.0636 41.7281 13.256 42.8014 16.1088 42.7063C18.8326 42.618 21.0808 42.0134 21.108 41.1983C21.142 40.3832 19.9126 40.2337 18.6084 39.6971C17.3043 39.1605 17.1073 38.2027 15.5926 38.3182C14.0711 38.4336 14.2477 39.2216 12.8213 39.5069C11.3949 39.7854 10.4304 39.765 10.2199 40.8858Z" fill="#E35125"/>
<path d="M12.2099 40.0436C12.0605 40.0639 11.9042 40.0911 11.7752 40.1658C11.6461 40.2405 11.5375 40.3764 11.5442 40.5326C11.551 40.7772 11.8227 40.913 12.0537 40.9878C12.3322 41.0761 12.6174 41.144 12.9095 41.1915C13.0657 41.2187 13.222 41.2323 13.3782 41.2051C13.6906 41.1372 13.9216 40.8791 14.1253 40.6345C14.2816 40.4511 14.4446 40.2338 14.4242 39.996C14.4174 39.9485 14.4038 39.8941 14.3767 39.8601C14.3223 39.799 14.234 39.7922 14.1593 39.7922C13.5004 39.7583 12.8484 39.9417 12.2099 40.0436Z" fill="#EB7939"/>
</g>
</svg>
