<svg width="178" height="232" viewBox="0 0 178 232" fill="none" xmlns="http://www.w3.org/2000/svg">
<path fill-rule="evenodd" clip-rule="evenodd" d="M171.841 45.4146L171.841 45.4156C172.322 46.7234 172.802 48.0292 173.25 49.3386C175.954 57.8176 177.276 66.6766 177.165 75.5758C177.286 84.5046 175.964 93.3943 173.25 101.901C167.23 121.304 152.613 136.856 133.619 144.065C123.628 148.317 107.311 151.152 88.9045 151.152C73.0666 151.152 58.8053 149.061 48.7427 145.713C27.362 139.563 10.5144 123.061 3.92168 101.813C1.21718 93.3339 -0.104796 84.4749 0.00648277 75.5758C-0.104796 66.6766 1.21718 57.8176 3.92168 49.3386C9.9465 29.9384 24.5618 14.3888 43.552 7.17491C53.5615 2.83453 69.86 0 88.2668 0C104.105 0 118.366 2.09047 128.429 5.43876C129.283 5.72445 130.136 6.01584 130.987 6.30693L130.987 6.30702C136.84 8.30838 142.651 10.2952 148.961 10.3106C155.955 10.3813 162.87 8.82251 169.157 5.75765H169.334C170.385 5.23745 171.651 5.44707 172.478 6.27829C173.306 7.10951 173.509 8.37636 172.984 9.42482C169.834 15.7019 168.162 22.616 168.094 29.6386C168.066 35.1547 169.959 40.3 171.841 45.4146ZM124.283 60.9246C118.366 60.9246 113.654 63.8477 113.654 69.7825V106.578C113.654 112.46 118.349 115.436 124.283 115.436C130.218 115.436 134.807 112.513 134.807 106.578V69.7825C134.807 63.8831 130.2 60.9246 124.283 60.9246ZM114.008 46.0608C114.008 51.9956 118.72 54.9187 124.637 54.9187C130.554 54.9187 135.161 51.9601 135.161 46.0608V44.5903C135.161 38.6555 130.572 35.7324 124.637 35.7324C118.703 35.7324 114.008 38.7087 114.008 44.5903V46.0608ZM52.7819 35.981C46.723 35.857 41.9929 38.8156 41.9929 44.8389V106.685C41.9929 112.673 46.723 115.649 52.7819 115.543C58.5553 115.408 63.1649 110.688 63.1633 104.913V86.8078C63.1633 85.5847 64.1548 84.5933 65.3778 84.5933H78.4698C79.6928 84.5933 80.6843 85.5847 80.6843 86.8078V106.508C80.6843 112.513 85.5562 115.472 91.6327 115.366C97.3067 115.269 101.856 110.641 101.855 104.966V44.7327C101.855 38.7447 97.1246 35.7862 91.0658 35.8747C85.2924 36.0095 80.6827 40.7292 80.6843 46.5042V64.6098C80.6843 65.1955 80.4505 65.757 80.0346 66.1695C79.6188 66.5819 79.0555 66.8113 78.4698 66.8066H65.3778C64.1548 66.8066 63.1633 65.8151 63.1633 64.5921V46.6105C63.1649 40.8355 58.5553 36.1158 52.7819 35.981Z" fill="white"/>
<path d="M30.8108 191.8C30.8108 193.24 31.5708 194 33.0108 194H35.6108C37.0508 194 37.8108 193.24 37.8108 191.8V182.8H48.2108V191.8C48.2108 193.24 48.9708 194 50.4108 194H53.0108C54.4508 194 55.2108 193.24 55.2108 191.8V167.6C55.2108 166.16 54.4508 165.4 53.0108 165.4H50.4108C48.9708 165.4 48.2108 166.16 48.2108 167.6V176.84H37.8108V167.6C37.8108 166.16 37.0508 165.4 35.6108 165.4H33.0108C31.5708 165.4 30.8108 166.16 30.8108 167.6V191.8Z" fill="white"/>
<path d="M61.8239 170.8H64.1839C65.6239 170.8 66.3839 170.04 66.3839 168.6V167.6C66.3839 166.16 65.6239 165.4 64.1839 165.4H61.8239C60.3839 165.4 59.6239 166.16 59.6239 167.6V168.6C59.6239 170.04 60.3839 170.8 61.8239 170.8ZM59.5439 191.8C59.5439 193.24 60.3039 194 61.7439 194H64.2639C65.7039 194 66.4639 193.24 66.4639 191.8V175.6C66.4639 174.16 65.7039 173.4 64.2639 173.4H61.7439C60.3039 173.4 59.5439 174.16 59.5439 175.6V191.8Z" fill="white"/>
<path d="M79.0395 191.48C78.5195 193 79.2395 194 80.8395 194H83.4795C84.7595 194 85.5595 193.4 85.9195 192.16L87.1195 188H96.0395L97.2395 192.16C97.6395 193.4 98.4395 194 99.7195 194H102.36C103.96 194 104.68 193 104.16 191.48L95.8795 167.2C95.4795 165.96 94.6795 165.4 93.3995 165.4H89.7995C88.5195 165.4 87.7195 165.96 87.3195 167.2L79.0395 191.48ZM88.7595 182.4L90.3995 176.84C90.9195 175.04 91.5595 171.92 91.5595 171.92H91.6395C91.6395 171.92 92.2795 175.04 92.7995 176.84L94.3995 182.4H88.7595Z" fill="white"/>
<path d="M106.42 199.8C106.42 201.24 107.18 202 108.62 202H111.14C112.58 202 113.34 201.24 113.34 199.8V193.88C113.34 192.84 113.26 192.12 113.26 192.12H113.34C113.34 192.12 114.86 194.48 118.58 194.48C124.06 194.48 128.18 190.24 128.18 183.72C128.18 177.32 124.5 172.92 118.9 172.92C114.54 172.92 112.66 176.04 112.66 176.04H112.58C112.58 176.04 112.62 175.84 112.62 175.64V175.2C112.62 174.16 111.86 173.4 110.42 173.4H108.62C107.18 173.4 106.42 174.16 106.42 175.6V199.8ZM113.14 183.84C113.14 180.28 115.1 178.76 117.18 178.76C119.58 178.76 121.22 180.76 121.22 183.84C121.22 187 119.34 188.76 117.18 188.76C114.46 188.76 113.14 186.32 113.14 183.84Z" fill="white"/>
<path d="M131.225 199.8C131.225 201.24 131.985 202 133.425 202H135.945C137.385 202 138.145 201.24 138.145 199.8V193.88C138.145 192.84 138.065 192.12 138.065 192.12H138.145C138.145 192.12 139.665 194.48 143.385 194.48C148.865 194.48 152.985 190.24 152.985 183.72C152.985 177.32 149.305 172.92 143.705 172.92C139.345 172.92 137.465 176.04 137.465 176.04H137.385C137.385 176.04 137.425 175.84 137.425 175.64V175.2C137.425 174.16 136.665 173.4 135.225 173.4H133.425C131.985 173.4 131.225 174.16 131.225 175.6V199.8ZM137.945 183.84C137.945 180.28 139.905 178.76 141.985 178.76C144.385 178.76 146.025 180.76 146.025 183.84C146.025 187 144.145 188.76 141.985 188.76C139.265 188.76 137.945 186.32 137.945 183.84Z" fill="white"/>
<path d="M12.4648 222.996H9.39844L8.64648 227H7.67969L8.43164 222.996H5.94141V222.088H8.59766L9.4082 217.781H6.68359V216.844H9.58398L10.3555 212.781H11.3223L10.5508 216.844H13.627L14.3984 212.781H15.375L14.6035 216.844H16.8398V217.781H14.4277L13.6172 222.088H16.1074V222.996H13.4414L12.6895 227H11.7129L12.4648 222.996ZM9.56445 222.088H12.6406L13.4512 217.781H10.375L9.56445 222.088ZM20.1406 212.781L25.3848 225.33L30.6484 212.781H32.25V227H31.0488V220.809L31.1465 214.461L25.8535 227H24.9258L19.6523 214.51L19.75 220.77V227H18.5488V212.781H20.1406ZM42.25 227C42.1328 226.668 42.0579 226.176 42.0254 225.525C41.6152 226.059 41.0911 226.473 40.4531 226.766C39.8216 227.052 39.151 227.195 38.4414 227.195C37.4258 227.195 36.6022 226.912 35.9707 226.346C35.3457 225.779 35.0332 225.063 35.0332 224.197C35.0332 223.169 35.4596 222.355 36.3125 221.756C37.1719 221.157 38.3665 220.857 39.8965 220.857H42.0156V219.656C42.0156 218.901 41.7812 218.309 41.3125 217.879C40.8503 217.443 40.1732 217.225 39.2812 217.225C38.4674 217.225 37.7936 217.433 37.2598 217.85C36.7259 218.266 36.459 218.768 36.459 219.354L35.2871 219.344C35.2871 218.504 35.6777 217.778 36.459 217.166C37.2402 216.548 38.2005 216.238 39.3398 216.238C40.5182 216.238 41.446 216.535 42.123 217.127C42.8066 217.713 43.1582 218.533 43.1777 219.588V224.588C43.1777 225.61 43.2852 226.375 43.5 226.883V227H42.25ZM38.5781 226.16C39.3594 226.16 40.056 225.971 40.668 225.594C41.2865 225.216 41.7357 224.712 42.0156 224.08V221.756H39.9258C38.7604 221.769 37.849 221.984 37.1914 222.4C36.5339 222.811 36.2051 223.377 36.2051 224.1C36.2051 224.692 36.4232 225.184 36.8594 225.574C37.3021 225.965 37.875 226.16 38.5781 226.16ZM48.8125 221.678L47.4746 222.967V227H46.3027V212H47.4746V221.6L48.5781 220.408L52.6211 216.434H54.0957L49.6133 220.887L54.4863 227H53.0898L48.8125 221.678ZM60.0039 227.195C59.1055 227.195 58.2917 226.974 57.5625 226.531C56.8398 226.089 56.2767 225.473 55.873 224.686C55.4694 223.891 55.2676 223.003 55.2676 222.02V221.6C55.2676 220.584 55.4629 219.669 55.8535 218.855C56.2507 218.042 56.8008 217.404 57.5039 216.941C58.207 216.473 58.9688 216.238 59.7891 216.238C61.0716 216.238 62.0872 216.678 62.8359 217.557C63.5911 218.429 63.9688 219.624 63.9688 221.141V221.795H56.4297V222.02C56.4297 223.217 56.7715 224.217 57.4551 225.018C58.1452 225.812 59.0111 226.209 60.0527 226.209C60.6777 226.209 61.2279 226.095 61.7031 225.867C62.1849 225.639 62.6211 225.275 63.0117 224.773L63.7441 225.33C62.8848 226.574 61.638 227.195 60.0039 227.195ZM59.7891 217.234C58.9102 217.234 58.168 217.557 57.5625 218.201C56.9635 218.846 56.599 219.712 56.4688 220.799H62.8066V220.672C62.7741 219.656 62.4844 218.829 61.9375 218.191C61.3906 217.553 60.6745 217.234 59.7891 217.234ZM76.166 213.807H71.293V227H70.0918V213.807H65.2285V212.781H76.166V213.807ZM79.3594 218.221C79.7435 217.589 80.235 217.101 80.834 216.756C81.4329 216.411 82.0872 216.238 82.7969 216.238C83.9297 216.238 84.7728 216.557 85.3262 217.195C85.8796 217.833 86.1595 218.79 86.166 220.066V227H85.0039V220.057C84.9974 219.113 84.7956 218.41 84.3984 217.947C84.0078 217.485 83.3796 217.254 82.5137 217.254C81.791 217.254 81.1497 217.482 80.5898 217.938C80.0365 218.387 79.6263 218.995 79.3594 219.764V227H78.1973V212H79.3594V218.221ZM90.4824 227H89.3105V216.434H90.4824V227ZM89.1055 213.377C89.1055 213.156 89.1771 212.97 89.3203 212.82C89.4635 212.664 89.6589 212.586 89.9062 212.586C90.1536 212.586 90.349 212.664 90.4922 212.82C90.6419 212.97 90.7168 213.156 90.7168 213.377C90.7168 213.598 90.6419 213.784 90.4922 213.934C90.349 214.083 90.1536 214.158 89.9062 214.158C89.6589 214.158 89.4635 214.083 89.3203 213.934C89.1771 213.784 89.1055 213.598 89.1055 213.377ZM94.7793 216.434L94.8184 218.24C95.2155 217.589 95.7103 217.094 96.3027 216.756C96.8952 216.411 97.5495 216.238 98.2656 216.238C99.3984 216.238 100.242 216.557 100.795 217.195C101.348 217.833 101.628 218.79 101.635 220.066V227H100.473V220.057C100.466 219.113 100.264 218.41 99.8672 217.947C99.4766 217.485 98.8483 217.254 97.9824 217.254C97.2598 217.254 96.6185 217.482 96.0586 217.938C95.5052 218.387 95.0951 218.995 94.8281 219.764V227H93.666V216.434H94.7793ZM104.193 221.619C104.193 219.965 104.558 218.657 105.287 217.693C106.023 216.723 107.019 216.238 108.275 216.238C109.714 216.238 110.808 216.811 111.557 217.957L111.615 216.434H112.709V226.785C112.709 228.146 112.328 229.223 111.566 230.018C110.805 230.812 109.773 231.209 108.471 231.209C107.735 231.209 107.032 231.043 106.361 230.711C105.697 230.385 105.173 229.949 104.789 229.402L105.443 228.699C106.27 229.715 107.253 230.223 108.393 230.223C109.369 230.223 110.131 229.933 110.678 229.354C111.225 228.781 111.508 227.983 111.527 226.961V225.633C110.779 226.674 109.688 227.195 108.256 227.195C107.032 227.195 106.049 226.707 105.307 225.73C104.564 224.754 104.193 223.436 104.193 221.775V221.619ZM105.375 221.824C105.375 223.172 105.645 224.236 106.186 225.018C106.726 225.792 107.488 226.18 108.471 226.18C109.91 226.18 110.928 225.535 111.527 224.246V219.334C111.254 218.657 110.86 218.143 110.346 217.791C109.831 217.433 109.213 217.254 108.49 217.254C107.507 217.254 106.742 217.641 106.195 218.416C105.648 219.184 105.375 220.32 105.375 221.824ZM122.084 224.314C122.084 223.735 121.85 223.27 121.381 222.918C120.919 222.566 120.219 222.293 119.281 222.098C118.344 221.896 117.615 221.668 117.094 221.414C116.579 221.154 116.195 220.838 115.941 220.467C115.694 220.096 115.57 219.646 115.57 219.119C115.57 218.286 115.919 217.599 116.615 217.059C117.312 216.512 118.204 216.238 119.291 216.238C120.469 216.238 121.413 216.531 122.123 217.117C122.839 217.697 123.197 218.455 123.197 219.393H122.025C122.025 218.774 121.765 218.26 121.244 217.85C120.73 217.439 120.079 217.234 119.291 217.234C118.523 217.234 117.904 217.407 117.436 217.752C116.973 218.09 116.742 218.533 116.742 219.08C116.742 219.607 116.934 220.018 117.318 220.311C117.709 220.597 118.415 220.861 119.438 221.102C120.466 221.342 121.234 221.6 121.742 221.873C122.257 222.146 122.637 222.475 122.885 222.859C123.132 223.243 123.256 223.709 123.256 224.256C123.256 225.148 122.895 225.861 122.172 226.395C121.456 226.928 120.518 227.195 119.359 227.195C118.129 227.195 117.13 226.899 116.361 226.307C115.6 225.708 115.219 224.952 115.219 224.041H116.391C116.436 224.725 116.723 225.258 117.25 225.643C117.784 226.02 118.487 226.209 119.359 226.209C120.173 226.209 120.831 226.03 121.332 225.672C121.833 225.314 122.084 224.861 122.084 224.314ZM126.166 227V212.781H130.365C131.889 212.781 133.044 213.097 133.832 213.729C134.62 214.354 135.014 215.278 135.014 216.502C135.014 217.238 134.812 217.879 134.408 218.426C134.011 218.966 133.464 219.354 132.768 219.588C133.594 219.77 134.258 220.177 134.76 220.809C135.268 221.44 135.521 222.169 135.521 222.996C135.521 224.253 135.115 225.236 134.301 225.945C133.493 226.648 132.367 227 130.922 227H126.166ZM127.367 220.164V225.984H130.971C131.999 225.984 132.813 225.724 133.412 225.203C134.018 224.676 134.32 223.947 134.32 223.016C134.32 222.137 134.031 221.443 133.451 220.936C132.878 220.421 132.084 220.164 131.068 220.164H127.367ZM127.367 219.158H130.648C131.651 219.139 132.426 218.904 132.973 218.455C133.526 217.999 133.803 217.339 133.803 216.473C133.803 215.561 133.516 214.891 132.943 214.461C132.377 214.025 131.518 213.807 130.365 213.807H127.367V219.158ZM142.25 227.195C141.352 227.195 140.538 226.974 139.809 226.531C139.086 226.089 138.523 225.473 138.119 224.686C137.715 223.891 137.514 223.003 137.514 222.02V221.6C137.514 220.584 137.709 219.669 138.1 218.855C138.497 218.042 139.047 217.404 139.75 216.941C140.453 216.473 141.215 216.238 142.035 216.238C143.318 216.238 144.333 216.678 145.082 217.557C145.837 218.429 146.215 219.624 146.215 221.141V221.795H138.676V222.02C138.676 223.217 139.018 224.217 139.701 225.018C140.391 225.812 141.257 226.209 142.299 226.209C142.924 226.209 143.474 226.095 143.949 225.867C144.431 225.639 144.867 225.275 145.258 224.773L145.99 225.33C145.131 226.574 143.884 227.195 142.25 227.195ZM142.035 217.234C141.156 217.234 140.414 217.557 139.809 218.201C139.21 218.846 138.845 219.712 138.715 220.799H145.053V220.672C145.02 219.656 144.73 218.829 144.184 218.191C143.637 217.553 142.921 217.234 142.035 217.234ZM150.307 213.729V216.434H152.494V217.391H150.307V224.432C150.307 225.018 150.411 225.454 150.619 225.74C150.834 226.027 151.189 226.17 151.684 226.17C151.879 226.17 152.195 226.137 152.631 226.072L152.68 227.029C152.374 227.14 151.957 227.195 151.43 227.195C150.629 227.195 150.046 226.964 149.682 226.502C149.317 226.033 149.135 225.346 149.135 224.441V217.391H147.191V216.434H149.135V213.729H150.307ZM156.732 213.729V216.434H158.92V217.391H156.732V224.432C156.732 225.018 156.837 225.454 157.045 225.74C157.26 226.027 157.615 226.17 158.109 226.17C158.305 226.17 158.62 226.137 159.057 226.072L159.105 227.029C158.799 227.14 158.383 227.195 157.855 227.195C157.055 227.195 156.472 226.964 156.107 226.502C155.743 226.033 155.561 225.346 155.561 224.441V217.391H153.617V216.434H155.561V213.729H156.732ZM165.434 227.195C164.535 227.195 163.721 226.974 162.992 226.531C162.27 226.089 161.706 225.473 161.303 224.686C160.899 223.891 160.697 223.003 160.697 222.02V221.6C160.697 220.584 160.893 219.669 161.283 218.855C161.68 218.042 162.23 217.404 162.934 216.941C163.637 216.473 164.398 216.238 165.219 216.238C166.501 216.238 167.517 216.678 168.266 217.557C169.021 218.429 169.398 219.624 169.398 221.141V221.795H161.859V222.02C161.859 223.217 162.201 224.217 162.885 225.018C163.575 225.812 164.441 226.209 165.482 226.209C166.107 226.209 166.658 226.095 167.133 225.867C167.615 225.639 168.051 225.275 168.441 224.773L169.174 225.33C168.314 226.574 167.068 227.195 165.434 227.195ZM165.219 217.234C164.34 217.234 163.598 217.557 162.992 218.201C162.393 218.846 162.029 219.712 161.898 220.799H168.236V220.672C168.204 219.656 167.914 218.829 167.367 218.191C166.82 217.553 166.104 217.234 165.219 217.234ZM176.557 217.43C176.309 217.384 176.046 217.361 175.766 217.361C175.036 217.361 174.418 217.566 173.91 217.977C173.409 218.38 173.051 218.969 172.836 219.744V227H171.674V216.434H172.816L172.836 218.113C173.454 216.863 174.447 216.238 175.814 216.238C176.14 216.238 176.397 216.281 176.586 216.365L176.557 217.43Z" fill="#EBEBEB"/>
</svg>
