<svg width="139" height="121" viewBox="0 0 139 121" fill="none" xmlns="http://www.w3.org/2000/svg">
<path d="M135.94 90.5574L87.6833 10.5274C85.732 7.47479 83.0436 4.96258 79.8658 3.22239C76.6881 1.48221 73.1234 0.570068 69.5004 0.570068C65.8774 0.570068 62.3127 1.48221 59.135 3.22239C55.9573 4.96258 53.2688 7.47479 51.3175 10.5274L3.06043 90.5574C1.35572 93.3991 0.429181 96.6395 0.37396 99.9528C0.318738 103.266 1.13678 106.536 2.74584 109.432C4.60616 112.693 7.29887 115.402 10.5488 117.281C13.7987 119.16 17.4893 120.143 21.2433 120.128H117.758C121.487 120.168 125.161 119.223 128.409 117.39C131.656 115.556 134.363 112.898 136.255 109.684C137.911 106.757 138.756 103.441 138.7 100.078C138.645 96.7152 137.692 93.4284 135.94 90.5574ZM69.5004 94.9616C68.2561 94.9616 67.0396 94.5926 66.005 93.9012C64.9703 93.2099 64.1639 92.2273 63.6877 91.0776C63.2115 89.928 63.0869 88.6629 63.3297 87.4425C63.5724 86.222 64.1716 85.1009 65.0516 84.221C65.9315 83.3411 67.0525 82.7419 68.273 82.4991C69.4935 82.2564 70.7585 82.381 71.9081 82.8572C73.0578 83.3334 74.0404 84.1398 74.7318 85.1744C75.4231 86.2091 75.7921 87.4255 75.7921 88.6699C75.7921 90.3386 75.1292 91.9389 73.9493 93.1188C72.7694 94.2987 71.1691 94.9616 69.5004 94.9616ZM75.7921 69.7949C75.7921 71.4636 75.1292 73.0639 73.9493 74.2438C72.7694 75.4237 71.1691 76.0866 69.5004 76.0866C67.8318 76.0866 66.2315 75.4237 65.0516 74.2438C63.8716 73.0639 63.2088 71.4636 63.2088 69.7949V44.6282C63.2088 42.9596 63.8716 41.3593 65.0516 40.1794C66.2315 38.9994 67.8318 38.3366 69.5004 38.3366C71.1691 38.3366 72.7694 38.9994 73.9493 40.1794C75.1292 41.3593 75.7921 42.9596 75.7921 44.6282V69.7949Z" fill="#ED3B3B"/>
</svg>
