<svg width="38" height="32" viewBox="0 0 38 32" fill="none" xmlns="http://www.w3.org/2000/svg">
<path d="M17.6497 11.7509C17.6497 11.0191 18.2542 10.4258 18.9999 10.4258C19.7456 10.4258 20.3502 11.0191 20.3502 11.7509V19.6336C20.3502 20.3654 19.7456 20.9587 18.9999 20.9587C18.2542 20.9587 17.6497 20.3654 17.6497 19.6336V11.7509Z" fill="#ED3B3B"/>
<path d="M18.9999 21.8365C18.2554 21.8365 17.6497 22.4271 17.6497 23.1531C17.6497 23.8791 18.2554 24.4697 18.9999 24.4697C19.7444 24.4697 20.3502 23.8791 20.3502 23.1531C20.3502 22.4271 19.7445 21.8365 18.9999 21.8365Z" fill="#ED3B3B"/>
<path fill-rule="evenodd" clip-rule="evenodd" d="M19.0001 0C17.5337 0 16.1576 0.718389 15.382 1.97473L0.587144 25.9388C-0.195714 27.207 -0.195715 28.757 0.587145 30.0252C1.36274 31.2816 2.73886 32 4.20538 32H33.7947C35.2612 32 36.6373 31.2814 37.4129 30.0252C38.1958 28.757 38.1956 27.2069 37.4129 25.9387L22.6182 1.97474C21.8426 0.718364 20.4664 0 19.0001 0ZM18.6628 3.92554C18.7127 3.84461 18.8153 3.76471 19.0001 3.76471L34.1321 28.0744C34.082 28.1555 33.9793 28.2353 33.7947 28.2353H4.20538C4.02052 28.2353 3.91792 28.1554 3.86798 28.0745C3.8392 28.0278 3.83597 27.9974 3.83597 27.982C3.83597 27.9666 3.83924 27.9361 3.86798 27.8895L18.6628 3.92554Z" fill="#ED3B3B"/>
</svg>
