<svg width="22" height="20" viewBox="0 0 22 20" fill="none" xmlns="http://www.w3.org/2000/svg">
<path d="M13.6698 3.15634C12.9413 1.31268 11.168 0 9.09234 0C6.37059 0 4.1712 2.25664 4.1712 5.04425C4.1712 6.50443 4.78978 7.83186 5.76576 8.74631C3.14024 9.74926 1.00958 11.9027 0.143571 14.6608C-0.145099 15.5752 0.00610942 16.5339 0.555957 17.3156C1.1058 18.0826 1.95807 18.5398 2.89281 18.5398H11.3055C11.8416 18.5398 12.2677 18.0973 12.2677 17.5516C12.2677 17.0059 11.8416 16.5634 11.3055 16.5634H2.90655C2.59039 16.5634 2.31547 16.4159 2.12302 16.1504C1.94432 15.885 1.88934 15.5752 1.98556 15.2655C2.94779 12.2271 5.86198 10.1032 9.07859 10.1032C10.5769 10.1032 12.0065 10.5605 13.2299 11.4307C13.6698 11.7404 14.2746 11.6372 14.5771 11.1799C14.8795 10.7375 14.7695 10.118 14.3434 9.80826C13.7385 9.38053 13.0925 9.02655 12.4189 8.76106C13.3124 7.92035 13.9172 6.75516 14.0135 5.44248C13.9997 5.44248 14.0959 4.08555 13.6698 3.15634ZM9.09234 1.9764C10.7419 1.9764 12.089 3.34808 12.089 5.04425C12.089 6.72566 10.7419 8.11209 9.09234 8.11209C7.44279 8.11209 6.09567 6.72566 6.09567 5.04425C6.09567 3.34808 7.44279 1.9764 9.09234 1.9764ZM22 15.3097C22 15.8555 21.5739 16.2979 21.0378 16.2979H18.3848V19.0118C18.3848 19.5575 17.9586 20 17.4225 20C16.8864 20 16.4603 19.5575 16.4603 19.0118V16.2979H13.8073C13.2712 16.2979 12.845 15.8555 12.845 15.3097C12.845 14.764 13.2712 14.3215 13.8073 14.3215H16.4603V11.6077C16.4603 11.0619 16.8864 10.6195 17.4225 10.6195C17.9586 10.6195 18.3848 11.0619 18.3848 11.6077V14.3215H21.0378C21.5739 14.3215 22 14.764 22 15.3097Z" fill="#595959"/>
</svg>
