<svg width="36" height="36" viewBox="0 0 36 36" fill="none" xmlns="http://www.w3.org/2000/svg">
<path d="M22.5066 10.5004C22.5066 6.35619 19.1971 3 15.1106 3C11.0241 3 7.71464 6.35619 7.71464 10.5004C7.71464 14.6446 11.0241 18.0008 15.1106 18.0008C19.1971 18.0008 22.5066 14.6446 22.5066 10.5004Z" fill="white"/>
<path d="M19.9654 19.2646C22.0494 19.3952 23.9783 20.4086 25.2786 22.0527C26.6027 23.7275 27.3298 25.8076 27.3324 27.9517C27.3324 29.5958 26.2779 31.0519 24.7317 31.5399C21.7522 32.4773 18.6597 32.9653 15.558 32.9987C15.4279 33 15.2964 33 15.1662 33C15.036 33 14.9046 33 14.7744 32.9987C11.6714 32.9653 8.58018 32.4786 5.60075 31.5399C4.0545 31.0519 3 29.5958 3 27.9517C3 25.8076 3.72711 23.7275 5.05115 22.0527C6.35153 20.4086 8.28171 19.3952 10.3644 19.2646L10.3802 19.2726C10.3947 19.2719 10.4091 19.2702 10.4236 19.2686C10.438 19.2669 10.4525 19.2652 10.467 19.2646C11.9317 20.0819 13.5476 20.494 15.1649 20.502C16.7822 20.4926 18.3994 20.0806 19.8628 19.2646C19.8821 19.2655 19.9014 19.2675 19.9207 19.2696L19.9496 19.2726L19.9654 19.2646Z" fill="white"/>
<path d="M27.5268 12.041C27.5268 11.4791 27.9671 11.0235 28.5102 11.0235C29.0533 11.0235 29.4936 11.4791 29.4936 12.041V14.6513H32.0166C32.5597 14.6513 33 15.1068 33 15.6687C33 16.2307 32.5597 16.6862 32.0166 16.6862H29.4936V19.2965C29.4936 19.8584 29.0534 20.3139 28.5102 20.3139C27.9671 20.3139 27.5268 19.8584 27.5268 19.2965V16.6862H25.0039C24.4607 16.6862 24.0204 16.2307 24.0204 15.6687C24.0204 15.1068 24.4607 14.6513 25.0039 14.6513H27.5268V12.041Z" fill="white"/>
</svg>
