<svg width="20" height="22" viewBox="0 0 20 22" fill="none" xmlns="http://www.w3.org/2000/svg">
<path d="M10 9.87261C11.3807 9.87261 12.5 8.74144 12.5 7.34607C12.5 5.9507 11.3807 4.81953 10 4.81953C8.61929 4.81953 7.5 5.9507 7.5 7.34607C7.5 8.74144 8.61929 9.87261 10 9.87261Z" fill="#808080"/>
<path d="M7.09414 16.1146C6.21559 15.5819 5.49289 14.8228 5 13.9151C5.025 11.9989 8.333 10.8832 10 10.8832C11.658 10.8832 14.975 11.9989 15 13.9151C14.5071 14.8228 13.7844 15.5819 12.9059 16.1146C12.0273 16.6473 11.0245 16.9346 10 16.9469C8.97552 16.9346 7.97269 16.6473 7.09414 16.1146Z" fill="#808080"/>
<path fill-rule="evenodd" clip-rule="evenodd" d="M10 22C4.443 20.7519 0 15.4532 0 9.87261V5.86157C0 4.62184 0.746853 3.507 1.88583 3.04657L8.88583 0.216848C9.60106 -0.0722825 10.3989 -0.0722827 11.1142 0.216848L18.1142 3.04657C19.2531 3.507 20 4.62184 20 5.86157V9.87261C20 15.4552 15.557 20.7519 10 22ZM3.94663 4.08179C2.77572 4.52555 2 5.65679 2 6.9206V9.87261C2.05715 12.2093 2.87036 14.4627 4.31518 16.2879C5.75999 18.113 7.75681 19.4095 10 19.9788C12.2432 19.4095 14.24 18.113 15.6848 16.2879C17.1296 14.4627 17.9429 12.2093 18 9.87261V6.9206C18 5.65679 17.2243 4.52554 16.0534 4.08179L11.0534 2.18689C10.3742 1.9295 9.62578 1.9295 8.94663 2.18689L3.94663 4.08179Z" fill="#808080"/>
</svg>
