<svg width="25" height="23" viewBox="0 0 25 23" fill="none" xmlns="http://www.w3.org/2000/svg">
<path d="M15.0262 1.39815C14.6388 0.999653 14.0245 1.01536 13.6555 1.43428C13.286 1.85319 13.3016 2.51612 13.689 2.91514L21.1275 10.5347H1.7515C1.21622 10.5347 0.781799 11.0039 0.781799 11.582C0.781799 12.1601 1.21622 12.6292 1.7515 12.6292H21.0965L13.689 20.2493C13.3011 20.6483 13.286 21.3113 13.6555 21.7302C13.846 21.9459 14.1016 22.0548 14.3576 22.0548C14.598 22.0548 14.8385 21.959 15.0262 21.7658L23.4863 13.0628C23.8528 12.6675 24.0545 12.1417 24.0545 11.582C24.0545 11.0222 23.8528 10.4965 23.4693 10.0833L15.0262 1.39815Z" fill="white" stroke="white"/>
</svg>
