<svg width="20" height="20" viewBox="0 0 20 20" fill="none" xmlns="http://www.w3.org/2000/svg">
<path d="M6.56566 20C4.84848 20 3.23232 19.2929 2.0202 18.1818L1.91919 18.0808C0.707071 16.7677 0 15.1515 0 13.4343C0 11.7172 0.707071 10 1.91919 8.78788L8.68687 2.0202C9.89899 0.707071 11.5152 0 13.3333 0C15.0505 0 16.7677 0.707071 17.9798 1.91919L18.0808 2.0202C19.2929 3.23232 20 4.9495 20 6.66667C20 8.38384 19.2929 10.101 18.0808 11.3131L15.1515 14.2424C14.2424 15.1515 13.2323 15.5556 12.1212 15.5556C11.1111 15.5556 10.202 15.1515 9.39394 14.4444C8.68687 13.7374 8.28283 12.8283 8.28283 11.8182C8.28283 10.7071 8.78788 9.59596 9.59596 8.78788L11.3131 7.07071C11.4141 6.9697 11.5152 6.9697 11.6162 6.86869C11.8182 6.76768 12.0202 6.66667 12.2222 6.66667C12.4242 6.66667 12.5253 6.66667 12.6263 6.76768C12.7273 6.86869 12.8283 6.86869 12.9293 6.9697C13.1313 7.17172 13.2323 7.47475 13.2323 7.67677C13.2323 7.87879 13.1313 8.08081 13.0303 8.28283C12.9293 8.38384 12.9293 8.38384 12.9293 8.48485L11.1111 10.303C10.7071 10.7071 10.404 11.2121 10.404 11.8182C10.404 12.2222 10.6061 12.6263 10.9091 12.9293C11.2121 13.2323 11.6162 13.4343 12.1212 13.4343C12.6263 13.4343 13.1313 13.2323 13.5354 12.7273L16.4646 9.89899C17.2727 9.09091 17.7778 7.87879 17.7778 6.66667C17.7778 5.45455 17.2727 4.34343 16.4646 3.43434C15.6566 2.62626 14.5455 2.12121 13.4343 2.12121C12.2222 2.12121 11.1111 2.62626 10.404 3.43434L3.53535 10.202C2.72727 11.0101 2.22222 12.1212 2.22222 13.3333C2.22222 14.4444 2.72727 15.5556 3.53535 16.4646L3.63636 16.5657C4.34343 17.2727 5.65657 17.7778 6.86869 17.7778C7.67677 17.7778 8.18182 17.6768 8.78788 17.3737C8.88889 17.2727 8.9899 17.2727 9.09091 17.1717C9.19192 17.1717 9.29293 17.1717 9.49495 17.1717C9.69697 17.1717 9.89899 17.2727 10.101 17.3737C10.303 17.4747 10.404 17.6768 10.5051 17.8788C10.5051 17.9798 10.6061 18.0808 10.6061 18.1818C10.6061 18.2828 10.6061 18.3838 10.6061 18.4848C10.5051 18.6869 10.404 18.8889 10.202 18.9899C10 19.0909 9.79798 19.1919 9.69697 19.2929C8.68687 19.798 7.77778 20 6.56566 20Z" fill="#909090"/>
</svg>
