<svg width="45" height="41" viewBox="0 0 45 41" fill="none" xmlns="http://www.w3.org/2000/svg">
<path fill-rule="evenodd" clip-rule="evenodd" d="M34.1409 5.91788H33.0175L30.0219 3.30596C29.273 2.37313 28.1496 2 26.839 2H17.6024C16.479 2.18657 15.3556 2.5597 14.6067 3.49253L11.6111 6.10445H10.7373C5.9318 6.10445 2 9.96015 2 14.8109V30.9177C2 35.5197 5.86939 39.251 10.7373 39.251H34.3281C39.1337 39.251 43.0655 35.5819 43.0655 30.7311V14.6243C42.8782 10.0223 38.9464 5.91788 34.1409 5.91788Z" fill="#C7E7BF" stroke="#72CF6B" stroke-width="3"/>
<path d="M22.7827 32.4101C27.815 32.4101 31.8945 28.2616 31.8945 23.144C31.8945 18.0265 27.815 13.8779 22.7827 13.8779C17.7504 13.8779 13.6709 18.0265 13.6709 23.144C13.6709 28.2616 17.7504 32.4101 22.7827 32.4101Z" fill="#72CF6B"/>
<path d="M36.3249 13.7539C37.4623 13.7539 38.3844 12.8351 38.3844 11.7016C38.3844 10.5682 37.4623 9.64941 36.3249 9.64941C35.1875 9.64941 34.2654 10.5682 34.2654 11.7016C34.2654 12.8351 35.1875 13.7539 36.3249 13.7539Z" fill="#72CF6B"/>
</svg>
