<svg width="28" height="24" viewBox="0 0 28 24" fill="none" xmlns="http://www.w3.org/2000/svg">
<path d="M0.666748 18.4719C0.666748 21.4382 3.22567 23.8652 6.32331 23.8652H19.828C19.1058 23.2718 18.5529 22.48 18.2525 21.573H6.32331C4.57247 21.573 3.09099 20.2247 3.09099 18.4719V8.08989C3.09099 6.33708 4.57247 4.98876 6.32331 4.98876H7.93948L10.4984 2.69663C10.6331 2.5618 10.7678 2.5618 10.9024 2.5618H17.0977C17.2324 2.5618 17.3671 2.5618 17.5018 2.69663L20.0607 4.98876H21.6769C23.4277 4.98876 24.9092 6.33708 24.9092 8.08989V15.3774C25.9325 15.8005 26.7848 16.5535 27.3334 17.5039V7.95506C27.3334 4.98876 24.7745 2.42697 21.6769 2.42697H21.0035L19.1179 0.808989C18.5792 0.269663 17.9058 0 17.0977 0H10.9024C10.0944 0 9.42096 0.269663 8.88224 0.808989L6.99671 2.5618H6.32331C3.22567 2.5618 0.666748 4.98876 0.666748 8.08989V18.4719Z" fill="white"/>
<path fill-rule="evenodd" clip-rule="evenodd" d="M8.4782 12.9438C8.4782 15.9101 10.9024 18.3371 13.8654 18.3371C16.8284 18.3371 19.2526 15.9101 19.2526 12.9438C19.2526 9.97753 16.8284 7.55056 13.8654 7.55056C10.9024 7.55056 8.4782 9.97753 8.4782 12.9438ZM10.9024 12.9438C10.9024 11.3258 12.2492 9.97753 13.8654 9.97753C15.6162 9.97753 16.8284 11.3258 16.8284 12.9438C16.8284 14.5618 15.4816 15.9101 13.8654 15.9101C12.2492 15.9101 10.9024 14.5618 10.9024 12.9438Z" fill="white"/>
<path d="M21.0035 8.76404C20.1954 8.76404 19.6567 8.08989 19.6567 7.41573C19.6567 6.60674 20.33 6.06742 21.0035 6.06742C21.6769 6.06742 22.3503 6.74157 22.3503 7.41573C22.3503 8.08989 21.8115 8.76404 21.0035 8.76404Z" fill="white"/>
<path d="M22.2501 17.5906C22.2501 17.1794 22.5881 16.85 23.0001 16.85C23.4121 16.85 23.7501 17.1794 23.7501 17.5906V19.25H25.3906C25.8078 19.25 26.1501 19.5835 26.1501 20C26.1501 20.4164 25.8078 20.75 25.3906 20.75H23.7501V22.4093C23.7501 22.8206 23.4121 23.15 23.0001 23.15C22.5881 23.15 22.2501 22.8206 22.2501 22.4093V20.75H20.6096C20.1924 20.75 19.8501 20.4164 19.8501 20C19.8501 19.5835 20.1924 19.25 20.6096 19.25H22.2501V17.5906Z" fill="white"/>
</svg>
