<svg width="30" height="34" viewBox="0 0 30 34" fill="none" xmlns="http://www.w3.org/2000/svg">
<path d="M7.41615 0.907862C6.85435 0.364046 5.96503 0.364046 5.40324 0.907862C4.80685 1.48517 4.80685 2.4514 5.40324 3.0287L5.99633 3.60282C2.60023 4.41667 0 7.36189 0 10.9897V23.0104C0 27.2834 3.60155 30.6044 7.8755 30.6216L7.88031 30.6216H13.348C14.0936 30.6216 14.8018 30.0234 14.8018 29.1533C14.8018 28.2832 14.0936 27.685 13.348 27.685H7.88336C5.05124 27.6722 2.90749 25.5029 2.90749 23.0104V10.9897C2.90749 9.054 4.1987 7.31454 6.1031 6.62688L5.40324 7.30434C4.80685 7.88164 4.80685 8.84788 5.40324 9.42518C5.96503 9.969 6.85435 9.969 7.41615 9.42518L10.7201 6.22694C11.3165 5.64964 11.3165 4.6834 10.7201 4.1061L7.41615 0.907862Z" fill="white"/>
<path d="M16.652 3.37842C15.9064 3.37842 15.1982 3.97662 15.1982 4.8467C15.1982 5.71677 15.9064 6.31498 16.652 6.31498H22.1064C24.9382 6.31498 27.0925 8.48591 27.0925 10.99V23.01C27.0925 24.9534 25.7967 26.6948 23.8916 27.3783L24.5968 26.6957C25.1931 26.1184 25.1931 25.1521 24.5968 24.5748C24.035 24.031 23.1457 24.031 22.5839 24.5748L19.2799 27.7731C18.6835 28.3504 18.6835 29.3166 19.2799 29.8939L22.5839 33.0921C23.1457 33.636 24.035 33.636 24.5968 33.0921C25.1932 32.5148 25.1932 31.5486 24.5968 30.9713L24.0058 30.3993C27.4007 29.5883 30 26.6403 30 23.01V10.99C30 6.70657 26.3885 3.37842 22.1064 3.37842H16.652Z" fill="white"/>
<path fill-rule="evenodd" clip-rule="evenodd" d="M15 9.13525C10.7875 9.13525 7.26872 12.4541 7.26872 16.6802C7.26872 20.9063 10.7875 24.2251 15 24.2251C19.2125 24.2251 22.7313 20.9063 22.7313 16.6802C22.7313 12.4541 19.2125 9.13525 15 9.13525ZM10.1762 16.6802C10.1762 14.1942 12.2786 12.0718 15 12.0718C17.7214 12.0718 19.8238 14.1942 19.8238 16.6802C19.8238 19.1662 17.7214 21.2886 15 21.2886C12.2786 21.2886 10.1762 19.1662 10.1762 16.6802Z" fill="white"/>
</svg>
