<svg width="22" height="20" viewBox="0 0 22 20" fill="none" xmlns="http://www.w3.org/2000/svg">
<path fill-rule="evenodd" clip-rule="evenodd" d="M4.66667 20C2.11111 20 0 17.9661 0 15.4802V6.77966C0 4.18079 2.11111 2.14689 4.66667 2.14689H5.22222L6.77778 0.677966C7.22222 0.225989 7.77778 0 8.44445 0H13.5556C14.2222 0 14.7778 0.225989 15.2222 0.677966L16.7778 2.0339H17.3333C19.8889 2.0339 22 4.18079 22 6.66667V15.3672C22 17.9661 19.8889 20 17.3333 20H4.66667ZM4.66667 4.18079C3.22222 4.18079 2 5.31073 2 6.77966V15.4802C2 16.9492 3.22222 18.0791 4.66667 18.0791H17.3333C18.7778 18.0791 20 16.9492 20 15.4802V6.77966C20 5.31073 18.7778 4.18079 17.3333 4.18079H16L13.8889 2.25989C13.7778 2.14689 13.6667 2.14689 13.5556 2.14689H8.44445C8.33333 2.14689 8.22222 2.14689 8.11111 2.25989L6 4.18079H4.66667ZM10.8889 15.3672C8.44445 15.3672 6.44445 13.3333 6.44445 10.8475C6.44445 8.36158 8.44445 6.32768 10.8889 6.32768C13.3333 6.32768 15.3333 8.36158 15.3333 10.8475C15.3333 13.3333 13.3333 15.3672 10.8889 15.3672ZM10.8889 8.36158C9.55556 8.36158 8.44445 9.49153 8.44445 10.8475C8.44445 12.2034 9.55556 13.3333 10.8889 13.3333C12.2222 13.3333 13.3333 12.2034 13.3333 10.8475C13.3333 9.49153 12.3333 8.36158 10.8889 8.36158ZM16.7778 7.34463C16.1111 7.34463 15.6667 6.77966 15.6667 6.21469C15.6667 5.53672 16.2222 5.08475 16.7778 5.08475C17.3333 5.08475 17.8889 5.64972 17.8889 6.21469C17.8889 6.77966 17.4444 7.34463 16.7778 7.34463Z" fill="#909090"/>
</svg>
