<svg width="24" height="24" viewBox="0 0 24 24" fill="none" xmlns="http://www.w3.org/2000/svg">
<g clip-path="url(#clip0_6358:14309)">
<path fill-rule="evenodd" clip-rule="evenodd" d="M0.741531 16.3141C1.00148 17.062 1.26441 17.8184 1.25169 18.6185C1.25169 19.4858 1.25169 20.1704 1.00416 20.8225C0.990202 20.8764 0.960039 20.9555 0.924026 21.05C0.743004 21.5248 0.414148 22.3874 1.25169 22.3874C1.42932 22.3874 1.60167 22.261 1.82271 22.0989C2.22643 21.8027 2.7926 21.3875 3.85013 21.4057C4.86676 21.4231 5.44759 21.6578 6.10369 21.9228C6.27398 21.9916 6.44934 22.0624 6.6387 22.132C8.0013 22.605 9.95013 22.909 12.1049 22.909C14.6083 22.909 16.8265 22.5036 18.1891 21.8617C20.7717 20.8144 22.7522 18.5678 23.5761 15.7468C23.9405 14.5306 24.1148 13.2468 24.099 11.963C24.1148 10.6792 23.9405 9.39537 23.5761 8.16225C22.673 5.071 20.3756 2.68921 17.4761 1.79393C16.1135 1.30406 14.1647 1 12.0099 1C9.5065 1 7.28832 1.40541 5.92572 2.04731C3.34312 3.09462 1.3626 5.34127 0.538704 8.16225C0.174286 9.39537 1.07464e-07 10.6792 0 11.963C-1.07464e-07 13.2468 0.174284 14.5306 0.554544 15.7637C0.613935 15.947 0.677643 16.1303 0.741531 16.3141ZM7.10948 14.3645C8.10773 14.3645 8.91697 13.5552 8.91697 12.557C8.91697 11.5587 8.10773 10.7495 7.10948 10.7495C6.11122 10.7495 5.30198 11.5587 5.30198 12.557C5.30198 13.5552 6.11122 14.3645 7.10948 14.3645ZM14.0985 12.557C14.0985 13.5552 13.2892 14.3645 12.291 14.3645C11.2927 14.3645 10.4835 13.5552 10.4835 12.557C10.4835 11.5587 11.2927 10.7495 12.291 10.7495C13.2892 10.7495 14.0985 11.5587 14.0985 12.557ZM17.4725 14.3645C18.4707 14.3645 19.28 13.5552 19.28 12.557C19.28 11.5587 18.4707 10.7495 17.4725 10.7495C16.4742 10.7495 15.665 11.5587 15.665 12.557C15.665 13.5552 16.4742 14.3645 17.4725 14.3645Z" fill="#43B65A"/>
<path fill-rule="evenodd" clip-rule="evenodd" d="M17.6756 20.7715L17.7363 20.745C19.9571 19.8444 21.6924 17.8981 22.4195 15.4089L22.4218 15.4008L22.4218 15.4008C22.75 14.3057 22.9085 13.1438 22.8941 11.9777L22.8941 11.948C22.9085 10.7828 22.7502 9.61918 22.4205 8.50364L22.4195 8.50005C21.6232 5.77434 19.6111 3.71417 17.1206 2.94517L17.0685 2.92776C15.873 2.49797 14.0705 2.20488 12.0099 2.20488C9.59879 2.20488 7.57874 2.6005 6.43927 3.13729L6.37858 3.16387C4.1578 4.06445 2.42241 6.01071 1.6954 8.49995L1.69432 8.50364C1.36464 9.61921 1.20502 10.7875 1.20502 11.9629C1.20502 13.1353 1.36384 14.2955 1.70352 15.4002C1.74603 15.5309 1.79684 15.6755 1.85173 15.8316C2.1145 16.5789 2.47069 17.5919 2.45671 18.6271C2.45671 18.6559 2.45673 18.6849 2.45675 18.7139C2.45712 19.2569 2.45752 19.8425 2.35225 20.4348C2.76826 20.2877 3.26736 20.1903 3.87087 20.2007C5.13013 20.2224 5.93643 20.551 6.6118 20.8262C6.76121 20.8871 6.90421 20.9454 7.04429 20.9971C8.2478 21.413 10.0519 21.7039 12.105 21.7039C14.5161 21.7039 16.5361 21.3083 17.6756 20.7715ZM6.63872 22.1319C6.44936 22.0623 6.274 21.9914 6.10371 21.9227C5.44761 21.6576 4.86678 21.423 3.85015 21.4055C2.79262 21.3874 2.22645 21.8026 1.82273 22.0987C1.60169 22.2609 1.42935 22.3873 1.25171 22.3873C0.414169 22.3873 0.743025 21.5247 0.92405 21.0499C0.960062 20.9554 0.990223 20.8763 1.00418 20.8224C1.25171 20.1703 1.25171 19.4856 1.25171 18.6183C1.26443 17.8183 1.0015 17.0619 0.741551 16.314C0.677664 16.1302 0.613955 15.9469 0.554564 15.7636C0.174304 14.5305 1.98823e-05 13.2467 1.99898e-05 11.9629C2.00972e-05 10.6791 0.174308 9.39526 0.538724 8.16213C1.36262 5.34115 3.34314 3.0945 5.92574 2.04719C7.28834 1.40529 9.50652 0.999884 12.0099 0.999884C14.1647 0.999885 16.1135 1.30394 17.4761 1.79381C20.3756 2.68909 22.673 5.07088 23.5761 8.16214C23.9405 9.39526 24.1148 10.6791 24.099 11.9629C24.1148 13.2467 23.9405 14.5305 23.5761 15.7467C22.7522 18.5677 20.7717 20.8143 18.1891 21.8616C16.8265 22.5035 14.6083 22.9089 12.105 22.9089C9.95015 22.9089 8.00132 22.6049 6.63872 22.1319ZM0.920685 21.2586C0.920868 21.2581 0.926848 21.2544 0.938069 21.2489C0.926111 21.2563 0.9205 21.2591 0.920685 21.2586ZM1.91019 21.9154C1.91018 21.9154 1.91023 21.9146 1.91043 21.9129L1.91019 21.9154Z" fill="#72CF6B"/>
</g>
<defs>
<clipPath id="clip0_6358:14309">
<rect width="24" height="24" fill="white"/>
</clipPath>
</defs>
</svg>
