<svg width="24" height="22" viewBox="0 0 24 22" fill="none" xmlns="http://www.w3.org/2000/svg">
<path d="M7.07999 13.42C8.0741 13.42 8.87999 12.6074 8.87999 11.605C8.87999 10.6026 8.0741 9.79003 7.07999 9.79003C6.08588 9.79003 5.27999 10.6026 5.27999 11.605C5.27999 12.6074 6.08588 13.42 7.07999 13.42Z" fill="#A6A6A6"/>
<path d="M14.04 11.605C14.04 12.6074 13.2341 13.42 12.24 13.42C11.2459 13.42 10.44 12.6074 10.44 11.605C10.44 10.6026 11.2459 9.79003 12.24 9.79003C13.2341 9.79003 14.04 10.6026 14.04 11.605Z" fill="#A6A6A6"/>
<path d="M17.4 13.42C18.3941 13.42 19.2 12.6074 19.2 11.605C19.2 10.6026 18.3941 9.79003 17.4 9.79003C16.4059 9.79003 15.6 10.6026 15.6 11.605C15.6 12.6074 16.4059 13.42 17.4 13.42Z" fill="#A6A6A6"/>
<path fill-rule="evenodd" clip-rule="evenodd" d="M6.07838 21.0096C6.24796 21.0787 6.42259 21.1498 6.61117 21.2197C7.96812 21.6947 9.90886 22 12.0547 22C14.5477 22 16.7567 21.5929 18.1137 20.9483C20.6855 19.8967 22.6578 17.6407 23.4783 14.808C23.8412 13.5867 24.0148 12.2976 23.999 11.0085C24.0148 9.71935 23.8412 8.43023 23.4783 7.19198C22.579 4.0879 20.2911 1.69622 17.4036 0.797226C16.0467 0.305322 14.1059 0 11.9601 0C9.46707 0 7.25809 0.407094 5.90114 1.05166C3.32926 2.10332 1.35695 4.35929 0.536471 7.19198C0.173565 8.43022 0 9.71935 0 11.0085C0 12.2976 0.173562 13.5867 0.552244 14.825C0.61137 15.009 0.674791 15.193 0.738391 15.3775C0.997259 16.1285 1.25916 16.8883 1.2465 17.6916C1.2465 18.2303 1.2465 18.6988 1.18817 19.1328C1.17496 19.2311 1.15876 19.3276 1.13888 19.4228C1.10464 19.5868 1.0595 19.7467 1 19.9048C0.986096 19.9589 0.95606 20.0384 0.920197 20.1332C0.739923 20.61 0.412431 21.4762 1.2465 21.4762C1.4234 21.4762 1.59503 21.3493 1.81515 21.1865C2.04125 21.0192 2.31852 20.8142 2.70521 20.67C2.75532 20.6513 2.80727 20.6336 2.86119 20.6172C2.8806 20.6113 2.90026 20.6055 2.92018 20.5999L2.92234 20.5993C3.17892 20.5276 3.47866 20.4842 3.83416 20.4904C4.84658 20.5079 5.425 20.7435 6.07838 21.0096ZM17.347 19.0421L17.2443 19.0875C16.2651 19.5526 14.3915 19.943 12.0547 19.943C10.082 19.943 8.38651 19.6603 7.29815 19.2828C7.18762 19.2413 7.06704 19.1914 6.93512 19.1368C6.26307 18.8585 5.29671 18.4584 3.86924 18.4337C3.66373 18.4301 3.46791 18.4374 3.28131 18.4538C3.2873 18.2283 3.28695 18.015 3.28664 17.8185L3.2865 17.7055C3.30102 16.4957 2.87758 15.2927 2.61949 14.5595C2.57183 14.4241 2.52981 14.3047 2.49723 14.2043C2.18731 13.1853 2.04 12.1073 2.04 11.0085C2.04 9.90447 2.18874 8.81253 2.49284 7.77496L2.49466 7.76866C3.15112 5.50226 4.70843 3.75907 6.66778 2.95788L6.77052 2.91251C7.74972 2.44738 9.62328 2.057 11.9601 2.057C13.9464 2.057 15.6394 2.34359 16.7135 2.73293L16.8018 2.76267C18.9968 3.44608 20.8016 5.28874 21.5202 7.76883L21.522 7.77495C21.826 8.81248 21.9725 9.89637 21.9592 10.9831V11.0339C21.9725 12.122 21.8256 13.2031 21.5242 14.2176L21.5201 14.2313C20.8637 16.4977 19.3064 18.2409 17.347 19.0421Z" fill="#A6A6A6"/>
</svg>
