<svg width="24" height="24" viewBox="0 0 24 24" fill="none" xmlns="http://www.w3.org/2000/svg">
<path fill-rule="evenodd" clip-rule="evenodd" d="M12 23C5.92132 23 1 18.0787 1 12C1.02013 5.93138 5.93138 1.02013 12 1C18.0686 1 23 5.92132 23 12C23 18.0787 18.0787 23 12 23ZM16.8912 8.28632C17.3139 8.44735 17.6259 8.81972 17.6964 9.2726C17.7668 9.71542 17.5857 10.1784 17.2334 10.4602L11.034 15.5123C10.8025 15.6935 10.5207 15.7941 10.2288 15.7941C9.85647 15.7941 9.50423 15.6331 9.26269 15.3513L6.59572 12.2314C6.37431 11.9698 6.26361 11.6477 6.2938 11.3055C6.32399 10.9634 6.47495 10.6614 6.73662 10.44C6.96809 10.2488 7.25995 10.1381 7.56187 10.1381C7.93424 10.1381 8.28648 10.2991 8.52802 10.5809L10.3899 12.7648L15.6332 8.49767C15.8546 8.30645 16.1465 8.20581 16.4384 8.20581C16.5994 8.20581 16.7503 8.236 16.8912 8.28632Z" fill="#43B65A"/>
</svg>
