<svg width="14" height="14" viewBox="0 0 14 14" fill="none" xmlns="http://www.w3.org/2000/svg">
<path d="M13.2953 0.704698C13.6845 1.09389 13.6845 1.7249 13.2953 2.11409L8.4094 7L13.2953 11.8859C13.6845 12.2751 13.6845 12.9061 13.2953 13.2953C12.9061 13.6845 12.2751 13.6845 11.8859 13.2953L7 8.4094L2.11409 13.2953C1.7249 13.6845 1.09389 13.6845 0.704698 13.2953C0.315504 12.9061 0.315504 12.2751 0.704698 11.8859L5.5906 7L0.704698 2.11409C0.315504 1.7249 0.315504 1.09389 0.704698 0.704698C1.09389 0.315504 1.7249 0.315504 2.11409 0.704698L7 5.5906L11.8859 0.704698C12.2751 0.315504 12.9061 0.315504 13.2953 0.704698Z" fill="#A6A6A6"/>
</svg>
