<svg width="24" height="24" viewBox="0 0 24 24" fill="none" xmlns="http://www.w3.org/2000/svg">
<path fill-rule="evenodd" clip-rule="evenodd" d="M7.88388 8.61175C7.88388 6.36089 9.69111 4.55999 11.9469 4.55999C14.2027 4.55999 16.0099 6.36089 16.0099 8.61175C16.0099 9.61113 15.5713 10.5086 15.0206 11.2293C15.8617 11.4984 16.5308 12.0163 17.0241 12.7033C17.8037 13.7047 18.1305 14.9182 18.239 16.1076L18.24 16.1185V16.1294C18.24 17.2803 17.547 18.3329 16.4828 18.6866L16.4775 18.6883C15.0857 19.1153 13.5734 19.44 12.1593 19.44H11.8407C10.3316 19.44 8.92272 19.2251 7.51195 18.6848C6.45072 18.3294 5.75999 17.2784 5.75999 16.1294C5.75999 14.9083 6.20429 13.6979 6.86242 12.7136L6.87048 12.7016L6.87994 12.6906C7.44698 12.031 8.10563 11.5214 8.85779 11.2471C8.23619 10.5101 7.88388 9.60522 7.88388 8.61175ZM11.9469 6.31057C10.6982 6.31057 9.63822 7.36849 9.63822 8.61175C9.63822 9.85501 10.6982 10.9129 11.9469 10.9129C13.1955 10.9129 14.2556 9.85501 14.2556 8.61175C14.2556 7.36849 13.1955 6.31057 11.9469 6.31057ZM14.2181 12.6755C13.4693 13.0879 12.7114 13.2988 11.9469 13.2988C11.1781 13.2988 10.4202 13.085 9.58821 12.7771C9.02588 12.8838 8.48256 13.1703 8.11553 13.7149C7.70598 14.4314 7.40813 15.2346 7.40813 16.1294C7.40813 16.3482 7.47461 16.5688 7.58387 16.7431C7.69433 16.9193 7.83445 17.0276 7.96954 17.0612L7.97846 17.0635L7.98718 17.0664C9.23843 17.4822 10.4872 17.6894 11.7345 17.6894H12.0531C13.3003 17.6894 14.5492 17.4822 15.8004 17.0664L15.8091 17.0635L15.818 17.0612C15.9515 17.028 16.0905 16.9216 16.2004 16.7354C16.3092 16.5508 16.3795 16.3025 16.3795 16.0235C16.3795 15.1103 16.1772 14.3174 15.6848 13.6275C15.3078 13.1598 14.7582 12.7907 14.2181 12.6755Z" fill="#A6A6A6"/>
<path fill-rule="evenodd" clip-rule="evenodd" d="M3.6 0H20.4C22.44 0 24 1.56 24 3.6V20.4C24 22.44 22.44 24 20.4 24H3.6C1.56 24 0 22.44 0 20.4V3.6C0 1.56 1.56 0 3.6 0ZM20.4 21.96C21.24 21.96 21.96 21.24 21.96 20.4V3.6C21.96 2.76 21.24 2.04 20.4 2.04H3.6C2.76 2.04 2.04 2.76 2.04 3.6V20.4C2.04 21.24 2.76 21.96 3.6 21.96H20.4Z" fill="#A6A6A6"/>
</svg>
