<svg width="24" height="24" viewBox="0 0 24 24" fill="none" xmlns="http://www.w3.org/2000/svg">
<path fill-rule="evenodd" clip-rule="evenodd" d="M20.4 0H3.6C1.56 0 0 1.56 0 3.6V20.4C0 22.44 1.56 24 3.6 24H20.4C22.44 24 24 22.44 24 20.4V3.6C24 1.56 22.44 0 20.4 0ZM12 5.28C13.8 5.28 15.36 6.72 15.36 8.64C15.36 10.56 13.8 11.88 12 11.88C10.2 11.88 8.64 10.44 8.64 8.52C8.64 6.6 10.08 5.28 12 5.28ZM16.68 18C15.24 18.48 13.8 18.72 12.24 18.72C12.12 18.72 12.12 18.72 12 18.72C11.88 18.72 11.88 18.72 11.76 18.72C10.32 18.72 8.76 18.48 7.32 18C6.6 17.76 6.12 17.04 6.12 16.2C6.12 15.12 6.48 14.04 7.08 13.2C7.68 12.36 8.64 11.88 9.6 11.76C10.32 12.12 11.04 12.36 11.88 12.36C12.6 12.36 13.44 12.12 14.16 11.76C15.12 11.88 16.08 12.36 16.68 13.2C17.28 14.04 17.64 15.12 17.64 16.2C17.88 17.04 17.4 17.76 16.68 18Z" fill="#43B65A"/>
<path fill-rule="evenodd" clip-rule="evenodd" d="M3.6 1.2C2.22274 1.2 1.2 2.22274 1.2 3.6V20.4C1.2 21.7773 2.22274 22.8 3.6 22.8H20.4C21.7773 22.8 22.8 21.7773 22.8 20.4V3.6C22.8 2.22274 21.7773 1.2 20.4 1.2H3.6ZM0 3.6C0 1.56 1.56 0 3.6 0H20.4C22.44 0 24 1.56 24 3.6V20.4C24 22.44 22.44 24 20.4 24H3.6C1.56 24 0 22.44 0 20.4V3.6Z" fill="#72CF6B"/>
</svg>
