<svg width="24" height="29" viewBox="0 0 24 29" fill="none" xmlns="http://www.w3.org/2000/svg">
<path fill-rule="evenodd" clip-rule="evenodd" d="M5.07505 28.1333H19.325C21.6861 28.1333 23.6 26.2618 23.6 23.9533V8.96468C23.6 7.85607 23.1496 6.79288 22.3479 6.00897L17.7272 1.49089C16.9254 0.706992 15.8381 0.266602 14.7043 0.266602H5.07505C2.71403 0.266602 0.800049 2.13805 0.800049 4.4466V23.9533C0.800049 26.2618 2.71403 28.1333 5.07505 28.1333ZM5.07505 12.4583C5.07505 11.8811 5.55354 11.4133 6.1438 11.4133H18.2563C18.8465 11.4133 19.325 11.8811 19.325 12.4583C19.325 13.0354 18.8465 13.5033 18.2563 13.5033H6.1438C5.55354 13.5033 5.07505 13.0354 5.07505 12.4583ZM6.1438 15.5933C5.55354 15.5933 5.07505 16.0611 5.07505 16.6383C5.07505 17.2154 5.55354 17.6833 6.1438 17.6833H16.8313C17.4215 17.6833 17.9 17.2154 17.9 16.6383C17.9 16.0611 17.4216 15.5933 16.8313 15.5933H6.1438ZM5.07505 20.8183C5.07505 20.2411 5.55354 19.7733 6.1438 19.7733H15.4063C15.9965 19.7733 16.475 20.2411 16.475 20.8183C16.475 21.3954 15.9965 21.8633 15.4063 21.8633H6.1438C5.55354 21.8633 5.07505 21.3954 5.07505 20.8183ZM22.175 7.23327H17.9C17.113 7.23327 16.475 6.60945 16.475 5.83993V1.65993L22.175 7.23327Z" fill="white"/>
</svg>
