<svg width="12" height="14" viewBox="0 0 12 14" fill="none" xmlns="http://www.w3.org/2000/svg">
<path fill-rule="evenodd" clip-rule="evenodd" d="M2.25 14H9.75C10.9926 14 12 13.0598 12 11.9V4.36985C12 3.81289 11.7629 3.27875 11.341 2.88492L8.90901 0.615075C8.48705 0.221249 7.91476 0 7.31802 0H2.25C1.00736 0 0 0.940202 0 2.1V11.9C0 13.0598 1.00736 14 2.25 14ZM2.25 6.125C2.25 5.83505 2.50184 5.6 2.8125 5.6H9.1875C9.49816 5.6 9.75 5.83505 9.75 6.125C9.75 6.41495 9.49816 6.65 9.1875 6.65H2.8125C2.50184 6.65 2.25 6.41495 2.25 6.125ZM2.8125 7.7C2.50184 7.7 2.25 7.93505 2.25 8.225C2.25 8.51495 2.50184 8.75 2.8125 8.75H8.4375C8.74816 8.75 9 8.51495 9 8.225C9 7.93505 8.74816 7.7 8.4375 7.7H2.8125ZM2.25 10.325C2.25 10.0351 2.50184 9.8 2.8125 9.8H7.6875C7.99816 9.8 8.25 10.0351 8.25 10.325C8.25 10.6149 7.99816 10.85 7.6875 10.85H2.8125C2.50184 10.85 2.25 10.6149 2.25 10.325ZM11.25 3.5H9C8.58579 3.5 8.25 3.1866 8.25 2.8V0.7L11.25 3.5Z" fill="#A6A6A6"/>
</svg>
