<svg width="22" height="22" viewBox="0 0 22 22" fill="none" xmlns="http://www.w3.org/2000/svg">
<path d="M11 4.67233C10.4156 4.67233 9.94187 5.14607 9.94187 5.73045V13.3577L6.80027 10.2422C6.38301 9.82846 5.70975 9.82987 5.29423 10.2454C4.87747 10.6622 4.87747 11.3378 5.29423 11.7546L10.3235 16.7838C10.6971 17.1575 11.3029 17.1575 11.6765 16.7838L16.7058 11.7546C17.1225 11.3378 17.1225 10.6622 16.7058 10.2454C16.2902 9.82987 15.617 9.82846 15.1997 10.2422L12.0581 13.3577V5.73045C12.0581 5.14607 11.5844 4.67233 11 4.67233Z" fill="#A6A6A6"/>
<path fill-rule="evenodd" clip-rule="evenodd" d="M11 0C4.92487 0 0 4.92487 0 11C0 17.0751 4.92487 22 11 22C17.0751 22 22 17.0751 22 11C22 4.92487 17.0751 0 11 0ZM1.97573 11C1.97573 6.01603 6.01603 1.97573 11 1.97573C15.984 1.97573 20.0243 6.01603 20.0243 11C20.0243 15.984 15.984 20.0243 11 20.0243C6.01603 20.0243 1.97573 15.984 1.97573 11Z" fill="#A6A6A6"/>
</svg>
