<svg width="18" height="18" viewBox="0 0 18 18" fill="none" xmlns="http://www.w3.org/2000/svg">
<path d="M16.1864 0.514303L17.4687 1.79786C17.8114 2.14089 18 2.59661 18 3.08125C18 3.56688 17.8114 4.02243 17.4687 4.36463L15.5935 6.24168L11.7471 2.39135L13.6222 0.514303C14.3068 -0.170936 15.501 -0.171933 16.1864 0.514303Z" fill="#EBEBEB"/>
<path d="M1.12084 13.0279L10.4642 3.67521L14.3099 7.52581L4.96658 16.8784C4.90682 16.9382 4.83162 16.9801 4.74995 16.999L0.556938 17.9882C0.522576 17.9963 0.487218 18 0.45269 18C0.333999 18 0.217965 17.9528 0.132807 17.8666C0.0220845 17.7559 -0.0240636 17.5944 0.0121245 17.4418L1.00033 13.2448C1.01942 13.1622 1.06108 13.0869 1.12084 13.0279Z" fill="#EBEBEB"/>
</svg>
