<svg width="19" height="19" viewBox="0 0 19 19" fill="none" xmlns="http://www.w3.org/2000/svg">
<path d="M17.6546 3.41611L14.7527 0.42055C14.6239 0.287243 14.4709 0.181477 14.3024 0.109312C14.134 0.0371467 13.9534 0 13.771 0C13.5886 0 13.408 0.0371467 13.2396 0.109312C13.0711 0.181477 12.9181 0.287243 12.7893 0.42055L0.983497 12.6783L0.0276639 16.9539C-0.0130568 17.1611 -0.0087761 17.3751 0.040199 17.5805C0.0891741 17.7858 0.181626 17.9774 0.310904 18.1414C0.440183 18.3055 0.603075 18.4379 0.787864 18.5292C0.972654 18.6205 1.17475 18.6684 1.37961 18.6694C1.48549 18.6815 1.59234 18.6815 1.69822 18.6694L5.87461 17.7183L17.6546 5.44277C17.7837 5.30983 17.8862 5.15189 17.9561 4.97801C18.026 4.80412 18.062 4.6177 18.062 4.42944C18.062 4.24117 18.026 4.05476 17.9561 3.88087C17.8862 3.70698 17.7837 3.54905 17.6546 3.41611ZM4.97905 16.0739L1.82739 16.7939L2.55933 13.5672L11.446 4.33166L13.8743 6.83833L4.97905 16.0739ZM14.8474 5.83388L12.4191 3.32722L13.7538 1.92277L16.1993 4.44722L14.8474 5.83388Z" fill="#1B1F24"/>
</svg>
