<svg width="22" height="20" viewBox="0 0 22 20" fill="none" xmlns="http://www.w3.org/2000/svg">
<path fill-rule="evenodd" clip-rule="evenodd" d="M11.1493 8.45771C9.55656 8.45771 8.26244 9.75124 8.26244 11.4428C8.26244 13.1343 9.55656 14.4279 11.1493 14.4279C12.7421 14.4279 14.0362 13.1343 14.0362 11.4428C14.0362 9.75124 12.7421 8.45771 11.1493 8.45771ZM17.2217 2.08955H16.6244L15.0317 0.696517C14.6335 0.199005 14.0362 0 13.3394 0H8.36199C7.76471 0.0995025 7.16742 0.298507 6.76923 0.79602L5.17647 2.18905H4.67873C2.0905 2.18905 0 4.27861 0 6.86567V15.5224C0 18.01 2.0905 20 4.67873 20H17.3213C19.9095 20 22 18.01 22 15.4229V6.76617C21.9005 4.27861 19.81 2.08955 17.2217 2.08955ZM11.1493 16.3184C8.46154 16.3184 6.27149 14.1294 6.27149 11.3433C6.27149 8.55721 8.46154 6.36816 11.1493 6.36816C13.8371 6.36816 16.0271 8.55721 16.0271 11.3433C16.0271 14.1294 13.8371 16.3184 11.1493 16.3184ZM18.4163 6.26866C17.7195 6.26866 17.3213 5.67164 17.3213 5.17413C17.3213 4.47761 17.9186 4.0796 18.4163 4.0796C19.0136 4.0796 19.5113 4.67662 19.5113 5.17413C19.5113 5.67164 19.0136 6.26866 18.4163 6.26866Z" fill="#EBEBEB"/>
</svg>
