<svg width="22" height="22" viewBox="0 0 22 22" fill="none" xmlns="http://www.w3.org/2000/svg">
<path d="M7.14845 7.70311C6.17848 7.70311 5.39216 8.48943 5.39216 9.45941C5.39216 10.4294 6.17848 11.2157 7.14845 11.2157C8.11842 11.2157 8.90474 10.4294 8.90474 9.45941C8.90474 8.48943 8.11842 7.70311 7.14845 7.70311Z" fill="#909090"/>
<path d="M14.8515 7.70316C13.8815 7.70316 13.0952 8.48948 13.0952 9.45945C13.0952 10.4294 13.8815 11.2157 14.8515 11.2157C15.8214 11.2157 16.6078 10.4294 16.6078 9.45945C16.6078 8.48948 15.8214 7.70316 14.8515 7.70316Z" fill="#909090"/>
<path d="M14.1227 13.4743C13.797 13.0379 13.1792 12.9481 12.7428 13.2738L12.695 13.3118C11.6842 14.0457 10.3158 14.0458 9.30511 13.3118C8.8931 12.9625 8.27561 13.0097 7.92163 13.4193C7.56554 13.8312 7.61086 14.4538 8.02272 14.8099C8.04042 14.8252 8.0585 14.8397 8.07686 14.8535C9.80262 16.1718 12.1974 16.1719 13.9231 14.8535C14.3587 14.5276 14.4482 13.9104 14.1227 13.4743Z" fill="#909090"/>
<path fill-rule="evenodd" clip-rule="evenodd" d="M11 0C4.92487 0 0 4.92487 0 11C0 17.0751 4.92487 22 11 22C17.0751 22 22 17.0751 22 11C21.9936 4.92771 17.0723 0.00649135 11 0ZM1.97198 11C1.97198 6.01396 6.01396 1.97198 11 1.97198C15.986 1.97198 20.0279 6.01383 20.028 10.9998C20.0226 15.9837 15.9837 20.0226 10.9998 20.028C6.01383 20.0279 1.97198 15.986 1.97198 11Z" fill="#909090"/>
</svg>
