<svg width="16" height="20" viewBox="0 0 16 20" fill="none" xmlns="http://www.w3.org/2000/svg">
<path d="M12.2861 11.0332C12.0901 11.0332 11.9306 11.0993 11.8076 11.2314C11.6868 11.3636 11.6093 11.5527 11.5751 11.7988H12.9492V11.7202C12.9446 11.5015 12.8854 11.3328 12.7714 11.2144C12.6575 11.0936 12.4957 11.0332 12.2861 11.0332Z" fill="white"/>
<path fill-rule="evenodd" clip-rule="evenodd" d="M3 20H13C14.6569 20 16 18.6569 16 17V6.24264C16 5.44699 15.6839 4.68393 15.1213 4.12132L11.8787 0.878679C11.3161 0.31607 10.553 0 9.75736 0H3C1.34315 0 0 1.34315 0 3V17C0 18.6569 1.34315 20 3 20ZM15 5H12C11.4477 5 11 4.55228 11 4V1L15 5ZM14.1351 14H15.1263V8.75H14.1351V14ZM3.87476 11.8433H1.90601V13.1763H4.21655V13.706L5.14272 12.1133L4.09341 10.3018H5.15298L5.76138 11.4058L6.38345 10.3018H7.4396L6.38687 12.1133L7.48403 14H6.42446L5.7648 12.8379L5.10855 14H0.880615V9.02344H4.20972V9.854H1.90601V11.04H3.87476V11.8433ZM9.42876 13.1216C9.31483 13.2218 9.16672 13.272 8.98442 13.272C8.74744 13.272 8.57085 13.1888 8.45464 13.0225C8.33843 12.8561 8.28032 12.5827 8.28032 12.2021V12.0996C8.28032 11.7236 8.33843 11.4525 8.45464 11.2861C8.57313 11.1175 8.74744 11.0332 8.97759 11.0332C9.16444 11.0332 9.31483 11.0936 9.42876 11.2144C9.54269 11.3328 9.60194 11.4878 9.60649 11.6792H10.5328C10.5282 11.2417 10.3858 10.8919 10.1055 10.6299C9.82752 10.3656 9.45724 10.2334 8.99468 10.2334C8.46603 10.2334 8.05018 10.4032 7.74712 10.7427C7.44406 11.0822 7.29253 11.5368 7.29253 12.1064V12.1714C7.29253 12.7638 7.4452 13.2287 7.75054 13.5659C8.05588 13.9009 8.47287 14.0684 9.00151 14.0684C9.28407 14.0684 9.54155 14.0114 9.77397 13.8975C10.0087 13.7812 10.1932 13.6195 10.3277 13.4121C10.4621 13.2025 10.5305 12.9723 10.5328 12.7217H9.60649C9.60194 12.888 9.54269 13.0213 9.42876 13.1216ZM12.3989 14.0684C11.8566 14.0684 11.4145 13.902 11.0727 13.5693C10.7332 13.2367 10.5634 12.7935 10.5634 12.2397V12.144C10.5634 11.7726 10.6352 11.4411 10.7788 11.1494C10.9223 10.8555 11.1251 10.6299 11.3872 10.4727C11.6515 10.3132 11.9523 10.2334 12.2895 10.2334C12.7954 10.2334 13.193 10.3929 13.4824 10.7119C13.774 11.0309 13.9199 11.4832 13.9199 12.0688V12.4722H11.5649C11.5968 12.7137 11.6925 12.9074 11.852 13.0532C12.0138 13.1991 12.2177 13.272 12.4638 13.272C12.8444 13.272 13.1417 13.1341 13.3559 12.8584L13.8413 13.4019C13.6931 13.6115 13.4926 13.7756 13.2397 13.894C12.9868 14.0103 12.7065 14.0684 12.3989 14.0684Z" fill="white"/>
</svg>
