<svg width="22" height="20" viewBox="0 0 22 20" fill="none" xmlns="http://www.w3.org/2000/svg">
<path d="M14.3925 14.2045C13.8303 14.2045 13.2681 14.6591 13.2681 15.2273V16.7045C13.2681 17.3864 12.5935 18.0682 11.9188 18.0682H3.59814C2.81104 18.0682 2.24884 17.5 2.24884 16.7045V3.29545C2.24884 2.61364 2.92349 1.93182 3.59814 1.93182H11.9188C12.7059 1.93182 13.2681 2.5 13.2681 3.29545V4.77273C13.2681 5.34091 13.7179 5.79545 14.3925 5.79545C15.0672 5.79545 15.517 5.34091 15.517 4.77273V3.29545C15.517 1.47727 13.9428 0 11.9188 0H3.59814C1.57418 0 0 1.47727 0 3.29545V16.7045C0 18.5227 1.57418 20 3.59814 20H11.9188C13.9428 20 15.517 18.5227 15.517 16.7045V15.2273C15.517 14.6591 14.9548 14.2045 14.3925 14.2045ZM21.8137 9.31818C21.5888 9.09091 21.3639 8.86364 21.139 8.63636C20.5768 8.06818 20.0146 7.61364 19.4524 7.04545C19.1151 6.81818 18.8902 6.59091 18.4404 6.59091C17.8782 6.59091 17.316 7.04545 17.316 7.61364C17.316 8.06818 17.6534 8.29545 17.8782 8.52273C18.1031 8.75 18.328 8.86364 18.5529 9.09091H9.22022C8.65802 9.09091 8.09581 9.54545 8.09581 10.1136C8.09581 10.6818 8.54557 11.1364 9.22022 11.1364H18.6653C18.4404 11.3636 18.2156 11.5909 17.9907 11.8182C17.7658 12.0455 17.5409 12.1591 17.4285 12.5C17.316 12.7273 17.4285 12.9545 17.5409 13.1818C17.8782 13.75 18.7778 13.8636 19.2275 13.4091C19.6773 12.9545 20.2395 12.5 20.6893 12.0455C21.139 11.5909 21.5888 11.1364 21.9261 10.6818C22.0386 10.1136 22.0386 9.65909 21.8137 9.31818Z" fill="#808080"/>
</svg>
