<svg width="14" height="14" viewBox="0 0 14 14" fill="none" xmlns="http://www.w3.org/2000/svg">
<path d="M2.64059 0.709605C2.10721 0.176225 1.24243 0.176225 0.709056 0.709605C0.175676 1.24298 0.175678 2.10776 0.709056 2.64114L5.06767 6.99976L0.709056 11.3584C0.175676 11.8918 0.175676 12.7565 0.709056 13.2899C1.24244 13.8233 2.10722 13.8233 2.64059 13.2899L6.99921 8.9313L11.3578 13.2899C11.8912 13.8233 12.756 13.8233 13.2894 13.2899C13.8227 12.7565 13.8227 11.8918 13.2894 11.3584L8.93075 6.99976L13.2894 2.64114C13.8227 2.10776 13.8227 1.24298 13.2894 0.709605C12.756 0.176225 11.8912 0.176227 11.3578 0.709606L6.99921 5.06822L2.64059 0.709605Z" fill="#BBBBBB"/>
</svg>
