<svg width="20" height="18" viewBox="0 0 20 18" fill="none" xmlns="http://www.w3.org/2000/svg">
<path d="M18.8732 9.04663C18.3099 8.39378 17.6526 7.8342 16.9014 7.5544C17.4648 6.80829 17.7465 5.96891 17.7465 5.12953C17.7465 2.79793 15.8685 0.932643 13.5211 0.932643C12.6761 0.932643 11.9249 1.21244 11.1737 1.58549C10.2347 0.559586 9.01408 0 7.60563 0C4.97653 0 2.8169 2.14508 2.8169 4.75648C2.8169 5.78238 3.19249 6.80829 3.84977 7.64767C2.8169 8.02073 1.97183 8.67358 1.40845 9.51295C0.469484 10.7254 0 12.2176 0 13.7098C0 14.7358 0.375587 15.6684 1.12676 16.4145C1.87793 17.1606 3.09859 17.4404 4.13146 17.6269H4.31925C5.44601 17.9067 6.57277 18 7.60563 18C9.38967 18 11.1737 17.7202 12.8638 17.1606C13.1455 17.0674 13.3333 16.8808 13.615 16.6943C13.8028 16.601 13.8967 16.5078 14.0845 16.4145C14.2723 16.3212 14.554 16.3212 14.8357 16.3212C14.9296 16.3212 15.1174 16.3212 15.2113 16.3212C15.7746 16.228 16.338 16.1347 16.8075 16.0415C18.0282 15.7617 20 14.829 20 12.6839C20 11.285 19.6244 10.0725 18.8732 9.04663ZM10.7042 5.31606V5.40933C10.6103 5.96891 10.3286 6.5285 9.85916 6.99482C9.29578 7.64767 8.4507 7.92746 7.60563 7.92746C5.91549 7.92746 4.50704 6.5285 4.50704 4.75648C4.50704 2.98446 5.91549 1.67876 7.60563 1.67876C8.5446 1.67876 9.48357 2.05181 10.0469 2.79793C10.4225 3.26425 10.7042 3.9171 10.7042 4.56995C10.7042 4.66321 10.7042 4.75648 10.7042 4.75648C10.7981 4.94301 10.7042 5.12953 10.7042 5.31606ZM5.16432 9.1399C6.66667 9.97927 8.5446 9.97927 10.0469 9.1399C10.1408 9.1399 10.3286 9.1399 10.4225 9.23316C11.2676 9.41969 12.0188 9.88601 12.5822 10.6321C13.2394 11.4715 13.615 12.5907 13.615 13.7098C13.615 14.7358 12.9577 15.3886 11.7371 15.7617C9.76526 16.3212 7.60563 16.4145 5.53991 16.1347H5.44601C3.84977 15.9482 1.78404 15.5751 1.78404 13.7098C1.78404 12.5907 2.15962 11.4715 2.8169 10.6321C3.28639 9.69948 4.22535 9.23316 5.16432 9.1399ZM13.8967 9.60622C13.8967 9.51295 13.8028 9.51295 13.8028 9.41969C14.3662 9.41969 14.9296 9.23316 15.493 8.8601C16.2441 8.95337 16.9953 9.32642 17.4648 9.97927C18.0282 10.7254 18.3099 11.5648 18.3099 12.4974C18.3099 13.4301 17.5587 13.8964 16.9014 14.0829C16.6197 14.1762 16.2441 14.2694 15.8685 14.3627C15.7746 14.3627 15.3991 14.456 15.1174 14.456C15.1174 14.456 15.1174 14.456 15.1174 14.3627C15.1174 14.0829 15.2113 13.8964 15.2113 13.6166C15.2113 12.2176 14.7418 10.7254 13.8967 9.60622ZM11.9249 6.99482C12.3005 6.34197 12.4883 5.59586 12.4883 4.75648C12.4883 4.10363 12.3944 3.54404 12.1127 2.98446C12.4883 2.70466 13.0516 2.51813 13.5211 2.51813C14.9296 2.51813 16.0563 3.63731 16.0563 5.03627C16.0563 6.43523 14.9296 7.5544 13.5211 7.5544C12.9577 7.5544 12.3944 7.36788 11.9249 6.99482Z" fill="#808080"/>
</svg>
