<svg width="167" height="167" viewBox="0 0 167 167" fill="none" xmlns="http://www.w3.org/2000/svg">
<mask id="mask0" style="mask-type:alpha" maskUnits="userSpaceOnUse" x="0" y="0" width="168" height="168">
<path fill-rule="evenodd" clip-rule="evenodd" d="M167 83.5894C167.014 106.049 157.944 127.564 141.852 143.238C140.765 144.325 139.605 145.34 138.446 146.355C106.991 173.882 60.0194 173.882 28.5643 146.355C27.4046 145.34 26.2449 144.325 25.1577 143.238C-1.97187 116.739 -7.83605 75.285 10.8789 42.3006C29.5938 9.31628 68.1869 -6.91326 104.85 2.78293C141.514 12.4791 167.038 45.6656 167 83.5894Z" fill="#F8D0B6"/>
</mask>
<g mask="url(#mask0)">
<g opacity="0.6">
<path d="M71.3825 188.595C69.6222 188.608 68.1107 188.251 66.8964 187.528C65.1814 186.506 64.1156 184.629 64.1123 182.63C64.1091 180.808 65.0005 179.229 66.554 178.3C67.6715 177.629 68.8633 177.546 69.661 177.54C70.1455 177.536 70.6396 177.563 71.137 177.593C71.5859 177.619 72.0381 177.646 72.487 177.642C73.1523 177.636 73.6659 177.56 74.1083 177.398C76.227 176.624 77.6804 174.575 77.6417 172.414C77.5577 167.777 74.0179 167.304 72.5032 167.317C70.2036 167.337 67.8233 168.372 66.2859 170.024C65.1685 171.224 64.3578 172.662 63.4987 174.185C62.5491 175.871 61.5673 177.616 60.1107 179.087C57.6496 181.569 54.7041 183.525 51.5939 184.738C49.5107 185.551 47.392 185.971 45.2959 185.991C40.8195 186.027 36.792 184.266 33.6463 180.898C32.6095 179.787 29.9289 175.785 30.9172 173.399C31.1626 172.804 31.8506 171.809 33.6947 171.792C33.9337 171.789 34.1986 171.806 34.4828 171.839C36.2624 172.044 37.6124 173.574 38.914 175.058C39.9184 176.198 40.9552 177.375 42.0436 177.771C42.8833 178.079 43.7683 178.227 44.679 178.221C49.1102 178.184 53.5866 174.397 55.8733 170.897C56.2609 170.302 56.6355 169.717 57.0037 169.138C60.2076 164.111 63.2371 159.362 70.4394 158.119C71.2307 157.984 72.0349 157.911 72.8294 157.905C78.8011 157.855 84.0753 161.53 86.2715 167.264C89.2622 175.081 85.4931 183.839 77.6869 187.204C75.6554 188.07 73.359 188.579 71.3825 188.595Z" fill="#F38032"/>
<path d="M71.2779 190.247C69.2722 190.247 67.5249 189.811 66.0813 188.955C63.8721 187.64 62.4963 185.217 62.4963 182.629C62.493 180.203 63.6751 178.104 65.7389 176.872C67.189 176.006 68.6618 175.893 69.6469 175.883C70.1766 175.88 70.6965 175.907 71.2294 175.94L71.3005 175.943C71.7107 175.966 72.1015 175.993 72.4697 175.986C72.9412 175.983 73.2965 175.933 73.5645 175.837C75.0373 175.298 76.0482 173.904 76.0224 172.443C76.0062 171.58 75.961 168.969 72.5666 168.969C72.5472 168.969 72.531 168.969 72.5116 168.969C70.6642 168.986 68.678 169.845 67.4507 171.164C66.4656 172.221 65.7034 173.577 64.8959 175.011C63.8915 176.792 62.8548 178.637 61.2431 180.263C58.6238 182.903 55.4877 184.986 52.1676 186.284C49.9035 187.167 47.5943 187.626 45.3076 187.643C40.3758 187.669 35.9382 185.746 32.4792 182.037C31.4715 180.957 27.9995 176.211 29.4303 172.75C29.7533 171.974 30.8094 170.159 33.6806 170.136C33.9907 170.136 34.3201 170.153 34.6624 170.192C37.0557 170.47 38.6802 172.317 40.1142 173.947C40.941 174.885 41.8809 175.953 42.585 176.211C43.2438 176.452 43.9415 176.578 44.6649 176.564C48.3371 176.535 52.4066 173.226 54.5285 169.974C54.9128 169.386 55.2843 168.804 55.6492 168.232C58.9048 163.129 62.2669 157.851 70.1701 156.486C71.0518 156.334 71.94 156.255 72.8152 156.248C79.462 156.205 85.3337 160.28 87.7753 166.659C91.089 175.318 86.9324 185.009 78.3155 188.724C76.1031 189.679 73.5807 190.234 71.4006 190.254C71.3554 190.247 71.3166 190.247 71.2779 190.247ZM69.7535 179.189C69.7276 179.189 69.6985 179.189 69.6727 179.189C69.0074 179.195 68.1451 179.261 67.3699 179.724C66.3073 180.359 65.726 181.39 65.726 182.626C65.726 184.04 66.485 185.372 67.7058 186.096C68.6683 186.668 69.902 186.949 71.3683 186.942C73.1414 186.929 75.2149 186.463 77.0559 185.673C84.0482 182.659 87.433 174.836 84.762 167.859C82.8242 162.802 78.1927 159.547 72.9412 159.547C72.9057 159.547 72.8701 159.547 72.8346 159.547C72.1305 159.553 71.4135 159.616 70.6998 159.738C64.1951 160.859 61.4853 165.109 58.3461 170.03C57.9746 170.612 57.5968 171.204 57.206 171.802C53.5984 177.328 48.3177 179.83 44.6811 179.859C43.583 179.876 42.5075 179.684 41.4901 179.314C40.0173 178.775 38.8417 177.44 37.7049 176.151C36.6035 174.899 35.4634 173.606 34.291 173.471C34.0779 173.448 33.8809 173.434 33.6968 173.438C32.9927 173.444 32.5567 173.646 32.3952 174.036C31.8687 175.308 33.6451 178.504 34.8078 179.75C37.637 182.781 41.2511 184.351 45.2753 184.331C47.1776 184.315 49.109 183.931 51.0113 183.188C53.9149 182.054 56.6666 180.226 58.9694 177.903C60.271 176.591 61.1947 174.945 62.0925 173.355C63.0001 171.742 63.8592 170.219 65.1091 168.877C66.9371 166.914 69.7631 165.681 72.4826 165.658C72.5052 165.658 72.531 165.658 72.5536 165.658C75.7478 165.658 79.1617 167.419 79.2489 172.377C79.3005 175.236 77.4079 177.939 74.6465 178.947C74.0264 179.172 73.3417 179.281 72.4955 179.288C72.0207 179.294 71.5621 179.265 71.1196 179.238L71.0453 179.235C70.577 179.212 70.1572 179.189 69.7535 179.189Z" fill="#54360E"/>
<path d="M87.173 176.31C87.6769 173.6 87.4799 170.735 86.4237 167.978C84.2275 162.244 78.9501 158.569 72.9816 158.618C72.1903 158.625 71.3861 158.698 70.5916 158.833C63.3893 160.076 60.3598 164.825 57.1559 169.852C56.7877 170.43 56.4131 171.015 56.0255 171.61C53.7389 175.114 49.2625 178.898 44.8313 178.934C43.9205 178.941 43.0355 178.792 42.1958 178.485C41.1074 178.088 40.0707 176.912 39.0662 175.771C37.7614 174.291 36.4146 172.761 34.635 172.552C34.3508 172.519 34.086 172.506 33.847 172.506C33.2139 172.513 31.3988 172.635 31.4796 174.142C30.6786 176.052 33.566 178.637 34.5801 179.724C39.0565 184.523 45.3642 185.63 51.3489 183.294C54.3654 182.117 57.1947 180.207 59.4878 177.89C62.1039 175.249 63.1406 171.531 65.6372 168.851C67.7914 166.54 71.37 165.248 74.4479 165.992C78.3559 166.937 79.9933 171.376 77.7713 174.744C77.2158 175.586 76.6506 176.436 75.911 177.113C74.6546 178.267 73.2206 178.406 71.6122 178.316C70.7692 178.402 69.8972 178.339 69.0381 178.293C68.3372 178.359 67.5104 178.534 66.7127 179.01C64.5326 180.316 64.313 183.522 66.1992 185.924C68.2888 188.585 74.1798 188.4 77.3805 187.025C81.7923 185.141 85.4807 180.957 87.173 176.31Z" fill="#E58341"/>
<path d="M79.1255 160.651C77.2231 161.969 74.9882 164.59 73.7318 167.419C75.0269 167.647 76.6127 168.351 77.2942 170.334C79.7294 168.209 82.8687 166.9 86.0597 166.781C84.8259 163.857 82.7815 161.503 80.2494 159.957C79.962 160.115 79.6874 160.277 79.4258 160.449C79.3257 160.515 79.2223 160.581 79.1255 160.651Z" fill="#423F3F"/>
<path d="M71.1522 167.449C70.3221 164.329 70.4869 160.925 71.7045 157.951C71.2781 157.987 70.855 158.04 70.432 158.113C67.3863 158.638 65.0932 159.795 63.2135 161.328C63.2329 161.5 63.2458 161.672 63.2716 161.841C63.291 161.963 63.3104 162.085 63.333 162.208C63.7206 164.366 65.0028 167.251 66.8147 169.512C68.0032 168.457 69.5535 167.73 71.1522 167.449Z" fill="#423F3F"/>
<path d="M64.7051 155.207C55.5973 159.563 51.7022 157.319 49.8031 153.161C47.904 149.003 48.7212 144.505 57.829 140.149C66.9368 135.793 75.8606 135.634 77.7596 139.792C79.6587 143.95 73.8129 150.851 64.7051 155.207Z" fill="#F38032"/>
<path d="M56.3592 159.199C52.6482 159.199 49.9643 157.418 48.3398 153.858C47.0576 151.049 47.0285 148.395 48.2526 145.969C49.6252 143.249 52.5352 140.856 57.144 138.652C61.7496 136.447 66.4812 135.195 70.4667 135.125C74.9043 135.043 78.0145 136.454 79.2192 139.091C81.5705 144.237 75.6213 151.809 65.3863 156.704C61.9079 158.37 58.8913 159.199 56.3592 159.199ZM70.8187 138.427C70.7218 138.427 70.6249 138.427 70.5248 138.43C66.9818 138.493 62.7153 139.637 58.5134 141.646C54.6281 143.504 52.1444 145.47 51.1238 147.486C50.3616 148.997 50.4068 150.576 51.2659 152.46C52.0895 154.265 54.0209 158.492 64.0233 153.71C68.2285 151.7 71.8199 149.083 74.1389 146.343C76.1025 144.023 76.91 141.835 76.2963 140.493C75.702 139.191 73.6641 138.427 70.8187 138.427Z" fill="#54360E"/>
<path d="M63.3698 154.139C72.4776 149.783 78.3202 142.883 76.4211 138.725C75.52 136.755 73.0331 135.767 69.7065 135.721C64.4065 137.988 59.9721 140.034 58.0149 141.21C55.0855 142.972 52.098 145.18 51.8364 149.086C51.7363 150.59 52.1465 152.071 52.9184 153.353C53.0282 153.538 53.1509 153.73 53.2898 153.931C54.4751 155.67 56.6099 156.499 58.6124 155.961C60.0173 155.584 61.5902 154.989 63.3698 154.139Z" fill="#F48F4B"/>
<path d="M109.028 166.479C109.028 180.919 98.6052 186.548 85.7477 186.548C72.8901 186.548 62.4678 180.919 62.4678 166.479C62.4678 152.04 72.8901 128.59 85.7477 128.59C98.6052 128.59 109.028 152.04 109.028 166.479Z" fill="#F38032"/>
<path d="M85.746 188.198C69.9235 188.198 60.8512 180.282 60.8512 166.477C60.8512 158.839 63.5448 149.195 67.8759 141.309C72.9691 132.042 79.3156 126.939 85.746 126.939C92.1763 126.939 98.5228 132.042 103.616 141.309C107.95 149.195 110.641 158.839 110.641 166.477C110.641 180.282 101.565 188.198 85.746 188.198ZM85.746 130.247C80.6075 130.247 75.1201 134.871 70.6922 142.932C66.6744 150.239 64.0809 159.483 64.0809 166.48C64.0809 182.503 77.6555 184.896 85.746 184.896C93.8364 184.896 107.411 182.503 107.411 166.48C107.411 159.483 104.814 150.243 100.8 142.932C96.3685 134.871 90.8812 130.247 85.746 130.247Z" fill="#54360E"/>
<path d="M85.7483 128.592C85.1152 128.592 84.4919 128.648 83.8718 128.76C80.8584 129.296 78.2391 131.199 76.4692 133.751C70.8269 141.878 67.1805 153.568 67.1805 162.111C67.1805 176.551 77.6029 182.18 90.4604 182.18C92.4403 182.18 94.3587 182.044 96.1932 181.766C103.489 180.653 108.989 174.181 109.028 166.633C109.028 166.583 109.028 166.534 109.028 166.481C109.028 152.041 98.6058 128.592 85.7483 128.592Z" fill="#EFAA7B"/>
<path d="M85.7465 179.195C93.7251 179.195 100.193 171.493 100.193 161.992C100.193 152.491 93.7251 144.789 85.7465 144.789C77.7679 144.789 71.2999 152.491 71.2999 161.992C71.2999 171.493 77.7679 179.195 85.7465 179.195Z" fill="#E8D4C4"/>
<path d="M57.7604 152.437C57.7991 151.716 58.0962 150.966 58.5775 150.781C59.3914 150.467 60.0244 151.796 60.3441 152.929C60.5638 153.706 60.7608 154.486 60.9449 155.266C59.934 155.788 59.0652 156.056 58.3126 156.125C58.219 155.603 58.135 155.078 58.0284 154.562C57.8831 153.868 57.7216 153.157 57.7604 152.437Z" fill="#423F3F"/>
<path d="M57.0724 141.838C57.6183 142.813 58.1447 143.811 58.6259 144.856C59.1039 145.887 59.456 147.361 58.6066 147.995C58.1027 148.372 57.3857 148.207 56.8883 147.8C56.391 147.394 56.0615 146.789 55.7289 146.207C55.2444 145.365 54.7244 144.548 54.1851 143.752C54.5016 143.507 54.8375 143.263 55.1992 143.015C55.8193 142.585 56.4491 142.198 57.0724 141.838Z" fill="#423F3F"/>
<path d="M68.2417 160.971C69.1267 160.872 70.0278 160.303 70.2312 159.418C70.5736 157.917 68.907 156.813 67.4956 156.274C66.8626 156.033 66.2264 155.828 65.5933 155.613C65.1832 157.21 64.8505 158.79 64.6018 160.33C64.9409 160.416 65.2833 160.478 65.6192 160.571C66.4783 160.806 67.3568 161.07 68.2417 160.971Z" fill="#423F3F"/>
<path d="M67.3293 167.888C68.1884 167.65 68.9958 166.95 69.0636 166.041C69.1799 164.507 67.3648 163.675 65.892 163.361C65.3656 163.248 64.7293 163.172 64.2029 163.076C64.0802 164.124 64.1157 165.142 64.0866 166.12C64.0705 166.718 64.0995 167.28 64.1189 167.849C64.303 167.869 64.4903 167.882 64.6777 167.902C65.5594 168.001 66.4701 168.123 67.3293 167.888Z" fill="#423F3F"/>
<path d="M102.862 159.414C103.066 160.3 103.967 160.868 104.852 160.967C105.737 161.066 106.615 160.802 107.474 160.567C107.81 160.475 108.156 160.412 108.492 160.326C108.243 158.786 107.91 157.206 107.5 155.61C106.864 155.825 106.231 156.03 105.598 156.271C104.186 156.813 102.52 157.917 102.862 159.414Z" fill="#423F3F"/>
<path d="M108.882 163.43C108.355 163.509 107.829 163.572 107.299 163.668C105.817 163.939 103.982 164.719 104.056 166.256C104.098 167.164 104.886 167.892 105.739 168.153C106.592 168.414 107.502 168.318 108.391 168.242C108.578 168.225 108.762 168.219 108.949 168.206C108.985 167.637 109.03 167.079 109.03 166.48C109.027 165.502 108.975 164.481 108.882 163.43Z" fill="#423F3F"/>
<path d="M45.2936 68.9176C49.5124 61.8058 47.3071 52.5461 40.3681 48.2356C33.429 43.9251 24.3838 46.196 20.165 53.3078C15.9462 60.4195 18.1515 69.6792 25.0905 73.9897C32.0296 78.3002 41.0748 76.0293 45.2936 68.9176Z" fill="#F38032"/>
<path d="M32.6827 77.8197C29.7953 77.8197 26.8788 77.0364 24.2369 75.3938C20.513 73.0769 17.897 69.4116 16.8699 65.0721C15.8428 60.7392 16.5275 56.251 18.7948 52.4369C21.0621 48.6229 24.6439 45.9392 28.8813 44.8816C33.1187 43.8207 37.5014 44.5147 41.2253 46.8349C48.9088 51.6206 51.3505 61.9191 46.6706 69.795C43.5927 74.9608 38.199 77.8197 32.6827 77.8197ZM32.7763 47.7008C31.7331 47.7008 30.6867 47.8297 29.6467 48.0875C26.249 48.9369 23.3746 51.0918 21.553 54.1523C19.7314 57.2127 19.1856 60.8152 20.0092 64.2954C20.8328 67.7723 22.9321 70.7138 25.9164 72.5713C32.0787 76.4084 40.1498 74.3923 43.906 68.0731C47.6621 61.7538 45.7049 53.4945 39.5426 49.6541C37.4723 48.3651 35.1437 47.7008 32.7763 47.7008Z" fill="#54360E"/>
<path d="M45.2897 68.932C46.3362 67.1704 46.9886 65.2766 47.2728 63.3597C47.234 58.7756 44.8569 54.2278 40.6034 51.5805C34.1988 47.5946 25.9986 49.4223 22.2844 55.6655C18.5734 61.9088 20.7535 70.2011 27.158 74.1903C28.8795 75.2611 30.7301 75.899 32.5872 76.1601C37.5933 76.1932 42.496 73.6317 45.2897 68.932Z" fill="#E58341"/>
<path d="M44.1825 70.0641C47.3343 64.7665 45.6989 57.8613 40.5297 54.6408C35.3605 51.4202 28.6151 53.104 25.4633 58.4015C22.3115 63.699 23.9469 70.6043 29.1161 73.8248C34.2853 77.0453 41.0308 75.3616 44.1825 70.0641Z" fill="#E8D4C4"/>
<path d="M131.852 59.2643C137.428 53.2268 137.158 43.6995 131.249 37.9846C125.34 32.2697 116.029 32.5313 110.453 38.5689C104.877 44.6064 105.147 54.1337 111.056 59.8486C116.965 65.5635 126.276 65.3019 131.852 59.2643Z" fill="#F38032"/>
<path d="M121.166 65.6196C117.142 65.6196 113.108 64.1091 109.953 61.0652C103.4 54.7394 103.093 44.1467 109.265 37.4507C112.256 34.2084 116.302 32.351 120.663 32.2254C125.019 32.0965 129.17 33.716 132.344 36.7798C138.898 43.1056 139.204 53.6983 133.032 60.3943C129.832 63.8646 125.504 65.6162 121.166 65.6196ZM121.134 35.5205C121.008 35.5205 120.882 35.5238 120.753 35.5271C117.258 35.6296 114.013 37.1169 111.613 39.7179C106.662 45.0886 106.91 53.5859 112.168 58.6591C117.426 63.7324 125.73 63.4944 130.681 58.1237C135.632 52.753 135.384 44.2558 130.126 39.1825C127.671 36.8128 124.493 35.5205 121.134 35.5205Z" fill="#54360E"/>
<path d="M111.065 59.8627C109.599 58.4481 108.481 56.7989 107.713 55.0241C106.566 50.592 107.68 45.5651 111.097 41.8601C116.242 36.2812 124.623 35.8218 129.817 40.8356C135.01 45.8493 135.052 54.4391 129.907 60.018C128.525 61.5185 126.904 62.6356 125.179 63.3859C120.363 64.7806 114.973 63.637 111.065 59.8627Z" fill="#E58341"/>
<path d="M127.92 60.1949C132.071 55.6886 131.862 48.5863 127.452 44.3314C123.042 40.0765 116.101 40.2803 111.949 44.7866C107.798 49.2928 108.007 56.3952 112.417 60.65C116.827 64.9049 123.768 64.7011 127.92 60.1949Z" fill="#E8D4C4"/>
<path d="M139.389 89.6184C142.929 116.505 119.649 136.563 88.2465 140.893C56.8406 145.222 29.2038 132.184 25.664 105.298C22.1242 78.411 43.0658 40.598 74.4684 36.2651C105.874 31.9355 135.849 62.7319 139.389 89.6184Z" fill="#F38032"/>
<path d="M76.6138 143.358C65.0998 143.358 54.4223 140.936 45.7537 136.266C33.3322 129.57 25.8295 118.937 24.0628 105.522C22.251 91.7601 26.5723 75.2712 35.6188 61.4098C40.289 54.2577 45.8538 48.3153 52.1647 43.7543C59.0505 38.7736 66.4821 35.7065 74.2528 34.6324C82.0236 33.5582 89.9848 34.5068 97.9138 37.445C105.077 40.0989 112.173 44.4384 118.436 49.9909C130.747 60.9075 139.177 75.6381 140.989 89.4003C142.755 102.815 138.273 115.1 128.025 124.923C118.471 134.078 104.422 140.334 88.4604 142.535C84.4491 143.084 80.483 143.358 76.6138 143.358ZM80.5185 37.5045C78.5645 37.5045 76.6202 37.6367 74.6856 37.9044C60.6266 39.8411 47.7077 48.8408 38.306 63.2408C29.6826 76.4511 25.555 92.0906 27.2635 105.076C28.8848 117.387 35.7997 127.16 47.2588 133.338C55.4623 137.76 65.6133 140.05 76.5976 140.053C80.328 140.053 84.152 139.789 88.0309 139.254C103.333 137.145 116.753 131.196 125.819 122.507C135.272 113.448 139.409 102.148 137.791 89.8365C136.083 76.851 128.057 62.8872 116.323 52.4829C105.291 42.7033 92.7721 37.5045 80.5185 37.5045Z" fill="#54360E"/>
<path d="M76.2509 40.1383C68.5642 42.703 61.2844 46.203 55.0575 51.4448C46.7797 58.4085 40.8434 68.2311 38.447 78.9163C36.8386 86.0916 31.5289 96.8098 33.0533 103.998C39.516 134.481 73.8771 148.25 101.272 138.057C111.965 134.078 127.026 127.682 133.004 114.482C133.356 113.709 134.073 113.153 134.606 112.463C138.665 107.181 140.577 100.422 139.722 93.7593C139.715 93.7196 139.712 93.6766 139.705 93.637C136.221 67.1768 107.117 36.9456 76.2509 40.1383Z" fill="#EFAA7B"/>
<path d="M139.306 89.0525C134.923 88.3188 130.389 88.1007 125.706 88.5204C124.207 88.6559 122.311 89.2607 122.25 90.8009C122.214 91.7098 122.935 92.5063 123.758 92.8434C124.585 93.1805 125.502 93.1673 126.39 93.1739C130.983 93.207 135.566 93.9109 139.971 95.2363C139.926 93.9109 139.836 92.5724 139.655 91.2107C139.561 90.4935 139.438 89.773 139.306 89.0525Z" fill="#423F3F"/>
<path d="M114.957 98.4363C114.889 99.3452 115.58 100.165 116.394 100.532C117.208 100.899 118.125 100.918 119.013 100.958C125.682 101.246 132.274 102.974 138.295 105.919C138.989 103.85 139.506 101.712 139.832 99.5071C133.153 97.1011 126.047 95.8815 118.493 96.2814C116.985 96.364 115.07 96.9028 114.957 98.4363Z" fill="#423F3F"/>
<path d="M118.131 111.008C117.885 111.884 118.399 112.83 119.126 113.358C119.849 113.887 120.744 114.095 121.606 114.317C125.136 115.222 128.556 116.551 131.805 118.23C132.981 116.673 134.028 115.051 134.958 113.372C130.911 111.63 126.609 110.347 122.016 109.627C120.53 109.399 118.547 109.528 118.131 111.008Z" fill="#423F3F"/>
<path d="M42.8049 101.599C43.5122 101.047 44.0032 100.089 43.7319 99.2194C43.2732 97.752 41.287 97.6826 39.8077 97.9569C35.1828 98.8228 30.8679 100.257 26.8307 102.154C26.8921 102.885 26.9599 103.615 27.0535 104.329C27.2344 105.691 27.4896 107.006 27.7899 108.295C31.6947 105.826 35.9321 103.903 40.3536 102.627C41.2095 102.386 42.0944 102.151 42.8049 101.599Z" fill="#423F3F"/>
<path d="M52.7711 109.7C53.459 109.125 53.9144 108.147 53.614 107.291C53.107 105.843 51.1174 105.843 49.6479 106.174C42.2583 107.833 35.7213 110.933 29.9014 115.064C30.7863 117.1 31.836 119.024 33.0439 120.832C38.0887 116.36 43.9991 112.909 50.352 110.824C51.2046 110.543 52.0831 110.275 52.7711 109.7Z" fill="#423F3F"/>
<path d="M52.6407 121.756C53.2027 121.049 53.4546 119.998 52.9895 119.221C52.2047 117.906 50.2604 118.319 48.8845 118.947C44.6439 120.884 40.8231 123.287 37.3738 126.063C38.7044 127.428 40.1352 128.71 41.6725 129.893C44.3726 127.395 47.3278 125.187 50.4962 123.356C51.2713 122.907 52.082 122.464 52.6407 121.756Z" fill="#423F3F"/>
<path d="M84.5785 49.7002C85.4667 49.6903 86.384 49.7036 87.2108 49.3631C88.0343 49.0227 88.7546 48.2262 88.7158 47.3173C88.648 45.7805 86.7521 45.1756 85.2535 45.0468C77.5216 44.3758 70.2094 45.4169 63.3043 47.7172C62.71 50.2687 62.316 52.8632 62.1222 55.4874C69.0241 51.7956 76.7852 49.7763 84.5785 49.7002Z" fill="#423F3F"/>
<path d="M65.0282 63.9219C64.2143 64.2887 63.3843 64.6853 62.4961 64.725C61.6079 64.7613 60.6326 64.3416 60.2999 63.4955C59.7411 62.0677 61.2268 60.716 62.5381 59.9657C72.2919 54.3868 82.6884 52.3873 93.2076 52.7905C93.4725 53.4779 93.7405 54.1687 93.9731 54.876C94.619 56.8259 95.1261 58.7991 95.504 60.7821C94.4252 60.5408 93.34 60.3293 92.2484 60.164C83.0727 58.7693 73.5159 60.088 65.0282 63.9219Z" fill="#423F3F"/>
<path d="M86.9009 65.7991C87.4402 65.5214 87.886 64.9431 87.8084 64.3283C87.6792 63.2905 86.3647 62.9898 85.3409 62.9865C79.3788 62.9666 73.898 64.3944 68.8531 66.8402C69.2246 68.3704 69.7058 69.8676 70.2742 71.335C74.7442 68.4629 79.8762 66.6683 85.1342 66.1791C85.7382 66.123 86.3615 66.0767 86.9009 65.7991Z" fill="#423F3F"/>
<path d="M55.0596 111.703C59.8766 111.358 63.5736 108.042 63.3171 104.296C63.0607 100.55 58.9478 97.7937 54.1308 98.1391C49.3139 98.4845 45.6168 101.801 45.8733 105.547C46.1298 109.292 50.2426 112.049 55.0596 111.703Z" fill="#FFA4A8"/>
<path d="M112.274 100.786C117.091 100.441 120.788 97.1241 120.531 93.3784C120.275 89.6327 116.162 86.8762 111.345 87.2216C106.528 87.567 102.831 90.8834 103.087 94.6291C103.344 98.3748 107.457 101.131 112.274 100.786Z" fill="#FFA4A8"/>
<path d="M61.1167 101.344C63.4087 101.179 65.0916 98.4895 64.8756 95.3356C64.6597 92.1817 62.6267 89.7582 60.3347 89.9225C58.0428 90.0869 56.3599 92.7768 56.5758 95.9307C56.7918 99.0846 58.8248 101.508 61.1167 101.344Z" fill="black"/>
<path d="M103.951 94.7989C106.243 94.6345 107.926 91.9446 107.71 88.7907C107.494 85.6368 105.461 83.2133 103.169 83.3777C100.877 83.542 99.1943 86.232 99.4103 89.3858C99.6263 92.5397 101.659 94.9632 103.951 94.7989Z" fill="black"/>
<path d="M102.569 91.8246C103.285 91.7733 103.783 90.5464 103.683 89.0842C103.583 87.622 102.922 86.4782 102.207 86.5295C101.492 86.5808 100.993 87.8077 101.093 89.2699C101.193 90.7321 101.854 91.8759 102.569 91.8246Z" fill="white"/>
<path d="M62.4168 98.1733C63.1322 98.122 63.6309 96.8951 63.5308 95.4329C63.4307 93.9707 62.7696 92.8269 62.0543 92.8782C61.3389 92.9295 60.8402 94.1564 60.9403 95.6186C61.0404 97.0808 61.7015 98.2246 62.4168 98.1733Z" fill="white"/>
<path d="M125.417 143.752C135.213 135.74 135.355 130.069 132.403 125.63C129.451 121.192 124.52 119.665 114.724 127.676C104.928 135.688 99.3793 145.781 102.331 150.22C105.283 154.655 115.618 151.76 125.417 143.752Z" fill="#F38032"/>
<path d="M107.093 153.948C106.544 153.948 106.02 153.912 105.523 153.832C103.527 153.525 101.964 152.596 100.998 151.145C97.4713 145.841 102.939 135.195 113.717 126.381C119.324 121.793 123.871 119.846 127.621 120.425C130.043 120.798 132.1 122.236 133.738 124.698C137.901 130.958 135.511 137.614 126.426 145.041C119.634 150.593 112.276 153.948 107.093 153.948ZM126.303 123.631C123.616 123.631 120.066 125.422 115.732 128.965C105.965 136.95 101.534 146.085 103.666 149.288C104.118 149.965 104.903 150.398 106.001 150.567C109.557 151.115 116.63 148.822 124.407 142.46C135.572 133.331 132.297 128.41 131.067 126.556C129.94 124.864 128.654 123.925 127.14 123.694C126.871 123.651 126.591 123.631 126.303 123.631Z" fill="#54360E"/>
<path d="M124.268 142.36C114.472 150.372 104.134 153.267 101.182 148.828C99.7835 146.726 100.31 143.345 102.277 139.528C107.716 134.719 112.412 130.776 114.753 129.186C118.261 126.807 122.24 124.605 126.251 126.443C127.795 127.15 129.006 128.429 129.807 130.012C129.92 130.241 130.04 130.485 130.153 130.753C131.151 133.056 130.682 135.945 128.938 137.938C127.717 139.323 126.18 140.797 124.268 142.36Z" fill="#EFAA7B"/>
<path d="M127.333 125.019C126.716 125.505 126.099 126.007 125.485 126.552C124.881 127.088 124.171 127.934 124.339 128.535C124.439 128.892 124.839 128.958 125.224 128.816C125.608 128.677 125.989 128.373 126.357 128.089C126.897 127.673 127.443 127.283 127.992 126.906C127.93 126.678 127.862 126.443 127.785 126.202C127.649 125.785 127.497 125.392 127.333 125.019Z" fill="#423F3F"/>
<path d="M129.173 127.425C128.556 127.911 127.94 128.413 127.326 128.958C126.722 129.494 126.011 130.34 126.179 130.941C126.279 131.298 126.68 131.364 127.064 131.222C127.449 131.08 127.83 130.779 128.198 130.495C128.737 130.079 129.283 129.689 129.832 129.312C129.771 129.084 129.703 128.849 129.625 128.608C129.49 128.192 129.335 127.798 129.173 127.425Z" fill="#423F3F"/>
<path d="M130.153 130.412C129.536 130.898 128.919 131.4 128.306 131.945C127.702 132.481 126.991 133.327 127.159 133.928C127.259 134.285 127.66 134.351 128.044 134.209C128.429 134.067 128.81 133.766 129.178 133.482C129.717 133.066 130.263 132.676 130.812 132.299C130.751 132.071 130.683 131.836 130.605 131.595C130.47 131.179 130.318 130.785 130.153 130.412Z" fill="#423F3F"/>
<path d="M74.4378 126.994C82.2184 126.214 88.0497 120.609 87.4624 114.474C86.875 108.34 80.0915 103.999 72.311 104.779C64.5304 105.559 58.6991 111.165 59.2864 117.299C59.8737 123.434 66.6572 127.774 74.4378 126.994Z" fill="#E8D4C4"/>
<path d="M102.088 122.068C109.868 121.288 115.7 115.683 115.112 109.548C114.525 103.413 107.741 99.0728 99.9609 99.8528C92.1803 100.633 86.349 106.238 86.9363 112.373C87.5236 118.507 94.3072 122.848 102.088 122.068Z" fill="#E8D4C4"/>
<path d="M85.9641 103.238C82.715 103.761 78.9233 105.225 79.2301 107.347C79.482 109.105 83.952 107.73 85.3505 110.688C85.8898 111.828 86.3 112.483 87.256 112.327C88.2088 112.175 88.4058 111.425 88.5802 110.169C89.0291 106.917 93.6961 106.824 93.4119 105.073C93.0663 102.961 89.2164 102.716 85.9641 103.238Z" fill="#3A3733"/>
<path d="M82.1841 106.051C82.029 105.357 82.9172 104.957 83.4114 104.755C84.2963 104.395 85.2039 104.071 86.1405 103.893C86.9479 103.737 90.4296 103.446 90.2132 105.03C90.1841 105.248 90.0258 105.426 89.8417 105.539C89.6576 105.648 89.4445 105.701 89.2378 105.75C88.1268 106.015 87.0125 106.302 85.895 106.55C85.107 106.722 82.465 107.307 82.1841 106.051Z" fill="#605C58"/>
<path d="M67.1745 112.218C67.8505 112.218 68.3986 111.657 68.3986 110.965C68.3986 110.274 67.8505 109.713 67.1745 109.713C66.4985 109.713 65.9504 110.274 65.9504 110.965C65.9504 111.657 66.4985 112.218 67.1745 112.218Z" fill="#878787"/>
<path d="M71.7945 123.23C72.4705 123.23 73.0186 122.669 73.0186 121.978C73.0186 121.286 72.4705 120.725 71.7945 120.725C71.1185 120.725 70.5704 121.286 70.5704 121.978C70.5704 122.669 71.1185 123.23 71.7945 123.23Z" fill="#878787"/>
<path d="M65.9556 122.081C66.6317 122.081 67.1797 121.52 67.1797 120.828C67.1797 120.136 66.6317 119.575 65.9556 119.575C65.2796 119.575 64.7316 120.136 64.7316 120.828C64.7316 121.52 65.2796 122.081 65.9556 122.081Z" fill="#878787"/>
<path d="M63.5429 116.389C64.219 116.389 64.767 115.828 64.767 115.136C64.767 114.445 64.219 113.884 63.5429 113.884C62.8669 113.884 62.3188 114.445 62.3188 115.136C62.3188 115.828 62.8669 116.389 63.5429 116.389Z" fill="#878787"/>
<path d="M70.3326 116.389C71.0086 116.389 71.5567 115.828 71.5567 115.136C71.5567 114.445 71.0086 113.884 70.3326 113.884C69.6566 113.884 69.1085 114.445 69.1085 115.136C69.1085 115.828 69.6566 116.389 70.3326 116.389Z" fill="#878787"/>
<path d="M105.279 105.016C105.955 105.016 106.503 104.455 106.503 103.764C106.503 103.072 105.955 102.511 105.279 102.511C104.603 102.511 104.055 103.072 104.055 103.764C104.055 104.455 104.603 105.016 105.279 105.016Z" fill="#878787"/>
<path d="M105.279 116.065C105.955 116.065 106.503 115.504 106.503 114.813C106.503 114.121 105.955 113.56 105.279 113.56C104.603 113.56 104.055 114.121 104.055 114.813C104.055 115.504 104.603 116.065 105.279 116.065Z" fill="#878787"/>
<path d="M109.597 113.6C110.273 113.6 110.821 113.039 110.821 112.347C110.821 111.655 110.273 111.095 109.597 111.095C108.921 111.095 108.373 111.655 108.373 112.347C108.373 113.039 108.921 113.6 109.597 113.6Z" fill="#878787"/>
<path d="M110.819 107.568C111.495 107.568 112.043 107.007 112.043 106.315C112.043 105.624 111.495 105.063 110.819 105.063C110.143 105.063 109.595 105.624 109.595 106.315C109.595 107.007 110.143 107.568 110.819 107.568Z" fill="#878787"/>
<path d="M100.393 105.621C101.069 105.621 101.617 105.06 101.617 104.368C101.617 103.677 101.069 103.116 100.393 103.116C99.7166 103.116 99.1686 103.677 99.1686 104.368C99.1686 105.06 99.7166 105.621 100.393 105.621Z" fill="#878787"/>
<path d="M126.238 100.407C126.309 100.357 126.357 100.274 126.364 100.179C126.373 100.017 126.251 99.8779 126.092 99.8713C121.306 99.6069 116.813 100.202 112.35 101.689C108.016 103.133 104.263 105.232 101.159 107.096C101.023 107.179 100.975 107.357 101.056 107.496C101.136 107.635 101.311 107.681 101.45 107.598C107.722 103.831 115.312 99.8646 126.06 100.453C126.128 100.463 126.189 100.443 126.238 100.407Z" fill="white"/>
<path d="M101.314 107.773C101.175 107.773 101.036 107.7 100.962 107.568C100.849 107.369 100.913 107.115 101.107 106.996C104.214 105.129 107.977 103.027 112.321 101.579C116.797 100.088 121.306 99.4902 126.105 99.7546C126.215 99.7612 126.315 99.8108 126.386 99.8934C126.46 99.976 126.496 100.082 126.489 100.194C126.483 100.326 126.418 100.442 126.312 100.515C126.237 100.568 126.15 100.591 126.06 100.587C115.347 99.9992 107.773 103.959 101.517 107.716C101.456 107.753 101.385 107.773 101.314 107.773ZM123.925 99.9397C119.952 99.9397 116.161 100.558 112.395 101.814C108.07 103.255 104.324 105.35 101.23 107.207C101.152 107.254 101.123 107.36 101.172 107.439C101.217 107.518 101.32 107.545 101.398 107.498C107.683 103.724 115.292 99.7447 126.076 100.336C126.112 100.34 126.147 100.33 126.179 100.307C126.221 100.277 126.247 100.227 126.25 100.174C126.254 100.128 126.237 100.085 126.208 100.052C126.179 100.019 126.137 99.9992 126.095 99.9959C125.362 99.9628 124.642 99.9397 123.925 99.9397Z" fill="white"/>
<path d="M126.298 107.947C126.347 107.918 126.385 107.875 126.408 107.818C126.473 107.67 126.408 107.498 126.263 107.432C121.964 105.482 117.772 104.768 113.45 105.254C109.255 105.723 105.47 107.257 102.324 108.694C102.178 108.76 102.114 108.932 102.178 109.081C102.243 109.23 102.414 109.296 102.556 109.23C110.411 105.644 117.41 104.054 126.03 107.967C126.12 108.01 126.221 107.997 126.298 107.947Z" fill="white"/>
<path d="M102.448 109.389C102.293 109.389 102.141 109.296 102.076 109.141C102.031 109.038 102.028 108.926 102.067 108.824C102.105 108.718 102.183 108.635 102.283 108.592C105.438 107.151 109.233 105.611 113.448 105.142C117.792 104.653 122.004 105.37 126.325 107.33C126.425 107.376 126.503 107.459 126.541 107.561C126.58 107.663 126.577 107.779 126.535 107.882C126.503 107.958 126.448 108.02 126.377 108.067C126.26 108.139 126.118 108.149 125.996 108.093C117.414 104.2 110.444 105.783 102.619 109.356C102.557 109.375 102.503 109.389 102.448 109.389ZM116.061 105.238C115.202 105.238 114.339 105.287 113.471 105.383C109.291 105.852 105.519 107.383 102.38 108.814C102.338 108.833 102.309 108.867 102.293 108.909C102.276 108.952 102.28 108.999 102.296 109.038C102.335 109.124 102.431 109.164 102.515 109.124C110.399 105.522 117.424 103.929 126.089 107.862C126.141 107.885 126.196 107.882 126.244 107.852C126.273 107.835 126.296 107.809 126.309 107.776C126.328 107.736 126.328 107.69 126.312 107.647C126.296 107.604 126.264 107.571 126.225 107.554C122.808 106.001 119.459 105.238 116.061 105.238Z" fill="white"/>
<path d="M123.386 115.505C123.431 115.485 123.47 115.452 123.499 115.406C123.589 115.273 123.557 115.088 123.428 114.996C120.172 112.689 116.771 111.238 113.031 110.567C109.398 109.913 105.91 110.071 102.974 110.313C102.816 110.326 102.699 110.468 102.712 110.63C102.725 110.792 102.864 110.911 103.022 110.898C108.93 110.415 115.841 110.332 123.105 115.478C123.189 115.541 123.295 115.548 123.386 115.505Z" fill="white"/>
<path d="M123.266 115.659C123.185 115.659 123.101 115.632 123.033 115.586C115.802 110.46 108.916 110.542 103.028 111.025C102.918 111.032 102.815 110.998 102.731 110.926C102.647 110.853 102.599 110.754 102.589 110.642C102.579 110.529 102.615 110.423 102.686 110.337C102.757 110.252 102.854 110.202 102.964 110.192C105.906 109.951 109.407 109.792 113.053 110.45C116.813 111.124 120.23 112.582 123.498 114.898C123.589 114.961 123.647 115.057 123.666 115.166C123.686 115.275 123.663 115.388 123.598 115.48C123.556 115.54 123.501 115.589 123.437 115.619C123.385 115.645 123.327 115.659 123.266 115.659ZM107.521 110.566C112.346 110.566 117.656 111.471 123.172 115.381C123.22 115.414 123.285 115.421 123.337 115.394C123.363 115.381 123.385 115.361 123.401 115.338C123.427 115.302 123.437 115.255 123.427 115.212C123.417 115.169 123.395 115.13 123.359 115.103C120.12 112.806 116.735 111.365 113.008 110.694C109.388 110.043 105.909 110.202 102.98 110.44C102.935 110.443 102.896 110.463 102.867 110.499C102.838 110.536 102.825 110.579 102.828 110.622C102.831 110.668 102.851 110.708 102.886 110.737C102.918 110.767 102.96 110.78 103.006 110.777C104.456 110.658 105.964 110.566 107.521 110.566Z" fill="white"/>
<path d="M54.877 103.322C54.8059 103.272 54.7575 103.19 54.751 103.094C54.7413 102.932 54.8641 102.793 55.0223 102.786C59.8088 102.522 64.3013 103.117 68.7648 104.604C73.0991 106.049 76.8521 108.147 79.9559 110.011C80.0915 110.094 80.14 110.272 80.0592 110.411C79.9785 110.55 79.8041 110.596 79.6652 110.514C73.393 106.746 65.8032 102.78 55.0546 103.368C54.99 103.375 54.9287 103.355 54.877 103.322Z" fill="white"/>
<path d="M79.8159 110.688C79.7449 110.688 79.6738 110.668 79.6092 110.632C73.3532 106.874 65.7827 102.918 55.0665 103.503C54.976 103.509 54.8888 103.483 54.8146 103.43C54.708 103.357 54.6434 103.238 54.6369 103.11C54.6305 102.997 54.6692 102.891 54.7403 102.809C54.8113 102.726 54.9115 102.677 55.0213 102.67C59.8239 102.406 64.3326 103.004 68.8058 104.494C73.1497 105.942 76.9124 108.044 80.0194 109.911C80.2132 110.027 80.2778 110.285 80.1647 110.483C80.1098 110.579 80.0226 110.648 79.916 110.675C79.8837 110.681 79.8482 110.688 79.8159 110.688ZM57.1852 103.195C66.855 103.195 73.87 106.894 79.7319 110.417C79.7707 110.44 79.8159 110.447 79.8579 110.434C79.8999 110.424 79.9354 110.394 79.958 110.354C80.0032 110.275 79.9774 110.169 79.8999 110.123C76.8026 108.262 73.0561 106.167 68.7347 104.729C64.2874 103.248 59.8077 102.653 55.0374 102.918C54.9922 102.921 54.9534 102.941 54.9244 102.974C54.8953 103.007 54.8792 103.05 54.8824 103.096C54.8856 103.149 54.9115 103.199 54.9534 103.229C54.9825 103.248 55.018 103.258 55.0568 103.258C55.777 103.215 56.4876 103.195 57.1852 103.195Z" fill="white"/>
<path d="M54.8507 111.194C54.8022 111.164 54.7635 111.121 54.7409 111.065C54.6763 110.916 54.7409 110.744 54.8862 110.678C59.185 108.728 63.3772 108.014 67.6985 108.5C71.8939 108.969 75.6792 110.503 78.8249 111.941C78.9703 112.007 79.0349 112.179 78.9703 112.327C78.9057 112.476 78.7345 112.542 78.5924 112.476C70.7377 108.89 63.7389 107.3 55.1187 111.213C55.0283 111.253 54.9282 111.243 54.8507 111.194Z" fill="white"/>
<path d="M78.7194 112.635C78.6645 112.635 78.6064 112.621 78.5547 112.598C70.7291 109.026 63.7593 107.442 55.1779 111.336C55.0552 111.392 54.9131 111.382 54.7968 111.309C54.7258 111.266 54.6741 111.2 54.6386 111.124C54.5934 111.022 54.5901 110.909 54.6289 110.807C54.6676 110.704 54.7452 110.622 54.8453 110.576C59.1667 108.616 63.3782 107.899 67.7222 108.388C71.9338 108.86 75.7287 110.397 78.8874 111.838C79.0941 111.931 79.1845 112.179 79.0941 112.39C79.023 112.542 78.8745 112.635 78.7194 112.635ZM65.0577 108.817C69.6342 108.817 73.9911 110.245 78.6516 112.373C78.7356 112.413 78.8325 112.373 78.8712 112.288C78.8906 112.248 78.8906 112.202 78.8745 112.159C78.8583 112.116 78.826 112.083 78.7873 112.063C75.648 110.628 71.8724 109.098 67.6964 108.632C63.3976 108.15 59.2248 108.86 54.9454 110.8C54.9034 110.82 54.8743 110.853 54.8582 110.896C54.842 110.939 54.842 110.985 54.8614 111.025C54.8743 111.055 54.8969 111.081 54.926 111.101C54.9745 111.131 55.0326 111.134 55.081 111.111C58.6208 109.498 61.8925 108.817 65.0577 108.817Z" fill="white"/>
<path d="M56.6054 119.262C56.5602 119.242 56.5215 119.209 56.4924 119.162C56.402 119.03 56.4343 118.845 56.5634 118.753C59.819 116.446 63.2199 114.995 66.9599 114.324C70.5934 113.669 74.0815 113.828 77.0173 114.069C77.1756 114.083 77.2919 114.225 77.2789 114.387C77.266 114.549 77.1271 114.668 76.9689 114.654C71.0617 114.172 64.1501 114.089 56.8864 119.235C56.8024 119.298 56.6926 119.305 56.6054 119.262Z" fill="white"/>
<path d="M56.728 119.416C56.6698 119.416 56.6117 119.403 56.5568 119.377C56.4922 119.347 56.4373 119.297 56.3953 119.238C56.334 119.145 56.3081 119.036 56.3275 118.927C56.3469 118.818 56.4082 118.722 56.4954 118.659C59.7639 116.343 63.181 114.885 66.9404 114.211C70.5868 113.557 74.0846 113.712 77.0301 113.953C77.1399 113.963 77.2368 114.013 77.3078 114.099C77.3789 114.184 77.4112 114.29 77.4047 114.403C77.395 114.515 77.3466 114.614 77.2626 114.687C77.1786 114.76 77.0721 114.793 76.9655 114.786C71.0777 114.307 64.1919 114.221 56.9605 119.347C56.8927 119.39 56.812 119.416 56.728 119.416ZM56.6602 119.152C56.7151 119.178 56.7764 119.172 56.8249 119.139C64.1208 113.966 71.0583 114.049 76.9881 114.535C77.0333 114.538 77.0753 114.525 77.1076 114.495C77.1399 114.465 77.1625 114.426 77.1657 114.379C77.169 114.333 77.156 114.29 77.127 114.257C77.0979 114.224 77.0591 114.201 77.0139 114.198C74.0846 113.96 70.6029 113.801 66.9856 114.452C63.2617 115.123 59.877 116.564 56.6343 118.861C56.5988 118.888 56.573 118.927 56.5665 118.97C56.56 119.013 56.5697 119.059 56.5923 119.096C56.6085 119.119 56.6311 119.139 56.6602 119.152Z" fill="white"/>
<path d="M89.0397 130.3C92.9621 130.3 96.1419 126.494 96.1419 121.799C96.1419 117.105 92.9621 113.299 89.0397 113.299C85.1173 113.299 81.9375 117.105 81.9375 121.799C81.9375 126.494 85.1173 130.3 89.0397 130.3Z" fill="#E8D4C4"/>
<path d="M87.3244 111.558C87.2436 112.533 87.3502 113.56 87.6409 114.621L87.3244 111.558Z" fill="#3A3733"/>
<path d="M86.5182 111.557C86.431 112.658 86.5763 113.778 86.8638 114.843C86.9768 115.259 87.4419 115.557 87.8585 115.421C88.2752 115.282 88.5432 114.849 88.4237 114.403C88.3527 114.139 88.2881 113.871 88.2364 113.6C88.2138 113.488 88.1944 113.375 88.1783 113.26C88.1718 113.223 88.1686 113.184 88.1621 113.147C88.1783 113.273 88.1815 113.289 88.1686 113.2C88.1621 113.144 88.1557 113.088 88.1492 113.032C88.1008 112.542 88.0943 112.05 88.1331 111.561C88.1686 111.128 87.7358 110.715 87.3256 110.735C86.8573 110.751 86.5537 111.095 86.5182 111.557Z" fill="#3A3733"/>
<path d="M77.7754 118.964L81.3733 119.519L78.754 125.035L77.7754 118.964Z" fill="white"/>
<path d="M99.2902 115.569L95.9668 117.089L99.9264 121.69L99.2902 115.569Z" fill="white"/>
<path d="M82.6272 120.18C82.6272 120.18 83.8706 128.671 89.8779 127.018C95.882 125.366 94.083 117.952 94.083 117.952L87.643 114.618L82.6272 120.18Z" fill="#F4AEAE"/>
<path d="M74.6073 117.235C75.9961 119.142 78.0276 120.692 80.4144 120.854C82.6784 121.006 84.5808 119.549 86.0083 117.896C86.8125 116.968 87.5198 115.946 88.1561 114.892C87.7879 114.991 87.4197 115.09 87.0515 115.19C89.448 116.432 91.7475 118.27 94.5122 118.514C96.886 118.723 99.4795 117.295 100.6 115.14C101.159 114.062 101.369 112.783 100.981 111.607C100.649 110.605 99.0887 111.035 99.4246 112.046C99.6571 112.747 99.6087 113.458 99.2922 114.135C98.9046 114.965 98.291 115.626 97.5126 116.105C96.6535 116.634 95.6394 116.938 94.6317 116.872C93.511 116.799 92.4193 116.29 91.4342 115.775C90.2263 115.14 89.0798 114.393 87.8686 113.765C87.4714 113.56 87.0063 113.663 86.7641 114.062C86.1536 115.071 85.4851 116.046 84.7003 116.921C83.9607 117.744 83.0951 118.571 82.0551 118.97C79.7685 119.85 77.3332 118.233 75.9994 116.402C75.7378 116.046 75.3017 115.864 74.8948 116.105C74.5524 116.313 74.3457 116.878 74.6073 117.235Z" fill="#3A3733"/>
</g>
</g>
</svg>
