<svg width="24" height="24" viewBox="0 0 24 24" fill="none" xmlns="http://www.w3.org/2000/svg">
<path d="M17.9955 6.03449H17.9967C18.7228 6.03566 19.4176 6.2489 19.9387 6.72871C20.4686 7.21652 20.7394 7.90706 20.7406 8.69868L20.7406 8.69982L20.7406 8.7079L20.7406 8.73174L20.7407 8.82294L20.741 9.16562L20.7421 10.3825L20.7453 14.0657L20.7485 17.745L20.7496 18.957L20.7499 19.2966L20.75 19.386L20.75 19.409L20.75 19.4148V19.4162L20.75 19.4166C20.75 19.4167 20.75 19.4167 20 19.4174L20.75 19.4167V19.4174C20.75 19.4456 20.7485 19.4703 20.7467 19.4904C20.7457 19.5008 20.7446 19.5104 20.7435 19.5191C20.715 20.5871 19.9323 21.7012 18.7626 21.7431C18.757 21.7439 18.751 21.7446 18.7449 21.7453C18.7206 21.7479 18.6915 21.75 18.6587 21.75H5.34101C5.29433 21.75 5.25307 21.7458 5.219 21.7405C4.56203 21.7095 4.0605 21.3198 3.7485 20.8514C3.42683 20.3684 3.26443 19.754 3.26094 19.1359L3.26094 19.1353C3.24406 15.6551 3.24781 12.1753 3.26468 8.69618L3.26468 8.69613C3.26822 7.97481 3.48942 7.31366 3.92606 6.82075C4.36804 6.32181 4.98914 6.0445 5.6804 6.03643M17.9955 6.03449L15.9448 5.22912C15.9459 4.39241 15.7842 3.62345 15.3049 3.0598C14.8038 2.4706 14.0842 2.25197 13.3039 2.25084H13.3028C12.9947 2.25084 12.6863 2.25063 12.3776 2.25042C11.7594 2.25 11.1403 2.24958 10.5212 2.25084L10.52 2.25084C9.79602 2.25343 9.15292 2.53162 8.70126 3.06402C8.2614 3.58249 8.05952 4.27375 8.05487 5.01978M17.9955 6.03449C17.3124 6.03449 16.6293 6.03339 15.9448 6.03203L17.9955 6.03449ZM5.6804 6.03643C6.10845 6.03109 6.53894 6.0323 6.96303 6.03349C7.14246 6.03399 7.32076 6.03449 7.49723 6.03449H7.49948H7.50173H7.50398H7.50623H7.50848H7.51073H7.51299H7.51524H7.51749H7.51974H7.52199H7.52424H7.52649H7.52874H7.53099H7.53324H7.53549H7.53774H7.54H7.54225H7.5445H7.54675H7.549H7.55125H7.5535H7.55576H7.55801H7.56026H7.56251H7.56476H7.56702H7.56927H7.57152H7.57377H7.57602H7.57828H7.58053H7.58278H7.58503H7.58729H7.58954H7.59179H7.59405H7.5963H7.59855H7.6008H7.60306H7.60531H7.60756H7.60982H7.61207H7.61433H7.61658H7.61883H7.62109H7.62334H7.6256H7.62785H7.6301H7.63236H7.63461H7.63687H7.63912H7.64138H7.64363H7.64589H7.64814H7.6504H7.65266H7.65491H7.65717H7.65942H7.66168H7.66393H7.66619H7.66845H7.6707H7.67296H7.67522H7.67747H7.67973H7.68199H7.68424H7.6865H7.68876H7.69102H7.69327H7.69553H7.69779H7.70005H7.70231H7.70457H7.70682H7.70908H7.71134H7.7136H7.71586H7.71812H7.72038H7.72264H7.7249H7.72716H7.72942H7.73168H7.73394H7.7362H7.73846H7.74072H7.74298H7.74524H7.7475H7.74976H7.75202H7.75428H7.75655H7.75881H7.76107H7.76333H7.76559H7.76786H7.77012H7.77238H7.77465H7.77691H7.77917H7.78144H7.7837H7.78596H7.78823H7.79049H7.79276H7.79502H7.79729H7.79955H7.80182H7.80408H7.80635H7.80861H7.81088H7.81314H7.81541H7.81768H7.81994H7.82221H7.82448H7.82674H7.82901H7.83128H7.83355H7.83581H7.83808H7.84035H7.84262H7.84489H7.84716H7.84942H7.85169H7.85396H7.85623H7.8585H7.86077H7.86304H7.86531H7.86758H7.86986H7.87213H7.8744H7.87667H7.87894H7.88121H7.88348H7.88576H7.88803H7.8903H7.89258H7.89485H7.89712H7.8994H7.90167H7.90394H7.90622H7.90849H7.91077H7.91304H7.91532H7.91759H7.91987H7.92214H7.92442H7.9267H7.92897H7.93125H7.93353H7.93581H7.93808H7.94036H7.94264H7.94492H7.9472H7.94947H7.95175H7.95403H7.95631H7.95859H7.96087H7.96315H7.96543H7.96771H7.96999H7.97228H7.97456H7.97684H7.97912H7.9814H7.98369H7.98597H7.98825H7.99053H7.99282H7.9951H7.99739H7.99967H8.00196H8.00424H8.00653H8.00881H8.0111H8.01338H8.01567H8.01796H8.02024H8.02253H8.02482H8.0271H8.02939H8.03168H8.03397H8.03626H8.03855H8.04084H8.04313H8.04541H8.04771H8.05H8.05229H8.05389C8.0531 5.6918 8.05246 5.35408 8.05487 5.01978M5.6804 6.03643C5.68053 6.03642 5.68067 6.03642 5.6808 6.03642L5.68945 6.78637L5.6801 6.03643C5.6802 6.03643 5.6803 6.03643 5.6804 6.03643ZM8.05487 5.01978L8.80475 5.02517L8.05486 5.02066C8.05487 5.02036 8.05487 5.02007 8.05487 5.01978ZM18.8522 21.7261C18.8525 21.7261 18.8523 21.7261 18.8519 21.7262L18.8522 21.7261ZM20.7326 19.5853L20.7332 19.5823C20.7326 19.5854 20.7321 19.5878 20.7326 19.5853ZM11.1753 5.66804H12.8356V6.01382H11.1753V5.66804Z" stroke="#72CF6B" stroke-width="1.5"/>
<path fill-rule="evenodd" clip-rule="evenodd" d="M15.3245 6.78075C16.2161 6.78262 17.1058 6.78449 17.9955 6.78449C19.1645 6.78637 19.9888 7.46679 19.9906 8.69982L20 19.4174C20 19.424 19.9986 19.431 19.9972 19.438C19.9958 19.4451 19.9944 19.4521 19.9944 19.4587C19.9944 20.2763 19.3949 20.9943 18.6943 20.9943C18.6875 20.9943 18.6812 20.9959 18.6751 20.9973C18.6695 20.9987 18.6641 21 18.6587 21H5.34101C5.33445 21 5.32836 20.9981 5.32227 20.9962C5.31618 20.9944 5.3101 20.9925 5.30354 20.9925C4.53921 20.9925 4.01655 20.1278 4.01093 19.1317C3.99407 15.6544 3.99781 12.1771 4.01467 8.69982C4.02029 7.55514 4.71156 6.79765 5.68945 6.78637C6.11162 6.78111 6.53288 6.78229 6.9545 6.78348C7.13531 6.78398 7.31619 6.78449 7.49723 6.78449H8.67743C8.74863 6.78449 8.80485 6.71683 8.80485 6.63412C8.80485 6.44554 8.80442 6.2606 8.80399 6.07815C8.80316 5.72051 8.80235 5.37243 8.80485 5.02517C8.81232 3.78463 9.47362 3.00459 10.5227 3.00084C11.1408 2.99958 11.7581 3 12.3757 3.00042C12.6846 3.00063 12.9936 3.00084 13.3028 3.00084C14.5935 3.00271 15.1967 3.70945 15.1948 5.22818V6.63224C15.1948 6.70931 15.2454 6.77509 15.311 6.78073H15.3185L15.3245 6.78075ZM13.4582 4.91804H10.5527C10.4834 4.91804 10.4271 4.9857 10.4253 5.06841V6.61345C10.4253 6.69615 10.4834 6.76382 10.5527 6.76382H13.4582C13.5294 6.76382 13.5856 6.69615 13.5856 6.61345V5.06841C13.5856 4.9857 13.5275 4.91804 13.4582 4.91804ZM16.3061 9.24755L16.2683 9.24487C15.5471 9.26933 14.9158 9.5663 15.0263 10.6076C15.0619 10.9704 15.2492 11.241 15.5808 11.3895C16.0285 11.5906 16.4913 11.5982 16.9409 11.4027C17.4167 11.1959 17.5422 10.7899 17.5272 10.305C17.5103 9.82379 17.2687 9.48172 16.8135 9.32759C16.6477 9.27155 16.4771 9.25956 16.3061 9.24755ZM6.47247 14.0079V10.4179C6.47247 9.7976 6.7516 9.45176 7.36044 9.31455C8.0592 9.15665 8.69614 9.49877 8.91719 10.1472C8.96404 10.2863 8.97901 10.4292 8.97901 10.5739C8.97777 11.0235 8.97818 11.4722 8.9786 11.9212V11.9214V11.9216V11.9219C8.97881 12.1466 8.97901 12.3714 8.97901 12.5964C8.97901 12.8708 9.06706 12.9572 9.34433 12.9572H10.7175C10.9723 12.9572 11.0622 12.867 11.0622 12.6151C11.0622 12.404 11.0615 12.1929 11.0608 11.9818C11.0592 11.507 11.0576 11.0325 11.064 10.5589C11.0716 10.0401 11.2982 9.63221 11.7722 9.41229C12.263 9.18297 12.7557 9.23374 13.2016 9.54387C13.4676 9.72808 13.5669 10.0081 13.5669 10.3314C13.5656 11.2687 13.566 12.206 13.5665 13.1433C13.5667 13.612 13.5669 14.0806 13.5669 14.5493V17.4946C13.5669 18.2784 12.8962 18.8517 12.1225 18.7333C12.0307 18.7201 11.9389 18.7051 11.8509 18.6807C11.3395 18.5397 11.066 18.1845 11.064 17.6525C11.0628 17.1525 11.0632 16.6526 11.0636 16.1532V16.1532V16.1532V16.1527C11.0638 15.9031 11.064 15.6537 11.064 15.4045C11.064 15.1488 10.976 15.0586 10.7231 15.0568C10.2604 15.0549 9.79578 15.0549 9.33309 15.0568C9.0727 15.0568 8.98088 15.1526 8.98088 15.4176V17.457C8.98088 18.0134 8.72987 18.4269 8.2222 18.6374C7.71075 18.8498 7.20682 18.7822 6.77408 18.4213C6.5474 18.2333 6.47621 17.9589 6.47621 17.6694C6.47172 16.6934 6.47202 15.7162 6.47232 14.7396V14.7396V14.7396V14.7396L6.47247 14.0079ZM14.9814 15.487C14.9814 15.2706 14.9828 15.0542 14.9843 14.8378C14.9875 14.3513 14.9907 13.8647 14.9777 13.3781C14.959 12.7259 15.3655 12.3537 15.9593 12.2691C16.2216 12.2316 16.4895 12.2391 16.748 12.3237C17.2201 12.4778 17.4805 12.8048 17.4823 13.3011C17.488 14.7596 17.488 16.2163 17.4823 17.6749C17.4805 18.2068 17.1957 18.5527 16.6787 18.6861C16.334 18.7764 15.993 18.7613 15.6558 18.6467C15.2306 18.5 14.9833 18.1655 14.9814 17.7181C14.9802 17.2222 14.9806 16.7263 14.981 16.2309V16.2305V16.23V16.2296C14.9812 15.9819 14.9814 15.7344 14.9814 15.487Z" fill="#12B505"/>
</svg>
