<svg width="24" height="24" viewBox="0 0 24 24" fill="none" xmlns="http://www.w3.org/2000/svg">
<path fill-rule="evenodd" clip-rule="evenodd" d="M17.9957 4.98444H17.9986C18.923 4.98593 19.8927 5.2589 20.6501 5.9562C21.4283 6.67267 21.7892 7.66028 21.7908 8.69704L21.8002 19.4153C21.8002 19.4153 21.8002 19.4157 20.0002 19.4173L19.9908 8.69977C19.9889 7.46674 19.1647 6.78632 17.9957 6.78444C17.1234 6.78444 16.2512 6.78264 15.3772 6.78081C15.3597 6.78077 15.3422 6.78074 15.3247 6.7807L15.3187 6.78069H15.3112C15.2456 6.77505 15.195 6.70926 15.195 6.63219V5.22813C15.1951 5.17383 15.1944 5.12058 15.1929 5.06836C15.1771 4.51204 15.0731 4.07293 14.8764 3.74512C14.575 3.2429 14.056 3.00188 13.303 3.00079C12.9938 3.00079 12.6848 3.00058 12.3759 3.00037C11.7583 2.99995 11.141 2.99953 10.5229 3.00079C9.89966 3.00302 9.41328 3.27923 9.11954 3.7632C8.91884 4.09388 8.80808 4.52157 8.80505 5.02513C8.80503 5.02734 8.80501 5.02956 8.805 5.03177C8.80491 5.04397 8.80483 5.05616 8.80475 5.06836C8.80261 5.40129 8.80339 5.7353 8.80419 6.0781C8.8046 6.25388 8.80501 6.43197 8.80504 6.6134C8.80504 6.62029 8.80505 6.62718 8.80505 6.63408C8.80505 6.71678 8.74883 6.78444 8.67763 6.78444H7.49743C7.31638 6.78444 7.13551 6.78393 6.9547 6.78343C6.53308 6.78224 6.11182 6.78106 5.68964 6.78632C4.71175 6.7976 4.02049 7.55509 4.01487 8.69977C3.99801 12.177 3.99426 15.6543 4.01112 19.1316C4.01674 20.1278 4.53941 20.9924 5.30373 20.9924C5.31029 20.9924 5.31638 20.9943 5.32247 20.9962C5.32856 20.9981 5.33465 21 5.3412 21H18.6589C18.6643 21 18.6697 20.9986 18.6753 20.9973C18.6814 20.9958 18.6877 20.9943 18.6945 20.9943C19.3951 20.9943 19.9946 20.2763 19.9946 19.4587C19.9946 19.4521 19.996 19.445 19.9974 19.438C19.9988 19.431 20.0002 19.4239 20.0002 19.4173L21.8002 19.4153L21.8002 19.4173C21.8002 19.4827 21.7967 19.5396 21.7925 19.5855C21.7922 19.5895 21.7918 19.5935 21.7914 19.5974C21.7268 21.0408 20.6625 22.7056 18.8413 22.7909C18.7888 22.7961 18.7274 22.7999 18.6589 22.7999H5.3412C5.25992 22.7999 5.18579 22.7945 5.1206 22.7866C4.07374 22.7202 3.31258 22.0907 2.8748 21.4334C2.42047 20.7513 2.21559 19.9279 2.21115 19.1418L2.21114 19.1403C2.19425 15.656 2.19801 12.1728 2.21489 8.69104C2.21946 7.76114 2.50641 6.84002 3.14029 6.12445C3.78701 5.3944 4.69346 4.99791 5.66804 4.98645M7.00535 4.98354C7.01624 4.07026 7.26815 3.13039 7.90077 2.3847C8.56842 1.59772 9.51322 1.20439 10.5164 1.2008L10.5192 1.20079C11.1397 1.19953 11.7614 1.19995 12.3805 1.20037C12.6888 1.20058 12.9964 1.20079 13.303 1.20079H13.3056C14.2749 1.2022 15.339 1.47889 16.1049 2.37952C16.7572 3.14651 16.9616 4.10337 16.9911 4.98375C17.3261 4.98418 17.6609 4.98444 17.9957 4.98444M21.7623 19.7916L21.7628 19.7892C21.7624 19.7913 21.7623 19.7916 21.7623 19.7916ZM13.4584 6.76377C13.5241 6.76377 13.5771 6.70611 13.5849 6.63219C13.5855 6.62603 13.5858 6.61976 13.5858 6.6134V5.06836C13.5858 4.98566 13.5277 4.91799 13.4584 4.91799H10.5529C10.4932 4.91799 10.4432 4.96816 10.4293 5.0349L10.4289 5.03682C10.4269 5.04699 10.4257 5.05755 10.4255 5.06836V6.6134C10.4255 6.62041 10.4259 6.62731 10.4267 6.63408C10.4354 6.70709 10.4894 6.76377 10.5529 6.76377H13.4584ZM11.9891 5.84162C11.9958 5.85445 12.0027 5.86724 12.0098 5.87999C12.0157 5.86978 12.0214 5.85954 12.027 5.84925C12.0202 5.83612 12.0132 5.82302 12.006 5.80997C12.0002 5.82049 11.9946 5.83104 11.9891 5.84162Z" fill="#A6A6A6"/>
<path d="M6.47247 14.0079C6.47247 12.8106 6.47247 11.6133 6.47247 10.4179C6.47247 9.7976 6.7516 9.45176 7.36044 9.31455C8.0592 9.15665 8.69614 9.49877 8.91719 10.1472C8.96404 10.2863 8.97901 10.4292 8.97901 10.5739C8.97715 11.2487 8.97901 11.9216 8.97901 12.5964C8.97901 12.8708 9.06706 12.9572 9.34433 12.9572C9.80143 12.9572 10.2585 12.9572 10.7175 12.9572C10.9723 12.9572 11.0622 12.867 11.0622 12.6151C11.0622 11.9291 11.0547 11.243 11.064 10.5589C11.0716 10.0401 11.2982 9.63221 11.7722 9.41229C12.263 9.18297 12.7557 9.23374 13.2016 9.54387C13.4676 9.72808 13.5669 10.0081 13.5669 10.3314C13.565 11.7374 13.5669 13.1433 13.5669 14.5493C13.5669 15.5304 13.5669 16.5134 13.5669 17.4946C13.5669 18.2784 12.8962 18.8517 12.1225 18.7333C12.0307 18.7201 11.9389 18.7051 11.8509 18.6807C11.3395 18.5397 11.066 18.1845 11.064 17.6525C11.0622 16.9025 11.064 16.1526 11.064 15.4045C11.064 15.1488 10.976 15.0586 10.7231 15.0568C10.2604 15.0549 9.79578 15.0549 9.33309 15.0568C9.0727 15.0568 8.98088 15.1526 8.98088 15.4176C8.98088 16.0981 8.98088 16.7766 8.98088 17.457C8.98088 18.0134 8.72987 18.4269 8.2222 18.6374C7.71075 18.8498 7.20682 18.7822 6.77408 18.4213C6.5474 18.2333 6.47621 17.9589 6.47621 17.6694C6.4706 16.4496 6.47247 15.2278 6.47247 14.0079Z" fill="#A6A6A6"/>
<path d="M14.9814 15.487C14.9814 14.784 14.9964 14.0811 14.9777 13.3781C14.959 12.7259 15.3655 12.3537 15.9593 12.2691C16.2216 12.2316 16.4895 12.2391 16.748 12.3237C17.2201 12.4778 17.4805 12.8048 17.4823 13.3011C17.488 14.7596 17.488 16.2163 17.4823 17.6749C17.4805 18.2068 17.1957 18.5527 16.6787 18.6861C16.334 18.7764 15.9931 18.7613 15.6558 18.6467C15.2306 18.5 14.9833 18.1655 14.9814 17.7181C14.9795 16.9738 14.9814 16.2295 14.9814 15.487Z" fill="#A6A6A6"/>
<path d="M16.2683 9.24487C16.4519 9.25803 16.6355 9.26742 16.8135 9.32759C17.2687 9.48172 17.5103 9.82379 17.5272 10.305C17.5422 10.7899 17.4167 11.1959 16.9409 11.4027C16.4913 11.5982 16.0285 11.5906 15.5808 11.3895C15.2492 11.241 15.0619 10.9704 15.0263 10.6076C14.9158 9.5663 15.5471 9.26933 16.2683 9.24487Z" fill="#A6A6A6"/>
</svg>
