<svg width="24" height="24" viewBox="0 0 24 24" fill="none" xmlns="http://www.w3.org/2000/svg">
<path d="M8.89365 2C7.80182 2 6.84628 2.79995 6.84628 3.86569C6.84628 4.38532 7.30109 4.73809 7.78141 4.73809C8.26172 4.73809 8.71653 4.38532 8.71653 3.86569C8.71653 3.84636 8.7246 3.82029 8.75423 3.79383C8.78443 3.76686 8.83284 3.74481 8.89365 3.74481H18.9526C19.0134 3.74481 19.0619 3.76686 19.0921 3.79383C19.1217 3.82029 19.1298 3.84636 19.1298 3.86569V16.7547C19.1298 16.774 19.1217 16.8001 19.0921 16.8265C19.0618 16.8535 19.0134 16.8756 18.9526 16.8756C18.4723 16.8756 18.0175 17.2283 18.0175 17.748C18.0175 18.2676 18.4723 18.6204 18.9526 18.6204C20.0445 18.6204 21 17.8204 21 16.7547V3.86569C21 2.79995 20.0445 2 18.9526 2H8.89365Z" fill="#595959"/>
<path fill-rule="evenodd" clip-rule="evenodd" d="M5.04737 5.37963C3.95554 5.37963 3 6.17958 3 7.24532V20.1343C3 21.2001 3.95554 22 5.04737 22H15.1064C16.1982 22 17.1537 21.2001 17.1537 20.1343L17.1537 7.24532L17.1537 7.24353C17.1481 6.18017 16.1949 5.37963 15.1064 5.37963H5.04737ZM4.86581 7.24532C4.86581 7.22599 4.87389 7.19992 4.90351 7.17346C4.93372 7.14649 4.98213 7.12443 5.04294 7.12443H15.1019C15.1627 7.12443 15.2111 7.14649 15.2413 7.17346C15.271 7.19992 15.2791 7.22599 15.2791 7.24532V20.1304C15.2791 20.1497 15.271 20.1758 15.2413 20.2022C15.2111 20.2292 15.1627 20.2512 15.1019 20.2512H5.04294C4.98213 20.2512 4.93372 20.2292 4.90351 20.2022C4.87389 20.1758 4.86581 20.1497 4.86581 20.1304V7.24532Z" fill="#595959"/>
</svg>
