<svg width="22" height="20" viewBox="0 0 22 20" fill="none" xmlns="http://www.w3.org/2000/svg">
<path d="M6.4167 12.3811C7.42922 12.3811 8.25003 11.5283 8.25003 10.4763C8.25003 9.42432 7.42922 8.57153 6.4167 8.57153C5.40418 8.57153 4.58337 9.42432 4.58337 10.4763C4.58337 11.5283 5.40418 12.3811 6.4167 12.3811Z" fill="#808080"/>
<path d="M12.8333 10.4763C12.8333 11.5283 12.0125 12.3811 11 12.3811C9.98743 12.3811 9.16662 11.5283 9.16662 10.4763C9.16662 9.42432 9.98743 8.57153 11 8.57153C12.0125 8.57153 12.8333 9.42432 12.8333 10.4763Z" fill="#808080"/>
<path d="M15.5833 12.3811C16.5958 12.3811 17.4167 11.5283 17.4167 10.4763C17.4167 9.42432 16.5958 8.57153 15.5833 8.57153C14.5708 8.57153 13.75 9.42432 13.75 10.4763C13.75 11.5283 14.5708 12.3811 15.5833 12.3811Z" fill="#808080"/>
<path fill-rule="evenodd" clip-rule="evenodd" d="M21.9991 10.0077C22.0136 11.1796 21.8545 12.3516 21.5218 13.4618C20.7697 16.037 18.9617 18.0879 16.6042 19.0439C15.3603 19.6299 13.3354 20 11.0502 20C9.08312 20 7.3041 19.7224 6.06024 19.2907C5.88749 19.2272 5.7275 19.1625 5.57214 19.0998C4.97322 18.8579 4.44269 18.6436 3.51465 18.6276C3.20461 18.6223 2.94084 18.6577 2.71339 18.7173L2.71233 18.7176C2.68183 18.7256 2.65198 18.734 2.62276 18.7429C2.58344 18.7548 2.54526 18.7674 2.50816 18.7806C2.13881 18.9121 1.87664 19.1044 1.66389 19.2604C1.46211 19.4084 1.30478 19.5238 1.14262 19.5238C0.378059 19.5238 0.678263 18.7364 0.843512 18.3029C0.876387 18.2167 0.903921 18.1445 0.916668 18.0952C0.974919 17.9418 1.01815 17.7864 1.05024 17.6266C1.06809 17.5377 1.08249 17.4476 1.0941 17.3556C1.14262 16.9717 1.14262 16.5574 1.14262 16.0833C1.15423 15.353 0.914212 14.6624 0.676917 13.9797C0.618602 13.8119 0.560433 13.6446 0.506224 13.4773C0.159098 12.3516 0 11.1796 0 10.0077C0 8.83577 0.159101 7.66384 0.491763 6.53816C1.24387 3.96299 3.05182 1.9121 5.40938 0.956051C6.65325 0.370085 8.67814 0 10.9634 0C12.9304 0 14.7095 0.277564 15.9533 0.72475C18.6002 1.54202 20.6974 3.71627 21.5218 6.53817C21.8545 7.66384 22.0136 8.83578 21.9991 10.0077ZM11.0502 18.1C9.24443 18.1 7.69384 17.8433 6.70009 17.5015C6.59964 17.4641 6.48975 17.419 6.36932 17.3695C5.7535 17.1166 4.8621 16.7505 3.54732 16.7279C3.3701 16.7248 3.20069 16.7305 3.03873 16.7435C3.04334 16.5506 3.04303 16.3682 3.04275 16.1995L3.04262 16.0961C3.05596 14.9901 2.66528 13.8898 2.42892 13.2242C2.38549 13.1019 2.34728 12.9942 2.31773 12.9039C2.03465 11.9808 1.9 11.0039 1.9 10.0077C1.9 9.00676 2.03598 8.01696 2.31387 7.07664L2.31557 7.07083C2.91491 5.01872 4.33635 3.44148 6.1234 2.71678L6.21909 2.67488C7.11114 2.25465 8.82363 1.9 10.9634 1.9C12.7818 1.9 14.3302 2.16026 15.3105 2.51271L15.3928 2.54018C17.3947 3.15832 19.042 4.82546 19.698 7.07098L19.6997 7.07664C19.9776 8.01692 20.1114 8.99928 20.0992 9.98426V10.0312C20.1114 11.0175 19.9772 11.9972 19.7017 12.9165L19.698 12.9292C19.0986 14.9813 17.6772 16.5585 15.8902 17.2832L15.7945 17.3251C14.9024 17.7453 13.1899 18.1 11.0502 18.1Z" fill="#808080"/>
</svg>
