<svg width="115" height="140" viewBox="0 0 115 140" fill="none" xmlns="http://www.w3.org/2000/svg">
<path d="M10.5 118.9H7.5V121.9C7.5 124.454 8.48696 127.03 10.3787 128.921C12.2704 130.813 14.8465 131.8 17.4 131.8H109.6C110.229 131.8 110.732 132.002 111.125 132.37C111.585 132.905 111.8 133.489 111.8 134C111.8 134.658 111.579 135.178 111.179 135.579C110.778 135.979 110.258 136.2 109.6 136.2H17.4C13.5918 136.2 9.95599 134.713 7.22132 131.979C4.48664 129.244 3 125.608 3 121.8V17.4C3 13.5918 4.48664 9.956 7.22132 7.22132C9.956 4.48664 13.5918 3 17.4 3H97.4C99.3418 3 101.243 3.33555 103.041 4.0673C104.774 4.81337 106.349 5.89119 107.679 7.22132C108.995 8.5379 110.065 10.0942 110.81 11.8059C111.509 13.7499 111.9 15.5699 111.9 17.4V116.7C111.9 117.358 111.679 117.878 111.279 118.279C110.878 118.679 110.358 118.9 109.7 118.9H10.5Z" fill="#C7E7BF" stroke="#72CF6B" stroke-width="6"/>
<path d="M80.0008 71.3016V74.8016C80.0008 81.8016 70.4008 87.0016 57.4008 87.0016C44.4008 87.0016 34.8008 81.8016 34.8008 74.8016V71.3016C34.8008 69.9016 35.3008 68.6016 36.3008 67.6016C37.3008 66.6016 38.6008 66.1016 40.0008 66.1016H74.8008C76.2008 66.1016 77.5008 66.6016 78.5008 67.6016C79.5008 68.6016 80.0008 69.9016 80.0008 71.3016Z" fill="#72CF6B"/>
<path d="M69.5992 46.9008C69.5992 50.1008 68.2992 53.2008 65.9992 55.5008C63.6992 57.8008 60.5992 59.1008 57.3992 59.1008C54.1992 59.1008 51.0992 57.8008 48.7992 55.5008C46.4992 53.2008 45.1992 50.1008 45.1992 46.9008C45.1992 40.2008 50.5992 34.8008 57.3992 34.8008C64.1992 34.8008 69.5992 40.2008 69.5992 46.9008Z" fill="#72CF6B"/>
</svg>
