<svg width="24" height="24" viewBox="0 0 24 24" fill="none" xmlns="http://www.w3.org/2000/svg">
<path d="M15.9464 3.33301C16.365 2.889 17.059 2.889 17.4776 3.33301L21.6118 7.71783C22.1294 8.26675 22.1294 9.1377 21.6118 9.68662L17.4777 14.0714C17.059 14.5154 16.365 14.5155 15.9464 14.0714C15.5471 13.6479 15.5471 12.976 15.9464 12.5525L18.5334 9.8086H9.57168C6.56596 9.8086 4.1045 12.4054 4.1045 15.6169C4.1045 17.1066 4.81696 18.3885 5.43278 19.2149L5.45201 19.2408C5.80001 19.7078 5.72399 20.3738 5.28021 20.7458L5.26506 20.7585C4.80865 21.1411 4.13408 21.0601 3.77617 20.5797C2.97367 19.5027 2 17.757 2 15.6168C2.00008 11.2028 5.38783 7.59584 9.57172 7.59584H18.5334L15.9464 4.85193C15.5471 4.42845 15.5471 3.7565 15.9464 3.33301Z" fill="#595959"/>
</svg>
