<svg width="24" height="24" viewBox="0 0 24 24" fill="none" xmlns="http://www.w3.org/2000/svg">
<path fill-rule="evenodd" clip-rule="evenodd" d="M7.61671 4.8762C7.27964 4.8762 7.00633 5.14966 7.00633 5.48674V6.09335H5.68244C5.34537 6.09335 5.07206 6.36682 5.07206 6.7039C5.07206 7.04097 5.34537 7.31444 5.68244 7.31444H5.94903C6.05077 7.91631 6.30025 8.46815 6.6581 8.93173C6.35932 9.06322 6.02951 9.13641 5.68244 9.13641C5.34553 9.13641 5.07206 9.40956 5.07206 9.74679C5.07206 10.0839 5.34537 10.3573 5.68244 10.3573C6.39243 10.3573 7.05556 10.1532 7.61672 9.80133C8.178 10.1532 8.84114 10.3573 9.55115 10.3573C9.88821 10.3573 10.1615 10.0839 10.1615 9.74679C10.1615 9.40956 9.88805 9.13641 9.55115 9.13641C9.20395 9.13641 8.87412 9.06336 8.57541 8.93183C8.9333 8.46823 9.18281 7.91635 9.28456 7.31444H9.55115C9.88821 7.31444 10.1615 7.04097 10.1615 6.7039C10.1615 6.36682 9.88821 6.09335 9.55115 6.09335H8.22725V5.48674C8.22725 5.14958 7.95386 4.8762 7.61671 4.8762ZM7.61675 8.17599C7.42356 7.92275 7.27908 7.63094 7.19695 7.31444H8.03663C7.95449 7.63095 7.81 7.92275 7.61675 8.17599Z" fill="#595959"/>
<path fill-rule="evenodd" clip-rule="evenodd" d="M16.3799 13.6427C16.2261 13.6427 16.0614 13.6714 15.918 13.7408C15.7738 13.8105 15.6325 13.9326 15.5756 14.1215L14.274 18.3617L14.2702 18.3771C14.2672 18.3893 14.2627 18.4071 14.2593 18.4234C14.2568 18.4352 14.2497 18.4683 14.2497 18.5041C14.2497 18.7471 14.425 18.9056 14.5635 18.9872C14.711 19.0741 14.8939 19.1236 15.0581 19.1236C15.1551 19.1236 15.2681 19.1089 15.3709 19.0534C15.4822 18.9933 15.5656 18.8926 15.6014 18.76L15.8037 18.0514H16.9627L17.1655 18.7608C17.2012 18.8934 17.2844 18.9932 17.3956 19.0533C17.4984 19.1089 17.6114 19.1236 17.7084 19.1236C17.8748 19.1236 18.058 19.0712 18.2043 18.9839C18.3397 18.9031 18.5168 18.745 18.5168 18.5041C18.5168 18.4538 18.5049 18.4093 18.5002 18.3919L18.4999 18.3906L18.4992 18.3881L18.4958 18.3737L17.1907 14.1208C17.1337 13.9315 16.9923 13.8101 16.847 13.7404C16.7025 13.6711 16.5363 13.6427 16.3799 13.6427ZM16.131 16.8526L16.3798 15.9745L16.6288 16.8526H16.131Z" fill="#595959"/>
<path fill-rule="evenodd" clip-rule="evenodd" d="M3.57088 1C2.15298 1 1 2.15298 1 3.57088V11.6629C1 13.0807 2.15299 14.2336 3.57088 14.2336H9.76653V16.6021L7.77687 18.0232C7.54436 18.1894 7.40631 18.4576 7.40631 18.7434C7.40631 19.0292 7.54434 19.2975 7.777 19.4635L9.81321 20.9179C10.0421 22.1026 11.0863 23 12.3372 23H20.4293C21.847 23 23 21.8468 23 20.4291V12.3372C23 10.9193 21.847 9.76636 20.4293 9.76636H14.2335V7.39791L16.2231 5.97677C16.4556 5.81067 16.5937 5.54264 16.5937 5.25677C16.5937 4.97077 16.4556 4.7027 16.2231 4.53658L14.1868 3.08213C13.9579 1.89743 12.9137 1 11.6628 1H3.57088ZM2.76999 3.57072C2.76999 3.12946 3.12941 2.76999 3.57088 2.76999H11.6628C12.104 2.76999 12.4635 3.12944 12.4635 3.57072C12.4635 3.85659 12.6015 4.12493 12.8342 4.29098L14.186 5.25661L12.834 6.22233C12.6015 6.38848 12.4635 6.6567 12.4635 6.9425V9.76636H12.3372C10.9195 9.76636 9.76653 10.9193 9.76653 12.3371V12.4637H3.57088C3.12944 12.4637 2.76999 12.1042 2.76999 11.6628V3.57072ZM11.5365 12.3372C11.5365 11.8958 11.896 11.5363 12.3372 11.5363H20.4293C20.8705 11.5363 21.23 11.8958 21.23 12.3372V20.4291C21.23 20.8706 20.8705 21.23 20.4293 21.23H12.3372C11.896 21.23 11.5365 20.8706 11.5365 20.4291C11.5365 20.1434 11.3985 19.875 11.1658 19.709L9.81396 18.7434L11.166 17.7777C11.3985 17.6115 11.5365 17.3433 11.5365 17.0575V12.3372Z" fill="#595959"/>
</svg>
