<svg width="24" height="24" viewBox="0 0 24 24" fill="none" xmlns="http://www.w3.org/2000/svg">
<path d="M9.25 12C10.1613 12 10.9 11.2538 10.9 10.3333C10.9 9.41286 10.1613 8.66667 9.25 8.66667C8.33873 8.66667 7.6 9.41286 7.6 10.3333C7.6 11.2538 8.33873 12 9.25 12Z" fill="#808080"/>
<path fill-rule="evenodd" clip-rule="evenodd" d="M1 5.33333V18.6667C1 20.5076 2.47746 22 4.3 22H19.7C21.5225 22 23 20.5076 23 18.6667V5.33333C23 3.49238 21.5225 2 19.7 2H4.3C2.47746 2 1 3.49238 1 5.33333ZM19.7 4H4.3C3.57099 4 2.98 4.59695 2.98 5.33333V15.0706L4.40579 13.7385C5.18768 13.0079 6.3754 12.948 7.2254 13.5964L9.1671 15.0774C9.59981 15.4074 10.2061 15.3697 10.5955 14.9886L15.455 10.2319C16.335 9.3705 17.7421 9.40141 18.5842 10.3006L21.02 12.9016V5.33333C21.02 4.59695 20.429 4 19.7 4ZM5.67559 15.1251L2.98 17.6437V18.6667C2.98 19.403 3.57098 20 4.3 20H19.7C20.429 20 21.02 19.403 21.02 18.6667V15.6503L17.2257 11.5987C17.0994 11.4638 16.8883 11.4591 16.7563 11.5883L11.8968 16.345C10.8455 17.3741 9.20855 17.4759 8.04023 16.5848L6.09854 15.1038C5.97103 15.0065 5.79288 15.0155 5.67559 15.1251Z" fill="#808080"/>
</svg>
