<svg width="26" height="24" viewBox="0 0 26 24" fill="none" xmlns="http://www.w3.org/2000/svg">
<path fill-rule="evenodd" clip-rule="evenodd" d="M0.5 4.5C0.5 2.42893 2.17893 0.75 4.25 0.75H21.75C23.8211 0.75 25.5 2.42893 25.5 4.5V19.5C25.5 21.5711 23.8211 23.25 21.75 23.25H4.25C2.17893 23.25 0.5 21.5711 0.5 19.5V4.5ZM5.94287 14.672L3.97373 16.1899C3.35969 16.6632 3 17.3946 3 18.1699V18.25C3 19.6307 4.11929 20.75 5.5 20.75H20.5C21.8807 20.75 23 19.6307 23 18.25V16.6413C23 15.9233 22.6913 15.24 22.1526 14.7654L19.1771 12.1441C18.263 11.3388 16.9016 11.3096 15.9538 12.075L11.8031 15.4269C11.3874 15.7626 10.8043 15.7969 10.352 15.5123L8.8006 14.5361C7.91368 13.978 6.77282 14.0323 5.94287 14.672ZM9.875 12C10.9105 12 11.75 11.1605 11.75 10.125C11.75 9.08947 10.9105 8.25 9.875 8.25C8.83947 8.25 8 9.08947 8 10.125C8 11.1605 8.83947 12 9.875 12Z" fill="white"/>
</svg>
