<svg width="16" height="20" viewBox="0 0 16 20" fill="none" xmlns="http://www.w3.org/2000/svg">
<path d="M6.27981 11.416H7.19583C7.46698 11.416 7.6732 11.3522 7.81448 11.2246C7.95803 11.097 8.02981 10.9147 8.02981 10.6777C8.02981 10.4339 7.95803 10.2368 7.81448 10.0864C7.67092 9.93604 7.47268 9.85856 7.21975 9.854H6.27981V11.416Z" fill="white"/>
<path fill-rule="evenodd" clip-rule="evenodd" d="M3 20H13C14.6569 20 16 18.6569 16 17V6.24264C16 5.44699 15.6839 4.68393 15.1213 4.12132L11.8787 0.878679C11.3161 0.31607 10.553 0 9.75736 0H3C1.34315 0 0 1.34315 0 3V17C0 18.6569 1.34315 20 3 20ZM15 5H12C11.4477 5 11 4.55228 11 4V1L15 5ZM12.5278 13.8872C12.865 13.7642 13.1259 13.5921 13.3105 13.3711V11.3853H11.352V12.1406H12.2851V12.9985C12.121 13.1626 11.8464 13.2446 11.4614 13.2446C11.0785 13.2446 10.788 13.1113 10.5898 12.8447C10.3915 12.5781 10.2924 12.1839 10.2924 11.6621V11.3442C10.2947 10.827 10.387 10.4373 10.5693 10.1753C10.7516 9.91325 11.017 9.78223 11.3657 9.78223C11.6391 9.78223 11.8533 9.84831 12.0082 9.98047C12.1655 10.1126 12.2669 10.3211 12.3124 10.606H13.3105C13.249 10.0682 13.0518 9.65918 12.7192 9.37891C12.3865 9.09635 11.9251 8.95508 11.3349 8.95508C10.9111 8.95508 10.5408 9.05192 10.224 9.24561C9.9096 9.43701 9.66806 9.71501 9.49944 10.0796C9.3331 10.4419 9.24993 10.8714 9.24993 11.3682V11.7065C9.25448 12.1896 9.34449 12.61 9.51995 12.9678C9.69768 13.3255 9.94833 13.599 10.2719 13.7881C10.5977 13.9749 10.976 14.0684 11.4067 14.0684C11.8168 14.0684 12.1905 14.008 12.5278 13.8872ZM3.75061 9.02344H4.776V12.4688C4.776 12.7855 4.70536 13.0658 4.56409 13.3096C4.42509 13.5511 4.22799 13.738 3.97278 13.8701C3.71757 14.0023 3.42932 14.0684 3.10803 14.0684C2.58167 14.0684 2.17151 13.9351 1.87756 13.6685C1.58362 13.3996 1.43665 13.0202 1.43665 12.5303H2.46887C2.46887 12.7741 2.52014 12.9541 2.62268 13.0703C2.72522 13.1865 2.887 13.2446 3.10803 13.2446C3.304 13.2446 3.46008 13.1774 3.57629 13.043C3.6925 12.9085 3.75061 12.7171 3.75061 12.4688V9.02344ZM6.27981 12.2466V14H5.25442V9.02344H7.19583C7.56952 9.02344 7.89765 9.0918 8.1802 9.22852C8.46503 9.36523 8.68378 9.56006 8.83645 9.81299C8.98912 10.0636 9.06545 10.3496 9.06545 10.6709C9.06545 11.1585 8.89797 11.5436 8.56301 11.8262C8.23033 12.1064 7.7689 12.2466 7.17874 12.2466H6.27981Z" fill="white"/>
</svg>
