<svg width="23" height="20" viewBox="0 0 23 20" fill="none" xmlns="http://www.w3.org/2000/svg">
<path d="M15.8005 8.25537C15.0958 8.25537 14.5347 8.60347 14.5347 9.31022V13.6921C14.5347 14.3925 15.0937 14.7469 15.8005 14.7469C16.5072 14.7469 17.0537 14.3988 17.0537 13.6921V9.31022C17.0537 8.60769 16.5051 8.25537 15.8005 8.25537Z" fill="#2AA45A"/>
<path d="M14.5769 6.48533C14.5769 7.19208 15.1381 7.54018 15.8427 7.54018C16.5474 7.54018 17.0959 7.18786 17.0959 6.48533V6.31022C17.0959 5.60347 16.5495 5.25537 15.8427 5.25537C15.136 5.25537 14.5769 5.6098 14.5769 6.31022V6.48533Z" fill="#2AA45A"/>
<path d="M7.28554 5.28486C6.56402 5.27009 6.00073 5.62241 6.00073 6.33971V13.7047C6.00073 14.4178 6.56402 14.7722 7.28554 14.7595C7.97308 14.7435 8.52202 14.1814 8.52183 13.4937V11.3376C8.52183 11.192 8.6399 11.0739 8.78554 11.0739H10.3446C10.4903 11.0739 10.6083 11.192 10.6083 11.3376V13.6836C10.6083 14.3988 11.1885 14.7511 11.9121 14.7384C12.5878 14.7269 13.1295 14.1758 13.1294 13.5001V6.32705C13.1294 5.61397 12.5661 5.26165 11.8446 5.2722C11.1571 5.28825 10.6081 5.8503 10.6083 6.53803V8.69414C10.6083 8.76389 10.5805 8.83075 10.531 8.87988C10.4814 8.929 10.4144 8.95631 10.3446 8.95575H8.78554C8.6399 8.95575 8.52183 8.83768 8.52183 8.69203V6.55068C8.52202 5.86296 7.97308 5.30091 7.28554 5.28486Z" fill="#2AA45A"/>
<path fill-rule="evenodd" clip-rule="evenodd" d="M11.5113 0.25C9.27295 0.25 7.22612 0.590535 5.90408 1.15941C3.43572 2.10269 1.53632 4.12654 0.751617 6.65034C0.406624 7.73294 0.237514 8.86386 0.250718 10C0.237514 11.1361 0.406614 12.267 0.751586 13.3496C1.61065 16.115 3.80146 18.2635 6.58241 19.0688C7.87651 19.4969 9.65313 19.75 11.5873 19.75C13.8275 19.75 15.8749 19.4089 17.1921 18.8521C19.6621 17.9097 21.5627 15.885 22.347 13.36C22.6932 12.274 22.8623 11.1393 22.8479 9.9996C22.8611 8.86264 22.6916 7.73092 22.3461 6.64762L22.3438 6.64033L22.3413 6.63308C22.2743 6.43703 22.2136 6.27271 22.1562 6.11772C22.0805 5.91318 22.0107 5.72441 21.9407 5.5007C21.8311 5.15031 21.7663 4.83861 21.7676 4.53501C21.7748 3.81367 21.9468 3.1035 22.2703 2.45871C22.4772 2.04563 22.3973 1.5461 22.0714 1.21861C21.7989 0.944834 21.4057 0.842212 21.0421 0.935654H20.9712L20.8156 1.01149C20.1715 1.32545 19.4632 1.48513 18.7468 1.47789L18.741 1.47785C18.1219 1.47633 17.5556 1.28382 16.8475 1.04306C16.7454 1.00836 16.6403 0.972636 16.5318 0.936354C15.2364 0.505339 13.4528 0.25 11.5113 0.25ZM6.4848 2.54252C7.54727 2.08181 9.3748 1.75 11.5113 1.75C13.3418 1.75 14.9554 1.99279 16.0567 2.35915C16.1501 2.39036 16.2464 2.42349 16.3455 2.45755C17.0322 2.69373 17.8502 2.97506 18.7344 2.97784C19.3517 2.98379 19.9644 2.89623 20.5521 2.71977C20.3699 3.30169 20.2736 3.90895 20.2677 4.52232L20.2677 4.5257C20.265 5.04648 20.3764 5.52438 20.5092 5.94867C20.5832 6.18542 20.6833 6.45852 20.7739 6.70597C20.8283 6.85453 20.8794 6.99414 20.9194 7.11077C21.2154 8.04159 21.3601 9.01391 21.3479 9.99062L21.3478 10.0004L21.3479 10.0101C21.3612 10.9927 21.2157 11.9709 20.9171 12.9071L20.9153 12.9128C20.2667 15.003 18.6921 16.6783 16.646 17.4549L16.6321 17.4602L16.6185 17.466C15.5554 17.9184 13.7232 18.25 11.5873 18.25C9.75656 18.25 8.14266 18.0071 7.04136 17.6407L7.02672 17.6358L7.0119 17.6315C4.70855 16.969 2.89356 15.1913 2.18333 12.9022L2.18155 12.8966C1.88394 11.9635 1.73847 10.9887 1.75071 10.0094L1.75083 10L1.75071 9.99062C1.73847 9.01134 1.88394 8.03648 2.18155 7.10344L2.18327 7.09796C2.83234 5.00793 4.4069 3.33272 6.45276 2.55555L6.46893 2.5494L6.4848 2.54252Z" fill="#2AA45A"/>
</svg>
