<svg width="40" height="35" viewBox="0 0 40 35" fill="none" xmlns="http://www.w3.org/2000/svg">
<path d="M39.1144 11.1391C38.6184 9.68723 37.9425 8.25534 37.9505 6.69147C37.9657 5.10599 38.3433 3.54499 39.0544 2.12783C39.173 1.89112 39.127 1.60511 38.9403 1.41744C38.7535 1.22978 38.4677 1.18245 38.2304 1.2999H38.1904C36.771 1.99185 35.2099 2.34378 33.6308 2.32781C31.9989 2.32382 30.515 1.73586 28.9952 1.2279C26.7233 0.471962 23.5036 0 19.9279 0C15.7722 0 12.0925 0.639949 9.83268 1.61987C5.5453 3.24854 2.24561 6.75916 0.885393 11.1391C0.274801 13.0534 -0.0236596 15.0535 0.00146361 17.0626C-0.0236596 19.0718 0.274801 21.0719 0.885393 22.9862C2.37382 27.7834 6.17749 31.5089 11.0046 32.8974C13.2764 33.6533 16.4962 34.1253 20.0719 34.1253C24.2275 34.1253 27.9112 33.4853 30.1671 32.5254C34.4551 30.8978 37.7552 27.3867 39.1144 23.0062C39.7271 21.0855 40.0256 19.0785 39.9983 17.0626C40.0234 15.0535 39.725 13.0534 39.1144 11.1391Z" fill="#12B505"/>
<path d="M25.6594 15.7547C25.6594 14.4148 26.7233 13.7549 28.0592 13.7549C29.3951 13.7549 30.435 14.4228 30.435 15.7547V24.0621C30.435 25.402 29.3991 26.0619 28.0592 26.0619C26.7193 26.0619 25.6594 25.39 25.6594 24.0621V15.7547Z" fill="white"/>
<path d="M25.7393 10.3992C25.7393 11.7391 26.8032 12.399 28.1391 12.399C29.475 12.399 30.5149 11.7311 30.5149 10.3992V10.0672C30.5149 8.72733 29.479 8.06738 28.1391 8.06738C26.7992 8.06738 25.7393 8.73933 25.7393 10.0672V10.3992Z" fill="white"/>
<path d="M9.48059 10.1234C9.48059 8.7635 10.5485 8.09556 11.9164 8.12356C13.2199 8.15398 14.2606 9.21955 14.2602 10.5234V14.583C14.2602 14.8592 14.4841 15.083 14.7602 15.083H17.7159C17.8482 15.0841 17.9753 15.0323 18.0692 14.9392C18.1631 14.846 18.2159 14.7193 18.2159 14.587V10.4994C18.2155 9.19555 19.2563 8.12998 20.5597 8.09956C21.9276 8.07956 22.9955 8.74751 22.9955 10.0994V23.6983C22.9957 24.9795 21.9687 26.0243 20.6877 26.0461C19.3158 26.0701 18.2159 25.4022 18.2159 24.0463V19.5986C18.2159 19.3225 17.9921 19.0987 17.7159 19.0987H14.7602C14.4841 19.0987 14.2602 19.3225 14.2602 19.5986V23.6863C14.2606 24.9901 13.2199 26.0557 11.9164 26.0861C10.5485 26.1101 9.48059 25.4382 9.48059 24.0863V10.1234Z" fill="white"/>
</svg>
