<svg width="139" height="60" viewBox="0 0 139 60" fill="none" xmlns="http://www.w3.org/2000/svg">
<path fill-rule="evenodd" clip-rule="evenodd" d="M9 17.238C9 13.7872 11.7872 11 15.1717 11H43.9065C47.2909 11 50.0782 13.7872 50.0782 17.238V42.1238C50.0782 45.5747 47.2909 48.3619 43.9065 48.3619H15.1717C11.7872 48.3619 9 45.5747 9 42.1238V17.238Z" fill="#C7E7BF" stroke="#72CF6B" stroke-width="3"/>
<path fill-rule="evenodd" clip-rule="evenodd" d="M17.9592 34.0942L14.7074 36.6159C13.712 37.4123 13.1147 38.6068 13.1147 39.934V40.0667C13.1147 42.3894 14.9729 44.2476 17.2292 44.2476H41.8495C44.1059 44.2476 45.964 42.3894 45.964 40.0667V37.4123C45.964 36.2177 45.4331 35.0896 44.5704 34.2932L39.6596 29.9133C38.1333 28.5861 35.9433 28.5197 34.3506 29.7806L27.5817 35.355C26.9181 35.8859 25.9226 35.9523 25.1927 35.4878L22.6709 33.8951C21.2109 32.966 19.2864 33.0324 17.9592 34.0942Z" fill="#72CF6B"/>
<path fill-rule="evenodd" clip-rule="evenodd" d="M24.3954 29.6482C26.1208 29.6482 27.4481 28.2546 27.4481 26.5292C27.4481 24.8038 26.0545 23.4102 24.3954 23.4102C22.67 23.4102 21.3428 24.8038 21.3428 26.5292C21.3428 28.2546 22.67 29.6482 24.3954 29.6482Z" fill="#72CF6B"/>
<path fill-rule="evenodd" clip-rule="evenodd" d="M99.6703 48H118.571C121.721 48 124.241 45.5372 124.241 42.4443V22.5697C124.241 21.0805 123.669 19.7059 122.581 18.6749L116.452 12.6037C115.421 11.5728 113.932 11 112.443 11H99.6703C96.5201 11 94 13.4628 94 16.5557V42.4443C94 45.4799 96.5201 48 99.6703 48Z" fill="#C7E7BF" stroke="#72CF6B" stroke-width="3"/>
<path fill-rule="evenodd" clip-rule="evenodd" d="M99.6704 27.152C99.6704 26.4074 100.3 25.7773 101.102 25.7773H117.197C117.999 25.7773 118.629 26.4074 118.629 27.152C118.629 27.8965 117.999 28.5266 117.197 28.5266H101.102C100.3 28.5838 99.6704 27.9538 99.6704 27.152Z" fill="#72CF6B"/>
<path fill-rule="evenodd" clip-rule="evenodd" d="M101.102 31.333C100.3 31.333 99.6704 31.963 99.6704 32.7076C99.6704 33.4522 100.3 34.0822 101.102 34.0822H115.307C116.108 34.0822 116.739 33.4522 116.739 32.7076C116.739 31.963 116.108 31.333 115.307 31.333H101.102Z" fill="#72CF6B"/>
<path fill-rule="evenodd" clip-rule="evenodd" d="M99.6704 38.2633C99.6704 37.5187 100.3 36.8887 101.102 36.8887H113.417C114.218 36.8887 114.848 37.5187 114.848 38.2633C114.848 39.0079 114.218 39.6379 113.417 39.6379H101.102C100.3 39.6379 99.6704 39.0651 99.6704 38.2633Z" fill="#72CF6B"/>
<path fill-rule="evenodd" clip-rule="evenodd" d="M122.351 20.2216H116.681C115.65 20.2216 114.791 19.4197 114.791 18.3887V12.833L122.351 20.2216Z" fill="#72CF6B"/>
<path d="M72.3387 28.0094H75.1745C75.6304 28.0094 76 28.379 76 28.8349C76 29.2908 75.6304 29.6604 75.1745 29.6604H72.3387V33.1613C72.3387 33.6245 71.9632 34 71.5 34C71.0368 34 70.6613 33.6245 70.6613 33.1613V29.6604H67.8255C67.3696 29.6604 67 29.2908 67 28.8349C67 28.379 67.3696 28.0094 67.8255 28.0094H70.6613V24.8387C70.6613 24.3755 71.0368 24 71.5 24C71.9632 24 72.3387 24.3755 72.3387 24.8387V28.0094Z" fill="#72CF6B" stroke="#72CF6B" stroke-width="0.5"/>
</svg>
