<svg width="16" height="20" viewBox="0 0 16 20" fill="none" xmlns="http://www.w3.org/2000/svg">
<path d="M8.26663 11.416H9.18264C9.4538 11.416 9.66002 11.3522 9.80129 11.2246C9.94485 11.097 10.0166 10.9147 10.0166 10.6777C10.0166 10.4339 9.94485 10.2368 9.80129 10.0864C9.65774 9.93604 9.4595 9.85856 9.20657 9.854H8.26663V11.416Z" fill="white"/>
<path d="M13.1884 12.127H12.0878L13.1235 10.4829L13.1884 10.3701V12.127Z" fill="white"/>
<path fill-rule="evenodd" clip-rule="evenodd" d="M3 20H13C14.6569 20 16 18.6569 16 17V6.24264C16 5.44699 15.6839 4.68393 15.1213 4.12132L11.8787 0.878679C11.3161 0.31607 10.553 0 9.75736 0H3C1.34315 0 0 1.34315 0 3V17C0 18.6569 1.34315 20 3 20ZM15 5H12C11.4477 5 11 4.55228 11 4V1L15 5ZM2.84924 9.02344L4.12756 12.6328L5.39905 9.02344H6.74573V14H5.71692V12.6396L5.81946 10.2915L4.4762 14H3.77209L2.43225 10.2949L2.53479 12.6396V14H1.5094V9.02344H2.84924ZM8.26663 12.2466V14H7.24124V9.02344H9.18264C9.55634 9.02344 9.88447 9.0918 10.167 9.22852C10.4518 9.36523 10.6706 9.56006 10.8233 9.81299C10.9759 10.0636 11.0523 10.3496 11.0523 10.6709C11.0523 11.1585 10.8848 11.5436 10.5498 11.8262C10.2171 12.1064 9.75572 12.2466 9.16555 12.2466H8.26663ZM14.7402 12.127H14.1762V9.02344H13.1782L11.1034 12.3013L11.1479 12.9233H13.1884V14H14.1762V12.9233H14.7402V12.127Z" fill="white"/>
</svg>
