<svg width="24" height="24" viewBox="0 0 24 24" fill="none" xmlns="http://www.w3.org/2000/svg">
<path fill-rule="evenodd" clip-rule="evenodd" d="M17.3499 2C15.104 2 13.2772 3.8271 13.2772 6.0733C13.2772 7.17858 13.7198 8.18246 14.4366 8.9168C14.4366 8.9168 14.3609 8.94892 14.3232 8.96551C13.8888 9.15672 13.4773 9.38681 13.0909 9.65342C12.4485 8.24754 11.0292 7.26771 9.38447 7.26771C7.13865 7.26771 5.31164 9.09479 5.31164 11.3409C5.31164 12.4423 5.75115 13.4428 6.46322 14.1763C4.43533 15.0059 2.80019 16.6761 2.12024 18.7903C1.87728 19.5458 2.0062 20.3486 2.47358 20.9901C2.94097 21.6315 3.66546 22 4.45895 22H11.1546C11.6613 22 12.072 21.5892 12.072 21.0824C12.072 20.5758 11.6613 20.165 11.1546 20.165H4.45895C4.2574 20.165 4.07508 20.0723 3.95632 19.9093C3.83758 19.7463 3.80514 19.5442 3.86676 19.3522C4.60698 17.0505 6.86818 15.4375 9.36764 15.4375C10.5291 15.4375 11.6439 15.7872 12.5922 16.4486C13.0078 16.7386 13.5797 16.6365 13.8696 16.221C14.1593 15.8054 14.0576 15.2335 13.6418 14.9437C13.2142 14.6453 12.7609 14.3949 12.2884 14.1943C12.9255 13.5458 13.348 12.685 13.4387 11.7289C14.4923 10.7213 15.8634 10.1698 17.333 10.1698C18.4946 10.1698 19.6093 10.5195 20.5576 11.1809C20.9733 11.4709 21.545 11.3691 21.835 10.9533C22.1247 10.5377 22.023 9.96582 21.6074 9.67599C21.1797 9.37758 20.7263 9.12734 20.2538 8.9266C20.9762 8.19145 21.4227 7.18352 21.4227 6.0733C21.4227 3.8271 19.5959 2 17.3499 2ZM15.1119 6.0733C15.1119 4.83919 16.1161 3.83501 17.3499 3.83501C18.5838 3.83501 19.5879 4.83918 19.5879 6.0733C19.5879 7.30728 18.5838 8.3116 17.3499 8.3116C16.1161 8.3116 15.1119 7.30728 15.1119 6.0733ZM7.14647 11.3409C7.14647 10.1069 8.15055 9.10257 9.38447 9.10257C10.6184 9.10257 11.6225 10.1069 11.6225 11.3409C11.6225 12.575 10.6184 13.5792 9.38447 13.5792C8.15054 13.5792 7.14647 12.575 7.14647 11.3409Z" fill="#808080"/>
<path d="M18.1966 14.3923C17.6898 14.3923 17.2791 14.803 17.2791 15.3097V17.2785H15.3105C14.8038 17.2785 14.3931 17.6893 14.3931 18.1961C14.3931 18.7028 14.8038 19.1136 15.3105 19.1136H17.2791V21.0824C17.2791 21.5892 17.6898 22 18.1966 22C18.7032 22 19.1139 21.5892 19.1139 21.0824V19.1136H21.0825C21.5893 19.1136 22 18.7028 22 18.1961C22 17.6893 21.5893 17.2785 21.0825 17.2785H19.1139V15.3097C19.1139 14.803 18.7032 14.3923 18.1966 14.3923Z" fill="#808080"/>
</svg>
