<svg width="36" height="36" viewBox="0 0 36 36" fill="none" xmlns="http://www.w3.org/2000/svg">
<path d="M12.2323 5C15.6992 5 18.5068 7.9989 18.5068 11.7019C18.5068 15.405 15.6992 18.4039 12.2323 18.4039C8.76548 18.4039 5.95785 15.405 5.95785 11.7019C5.95785 7.9989 8.76548 5 12.2323 5Z" fill="white"/>
<path d="M20.7026 21.5123C19.6109 20.0874 17.9917 19.2091 16.2422 19.0959L16.2289 19.1028L16.2046 19.1002C16.1885 19.0984 16.1723 19.0967 16.1561 19.0959C14.9276 19.8031 13.5699 20.1602 12.2122 20.1683C10.8546 20.1614 9.49803 19.8043 8.26841 19.0959C8.25627 19.0965 8.24413 19.0979 8.23199 19.0993C8.21984 19.1008 8.2077 19.1022 8.19556 19.1028L8.18231 19.0959C6.43392 19.2091 4.81355 20.0874 3.72191 21.5123C2.61039 22.9638 2 24.7665 2 26.6248C2 28.0497 2.88524 29.3116 4.18329 29.7346C6.68447 30.5482 9.27948 30.97 11.8844 30.9988C11.9937 31 12.1041 31 12.2133 31C12.3226 31 12.433 31 12.5423 30.9988C15.1461 30.97 17.7422 30.547 20.2434 29.7346C21.5415 29.3116 22.4267 28.0497 22.4267 26.6248C22.4245 24.7665 21.8141 22.9638 20.7026 21.5123Z" fill="white"/>
<path d="M18.1903 16.9513C18.8111 17.223 19.4909 17.3728 20.2036 17.3728C23.1371 17.3728 25.5127 14.8353 25.5127 11.7019C25.5127 8.5686 23.1371 6.03107 20.2036 6.03107C19.4909 6.03107 18.8111 6.18084 18.1903 6.45255C19.2926 7.87853 19.9547 9.7073 19.9547 11.7019C19.9547 13.6966 19.2926 15.5254 18.1903 16.9513Z" fill="white"/>
<path d="M21.8231 20.5328C21.387 19.9636 20.8838 19.4659 20.3302 19.0481C21.4726 19.0299 22.613 18.7237 23.6468 18.1285C23.6607 18.1292 23.6746 18.1307 23.6885 18.1322L23.7093 18.1345L23.7207 18.1285C25.2222 18.2257 26.6119 18.9795 27.5487 20.2023C28.5027 21.448 29.0265 22.9952 29.0284 24.59C29.0284 25.8129 28.2687 26.8959 27.1547 27.2589C26.0086 27.6312 24.8393 27.9082 23.6582 28.0893C23.7991 27.6254 23.8746 27.1328 23.8746 26.6248L23.8746 26.6228C23.8719 24.4025 23.1423 22.2556 21.8231 20.5328Z" fill="white"/>
<path d="M29.6983 13.8017C29.6983 13.3589 30.0573 13 30.5 13C30.9427 13 31.3017 13.3589 31.3017 13.8017V15.6983H33.1983C33.6411 15.6983 34 16.0573 34 16.5C34 16.9427 33.6411 17.3017 33.1983 17.3017H31.3017V19.1983C31.3017 19.6411 30.9427 20 30.5 20C30.0573 20 29.6983 19.6411 29.6983 19.1983V17.3017H27.8017C27.3589 17.3017 27 16.9427 27 16.5C27 16.0573 27.3589 15.6983 27.8017 15.6983H29.6983V13.8017Z" fill="white"/>
</svg>
