<svg width="32" height="28" viewBox="0 0 32 28" fill="none" xmlns="http://www.w3.org/2000/svg">
<path fill-rule="evenodd" clip-rule="evenodd" d="M0.984605 19.5716C0.899775 19.3366 0.815185 19.1024 0.736327 18.8682C0.231417 17.2922 0 15.6515 0 14.0108C0 12.3701 0.23142 10.7294 0.715292 9.15343C1.80926 5.54819 4.43901 2.67694 7.86819 1.33847C9.67745 0.518117 12.6228 0 15.9468 0C18.8079 0 21.3956 0.388589 23.2048 1.01465C27.0548 2.15883 30.1053 5.20278 31.3044 9.15343C31.7883 10.7294 32.0197 12.3701 31.9987 14.0108C32.0197 15.6515 31.7883 17.2922 31.3044 18.8466C30.2105 22.4518 27.5807 25.3231 24.1515 26.6615C22.3423 27.4819 19.397 28 16.073 28C13.2118 28 10.6242 27.6114 8.81489 27.0069C8.68722 26.9618 8.56 26.9161 8.43305 26.8706C7.34676 26.4807 6.28009 26.098 5.11222 26.0786C3.84994 26.0571 2.6087 26.3593 1.47265 26.9206L1.45162 26.9422C1.30435 27.0069 1.15709 27.0069 1.00982 26.9422C0.757365 26.8126 0.652177 26.5104 0.778405 26.2513C1.34643 25.1072 1.64096 23.8119 1.662 22.5166C1.67888 21.4941 1.32976 20.5274 0.984605 19.5716ZM19.8379 13.0699H16.8027V9.54607C16.8027 8.78423 16.1978 8.16664 15.4515 8.16664C14.7052 8.16664 14.1002 8.78423 14.1002 9.54607V13.0699H11.0422C10.3151 13.0699 9.72573 13.6716 9.72573 14.4138C9.72573 15.156 10.3151 15.7577 11.0422 15.7577H14.1002V19.6206C14.1002 20.3824 14.7052 21 15.4515 21C16.1978 21 16.8027 20.3824 16.8027 19.6206V15.7577H19.8379C20.5649 15.7577 21.1543 15.156 21.1543 14.4138C21.1543 13.6716 20.5649 13.0699 19.8379 13.0699Z" fill="white"/>
</svg>
