<svg width="16" height="20" viewBox="0 0 16 20" fill="none" xmlns="http://www.w3.org/2000/svg">
<path d="M2.91663 11.416H3.83264C4.1038 11.416 4.31002 11.3522 4.45129 11.2246C4.59485 11.097 4.66663 10.9147 4.66663 10.6777C4.66663 10.4339 4.59485 10.2368 4.45129 10.0864C4.30774 9.93604 4.1095 9.85856 3.85657 9.854H2.91663V11.416Z" fill="white"/>
<path d="M7.03518 9.854V13.1763H7.53079C7.93183 13.1763 8.23831 13.0452 8.45022 12.7832C8.66213 12.5212 8.77037 12.1463 8.77493 11.6587V11.3955C8.77493 10.8896 8.67011 10.5068 8.46047 10.2471C8.25084 9.98503 7.94436 9.854 7.54104 9.854H7.03518Z" fill="white"/>
<path fill-rule="evenodd" clip-rule="evenodd" d="M3 20H13C14.6569 20 16 18.6569 16 17V6.24264C16 5.44699 15.6839 4.68393 15.1213 4.12132L11.8787 0.878679C11.3161 0.31607 10.553 0 9.75736 0H3C1.34315 0 0 1.34315 0 3V17C0 18.6569 1.34315 20 3 20ZM15 5H12C11.4477 5 11 4.55228 11 4V1L15 5ZM2.91663 12.2466V14H1.89124V9.02344H3.83264C4.20634 9.02344 4.53446 9.0918 4.81702 9.22852C5.10185 9.36523 5.3206 9.56006 5.47327 9.81299C5.62594 10.0636 5.70227 10.3496 5.70227 10.6709C5.70227 11.1585 5.53479 11.5436 5.19983 11.8262C4.86715 12.1064 4.40572 12.2466 3.81555 12.2466H2.91663ZM6.00979 14V9.02344H7.54104C7.97854 9.02344 8.36933 9.12256 8.7134 9.3208C9.05976 9.51676 9.32978 9.79704 9.52346 10.1616C9.71715 10.5239 9.81399 10.9364 9.81399 11.3989V11.6279C9.81399 12.0905 9.71829 12.5018 9.52688 12.8618C9.33775 13.2218 9.07001 13.501 8.72366 13.6992C8.3773 13.8975 7.98652 13.9977 7.55129 14H6.00979ZM11.1879 11.9663H13.1567V11.1392H11.1879V9.854H13.4028V9.02344H10.1625V14H11.1879V11.9663Z" fill="white"/>
</svg>
