<svg width="17" height="20" viewBox="0 0 17 20" fill="none" xmlns="http://www.w3.org/2000/svg">
<path d="M15.4451 10.5699C14.7195 9.63731 13.7866 8.91192 12.75 8.49741C13.4756 7.56477 13.7866 6.42487 13.7866 5.28497C13.7866 2.38342 11.4024 0 8.5 0C5.59756 0 3.10976 2.38342 3.10976 5.3886C3.10976 6.5285 3.52439 7.66839 4.14634 8.60104C3.10976 9.01554 2.17683 9.74093 1.45122 10.6736C0.518293 11.9171 0 13.5751 0 15.2332C0 16.9948 1.03659 18.5492 2.59146 19.0674C4.45732 19.6891 6.42683 20 8.5 20C10.1585 20 11.8171 19.7927 13.372 19.3782C14.3049 19.0674 15.3415 18.7565 16.0671 17.9275C16.689 17.2021 17 16.2694 17 15.2332C16.8963 13.5751 16.378 11.9171 15.4451 10.5699ZM7.56707 18.0311C6.7378 18.0311 5.80488 17.9275 4.97561 17.7202H4.76829C4.04268 17.6166 3.31707 17.4093 2.79878 16.9948C2.28049 16.6839 1.96951 15.9585 1.96951 15.2332C1.96951 13.9896 2.38415 12.7461 3.10976 11.8135C3.83537 10.8808 4.76829 10.2591 5.90854 10.2591C7.56707 11.1917 9.64024 11.1917 11.1951 10.2591C12.2317 10.3627 13.2683 10.8808 13.9939 11.8135C14.7195 12.7461 15.1341 13.9896 15.1341 15.2332C15.1341 16.3731 14.4085 17.2021 12.8537 17.513C10.9878 17.9275 9.22561 18.1347 7.56707 18.0311ZM8.5 8.80829C6.53049 8.80829 4.97561 7.25389 4.97561 5.3886C4.97561 3.52332 6.53049 1.96891 8.39634 1.96891C10.2622 1.96891 11.8171 3.52332 11.8171 5.3886C11.8171 7.25389 10.3659 8.80829 8.5 8.80829Z" fill="#808080"/>
</svg>
