<svg width="24" height="24" viewBox="0 0 24 24" fill="none" xmlns="http://www.w3.org/2000/svg">
<path d="M9.04966 3.73632C8.70497 3.73632 8.42554 4.00584 8.42554 4.33831C8.42554 4.67078 8.70497 4.9403 9.04966 4.9403C9.39434 4.9403 9.67377 4.67078 9.67377 4.33831C9.67377 4.00584 9.39434 3.73632 9.04966 3.73632Z" fill="#A6A6A6"/>
<path d="M11.2219 3.73632C10.8471 3.73632 10.5329 4.00022 10.5329 4.33831C10.5329 4.6764 10.8471 4.9403 11.2219 4.9403H13.7508C14.1256 4.9403 14.4397 4.6764 14.4397 4.33831C14.4397 4.00022 14.1256 3.73632 13.7508 3.73632H11.2219Z" fill="#A6A6A6"/>
<path d="M12 17.4179C11.342 17.4179 10.8085 17.9324 10.8085 18.5672C10.8085 19.2019 11.342 19.7164 12 19.7164C12.658 19.7164 13.1915 19.2019 13.1915 18.5672C13.1915 17.9324 12.658 17.4179 12 17.4179Z" fill="#A6A6A6"/>
<path fill-rule="evenodd" clip-rule="evenodd" d="M7.46099 1C5.54954 1 4 2.49461 4 4.33831V19.6617C4 21.5054 5.54954 23 7.46099 23H16.539C18.4505 23 20 21.5054 20 19.6617V4.33831C20 2.49461 18.4505 1 16.539 1H7.46099ZM6.04255 4.33831C6.04255 3.5827 6.67761 2.97015 7.46099 2.97015H16.539C17.3224 2.97015 17.9574 3.5827 17.9574 4.33831V19.6617C17.9574 20.4173 17.3224 21.0299 16.539 21.0299H7.46099C6.67761 21.0299 6.04255 20.4173 6.04255 19.6617V4.33831Z" fill="#A6A6A6"/>
</svg>
