<svg width="14" height="12" viewBox="0 0 14 12" fill="none" xmlns="http://www.w3.org/2000/svg">
<path fill-rule="evenodd" clip-rule="evenodd" d="M0 2C0 0.895431 0.940202 0 2.1 0H11.9C13.0598 0 14 0.895431 14 2V10C14 11.1046 13.0598 12 11.9 12H2.1C0.940202 12 0 11.1046 0 10V2ZM3.04801 7.42507L1.94529 8.23461C1.60143 8.48705 1.4 8.87714 1.4 9.29062V9.33333C1.4 10.0697 2.0268 10.6667 2.8 10.6667H11.2C11.9732 10.6667 12.6 10.0697 12.6 9.33333V8.47534C12.6 8.09242 12.4271 7.72798 12.1254 7.47486L10.4592 6.07684C9.94727 5.64737 9.18489 5.63181 8.65415 6.03999L6.32973 7.82766C6.09694 8.0067 5.7704 8.02502 5.51714 7.87325L4.64834 7.35258C4.15166 7.05493 3.51278 7.08387 3.04801 7.42507ZM5.25 6C5.8299 6 6.3 5.55229 6.3 5C6.3 4.44772 5.8299 4 5.25 4C4.6701 4 4.2 4.44772 4.2 5C4.2 5.55229 4.6701 6 5.25 6Z" fill="#A6A6A6"/>
</svg>
