<svg width="16" height="20" viewBox="0 0 16 20" fill="none" xmlns="http://www.w3.org/2000/svg">
<path d="M2.75354 11.416H3.66956C3.94071 11.416 4.14693 11.3522 4.28821 11.2246C4.43176 11.097 4.50354 10.9147 4.50354 10.6777C4.50354 10.4339 4.43176 10.2368 4.28821 10.0864C4.14465 9.93604 3.94641 9.85856 3.69348 9.854H2.75354V11.416Z" fill="white"/>
<path fill-rule="evenodd" clip-rule="evenodd" d="M3 20H13C14.6569 20 16 18.6569 16 17V6.24264C16 5.44699 15.6839 4.68393 15.1213 4.12132L11.8787 0.878679C11.3161 0.31607 10.553 0 9.75736 0H3C1.34315 0 0 1.34315 0 3V17C0 18.6569 1.34315 20 3 20ZM15 5H12C11.4477 5 11 4.55228 11 4V1L15 5ZM13.5439 13.8872C13.8811 13.7642 14.142 13.5921 14.3266 13.3711V11.3853H12.3681V12.1406H13.3012V12.9985C13.1371 13.1626 12.8626 13.2446 12.4775 13.2446C12.0947 13.2446 11.8041 13.1113 11.6059 12.8447C11.4076 12.5781 11.3085 12.1839 11.3085 11.6621V11.3442C11.3108 10.827 11.4031 10.4373 11.5854 10.1753C11.7677 9.91325 12.0331 9.78223 12.3818 9.78223C12.6552 9.78223 12.8694 9.84831 13.0243 9.98047C13.1816 10.1126 13.283 10.3211 13.3285 10.606H14.3266C14.2651 10.0682 14.068 9.65918 13.7353 9.37891C13.4026 9.09635 12.9412 8.95508 12.351 8.95508C11.9272 8.95508 11.5569 9.05192 11.2402 9.24561C10.9257 9.43701 10.6842 9.71501 10.5156 10.0796C10.3492 10.4419 10.266 10.8714 10.266 11.3682V11.7065C10.2706 12.1896 10.3606 12.61 10.5361 12.9678C10.7138 13.3255 10.9644 13.599 11.288 13.7881C11.6139 13.9749 11.9921 14.0684 12.4228 14.0684C12.8329 14.0684 13.2066 14.008 13.5439 13.8872ZM2.75354 12.2466V14H1.72815V9.02344H3.66956C4.04325 9.02344 4.37138 9.0918 4.65393 9.22852C4.93876 9.36523 5.15751 9.56006 5.31018 9.81299C5.46285 10.0636 5.53918 10.3496 5.53918 10.6709C5.53918 11.1585 5.3717 11.5436 5.03674 11.8262C4.70406 12.1064 4.24263 12.2466 3.65247 12.2466H2.75354ZM9.89358 14H8.86819L6.8721 10.7256V14H5.8467V9.02344H6.8721L8.87161 12.3047V9.02344H9.89358V14Z" fill="white"/>
</svg>
