<svg width="16" height="20" viewBox="0 0 16 20" fill="none" xmlns="http://www.w3.org/2000/svg">
<path d="M2.6842 11.416H3.60022C3.87138 11.416 4.0776 11.3522 4.21887 11.2246C4.36243 11.097 4.4342 10.9147 4.4342 10.6777C4.4342 10.4339 4.36243 10.2368 4.21887 10.0864C4.07532 9.93604 3.87708 9.85856 3.62415 9.854H2.6842V11.416Z" fill="white"/>
<path d="M6.80276 11.416H7.71877C7.98993 11.416 8.19615 11.3522 8.33743 11.2246C8.48098 11.097 8.55276 10.9147 8.55276 10.6777C8.55276 10.4339 8.48098 10.2368 8.33743 10.0864C8.19387 9.93604 7.99563 9.85856 7.7427 9.854H6.80276V11.416Z" fill="white"/>
<path fill-rule="evenodd" clip-rule="evenodd" d="M3 20H13C14.6569 20 16 18.6569 16 17V6.24264C16 5.44699 15.6839 4.68393 15.1213 4.12132L11.8787 0.878679C11.3161 0.31607 10.553 0 9.75736 0H3C1.34315 0 0 1.34315 0 3V17C0 18.6569 1.34315 20 3 20ZM15 5H12C11.4477 5 11 4.55228 11 4V1L15 5ZM2.6842 12.2466V14H1.65881V9.02344H3.60022C3.97392 9.02344 4.30204 9.0918 4.58459 9.22852C4.86943 9.36523 5.08818 9.56006 5.24084 9.81299C5.39351 10.0636 5.46985 10.3496 5.46985 10.6709C5.46985 11.1585 5.30237 11.5436 4.96741 11.8262C4.63472 12.1064 4.1733 12.2466 3.58313 12.2466H2.6842ZM6.80276 12.2466V14H5.77737V9.02344H7.71877C8.09247 9.02344 8.4206 9.0918 8.70315 9.22852C8.98798 9.36523 9.20673 9.56006 9.3594 9.81299C9.51207 10.0636 9.5884 10.3496 9.5884 10.6709C9.5884 11.1585 9.42092 11.5436 9.08596 11.8262C8.75328 12.1064 8.29185 12.2466 7.70168 12.2466H6.80276ZM12.1176 9.854H13.642V9.02344H9.58831V9.854H11.0922V14H12.1176V9.854Z" fill="white"/>
</svg>
