<svg width="22" height="21" viewBox="0 0 22 21" fill="none" xmlns="http://www.w3.org/2000/svg">
<path fill-rule="evenodd" clip-rule="evenodd" d="M9.0559 1.1447C9.89661 -0.381571 12.1034 -0.381562 12.9441 1.1447L15.2965 5.41533C15.3132 5.44576 15.3428 5.46714 15.3772 5.47357L20.1928 6.37628C21.9139 6.69889 22.5958 8.78375 21.3943 10.0496L18.0325 13.5917C18.0086 13.617 17.9973 13.6516 18.0017 13.686L18.6256 18.5145C18.8485 20.2402 17.0632 21.5287 15.4799 20.7848L11.0499 18.7033C11.0183 18.6884 10.9817 18.6884 10.9501 18.7033L6.52005 20.7848C4.93679 21.5287 3.15148 20.2402 3.37444 18.5145L3.9983 13.686C4.00274 13.6516 3.99143 13.617 3.96747 13.5917L0.605672 10.0496C-0.595793 8.78374 0.0861474 6.69889 1.80719 6.37627L6.62284 5.47357C6.65716 5.46714 6.68677 5.44577 6.70353 5.41533L9.0559 1.1447ZM10.9393 2.10018C10.928 2.10658 10.9131 2.11777 10.8977 2.14579L8.54531 6.41642C8.22679 6.99467 7.66419 7.40071 7.01215 7.52294L2.1965 8.42564C2.16491 8.43157 2.14961 8.44213 2.13997 8.45088C2.12769 8.46202 2.11501 8.47982 2.1072 8.5037C2.09939 8.52757 2.09912 8.54937 2.10246 8.56556C2.10508 8.57826 2.11121 8.59574 2.13326 8.61898L5.49506 12.1611C5.95025 12.6407 6.16515 13.2977 6.08068 13.9515L5.45681 18.78C5.45272 18.8117 5.45811 18.8294 5.4635 18.8412C5.47038 18.8563 5.4835 18.8737 5.50395 18.8885C5.52439 18.9032 5.54518 18.9102 5.56171 18.9121C5.57468 18.9135 5.59331 18.9131 5.62237 18.8995L10.0525 16.818C10.6523 16.5362 11.3477 16.5362 11.9475 16.818L16.3776 18.8995C16.4067 18.9131 16.4253 18.9135 16.4383 18.9121C16.4548 18.9102 16.4756 18.9032 16.4961 18.8885C16.5165 18.8737 16.5296 18.8563 16.5365 18.8412C16.5419 18.8294 16.5473 18.8117 16.5432 18.78L15.9193 13.9515C15.8349 13.2977 16.0497 12.6407 16.5049 12.1611L19.8667 8.61898C19.8888 8.59575 19.8949 8.57826 19.8975 8.56556C19.9009 8.54937 19.9006 8.52757 19.8928 8.50369C19.885 8.47982 19.8723 8.46202 19.86 8.45088C19.8504 8.44213 19.8351 8.43157 19.8035 8.42564L14.9879 7.52294C14.3358 7.40071 13.7732 6.99467 13.4547 6.41642L11.1023 2.14579C11.0869 2.11777 11.072 2.10658 11.0607 2.10018C11.0462 2.09202 11.0253 2.08554 11 2.08554C10.9747 2.08554 10.9538 2.09202 10.9393 2.10018Z" fill="#808080"/>
</svg>
