<svg width="20" height="20" viewBox="0 0 20 20" fill="none" xmlns="http://www.w3.org/2000/svg">
<path fill-rule="evenodd" clip-rule="evenodd" d="M19.1894 9.80003C19.1894 4.38762 14.8937 0 9.59468 0C4.29568 0 0 4.38762 0 9.80003C0 15.2124 4.29568 19.6001 9.59468 19.6001C14.8937 19.6001 19.1894 15.2124 19.1894 9.80003ZM17.9894 9.80007C17.9894 5.06422 14.2307 1.22505 9.5941 1.22505C4.95748 1.22505 1.19875 5.06422 1.19875 9.80007C1.19875 14.5359 4.95748 18.3751 9.5941 18.3751C14.2307 18.3751 17.9894 14.5359 17.9894 9.80007ZM9.19515 9.37932H10.3939V10.1833H9.19515V9.37932ZM9.19515 9.37932V2.45021H10.3945V10.1833H10.3939V10.6043H4.79696V9.37932H9.19515Z" fill="#808080"/>
</svg>
