<svg width="24" height="24" viewBox="0 0 24 24" fill="none" xmlns="http://www.w3.org/2000/svg">
<path d="M14.7131 3.37895C13.9101 3.09474 13.1071 3 12.2037 3C9.29286 3 6.28165 4.42105 4.57529 6.60001C4.1738 7.07369 2.96931 8.49474 3.06968 9.63159C3.06968 10.2 3.57155 10.4842 4.07342 10.4842C4.47492 10.4842 4.67567 10.2947 4.87641 10.0105C5.09298 9.70393 5.25113 9.34221 5.41389 8.96995C5.55288 8.65207 5.69522 8.32652 5.88015 8.02106C6.28165 7.45264 6.88389 6.88422 7.48613 6.41053C8.79099 5.46316 10.4973 4.98948 12.1033 4.98948C13.6089 4.98948 15.1145 5.36842 16.319 6.22106C16.9213 6.60001 17.925 7.3579 18.1258 8.02106C17.8246 8.02106 17.5235 7.92632 17.3228 7.83159C17.239 7.81181 17.1595 7.79204 17.0836 7.77313C16.7956 7.70143 16.5573 7.64211 16.319 7.64211C15.2149 7.64211 14.7131 8.87369 15.7168 9.44211C15.9175 9.56843 16.1183 9.61054 16.319 9.65264C16.4194 9.67369 16.5198 9.69475 16.6202 9.72633C17.6239 10.0105 18.5273 10.2 19.531 10.3895C20.4344 10.579 20.9362 10.0105 21.137 9.25264C21.4381 8.30527 21.7392 7.26316 21.94 6.31579C22.0403 5.93685 22.0403 5.46316 21.7392 5.17895C21.4381 4.89474 20.9362 4.8 20.5347 4.98948C20.334 5.08421 20.1332 5.36842 20.0329 5.65263C19.9827 5.8421 19.9325 6.05525 19.8823 6.2684C19.8321 6.48157 19.7819 6.69473 19.7317 6.88422C18.5273 5.27369 16.7205 3.94737 14.7131 3.37895Z" fill="#A6A6A6"/>
<path d="M9.28695 20.6211C10.0899 20.9053 10.8929 21 11.7963 21C14.7071 21 17.7184 19.5789 19.4247 17.4C19.8262 16.9263 21.0307 15.5053 20.9303 14.3684C20.9303 13.8 20.4284 13.5158 19.9266 13.5158C19.5251 13.5158 19.3243 13.7053 19.1236 13.9895C18.907 14.2961 18.7489 14.6578 18.5861 15.03C18.4471 15.3479 18.3048 15.6735 18.1198 15.9789C17.7184 16.5474 17.1161 17.1158 16.5139 17.5895C15.209 18.5368 13.5027 19.0105 11.8967 19.0105C10.3911 19.0105 8.88545 18.6316 7.68097 17.7789C7.07872 17.4 6.07499 16.6421 5.87424 15.9789C6.17536 15.9789 6.47648 16.0737 6.67723 16.1684C6.76103 16.1882 6.84047 16.208 6.91644 16.2269C7.20443 16.2986 7.4427 16.3579 7.68097 16.3579C8.78508 16.3579 9.28695 15.1263 8.28321 14.5579C8.08246 14.4316 7.88172 14.3895 7.68097 14.3474C7.5806 14.3263 7.48022 14.3053 7.37985 14.2737C6.37611 13.9895 5.47274 13.8 4.469 13.6105C3.56564 13.421 3.06377 13.9895 2.86302 14.7474C2.5619 15.6947 2.26078 16.7368 2.06003 17.6842C1.95966 18.0632 1.95966 18.5368 2.26078 18.821C2.5619 19.1053 3.06377 19.2 3.46527 19.0105C3.66601 18.9158 3.86676 18.6316 3.96713 18.3474C4.01732 18.1579 4.06751 17.9447 4.1177 17.7316C4.16788 17.5184 4.21807 17.3053 4.26826 17.1158C5.47274 18.7263 7.27947 20.0526 9.28695 20.6211Z" fill="#A6A6A6"/>
</svg>
