<svg width="18" height="18" viewBox="0 0 18 18" fill="none" xmlns="http://www.w3.org/2000/svg">
<path fill-rule="evenodd" clip-rule="evenodd" d="M9 17C13.4183 17 17 13.4183 17 9C17 4.58172 13.4183 1 9 1C4.58172 1 1 4.58172 1 9C1 13.4183 4.58172 17 9 17ZM12.2003 11.5576C12.2003 11.4148 12.1356 11.2779 12.0063 11.147L9.92403 8.96902L11.9451 6.85354C12.0676 6.72858 12.1288 6.59171 12.1288 6.44294C12.1288 6.27037 12.0506 6.1216 11.894 5.99664C11.7443 5.86572 11.5742 5.80026 11.3837 5.80026C11.1795 5.80026 11.0026 5.87762 10.8529 6.03234L9.00537 8.005L7.13742 6.03234C6.98772 5.87762 6.81079 5.80026 6.60664 5.80026C6.41611 5.80026 6.24258 5.86572 6.08607 5.99664C5.93636 6.1216 5.86151 6.27037 5.86151 6.44294C5.86151 6.58576 5.92615 6.72262 6.05545 6.85354L8.0765 8.96902L5.98399 11.147C5.86151 11.272 5.80026 11.4088 5.80026 11.5576C5.80026 11.7302 5.87512 11.8819 6.02482 12.0128C6.18134 12.1378 6.35486 12.2003 6.5454 12.2003C6.74274 12.2003 6.91627 12.1259 7.06597 11.9771L9.00537 9.92411L10.9243 11.9771C11.0672 12.1259 11.2408 12.2003 11.4449 12.2003C11.6423 12.2003 11.8158 12.1378 11.9655 12.0128C12.122 11.8819 12.2003 11.7302 12.2003 11.5576Z" fill="#CACACA"/>
</svg>
