<svg width="22" height="22" viewBox="0 0 22 22" fill="none" xmlns="http://www.w3.org/2000/svg">
<path d="M15.4 12.1C16.06 12.1 16.5 11.66 16.5 11C16.5 10.34 16.06 9.9 15.4 9.9H6.6C5.94 9.9 5.5 10.34 5.5 11C5.5 11.66 5.94 12.1 6.6 12.1H15.4Z" fill="#C93F3F"/>
<path fill-rule="evenodd" clip-rule="evenodd" d="M11 0C4.9 0 0 4.9 0 11C0 17.1 4.9 22 11 22C17.1 22 22 17.1 22 11C22 4.9 17.1 0 11 0ZM2.2 11C2.2 6.11503 6.11503 2.2 11 2.2C15.885 2.2 19.8 6.11503 19.8 11C19.8 15.885 15.885 19.8 11 19.8C6.11503 19.8 2.2 15.885 2.2 11Z" fill="#C93F3F"/>
</svg>
