<svg width="24" height="24" viewBox="0 0 24 24" fill="none" xmlns="http://www.w3.org/2000/svg">
<path d="M8.05364 3.33301C7.63501 2.889 6.94103 2.889 6.52239 3.33301L2.38816 7.71783C1.87062 8.26675 1.87061 9.1377 2.38815 9.68662L6.52235 14.0714C6.94098 14.5154 7.63497 14.5155 8.05361 14.0714C8.45289 13.6479 8.45289 12.976 8.05361 12.5525L5.46656 9.8086H14.4283C17.434 9.8086 19.8955 12.4054 19.8955 15.6169C19.8955 17.1066 19.183 18.3885 18.5672 19.2149L18.548 19.2408C18.2 19.7078 18.276 20.3738 18.7198 20.7458L18.7349 20.7585C19.1914 21.1411 19.8659 21.0601 20.2238 20.5797C21.0263 19.5027 22 17.757 22 15.6168C21.9999 11.2028 18.6122 7.59584 14.4283 7.59584H5.46656L8.05364 4.85193C8.45292 4.42845 8.45293 3.7565 8.05364 3.33301Z" fill="#595959"/>
</svg>
