<svg width="18" height="18" viewBox="0 0 18 18" fill="none" xmlns="http://www.w3.org/2000/svg">
<path fill-rule="evenodd" clip-rule="evenodd" d="M7.8748 1.4248C4.30838 1.4248 1.4248 4.30838 1.4248 7.87481C1.4248 11.4412 4.30838 14.3248 7.8748 14.3248C9.36988 14.3248 10.7166 13.8094 11.8421 12.9981L15.1718 16.3278C15.3368 16.4928 15.5813 16.5748 15.7498 16.5748C15.9184 16.5748 16.1629 16.4928 16.3278 16.3278C16.6571 15.9986 16.6571 15.5011 16.3278 15.1718L12.9996 11.8436C13.8113 10.7858 14.3248 9.36687 14.3248 7.87481C14.3248 4.30838 11.4412 1.4248 7.8748 1.4248ZM3.0748 7.87481C3.0748 5.21623 5.21623 3.0748 7.8748 3.0748C10.5334 3.0748 12.6748 5.21623 12.6748 7.87481C12.6748 9.20444 12.158 10.3855 11.2718 11.2718C10.3855 12.158 9.20444 12.6748 7.8748 12.6748C5.21623 12.6748 3.0748 10.5334 3.0748 7.87481Z" fill="#808080"/>
</svg>
