<svg width="24" height="24" viewBox="0 0 24 24" fill="none" xmlns="http://www.w3.org/2000/svg">
<path d="M13.295 3H6.07816L5.90212 3.00494L5.891 3.00561C4.27805 3.10254 3.00016 4.44096 3.00016 6.07814L3 17.9218L3.00511 18.0979L3.00577 18.1089C3.10269 19.7219 4.44104 20.9999 6.07816 20.9999L17.9212 21L17.9226 21L17.9241 21L17.9256 20.9999L18.0974 20.9949L18.0989 20.9948L18.1004 20.9948L18.1019 20.9947L18.1084 20.9943C19.7213 20.8974 20.9992 19.559 20.9992 17.9218L21 10.562L20.9926 10.4378L20.9892 10.4126C20.916 9.87335 20.4544 9.45777 19.8951 9.45777C19.2853 9.45777 18.7909 9.95214 18.7909 10.562V17.9126L18.7855 18.0195C18.7372 18.4536 18.3685 18.7915 17.9212 18.7915H6.08736L5.98042 18.7861C5.54634 18.7378 5.20847 18.369 5.20847 17.9218V6.08732L5.21387 5.98039C5.26221 5.54628 5.63093 5.20841 6.07816 5.20841L13.295 5.20918L13.4192 5.20176L13.4444 5.19835C13.9836 5.12519 14.3992 4.66358 14.3992 4.1042C14.3992 3.49437 13.9048 3 13.295 3Z" fill="#808080"/>
<path d="M20.2265 3.7541C19.8248 3.36853 19.1796 3.36837 18.7775 3.75334L18.7705 3.75887L11.3899 12.2561L8.9594 9.9235C8.55736 9.53773 7.91154 9.5378 7.50952 9.92355C7.09912 10.3175 7.09916 10.9626 7.50954 11.3565L10.689 14.4079C10.8916 14.6022 11.1548 14.6972 11.4139 14.6972C11.6727 14.6972 11.9356 14.6024 12.1381 14.4086L12.1446 14.4033L20.2389 5.17502C20.6371 4.78 20.6329 4.14399 20.2265 3.7541Z" fill="#808080"/>
</svg>
