<svg width="20" height="20" viewBox="0 0 20 20" fill="none" xmlns="http://www.w3.org/2000/svg">
<path d="M2.6724 0.172732L18.8089 7.93271C19.5436 8.28596 20 9.07816 20 10C20 10.9219 19.5436 11.714 18.8089 12.0673L2.67244 19.8273C1.99381 20.1536 1.22572 20.0115 0.668142 19.4521C0.111657 18.8938 -0.121038 18.0334 0.0608369 17.2069L1.49713 11.1259L9.80579 10.9237C10.2058 10.914 10.5225 10.5825 10.514 10.1825C10.5061 9.80882 10.2158 9.50224 9.84308 9.47395L1.49713 8.84051L0.0608369 2.79313C-0.121038 1.96661 0.111696 1.10627 0.668142 0.547897C1.22459 -0.0103903 1.9926 -0.154218 2.6724 0.172732Z" fill="white"/>
</svg>
