<svg width="24" height="24" viewBox="0 0 24 24" fill="none" xmlns="http://www.w3.org/2000/svg">
<path fill-rule="evenodd" clip-rule="evenodd" d="M13.2702 0.331805C12.4842 -0.110602 11.5158 -0.110602 10.7298 0.331805L2.27017 5.09349C1.48419 5.5359 1 6.3535 1 7.23831V16.7617C1 17.6465 1.48419 18.4641 2.27017 18.9065L10.7298 23.6682C11.5158 24.1106 12.4842 24.1106 13.2702 23.6682L21.7298 18.9065C22.5158 18.4641 23 17.6465 23 16.7617V7.23831C23 6.3535 22.5158 5.5359 21.7298 5.09349L13.2702 0.331805ZM12 14.4C13.35 14.4 14.4444 13.3255 14.4444 12C14.4444 10.6745 13.35 9.6 12 9.6C10.65 9.6 9.55556 10.6745 9.55556 12C9.55556 13.3255 10.65 14.4 12 14.4Z" fill="#43B65A"/>
<path fill-rule="evenodd" clip-rule="evenodd" d="M21.1219 6.13455L12.6623 1.37286C12.2528 1.14238 11.7472 1.14238 11.3377 1.37286L2.87805 6.13455C2.46953 6.36449 2.22222 6.78636 2.22222 7.23831V16.7617C2.22222 17.2136 2.46953 17.6355 2.87805 17.8655L11.3377 22.6271C11.7472 22.8576 12.2528 22.8576 12.6623 22.6271L21.1219 17.8655C21.5305 17.6355 21.7778 17.2136 21.7778 16.7617V7.23831C21.7778 6.78636 21.5305 6.36449 21.1219 6.13455ZM13.2702 0.331805C12.4842 -0.110602 11.5158 -0.110602 10.7298 0.331805L2.27017 5.09349C1.48419 5.5359 1 6.3535 1 7.23831V16.7617C1 17.6465 1.48419 18.4641 2.27017 18.9065L10.7298 23.6682C11.5158 24.1106 12.4842 24.1106 13.2702 23.6682L21.7298 18.9065C22.5158 18.4641 23 17.6465 23 16.7617V7.23831C23 6.3535 22.5158 5.5359 21.7298 5.09349L13.2702 0.331805Z" fill="#72CF6B"/>
</svg>
