<svg width="22" height="24" viewBox="0 0 22 24" fill="none" xmlns="http://www.w3.org/2000/svg">
<path d="M11 14.3031C12.2151 14.3031 13.2 13.3263 13.2 12.1213C13.2 10.9163 12.2151 9.93945 11 9.93945C9.78502 9.93945 8.80005 10.9163 8.80005 12.1213C8.80005 13.3263 9.78502 14.3031 11 14.3031Z" fill="#A6A6A6"/>
<path fill-rule="evenodd" clip-rule="evenodd" d="M9.41229 0.418094C10.3948 -0.139365 11.6052 -0.139365 12.5877 0.418094L20.4123 4.85775C21.3948 5.41521 22 6.44543 22 7.56035V16.4397C22 17.5546 21.3948 18.5848 20.4123 19.1423L12.5877 23.5819C11.6052 24.1394 10.3948 24.1394 9.41229 23.5819L1.58771 19.1423C0.605233 18.5848 0 17.5546 0 16.4397V7.56035C0 6.44543 0.605233 5.41521 1.58771 4.85775L9.41229 0.418094ZM11.5292 2.21983L19.3538 6.65948C19.6813 6.8453 19.883 7.18871 19.883 7.56035V16.4397C19.883 16.8113 19.6813 17.1547 19.3538 17.3405L11.5292 21.7802C11.2017 21.966 10.7983 21.966 10.4708 21.7802L2.64619 17.3405C2.3187 17.1547 2.11695 16.8113 2.11695 16.4397V7.56035C2.11695 7.18871 2.3187 6.8453 2.64619 6.65948L10.4708 2.21983C10.7983 2.03401 11.2017 2.03401 11.5292 2.21983Z" fill="#A6A6A6"/>
</svg>
