<svg width="14" height="14" viewBox="0 0 14 14" fill="none" xmlns="http://www.w3.org/2000/svg">
<path d="M4.90688 4.11769C4.37427 4.11769 4.10239 4.75696 4.47183 5.14061L6.16136 6.89508L4.24065 8.89623C3.88516 9.26661 4.14766 9.8824 4.66103 9.8824C4.82283 9.8824 4.97735 9.81512 5.08758 9.69667L6.966 7.67824L8.79946 9.68155C8.91658 9.80952 9.08206 9.8824 9.25554 9.8824C9.80025 9.8824 10.0788 9.22902 9.70158 8.83603L7.83864 6.89508L9.5835 5.08316C9.93219 4.72106 9.67558 4.11769 9.17288 4.11769C9.01572 4.11769 8.86553 4.18258 8.75781 4.29701L7.01134 6.15229L5.35528 4.31704C5.24076 4.19013 5.07782 4.11769 4.90688 4.11769Z" fill="#992222"/>
<path fill-rule="evenodd" clip-rule="evenodd" d="M14 7C14 10.866 10.866 14 7 14C3.13401 14 0 10.866 0 7C0 3.13401 3.13401 0 7 0C10.866 0 14 3.13401 14 7ZM12.6875 7C12.6875 10.1411 10.1411 12.6875 7 12.6875C3.85888 12.6875 1.3125 10.1411 1.3125 7C1.3125 3.85888 3.85888 1.3125 7 1.3125C10.1411 1.3125 12.6875 3.85888 12.6875 7Z" fill="#992222"/>
</svg>
