<svg width="14" height="14" viewBox="0 0 14 14" fill="none" xmlns="http://www.w3.org/2000/svg">
<path d="M6.125 4.00005C6.125 3.64445 6.37964 3.35618 6.69375 3.35618C7.00786 3.35618 7.2625 3.64445 7.2625 4.00005V6.71225H9.93125C10.2454 6.71225 10.5 7.00052 10.5 7.35612C10.5 7.71171 10.2454 7.99998 9.93125 7.99998H7.125C6.57271 7.99998 6.125 7.55227 6.125 6.99998V4.00005Z" fill="#BBBBBB"/>
<path fill-rule="evenodd" clip-rule="evenodd" d="M7 14C10.866 14 14 10.866 14 7C14 3.13401 10.866 0 7 0C3.13401 0 0 3.13401 0 7C0 10.866 3.13401 14 7 14ZM12.5 7C12.5 10.0376 10.0376 12.5 7 12.5C3.96243 12.5 1.5 10.0376 1.5 7C1.5 3.96243 3.96243 1.5 7 1.5C10.0376 1.5 12.5 3.96243 12.5 7Z" fill="#BBBBBB"/>
</svg>
