<svg width="18" height="12" viewBox="0 0 18 12" fill="none" xmlns="http://www.w3.org/2000/svg">
<path d="M11.9412 1.06402C12.0687 0.867311 12.0475 0.609353 11.8896 0.436073C11.6793 0.20528 11.3138 0.212776 11.1132 0.451996L4.95818 7.79017L1.7707 5.5928C1.39055 5.33073 0.875238 5.38981 0.564257 5.73111C0.244159 6.08242 0.24307 6.61934 0.561739 6.97195L4.08528 10.8707C4.52587 11.3583 5.30889 11.2956 5.66631 10.7442L11.9412 1.06402Z" fill="#BBBBBB"/>
<path d="M17.7836 1.22742C17.9111 1.03071 17.8899 0.77275 17.732 0.599469C17.5217 0.368676 17.1562 0.376172 16.9556 0.615392L10.8006 7.95357L9.11812 6.84965L7.88224 8.75751L9.92782 11.0303C10.368 11.5193 11.1523 11.4574 11.5102 10.9053L17.7836 1.22742Z" fill="#BBBBBB"/>
</svg>
