<svg width="14" height="14" viewBox="0 0 14 14" fill="none" xmlns="http://www.w3.org/2000/svg">
<path fill-rule="evenodd" clip-rule="evenodd" d="M13.086 1.05339C12.4878 0.433134 11.6882 0.0868263 10.8332 0.0778443L3.30654 0C3.29576 0 3.28448 0 3.2737 0C1.5249 0 0.0928238 1.43613 0.0746838 3.21707L0.00016273 10.6771C-0.017487 12.4691 1.40283 13.9416 3.16682 13.9601L7.03456 14H7.03701C7.04976 14 7.0625 14 7.07525 14C10.3713 14 13.7694 11.9187 13.9606 7.25649L13.9998 3.36078C14.0086 2.49251 13.6841 1.67315 13.086 1.05339ZM4.43858 3.72804C4.95434 3.72804 5.37205 4.15319 5.37205 4.67814C5.37205 5.20309 4.95434 5.62824 4.43858 5.62824C3.92281 5.62824 3.5051 5.20309 3.5051 4.67814C3.5051 4.15319 3.92281 3.72804 4.43858 3.72804ZM6.97131 10.5324C6.91984 10.7939 6.66882 10.9631 6.41093 10.9107C4.98033 10.6208 4.04244 9.86078 3.66983 8.6522C3.59139 8.39771 3.73112 8.12725 3.98214 8.0479C4.23315 7.96856 4.49986 8.11028 4.5783 8.36427C4.84011 9.21407 5.48923 9.74002 6.59724 9.96457C6.85561 10.017 7.02279 10.2715 6.97131 10.5324ZM9.63789 3.72804C10.1537 3.72804 10.5714 4.15319 10.5714 4.67814C10.5714 5.20309 10.1537 5.62824 9.63789 5.62824C9.12213 5.62824 8.70442 5.20309 8.70442 4.67814C8.70442 4.15319 9.12213 3.72804 9.63789 3.72804ZM13.0124 7.22355C12.8374 11.4097 9.8644 12.9581 7.27283 13.0324C7.7278 12.5868 8.06707 11.9895 8.27788 11.2395C8.74315 9.58583 9.64083 8.62325 11.2425 8.21657C11.9711 8.03144 12.5604 7.65469 13.0139 7.10429L13.0124 7.22355Z" fill="#A6A6A6"/>
</svg>
