<svg width="21" height="20" viewBox="0 0 21 20" fill="none" xmlns="http://www.w3.org/2000/svg">
<path d="M6.43902 8.29268C7.31707 8.29268 8 7.60976 8 6.73171C8 5.85366 7.31707 5.17073 6.43902 5.17073C5.56098 5.17073 4.87805 5.85366 4.87805 6.73171C4.87805 7.60976 5.56098 8.29268 6.43902 8.29268ZM13.6585 5.17073C12.7805 5.17073 12.0976 5.85366 12.0976 6.73171C12.0976 7.60976 12.7805 8.29268 13.6585 8.29268C14.5366 8.29268 15.2195 7.60976 15.2195 6.73171C15.2195 5.85366 14.5366 5.17073 13.6585 5.17073ZM9.46341 13.8537C8 13.561 7.21951 12.878 6.82927 11.8049C6.73171 11.6098 6.63415 11.4146 6.34146 11.2195C6.14634 11.122 5.85366 11.122 5.65854 11.122C5.17073 11.3171 4.87805 11.8049 5.07317 12.2927C5.65854 14.0488 7.02439 15.2195 9.07317 15.6098C9.17073 15.6098 9.17073 15.6098 9.26829 15.6098C9.46341 15.6098 9.65854 15.5122 9.7561 15.4146C9.95122 15.3171 10.1463 15.0244 10.1463 14.8293C10.3415 14.439 9.95122 13.9512 9.46341 13.8537ZM18.6341 1.56098C17.7561 0.682927 16.5854 0.097561 15.3171 0.097561L4.78049 0C2.2439 0 0.097561 2.14634 0.097561 4.68293L0 15.122C0 17.7561 2.04878 19.9024 4.68293 19.9024L10.1463 20C14.8293 20 19.7073 16.9756 20 10.3415L20.0976 4.87805C20 3.60976 19.5122 2.43902 18.6341 1.56098ZM10.9268 18.1463C11.4146 17.561 11.7073 16.878 12 16C12.6829 13.7561 13.8537 12.4878 16 12C16.7805 11.8049 17.561 11.4146 18.1463 10.8293C17.6585 15.8049 14.2439 17.8537 10.9268 18.1463ZM18.1463 6.82927C17.7561 8.78049 16.878 9.85366 15.5122 10.2439C12.7805 10.9268 11.0244 12.6829 10.2439 15.5122C9.7561 17.1707 8.78049 18.0488 7.21951 18.1463H4.68293C3.12195 18.1463 1.7561 16.7805 1.85366 15.2195L1.95122 4.78049C1.95122 3.21951 3.21951 1.85366 4.87805 1.85366L15.3171 1.95122C16.0976 1.95122 16.7805 2.2439 17.3659 2.82927C17.9512 3.41463 18.2439 4.09756 18.1463 4.87805V6.82927Z" fill="#43B65A"/>
</svg>
