<svg width="22" height="22" viewBox="0 0 22 22" fill="none" xmlns="http://www.w3.org/2000/svg">
<path d="M4.57191 5.97942C4.03543 5.97942 3.62565 6.38417 3.61279 6.9167C3.55016 7.20962 3.66752 7.46406 3.85534 7.63565C4.04379 7.80781 4.30921 7.90565 4.57191 7.90565H12.9656C13.5107 7.90565 13.925 7.48775 13.925 6.94253C13.925 6.39732 13.5107 5.97942 12.9656 5.97942H4.57191Z" fill="#808080"/>
<path d="M4.57191 9.39623C4.02679 9.39623 3.61248 9.81413 3.61248 10.3593C3.61248 10.9046 4.02679 11.3225 4.57191 11.3225H12.9656C13.5107 11.3225 13.925 10.9046 13.925 10.3593C13.925 9.81413 13.5107 9.39623 12.9656 9.39623H4.57191Z" fill="#808080"/>
<path d="M4.57191 12.813C4.02679 12.813 3.61248 13.2309 3.61248 13.7762C3.61248 14.3214 4.02679 14.7393 4.57191 14.7393H9.45938C10.0045 14.7393 10.4188 14.3214 10.4188 13.7762C10.4188 13.4868 10.2743 13.243 10.076 13.0769C9.87884 12.9118 9.61763 12.813 9.35314 12.813H4.57191Z" fill="#808080"/>
<path d="M18.6106 14.4512C18.4088 14.3159 18.1483 14.252 17.9051 14.2683C17.6658 14.2844 17.4108 14.3818 17.2554 14.6075L15.7926 16.3715L14.9982 15.8393C14.7965 15.7042 14.5314 15.6373 14.2784 15.6712C14.0276 15.7048 13.7828 15.8396 13.6379 16.1062C13.5105 16.2495 13.3758 16.5219 13.4952 16.8154C13.5123 17.0882 13.6711 17.2473 13.851 17.4276L13.8878 17.4645L15.3777 18.534C15.4766 18.6246 15.6023 18.6585 15.6925 18.6737C15.79 18.69 15.8845 18.69 15.9371 18.69H15.9406C16.2309 18.69 16.4951 18.5431 16.731 18.3061L16.7382 18.2988L18.7576 15.8422C18.8984 15.6959 19.025 15.4334 19.025 15.1642C19.025 14.8606 18.8582 14.6934 18.6677 14.5025L18.6284 14.4631L18.6106 14.4512Z" fill="#808080"/>
<path fill-rule="evenodd" clip-rule="evenodd" d="M2.97817 0C1.2699 0 0 1.26655 0 2.88507V17.2997C0 18.9183 1.2699 20.1848 2.97817 20.1848H12.021C13.1209 21.3608 14.639 22 16.2593 22C19.4523 22 22 19.5616 22 16.4455V16.4373L21.9994 16.4291C21.8895 14.9933 21.3383 13.6628 20.2372 12.5563C19.4024 11.7173 18.3649 11.1715 17.2188 11.0206V2.88507C17.2188 1.26655 15.9489 0 14.2406 0H2.97817ZM2.02511 2.88507C2.02511 2.36253 2.4608 1.92623 2.97817 1.92623H14.3469C14.8642 1.92623 15.2999 2.36253 15.2999 2.88507V11.0245C12.5315 11.4353 10.4124 13.7192 10.4124 16.4455C10.4124 17.0976 10.4912 17.6824 10.7206 18.2586H2.97817C2.4608 18.2586 2.02511 17.8223 2.02511 17.2997V2.88507ZM12.3313 16.4455C12.3313 14.4394 14.0304 12.8173 16.1531 12.8173H16.2593C17.2605 12.8173 18.1628 13.2187 18.8689 13.9283C19.5775 14.6403 19.9749 15.5483 19.9749 16.4455C19.9749 18.4517 18.2757 20.0738 16.1531 20.0738C14.9382 20.0738 13.8353 19.5657 13.1363 18.6625L13.1316 18.6569C12.6318 18.0541 12.3313 17.2483 12.3313 16.4455Z" fill="#808080"/>
</svg>
