<svg width="20" height="22" viewBox="0 0 20 22" fill="none" xmlns="http://www.w3.org/2000/svg">
<path fill-rule="evenodd" clip-rule="evenodd" d="M4.67005 22C3.85787 22 3.14721 21.4884 3.04569 20.6698L1.72589 5.32093H0.812183C0.406091 5.32093 0 4.91163 0 4.50233C0 4.09302 0.406091 3.68372 0.812183 3.68372H5.17766V1.63721C5.17766 0.716279 5.88832 0 6.80203 0H13.198C14.1117 0 14.8223 0.716279 14.8223 1.63721V3.5814H19.1878C19.6954 3.5814 20 3.9907 20 4.4C20 4.8093 19.5939 5.2186 19.1878 5.2186H18.2741L16.9543 20.4651C16.8528 21.2837 16.1421 22 15.3299 22H4.67005ZM4.77157 20.0558H15.0254L16.2437 5.32093H3.5533L4.77157 20.0558ZM6.90355 3.5814H12.8934V1.73953H6.90355V3.5814ZM11.8782 16.986C11.3706 16.986 10.8629 16.5767 10.8629 15.9628V9.10698C10.8629 8.59535 11.269 8.08372 11.8782 8.08372C12.3858 8.08372 12.8934 8.49302 12.8934 9.10698V16.0651C12.8934 16.5767 12.4873 16.986 11.8782 16.986ZM8.0203 16.986C7.51269 16.986 7.00508 16.5767 7.00508 15.9628V9.10698C7.00508 8.59535 7.41117 8.08372 8.0203 8.08372C8.52792 8.08372 9.03553 8.49302 9.03553 9.10698V16.0651C9.03553 16.5767 8.52792 16.986 8.0203 16.986Z" fill="#808080"/>
</svg>
