<svg width="24" height="24" viewBox="0 0 24 24" fill="none" xmlns="http://www.w3.org/2000/svg">
<path d="M14.4271 5.84071C13.7648 4.18142 12.1527 3 10.2658 3C7.79145 3 5.792 5.03097 5.792 7.53982C5.792 8.85398 6.35435 10.0487 7.2416 10.8717C4.85476 11.7743 2.9178 13.7124 2.13052 16.1947C1.86809 17.0177 2.00555 17.8805 2.50542 18.5841C3.00528 19.2743 3.78006 19.6858 4.62982 19.6858H12.2777C12.7651 19.6858 13.1525 19.2876 13.1525 18.7965C13.1525 18.3053 12.7651 17.9071 12.2777 17.9071H4.64232C4.3549 17.9071 4.10497 17.7743 3.93002 17.5354C3.76756 17.2965 3.71758 17.0177 3.80505 16.7389C4.67981 14.0044 7.32908 12.0929 10.2533 12.0929C11.6154 12.0929 12.915 12.5044 14.0272 13.2876C14.4271 13.5664 14.977 13.4735 15.2519 13.0619C15.5268 12.6637 15.4268 12.1062 15.0394 11.8274C14.4896 11.4425 13.9022 11.1239 13.2899 10.885C14.1022 10.1283 14.652 9.07965 14.7395 7.89823C14.727 7.89823 14.8145 6.67699 14.4271 5.84071ZM10.2658 4.77876C11.7653 4.77876 12.99 6.01327 12.99 7.53982C12.99 9.0531 11.7653 10.3009 10.2658 10.3009C8.76618 10.3009 7.54152 9.0531 7.54152 7.53982C7.54152 6.01327 8.76618 4.77876 10.2658 4.77876ZM22 16.7788C22 17.2699 21.6126 17.6681 21.1252 17.6681H18.7134V20.1106C18.7134 20.6018 18.326 21 17.8387 21C17.3513 21 16.9639 20.6018 16.9639 20.1106V17.6681H14.5521C14.0647 17.6681 13.6773 17.2699 13.6773 16.7788C13.6773 16.2876 14.0647 15.8894 14.5521 15.8894H16.9639V13.4469C16.9639 12.9558 17.3513 12.5575 17.8387 12.5575C18.326 12.5575 18.7134 12.9558 18.7134 13.4469V15.8894H21.1252C21.6126 15.8894 22 16.2876 22 16.7788Z" fill="white"/>
</svg>
