<svg width="12" height="8" viewBox="0 0 12 8" fill="none" xmlns="http://www.w3.org/2000/svg">
<path fill-rule="evenodd" clip-rule="evenodd" d="M11.2617 1.26316C11.047 1.05263 10.689 1.05263 10.4027 1.19298L8.75615 2.17544V1.75439C8.75615 0.77193 7.96868 0 6.96644 0H2.45638C1.45414 0 0.666666 0.77193 0.666666 1.75439V6.24561C0.666666 7.22807 1.45414 8 2.45638 8H7.03803C8.04027 8 8.82774 7.22807 8.82774 6.24561V5.89474L10.4743 6.73684C10.5459 6.80702 10.689 6.80702 10.7606 6.80702C11.1186 6.80702 11.3333 6.59649 11.3333 6.31579V1.54386C11.3333 1.47368 11.3333 1.40351 11.2617 1.26316ZM5.89262 4.42105L4.24608 5.33333C4.10291 5.40351 3.88814 5.33333 3.88814 5.12281V3.29825C3.88814 3.08772 4.10291 3.01754 4.24608 3.08772L5.89262 4C6.03579 4.07018 6.03579 4.2807 5.89262 4.42105Z" fill="#F8F8F8"/>
</svg>
