<svg width="16" height="20" viewBox="0 0 16 20" fill="none" xmlns="http://www.w3.org/2000/svg">
<path d="M13.0533 12.9917C12.9325 12.8071 12.8721 12.5417 12.8721 12.1953C12.8721 11.4229 13.1103 11.0366 13.5865 11.0366C13.8896 11.0366 14.1026 11.1654 14.2257 11.4229V12.8823C14.1003 13.1398 13.885 13.2686 13.5797 13.2686C13.3495 13.2686 13.1741 13.1763 13.0533 12.9917Z" fill="white"/>
<path d="M7.4241 12.9951C7.29193 12.8083 7.22585 12.5394 7.22585 12.1885C7.22585 11.7943 7.29193 11.5037 7.4241 11.3169C7.55626 11.1278 7.74311 11.0332 7.98464 11.0332C8.22846 11.0332 8.41759 11.1278 8.55203 11.3169C8.68647 11.506 8.75369 11.7726 8.75369 12.1167C8.75369 12.52 8.68647 12.814 8.55203 12.9985C8.41759 13.1808 8.23074 13.272 7.99148 13.272C7.74539 13.272 7.55626 13.1797 7.4241 12.9951Z" fill="white"/>
<path fill-rule="evenodd" clip-rule="evenodd" d="M3 20H13C14.6569 20 16 18.6569 16 17V6.24264C16 5.44699 15.6839 4.68393 15.1213 4.12132L11.8787 0.878679C11.3161 0.31607 10.553 0 9.75736 0H3C1.34315 0 0 1.34315 0 3V17C0 18.6569 1.34315 20 3 20ZM15 5H12C11.4477 5 11 4.55228 11 4V1L15 5ZM12.0184 11.2267C11.929 11.4849 11.8843 11.7839 11.8843 12.1235C11.8843 12.7342 12.0154 13.2116 12.2774 13.5557C12.5417 13.8975 12.8915 14.0684 13.3267 14.0684C13.7141 14.0684 14.0308 13.9146 14.2769 13.6069L14.3248 14H15.2169V8.75H14.2257V10.6367C13.991 10.3678 13.6936 10.2334 13.3336 10.2334C12.8847 10.2334 12.5303 10.4043 12.2706 10.7461C12.1704 10.8791 12.0896 11.03 12.0284 11.1986L12.0417 10.2778C11.946 10.2482 11.8434 10.2334 11.7341 10.2334C11.3831 10.2334 11.1086 10.4032 10.9103 10.7427L10.883 10.3018H9.94988V14H10.9377V11.5801C11.0539 11.3271 11.2988 11.2007 11.6725 11.2007C11.7726 11.2007 11.8879 11.2094 12.0184 11.2267ZM5.38708 9.02344L4.71716 12.5645L3.90027 9.02344H3.0321L2.21179 12.5576L1.53845 9.02344H0.516479L1.62048 14H2.65271L3.46277 10.6709L4.27283 14H5.30505L6.40906 9.02344H5.38708ZM6.44998 11.1357C6.3087 11.4229 6.23806 11.7498 6.23806 12.1167V12.1611C6.23806 12.749 6.39643 13.2139 6.71316 13.5557C7.03217 13.8975 7.45828 14.0684 7.99148 14.0684C8.52468 14.0684 8.94965 13.8975 9.26638 13.5557C9.58311 13.2116 9.74148 12.7559 9.74148 12.1885L9.73464 11.9355C9.69819 11.4115 9.52159 10.9967 9.20486 10.6914C8.89041 10.3861 8.48367 10.2334 7.98464 10.2334C7.63373 10.2334 7.32498 10.312 7.05837 10.4692C6.79405 10.6265 6.59125 10.8486 6.44998 11.1357Z" fill="white"/>
</svg>
