
<svg width="16" height="20" viewBox="0 0 16 20" fill="none" xmlns="http://www.w3.org/2000/svg">
<path d="M10.371 11.416H9.455V9.854H10.3949C10.6479 9.85856 10.8461 9.93604 10.9897 10.0864C11.1332 10.2368 11.205 10.4339 11.205 10.6777C11.205 10.9147 11.1332 11.097 10.9897 11.2246C10.8484 11.3522 10.6422 11.416 10.371 11.416Z" fill="white"/>
<path fill-rule="evenodd" clip-rule="evenodd" d="M3 20H13C14.6569 20 16 18.6569 16 17V6.24264C16 5.44699 15.6839 4.68393 15.1213 4.12132L11.8787 0.878679C11.3161 0.31607 10.553 0 9.75736 0H3C1.34315 0 0 1.34315 0 3V17C0 18.6569 1.34315 20 3 20ZM15 5H12C11.4477 5 11 4.55228 11 4V1L15 5ZM4.02747 13.1763H6.53625V14H2.74573V13.3984L5.20667 9.854H2.74915V9.02344H6.48157V9.61133L4.02747 13.1763ZM7.876 14H6.85061V9.02344H7.876V14ZM9.455 14V12.2466H10.3539C10.9441 12.2466 11.4055 12.1064 11.7382 11.8262C12.0732 11.5436 12.2407 11.1585 12.2407 10.6709C12.2407 10.3496 12.1643 10.0636 12.0116 9.81299C11.859 9.56006 11.6402 9.36523 11.3554 9.22852C11.0728 9.0918 10.7447 9.02344 10.371 9.02344H8.42961V14H9.455Z" fill="white"/>
</svg>
